M48
; DRILL file {KiCad 8.0.3} date 2024-07-25T17:07:34-0700
; FORMAT={-:-/ absolute / metric / decimal}
; #@! TF.CreationDate,2024-07-25T17:07:34-07:00
; #@! TF.GenerationSoftware,Kicad,Pcbnew,8.0.3
; #@! TF.FileFunction,Plated,1,2,PTH
FMAT,2
METRIC
; #@! TA.AperFunction,Plated,PTH,ViaDrill
T1C0.300
; #@! TA.AperFunction,Plated,PTH,ComponentDrill
T2C0.740
; #@! TA.AperFunction,Plated,PTH,ComponentDrill
T3C0.800
; #@! TA.AperFunction,Plated,PTH,ComponentDrill
T4C1.020
; #@! TA.AperFunction,Plated,PTH,ComponentDrill
T5C1.500
%
G90
G05
T1
X118.789Y-171.737
X118.908Y-192.857
X129.551Y-216.737
X132.551Y-232.737
X145.933Y-229.737
X152.082Y-228.125
X153.551Y-195.42
X161.607Y-197.169
X171.132Y-230.317
X171.132Y-232.887
X179.551Y-230.737
X190.183Y-194.787
X190.183Y-197.169
X190.183Y-199.55
X197.326Y-192.406
X206.851Y-225.944
X211.614Y-225.744
X211.724Y-230.718
X233.045Y-230.317
X233.045Y-232.887
X242.57Y-225.744
X247.332Y-196.98
X247.332Y-198.58
X255.264Y-196.94
X257.034Y-197.226
X264.001Y-228.125
X266.382Y-228.125
X273.526Y-225.744
X285.433Y-196.98
X285.433Y-198.98
X293.364Y-196.94
X295.121Y-197.332
X304.482Y-230.317
X304.482Y-232.887
X312.414Y-230.278
X316.389Y-225.744
X321.151Y-196.98
X321.151Y-208.562
X321.151Y-228.125
X330.676Y-197.875
X337.82Y-228.125
X344.964Y-225.744
X345.421Y-230.37
X361.632Y-230.317
T2
X77.946Y-172.56
X77.946Y-180.5
X80.486Y-172.56
X80.486Y-180.5
X83.026Y-172.56
X83.026Y-180.5
X85.566Y-172.56
X85.566Y-180.5
X88.106Y-172.56
X88.106Y-180.5
X90.646Y-172.56
X90.646Y-180.5
X93.186Y-172.56
X93.186Y-180.5
T3
X85.566Y-190.817
X85.566Y-198.438
X85.566Y-209.867
X85.566Y-217.487
X104.616Y-190.817
X104.616Y-198.438
X104.616Y-209.867
X104.616Y-217.487
X147.479Y-200.343
X147.479Y-207.962
X166.529Y-167.005
X166.529Y-174.625
X185.579Y-200.343
X185.579Y-207.962
X204.629Y-167.005
X204.629Y-174.625
X223.679Y-200.343
X223.679Y-207.962
X242.729Y-200.343
X242.729Y-207.962
X261.779Y-167.005
X261.779Y-174.625
X280.829Y-200.343
X280.829Y-207.962
X299.879Y-167.005
X299.879Y-174.625
X318.929Y-200.343
X318.929Y-207.962
X337.979Y-167.005
X337.979Y-174.625
X357.029Y-200.343
X357.029Y-207.962
X376.079Y-200.343
X376.079Y-207.962
T4
X54.696Y-147.797
X54.696Y-165.577
X57.236Y-147.797
X57.236Y-165.577
X59.776Y-147.797
X59.776Y-165.577
X62.316Y-147.797
X62.316Y-165.577
X64.856Y-147.797
X64.856Y-165.577
X67.396Y-147.797
X67.396Y-165.577
X69.936Y-147.797
X69.936Y-165.577
X72.476Y-147.797
X72.476Y-165.577
X75.016Y-147.797
X75.016Y-165.577
X77.556Y-147.797
X77.556Y-165.577
X80.096Y-147.797
X80.096Y-165.577
X82.636Y-147.797
X82.636Y-165.577
X85.176Y-147.797
X85.176Y-165.577
X87.716Y-147.797
X87.716Y-165.577
X90.256Y-147.797
X90.256Y-165.577
X92.796Y-147.797
X92.796Y-165.577
X95.336Y-147.797
X95.336Y-165.577
X97.876Y-147.797
X97.876Y-165.577
X100.416Y-147.797
X100.416Y-165.577
X102.726Y-154.147
X102.726Y-156.688
X102.726Y-159.227
X102.956Y-147.797
X102.956Y-165.577
T5
X72.231Y-193.04
X72.231Y-212.09
X78.581Y-190.5
X78.581Y-209.55
X91.281Y-193.04
X91.281Y-212.09
X97.631Y-190.5
X97.631Y-209.55
X134.144Y-202.565
X140.494Y-200.025
X153.194Y-169.227
X159.544Y-166.688
X172.244Y-202.565
X178.594Y-200.025
X191.294Y-169.227
X197.644Y-166.688
X210.344Y-202.565
X216.694Y-200.025
X229.394Y-202.565
X235.744Y-200.025
X248.444Y-169.227
X254.794Y-166.688
X267.494Y-202.565
X273.844Y-200.025
X286.544Y-169.227
X292.894Y-166.688
X305.594Y-202.565
X311.944Y-200.025
X324.644Y-169.227
X330.994Y-166.688
X343.694Y-202.565
X350.044Y-200.025
X362.744Y-202.565
X369.094Y-200.025
M30
