G04 #@! TF.GenerationSoftware,KiCad,Pcbnew,8.0.3*
G04 #@! TF.CreationDate,2024-07-25T17:07:34-07:00*
G04 #@! TF.ProjectId,melokey,6d656c6f-6b65-4792-9e6b-696361645f70,rev?*
G04 #@! TF.SameCoordinates,Original*
G04 #@! TF.FileFunction,Legend,Bot*
G04 #@! TF.FilePolarity,Positive*
%FSLAX46Y46*%
G04 Gerber Fmt 4.6, Leading zero omitted, Abs format (unit mm)*
G04 Created by KiCad (PCBNEW 8.0.3) date 2024-07-25 17:07:34*
%MOMM*%
%LPD*%
G01*
G04 APERTURE LIST*
G04 Aperture macros list*
%AMRoundRect*
0 Rectangle with rounded corners*
0 $1 Rounding radius*
0 $2 $3 $4 $5 $6 $7 $8 $9 X,Y pos of 4 corners*
0 Add a 4 corners polygon primitive as box body*
4,1,4,$2,$3,$4,$5,$6,$7,$8,$9,$2,$3,0*
0 Add four circle primitives for the rounded corners*
1,1,$1+$1,$2,$3*
1,1,$1+$1,$4,$5*
1,1,$1+$1,$6,$7*
1,1,$1+$1,$8,$9*
0 Add four rect primitives between the rounded corners*
20,1,$1+$1,$2,$3,$4,$5,0*
20,1,$1+$1,$4,$5,$6,$7,0*
20,1,$1+$1,$6,$7,$8,$9,0*
20,1,$1+$1,$8,$9,$2,$3,0*%
G04 Aperture macros list end*
%ADD10C,0.150000*%
%ADD11C,0.120000*%
%ADD12C,0.127000*%
%ADD13C,0.200000*%
%ADD14C,1.750000*%
%ADD15C,4.000000*%
%ADD16C,2.500000*%
%ADD17C,3.048000*%
%ADD18C,3.987800*%
%ADD19R,1.600000X1.600000*%
%ADD20O,1.600000X1.600000*%
%ADD21RoundRect,0.102000X0.570000X-0.570000X0.570000X0.570000X-0.570000X0.570000X-0.570000X-0.570000X0*%
%ADD22C,1.344000*%
%ADD23O,1.700000X1.700000*%
%ADD24R,1.700000X3.500000*%
%ADD25R,1.700000X1.700000*%
%ADD26R,3.500000X1.700000*%
G04 APERTURE END LIST*
D10*
X107191069Y-212463214D02*
X106191069Y-212463214D01*
X106191069Y-212463214D02*
X106191069Y-212701309D01*
X106191069Y-212701309D02*
X106238688Y-212844166D01*
X106238688Y-212844166D02*
X106333926Y-212939404D01*
X106333926Y-212939404D02*
X106429164Y-212987023D01*
X106429164Y-212987023D02*
X106619640Y-213034642D01*
X106619640Y-213034642D02*
X106762497Y-213034642D01*
X106762497Y-213034642D02*
X106952973Y-212987023D01*
X106952973Y-212987023D02*
X107048211Y-212939404D01*
X107048211Y-212939404D02*
X107143450Y-212844166D01*
X107143450Y-212844166D02*
X107191069Y-212701309D01*
X107191069Y-212701309D02*
X107191069Y-212463214D01*
X107191069Y-213987023D02*
X107191069Y-213415595D01*
X107191069Y-213701309D02*
X106191069Y-213701309D01*
X106191069Y-213701309D02*
X106333926Y-213606071D01*
X106333926Y-213606071D02*
X106429164Y-213510833D01*
X106429164Y-213510833D02*
X106476783Y-213415595D01*
X106191069Y-214320357D02*
X106191069Y-214987023D01*
X106191069Y-214987023D02*
X107191069Y-214558452D01*
X106871069Y-217225595D02*
X105871069Y-217225595D01*
X106871069Y-217797023D02*
X106299640Y-217368452D01*
X105871069Y-217797023D02*
X106442497Y-217225595D01*
X264353569Y-169600714D02*
X263353569Y-169600714D01*
X263353569Y-169600714D02*
X263353569Y-169838809D01*
X263353569Y-169838809D02*
X263401188Y-169981666D01*
X263401188Y-169981666D02*
X263496426Y-170076904D01*
X263496426Y-170076904D02*
X263591664Y-170124523D01*
X263591664Y-170124523D02*
X263782140Y-170172142D01*
X263782140Y-170172142D02*
X263924997Y-170172142D01*
X263924997Y-170172142D02*
X264115473Y-170124523D01*
X264115473Y-170124523D02*
X264210711Y-170076904D01*
X264210711Y-170076904D02*
X264305950Y-169981666D01*
X264305950Y-169981666D02*
X264353569Y-169838809D01*
X264353569Y-169838809D02*
X264353569Y-169600714D01*
X264353569Y-171124523D02*
X264353569Y-170553095D01*
X264353569Y-170838809D02*
X263353569Y-170838809D01*
X263353569Y-170838809D02*
X263496426Y-170743571D01*
X263496426Y-170743571D02*
X263591664Y-170648333D01*
X263591664Y-170648333D02*
X263639283Y-170553095D01*
X264353569Y-172076904D02*
X264353569Y-171505476D01*
X264353569Y-171791190D02*
X263353569Y-171791190D01*
X263353569Y-171791190D02*
X263496426Y-171695952D01*
X263496426Y-171695952D02*
X263591664Y-171600714D01*
X263591664Y-171600714D02*
X263639283Y-171505476D01*
X264033569Y-174363095D02*
X263033569Y-174363095D01*
X264033569Y-174934523D02*
X263462140Y-174505952D01*
X263033569Y-174934523D02*
X263604997Y-174363095D01*
X245303569Y-203414405D02*
X244303569Y-203414405D01*
X244303569Y-203414405D02*
X244303569Y-203652500D01*
X244303569Y-203652500D02*
X244351188Y-203795357D01*
X244351188Y-203795357D02*
X244446426Y-203890595D01*
X244446426Y-203890595D02*
X244541664Y-203938214D01*
X244541664Y-203938214D02*
X244732140Y-203985833D01*
X244732140Y-203985833D02*
X244874997Y-203985833D01*
X244874997Y-203985833D02*
X245065473Y-203938214D01*
X245065473Y-203938214D02*
X245160711Y-203890595D01*
X245160711Y-203890595D02*
X245255950Y-203795357D01*
X245255950Y-203795357D02*
X245303569Y-203652500D01*
X245303569Y-203652500D02*
X245303569Y-203414405D01*
X244636902Y-204842976D02*
X245303569Y-204842976D01*
X244255950Y-204604881D02*
X244970235Y-204366786D01*
X244970235Y-204366786D02*
X244970235Y-204985833D01*
X244983569Y-207700595D02*
X243983569Y-207700595D01*
X244983569Y-208272023D02*
X244412140Y-207843452D01*
X243983569Y-208272023D02*
X244554997Y-207700595D01*
X207203569Y-169600714D02*
X206203569Y-169600714D01*
X206203569Y-169600714D02*
X206203569Y-169838809D01*
X206203569Y-169838809D02*
X206251188Y-169981666D01*
X206251188Y-169981666D02*
X206346426Y-170076904D01*
X206346426Y-170076904D02*
X206441664Y-170124523D01*
X206441664Y-170124523D02*
X206632140Y-170172142D01*
X206632140Y-170172142D02*
X206774997Y-170172142D01*
X206774997Y-170172142D02*
X206965473Y-170124523D01*
X206965473Y-170124523D02*
X207060711Y-170076904D01*
X207060711Y-170076904D02*
X207155950Y-169981666D01*
X207155950Y-169981666D02*
X207203569Y-169838809D01*
X207203569Y-169838809D02*
X207203569Y-169600714D01*
X207203569Y-171124523D02*
X207203569Y-170553095D01*
X207203569Y-170838809D02*
X206203569Y-170838809D01*
X206203569Y-170838809D02*
X206346426Y-170743571D01*
X206346426Y-170743571D02*
X206441664Y-170648333D01*
X206441664Y-170648333D02*
X206489283Y-170553095D01*
X206203569Y-171743571D02*
X206203569Y-171838809D01*
X206203569Y-171838809D02*
X206251188Y-171934047D01*
X206251188Y-171934047D02*
X206298807Y-171981666D01*
X206298807Y-171981666D02*
X206394045Y-172029285D01*
X206394045Y-172029285D02*
X206584521Y-172076904D01*
X206584521Y-172076904D02*
X206822616Y-172076904D01*
X206822616Y-172076904D02*
X207013092Y-172029285D01*
X207013092Y-172029285D02*
X207108330Y-171981666D01*
X207108330Y-171981666D02*
X207155950Y-171934047D01*
X207155950Y-171934047D02*
X207203569Y-171838809D01*
X207203569Y-171838809D02*
X207203569Y-171743571D01*
X207203569Y-171743571D02*
X207155950Y-171648333D01*
X207155950Y-171648333D02*
X207108330Y-171600714D01*
X207108330Y-171600714D02*
X207013092Y-171553095D01*
X207013092Y-171553095D02*
X206822616Y-171505476D01*
X206822616Y-171505476D02*
X206584521Y-171505476D01*
X206584521Y-171505476D02*
X206394045Y-171553095D01*
X206394045Y-171553095D02*
X206298807Y-171600714D01*
X206298807Y-171600714D02*
X206251188Y-171648333D01*
X206251188Y-171648333D02*
X206203569Y-171743571D01*
X206883569Y-174363095D02*
X205883569Y-174363095D01*
X206883569Y-174934523D02*
X206312140Y-174505952D01*
X205883569Y-174934523D02*
X206454997Y-174363095D01*
X88141069Y-193413214D02*
X87141069Y-193413214D01*
X87141069Y-193413214D02*
X87141069Y-193651309D01*
X87141069Y-193651309D02*
X87188688Y-193794166D01*
X87188688Y-193794166D02*
X87283926Y-193889404D01*
X87283926Y-193889404D02*
X87379164Y-193937023D01*
X87379164Y-193937023D02*
X87569640Y-193984642D01*
X87569640Y-193984642D02*
X87712497Y-193984642D01*
X87712497Y-193984642D02*
X87902973Y-193937023D01*
X87902973Y-193937023D02*
X87998211Y-193889404D01*
X87998211Y-193889404D02*
X88093450Y-193794166D01*
X88093450Y-193794166D02*
X88141069Y-193651309D01*
X88141069Y-193651309D02*
X88141069Y-193413214D01*
X88141069Y-194937023D02*
X88141069Y-194365595D01*
X88141069Y-194651309D02*
X87141069Y-194651309D01*
X87141069Y-194651309D02*
X87283926Y-194556071D01*
X87283926Y-194556071D02*
X87379164Y-194460833D01*
X87379164Y-194460833D02*
X87426783Y-194365595D01*
X87474402Y-195794166D02*
X88141069Y-195794166D01*
X87093450Y-195556071D02*
X87807735Y-195317976D01*
X87807735Y-195317976D02*
X87807735Y-195937023D01*
X87821069Y-198175595D02*
X86821069Y-198175595D01*
X87821069Y-198747023D02*
X87249640Y-198318452D01*
X86821069Y-198747023D02*
X87392497Y-198175595D01*
X378653569Y-203414405D02*
X377653569Y-203414405D01*
X377653569Y-203414405D02*
X377653569Y-203652500D01*
X377653569Y-203652500D02*
X377701188Y-203795357D01*
X377701188Y-203795357D02*
X377796426Y-203890595D01*
X377796426Y-203890595D02*
X377891664Y-203938214D01*
X377891664Y-203938214D02*
X378082140Y-203985833D01*
X378082140Y-203985833D02*
X378224997Y-203985833D01*
X378224997Y-203985833D02*
X378415473Y-203938214D01*
X378415473Y-203938214D02*
X378510711Y-203890595D01*
X378510711Y-203890595D02*
X378605950Y-203795357D01*
X378605950Y-203795357D02*
X378653569Y-203652500D01*
X378653569Y-203652500D02*
X378653569Y-203414405D01*
X378082140Y-204557262D02*
X378034521Y-204462024D01*
X378034521Y-204462024D02*
X377986902Y-204414405D01*
X377986902Y-204414405D02*
X377891664Y-204366786D01*
X377891664Y-204366786D02*
X377844045Y-204366786D01*
X377844045Y-204366786D02*
X377748807Y-204414405D01*
X377748807Y-204414405D02*
X377701188Y-204462024D01*
X377701188Y-204462024D02*
X377653569Y-204557262D01*
X377653569Y-204557262D02*
X377653569Y-204747738D01*
X377653569Y-204747738D02*
X377701188Y-204842976D01*
X377701188Y-204842976D02*
X377748807Y-204890595D01*
X377748807Y-204890595D02*
X377844045Y-204938214D01*
X377844045Y-204938214D02*
X377891664Y-204938214D01*
X377891664Y-204938214D02*
X377986902Y-204890595D01*
X377986902Y-204890595D02*
X378034521Y-204842976D01*
X378034521Y-204842976D02*
X378082140Y-204747738D01*
X378082140Y-204747738D02*
X378082140Y-204557262D01*
X378082140Y-204557262D02*
X378129759Y-204462024D01*
X378129759Y-204462024D02*
X378177378Y-204414405D01*
X378177378Y-204414405D02*
X378272616Y-204366786D01*
X378272616Y-204366786D02*
X378463092Y-204366786D01*
X378463092Y-204366786D02*
X378558330Y-204414405D01*
X378558330Y-204414405D02*
X378605950Y-204462024D01*
X378605950Y-204462024D02*
X378653569Y-204557262D01*
X378653569Y-204557262D02*
X378653569Y-204747738D01*
X378653569Y-204747738D02*
X378605950Y-204842976D01*
X378605950Y-204842976D02*
X378558330Y-204890595D01*
X378558330Y-204890595D02*
X378463092Y-204938214D01*
X378463092Y-204938214D02*
X378272616Y-204938214D01*
X378272616Y-204938214D02*
X378177378Y-204890595D01*
X378177378Y-204890595D02*
X378129759Y-204842976D01*
X378129759Y-204842976D02*
X378082140Y-204747738D01*
X378333569Y-207700595D02*
X377333569Y-207700595D01*
X378333569Y-208272023D02*
X377762140Y-207843452D01*
X377333569Y-208272023D02*
X377904997Y-207700595D01*
X107191069Y-193413214D02*
X106191069Y-193413214D01*
X106191069Y-193413214D02*
X106191069Y-193651309D01*
X106191069Y-193651309D02*
X106238688Y-193794166D01*
X106238688Y-193794166D02*
X106333926Y-193889404D01*
X106333926Y-193889404D02*
X106429164Y-193937023D01*
X106429164Y-193937023D02*
X106619640Y-193984642D01*
X106619640Y-193984642D02*
X106762497Y-193984642D01*
X106762497Y-193984642D02*
X106952973Y-193937023D01*
X106952973Y-193937023D02*
X107048211Y-193889404D01*
X107048211Y-193889404D02*
X107143450Y-193794166D01*
X107143450Y-193794166D02*
X107191069Y-193651309D01*
X107191069Y-193651309D02*
X107191069Y-193413214D01*
X107191069Y-194937023D02*
X107191069Y-194365595D01*
X107191069Y-194651309D02*
X106191069Y-194651309D01*
X106191069Y-194651309D02*
X106333926Y-194556071D01*
X106333926Y-194556071D02*
X106429164Y-194460833D01*
X106429164Y-194460833D02*
X106476783Y-194365595D01*
X106191069Y-195841785D02*
X106191069Y-195365595D01*
X106191069Y-195365595D02*
X106667259Y-195317976D01*
X106667259Y-195317976D02*
X106619640Y-195365595D01*
X106619640Y-195365595D02*
X106572021Y-195460833D01*
X106572021Y-195460833D02*
X106572021Y-195698928D01*
X106572021Y-195698928D02*
X106619640Y-195794166D01*
X106619640Y-195794166D02*
X106667259Y-195841785D01*
X106667259Y-195841785D02*
X106762497Y-195889404D01*
X106762497Y-195889404D02*
X107000592Y-195889404D01*
X107000592Y-195889404D02*
X107095830Y-195841785D01*
X107095830Y-195841785D02*
X107143450Y-195794166D01*
X107143450Y-195794166D02*
X107191069Y-195698928D01*
X107191069Y-195698928D02*
X107191069Y-195460833D01*
X107191069Y-195460833D02*
X107143450Y-195365595D01*
X107143450Y-195365595D02*
X107095830Y-195317976D01*
X106871069Y-198175595D02*
X105871069Y-198175595D01*
X106871069Y-198747023D02*
X106299640Y-198318452D01*
X105871069Y-198747023D02*
X106442497Y-198175595D01*
X188153569Y-203414405D02*
X187153569Y-203414405D01*
X187153569Y-203414405D02*
X187153569Y-203652500D01*
X187153569Y-203652500D02*
X187201188Y-203795357D01*
X187201188Y-203795357D02*
X187296426Y-203890595D01*
X187296426Y-203890595D02*
X187391664Y-203938214D01*
X187391664Y-203938214D02*
X187582140Y-203985833D01*
X187582140Y-203985833D02*
X187724997Y-203985833D01*
X187724997Y-203985833D02*
X187915473Y-203938214D01*
X187915473Y-203938214D02*
X188010711Y-203890595D01*
X188010711Y-203890595D02*
X188105950Y-203795357D01*
X188105950Y-203795357D02*
X188153569Y-203652500D01*
X188153569Y-203652500D02*
X188153569Y-203414405D01*
X187248807Y-204366786D02*
X187201188Y-204414405D01*
X187201188Y-204414405D02*
X187153569Y-204509643D01*
X187153569Y-204509643D02*
X187153569Y-204747738D01*
X187153569Y-204747738D02*
X187201188Y-204842976D01*
X187201188Y-204842976D02*
X187248807Y-204890595D01*
X187248807Y-204890595D02*
X187344045Y-204938214D01*
X187344045Y-204938214D02*
X187439283Y-204938214D01*
X187439283Y-204938214D02*
X187582140Y-204890595D01*
X187582140Y-204890595D02*
X188153569Y-204319167D01*
X188153569Y-204319167D02*
X188153569Y-204938214D01*
X187833569Y-207700595D02*
X186833569Y-207700595D01*
X187833569Y-208272023D02*
X187262140Y-207843452D01*
X186833569Y-208272023D02*
X187404997Y-207700595D01*
X226253569Y-203414405D02*
X225253569Y-203414405D01*
X225253569Y-203414405D02*
X225253569Y-203652500D01*
X225253569Y-203652500D02*
X225301188Y-203795357D01*
X225301188Y-203795357D02*
X225396426Y-203890595D01*
X225396426Y-203890595D02*
X225491664Y-203938214D01*
X225491664Y-203938214D02*
X225682140Y-203985833D01*
X225682140Y-203985833D02*
X225824997Y-203985833D01*
X225824997Y-203985833D02*
X226015473Y-203938214D01*
X226015473Y-203938214D02*
X226110711Y-203890595D01*
X226110711Y-203890595D02*
X226205950Y-203795357D01*
X226205950Y-203795357D02*
X226253569Y-203652500D01*
X226253569Y-203652500D02*
X226253569Y-203414405D01*
X225253569Y-204319167D02*
X225253569Y-204938214D01*
X225253569Y-204938214D02*
X225634521Y-204604881D01*
X225634521Y-204604881D02*
X225634521Y-204747738D01*
X225634521Y-204747738D02*
X225682140Y-204842976D01*
X225682140Y-204842976D02*
X225729759Y-204890595D01*
X225729759Y-204890595D02*
X225824997Y-204938214D01*
X225824997Y-204938214D02*
X226063092Y-204938214D01*
X226063092Y-204938214D02*
X226158330Y-204890595D01*
X226158330Y-204890595D02*
X226205950Y-204842976D01*
X226205950Y-204842976D02*
X226253569Y-204747738D01*
X226253569Y-204747738D02*
X226253569Y-204462024D01*
X226253569Y-204462024D02*
X226205950Y-204366786D01*
X226205950Y-204366786D02*
X226158330Y-204319167D01*
X225933569Y-207700595D02*
X224933569Y-207700595D01*
X225933569Y-208272023D02*
X225362140Y-207843452D01*
X224933569Y-208272023D02*
X225504997Y-207700595D01*
X302453569Y-169600714D02*
X301453569Y-169600714D01*
X301453569Y-169600714D02*
X301453569Y-169838809D01*
X301453569Y-169838809D02*
X301501188Y-169981666D01*
X301501188Y-169981666D02*
X301596426Y-170076904D01*
X301596426Y-170076904D02*
X301691664Y-170124523D01*
X301691664Y-170124523D02*
X301882140Y-170172142D01*
X301882140Y-170172142D02*
X302024997Y-170172142D01*
X302024997Y-170172142D02*
X302215473Y-170124523D01*
X302215473Y-170124523D02*
X302310711Y-170076904D01*
X302310711Y-170076904D02*
X302405950Y-169981666D01*
X302405950Y-169981666D02*
X302453569Y-169838809D01*
X302453569Y-169838809D02*
X302453569Y-169600714D01*
X302453569Y-171124523D02*
X302453569Y-170553095D01*
X302453569Y-170838809D02*
X301453569Y-170838809D01*
X301453569Y-170838809D02*
X301596426Y-170743571D01*
X301596426Y-170743571D02*
X301691664Y-170648333D01*
X301691664Y-170648333D02*
X301739283Y-170553095D01*
X301548807Y-171505476D02*
X301501188Y-171553095D01*
X301501188Y-171553095D02*
X301453569Y-171648333D01*
X301453569Y-171648333D02*
X301453569Y-171886428D01*
X301453569Y-171886428D02*
X301501188Y-171981666D01*
X301501188Y-171981666D02*
X301548807Y-172029285D01*
X301548807Y-172029285D02*
X301644045Y-172076904D01*
X301644045Y-172076904D02*
X301739283Y-172076904D01*
X301739283Y-172076904D02*
X301882140Y-172029285D01*
X301882140Y-172029285D02*
X302453569Y-171457857D01*
X302453569Y-171457857D02*
X302453569Y-172076904D01*
X302133569Y-174363095D02*
X301133569Y-174363095D01*
X302133569Y-174934523D02*
X301562140Y-174505952D01*
X301133569Y-174934523D02*
X301704997Y-174363095D01*
X95796069Y-177393095D02*
X96605592Y-177393095D01*
X96605592Y-177393095D02*
X96700830Y-177440714D01*
X96700830Y-177440714D02*
X96748450Y-177488333D01*
X96748450Y-177488333D02*
X96796069Y-177583571D01*
X96796069Y-177583571D02*
X96796069Y-177774047D01*
X96796069Y-177774047D02*
X96748450Y-177869285D01*
X96748450Y-177869285D02*
X96700830Y-177916904D01*
X96700830Y-177916904D02*
X96605592Y-177964523D01*
X96605592Y-177964523D02*
X95796069Y-177964523D01*
X95891307Y-178393095D02*
X95843688Y-178440714D01*
X95843688Y-178440714D02*
X95796069Y-178535952D01*
X95796069Y-178535952D02*
X95796069Y-178774047D01*
X95796069Y-178774047D02*
X95843688Y-178869285D01*
X95843688Y-178869285D02*
X95891307Y-178916904D01*
X95891307Y-178916904D02*
X95986545Y-178964523D01*
X95986545Y-178964523D02*
X96081783Y-178964523D01*
X96081783Y-178964523D02*
X96224640Y-178916904D01*
X96224640Y-178916904D02*
X96796069Y-178345476D01*
X96796069Y-178345476D02*
X96796069Y-178964523D01*
X150053569Y-203414405D02*
X149053569Y-203414405D01*
X149053569Y-203414405D02*
X149053569Y-203652500D01*
X149053569Y-203652500D02*
X149101188Y-203795357D01*
X149101188Y-203795357D02*
X149196426Y-203890595D01*
X149196426Y-203890595D02*
X149291664Y-203938214D01*
X149291664Y-203938214D02*
X149482140Y-203985833D01*
X149482140Y-203985833D02*
X149624997Y-203985833D01*
X149624997Y-203985833D02*
X149815473Y-203938214D01*
X149815473Y-203938214D02*
X149910711Y-203890595D01*
X149910711Y-203890595D02*
X150005950Y-203795357D01*
X150005950Y-203795357D02*
X150053569Y-203652500D01*
X150053569Y-203652500D02*
X150053569Y-203414405D01*
X150053569Y-204938214D02*
X150053569Y-204366786D01*
X150053569Y-204652500D02*
X149053569Y-204652500D01*
X149053569Y-204652500D02*
X149196426Y-204557262D01*
X149196426Y-204557262D02*
X149291664Y-204462024D01*
X149291664Y-204462024D02*
X149339283Y-204366786D01*
X149733569Y-207700595D02*
X148733569Y-207700595D01*
X149733569Y-208272023D02*
X149162140Y-207843452D01*
X148733569Y-208272023D02*
X149304997Y-207700595D01*
X359603569Y-203414405D02*
X358603569Y-203414405D01*
X358603569Y-203414405D02*
X358603569Y-203652500D01*
X358603569Y-203652500D02*
X358651188Y-203795357D01*
X358651188Y-203795357D02*
X358746426Y-203890595D01*
X358746426Y-203890595D02*
X358841664Y-203938214D01*
X358841664Y-203938214D02*
X359032140Y-203985833D01*
X359032140Y-203985833D02*
X359174997Y-203985833D01*
X359174997Y-203985833D02*
X359365473Y-203938214D01*
X359365473Y-203938214D02*
X359460711Y-203890595D01*
X359460711Y-203890595D02*
X359555950Y-203795357D01*
X359555950Y-203795357D02*
X359603569Y-203652500D01*
X359603569Y-203652500D02*
X359603569Y-203414405D01*
X358603569Y-204319167D02*
X358603569Y-204985833D01*
X358603569Y-204985833D02*
X359603569Y-204557262D01*
X359283569Y-207700595D02*
X358283569Y-207700595D01*
X359283569Y-208272023D02*
X358712140Y-207843452D01*
X358283569Y-208272023D02*
X358854997Y-207700595D01*
X79696640Y-150076071D02*
X79658545Y-149999881D01*
X79658545Y-149999881D02*
X79658545Y-149885595D01*
X79658545Y-149885595D02*
X79696640Y-149771309D01*
X79696640Y-149771309D02*
X79772830Y-149695119D01*
X79772830Y-149695119D02*
X79849021Y-149657024D01*
X79849021Y-149657024D02*
X80001402Y-149618928D01*
X80001402Y-149618928D02*
X80115688Y-149618928D01*
X80115688Y-149618928D02*
X80268069Y-149657024D01*
X80268069Y-149657024D02*
X80344259Y-149695119D01*
X80344259Y-149695119D02*
X80420450Y-149771309D01*
X80420450Y-149771309D02*
X80458545Y-149885595D01*
X80458545Y-149885595D02*
X80458545Y-149961786D01*
X80458545Y-149961786D02*
X80420450Y-150076071D01*
X80420450Y-150076071D02*
X80382354Y-150114167D01*
X80382354Y-150114167D02*
X80115688Y-150114167D01*
X80115688Y-150114167D02*
X80115688Y-149961786D01*
X80458545Y-150457024D02*
X79658545Y-150457024D01*
X79658545Y-150457024D02*
X79658545Y-150761786D01*
X79658545Y-150761786D02*
X79696640Y-150837976D01*
X79696640Y-150837976D02*
X79734735Y-150876071D01*
X79734735Y-150876071D02*
X79810926Y-150914167D01*
X79810926Y-150914167D02*
X79925211Y-150914167D01*
X79925211Y-150914167D02*
X80001402Y-150876071D01*
X80001402Y-150876071D02*
X80039497Y-150837976D01*
X80039497Y-150837976D02*
X80077592Y-150761786D01*
X80077592Y-150761786D02*
X80077592Y-150457024D01*
X80001402Y-151371309D02*
X79963307Y-151295119D01*
X79963307Y-151295119D02*
X79925211Y-151257024D01*
X79925211Y-151257024D02*
X79849021Y-151218928D01*
X79849021Y-151218928D02*
X79810926Y-151218928D01*
X79810926Y-151218928D02*
X79734735Y-151257024D01*
X79734735Y-151257024D02*
X79696640Y-151295119D01*
X79696640Y-151295119D02*
X79658545Y-151371309D01*
X79658545Y-151371309D02*
X79658545Y-151523690D01*
X79658545Y-151523690D02*
X79696640Y-151599881D01*
X79696640Y-151599881D02*
X79734735Y-151637976D01*
X79734735Y-151637976D02*
X79810926Y-151676071D01*
X79810926Y-151676071D02*
X79849021Y-151676071D01*
X79849021Y-151676071D02*
X79925211Y-151637976D01*
X79925211Y-151637976D02*
X79963307Y-151599881D01*
X79963307Y-151599881D02*
X80001402Y-151523690D01*
X80001402Y-151523690D02*
X80001402Y-151371309D01*
X80001402Y-151371309D02*
X80039497Y-151295119D01*
X80039497Y-151295119D02*
X80077592Y-151257024D01*
X80077592Y-151257024D02*
X80153783Y-151218928D01*
X80153783Y-151218928D02*
X80306164Y-151218928D01*
X80306164Y-151218928D02*
X80382354Y-151257024D01*
X80382354Y-151257024D02*
X80420450Y-151295119D01*
X80420450Y-151295119D02*
X80458545Y-151371309D01*
X80458545Y-151371309D02*
X80458545Y-151523690D01*
X80458545Y-151523690D02*
X80420450Y-151599881D01*
X80420450Y-151599881D02*
X80382354Y-151637976D01*
X80382354Y-151637976D02*
X80306164Y-151676071D01*
X80306164Y-151676071D02*
X80153783Y-151676071D01*
X80153783Y-151676071D02*
X80077592Y-151637976D01*
X80077592Y-151637976D02*
X80039497Y-151599881D01*
X80039497Y-151599881D02*
X80001402Y-151523690D01*
X64418545Y-161737023D02*
X64418545Y-162232261D01*
X64418545Y-162232261D02*
X64723307Y-161965595D01*
X64723307Y-161965595D02*
X64723307Y-162079880D01*
X64723307Y-162079880D02*
X64761402Y-162156071D01*
X64761402Y-162156071D02*
X64799497Y-162194166D01*
X64799497Y-162194166D02*
X64875688Y-162232261D01*
X64875688Y-162232261D02*
X65066164Y-162232261D01*
X65066164Y-162232261D02*
X65142354Y-162194166D01*
X65142354Y-162194166D02*
X65180450Y-162156071D01*
X65180450Y-162156071D02*
X65218545Y-162079880D01*
X65218545Y-162079880D02*
X65218545Y-161851309D01*
X65218545Y-161851309D02*
X65180450Y-161775118D01*
X65180450Y-161775118D02*
X65142354Y-161737023D01*
X64418545Y-162460833D02*
X65218545Y-162727500D01*
X65218545Y-162727500D02*
X64418545Y-162994166D01*
X64418545Y-163184642D02*
X64418545Y-163679880D01*
X64418545Y-163679880D02*
X64723307Y-163413214D01*
X64723307Y-163413214D02*
X64723307Y-163527499D01*
X64723307Y-163527499D02*
X64761402Y-163603690D01*
X64761402Y-163603690D02*
X64799497Y-163641785D01*
X64799497Y-163641785D02*
X64875688Y-163679880D01*
X64875688Y-163679880D02*
X65066164Y-163679880D01*
X65066164Y-163679880D02*
X65142354Y-163641785D01*
X65142354Y-163641785D02*
X65180450Y-163603690D01*
X65180450Y-163603690D02*
X65218545Y-163527499D01*
X65218545Y-163527499D02*
X65218545Y-163298928D01*
X65218545Y-163298928D02*
X65180450Y-163222737D01*
X65180450Y-163222737D02*
X65142354Y-163184642D01*
X54296640Y-150076071D02*
X54258545Y-149999881D01*
X54258545Y-149999881D02*
X54258545Y-149885595D01*
X54258545Y-149885595D02*
X54296640Y-149771309D01*
X54296640Y-149771309D02*
X54372830Y-149695119D01*
X54372830Y-149695119D02*
X54449021Y-149657024D01*
X54449021Y-149657024D02*
X54601402Y-149618928D01*
X54601402Y-149618928D02*
X54715688Y-149618928D01*
X54715688Y-149618928D02*
X54868069Y-149657024D01*
X54868069Y-149657024D02*
X54944259Y-149695119D01*
X54944259Y-149695119D02*
X55020450Y-149771309D01*
X55020450Y-149771309D02*
X55058545Y-149885595D01*
X55058545Y-149885595D02*
X55058545Y-149961786D01*
X55058545Y-149961786D02*
X55020450Y-150076071D01*
X55020450Y-150076071D02*
X54982354Y-150114167D01*
X54982354Y-150114167D02*
X54715688Y-150114167D01*
X54715688Y-150114167D02*
X54715688Y-149961786D01*
X55058545Y-150457024D02*
X54258545Y-150457024D01*
X54258545Y-150457024D02*
X54258545Y-150761786D01*
X54258545Y-150761786D02*
X54296640Y-150837976D01*
X54296640Y-150837976D02*
X54334735Y-150876071D01*
X54334735Y-150876071D02*
X54410926Y-150914167D01*
X54410926Y-150914167D02*
X54525211Y-150914167D01*
X54525211Y-150914167D02*
X54601402Y-150876071D01*
X54601402Y-150876071D02*
X54639497Y-150837976D01*
X54639497Y-150837976D02*
X54677592Y-150761786D01*
X54677592Y-150761786D02*
X54677592Y-150457024D01*
X54258545Y-151409405D02*
X54258545Y-151485595D01*
X54258545Y-151485595D02*
X54296640Y-151561786D01*
X54296640Y-151561786D02*
X54334735Y-151599881D01*
X54334735Y-151599881D02*
X54410926Y-151637976D01*
X54410926Y-151637976D02*
X54563307Y-151676071D01*
X54563307Y-151676071D02*
X54753783Y-151676071D01*
X54753783Y-151676071D02*
X54906164Y-151637976D01*
X54906164Y-151637976D02*
X54982354Y-151599881D01*
X54982354Y-151599881D02*
X55020450Y-151561786D01*
X55020450Y-151561786D02*
X55058545Y-151485595D01*
X55058545Y-151485595D02*
X55058545Y-151409405D01*
X55058545Y-151409405D02*
X55020450Y-151333214D01*
X55020450Y-151333214D02*
X54982354Y-151295119D01*
X54982354Y-151295119D02*
X54906164Y-151257024D01*
X54906164Y-151257024D02*
X54753783Y-151218928D01*
X54753783Y-151218928D02*
X54563307Y-151218928D01*
X54563307Y-151218928D02*
X54410926Y-151257024D01*
X54410926Y-151257024D02*
X54334735Y-151295119D01*
X54334735Y-151295119D02*
X54296640Y-151333214D01*
X54296640Y-151333214D02*
X54258545Y-151409405D01*
X82236640Y-150076071D02*
X82198545Y-149999881D01*
X82198545Y-149999881D02*
X82198545Y-149885595D01*
X82198545Y-149885595D02*
X82236640Y-149771309D01*
X82236640Y-149771309D02*
X82312830Y-149695119D01*
X82312830Y-149695119D02*
X82389021Y-149657024D01*
X82389021Y-149657024D02*
X82541402Y-149618928D01*
X82541402Y-149618928D02*
X82655688Y-149618928D01*
X82655688Y-149618928D02*
X82808069Y-149657024D01*
X82808069Y-149657024D02*
X82884259Y-149695119D01*
X82884259Y-149695119D02*
X82960450Y-149771309D01*
X82960450Y-149771309D02*
X82998545Y-149885595D01*
X82998545Y-149885595D02*
X82998545Y-149961786D01*
X82998545Y-149961786D02*
X82960450Y-150076071D01*
X82960450Y-150076071D02*
X82922354Y-150114167D01*
X82922354Y-150114167D02*
X82655688Y-150114167D01*
X82655688Y-150114167D02*
X82655688Y-149961786D01*
X82998545Y-150457024D02*
X82198545Y-150457024D01*
X82198545Y-150457024D02*
X82198545Y-150761786D01*
X82198545Y-150761786D02*
X82236640Y-150837976D01*
X82236640Y-150837976D02*
X82274735Y-150876071D01*
X82274735Y-150876071D02*
X82350926Y-150914167D01*
X82350926Y-150914167D02*
X82465211Y-150914167D01*
X82465211Y-150914167D02*
X82541402Y-150876071D01*
X82541402Y-150876071D02*
X82579497Y-150837976D01*
X82579497Y-150837976D02*
X82617592Y-150761786D01*
X82617592Y-150761786D02*
X82617592Y-150457024D01*
X82998545Y-151295119D02*
X82998545Y-151447500D01*
X82998545Y-151447500D02*
X82960450Y-151523690D01*
X82960450Y-151523690D02*
X82922354Y-151561786D01*
X82922354Y-151561786D02*
X82808069Y-151637976D01*
X82808069Y-151637976D02*
X82655688Y-151676071D01*
X82655688Y-151676071D02*
X82350926Y-151676071D01*
X82350926Y-151676071D02*
X82274735Y-151637976D01*
X82274735Y-151637976D02*
X82236640Y-151599881D01*
X82236640Y-151599881D02*
X82198545Y-151523690D01*
X82198545Y-151523690D02*
X82198545Y-151371309D01*
X82198545Y-151371309D02*
X82236640Y-151295119D01*
X82236640Y-151295119D02*
X82274735Y-151257024D01*
X82274735Y-151257024D02*
X82350926Y-151218928D01*
X82350926Y-151218928D02*
X82541402Y-151218928D01*
X82541402Y-151218928D02*
X82617592Y-151257024D01*
X82617592Y-151257024D02*
X82655688Y-151295119D01*
X82655688Y-151295119D02*
X82693783Y-151371309D01*
X82693783Y-151371309D02*
X82693783Y-151523690D01*
X82693783Y-151523690D02*
X82655688Y-151599881D01*
X82655688Y-151599881D02*
X82617592Y-151637976D01*
X82617592Y-151637976D02*
X82541402Y-151676071D01*
X100885774Y-154471700D02*
X100771488Y-154509795D01*
X100771488Y-154509795D02*
X100581012Y-154509795D01*
X100581012Y-154509795D02*
X100504821Y-154471700D01*
X100504821Y-154471700D02*
X100466726Y-154433604D01*
X100466726Y-154433604D02*
X100428631Y-154357414D01*
X100428631Y-154357414D02*
X100428631Y-154281223D01*
X100428631Y-154281223D02*
X100466726Y-154205033D01*
X100466726Y-154205033D02*
X100504821Y-154166938D01*
X100504821Y-154166938D02*
X100581012Y-154128842D01*
X100581012Y-154128842D02*
X100733393Y-154090747D01*
X100733393Y-154090747D02*
X100809583Y-154052652D01*
X100809583Y-154052652D02*
X100847678Y-154014557D01*
X100847678Y-154014557D02*
X100885774Y-153938366D01*
X100885774Y-153938366D02*
X100885774Y-153862176D01*
X100885774Y-153862176D02*
X100847678Y-153785985D01*
X100847678Y-153785985D02*
X100809583Y-153747890D01*
X100809583Y-153747890D02*
X100733393Y-153709795D01*
X100733393Y-153709795D02*
X100542916Y-153709795D01*
X100542916Y-153709795D02*
X100428631Y-153747890D01*
X100161964Y-153709795D02*
X99971488Y-154509795D01*
X99971488Y-154509795D02*
X99819107Y-153938366D01*
X99819107Y-153938366D02*
X99666726Y-154509795D01*
X99666726Y-154509795D02*
X99476250Y-153709795D01*
X98714344Y-154433604D02*
X98752440Y-154471700D01*
X98752440Y-154471700D02*
X98866725Y-154509795D01*
X98866725Y-154509795D02*
X98942916Y-154509795D01*
X98942916Y-154509795D02*
X99057202Y-154471700D01*
X99057202Y-154471700D02*
X99133392Y-154395509D01*
X99133392Y-154395509D02*
X99171487Y-154319319D01*
X99171487Y-154319319D02*
X99209583Y-154166938D01*
X99209583Y-154166938D02*
X99209583Y-154052652D01*
X99209583Y-154052652D02*
X99171487Y-153900271D01*
X99171487Y-153900271D02*
X99133392Y-153824080D01*
X99133392Y-153824080D02*
X99057202Y-153747890D01*
X99057202Y-153747890D02*
X98942916Y-153709795D01*
X98942916Y-153709795D02*
X98866725Y-153709795D01*
X98866725Y-153709795D02*
X98752440Y-153747890D01*
X98752440Y-153747890D02*
X98714344Y-153785985D01*
X97990535Y-154509795D02*
X98371487Y-154509795D01*
X98371487Y-154509795D02*
X98371487Y-153709795D01*
X97723868Y-154509795D02*
X97723868Y-153709795D01*
X97266725Y-154509795D02*
X97609583Y-154052652D01*
X97266725Y-153709795D02*
X97723868Y-154166938D01*
X72609973Y-160817976D02*
X72609973Y-161198929D01*
X72838545Y-160741786D02*
X72038545Y-161008453D01*
X72038545Y-161008453D02*
X72838545Y-161275119D01*
X72076640Y-161960833D02*
X72038545Y-161884643D01*
X72038545Y-161884643D02*
X72038545Y-161770357D01*
X72038545Y-161770357D02*
X72076640Y-161656071D01*
X72076640Y-161656071D02*
X72152830Y-161579881D01*
X72152830Y-161579881D02*
X72229021Y-161541786D01*
X72229021Y-161541786D02*
X72381402Y-161503690D01*
X72381402Y-161503690D02*
X72495688Y-161503690D01*
X72495688Y-161503690D02*
X72648069Y-161541786D01*
X72648069Y-161541786D02*
X72724259Y-161579881D01*
X72724259Y-161579881D02*
X72800450Y-161656071D01*
X72800450Y-161656071D02*
X72838545Y-161770357D01*
X72838545Y-161770357D02*
X72838545Y-161846548D01*
X72838545Y-161846548D02*
X72800450Y-161960833D01*
X72800450Y-161960833D02*
X72762354Y-161998929D01*
X72762354Y-161998929D02*
X72495688Y-161998929D01*
X72495688Y-161998929D02*
X72495688Y-161846548D01*
X72838545Y-162341786D02*
X72038545Y-162341786D01*
X72038545Y-162341786D02*
X72838545Y-162798929D01*
X72838545Y-162798929D02*
X72038545Y-162798929D01*
X72838545Y-163179881D02*
X72038545Y-163179881D01*
X72038545Y-163179881D02*
X72038545Y-163370357D01*
X72038545Y-163370357D02*
X72076640Y-163484643D01*
X72076640Y-163484643D02*
X72152830Y-163560833D01*
X72152830Y-163560833D02*
X72229021Y-163598928D01*
X72229021Y-163598928D02*
X72381402Y-163637024D01*
X72381402Y-163637024D02*
X72495688Y-163637024D01*
X72495688Y-163637024D02*
X72648069Y-163598928D01*
X72648069Y-163598928D02*
X72724259Y-163560833D01*
X72724259Y-163560833D02*
X72800450Y-163484643D01*
X72800450Y-163484643D02*
X72838545Y-163370357D01*
X72838545Y-163370357D02*
X72838545Y-163179881D01*
X100435773Y-156287890D02*
X100511963Y-156249795D01*
X100511963Y-156249795D02*
X100626249Y-156249795D01*
X100626249Y-156249795D02*
X100740535Y-156287890D01*
X100740535Y-156287890D02*
X100816725Y-156364080D01*
X100816725Y-156364080D02*
X100854820Y-156440271D01*
X100854820Y-156440271D02*
X100892916Y-156592652D01*
X100892916Y-156592652D02*
X100892916Y-156706938D01*
X100892916Y-156706938D02*
X100854820Y-156859319D01*
X100854820Y-156859319D02*
X100816725Y-156935509D01*
X100816725Y-156935509D02*
X100740535Y-157011700D01*
X100740535Y-157011700D02*
X100626249Y-157049795D01*
X100626249Y-157049795D02*
X100550058Y-157049795D01*
X100550058Y-157049795D02*
X100435773Y-157011700D01*
X100435773Y-157011700D02*
X100397677Y-156973604D01*
X100397677Y-156973604D02*
X100397677Y-156706938D01*
X100397677Y-156706938D02*
X100550058Y-156706938D01*
X100054820Y-157049795D02*
X100054820Y-156249795D01*
X100054820Y-156249795D02*
X99597677Y-157049795D01*
X99597677Y-157049795D02*
X99597677Y-156249795D01*
X99216725Y-157049795D02*
X99216725Y-156249795D01*
X99216725Y-156249795D02*
X99026249Y-156249795D01*
X99026249Y-156249795D02*
X98911963Y-156287890D01*
X98911963Y-156287890D02*
X98835773Y-156364080D01*
X98835773Y-156364080D02*
X98797678Y-156440271D01*
X98797678Y-156440271D02*
X98759582Y-156592652D01*
X98759582Y-156592652D02*
X98759582Y-156706938D01*
X98759582Y-156706938D02*
X98797678Y-156859319D01*
X98797678Y-156859319D02*
X98835773Y-156935509D01*
X98835773Y-156935509D02*
X98911963Y-157011700D01*
X98911963Y-157011700D02*
X99026249Y-157049795D01*
X99026249Y-157049795D02*
X99216725Y-157049795D01*
X56826640Y-150076071D02*
X56788545Y-149999881D01*
X56788545Y-149999881D02*
X56788545Y-149885595D01*
X56788545Y-149885595D02*
X56826640Y-149771309D01*
X56826640Y-149771309D02*
X56902830Y-149695119D01*
X56902830Y-149695119D02*
X56979021Y-149657024D01*
X56979021Y-149657024D02*
X57131402Y-149618928D01*
X57131402Y-149618928D02*
X57245688Y-149618928D01*
X57245688Y-149618928D02*
X57398069Y-149657024D01*
X57398069Y-149657024D02*
X57474259Y-149695119D01*
X57474259Y-149695119D02*
X57550450Y-149771309D01*
X57550450Y-149771309D02*
X57588545Y-149885595D01*
X57588545Y-149885595D02*
X57588545Y-149961786D01*
X57588545Y-149961786D02*
X57550450Y-150076071D01*
X57550450Y-150076071D02*
X57512354Y-150114167D01*
X57512354Y-150114167D02*
X57245688Y-150114167D01*
X57245688Y-150114167D02*
X57245688Y-149961786D01*
X57588545Y-150457024D02*
X56788545Y-150457024D01*
X56788545Y-150457024D02*
X56788545Y-150761786D01*
X56788545Y-150761786D02*
X56826640Y-150837976D01*
X56826640Y-150837976D02*
X56864735Y-150876071D01*
X56864735Y-150876071D02*
X56940926Y-150914167D01*
X56940926Y-150914167D02*
X57055211Y-150914167D01*
X57055211Y-150914167D02*
X57131402Y-150876071D01*
X57131402Y-150876071D02*
X57169497Y-150837976D01*
X57169497Y-150837976D02*
X57207592Y-150761786D01*
X57207592Y-150761786D02*
X57207592Y-150457024D01*
X57588545Y-151676071D02*
X57588545Y-151218928D01*
X57588545Y-151447500D02*
X56788545Y-151447500D01*
X56788545Y-151447500D02*
X56902830Y-151371309D01*
X56902830Y-151371309D02*
X56979021Y-151295119D01*
X56979021Y-151295119D02*
X57017116Y-151218928D01*
X100771488Y-159551700D02*
X100657202Y-159589795D01*
X100657202Y-159589795D02*
X100466726Y-159589795D01*
X100466726Y-159589795D02*
X100390535Y-159551700D01*
X100390535Y-159551700D02*
X100352440Y-159513604D01*
X100352440Y-159513604D02*
X100314345Y-159437414D01*
X100314345Y-159437414D02*
X100314345Y-159361223D01*
X100314345Y-159361223D02*
X100352440Y-159285033D01*
X100352440Y-159285033D02*
X100390535Y-159246938D01*
X100390535Y-159246938D02*
X100466726Y-159208842D01*
X100466726Y-159208842D02*
X100619107Y-159170747D01*
X100619107Y-159170747D02*
X100695297Y-159132652D01*
X100695297Y-159132652D02*
X100733392Y-159094557D01*
X100733392Y-159094557D02*
X100771488Y-159018366D01*
X100771488Y-159018366D02*
X100771488Y-158942176D01*
X100771488Y-158942176D02*
X100733392Y-158865985D01*
X100733392Y-158865985D02*
X100695297Y-158827890D01*
X100695297Y-158827890D02*
X100619107Y-158789795D01*
X100619107Y-158789795D02*
X100428630Y-158789795D01*
X100428630Y-158789795D02*
X100314345Y-158827890D01*
X100047678Y-158789795D02*
X99857202Y-159589795D01*
X99857202Y-159589795D02*
X99704821Y-159018366D01*
X99704821Y-159018366D02*
X99552440Y-159589795D01*
X99552440Y-159589795D02*
X99361964Y-158789795D01*
X99057201Y-159589795D02*
X99057201Y-158789795D01*
X99057201Y-158789795D02*
X98866725Y-158789795D01*
X98866725Y-158789795D02*
X98752439Y-158827890D01*
X98752439Y-158827890D02*
X98676249Y-158904080D01*
X98676249Y-158904080D02*
X98638154Y-158980271D01*
X98638154Y-158980271D02*
X98600058Y-159132652D01*
X98600058Y-159132652D02*
X98600058Y-159246938D01*
X98600058Y-159246938D02*
X98638154Y-159399319D01*
X98638154Y-159399319D02*
X98676249Y-159475509D01*
X98676249Y-159475509D02*
X98752439Y-159551700D01*
X98752439Y-159551700D02*
X98866725Y-159589795D01*
X98866725Y-159589795D02*
X99057201Y-159589795D01*
X98257201Y-159589795D02*
X98257201Y-158789795D01*
X97723868Y-158789795D02*
X97571487Y-158789795D01*
X97571487Y-158789795D02*
X97495297Y-158827890D01*
X97495297Y-158827890D02*
X97419106Y-158904080D01*
X97419106Y-158904080D02*
X97381011Y-159056461D01*
X97381011Y-159056461D02*
X97381011Y-159323128D01*
X97381011Y-159323128D02*
X97419106Y-159475509D01*
X97419106Y-159475509D02*
X97495297Y-159551700D01*
X97495297Y-159551700D02*
X97571487Y-159589795D01*
X97571487Y-159589795D02*
X97723868Y-159589795D01*
X97723868Y-159589795D02*
X97800059Y-159551700D01*
X97800059Y-159551700D02*
X97876249Y-159475509D01*
X97876249Y-159475509D02*
X97914345Y-159323128D01*
X97914345Y-159323128D02*
X97914345Y-159056461D01*
X97914345Y-159056461D02*
X97876249Y-158904080D01*
X97876249Y-158904080D02*
X97800059Y-158827890D01*
X97800059Y-158827890D02*
X97723868Y-158789795D01*
X69536640Y-150076071D02*
X69498545Y-149999881D01*
X69498545Y-149999881D02*
X69498545Y-149885595D01*
X69498545Y-149885595D02*
X69536640Y-149771309D01*
X69536640Y-149771309D02*
X69612830Y-149695119D01*
X69612830Y-149695119D02*
X69689021Y-149657024D01*
X69689021Y-149657024D02*
X69841402Y-149618928D01*
X69841402Y-149618928D02*
X69955688Y-149618928D01*
X69955688Y-149618928D02*
X70108069Y-149657024D01*
X70108069Y-149657024D02*
X70184259Y-149695119D01*
X70184259Y-149695119D02*
X70260450Y-149771309D01*
X70260450Y-149771309D02*
X70298545Y-149885595D01*
X70298545Y-149885595D02*
X70298545Y-149961786D01*
X70298545Y-149961786D02*
X70260450Y-150076071D01*
X70260450Y-150076071D02*
X70222354Y-150114167D01*
X70222354Y-150114167D02*
X69955688Y-150114167D01*
X69955688Y-150114167D02*
X69955688Y-149961786D01*
X70298545Y-150457024D02*
X69498545Y-150457024D01*
X69498545Y-150457024D02*
X69498545Y-150761786D01*
X69498545Y-150761786D02*
X69536640Y-150837976D01*
X69536640Y-150837976D02*
X69574735Y-150876071D01*
X69574735Y-150876071D02*
X69650926Y-150914167D01*
X69650926Y-150914167D02*
X69765211Y-150914167D01*
X69765211Y-150914167D02*
X69841402Y-150876071D01*
X69841402Y-150876071D02*
X69879497Y-150837976D01*
X69879497Y-150837976D02*
X69917592Y-150761786D01*
X69917592Y-150761786D02*
X69917592Y-150457024D01*
X69498545Y-151637976D02*
X69498545Y-151257024D01*
X69498545Y-151257024D02*
X69879497Y-151218928D01*
X69879497Y-151218928D02*
X69841402Y-151257024D01*
X69841402Y-151257024D02*
X69803307Y-151333214D01*
X69803307Y-151333214D02*
X69803307Y-151523690D01*
X69803307Y-151523690D02*
X69841402Y-151599881D01*
X69841402Y-151599881D02*
X69879497Y-151637976D01*
X69879497Y-151637976D02*
X69955688Y-151676071D01*
X69955688Y-151676071D02*
X70146164Y-151676071D01*
X70146164Y-151676071D02*
X70222354Y-151637976D01*
X70222354Y-151637976D02*
X70260450Y-151599881D01*
X70260450Y-151599881D02*
X70298545Y-151523690D01*
X70298545Y-151523690D02*
X70298545Y-151333214D01*
X70298545Y-151333214D02*
X70260450Y-151257024D01*
X70260450Y-151257024D02*
X70222354Y-151218928D01*
X74626640Y-161275118D02*
X74588545Y-161198928D01*
X74588545Y-161198928D02*
X74588545Y-161084642D01*
X74588545Y-161084642D02*
X74626640Y-160970356D01*
X74626640Y-160970356D02*
X74702830Y-160894166D01*
X74702830Y-160894166D02*
X74779021Y-160856071D01*
X74779021Y-160856071D02*
X74931402Y-160817975D01*
X74931402Y-160817975D02*
X75045688Y-160817975D01*
X75045688Y-160817975D02*
X75198069Y-160856071D01*
X75198069Y-160856071D02*
X75274259Y-160894166D01*
X75274259Y-160894166D02*
X75350450Y-160970356D01*
X75350450Y-160970356D02*
X75388545Y-161084642D01*
X75388545Y-161084642D02*
X75388545Y-161160833D01*
X75388545Y-161160833D02*
X75350450Y-161275118D01*
X75350450Y-161275118D02*
X75312354Y-161313214D01*
X75312354Y-161313214D02*
X75045688Y-161313214D01*
X75045688Y-161313214D02*
X75045688Y-161160833D01*
X75388545Y-161656071D02*
X74588545Y-161656071D01*
X74588545Y-161656071D02*
X74588545Y-161960833D01*
X74588545Y-161960833D02*
X74626640Y-162037023D01*
X74626640Y-162037023D02*
X74664735Y-162075118D01*
X74664735Y-162075118D02*
X74740926Y-162113214D01*
X74740926Y-162113214D02*
X74855211Y-162113214D01*
X74855211Y-162113214D02*
X74931402Y-162075118D01*
X74931402Y-162075118D02*
X74969497Y-162037023D01*
X74969497Y-162037023D02*
X75007592Y-161960833D01*
X75007592Y-161960833D02*
X75007592Y-161656071D01*
X74664735Y-162417975D02*
X74626640Y-162456071D01*
X74626640Y-162456071D02*
X74588545Y-162532261D01*
X74588545Y-162532261D02*
X74588545Y-162722737D01*
X74588545Y-162722737D02*
X74626640Y-162798928D01*
X74626640Y-162798928D02*
X74664735Y-162837023D01*
X74664735Y-162837023D02*
X74740926Y-162875118D01*
X74740926Y-162875118D02*
X74817116Y-162875118D01*
X74817116Y-162875118D02*
X74931402Y-162837023D01*
X74931402Y-162837023D02*
X75388545Y-162379880D01*
X75388545Y-162379880D02*
X75388545Y-162875118D01*
X74588545Y-163141785D02*
X74588545Y-163675119D01*
X74588545Y-163675119D02*
X75388545Y-163332261D01*
X84776640Y-161967976D02*
X84738545Y-161891786D01*
X84738545Y-161891786D02*
X84738545Y-161777500D01*
X84738545Y-161777500D02*
X84776640Y-161663214D01*
X84776640Y-161663214D02*
X84852830Y-161587024D01*
X84852830Y-161587024D02*
X84929021Y-161548929D01*
X84929021Y-161548929D02*
X85081402Y-161510833D01*
X85081402Y-161510833D02*
X85195688Y-161510833D01*
X85195688Y-161510833D02*
X85348069Y-161548929D01*
X85348069Y-161548929D02*
X85424259Y-161587024D01*
X85424259Y-161587024D02*
X85500450Y-161663214D01*
X85500450Y-161663214D02*
X85538545Y-161777500D01*
X85538545Y-161777500D02*
X85538545Y-161853691D01*
X85538545Y-161853691D02*
X85500450Y-161967976D01*
X85500450Y-161967976D02*
X85462354Y-162006072D01*
X85462354Y-162006072D02*
X85195688Y-162006072D01*
X85195688Y-162006072D02*
X85195688Y-161853691D01*
X85538545Y-162348929D02*
X84738545Y-162348929D01*
X84738545Y-162348929D02*
X85538545Y-162806072D01*
X85538545Y-162806072D02*
X84738545Y-162806072D01*
X85538545Y-163187024D02*
X84738545Y-163187024D01*
X84738545Y-163187024D02*
X84738545Y-163377500D01*
X84738545Y-163377500D02*
X84776640Y-163491786D01*
X84776640Y-163491786D02*
X84852830Y-163567976D01*
X84852830Y-163567976D02*
X84929021Y-163606071D01*
X84929021Y-163606071D02*
X85081402Y-163644167D01*
X85081402Y-163644167D02*
X85195688Y-163644167D01*
X85195688Y-163644167D02*
X85348069Y-163606071D01*
X85348069Y-163606071D02*
X85424259Y-163567976D01*
X85424259Y-163567976D02*
X85500450Y-163491786D01*
X85500450Y-163491786D02*
X85538545Y-163377500D01*
X85538545Y-163377500D02*
X85538545Y-163187024D01*
X94936640Y-161275118D02*
X94898545Y-161198928D01*
X94898545Y-161198928D02*
X94898545Y-161084642D01*
X94898545Y-161084642D02*
X94936640Y-160970356D01*
X94936640Y-160970356D02*
X95012830Y-160894166D01*
X95012830Y-160894166D02*
X95089021Y-160856071D01*
X95089021Y-160856071D02*
X95241402Y-160817975D01*
X95241402Y-160817975D02*
X95355688Y-160817975D01*
X95355688Y-160817975D02*
X95508069Y-160856071D01*
X95508069Y-160856071D02*
X95584259Y-160894166D01*
X95584259Y-160894166D02*
X95660450Y-160970356D01*
X95660450Y-160970356D02*
X95698545Y-161084642D01*
X95698545Y-161084642D02*
X95698545Y-161160833D01*
X95698545Y-161160833D02*
X95660450Y-161275118D01*
X95660450Y-161275118D02*
X95622354Y-161313214D01*
X95622354Y-161313214D02*
X95355688Y-161313214D01*
X95355688Y-161313214D02*
X95355688Y-161160833D01*
X95698545Y-161656071D02*
X94898545Y-161656071D01*
X94898545Y-161656071D02*
X94898545Y-161960833D01*
X94898545Y-161960833D02*
X94936640Y-162037023D01*
X94936640Y-162037023D02*
X94974735Y-162075118D01*
X94974735Y-162075118D02*
X95050926Y-162113214D01*
X95050926Y-162113214D02*
X95165211Y-162113214D01*
X95165211Y-162113214D02*
X95241402Y-162075118D01*
X95241402Y-162075118D02*
X95279497Y-162037023D01*
X95279497Y-162037023D02*
X95317592Y-161960833D01*
X95317592Y-161960833D02*
X95317592Y-161656071D01*
X95698545Y-162875118D02*
X95698545Y-162417975D01*
X95698545Y-162646547D02*
X94898545Y-162646547D01*
X94898545Y-162646547D02*
X95012830Y-162570356D01*
X95012830Y-162570356D02*
X95089021Y-162494166D01*
X95089021Y-162494166D02*
X95127116Y-162417975D01*
X95241402Y-163332261D02*
X95203307Y-163256071D01*
X95203307Y-163256071D02*
X95165211Y-163217976D01*
X95165211Y-163217976D02*
X95089021Y-163179880D01*
X95089021Y-163179880D02*
X95050926Y-163179880D01*
X95050926Y-163179880D02*
X94974735Y-163217976D01*
X94974735Y-163217976D02*
X94936640Y-163256071D01*
X94936640Y-163256071D02*
X94898545Y-163332261D01*
X94898545Y-163332261D02*
X94898545Y-163484642D01*
X94898545Y-163484642D02*
X94936640Y-163560833D01*
X94936640Y-163560833D02*
X94974735Y-163598928D01*
X94974735Y-163598928D02*
X95050926Y-163637023D01*
X95050926Y-163637023D02*
X95089021Y-163637023D01*
X95089021Y-163637023D02*
X95165211Y-163598928D01*
X95165211Y-163598928D02*
X95203307Y-163560833D01*
X95203307Y-163560833D02*
X95241402Y-163484642D01*
X95241402Y-163484642D02*
X95241402Y-163332261D01*
X95241402Y-163332261D02*
X95279497Y-163256071D01*
X95279497Y-163256071D02*
X95317592Y-163217976D01*
X95317592Y-163217976D02*
X95393783Y-163179880D01*
X95393783Y-163179880D02*
X95546164Y-163179880D01*
X95546164Y-163179880D02*
X95622354Y-163217976D01*
X95622354Y-163217976D02*
X95660450Y-163256071D01*
X95660450Y-163256071D02*
X95698545Y-163332261D01*
X95698545Y-163332261D02*
X95698545Y-163484642D01*
X95698545Y-163484642D02*
X95660450Y-163560833D01*
X95660450Y-163560833D02*
X95622354Y-163598928D01*
X95622354Y-163598928D02*
X95546164Y-163637023D01*
X95546164Y-163637023D02*
X95393783Y-163637023D01*
X95393783Y-163637023D02*
X95317592Y-163598928D01*
X95317592Y-163598928D02*
X95279497Y-163560833D01*
X95279497Y-163560833D02*
X95241402Y-163484642D01*
X66996640Y-150076071D02*
X66958545Y-149999881D01*
X66958545Y-149999881D02*
X66958545Y-149885595D01*
X66958545Y-149885595D02*
X66996640Y-149771309D01*
X66996640Y-149771309D02*
X67072830Y-149695119D01*
X67072830Y-149695119D02*
X67149021Y-149657024D01*
X67149021Y-149657024D02*
X67301402Y-149618928D01*
X67301402Y-149618928D02*
X67415688Y-149618928D01*
X67415688Y-149618928D02*
X67568069Y-149657024D01*
X67568069Y-149657024D02*
X67644259Y-149695119D01*
X67644259Y-149695119D02*
X67720450Y-149771309D01*
X67720450Y-149771309D02*
X67758545Y-149885595D01*
X67758545Y-149885595D02*
X67758545Y-149961786D01*
X67758545Y-149961786D02*
X67720450Y-150076071D01*
X67720450Y-150076071D02*
X67682354Y-150114167D01*
X67682354Y-150114167D02*
X67415688Y-150114167D01*
X67415688Y-150114167D02*
X67415688Y-149961786D01*
X67758545Y-150457024D02*
X66958545Y-150457024D01*
X66958545Y-150457024D02*
X66958545Y-150761786D01*
X66958545Y-150761786D02*
X66996640Y-150837976D01*
X66996640Y-150837976D02*
X67034735Y-150876071D01*
X67034735Y-150876071D02*
X67110926Y-150914167D01*
X67110926Y-150914167D02*
X67225211Y-150914167D01*
X67225211Y-150914167D02*
X67301402Y-150876071D01*
X67301402Y-150876071D02*
X67339497Y-150837976D01*
X67339497Y-150837976D02*
X67377592Y-150761786D01*
X67377592Y-150761786D02*
X67377592Y-150457024D01*
X67225211Y-151599881D02*
X67758545Y-151599881D01*
X66920450Y-151409405D02*
X67491878Y-151218928D01*
X67491878Y-151218928D02*
X67491878Y-151714167D01*
X82236640Y-161275118D02*
X82198545Y-161198928D01*
X82198545Y-161198928D02*
X82198545Y-161084642D01*
X82198545Y-161084642D02*
X82236640Y-160970356D01*
X82236640Y-160970356D02*
X82312830Y-160894166D01*
X82312830Y-160894166D02*
X82389021Y-160856071D01*
X82389021Y-160856071D02*
X82541402Y-160817975D01*
X82541402Y-160817975D02*
X82655688Y-160817975D01*
X82655688Y-160817975D02*
X82808069Y-160856071D01*
X82808069Y-160856071D02*
X82884259Y-160894166D01*
X82884259Y-160894166D02*
X82960450Y-160970356D01*
X82960450Y-160970356D02*
X82998545Y-161084642D01*
X82998545Y-161084642D02*
X82998545Y-161160833D01*
X82998545Y-161160833D02*
X82960450Y-161275118D01*
X82960450Y-161275118D02*
X82922354Y-161313214D01*
X82922354Y-161313214D02*
X82655688Y-161313214D01*
X82655688Y-161313214D02*
X82655688Y-161160833D01*
X82998545Y-161656071D02*
X82198545Y-161656071D01*
X82198545Y-161656071D02*
X82198545Y-161960833D01*
X82198545Y-161960833D02*
X82236640Y-162037023D01*
X82236640Y-162037023D02*
X82274735Y-162075118D01*
X82274735Y-162075118D02*
X82350926Y-162113214D01*
X82350926Y-162113214D02*
X82465211Y-162113214D01*
X82465211Y-162113214D02*
X82541402Y-162075118D01*
X82541402Y-162075118D02*
X82579497Y-162037023D01*
X82579497Y-162037023D02*
X82617592Y-161960833D01*
X82617592Y-161960833D02*
X82617592Y-161656071D01*
X82274735Y-162417975D02*
X82236640Y-162456071D01*
X82236640Y-162456071D02*
X82198545Y-162532261D01*
X82198545Y-162532261D02*
X82198545Y-162722737D01*
X82198545Y-162722737D02*
X82236640Y-162798928D01*
X82236640Y-162798928D02*
X82274735Y-162837023D01*
X82274735Y-162837023D02*
X82350926Y-162875118D01*
X82350926Y-162875118D02*
X82427116Y-162875118D01*
X82427116Y-162875118D02*
X82541402Y-162837023D01*
X82541402Y-162837023D02*
X82998545Y-162379880D01*
X82998545Y-162379880D02*
X82998545Y-162875118D01*
X82274735Y-163179880D02*
X82236640Y-163217976D01*
X82236640Y-163217976D02*
X82198545Y-163294166D01*
X82198545Y-163294166D02*
X82198545Y-163484642D01*
X82198545Y-163484642D02*
X82236640Y-163560833D01*
X82236640Y-163560833D02*
X82274735Y-163598928D01*
X82274735Y-163598928D02*
X82350926Y-163637023D01*
X82350926Y-163637023D02*
X82427116Y-163637023D01*
X82427116Y-163637023D02*
X82541402Y-163598928D01*
X82541402Y-163598928D02*
X82998545Y-163141785D01*
X82998545Y-163141785D02*
X82998545Y-163637023D01*
X92396640Y-161275118D02*
X92358545Y-161198928D01*
X92358545Y-161198928D02*
X92358545Y-161084642D01*
X92358545Y-161084642D02*
X92396640Y-160970356D01*
X92396640Y-160970356D02*
X92472830Y-160894166D01*
X92472830Y-160894166D02*
X92549021Y-160856071D01*
X92549021Y-160856071D02*
X92701402Y-160817975D01*
X92701402Y-160817975D02*
X92815688Y-160817975D01*
X92815688Y-160817975D02*
X92968069Y-160856071D01*
X92968069Y-160856071D02*
X93044259Y-160894166D01*
X93044259Y-160894166D02*
X93120450Y-160970356D01*
X93120450Y-160970356D02*
X93158545Y-161084642D01*
X93158545Y-161084642D02*
X93158545Y-161160833D01*
X93158545Y-161160833D02*
X93120450Y-161275118D01*
X93120450Y-161275118D02*
X93082354Y-161313214D01*
X93082354Y-161313214D02*
X92815688Y-161313214D01*
X92815688Y-161313214D02*
X92815688Y-161160833D01*
X93158545Y-161656071D02*
X92358545Y-161656071D01*
X92358545Y-161656071D02*
X92358545Y-161960833D01*
X92358545Y-161960833D02*
X92396640Y-162037023D01*
X92396640Y-162037023D02*
X92434735Y-162075118D01*
X92434735Y-162075118D02*
X92510926Y-162113214D01*
X92510926Y-162113214D02*
X92625211Y-162113214D01*
X92625211Y-162113214D02*
X92701402Y-162075118D01*
X92701402Y-162075118D02*
X92739497Y-162037023D01*
X92739497Y-162037023D02*
X92777592Y-161960833D01*
X92777592Y-161960833D02*
X92777592Y-161656071D01*
X93158545Y-162875118D02*
X93158545Y-162417975D01*
X93158545Y-162646547D02*
X92358545Y-162646547D01*
X92358545Y-162646547D02*
X92472830Y-162570356D01*
X92472830Y-162570356D02*
X92549021Y-162494166D01*
X92549021Y-162494166D02*
X92587116Y-162417975D01*
X93158545Y-163256071D02*
X93158545Y-163408452D01*
X93158545Y-163408452D02*
X93120450Y-163484642D01*
X93120450Y-163484642D02*
X93082354Y-163522738D01*
X93082354Y-163522738D02*
X92968069Y-163598928D01*
X92968069Y-163598928D02*
X92815688Y-163637023D01*
X92815688Y-163637023D02*
X92510926Y-163637023D01*
X92510926Y-163637023D02*
X92434735Y-163598928D01*
X92434735Y-163598928D02*
X92396640Y-163560833D01*
X92396640Y-163560833D02*
X92358545Y-163484642D01*
X92358545Y-163484642D02*
X92358545Y-163332261D01*
X92358545Y-163332261D02*
X92396640Y-163256071D01*
X92396640Y-163256071D02*
X92434735Y-163217976D01*
X92434735Y-163217976D02*
X92510926Y-163179880D01*
X92510926Y-163179880D02*
X92701402Y-163179880D01*
X92701402Y-163179880D02*
X92777592Y-163217976D01*
X92777592Y-163217976D02*
X92815688Y-163256071D01*
X92815688Y-163256071D02*
X92853783Y-163332261D01*
X92853783Y-163332261D02*
X92853783Y-163484642D01*
X92853783Y-163484642D02*
X92815688Y-163560833D01*
X92815688Y-163560833D02*
X92777592Y-163598928D01*
X92777592Y-163598928D02*
X92701402Y-163637023D01*
X74616640Y-150076071D02*
X74578545Y-149999881D01*
X74578545Y-149999881D02*
X74578545Y-149885595D01*
X74578545Y-149885595D02*
X74616640Y-149771309D01*
X74616640Y-149771309D02*
X74692830Y-149695119D01*
X74692830Y-149695119D02*
X74769021Y-149657024D01*
X74769021Y-149657024D02*
X74921402Y-149618928D01*
X74921402Y-149618928D02*
X75035688Y-149618928D01*
X75035688Y-149618928D02*
X75188069Y-149657024D01*
X75188069Y-149657024D02*
X75264259Y-149695119D01*
X75264259Y-149695119D02*
X75340450Y-149771309D01*
X75340450Y-149771309D02*
X75378545Y-149885595D01*
X75378545Y-149885595D02*
X75378545Y-149961786D01*
X75378545Y-149961786D02*
X75340450Y-150076071D01*
X75340450Y-150076071D02*
X75302354Y-150114167D01*
X75302354Y-150114167D02*
X75035688Y-150114167D01*
X75035688Y-150114167D02*
X75035688Y-149961786D01*
X75378545Y-150457024D02*
X74578545Y-150457024D01*
X74578545Y-150457024D02*
X74578545Y-150761786D01*
X74578545Y-150761786D02*
X74616640Y-150837976D01*
X74616640Y-150837976D02*
X74654735Y-150876071D01*
X74654735Y-150876071D02*
X74730926Y-150914167D01*
X74730926Y-150914167D02*
X74845211Y-150914167D01*
X74845211Y-150914167D02*
X74921402Y-150876071D01*
X74921402Y-150876071D02*
X74959497Y-150837976D01*
X74959497Y-150837976D02*
X74997592Y-150761786D01*
X74997592Y-150761786D02*
X74997592Y-150457024D01*
X74578545Y-151599881D02*
X74578545Y-151447500D01*
X74578545Y-151447500D02*
X74616640Y-151371309D01*
X74616640Y-151371309D02*
X74654735Y-151333214D01*
X74654735Y-151333214D02*
X74769021Y-151257024D01*
X74769021Y-151257024D02*
X74921402Y-151218928D01*
X74921402Y-151218928D02*
X75226164Y-151218928D01*
X75226164Y-151218928D02*
X75302354Y-151257024D01*
X75302354Y-151257024D02*
X75340450Y-151295119D01*
X75340450Y-151295119D02*
X75378545Y-151371309D01*
X75378545Y-151371309D02*
X75378545Y-151523690D01*
X75378545Y-151523690D02*
X75340450Y-151599881D01*
X75340450Y-151599881D02*
X75302354Y-151637976D01*
X75302354Y-151637976D02*
X75226164Y-151676071D01*
X75226164Y-151676071D02*
X75035688Y-151676071D01*
X75035688Y-151676071D02*
X74959497Y-151637976D01*
X74959497Y-151637976D02*
X74921402Y-151599881D01*
X74921402Y-151599881D02*
X74883307Y-151523690D01*
X74883307Y-151523690D02*
X74883307Y-151371309D01*
X74883307Y-151371309D02*
X74921402Y-151295119D01*
X74921402Y-151295119D02*
X74959497Y-151257024D01*
X74959497Y-151257024D02*
X75035688Y-151218928D01*
X97476640Y-150037976D02*
X97438545Y-149961786D01*
X97438545Y-149961786D02*
X97438545Y-149847500D01*
X97438545Y-149847500D02*
X97476640Y-149733214D01*
X97476640Y-149733214D02*
X97552830Y-149657024D01*
X97552830Y-149657024D02*
X97629021Y-149618929D01*
X97629021Y-149618929D02*
X97781402Y-149580833D01*
X97781402Y-149580833D02*
X97895688Y-149580833D01*
X97895688Y-149580833D02*
X98048069Y-149618929D01*
X98048069Y-149618929D02*
X98124259Y-149657024D01*
X98124259Y-149657024D02*
X98200450Y-149733214D01*
X98200450Y-149733214D02*
X98238545Y-149847500D01*
X98238545Y-149847500D02*
X98238545Y-149923691D01*
X98238545Y-149923691D02*
X98200450Y-150037976D01*
X98200450Y-150037976D02*
X98162354Y-150076072D01*
X98162354Y-150076072D02*
X97895688Y-150076072D01*
X97895688Y-150076072D02*
X97895688Y-149923691D01*
X98238545Y-150418929D02*
X97438545Y-150418929D01*
X97438545Y-150418929D02*
X98238545Y-150876072D01*
X98238545Y-150876072D02*
X97438545Y-150876072D01*
X98238545Y-151257024D02*
X97438545Y-151257024D01*
X97438545Y-151257024D02*
X97438545Y-151447500D01*
X97438545Y-151447500D02*
X97476640Y-151561786D01*
X97476640Y-151561786D02*
X97552830Y-151637976D01*
X97552830Y-151637976D02*
X97629021Y-151676071D01*
X97629021Y-151676071D02*
X97781402Y-151714167D01*
X97781402Y-151714167D02*
X97895688Y-151714167D01*
X97895688Y-151714167D02*
X98048069Y-151676071D01*
X98048069Y-151676071D02*
X98124259Y-151637976D01*
X98124259Y-151637976D02*
X98200450Y-151561786D01*
X98200450Y-151561786D02*
X98238545Y-151447500D01*
X98238545Y-151447500D02*
X98238545Y-151257024D01*
X100016640Y-150045118D02*
X99978545Y-149968928D01*
X99978545Y-149968928D02*
X99978545Y-149854642D01*
X99978545Y-149854642D02*
X100016640Y-149740356D01*
X100016640Y-149740356D02*
X100092830Y-149664166D01*
X100092830Y-149664166D02*
X100169021Y-149626071D01*
X100169021Y-149626071D02*
X100321402Y-149587975D01*
X100321402Y-149587975D02*
X100435688Y-149587975D01*
X100435688Y-149587975D02*
X100588069Y-149626071D01*
X100588069Y-149626071D02*
X100664259Y-149664166D01*
X100664259Y-149664166D02*
X100740450Y-149740356D01*
X100740450Y-149740356D02*
X100778545Y-149854642D01*
X100778545Y-149854642D02*
X100778545Y-149930833D01*
X100778545Y-149930833D02*
X100740450Y-150045118D01*
X100740450Y-150045118D02*
X100702354Y-150083214D01*
X100702354Y-150083214D02*
X100435688Y-150083214D01*
X100435688Y-150083214D02*
X100435688Y-149930833D01*
X100778545Y-150426071D02*
X99978545Y-150426071D01*
X99978545Y-150426071D02*
X99978545Y-150730833D01*
X99978545Y-150730833D02*
X100016640Y-150807023D01*
X100016640Y-150807023D02*
X100054735Y-150845118D01*
X100054735Y-150845118D02*
X100130926Y-150883214D01*
X100130926Y-150883214D02*
X100245211Y-150883214D01*
X100245211Y-150883214D02*
X100321402Y-150845118D01*
X100321402Y-150845118D02*
X100359497Y-150807023D01*
X100359497Y-150807023D02*
X100397592Y-150730833D01*
X100397592Y-150730833D02*
X100397592Y-150426071D01*
X100778545Y-151645118D02*
X100778545Y-151187975D01*
X100778545Y-151416547D02*
X99978545Y-151416547D01*
X99978545Y-151416547D02*
X100092830Y-151340356D01*
X100092830Y-151340356D02*
X100169021Y-151264166D01*
X100169021Y-151264166D02*
X100207116Y-151187975D01*
X100245211Y-152330833D02*
X100778545Y-152330833D01*
X99940450Y-152140357D02*
X100511878Y-151949880D01*
X100511878Y-151949880D02*
X100511878Y-152445119D01*
X87326640Y-161275118D02*
X87288545Y-161198928D01*
X87288545Y-161198928D02*
X87288545Y-161084642D01*
X87288545Y-161084642D02*
X87326640Y-160970356D01*
X87326640Y-160970356D02*
X87402830Y-160894166D01*
X87402830Y-160894166D02*
X87479021Y-160856071D01*
X87479021Y-160856071D02*
X87631402Y-160817975D01*
X87631402Y-160817975D02*
X87745688Y-160817975D01*
X87745688Y-160817975D02*
X87898069Y-160856071D01*
X87898069Y-160856071D02*
X87974259Y-160894166D01*
X87974259Y-160894166D02*
X88050450Y-160970356D01*
X88050450Y-160970356D02*
X88088545Y-161084642D01*
X88088545Y-161084642D02*
X88088545Y-161160833D01*
X88088545Y-161160833D02*
X88050450Y-161275118D01*
X88050450Y-161275118D02*
X88012354Y-161313214D01*
X88012354Y-161313214D02*
X87745688Y-161313214D01*
X87745688Y-161313214D02*
X87745688Y-161160833D01*
X88088545Y-161656071D02*
X87288545Y-161656071D01*
X87288545Y-161656071D02*
X87288545Y-161960833D01*
X87288545Y-161960833D02*
X87326640Y-162037023D01*
X87326640Y-162037023D02*
X87364735Y-162075118D01*
X87364735Y-162075118D02*
X87440926Y-162113214D01*
X87440926Y-162113214D02*
X87555211Y-162113214D01*
X87555211Y-162113214D02*
X87631402Y-162075118D01*
X87631402Y-162075118D02*
X87669497Y-162037023D01*
X87669497Y-162037023D02*
X87707592Y-161960833D01*
X87707592Y-161960833D02*
X87707592Y-161656071D01*
X87364735Y-162417975D02*
X87326640Y-162456071D01*
X87326640Y-162456071D02*
X87288545Y-162532261D01*
X87288545Y-162532261D02*
X87288545Y-162722737D01*
X87288545Y-162722737D02*
X87326640Y-162798928D01*
X87326640Y-162798928D02*
X87364735Y-162837023D01*
X87364735Y-162837023D02*
X87440926Y-162875118D01*
X87440926Y-162875118D02*
X87517116Y-162875118D01*
X87517116Y-162875118D02*
X87631402Y-162837023D01*
X87631402Y-162837023D02*
X88088545Y-162379880D01*
X88088545Y-162379880D02*
X88088545Y-162875118D01*
X88088545Y-163637023D02*
X88088545Y-163179880D01*
X88088545Y-163408452D02*
X87288545Y-163408452D01*
X87288545Y-163408452D02*
X87402830Y-163332261D01*
X87402830Y-163332261D02*
X87479021Y-163256071D01*
X87479021Y-163256071D02*
X87517116Y-163179880D01*
X56798545Y-161106071D02*
X57598545Y-161372738D01*
X57598545Y-161372738D02*
X56798545Y-161639404D01*
X57560450Y-161867975D02*
X57598545Y-161982261D01*
X57598545Y-161982261D02*
X57598545Y-162172737D01*
X57598545Y-162172737D02*
X57560450Y-162248928D01*
X57560450Y-162248928D02*
X57522354Y-162287023D01*
X57522354Y-162287023D02*
X57446164Y-162325118D01*
X57446164Y-162325118D02*
X57369973Y-162325118D01*
X57369973Y-162325118D02*
X57293783Y-162287023D01*
X57293783Y-162287023D02*
X57255688Y-162248928D01*
X57255688Y-162248928D02*
X57217592Y-162172737D01*
X57217592Y-162172737D02*
X57179497Y-162020356D01*
X57179497Y-162020356D02*
X57141402Y-161944166D01*
X57141402Y-161944166D02*
X57103307Y-161906071D01*
X57103307Y-161906071D02*
X57027116Y-161867975D01*
X57027116Y-161867975D02*
X56950926Y-161867975D01*
X56950926Y-161867975D02*
X56874735Y-161906071D01*
X56874735Y-161906071D02*
X56836640Y-161944166D01*
X56836640Y-161944166D02*
X56798545Y-162020356D01*
X56798545Y-162020356D02*
X56798545Y-162210833D01*
X56798545Y-162210833D02*
X56836640Y-162325118D01*
X57217592Y-162820357D02*
X57598545Y-162820357D01*
X56798545Y-162553690D02*
X57217592Y-162820357D01*
X57217592Y-162820357D02*
X56798545Y-163087023D01*
X57560450Y-163315594D02*
X57598545Y-163429880D01*
X57598545Y-163429880D02*
X57598545Y-163620356D01*
X57598545Y-163620356D02*
X57560450Y-163696547D01*
X57560450Y-163696547D02*
X57522354Y-163734642D01*
X57522354Y-163734642D02*
X57446164Y-163772737D01*
X57446164Y-163772737D02*
X57369973Y-163772737D01*
X57369973Y-163772737D02*
X57293783Y-163734642D01*
X57293783Y-163734642D02*
X57255688Y-163696547D01*
X57255688Y-163696547D02*
X57217592Y-163620356D01*
X57217592Y-163620356D02*
X57179497Y-163467975D01*
X57179497Y-163467975D02*
X57141402Y-163391785D01*
X57141402Y-163391785D02*
X57103307Y-163353690D01*
X57103307Y-163353690D02*
X57027116Y-163315594D01*
X57027116Y-163315594D02*
X56950926Y-163315594D01*
X56950926Y-163315594D02*
X56874735Y-163353690D01*
X56874735Y-163353690D02*
X56836640Y-163391785D01*
X56836640Y-163391785D02*
X56798545Y-163467975D01*
X56798545Y-163467975D02*
X56798545Y-163658452D01*
X56798545Y-163658452D02*
X56836640Y-163772737D01*
X72076640Y-150037976D02*
X72038545Y-149961786D01*
X72038545Y-149961786D02*
X72038545Y-149847500D01*
X72038545Y-149847500D02*
X72076640Y-149733214D01*
X72076640Y-149733214D02*
X72152830Y-149657024D01*
X72152830Y-149657024D02*
X72229021Y-149618929D01*
X72229021Y-149618929D02*
X72381402Y-149580833D01*
X72381402Y-149580833D02*
X72495688Y-149580833D01*
X72495688Y-149580833D02*
X72648069Y-149618929D01*
X72648069Y-149618929D02*
X72724259Y-149657024D01*
X72724259Y-149657024D02*
X72800450Y-149733214D01*
X72800450Y-149733214D02*
X72838545Y-149847500D01*
X72838545Y-149847500D02*
X72838545Y-149923691D01*
X72838545Y-149923691D02*
X72800450Y-150037976D01*
X72800450Y-150037976D02*
X72762354Y-150076072D01*
X72762354Y-150076072D02*
X72495688Y-150076072D01*
X72495688Y-150076072D02*
X72495688Y-149923691D01*
X72838545Y-150418929D02*
X72038545Y-150418929D01*
X72038545Y-150418929D02*
X72838545Y-150876072D01*
X72838545Y-150876072D02*
X72038545Y-150876072D01*
X72838545Y-151257024D02*
X72038545Y-151257024D01*
X72038545Y-151257024D02*
X72038545Y-151447500D01*
X72038545Y-151447500D02*
X72076640Y-151561786D01*
X72076640Y-151561786D02*
X72152830Y-151637976D01*
X72152830Y-151637976D02*
X72229021Y-151676071D01*
X72229021Y-151676071D02*
X72381402Y-151714167D01*
X72381402Y-151714167D02*
X72495688Y-151714167D01*
X72495688Y-151714167D02*
X72648069Y-151676071D01*
X72648069Y-151676071D02*
X72724259Y-151637976D01*
X72724259Y-151637976D02*
X72800450Y-151561786D01*
X72800450Y-151561786D02*
X72838545Y-151447500D01*
X72838545Y-151447500D02*
X72838545Y-151257024D01*
X59376640Y-162117976D02*
X59338545Y-162041786D01*
X59338545Y-162041786D02*
X59338545Y-161927500D01*
X59338545Y-161927500D02*
X59376640Y-161813214D01*
X59376640Y-161813214D02*
X59452830Y-161737024D01*
X59452830Y-161737024D02*
X59529021Y-161698929D01*
X59529021Y-161698929D02*
X59681402Y-161660833D01*
X59681402Y-161660833D02*
X59795688Y-161660833D01*
X59795688Y-161660833D02*
X59948069Y-161698929D01*
X59948069Y-161698929D02*
X60024259Y-161737024D01*
X60024259Y-161737024D02*
X60100450Y-161813214D01*
X60100450Y-161813214D02*
X60138545Y-161927500D01*
X60138545Y-161927500D02*
X60138545Y-162003691D01*
X60138545Y-162003691D02*
X60100450Y-162117976D01*
X60100450Y-162117976D02*
X60062354Y-162156072D01*
X60062354Y-162156072D02*
X59795688Y-162156072D01*
X59795688Y-162156072D02*
X59795688Y-162003691D01*
X60138545Y-162498929D02*
X59338545Y-162498929D01*
X59338545Y-162498929D02*
X60138545Y-162956072D01*
X60138545Y-162956072D02*
X59338545Y-162956072D01*
X60138545Y-163337024D02*
X59338545Y-163337024D01*
X59338545Y-163337024D02*
X59338545Y-163527500D01*
X59338545Y-163527500D02*
X59376640Y-163641786D01*
X59376640Y-163641786D02*
X59452830Y-163717976D01*
X59452830Y-163717976D02*
X59529021Y-163756071D01*
X59529021Y-163756071D02*
X59681402Y-163794167D01*
X59681402Y-163794167D02*
X59795688Y-163794167D01*
X59795688Y-163794167D02*
X59948069Y-163756071D01*
X59948069Y-163756071D02*
X60024259Y-163717976D01*
X60024259Y-163717976D02*
X60100450Y-163641786D01*
X60100450Y-163641786D02*
X60138545Y-163527500D01*
X60138545Y-163527500D02*
X60138545Y-163337024D01*
X54258545Y-161010833D02*
X55058545Y-161277500D01*
X55058545Y-161277500D02*
X54258545Y-161544166D01*
X54639497Y-162077499D02*
X54677592Y-162191785D01*
X54677592Y-162191785D02*
X54715688Y-162229880D01*
X54715688Y-162229880D02*
X54791878Y-162267976D01*
X54791878Y-162267976D02*
X54906164Y-162267976D01*
X54906164Y-162267976D02*
X54982354Y-162229880D01*
X54982354Y-162229880D02*
X55020450Y-162191785D01*
X55020450Y-162191785D02*
X55058545Y-162115595D01*
X55058545Y-162115595D02*
X55058545Y-161810833D01*
X55058545Y-161810833D02*
X54258545Y-161810833D01*
X54258545Y-161810833D02*
X54258545Y-162077499D01*
X54258545Y-162077499D02*
X54296640Y-162153690D01*
X54296640Y-162153690D02*
X54334735Y-162191785D01*
X54334735Y-162191785D02*
X54410926Y-162229880D01*
X54410926Y-162229880D02*
X54487116Y-162229880D01*
X54487116Y-162229880D02*
X54563307Y-162191785D01*
X54563307Y-162191785D02*
X54601402Y-162153690D01*
X54601402Y-162153690D02*
X54639497Y-162077499D01*
X54639497Y-162077499D02*
X54639497Y-161810833D01*
X54258545Y-162610833D02*
X54906164Y-162610833D01*
X54906164Y-162610833D02*
X54982354Y-162648928D01*
X54982354Y-162648928D02*
X55020450Y-162687023D01*
X55020450Y-162687023D02*
X55058545Y-162763214D01*
X55058545Y-162763214D02*
X55058545Y-162915595D01*
X55058545Y-162915595D02*
X55020450Y-162991785D01*
X55020450Y-162991785D02*
X54982354Y-163029880D01*
X54982354Y-163029880D02*
X54906164Y-163067976D01*
X54906164Y-163067976D02*
X54258545Y-163067976D01*
X55020450Y-163410832D02*
X55058545Y-163525118D01*
X55058545Y-163525118D02*
X55058545Y-163715594D01*
X55058545Y-163715594D02*
X55020450Y-163791785D01*
X55020450Y-163791785D02*
X54982354Y-163829880D01*
X54982354Y-163829880D02*
X54906164Y-163867975D01*
X54906164Y-163867975D02*
X54829973Y-163867975D01*
X54829973Y-163867975D02*
X54753783Y-163829880D01*
X54753783Y-163829880D02*
X54715688Y-163791785D01*
X54715688Y-163791785D02*
X54677592Y-163715594D01*
X54677592Y-163715594D02*
X54639497Y-163563213D01*
X54639497Y-163563213D02*
X54601402Y-163487023D01*
X54601402Y-163487023D02*
X54563307Y-163448928D01*
X54563307Y-163448928D02*
X54487116Y-163410832D01*
X54487116Y-163410832D02*
X54410926Y-163410832D01*
X54410926Y-163410832D02*
X54334735Y-163448928D01*
X54334735Y-163448928D02*
X54296640Y-163487023D01*
X54296640Y-163487023D02*
X54258545Y-163563213D01*
X54258545Y-163563213D02*
X54258545Y-163753690D01*
X54258545Y-163753690D02*
X54296640Y-163867975D01*
X61916640Y-150076071D02*
X61878545Y-149999881D01*
X61878545Y-149999881D02*
X61878545Y-149885595D01*
X61878545Y-149885595D02*
X61916640Y-149771309D01*
X61916640Y-149771309D02*
X61992830Y-149695119D01*
X61992830Y-149695119D02*
X62069021Y-149657024D01*
X62069021Y-149657024D02*
X62221402Y-149618928D01*
X62221402Y-149618928D02*
X62335688Y-149618928D01*
X62335688Y-149618928D02*
X62488069Y-149657024D01*
X62488069Y-149657024D02*
X62564259Y-149695119D01*
X62564259Y-149695119D02*
X62640450Y-149771309D01*
X62640450Y-149771309D02*
X62678545Y-149885595D01*
X62678545Y-149885595D02*
X62678545Y-149961786D01*
X62678545Y-149961786D02*
X62640450Y-150076071D01*
X62640450Y-150076071D02*
X62602354Y-150114167D01*
X62602354Y-150114167D02*
X62335688Y-150114167D01*
X62335688Y-150114167D02*
X62335688Y-149961786D01*
X62678545Y-150457024D02*
X61878545Y-150457024D01*
X61878545Y-150457024D02*
X61878545Y-150761786D01*
X61878545Y-150761786D02*
X61916640Y-150837976D01*
X61916640Y-150837976D02*
X61954735Y-150876071D01*
X61954735Y-150876071D02*
X62030926Y-150914167D01*
X62030926Y-150914167D02*
X62145211Y-150914167D01*
X62145211Y-150914167D02*
X62221402Y-150876071D01*
X62221402Y-150876071D02*
X62259497Y-150837976D01*
X62259497Y-150837976D02*
X62297592Y-150761786D01*
X62297592Y-150761786D02*
X62297592Y-150457024D01*
X61954735Y-151218928D02*
X61916640Y-151257024D01*
X61916640Y-151257024D02*
X61878545Y-151333214D01*
X61878545Y-151333214D02*
X61878545Y-151523690D01*
X61878545Y-151523690D02*
X61916640Y-151599881D01*
X61916640Y-151599881D02*
X61954735Y-151637976D01*
X61954735Y-151637976D02*
X62030926Y-151676071D01*
X62030926Y-151676071D02*
X62107116Y-151676071D01*
X62107116Y-151676071D02*
X62221402Y-151637976D01*
X62221402Y-151637976D02*
X62678545Y-151180833D01*
X62678545Y-151180833D02*
X62678545Y-151676071D01*
X89856640Y-150045118D02*
X89818545Y-149968928D01*
X89818545Y-149968928D02*
X89818545Y-149854642D01*
X89818545Y-149854642D02*
X89856640Y-149740356D01*
X89856640Y-149740356D02*
X89932830Y-149664166D01*
X89932830Y-149664166D02*
X90009021Y-149626071D01*
X90009021Y-149626071D02*
X90161402Y-149587975D01*
X90161402Y-149587975D02*
X90275688Y-149587975D01*
X90275688Y-149587975D02*
X90428069Y-149626071D01*
X90428069Y-149626071D02*
X90504259Y-149664166D01*
X90504259Y-149664166D02*
X90580450Y-149740356D01*
X90580450Y-149740356D02*
X90618545Y-149854642D01*
X90618545Y-149854642D02*
X90618545Y-149930833D01*
X90618545Y-149930833D02*
X90580450Y-150045118D01*
X90580450Y-150045118D02*
X90542354Y-150083214D01*
X90542354Y-150083214D02*
X90275688Y-150083214D01*
X90275688Y-150083214D02*
X90275688Y-149930833D01*
X90618545Y-150426071D02*
X89818545Y-150426071D01*
X89818545Y-150426071D02*
X89818545Y-150730833D01*
X89818545Y-150730833D02*
X89856640Y-150807023D01*
X89856640Y-150807023D02*
X89894735Y-150845118D01*
X89894735Y-150845118D02*
X89970926Y-150883214D01*
X89970926Y-150883214D02*
X90085211Y-150883214D01*
X90085211Y-150883214D02*
X90161402Y-150845118D01*
X90161402Y-150845118D02*
X90199497Y-150807023D01*
X90199497Y-150807023D02*
X90237592Y-150730833D01*
X90237592Y-150730833D02*
X90237592Y-150426071D01*
X90618545Y-151645118D02*
X90618545Y-151187975D01*
X90618545Y-151416547D02*
X89818545Y-151416547D01*
X89818545Y-151416547D02*
X89932830Y-151340356D01*
X89932830Y-151340356D02*
X90009021Y-151264166D01*
X90009021Y-151264166D02*
X90047116Y-151187975D01*
X90618545Y-152407023D02*
X90618545Y-151949880D01*
X90618545Y-152178452D02*
X89818545Y-152178452D01*
X89818545Y-152178452D02*
X89932830Y-152102261D01*
X89932830Y-152102261D02*
X90009021Y-152026071D01*
X90009021Y-152026071D02*
X90047116Y-151949880D01*
X69536640Y-161275118D02*
X69498545Y-161198928D01*
X69498545Y-161198928D02*
X69498545Y-161084642D01*
X69498545Y-161084642D02*
X69536640Y-160970356D01*
X69536640Y-160970356D02*
X69612830Y-160894166D01*
X69612830Y-160894166D02*
X69689021Y-160856071D01*
X69689021Y-160856071D02*
X69841402Y-160817975D01*
X69841402Y-160817975D02*
X69955688Y-160817975D01*
X69955688Y-160817975D02*
X70108069Y-160856071D01*
X70108069Y-160856071D02*
X70184259Y-160894166D01*
X70184259Y-160894166D02*
X70260450Y-160970356D01*
X70260450Y-160970356D02*
X70298545Y-161084642D01*
X70298545Y-161084642D02*
X70298545Y-161160833D01*
X70298545Y-161160833D02*
X70260450Y-161275118D01*
X70260450Y-161275118D02*
X70222354Y-161313214D01*
X70222354Y-161313214D02*
X69955688Y-161313214D01*
X69955688Y-161313214D02*
X69955688Y-161160833D01*
X70298545Y-161656071D02*
X69498545Y-161656071D01*
X69498545Y-161656071D02*
X69498545Y-161960833D01*
X69498545Y-161960833D02*
X69536640Y-162037023D01*
X69536640Y-162037023D02*
X69574735Y-162075118D01*
X69574735Y-162075118D02*
X69650926Y-162113214D01*
X69650926Y-162113214D02*
X69765211Y-162113214D01*
X69765211Y-162113214D02*
X69841402Y-162075118D01*
X69841402Y-162075118D02*
X69879497Y-162037023D01*
X69879497Y-162037023D02*
X69917592Y-161960833D01*
X69917592Y-161960833D02*
X69917592Y-161656071D01*
X69574735Y-162417975D02*
X69536640Y-162456071D01*
X69536640Y-162456071D02*
X69498545Y-162532261D01*
X69498545Y-162532261D02*
X69498545Y-162722737D01*
X69498545Y-162722737D02*
X69536640Y-162798928D01*
X69536640Y-162798928D02*
X69574735Y-162837023D01*
X69574735Y-162837023D02*
X69650926Y-162875118D01*
X69650926Y-162875118D02*
X69727116Y-162875118D01*
X69727116Y-162875118D02*
X69841402Y-162837023D01*
X69841402Y-162837023D02*
X70298545Y-162379880D01*
X70298545Y-162379880D02*
X70298545Y-162875118D01*
X69841402Y-163332261D02*
X69803307Y-163256071D01*
X69803307Y-163256071D02*
X69765211Y-163217976D01*
X69765211Y-163217976D02*
X69689021Y-163179880D01*
X69689021Y-163179880D02*
X69650926Y-163179880D01*
X69650926Y-163179880D02*
X69574735Y-163217976D01*
X69574735Y-163217976D02*
X69536640Y-163256071D01*
X69536640Y-163256071D02*
X69498545Y-163332261D01*
X69498545Y-163332261D02*
X69498545Y-163484642D01*
X69498545Y-163484642D02*
X69536640Y-163560833D01*
X69536640Y-163560833D02*
X69574735Y-163598928D01*
X69574735Y-163598928D02*
X69650926Y-163637023D01*
X69650926Y-163637023D02*
X69689021Y-163637023D01*
X69689021Y-163637023D02*
X69765211Y-163598928D01*
X69765211Y-163598928D02*
X69803307Y-163560833D01*
X69803307Y-163560833D02*
X69841402Y-163484642D01*
X69841402Y-163484642D02*
X69841402Y-163332261D01*
X69841402Y-163332261D02*
X69879497Y-163256071D01*
X69879497Y-163256071D02*
X69917592Y-163217976D01*
X69917592Y-163217976D02*
X69993783Y-163179880D01*
X69993783Y-163179880D02*
X70146164Y-163179880D01*
X70146164Y-163179880D02*
X70222354Y-163217976D01*
X70222354Y-163217976D02*
X70260450Y-163256071D01*
X70260450Y-163256071D02*
X70298545Y-163332261D01*
X70298545Y-163332261D02*
X70298545Y-163484642D01*
X70298545Y-163484642D02*
X70260450Y-163560833D01*
X70260450Y-163560833D02*
X70222354Y-163598928D01*
X70222354Y-163598928D02*
X70146164Y-163637023D01*
X70146164Y-163637023D02*
X69993783Y-163637023D01*
X69993783Y-163637023D02*
X69917592Y-163598928D01*
X69917592Y-163598928D02*
X69879497Y-163560833D01*
X69879497Y-163560833D02*
X69841402Y-163484642D01*
X77126640Y-150076071D02*
X77088545Y-149999881D01*
X77088545Y-149999881D02*
X77088545Y-149885595D01*
X77088545Y-149885595D02*
X77126640Y-149771309D01*
X77126640Y-149771309D02*
X77202830Y-149695119D01*
X77202830Y-149695119D02*
X77279021Y-149657024D01*
X77279021Y-149657024D02*
X77431402Y-149618928D01*
X77431402Y-149618928D02*
X77545688Y-149618928D01*
X77545688Y-149618928D02*
X77698069Y-149657024D01*
X77698069Y-149657024D02*
X77774259Y-149695119D01*
X77774259Y-149695119D02*
X77850450Y-149771309D01*
X77850450Y-149771309D02*
X77888545Y-149885595D01*
X77888545Y-149885595D02*
X77888545Y-149961786D01*
X77888545Y-149961786D02*
X77850450Y-150076071D01*
X77850450Y-150076071D02*
X77812354Y-150114167D01*
X77812354Y-150114167D02*
X77545688Y-150114167D01*
X77545688Y-150114167D02*
X77545688Y-149961786D01*
X77888545Y-150457024D02*
X77088545Y-150457024D01*
X77088545Y-150457024D02*
X77088545Y-150761786D01*
X77088545Y-150761786D02*
X77126640Y-150837976D01*
X77126640Y-150837976D02*
X77164735Y-150876071D01*
X77164735Y-150876071D02*
X77240926Y-150914167D01*
X77240926Y-150914167D02*
X77355211Y-150914167D01*
X77355211Y-150914167D02*
X77431402Y-150876071D01*
X77431402Y-150876071D02*
X77469497Y-150837976D01*
X77469497Y-150837976D02*
X77507592Y-150761786D01*
X77507592Y-150761786D02*
X77507592Y-150457024D01*
X77088545Y-151180833D02*
X77088545Y-151714167D01*
X77088545Y-151714167D02*
X77888545Y-151371309D01*
X59376640Y-150037976D02*
X59338545Y-149961786D01*
X59338545Y-149961786D02*
X59338545Y-149847500D01*
X59338545Y-149847500D02*
X59376640Y-149733214D01*
X59376640Y-149733214D02*
X59452830Y-149657024D01*
X59452830Y-149657024D02*
X59529021Y-149618929D01*
X59529021Y-149618929D02*
X59681402Y-149580833D01*
X59681402Y-149580833D02*
X59795688Y-149580833D01*
X59795688Y-149580833D02*
X59948069Y-149618929D01*
X59948069Y-149618929D02*
X60024259Y-149657024D01*
X60024259Y-149657024D02*
X60100450Y-149733214D01*
X60100450Y-149733214D02*
X60138545Y-149847500D01*
X60138545Y-149847500D02*
X60138545Y-149923691D01*
X60138545Y-149923691D02*
X60100450Y-150037976D01*
X60100450Y-150037976D02*
X60062354Y-150076072D01*
X60062354Y-150076072D02*
X59795688Y-150076072D01*
X59795688Y-150076072D02*
X59795688Y-149923691D01*
X60138545Y-150418929D02*
X59338545Y-150418929D01*
X59338545Y-150418929D02*
X60138545Y-150876072D01*
X60138545Y-150876072D02*
X59338545Y-150876072D01*
X60138545Y-151257024D02*
X59338545Y-151257024D01*
X59338545Y-151257024D02*
X59338545Y-151447500D01*
X59338545Y-151447500D02*
X59376640Y-151561786D01*
X59376640Y-151561786D02*
X59452830Y-151637976D01*
X59452830Y-151637976D02*
X59529021Y-151676071D01*
X59529021Y-151676071D02*
X59681402Y-151714167D01*
X59681402Y-151714167D02*
X59795688Y-151714167D01*
X59795688Y-151714167D02*
X59948069Y-151676071D01*
X59948069Y-151676071D02*
X60024259Y-151637976D01*
X60024259Y-151637976D02*
X60100450Y-151561786D01*
X60100450Y-151561786D02*
X60138545Y-151447500D01*
X60138545Y-151447500D02*
X60138545Y-151257024D01*
X89856640Y-161275118D02*
X89818545Y-161198928D01*
X89818545Y-161198928D02*
X89818545Y-161084642D01*
X89818545Y-161084642D02*
X89856640Y-160970356D01*
X89856640Y-160970356D02*
X89932830Y-160894166D01*
X89932830Y-160894166D02*
X90009021Y-160856071D01*
X90009021Y-160856071D02*
X90161402Y-160817975D01*
X90161402Y-160817975D02*
X90275688Y-160817975D01*
X90275688Y-160817975D02*
X90428069Y-160856071D01*
X90428069Y-160856071D02*
X90504259Y-160894166D01*
X90504259Y-160894166D02*
X90580450Y-160970356D01*
X90580450Y-160970356D02*
X90618545Y-161084642D01*
X90618545Y-161084642D02*
X90618545Y-161160833D01*
X90618545Y-161160833D02*
X90580450Y-161275118D01*
X90580450Y-161275118D02*
X90542354Y-161313214D01*
X90542354Y-161313214D02*
X90275688Y-161313214D01*
X90275688Y-161313214D02*
X90275688Y-161160833D01*
X90618545Y-161656071D02*
X89818545Y-161656071D01*
X89818545Y-161656071D02*
X89818545Y-161960833D01*
X89818545Y-161960833D02*
X89856640Y-162037023D01*
X89856640Y-162037023D02*
X89894735Y-162075118D01*
X89894735Y-162075118D02*
X89970926Y-162113214D01*
X89970926Y-162113214D02*
X90085211Y-162113214D01*
X90085211Y-162113214D02*
X90161402Y-162075118D01*
X90161402Y-162075118D02*
X90199497Y-162037023D01*
X90199497Y-162037023D02*
X90237592Y-161960833D01*
X90237592Y-161960833D02*
X90237592Y-161656071D01*
X89894735Y-162417975D02*
X89856640Y-162456071D01*
X89856640Y-162456071D02*
X89818545Y-162532261D01*
X89818545Y-162532261D02*
X89818545Y-162722737D01*
X89818545Y-162722737D02*
X89856640Y-162798928D01*
X89856640Y-162798928D02*
X89894735Y-162837023D01*
X89894735Y-162837023D02*
X89970926Y-162875118D01*
X89970926Y-162875118D02*
X90047116Y-162875118D01*
X90047116Y-162875118D02*
X90161402Y-162837023D01*
X90161402Y-162837023D02*
X90618545Y-162379880D01*
X90618545Y-162379880D02*
X90618545Y-162875118D01*
X89818545Y-163370357D02*
X89818545Y-163446547D01*
X89818545Y-163446547D02*
X89856640Y-163522738D01*
X89856640Y-163522738D02*
X89894735Y-163560833D01*
X89894735Y-163560833D02*
X89970926Y-163598928D01*
X89970926Y-163598928D02*
X90123307Y-163637023D01*
X90123307Y-163637023D02*
X90313783Y-163637023D01*
X90313783Y-163637023D02*
X90466164Y-163598928D01*
X90466164Y-163598928D02*
X90542354Y-163560833D01*
X90542354Y-163560833D02*
X90580450Y-163522738D01*
X90580450Y-163522738D02*
X90618545Y-163446547D01*
X90618545Y-163446547D02*
X90618545Y-163370357D01*
X90618545Y-163370357D02*
X90580450Y-163294166D01*
X90580450Y-163294166D02*
X90542354Y-163256071D01*
X90542354Y-163256071D02*
X90466164Y-163217976D01*
X90466164Y-163217976D02*
X90313783Y-163179880D01*
X90313783Y-163179880D02*
X90123307Y-163179880D01*
X90123307Y-163179880D02*
X89970926Y-163217976D01*
X89970926Y-163217976D02*
X89894735Y-163256071D01*
X89894735Y-163256071D02*
X89856640Y-163294166D01*
X89856640Y-163294166D02*
X89818545Y-163370357D01*
X77156640Y-161275118D02*
X77118545Y-161198928D01*
X77118545Y-161198928D02*
X77118545Y-161084642D01*
X77118545Y-161084642D02*
X77156640Y-160970356D01*
X77156640Y-160970356D02*
X77232830Y-160894166D01*
X77232830Y-160894166D02*
X77309021Y-160856071D01*
X77309021Y-160856071D02*
X77461402Y-160817975D01*
X77461402Y-160817975D02*
X77575688Y-160817975D01*
X77575688Y-160817975D02*
X77728069Y-160856071D01*
X77728069Y-160856071D02*
X77804259Y-160894166D01*
X77804259Y-160894166D02*
X77880450Y-160970356D01*
X77880450Y-160970356D02*
X77918545Y-161084642D01*
X77918545Y-161084642D02*
X77918545Y-161160833D01*
X77918545Y-161160833D02*
X77880450Y-161275118D01*
X77880450Y-161275118D02*
X77842354Y-161313214D01*
X77842354Y-161313214D02*
X77575688Y-161313214D01*
X77575688Y-161313214D02*
X77575688Y-161160833D01*
X77918545Y-161656071D02*
X77118545Y-161656071D01*
X77118545Y-161656071D02*
X77118545Y-161960833D01*
X77118545Y-161960833D02*
X77156640Y-162037023D01*
X77156640Y-162037023D02*
X77194735Y-162075118D01*
X77194735Y-162075118D02*
X77270926Y-162113214D01*
X77270926Y-162113214D02*
X77385211Y-162113214D01*
X77385211Y-162113214D02*
X77461402Y-162075118D01*
X77461402Y-162075118D02*
X77499497Y-162037023D01*
X77499497Y-162037023D02*
X77537592Y-161960833D01*
X77537592Y-161960833D02*
X77537592Y-161656071D01*
X77194735Y-162417975D02*
X77156640Y-162456071D01*
X77156640Y-162456071D02*
X77118545Y-162532261D01*
X77118545Y-162532261D02*
X77118545Y-162722737D01*
X77118545Y-162722737D02*
X77156640Y-162798928D01*
X77156640Y-162798928D02*
X77194735Y-162837023D01*
X77194735Y-162837023D02*
X77270926Y-162875118D01*
X77270926Y-162875118D02*
X77347116Y-162875118D01*
X77347116Y-162875118D02*
X77461402Y-162837023D01*
X77461402Y-162837023D02*
X77918545Y-162379880D01*
X77918545Y-162379880D02*
X77918545Y-162875118D01*
X77118545Y-163560833D02*
X77118545Y-163408452D01*
X77118545Y-163408452D02*
X77156640Y-163332261D01*
X77156640Y-163332261D02*
X77194735Y-163294166D01*
X77194735Y-163294166D02*
X77309021Y-163217976D01*
X77309021Y-163217976D02*
X77461402Y-163179880D01*
X77461402Y-163179880D02*
X77766164Y-163179880D01*
X77766164Y-163179880D02*
X77842354Y-163217976D01*
X77842354Y-163217976D02*
X77880450Y-163256071D01*
X77880450Y-163256071D02*
X77918545Y-163332261D01*
X77918545Y-163332261D02*
X77918545Y-163484642D01*
X77918545Y-163484642D02*
X77880450Y-163560833D01*
X77880450Y-163560833D02*
X77842354Y-163598928D01*
X77842354Y-163598928D02*
X77766164Y-163637023D01*
X77766164Y-163637023D02*
X77575688Y-163637023D01*
X77575688Y-163637023D02*
X77499497Y-163598928D01*
X77499497Y-163598928D02*
X77461402Y-163560833D01*
X77461402Y-163560833D02*
X77423307Y-163484642D01*
X77423307Y-163484642D02*
X77423307Y-163332261D01*
X77423307Y-163332261D02*
X77461402Y-163256071D01*
X77461402Y-163256071D02*
X77499497Y-163217976D01*
X77499497Y-163217976D02*
X77575688Y-163179880D01*
X92396640Y-150045118D02*
X92358545Y-149968928D01*
X92358545Y-149968928D02*
X92358545Y-149854642D01*
X92358545Y-149854642D02*
X92396640Y-149740356D01*
X92396640Y-149740356D02*
X92472830Y-149664166D01*
X92472830Y-149664166D02*
X92549021Y-149626071D01*
X92549021Y-149626071D02*
X92701402Y-149587975D01*
X92701402Y-149587975D02*
X92815688Y-149587975D01*
X92815688Y-149587975D02*
X92968069Y-149626071D01*
X92968069Y-149626071D02*
X93044259Y-149664166D01*
X93044259Y-149664166D02*
X93120450Y-149740356D01*
X93120450Y-149740356D02*
X93158545Y-149854642D01*
X93158545Y-149854642D02*
X93158545Y-149930833D01*
X93158545Y-149930833D02*
X93120450Y-150045118D01*
X93120450Y-150045118D02*
X93082354Y-150083214D01*
X93082354Y-150083214D02*
X92815688Y-150083214D01*
X92815688Y-150083214D02*
X92815688Y-149930833D01*
X93158545Y-150426071D02*
X92358545Y-150426071D01*
X92358545Y-150426071D02*
X92358545Y-150730833D01*
X92358545Y-150730833D02*
X92396640Y-150807023D01*
X92396640Y-150807023D02*
X92434735Y-150845118D01*
X92434735Y-150845118D02*
X92510926Y-150883214D01*
X92510926Y-150883214D02*
X92625211Y-150883214D01*
X92625211Y-150883214D02*
X92701402Y-150845118D01*
X92701402Y-150845118D02*
X92739497Y-150807023D01*
X92739497Y-150807023D02*
X92777592Y-150730833D01*
X92777592Y-150730833D02*
X92777592Y-150426071D01*
X93158545Y-151645118D02*
X93158545Y-151187975D01*
X93158545Y-151416547D02*
X92358545Y-151416547D01*
X92358545Y-151416547D02*
X92472830Y-151340356D01*
X92472830Y-151340356D02*
X92549021Y-151264166D01*
X92549021Y-151264166D02*
X92587116Y-151187975D01*
X92434735Y-151949880D02*
X92396640Y-151987976D01*
X92396640Y-151987976D02*
X92358545Y-152064166D01*
X92358545Y-152064166D02*
X92358545Y-152254642D01*
X92358545Y-152254642D02*
X92396640Y-152330833D01*
X92396640Y-152330833D02*
X92434735Y-152368928D01*
X92434735Y-152368928D02*
X92510926Y-152407023D01*
X92510926Y-152407023D02*
X92587116Y-152407023D01*
X92587116Y-152407023D02*
X92701402Y-152368928D01*
X92701402Y-152368928D02*
X93158545Y-151911785D01*
X93158545Y-151911785D02*
X93158545Y-152407023D01*
X80458545Y-161987024D02*
X80077592Y-161720357D01*
X80458545Y-161529881D02*
X79658545Y-161529881D01*
X79658545Y-161529881D02*
X79658545Y-161834643D01*
X79658545Y-161834643D02*
X79696640Y-161910833D01*
X79696640Y-161910833D02*
X79734735Y-161948928D01*
X79734735Y-161948928D02*
X79810926Y-161987024D01*
X79810926Y-161987024D02*
X79925211Y-161987024D01*
X79925211Y-161987024D02*
X80001402Y-161948928D01*
X80001402Y-161948928D02*
X80039497Y-161910833D01*
X80039497Y-161910833D02*
X80077592Y-161834643D01*
X80077592Y-161834643D02*
X80077592Y-161529881D01*
X79658545Y-162329881D02*
X80306164Y-162329881D01*
X80306164Y-162329881D02*
X80382354Y-162367976D01*
X80382354Y-162367976D02*
X80420450Y-162406071D01*
X80420450Y-162406071D02*
X80458545Y-162482262D01*
X80458545Y-162482262D02*
X80458545Y-162634643D01*
X80458545Y-162634643D02*
X80420450Y-162710833D01*
X80420450Y-162710833D02*
X80382354Y-162748928D01*
X80382354Y-162748928D02*
X80306164Y-162787024D01*
X80306164Y-162787024D02*
X79658545Y-162787024D01*
X80458545Y-163167976D02*
X79658545Y-163167976D01*
X79658545Y-163167976D02*
X80458545Y-163625119D01*
X80458545Y-163625119D02*
X79658545Y-163625119D01*
X102556640Y-161275118D02*
X102518545Y-161198928D01*
X102518545Y-161198928D02*
X102518545Y-161084642D01*
X102518545Y-161084642D02*
X102556640Y-160970356D01*
X102556640Y-160970356D02*
X102632830Y-160894166D01*
X102632830Y-160894166D02*
X102709021Y-160856071D01*
X102709021Y-160856071D02*
X102861402Y-160817975D01*
X102861402Y-160817975D02*
X102975688Y-160817975D01*
X102975688Y-160817975D02*
X103128069Y-160856071D01*
X103128069Y-160856071D02*
X103204259Y-160894166D01*
X103204259Y-160894166D02*
X103280450Y-160970356D01*
X103280450Y-160970356D02*
X103318545Y-161084642D01*
X103318545Y-161084642D02*
X103318545Y-161160833D01*
X103318545Y-161160833D02*
X103280450Y-161275118D01*
X103280450Y-161275118D02*
X103242354Y-161313214D01*
X103242354Y-161313214D02*
X102975688Y-161313214D01*
X102975688Y-161313214D02*
X102975688Y-161160833D01*
X103318545Y-161656071D02*
X102518545Y-161656071D01*
X102518545Y-161656071D02*
X102518545Y-161960833D01*
X102518545Y-161960833D02*
X102556640Y-162037023D01*
X102556640Y-162037023D02*
X102594735Y-162075118D01*
X102594735Y-162075118D02*
X102670926Y-162113214D01*
X102670926Y-162113214D02*
X102785211Y-162113214D01*
X102785211Y-162113214D02*
X102861402Y-162075118D01*
X102861402Y-162075118D02*
X102899497Y-162037023D01*
X102899497Y-162037023D02*
X102937592Y-161960833D01*
X102937592Y-161960833D02*
X102937592Y-161656071D01*
X103318545Y-162875118D02*
X103318545Y-162417975D01*
X103318545Y-162646547D02*
X102518545Y-162646547D01*
X102518545Y-162646547D02*
X102632830Y-162570356D01*
X102632830Y-162570356D02*
X102709021Y-162494166D01*
X102709021Y-162494166D02*
X102747116Y-162417975D01*
X102518545Y-163560833D02*
X102518545Y-163408452D01*
X102518545Y-163408452D02*
X102556640Y-163332261D01*
X102556640Y-163332261D02*
X102594735Y-163294166D01*
X102594735Y-163294166D02*
X102709021Y-163217976D01*
X102709021Y-163217976D02*
X102861402Y-163179880D01*
X102861402Y-163179880D02*
X103166164Y-163179880D01*
X103166164Y-163179880D02*
X103242354Y-163217976D01*
X103242354Y-163217976D02*
X103280450Y-163256071D01*
X103280450Y-163256071D02*
X103318545Y-163332261D01*
X103318545Y-163332261D02*
X103318545Y-163484642D01*
X103318545Y-163484642D02*
X103280450Y-163560833D01*
X103280450Y-163560833D02*
X103242354Y-163598928D01*
X103242354Y-163598928D02*
X103166164Y-163637023D01*
X103166164Y-163637023D02*
X102975688Y-163637023D01*
X102975688Y-163637023D02*
X102899497Y-163598928D01*
X102899497Y-163598928D02*
X102861402Y-163560833D01*
X102861402Y-163560833D02*
X102823307Y-163484642D01*
X102823307Y-163484642D02*
X102823307Y-163332261D01*
X102823307Y-163332261D02*
X102861402Y-163256071D01*
X102861402Y-163256071D02*
X102899497Y-163217976D01*
X102899497Y-163217976D02*
X102975688Y-163179880D01*
X100016640Y-161275118D02*
X99978545Y-161198928D01*
X99978545Y-161198928D02*
X99978545Y-161084642D01*
X99978545Y-161084642D02*
X100016640Y-160970356D01*
X100016640Y-160970356D02*
X100092830Y-160894166D01*
X100092830Y-160894166D02*
X100169021Y-160856071D01*
X100169021Y-160856071D02*
X100321402Y-160817975D01*
X100321402Y-160817975D02*
X100435688Y-160817975D01*
X100435688Y-160817975D02*
X100588069Y-160856071D01*
X100588069Y-160856071D02*
X100664259Y-160894166D01*
X100664259Y-160894166D02*
X100740450Y-160970356D01*
X100740450Y-160970356D02*
X100778545Y-161084642D01*
X100778545Y-161084642D02*
X100778545Y-161160833D01*
X100778545Y-161160833D02*
X100740450Y-161275118D01*
X100740450Y-161275118D02*
X100702354Y-161313214D01*
X100702354Y-161313214D02*
X100435688Y-161313214D01*
X100435688Y-161313214D02*
X100435688Y-161160833D01*
X100778545Y-161656071D02*
X99978545Y-161656071D01*
X99978545Y-161656071D02*
X99978545Y-161960833D01*
X99978545Y-161960833D02*
X100016640Y-162037023D01*
X100016640Y-162037023D02*
X100054735Y-162075118D01*
X100054735Y-162075118D02*
X100130926Y-162113214D01*
X100130926Y-162113214D02*
X100245211Y-162113214D01*
X100245211Y-162113214D02*
X100321402Y-162075118D01*
X100321402Y-162075118D02*
X100359497Y-162037023D01*
X100359497Y-162037023D02*
X100397592Y-161960833D01*
X100397592Y-161960833D02*
X100397592Y-161656071D01*
X100778545Y-162875118D02*
X100778545Y-162417975D01*
X100778545Y-162646547D02*
X99978545Y-162646547D01*
X99978545Y-162646547D02*
X100092830Y-162570356D01*
X100092830Y-162570356D02*
X100169021Y-162494166D01*
X100169021Y-162494166D02*
X100207116Y-162417975D01*
X99978545Y-163141785D02*
X99978545Y-163675119D01*
X99978545Y-163675119D02*
X100778545Y-163332261D01*
X87316640Y-150045118D02*
X87278545Y-149968928D01*
X87278545Y-149968928D02*
X87278545Y-149854642D01*
X87278545Y-149854642D02*
X87316640Y-149740356D01*
X87316640Y-149740356D02*
X87392830Y-149664166D01*
X87392830Y-149664166D02*
X87469021Y-149626071D01*
X87469021Y-149626071D02*
X87621402Y-149587975D01*
X87621402Y-149587975D02*
X87735688Y-149587975D01*
X87735688Y-149587975D02*
X87888069Y-149626071D01*
X87888069Y-149626071D02*
X87964259Y-149664166D01*
X87964259Y-149664166D02*
X88040450Y-149740356D01*
X88040450Y-149740356D02*
X88078545Y-149854642D01*
X88078545Y-149854642D02*
X88078545Y-149930833D01*
X88078545Y-149930833D02*
X88040450Y-150045118D01*
X88040450Y-150045118D02*
X88002354Y-150083214D01*
X88002354Y-150083214D02*
X87735688Y-150083214D01*
X87735688Y-150083214D02*
X87735688Y-149930833D01*
X88078545Y-150426071D02*
X87278545Y-150426071D01*
X87278545Y-150426071D02*
X87278545Y-150730833D01*
X87278545Y-150730833D02*
X87316640Y-150807023D01*
X87316640Y-150807023D02*
X87354735Y-150845118D01*
X87354735Y-150845118D02*
X87430926Y-150883214D01*
X87430926Y-150883214D02*
X87545211Y-150883214D01*
X87545211Y-150883214D02*
X87621402Y-150845118D01*
X87621402Y-150845118D02*
X87659497Y-150807023D01*
X87659497Y-150807023D02*
X87697592Y-150730833D01*
X87697592Y-150730833D02*
X87697592Y-150426071D01*
X88078545Y-151645118D02*
X88078545Y-151187975D01*
X88078545Y-151416547D02*
X87278545Y-151416547D01*
X87278545Y-151416547D02*
X87392830Y-151340356D01*
X87392830Y-151340356D02*
X87469021Y-151264166D01*
X87469021Y-151264166D02*
X87507116Y-151187975D01*
X87278545Y-152140357D02*
X87278545Y-152216547D01*
X87278545Y-152216547D02*
X87316640Y-152292738D01*
X87316640Y-152292738D02*
X87354735Y-152330833D01*
X87354735Y-152330833D02*
X87430926Y-152368928D01*
X87430926Y-152368928D02*
X87583307Y-152407023D01*
X87583307Y-152407023D02*
X87773783Y-152407023D01*
X87773783Y-152407023D02*
X87926164Y-152368928D01*
X87926164Y-152368928D02*
X88002354Y-152330833D01*
X88002354Y-152330833D02*
X88040450Y-152292738D01*
X88040450Y-152292738D02*
X88078545Y-152216547D01*
X88078545Y-152216547D02*
X88078545Y-152140357D01*
X88078545Y-152140357D02*
X88040450Y-152064166D01*
X88040450Y-152064166D02*
X88002354Y-152026071D01*
X88002354Y-152026071D02*
X87926164Y-151987976D01*
X87926164Y-151987976D02*
X87773783Y-151949880D01*
X87773783Y-151949880D02*
X87583307Y-151949880D01*
X87583307Y-151949880D02*
X87430926Y-151987976D01*
X87430926Y-151987976D02*
X87354735Y-152026071D01*
X87354735Y-152026071D02*
X87316640Y-152064166D01*
X87316640Y-152064166D02*
X87278545Y-152140357D01*
X94936640Y-150045118D02*
X94898545Y-149968928D01*
X94898545Y-149968928D02*
X94898545Y-149854642D01*
X94898545Y-149854642D02*
X94936640Y-149740356D01*
X94936640Y-149740356D02*
X95012830Y-149664166D01*
X95012830Y-149664166D02*
X95089021Y-149626071D01*
X95089021Y-149626071D02*
X95241402Y-149587975D01*
X95241402Y-149587975D02*
X95355688Y-149587975D01*
X95355688Y-149587975D02*
X95508069Y-149626071D01*
X95508069Y-149626071D02*
X95584259Y-149664166D01*
X95584259Y-149664166D02*
X95660450Y-149740356D01*
X95660450Y-149740356D02*
X95698545Y-149854642D01*
X95698545Y-149854642D02*
X95698545Y-149930833D01*
X95698545Y-149930833D02*
X95660450Y-150045118D01*
X95660450Y-150045118D02*
X95622354Y-150083214D01*
X95622354Y-150083214D02*
X95355688Y-150083214D01*
X95355688Y-150083214D02*
X95355688Y-149930833D01*
X95698545Y-150426071D02*
X94898545Y-150426071D01*
X94898545Y-150426071D02*
X94898545Y-150730833D01*
X94898545Y-150730833D02*
X94936640Y-150807023D01*
X94936640Y-150807023D02*
X94974735Y-150845118D01*
X94974735Y-150845118D02*
X95050926Y-150883214D01*
X95050926Y-150883214D02*
X95165211Y-150883214D01*
X95165211Y-150883214D02*
X95241402Y-150845118D01*
X95241402Y-150845118D02*
X95279497Y-150807023D01*
X95279497Y-150807023D02*
X95317592Y-150730833D01*
X95317592Y-150730833D02*
X95317592Y-150426071D01*
X95698545Y-151645118D02*
X95698545Y-151187975D01*
X95698545Y-151416547D02*
X94898545Y-151416547D01*
X94898545Y-151416547D02*
X95012830Y-151340356D01*
X95012830Y-151340356D02*
X95089021Y-151264166D01*
X95089021Y-151264166D02*
X95127116Y-151187975D01*
X94898545Y-151911785D02*
X94898545Y-152407023D01*
X94898545Y-152407023D02*
X95203307Y-152140357D01*
X95203307Y-152140357D02*
X95203307Y-152254642D01*
X95203307Y-152254642D02*
X95241402Y-152330833D01*
X95241402Y-152330833D02*
X95279497Y-152368928D01*
X95279497Y-152368928D02*
X95355688Y-152407023D01*
X95355688Y-152407023D02*
X95546164Y-152407023D01*
X95546164Y-152407023D02*
X95622354Y-152368928D01*
X95622354Y-152368928D02*
X95660450Y-152330833D01*
X95660450Y-152330833D02*
X95698545Y-152254642D01*
X95698545Y-152254642D02*
X95698545Y-152026071D01*
X95698545Y-152026071D02*
X95660450Y-151949880D01*
X95660450Y-151949880D02*
X95622354Y-151911785D01*
X97476640Y-161967976D02*
X97438545Y-161891786D01*
X97438545Y-161891786D02*
X97438545Y-161777500D01*
X97438545Y-161777500D02*
X97476640Y-161663214D01*
X97476640Y-161663214D02*
X97552830Y-161587024D01*
X97552830Y-161587024D02*
X97629021Y-161548929D01*
X97629021Y-161548929D02*
X97781402Y-161510833D01*
X97781402Y-161510833D02*
X97895688Y-161510833D01*
X97895688Y-161510833D02*
X98048069Y-161548929D01*
X98048069Y-161548929D02*
X98124259Y-161587024D01*
X98124259Y-161587024D02*
X98200450Y-161663214D01*
X98200450Y-161663214D02*
X98238545Y-161777500D01*
X98238545Y-161777500D02*
X98238545Y-161853691D01*
X98238545Y-161853691D02*
X98200450Y-161967976D01*
X98200450Y-161967976D02*
X98162354Y-162006072D01*
X98162354Y-162006072D02*
X97895688Y-162006072D01*
X97895688Y-162006072D02*
X97895688Y-161853691D01*
X98238545Y-162348929D02*
X97438545Y-162348929D01*
X97438545Y-162348929D02*
X98238545Y-162806072D01*
X98238545Y-162806072D02*
X97438545Y-162806072D01*
X98238545Y-163187024D02*
X97438545Y-163187024D01*
X97438545Y-163187024D02*
X97438545Y-163377500D01*
X97438545Y-163377500D02*
X97476640Y-163491786D01*
X97476640Y-163491786D02*
X97552830Y-163567976D01*
X97552830Y-163567976D02*
X97629021Y-163606071D01*
X97629021Y-163606071D02*
X97781402Y-163644167D01*
X97781402Y-163644167D02*
X97895688Y-163644167D01*
X97895688Y-163644167D02*
X98048069Y-163606071D01*
X98048069Y-163606071D02*
X98124259Y-163567976D01*
X98124259Y-163567976D02*
X98200450Y-163491786D01*
X98200450Y-163491786D02*
X98238545Y-163377500D01*
X98238545Y-163377500D02*
X98238545Y-163187024D01*
X64456640Y-150076071D02*
X64418545Y-149999881D01*
X64418545Y-149999881D02*
X64418545Y-149885595D01*
X64418545Y-149885595D02*
X64456640Y-149771309D01*
X64456640Y-149771309D02*
X64532830Y-149695119D01*
X64532830Y-149695119D02*
X64609021Y-149657024D01*
X64609021Y-149657024D02*
X64761402Y-149618928D01*
X64761402Y-149618928D02*
X64875688Y-149618928D01*
X64875688Y-149618928D02*
X65028069Y-149657024D01*
X65028069Y-149657024D02*
X65104259Y-149695119D01*
X65104259Y-149695119D02*
X65180450Y-149771309D01*
X65180450Y-149771309D02*
X65218545Y-149885595D01*
X65218545Y-149885595D02*
X65218545Y-149961786D01*
X65218545Y-149961786D02*
X65180450Y-150076071D01*
X65180450Y-150076071D02*
X65142354Y-150114167D01*
X65142354Y-150114167D02*
X64875688Y-150114167D01*
X64875688Y-150114167D02*
X64875688Y-149961786D01*
X65218545Y-150457024D02*
X64418545Y-150457024D01*
X64418545Y-150457024D02*
X64418545Y-150761786D01*
X64418545Y-150761786D02*
X64456640Y-150837976D01*
X64456640Y-150837976D02*
X64494735Y-150876071D01*
X64494735Y-150876071D02*
X64570926Y-150914167D01*
X64570926Y-150914167D02*
X64685211Y-150914167D01*
X64685211Y-150914167D02*
X64761402Y-150876071D01*
X64761402Y-150876071D02*
X64799497Y-150837976D01*
X64799497Y-150837976D02*
X64837592Y-150761786D01*
X64837592Y-150761786D02*
X64837592Y-150457024D01*
X64418545Y-151180833D02*
X64418545Y-151676071D01*
X64418545Y-151676071D02*
X64723307Y-151409405D01*
X64723307Y-151409405D02*
X64723307Y-151523690D01*
X64723307Y-151523690D02*
X64761402Y-151599881D01*
X64761402Y-151599881D02*
X64799497Y-151637976D01*
X64799497Y-151637976D02*
X64875688Y-151676071D01*
X64875688Y-151676071D02*
X65066164Y-151676071D01*
X65066164Y-151676071D02*
X65142354Y-151637976D01*
X65142354Y-151637976D02*
X65180450Y-151599881D01*
X65180450Y-151599881D02*
X65218545Y-151523690D01*
X65218545Y-151523690D02*
X65218545Y-151295119D01*
X65218545Y-151295119D02*
X65180450Y-151218928D01*
X65180450Y-151218928D02*
X65142354Y-151180833D01*
X102556640Y-150045118D02*
X102518545Y-149968928D01*
X102518545Y-149968928D02*
X102518545Y-149854642D01*
X102518545Y-149854642D02*
X102556640Y-149740356D01*
X102556640Y-149740356D02*
X102632830Y-149664166D01*
X102632830Y-149664166D02*
X102709021Y-149626071D01*
X102709021Y-149626071D02*
X102861402Y-149587975D01*
X102861402Y-149587975D02*
X102975688Y-149587975D01*
X102975688Y-149587975D02*
X103128069Y-149626071D01*
X103128069Y-149626071D02*
X103204259Y-149664166D01*
X103204259Y-149664166D02*
X103280450Y-149740356D01*
X103280450Y-149740356D02*
X103318545Y-149854642D01*
X103318545Y-149854642D02*
X103318545Y-149930833D01*
X103318545Y-149930833D02*
X103280450Y-150045118D01*
X103280450Y-150045118D02*
X103242354Y-150083214D01*
X103242354Y-150083214D02*
X102975688Y-150083214D01*
X102975688Y-150083214D02*
X102975688Y-149930833D01*
X103318545Y-150426071D02*
X102518545Y-150426071D01*
X102518545Y-150426071D02*
X102518545Y-150730833D01*
X102518545Y-150730833D02*
X102556640Y-150807023D01*
X102556640Y-150807023D02*
X102594735Y-150845118D01*
X102594735Y-150845118D02*
X102670926Y-150883214D01*
X102670926Y-150883214D02*
X102785211Y-150883214D01*
X102785211Y-150883214D02*
X102861402Y-150845118D01*
X102861402Y-150845118D02*
X102899497Y-150807023D01*
X102899497Y-150807023D02*
X102937592Y-150730833D01*
X102937592Y-150730833D02*
X102937592Y-150426071D01*
X103318545Y-151645118D02*
X103318545Y-151187975D01*
X103318545Y-151416547D02*
X102518545Y-151416547D01*
X102518545Y-151416547D02*
X102632830Y-151340356D01*
X102632830Y-151340356D02*
X102709021Y-151264166D01*
X102709021Y-151264166D02*
X102747116Y-151187975D01*
X102518545Y-152368928D02*
X102518545Y-151987976D01*
X102518545Y-151987976D02*
X102899497Y-151949880D01*
X102899497Y-151949880D02*
X102861402Y-151987976D01*
X102861402Y-151987976D02*
X102823307Y-152064166D01*
X102823307Y-152064166D02*
X102823307Y-152254642D01*
X102823307Y-152254642D02*
X102861402Y-152330833D01*
X102861402Y-152330833D02*
X102899497Y-152368928D01*
X102899497Y-152368928D02*
X102975688Y-152407023D01*
X102975688Y-152407023D02*
X103166164Y-152407023D01*
X103166164Y-152407023D02*
X103242354Y-152368928D01*
X103242354Y-152368928D02*
X103280450Y-152330833D01*
X103280450Y-152330833D02*
X103318545Y-152254642D01*
X103318545Y-152254642D02*
X103318545Y-152064166D01*
X103318545Y-152064166D02*
X103280450Y-151987976D01*
X103280450Y-151987976D02*
X103242354Y-151949880D01*
X84776640Y-150037976D02*
X84738545Y-149961786D01*
X84738545Y-149961786D02*
X84738545Y-149847500D01*
X84738545Y-149847500D02*
X84776640Y-149733214D01*
X84776640Y-149733214D02*
X84852830Y-149657024D01*
X84852830Y-149657024D02*
X84929021Y-149618929D01*
X84929021Y-149618929D02*
X85081402Y-149580833D01*
X85081402Y-149580833D02*
X85195688Y-149580833D01*
X85195688Y-149580833D02*
X85348069Y-149618929D01*
X85348069Y-149618929D02*
X85424259Y-149657024D01*
X85424259Y-149657024D02*
X85500450Y-149733214D01*
X85500450Y-149733214D02*
X85538545Y-149847500D01*
X85538545Y-149847500D02*
X85538545Y-149923691D01*
X85538545Y-149923691D02*
X85500450Y-150037976D01*
X85500450Y-150037976D02*
X85462354Y-150076072D01*
X85462354Y-150076072D02*
X85195688Y-150076072D01*
X85195688Y-150076072D02*
X85195688Y-149923691D01*
X85538545Y-150418929D02*
X84738545Y-150418929D01*
X84738545Y-150418929D02*
X85538545Y-150876072D01*
X85538545Y-150876072D02*
X84738545Y-150876072D01*
X85538545Y-151257024D02*
X84738545Y-151257024D01*
X84738545Y-151257024D02*
X84738545Y-151447500D01*
X84738545Y-151447500D02*
X84776640Y-151561786D01*
X84776640Y-151561786D02*
X84852830Y-151637976D01*
X84852830Y-151637976D02*
X84929021Y-151676071D01*
X84929021Y-151676071D02*
X85081402Y-151714167D01*
X85081402Y-151714167D02*
X85195688Y-151714167D01*
X85195688Y-151714167D02*
X85348069Y-151676071D01*
X85348069Y-151676071D02*
X85424259Y-151637976D01*
X85424259Y-151637976D02*
X85500450Y-151561786D01*
X85500450Y-151561786D02*
X85538545Y-151447500D01*
X85538545Y-151447500D02*
X85538545Y-151257024D01*
X67529973Y-158234642D02*
X67529973Y-158615595D01*
X67758545Y-158158452D02*
X66958545Y-158425119D01*
X66958545Y-158425119D02*
X67758545Y-158691785D01*
X67758545Y-158958452D02*
X66958545Y-158958452D01*
X66958545Y-158958452D02*
X66958545Y-159148928D01*
X66958545Y-159148928D02*
X66996640Y-159263214D01*
X66996640Y-159263214D02*
X67072830Y-159339404D01*
X67072830Y-159339404D02*
X67149021Y-159377499D01*
X67149021Y-159377499D02*
X67301402Y-159415595D01*
X67301402Y-159415595D02*
X67415688Y-159415595D01*
X67415688Y-159415595D02*
X67568069Y-159377499D01*
X67568069Y-159377499D02*
X67644259Y-159339404D01*
X67644259Y-159339404D02*
X67720450Y-159263214D01*
X67720450Y-159263214D02*
X67758545Y-159148928D01*
X67758545Y-159148928D02*
X67758545Y-158958452D01*
X67682354Y-160215595D02*
X67720450Y-160177499D01*
X67720450Y-160177499D02*
X67758545Y-160063214D01*
X67758545Y-160063214D02*
X67758545Y-159987023D01*
X67758545Y-159987023D02*
X67720450Y-159872737D01*
X67720450Y-159872737D02*
X67644259Y-159796547D01*
X67644259Y-159796547D02*
X67568069Y-159758452D01*
X67568069Y-159758452D02*
X67415688Y-159720356D01*
X67415688Y-159720356D02*
X67301402Y-159720356D01*
X67301402Y-159720356D02*
X67149021Y-159758452D01*
X67149021Y-159758452D02*
X67072830Y-159796547D01*
X67072830Y-159796547D02*
X66996640Y-159872737D01*
X66996640Y-159872737D02*
X66958545Y-159987023D01*
X66958545Y-159987023D02*
X66958545Y-160063214D01*
X66958545Y-160063214D02*
X66996640Y-160177499D01*
X66996640Y-160177499D02*
X67034735Y-160215595D01*
X67834735Y-160367976D02*
X67834735Y-160977499D01*
X66958545Y-161053690D02*
X67758545Y-161320357D01*
X67758545Y-161320357D02*
X66958545Y-161587023D01*
X67758545Y-162310833D02*
X67377592Y-162044166D01*
X67758545Y-161853690D02*
X66958545Y-161853690D01*
X66958545Y-161853690D02*
X66958545Y-162158452D01*
X66958545Y-162158452D02*
X66996640Y-162234642D01*
X66996640Y-162234642D02*
X67034735Y-162272737D01*
X67034735Y-162272737D02*
X67110926Y-162310833D01*
X67110926Y-162310833D02*
X67225211Y-162310833D01*
X67225211Y-162310833D02*
X67301402Y-162272737D01*
X67301402Y-162272737D02*
X67339497Y-162234642D01*
X67339497Y-162234642D02*
X67377592Y-162158452D01*
X67377592Y-162158452D02*
X67377592Y-161853690D01*
X67339497Y-162653690D02*
X67339497Y-162920356D01*
X67758545Y-163034642D02*
X67758545Y-162653690D01*
X67758545Y-162653690D02*
X66958545Y-162653690D01*
X66958545Y-162653690D02*
X66958545Y-163034642D01*
X67339497Y-163644166D02*
X67339497Y-163377500D01*
X67758545Y-163377500D02*
X66958545Y-163377500D01*
X66958545Y-163377500D02*
X66958545Y-163758452D01*
X61878545Y-159651309D02*
X61878545Y-160146547D01*
X61878545Y-160146547D02*
X62183307Y-159879881D01*
X62183307Y-159879881D02*
X62183307Y-159994166D01*
X62183307Y-159994166D02*
X62221402Y-160070357D01*
X62221402Y-160070357D02*
X62259497Y-160108452D01*
X62259497Y-160108452D02*
X62335688Y-160146547D01*
X62335688Y-160146547D02*
X62526164Y-160146547D01*
X62526164Y-160146547D02*
X62602354Y-160108452D01*
X62602354Y-160108452D02*
X62640450Y-160070357D01*
X62640450Y-160070357D02*
X62678545Y-159994166D01*
X62678545Y-159994166D02*
X62678545Y-159765595D01*
X62678545Y-159765595D02*
X62640450Y-159689404D01*
X62640450Y-159689404D02*
X62602354Y-159651309D01*
X61878545Y-160375119D02*
X62678545Y-160641786D01*
X62678545Y-160641786D02*
X61878545Y-160908452D01*
X61878545Y-161098928D02*
X61878545Y-161594166D01*
X61878545Y-161594166D02*
X62183307Y-161327500D01*
X62183307Y-161327500D02*
X62183307Y-161441785D01*
X62183307Y-161441785D02*
X62221402Y-161517976D01*
X62221402Y-161517976D02*
X62259497Y-161556071D01*
X62259497Y-161556071D02*
X62335688Y-161594166D01*
X62335688Y-161594166D02*
X62526164Y-161594166D01*
X62526164Y-161594166D02*
X62602354Y-161556071D01*
X62602354Y-161556071D02*
X62640450Y-161517976D01*
X62640450Y-161517976D02*
X62678545Y-161441785D01*
X62678545Y-161441785D02*
X62678545Y-161213214D01*
X62678545Y-161213214D02*
X62640450Y-161137023D01*
X62640450Y-161137023D02*
X62602354Y-161098928D01*
X62754735Y-161746548D02*
X62754735Y-162356071D01*
X62259497Y-162546548D02*
X62259497Y-162813214D01*
X62678545Y-162927500D02*
X62678545Y-162546548D01*
X62678545Y-162546548D02*
X61878545Y-162546548D01*
X61878545Y-162546548D02*
X61878545Y-162927500D01*
X62678545Y-163270358D02*
X61878545Y-163270358D01*
X61878545Y-163270358D02*
X62678545Y-163727501D01*
X62678545Y-163727501D02*
X61878545Y-163727501D01*
X340553569Y-169600714D02*
X339553569Y-169600714D01*
X339553569Y-169600714D02*
X339553569Y-169838809D01*
X339553569Y-169838809D02*
X339601188Y-169981666D01*
X339601188Y-169981666D02*
X339696426Y-170076904D01*
X339696426Y-170076904D02*
X339791664Y-170124523D01*
X339791664Y-170124523D02*
X339982140Y-170172142D01*
X339982140Y-170172142D02*
X340124997Y-170172142D01*
X340124997Y-170172142D02*
X340315473Y-170124523D01*
X340315473Y-170124523D02*
X340410711Y-170076904D01*
X340410711Y-170076904D02*
X340505950Y-169981666D01*
X340505950Y-169981666D02*
X340553569Y-169838809D01*
X340553569Y-169838809D02*
X340553569Y-169600714D01*
X340553569Y-171124523D02*
X340553569Y-170553095D01*
X340553569Y-170838809D02*
X339553569Y-170838809D01*
X339553569Y-170838809D02*
X339696426Y-170743571D01*
X339696426Y-170743571D02*
X339791664Y-170648333D01*
X339791664Y-170648333D02*
X339839283Y-170553095D01*
X339553569Y-171457857D02*
X339553569Y-172076904D01*
X339553569Y-172076904D02*
X339934521Y-171743571D01*
X339934521Y-171743571D02*
X339934521Y-171886428D01*
X339934521Y-171886428D02*
X339982140Y-171981666D01*
X339982140Y-171981666D02*
X340029759Y-172029285D01*
X340029759Y-172029285D02*
X340124997Y-172076904D01*
X340124997Y-172076904D02*
X340363092Y-172076904D01*
X340363092Y-172076904D02*
X340458330Y-172029285D01*
X340458330Y-172029285D02*
X340505950Y-171981666D01*
X340505950Y-171981666D02*
X340553569Y-171886428D01*
X340553569Y-171886428D02*
X340553569Y-171600714D01*
X340553569Y-171600714D02*
X340505950Y-171505476D01*
X340505950Y-171505476D02*
X340458330Y-171457857D01*
X340233569Y-174363095D02*
X339233569Y-174363095D01*
X340233569Y-174934523D02*
X339662140Y-174505952D01*
X339233569Y-174934523D02*
X339804997Y-174363095D01*
X283403569Y-203414405D02*
X282403569Y-203414405D01*
X282403569Y-203414405D02*
X282403569Y-203652500D01*
X282403569Y-203652500D02*
X282451188Y-203795357D01*
X282451188Y-203795357D02*
X282546426Y-203890595D01*
X282546426Y-203890595D02*
X282641664Y-203938214D01*
X282641664Y-203938214D02*
X282832140Y-203985833D01*
X282832140Y-203985833D02*
X282974997Y-203985833D01*
X282974997Y-203985833D02*
X283165473Y-203938214D01*
X283165473Y-203938214D02*
X283260711Y-203890595D01*
X283260711Y-203890595D02*
X283355950Y-203795357D01*
X283355950Y-203795357D02*
X283403569Y-203652500D01*
X283403569Y-203652500D02*
X283403569Y-203414405D01*
X282403569Y-204890595D02*
X282403569Y-204414405D01*
X282403569Y-204414405D02*
X282879759Y-204366786D01*
X282879759Y-204366786D02*
X282832140Y-204414405D01*
X282832140Y-204414405D02*
X282784521Y-204509643D01*
X282784521Y-204509643D02*
X282784521Y-204747738D01*
X282784521Y-204747738D02*
X282832140Y-204842976D01*
X282832140Y-204842976D02*
X282879759Y-204890595D01*
X282879759Y-204890595D02*
X282974997Y-204938214D01*
X282974997Y-204938214D02*
X283213092Y-204938214D01*
X283213092Y-204938214D02*
X283308330Y-204890595D01*
X283308330Y-204890595D02*
X283355950Y-204842976D01*
X283355950Y-204842976D02*
X283403569Y-204747738D01*
X283403569Y-204747738D02*
X283403569Y-204509643D01*
X283403569Y-204509643D02*
X283355950Y-204414405D01*
X283355950Y-204414405D02*
X283308330Y-204366786D01*
X283083569Y-207700595D02*
X282083569Y-207700595D01*
X283083569Y-208272023D02*
X282512140Y-207843452D01*
X282083569Y-208272023D02*
X282654997Y-207700595D01*
X88141069Y-212463214D02*
X87141069Y-212463214D01*
X87141069Y-212463214D02*
X87141069Y-212701309D01*
X87141069Y-212701309D02*
X87188688Y-212844166D01*
X87188688Y-212844166D02*
X87283926Y-212939404D01*
X87283926Y-212939404D02*
X87379164Y-212987023D01*
X87379164Y-212987023D02*
X87569640Y-213034642D01*
X87569640Y-213034642D02*
X87712497Y-213034642D01*
X87712497Y-213034642D02*
X87902973Y-212987023D01*
X87902973Y-212987023D02*
X87998211Y-212939404D01*
X87998211Y-212939404D02*
X88093450Y-212844166D01*
X88093450Y-212844166D02*
X88141069Y-212701309D01*
X88141069Y-212701309D02*
X88141069Y-212463214D01*
X88141069Y-213987023D02*
X88141069Y-213415595D01*
X88141069Y-213701309D02*
X87141069Y-213701309D01*
X87141069Y-213701309D02*
X87283926Y-213606071D01*
X87283926Y-213606071D02*
X87379164Y-213510833D01*
X87379164Y-213510833D02*
X87426783Y-213415595D01*
X87141069Y-214844166D02*
X87141069Y-214653690D01*
X87141069Y-214653690D02*
X87188688Y-214558452D01*
X87188688Y-214558452D02*
X87236307Y-214510833D01*
X87236307Y-214510833D02*
X87379164Y-214415595D01*
X87379164Y-214415595D02*
X87569640Y-214367976D01*
X87569640Y-214367976D02*
X87950592Y-214367976D01*
X87950592Y-214367976D02*
X88045830Y-214415595D01*
X88045830Y-214415595D02*
X88093450Y-214463214D01*
X88093450Y-214463214D02*
X88141069Y-214558452D01*
X88141069Y-214558452D02*
X88141069Y-214748928D01*
X88141069Y-214748928D02*
X88093450Y-214844166D01*
X88093450Y-214844166D02*
X88045830Y-214891785D01*
X88045830Y-214891785D02*
X87950592Y-214939404D01*
X87950592Y-214939404D02*
X87712497Y-214939404D01*
X87712497Y-214939404D02*
X87617259Y-214891785D01*
X87617259Y-214891785D02*
X87569640Y-214844166D01*
X87569640Y-214844166D02*
X87522021Y-214748928D01*
X87522021Y-214748928D02*
X87522021Y-214558452D01*
X87522021Y-214558452D02*
X87569640Y-214463214D01*
X87569640Y-214463214D02*
X87617259Y-214415595D01*
X87617259Y-214415595D02*
X87712497Y-214367976D01*
X87821069Y-217225595D02*
X86821069Y-217225595D01*
X87821069Y-217797023D02*
X87249640Y-217368452D01*
X86821069Y-217797023D02*
X87392497Y-217225595D01*
X321503569Y-203414405D02*
X320503569Y-203414405D01*
X320503569Y-203414405D02*
X320503569Y-203652500D01*
X320503569Y-203652500D02*
X320551188Y-203795357D01*
X320551188Y-203795357D02*
X320646426Y-203890595D01*
X320646426Y-203890595D02*
X320741664Y-203938214D01*
X320741664Y-203938214D02*
X320932140Y-203985833D01*
X320932140Y-203985833D02*
X321074997Y-203985833D01*
X321074997Y-203985833D02*
X321265473Y-203938214D01*
X321265473Y-203938214D02*
X321360711Y-203890595D01*
X321360711Y-203890595D02*
X321455950Y-203795357D01*
X321455950Y-203795357D02*
X321503569Y-203652500D01*
X321503569Y-203652500D02*
X321503569Y-203414405D01*
X320503569Y-204842976D02*
X320503569Y-204652500D01*
X320503569Y-204652500D02*
X320551188Y-204557262D01*
X320551188Y-204557262D02*
X320598807Y-204509643D01*
X320598807Y-204509643D02*
X320741664Y-204414405D01*
X320741664Y-204414405D02*
X320932140Y-204366786D01*
X320932140Y-204366786D02*
X321313092Y-204366786D01*
X321313092Y-204366786D02*
X321408330Y-204414405D01*
X321408330Y-204414405D02*
X321455950Y-204462024D01*
X321455950Y-204462024D02*
X321503569Y-204557262D01*
X321503569Y-204557262D02*
X321503569Y-204747738D01*
X321503569Y-204747738D02*
X321455950Y-204842976D01*
X321455950Y-204842976D02*
X321408330Y-204890595D01*
X321408330Y-204890595D02*
X321313092Y-204938214D01*
X321313092Y-204938214D02*
X321074997Y-204938214D01*
X321074997Y-204938214D02*
X320979759Y-204890595D01*
X320979759Y-204890595D02*
X320932140Y-204842976D01*
X320932140Y-204842976D02*
X320884521Y-204747738D01*
X320884521Y-204747738D02*
X320884521Y-204557262D01*
X320884521Y-204557262D02*
X320932140Y-204462024D01*
X320932140Y-204462024D02*
X320979759Y-204414405D01*
X320979759Y-204414405D02*
X321074997Y-204366786D01*
X321183569Y-207700595D02*
X320183569Y-207700595D01*
X321183569Y-208272023D02*
X320612140Y-207843452D01*
X320183569Y-208272023D02*
X320754997Y-207700595D01*
X169103569Y-170076905D02*
X168103569Y-170076905D01*
X168103569Y-170076905D02*
X168103569Y-170315000D01*
X168103569Y-170315000D02*
X168151188Y-170457857D01*
X168151188Y-170457857D02*
X168246426Y-170553095D01*
X168246426Y-170553095D02*
X168341664Y-170600714D01*
X168341664Y-170600714D02*
X168532140Y-170648333D01*
X168532140Y-170648333D02*
X168674997Y-170648333D01*
X168674997Y-170648333D02*
X168865473Y-170600714D01*
X168865473Y-170600714D02*
X168960711Y-170553095D01*
X168960711Y-170553095D02*
X169055950Y-170457857D01*
X169055950Y-170457857D02*
X169103569Y-170315000D01*
X169103569Y-170315000D02*
X169103569Y-170076905D01*
X169103569Y-171124524D02*
X169103569Y-171315000D01*
X169103569Y-171315000D02*
X169055950Y-171410238D01*
X169055950Y-171410238D02*
X169008330Y-171457857D01*
X169008330Y-171457857D02*
X168865473Y-171553095D01*
X168865473Y-171553095D02*
X168674997Y-171600714D01*
X168674997Y-171600714D02*
X168294045Y-171600714D01*
X168294045Y-171600714D02*
X168198807Y-171553095D01*
X168198807Y-171553095D02*
X168151188Y-171505476D01*
X168151188Y-171505476D02*
X168103569Y-171410238D01*
X168103569Y-171410238D02*
X168103569Y-171219762D01*
X168103569Y-171219762D02*
X168151188Y-171124524D01*
X168151188Y-171124524D02*
X168198807Y-171076905D01*
X168198807Y-171076905D02*
X168294045Y-171029286D01*
X168294045Y-171029286D02*
X168532140Y-171029286D01*
X168532140Y-171029286D02*
X168627378Y-171076905D01*
X168627378Y-171076905D02*
X168674997Y-171124524D01*
X168674997Y-171124524D02*
X168722616Y-171219762D01*
X168722616Y-171219762D02*
X168722616Y-171410238D01*
X168722616Y-171410238D02*
X168674997Y-171505476D01*
X168674997Y-171505476D02*
X168627378Y-171553095D01*
X168627378Y-171553095D02*
X168532140Y-171600714D01*
X168783569Y-174363095D02*
X167783569Y-174363095D01*
X168783569Y-174934523D02*
X168212140Y-174505952D01*
X167783569Y-174934523D02*
X168354997Y-174363095D01*
D11*
G04 #@! TO.C,D17*
X103496250Y-211557500D02*
X103496250Y-215797500D01*
X103496250Y-214957500D02*
X105736250Y-214957500D01*
X103496250Y-215077500D02*
X105736250Y-215077500D01*
X103496250Y-215197500D02*
X105736250Y-215197500D01*
X103496250Y-215797500D02*
X105736250Y-215797500D01*
X104616250Y-211557500D02*
X104616250Y-210907500D01*
X104616250Y-215797500D02*
X104616250Y-216447500D01*
X105736250Y-211557500D02*
X103496250Y-211557500D01*
X105736250Y-215797500D02*
X105736250Y-211557500D01*
G04 #@! TO.C,D11*
X260658750Y-168695000D02*
X260658750Y-172935000D01*
X260658750Y-172095000D02*
X262898750Y-172095000D01*
X260658750Y-172215000D02*
X262898750Y-172215000D01*
X260658750Y-172335000D02*
X262898750Y-172335000D01*
X260658750Y-172935000D02*
X262898750Y-172935000D01*
X261778750Y-168695000D02*
X261778750Y-168045000D01*
X261778750Y-172935000D02*
X261778750Y-173585000D01*
X262898750Y-168695000D02*
X260658750Y-168695000D01*
X262898750Y-172935000D02*
X262898750Y-168695000D01*
G04 #@! TO.C,D4*
X241608750Y-202032500D02*
X241608750Y-206272500D01*
X241608750Y-205432500D02*
X243848750Y-205432500D01*
X241608750Y-205552500D02*
X243848750Y-205552500D01*
X241608750Y-205672500D02*
X243848750Y-205672500D01*
X241608750Y-206272500D02*
X243848750Y-206272500D01*
X242728750Y-202032500D02*
X242728750Y-201382500D01*
X242728750Y-206272500D02*
X242728750Y-206922500D01*
X243848750Y-202032500D02*
X241608750Y-202032500D01*
X243848750Y-206272500D02*
X243848750Y-202032500D01*
G04 #@! TO.C,D10*
X203508750Y-168695000D02*
X203508750Y-172935000D01*
X203508750Y-172095000D02*
X205748750Y-172095000D01*
X203508750Y-172215000D02*
X205748750Y-172215000D01*
X203508750Y-172335000D02*
X205748750Y-172335000D01*
X203508750Y-172935000D02*
X205748750Y-172935000D01*
X204628750Y-168695000D02*
X204628750Y-168045000D01*
X204628750Y-172935000D02*
X204628750Y-173585000D01*
X205748750Y-168695000D02*
X203508750Y-168695000D01*
X205748750Y-172935000D02*
X205748750Y-168695000D01*
G04 #@! TO.C,D14*
X84446250Y-192507500D02*
X84446250Y-196747500D01*
X84446250Y-195907500D02*
X86686250Y-195907500D01*
X84446250Y-196027500D02*
X86686250Y-196027500D01*
X84446250Y-196147500D02*
X86686250Y-196147500D01*
X84446250Y-196747500D02*
X86686250Y-196747500D01*
X85566250Y-192507500D02*
X85566250Y-191857500D01*
X85566250Y-196747500D02*
X85566250Y-197397500D01*
X86686250Y-192507500D02*
X84446250Y-192507500D01*
X86686250Y-196747500D02*
X86686250Y-192507500D01*
G04 #@! TO.C,D8*
X374958750Y-202032500D02*
X374958750Y-206272500D01*
X374958750Y-205432500D02*
X377198750Y-205432500D01*
X374958750Y-205552500D02*
X377198750Y-205552500D01*
X374958750Y-205672500D02*
X377198750Y-205672500D01*
X374958750Y-206272500D02*
X377198750Y-206272500D01*
X376078750Y-202032500D02*
X376078750Y-201382500D01*
X376078750Y-206272500D02*
X376078750Y-206922500D01*
X377198750Y-202032500D02*
X374958750Y-202032500D01*
X377198750Y-206272500D02*
X377198750Y-202032500D01*
G04 #@! TO.C,D15*
X103496250Y-192507500D02*
X103496250Y-196747500D01*
X103496250Y-195907500D02*
X105736250Y-195907500D01*
X103496250Y-196027500D02*
X105736250Y-196027500D01*
X103496250Y-196147500D02*
X105736250Y-196147500D01*
X103496250Y-196747500D02*
X105736250Y-196747500D01*
X104616250Y-192507500D02*
X104616250Y-191857500D01*
X104616250Y-196747500D02*
X104616250Y-197397500D01*
X105736250Y-192507500D02*
X103496250Y-192507500D01*
X105736250Y-196747500D02*
X105736250Y-192507500D01*
G04 #@! TO.C,D2*
X184458750Y-202032500D02*
X184458750Y-206272500D01*
X184458750Y-205432500D02*
X186698750Y-205432500D01*
X184458750Y-205552500D02*
X186698750Y-205552500D01*
X184458750Y-205672500D02*
X186698750Y-205672500D01*
X184458750Y-206272500D02*
X186698750Y-206272500D01*
X185578750Y-202032500D02*
X185578750Y-201382500D01*
X185578750Y-206272500D02*
X185578750Y-206922500D01*
X186698750Y-202032500D02*
X184458750Y-202032500D01*
X186698750Y-206272500D02*
X186698750Y-202032500D01*
G04 #@! TO.C,D3*
X222558750Y-202032500D02*
X222558750Y-206272500D01*
X222558750Y-205432500D02*
X224798750Y-205432500D01*
X222558750Y-205552500D02*
X224798750Y-205552500D01*
X222558750Y-205672500D02*
X224798750Y-205672500D01*
X222558750Y-206272500D02*
X224798750Y-206272500D01*
X223678750Y-202032500D02*
X223678750Y-201382500D01*
X223678750Y-206272500D02*
X223678750Y-206922500D01*
X224798750Y-202032500D02*
X222558750Y-202032500D01*
X224798750Y-206272500D02*
X224798750Y-202032500D01*
G04 #@! TO.C,D12*
X298758750Y-168695000D02*
X298758750Y-172935000D01*
X298758750Y-172095000D02*
X300998750Y-172095000D01*
X298758750Y-172215000D02*
X300998750Y-172215000D01*
X298758750Y-172335000D02*
X300998750Y-172335000D01*
X298758750Y-172935000D02*
X300998750Y-172935000D01*
X299878750Y-168695000D02*
X299878750Y-168045000D01*
X299878750Y-172935000D02*
X299878750Y-173585000D01*
X300998750Y-168695000D02*
X298758750Y-168695000D01*
X300998750Y-172935000D02*
X300998750Y-168695000D01*
D12*
G04 #@! TO.C,U2*
X75913750Y-173355000D02*
X75913750Y-179705000D01*
X75913750Y-179705000D02*
X77066250Y-179705000D01*
X77066250Y-173355000D02*
X75913750Y-173355000D01*
X94066250Y-173355000D02*
X95218750Y-173355000D01*
X95218750Y-173355000D02*
X95218750Y-179705000D01*
X95218750Y-179705000D02*
X94066250Y-179705000D01*
D13*
X93266250Y-181830000D02*
G75*
G02*
X93066250Y-181830000I-100000J0D01*
G01*
X93066250Y-181830000D02*
G75*
G02*
X93266250Y-181830000I100000J0D01*
G01*
D11*
G04 #@! TO.C,D1*
X146358750Y-202032500D02*
X146358750Y-206272500D01*
X146358750Y-205432500D02*
X148598750Y-205432500D01*
X146358750Y-205552500D02*
X148598750Y-205552500D01*
X146358750Y-205672500D02*
X148598750Y-205672500D01*
X146358750Y-206272500D02*
X148598750Y-206272500D01*
X147478750Y-202032500D02*
X147478750Y-201382500D01*
X147478750Y-206272500D02*
X147478750Y-206922500D01*
X148598750Y-202032500D02*
X146358750Y-202032500D01*
X148598750Y-206272500D02*
X148598750Y-202032500D01*
G04 #@! TO.C,D7*
X355908750Y-202032500D02*
X355908750Y-206272500D01*
X355908750Y-205432500D02*
X358148750Y-205432500D01*
X355908750Y-205552500D02*
X358148750Y-205552500D01*
X355908750Y-205672500D02*
X358148750Y-205672500D01*
X355908750Y-206272500D02*
X358148750Y-206272500D01*
X357028750Y-202032500D02*
X357028750Y-201382500D01*
X357028750Y-206272500D02*
X357028750Y-206922500D01*
X358148750Y-202032500D02*
X355908750Y-202032500D01*
X358148750Y-206272500D02*
X358148750Y-202032500D01*
D10*
G04 #@! TO.C,U1*
X53326250Y-149194500D02*
X55993250Y-149194500D01*
X53326250Y-167187500D02*
X53326250Y-146187500D01*
X55993250Y-149194500D02*
X55993250Y-146187500D01*
X104326250Y-146187500D02*
X53326250Y-146187500D01*
X104326250Y-146187500D02*
X104326250Y-167187500D01*
X104326250Y-167187500D02*
X53326250Y-167187500D01*
D11*
G04 #@! TO.C,D13*
X336858750Y-168695000D02*
X336858750Y-172935000D01*
X336858750Y-172095000D02*
X339098750Y-172095000D01*
X336858750Y-172215000D02*
X339098750Y-172215000D01*
X336858750Y-172335000D02*
X339098750Y-172335000D01*
X336858750Y-172935000D02*
X339098750Y-172935000D01*
X337978750Y-168695000D02*
X337978750Y-168045000D01*
X337978750Y-172935000D02*
X337978750Y-173585000D01*
X339098750Y-168695000D02*
X336858750Y-168695000D01*
X339098750Y-172935000D02*
X339098750Y-168695000D01*
G04 #@! TO.C,D5*
X279708750Y-202032500D02*
X279708750Y-206272500D01*
X279708750Y-205432500D02*
X281948750Y-205432500D01*
X279708750Y-205552500D02*
X281948750Y-205552500D01*
X279708750Y-205672500D02*
X281948750Y-205672500D01*
X279708750Y-206272500D02*
X281948750Y-206272500D01*
X280828750Y-202032500D02*
X280828750Y-201382500D01*
X280828750Y-206272500D02*
X280828750Y-206922500D01*
X281948750Y-202032500D02*
X279708750Y-202032500D01*
X281948750Y-206272500D02*
X281948750Y-202032500D01*
G04 #@! TO.C,D16*
X84446250Y-211557500D02*
X84446250Y-215797500D01*
X84446250Y-214957500D02*
X86686250Y-214957500D01*
X84446250Y-215077500D02*
X86686250Y-215077500D01*
X84446250Y-215197500D02*
X86686250Y-215197500D01*
X84446250Y-215797500D02*
X86686250Y-215797500D01*
X85566250Y-211557500D02*
X85566250Y-210907500D01*
X85566250Y-215797500D02*
X85566250Y-216447500D01*
X86686250Y-211557500D02*
X84446250Y-211557500D01*
X86686250Y-215797500D02*
X86686250Y-211557500D01*
G04 #@! TO.C,D6*
X317808750Y-202032500D02*
X317808750Y-206272500D01*
X317808750Y-205432500D02*
X320048750Y-205432500D01*
X317808750Y-205552500D02*
X320048750Y-205552500D01*
X317808750Y-205672500D02*
X320048750Y-205672500D01*
X317808750Y-206272500D02*
X320048750Y-206272500D01*
X318928750Y-202032500D02*
X318928750Y-201382500D01*
X318928750Y-206272500D02*
X318928750Y-206922500D01*
X320048750Y-202032500D02*
X317808750Y-202032500D01*
X320048750Y-206272500D02*
X320048750Y-202032500D01*
G04 #@! TO.C,D9*
X165408750Y-168695000D02*
X165408750Y-172935000D01*
X165408750Y-172095000D02*
X167648750Y-172095000D01*
X165408750Y-172215000D02*
X167648750Y-172215000D01*
X165408750Y-172335000D02*
X167648750Y-172335000D01*
X165408750Y-172935000D02*
X167648750Y-172935000D01*
X166528750Y-168695000D02*
X166528750Y-168045000D01*
X166528750Y-172935000D02*
X166528750Y-173585000D01*
X167648750Y-168695000D02*
X165408750Y-168695000D01*
X167648750Y-172935000D02*
X167648750Y-168695000D01*
G04 #@! TD*
%LPC*%
D14*
G04 #@! TO.C,SW9*
X151923750Y-171767500D03*
D15*
X157003750Y-171767500D03*
D14*
X162083750Y-171767500D03*
D16*
X153193750Y-169227500D03*
X159543750Y-166687500D03*
G04 #@! TD*
D14*
G04 #@! TO.C,SW17*
X90011250Y-214630000D03*
D15*
X95091250Y-214630000D03*
D14*
X100171250Y-214630000D03*
D16*
X91281250Y-212090000D03*
X97631250Y-209550000D03*
G04 #@! TD*
D14*
G04 #@! TO.C,SW8*
X361473750Y-205105000D03*
D15*
X366553750Y-205105000D03*
D14*
X371633750Y-205105000D03*
D16*
X362743750Y-202565000D03*
X369093750Y-200025000D03*
G04 #@! TD*
D17*
G04 #@! TO.C,REF\u002A\u002A*
X339898750Y-220780000D03*
D18*
X355108750Y-220780000D03*
D17*
X339898750Y-182680000D03*
D18*
X355108750Y-182680000D03*
G04 #@! TD*
D17*
G04 #@! TO.C,REF\u002A\u002A*
X320848750Y-187442500D03*
D18*
X336058750Y-187442500D03*
D17*
X320848750Y-149342500D03*
D18*
X336058750Y-149342500D03*
G04 #@! TD*
D17*
G04 #@! TO.C,REF\u002A\u002A*
X168448750Y-220780000D03*
D18*
X183658750Y-220780000D03*
D17*
X168448750Y-182680000D03*
D18*
X183658750Y-182680000D03*
G04 #@! TD*
D14*
G04 #@! TO.C,SW2*
X170973750Y-205105000D03*
D15*
X176053750Y-205105000D03*
D14*
X181133750Y-205105000D03*
D16*
X172243750Y-202565000D03*
X178593750Y-200025000D03*
G04 #@! TD*
D14*
G04 #@! TO.C,SW13*
X323373750Y-171767500D03*
D15*
X328453750Y-171767500D03*
D14*
X333533750Y-171767500D03*
D16*
X324643750Y-169227500D03*
X330993750Y-166687500D03*
G04 #@! TD*
D14*
G04 #@! TO.C,SW10*
X190023750Y-171767500D03*
D15*
X195103750Y-171767500D03*
D14*
X200183750Y-171767500D03*
D16*
X191293750Y-169227500D03*
X197643750Y-166687500D03*
G04 #@! TD*
D17*
G04 #@! TO.C,REF\u002A\u002A*
X301798750Y-220780000D03*
D18*
X317008750Y-220780000D03*
D17*
X301798750Y-182680000D03*
D18*
X317008750Y-182680000D03*
G04 #@! TD*
D17*
G04 #@! TO.C,REF\u002A\u002A*
X263698750Y-220780000D03*
D18*
X278908750Y-220780000D03*
D17*
X263698750Y-182680000D03*
D18*
X278908750Y-182680000D03*
G04 #@! TD*
D14*
G04 #@! TO.C,SW16*
X70961250Y-214630000D03*
D15*
X76041250Y-214630000D03*
D14*
X81121250Y-214630000D03*
D16*
X72231250Y-212090000D03*
X78581250Y-209550000D03*
G04 #@! TD*
D14*
G04 #@! TO.C,SW15*
X90011250Y-195580000D03*
D15*
X95091250Y-195580000D03*
D14*
X100171250Y-195580000D03*
D16*
X91281250Y-193040000D03*
X97631250Y-190500000D03*
G04 #@! TD*
D14*
G04 #@! TO.C,SW12*
X285273750Y-171767500D03*
D15*
X290353750Y-171767500D03*
D14*
X295433750Y-171767500D03*
D16*
X286543750Y-169227500D03*
X292893750Y-166687500D03*
G04 #@! TD*
D17*
G04 #@! TO.C,REF\u002A\u002A*
X149398750Y-187442500D03*
D18*
X164608750Y-187442500D03*
D17*
X149398750Y-149342500D03*
D18*
X164608750Y-149342500D03*
G04 #@! TD*
D14*
G04 #@! TO.C,SW3*
X209073750Y-205105000D03*
D15*
X214153750Y-205105000D03*
D14*
X219233750Y-205105000D03*
D16*
X210343750Y-202565000D03*
X216693750Y-200025000D03*
G04 #@! TD*
D14*
G04 #@! TO.C,SW7*
X342423750Y-205105000D03*
D15*
X347503750Y-205105000D03*
D14*
X352583750Y-205105000D03*
D16*
X343693750Y-202565000D03*
X350043750Y-200025000D03*
G04 #@! TD*
D17*
G04 #@! TO.C,REF\u002A\u002A*
X187498750Y-187442500D03*
D18*
X202708750Y-187442500D03*
D17*
X187498750Y-149342500D03*
D18*
X202708750Y-149342500D03*
G04 #@! TD*
D17*
G04 #@! TO.C,REF\u002A\u002A*
X206548750Y-220780000D03*
D18*
X221758750Y-220780000D03*
D17*
X206548750Y-182680000D03*
D18*
X221758750Y-182680000D03*
G04 #@! TD*
D17*
G04 #@! TO.C,REF\u002A\u002A*
X244648750Y-187442500D03*
D18*
X259858750Y-187442500D03*
D17*
X244648750Y-149342500D03*
D18*
X259858750Y-149342500D03*
G04 #@! TD*
D14*
G04 #@! TO.C,SW1*
X132873750Y-205105000D03*
D15*
X137953750Y-205105000D03*
D14*
X143033750Y-205105000D03*
D16*
X134143750Y-202565000D03*
X140493750Y-200025000D03*
G04 #@! TD*
D14*
G04 #@! TO.C,SW4*
X228123750Y-205105000D03*
D15*
X233203750Y-205105000D03*
D14*
X238283750Y-205105000D03*
D16*
X229393750Y-202565000D03*
X235743750Y-200025000D03*
G04 #@! TD*
D17*
G04 #@! TO.C,REF\u002A\u002A*
X358948750Y-220780000D03*
D18*
X374158750Y-220780000D03*
D17*
X358948750Y-182680000D03*
D18*
X374158750Y-182680000D03*
G04 #@! TD*
D17*
G04 #@! TO.C,REF\u002A\u002A*
X225598750Y-220780000D03*
D18*
X240808750Y-220780000D03*
D17*
X225598750Y-182680000D03*
D18*
X240808750Y-182680000D03*
G04 #@! TD*
D17*
G04 #@! TO.C,REF\u002A\u002A*
X282748750Y-187442500D03*
D18*
X297958750Y-187442500D03*
D17*
X282748750Y-149342500D03*
D18*
X297958750Y-149342500D03*
G04 #@! TD*
D17*
G04 #@! TO.C,REF\u002A\u002A*
X130348750Y-220780000D03*
D18*
X145558750Y-220780000D03*
D17*
X130348750Y-182680000D03*
D18*
X145558750Y-182680000D03*
G04 #@! TD*
D14*
G04 #@! TO.C,SW6*
X304323750Y-205105000D03*
D15*
X309403750Y-205105000D03*
D14*
X314483750Y-205105000D03*
D16*
X305593750Y-202565000D03*
X311943750Y-200025000D03*
G04 #@! TD*
D14*
G04 #@! TO.C,SW5*
X266223750Y-205105000D03*
D15*
X271303750Y-205105000D03*
D14*
X276383750Y-205105000D03*
D16*
X267493750Y-202565000D03*
X273843750Y-200025000D03*
G04 #@! TD*
D14*
G04 #@! TO.C,SW14*
X70961250Y-195580000D03*
D15*
X76041250Y-195580000D03*
D14*
X81121250Y-195580000D03*
D16*
X72231250Y-193040000D03*
X78581250Y-190500000D03*
G04 #@! TD*
D14*
G04 #@! TO.C,SW11*
X247173750Y-171767500D03*
D15*
X252253750Y-171767500D03*
D14*
X257333750Y-171767500D03*
D16*
X248443750Y-169227500D03*
X254793750Y-166687500D03*
G04 #@! TD*
D19*
G04 #@! TO.C,D17*
X104616250Y-217487500D03*
D20*
X104616250Y-209867500D03*
G04 #@! TD*
D19*
G04 #@! TO.C,D11*
X261778750Y-174625000D03*
D20*
X261778750Y-167005000D03*
G04 #@! TD*
D19*
G04 #@! TO.C,D4*
X242728750Y-207962500D03*
D20*
X242728750Y-200342500D03*
G04 #@! TD*
D19*
G04 #@! TO.C,D10*
X204628750Y-174625000D03*
D20*
X204628750Y-167005000D03*
G04 #@! TD*
D19*
G04 #@! TO.C,D14*
X85566250Y-198437500D03*
D20*
X85566250Y-190817500D03*
G04 #@! TD*
D19*
G04 #@! TO.C,D8*
X376078750Y-207962500D03*
D20*
X376078750Y-200342500D03*
G04 #@! TD*
D19*
G04 #@! TO.C,D15*
X104616250Y-198437500D03*
D20*
X104616250Y-190817500D03*
G04 #@! TD*
D19*
G04 #@! TO.C,D2*
X185578750Y-207962500D03*
D20*
X185578750Y-200342500D03*
G04 #@! TD*
D19*
G04 #@! TO.C,D3*
X223678750Y-207962500D03*
D20*
X223678750Y-200342500D03*
G04 #@! TD*
D19*
G04 #@! TO.C,D12*
X299878750Y-174625000D03*
D20*
X299878750Y-167005000D03*
G04 #@! TD*
D21*
G04 #@! TO.C,U2*
X93186250Y-180500000D03*
D22*
X90646250Y-180500000D03*
X88106250Y-180500000D03*
X85566250Y-180500000D03*
X83026250Y-180500000D03*
X80486250Y-180500000D03*
X77946250Y-180500000D03*
X77946250Y-172560000D03*
X80486250Y-172560000D03*
X83026250Y-172560000D03*
X85566250Y-172560000D03*
X88106250Y-172560000D03*
X90646250Y-172560000D03*
X93186250Y-172560000D03*
G04 #@! TD*
D19*
G04 #@! TO.C,D1*
X147478750Y-207962500D03*
D20*
X147478750Y-200342500D03*
G04 #@! TD*
D19*
G04 #@! TO.C,D7*
X357028750Y-207962500D03*
D20*
X357028750Y-200342500D03*
G04 #@! TD*
D23*
G04 #@! TO.C,U1*
X54696250Y-147797500D03*
D24*
X54696250Y-146897500D03*
D23*
X57236250Y-147797500D03*
D24*
X57236250Y-146897500D03*
D25*
X59776250Y-147797500D03*
D24*
X59776250Y-146897500D03*
D23*
X62316250Y-147797500D03*
D24*
X62316250Y-146897500D03*
D23*
X64856250Y-147797500D03*
D24*
X64856250Y-146897500D03*
D23*
X67396250Y-147797500D03*
D24*
X67396250Y-146897500D03*
D23*
X69936250Y-147797500D03*
D24*
X69936250Y-146897500D03*
D25*
X72476250Y-147797500D03*
D24*
X72476250Y-146897500D03*
D23*
X75016250Y-147797500D03*
D24*
X75016250Y-146897500D03*
D23*
X77556250Y-147797500D03*
D24*
X77556250Y-146897500D03*
D23*
X80096250Y-147797500D03*
D24*
X80096250Y-146897500D03*
D23*
X82636250Y-147797500D03*
D24*
X82636250Y-146897500D03*
D25*
X85176250Y-147797500D03*
D24*
X85176250Y-146897500D03*
D23*
X87716250Y-147797500D03*
D24*
X87716250Y-146897500D03*
D23*
X90256250Y-147797500D03*
D24*
X90256250Y-146897500D03*
D23*
X92796250Y-147797500D03*
D24*
X92796250Y-146897500D03*
D23*
X95336250Y-147797500D03*
D24*
X95336250Y-146897500D03*
D25*
X97876250Y-147797500D03*
D24*
X97876250Y-146897500D03*
D23*
X100416250Y-147797500D03*
D24*
X100416250Y-146897500D03*
D23*
X102956250Y-147797500D03*
D24*
X102956250Y-146897500D03*
D23*
X102956250Y-165577500D03*
D24*
X102956250Y-166477500D03*
D23*
X100416250Y-165577500D03*
D24*
X100416250Y-166477500D03*
D25*
X97876250Y-165577500D03*
D24*
X97876250Y-166477500D03*
D23*
X95336250Y-165577500D03*
D24*
X95336250Y-166477500D03*
D23*
X92796250Y-165577500D03*
D24*
X92796250Y-166477500D03*
D23*
X90256250Y-165577500D03*
D24*
X90256250Y-166477500D03*
D23*
X87716250Y-165577500D03*
D24*
X87716250Y-166477500D03*
D25*
X85176250Y-165577500D03*
D24*
X85176250Y-166477500D03*
D23*
X82636250Y-165577500D03*
D24*
X82636250Y-166477500D03*
D23*
X80096250Y-165577500D03*
D24*
X80096250Y-166477500D03*
D23*
X77556250Y-165577500D03*
D24*
X77556250Y-166477500D03*
D23*
X75016250Y-165577500D03*
D24*
X75016250Y-166477500D03*
D25*
X72476250Y-165577500D03*
D24*
X72476250Y-166477500D03*
D23*
X69936250Y-165577500D03*
D24*
X69936250Y-166477500D03*
D23*
X67396250Y-165577500D03*
D24*
X67396250Y-166477500D03*
D23*
X64856250Y-165577500D03*
D24*
X64856250Y-166477500D03*
D23*
X62316250Y-165577500D03*
D24*
X62316250Y-166477500D03*
D25*
X59776250Y-165577500D03*
D24*
X59776250Y-166477500D03*
D23*
X57236250Y-165577500D03*
D24*
X57236250Y-166477500D03*
D23*
X54696250Y-165577500D03*
D24*
X54696250Y-166477500D03*
D23*
X102726250Y-154147500D03*
D26*
X103626250Y-154147500D03*
D25*
X102726250Y-156687500D03*
D26*
X103626250Y-156687500D03*
D23*
X102726250Y-159227500D03*
D26*
X103626250Y-159227500D03*
G04 #@! TD*
D19*
G04 #@! TO.C,D13*
X337978750Y-174625000D03*
D20*
X337978750Y-167005000D03*
G04 #@! TD*
D19*
G04 #@! TO.C,D5*
X280828750Y-207962500D03*
D20*
X280828750Y-200342500D03*
G04 #@! TD*
D19*
G04 #@! TO.C,D16*
X85566250Y-217487500D03*
D20*
X85566250Y-209867500D03*
G04 #@! TD*
D19*
G04 #@! TO.C,D6*
X318928750Y-207962500D03*
D20*
X318928750Y-200342500D03*
G04 #@! TD*
D19*
G04 #@! TO.C,D9*
X166528750Y-174625000D03*
D20*
X166528750Y-167005000D03*
G04 #@! TD*
%LPD*%
M02*
