G04 #@! TF.GenerationSoftware,KiCad,Pcbnew,8.0.3*
G04 #@! TF.CreationDate,2024-07-07T23:06:26-07:00*
G04 #@! TF.ProjectId,melokey,6d656c6f-6b65-4792-9e6b-696361645f70,rev?*
G04 #@! TF.SameCoordinates,Original*
G04 #@! TF.FileFunction,AssemblyDrawing,Bot*
%FSLAX46Y46*%
G04 Gerber Fmt 4.6, Leading zero omitted, Abs format (unit mm)*
G04 Created by KiCad (PCBNEW 8.0.3) date 2024-07-07 23:06:26*
%MOMM*%
%LPD*%
G01*
G04 APERTURE LIST*
%ADD10C,0.150000*%
%ADD11C,0.120000*%
%ADD12C,0.100000*%
G04 APERTURE END LIST*
D10*
X109936069Y-213123392D02*
X109936069Y-212551964D01*
X109936069Y-212837678D02*
X108936069Y-212837678D01*
X108936069Y-212837678D02*
X109078926Y-212742440D01*
X109078926Y-212742440D02*
X109174164Y-212647202D01*
X109174164Y-212647202D02*
X109221783Y-212551964D01*
X109936069Y-213551964D02*
X108936069Y-213551964D01*
X108936069Y-213551964D02*
X109936069Y-214123392D01*
X109936069Y-214123392D02*
X108936069Y-214123392D01*
X109269402Y-215028154D02*
X109936069Y-215028154D01*
X108888450Y-214790059D02*
X109602735Y-214551964D01*
X109602735Y-214551964D02*
X109602735Y-215171011D01*
X109936069Y-216075773D02*
X109936069Y-215504345D01*
X109936069Y-215790059D02*
X108936069Y-215790059D01*
X108936069Y-215790059D02*
X109078926Y-215694821D01*
X109078926Y-215694821D02*
X109174164Y-215599583D01*
X109174164Y-215599583D02*
X109221783Y-215504345D01*
X109269402Y-216932916D02*
X109936069Y-216932916D01*
X108888450Y-216694821D02*
X109602735Y-216456726D01*
X109602735Y-216456726D02*
X109602735Y-217075773D01*
X109364640Y-217599583D02*
X109317021Y-217504345D01*
X109317021Y-217504345D02*
X109269402Y-217456726D01*
X109269402Y-217456726D02*
X109174164Y-217409107D01*
X109174164Y-217409107D02*
X109126545Y-217409107D01*
X109126545Y-217409107D02*
X109031307Y-217456726D01*
X109031307Y-217456726D02*
X108983688Y-217504345D01*
X108983688Y-217504345D02*
X108936069Y-217599583D01*
X108936069Y-217599583D02*
X108936069Y-217790059D01*
X108936069Y-217790059D02*
X108983688Y-217885297D01*
X108983688Y-217885297D02*
X109031307Y-217932916D01*
X109031307Y-217932916D02*
X109126545Y-217980535D01*
X109126545Y-217980535D02*
X109174164Y-217980535D01*
X109174164Y-217980535D02*
X109269402Y-217932916D01*
X109269402Y-217932916D02*
X109317021Y-217885297D01*
X109317021Y-217885297D02*
X109364640Y-217790059D01*
X109364640Y-217790059D02*
X109364640Y-217599583D01*
X109364640Y-217599583D02*
X109412259Y-217504345D01*
X109412259Y-217504345D02*
X109459878Y-217456726D01*
X109459878Y-217456726D02*
X109555116Y-217409107D01*
X109555116Y-217409107D02*
X109745592Y-217409107D01*
X109745592Y-217409107D02*
X109840830Y-217456726D01*
X109840830Y-217456726D02*
X109888450Y-217504345D01*
X109888450Y-217504345D02*
X109936069Y-217599583D01*
X109936069Y-217599583D02*
X109936069Y-217790059D01*
X109936069Y-217790059D02*
X109888450Y-217885297D01*
X109888450Y-217885297D02*
X109840830Y-217932916D01*
X109840830Y-217932916D02*
X109745592Y-217980535D01*
X109745592Y-217980535D02*
X109555116Y-217980535D01*
X109555116Y-217980535D02*
X109459878Y-217932916D01*
X109459878Y-217932916D02*
X109412259Y-217885297D01*
X109412259Y-217885297D02*
X109364640Y-217790059D01*
X113856069Y-218814345D02*
X112856069Y-218814345D01*
X113856069Y-219385773D02*
X113284640Y-218957202D01*
X112856069Y-219385773D02*
X113427497Y-218814345D01*
D11*
X111965105Y-213994821D02*
X111165105Y-213994821D01*
X111165105Y-213994821D02*
X111165105Y-214185297D01*
X111165105Y-214185297D02*
X111203200Y-214299583D01*
X111203200Y-214299583D02*
X111279390Y-214375773D01*
X111279390Y-214375773D02*
X111355581Y-214413868D01*
X111355581Y-214413868D02*
X111507962Y-214451964D01*
X111507962Y-214451964D02*
X111622248Y-214451964D01*
X111622248Y-214451964D02*
X111774629Y-214413868D01*
X111774629Y-214413868D02*
X111850819Y-214375773D01*
X111850819Y-214375773D02*
X111927010Y-214299583D01*
X111927010Y-214299583D02*
X111965105Y-214185297D01*
X111965105Y-214185297D02*
X111965105Y-213994821D01*
X111965105Y-215213868D02*
X111965105Y-214756725D01*
X111965105Y-214985297D02*
X111165105Y-214985297D01*
X111165105Y-214985297D02*
X111279390Y-214909106D01*
X111279390Y-214909106D02*
X111355581Y-214832916D01*
X111355581Y-214832916D02*
X111393676Y-214756725D01*
X111165105Y-215480535D02*
X111165105Y-216013869D01*
X111165105Y-216013869D02*
X111965105Y-215671011D01*
D10*
X260113569Y-168672142D02*
X260113569Y-168100714D01*
X260113569Y-168386428D02*
X259113569Y-168386428D01*
X259113569Y-168386428D02*
X259256426Y-168291190D01*
X259256426Y-168291190D02*
X259351664Y-168195952D01*
X259351664Y-168195952D02*
X259399283Y-168100714D01*
X260113569Y-169100714D02*
X259113569Y-169100714D01*
X259113569Y-169100714D02*
X260113569Y-169672142D01*
X260113569Y-169672142D02*
X259113569Y-169672142D01*
X259446902Y-170576904D02*
X260113569Y-170576904D01*
X259065950Y-170338809D02*
X259780235Y-170100714D01*
X259780235Y-170100714D02*
X259780235Y-170719761D01*
X260113569Y-171624523D02*
X260113569Y-171053095D01*
X260113569Y-171338809D02*
X259113569Y-171338809D01*
X259113569Y-171338809D02*
X259256426Y-171243571D01*
X259256426Y-171243571D02*
X259351664Y-171148333D01*
X259351664Y-171148333D02*
X259399283Y-171053095D01*
X259446902Y-172481666D02*
X260113569Y-172481666D01*
X259065950Y-172243571D02*
X259780235Y-172005476D01*
X259780235Y-172005476D02*
X259780235Y-172624523D01*
X259542140Y-173148333D02*
X259494521Y-173053095D01*
X259494521Y-173053095D02*
X259446902Y-173005476D01*
X259446902Y-173005476D02*
X259351664Y-172957857D01*
X259351664Y-172957857D02*
X259304045Y-172957857D01*
X259304045Y-172957857D02*
X259208807Y-173005476D01*
X259208807Y-173005476D02*
X259161188Y-173053095D01*
X259161188Y-173053095D02*
X259113569Y-173148333D01*
X259113569Y-173148333D02*
X259113569Y-173338809D01*
X259113569Y-173338809D02*
X259161188Y-173434047D01*
X259161188Y-173434047D02*
X259208807Y-173481666D01*
X259208807Y-173481666D02*
X259304045Y-173529285D01*
X259304045Y-173529285D02*
X259351664Y-173529285D01*
X259351664Y-173529285D02*
X259446902Y-173481666D01*
X259446902Y-173481666D02*
X259494521Y-173434047D01*
X259494521Y-173434047D02*
X259542140Y-173338809D01*
X259542140Y-173338809D02*
X259542140Y-173148333D01*
X259542140Y-173148333D02*
X259589759Y-173053095D01*
X259589759Y-173053095D02*
X259637378Y-173005476D01*
X259637378Y-173005476D02*
X259732616Y-172957857D01*
X259732616Y-172957857D02*
X259923092Y-172957857D01*
X259923092Y-172957857D02*
X260018330Y-173005476D01*
X260018330Y-173005476D02*
X260065950Y-173053095D01*
X260065950Y-173053095D02*
X260113569Y-173148333D01*
X260113569Y-173148333D02*
X260113569Y-173338809D01*
X260113569Y-173338809D02*
X260065950Y-173434047D01*
X260065950Y-173434047D02*
X260018330Y-173481666D01*
X260018330Y-173481666D02*
X259923092Y-173529285D01*
X259923092Y-173529285D02*
X259732616Y-173529285D01*
X259732616Y-173529285D02*
X259637378Y-173481666D01*
X259637378Y-173481666D02*
X259589759Y-173434047D01*
X259589759Y-173434047D02*
X259542140Y-173338809D01*
D11*
X262142605Y-169543571D02*
X261342605Y-169543571D01*
X261342605Y-169543571D02*
X261342605Y-169734047D01*
X261342605Y-169734047D02*
X261380700Y-169848333D01*
X261380700Y-169848333D02*
X261456890Y-169924523D01*
X261456890Y-169924523D02*
X261533081Y-169962618D01*
X261533081Y-169962618D02*
X261685462Y-170000714D01*
X261685462Y-170000714D02*
X261799748Y-170000714D01*
X261799748Y-170000714D02*
X261952129Y-169962618D01*
X261952129Y-169962618D02*
X262028319Y-169924523D01*
X262028319Y-169924523D02*
X262104510Y-169848333D01*
X262104510Y-169848333D02*
X262142605Y-169734047D01*
X262142605Y-169734047D02*
X262142605Y-169543571D01*
X262142605Y-170762618D02*
X262142605Y-170305475D01*
X262142605Y-170534047D02*
X261342605Y-170534047D01*
X261342605Y-170534047D02*
X261456890Y-170457856D01*
X261456890Y-170457856D02*
X261533081Y-170381666D01*
X261533081Y-170381666D02*
X261571176Y-170305475D01*
X262142605Y-171524523D02*
X262142605Y-171067380D01*
X262142605Y-171295952D02*
X261342605Y-171295952D01*
X261342605Y-171295952D02*
X261456890Y-171219761D01*
X261456890Y-171219761D02*
X261533081Y-171143571D01*
X261533081Y-171143571D02*
X261571176Y-171067380D01*
D10*
X264033569Y-174363095D02*
X263033569Y-174363095D01*
X264033569Y-174934523D02*
X263462140Y-174505952D01*
X263033569Y-174934523D02*
X263604997Y-174363095D01*
X241063569Y-202009642D02*
X241063569Y-201438214D01*
X241063569Y-201723928D02*
X240063569Y-201723928D01*
X240063569Y-201723928D02*
X240206426Y-201628690D01*
X240206426Y-201628690D02*
X240301664Y-201533452D01*
X240301664Y-201533452D02*
X240349283Y-201438214D01*
X241063569Y-202438214D02*
X240063569Y-202438214D01*
X240063569Y-202438214D02*
X241063569Y-203009642D01*
X241063569Y-203009642D02*
X240063569Y-203009642D01*
X240396902Y-203914404D02*
X241063569Y-203914404D01*
X240015950Y-203676309D02*
X240730235Y-203438214D01*
X240730235Y-203438214D02*
X240730235Y-204057261D01*
X241063569Y-204962023D02*
X241063569Y-204390595D01*
X241063569Y-204676309D02*
X240063569Y-204676309D01*
X240063569Y-204676309D02*
X240206426Y-204581071D01*
X240206426Y-204581071D02*
X240301664Y-204485833D01*
X240301664Y-204485833D02*
X240349283Y-204390595D01*
X240396902Y-205819166D02*
X241063569Y-205819166D01*
X240015950Y-205581071D02*
X240730235Y-205342976D01*
X240730235Y-205342976D02*
X240730235Y-205962023D01*
X240492140Y-206485833D02*
X240444521Y-206390595D01*
X240444521Y-206390595D02*
X240396902Y-206342976D01*
X240396902Y-206342976D02*
X240301664Y-206295357D01*
X240301664Y-206295357D02*
X240254045Y-206295357D01*
X240254045Y-206295357D02*
X240158807Y-206342976D01*
X240158807Y-206342976D02*
X240111188Y-206390595D01*
X240111188Y-206390595D02*
X240063569Y-206485833D01*
X240063569Y-206485833D02*
X240063569Y-206676309D01*
X240063569Y-206676309D02*
X240111188Y-206771547D01*
X240111188Y-206771547D02*
X240158807Y-206819166D01*
X240158807Y-206819166D02*
X240254045Y-206866785D01*
X240254045Y-206866785D02*
X240301664Y-206866785D01*
X240301664Y-206866785D02*
X240396902Y-206819166D01*
X240396902Y-206819166D02*
X240444521Y-206771547D01*
X240444521Y-206771547D02*
X240492140Y-206676309D01*
X240492140Y-206676309D02*
X240492140Y-206485833D01*
X240492140Y-206485833D02*
X240539759Y-206390595D01*
X240539759Y-206390595D02*
X240587378Y-206342976D01*
X240587378Y-206342976D02*
X240682616Y-206295357D01*
X240682616Y-206295357D02*
X240873092Y-206295357D01*
X240873092Y-206295357D02*
X240968330Y-206342976D01*
X240968330Y-206342976D02*
X241015950Y-206390595D01*
X241015950Y-206390595D02*
X241063569Y-206485833D01*
X241063569Y-206485833D02*
X241063569Y-206676309D01*
X241063569Y-206676309D02*
X241015950Y-206771547D01*
X241015950Y-206771547D02*
X240968330Y-206819166D01*
X240968330Y-206819166D02*
X240873092Y-206866785D01*
X240873092Y-206866785D02*
X240682616Y-206866785D01*
X240682616Y-206866785D02*
X240587378Y-206819166D01*
X240587378Y-206819166D02*
X240539759Y-206771547D01*
X240539759Y-206771547D02*
X240492140Y-206676309D01*
X244983569Y-207700595D02*
X243983569Y-207700595D01*
X244983569Y-208272023D02*
X244412140Y-207843452D01*
X243983569Y-208272023D02*
X244554997Y-207700595D01*
D11*
X243092605Y-203262024D02*
X242292605Y-203262024D01*
X242292605Y-203262024D02*
X242292605Y-203452500D01*
X242292605Y-203452500D02*
X242330700Y-203566786D01*
X242330700Y-203566786D02*
X242406890Y-203642976D01*
X242406890Y-203642976D02*
X242483081Y-203681071D01*
X242483081Y-203681071D02*
X242635462Y-203719167D01*
X242635462Y-203719167D02*
X242749748Y-203719167D01*
X242749748Y-203719167D02*
X242902129Y-203681071D01*
X242902129Y-203681071D02*
X242978319Y-203642976D01*
X242978319Y-203642976D02*
X243054510Y-203566786D01*
X243054510Y-203566786D02*
X243092605Y-203452500D01*
X243092605Y-203452500D02*
X243092605Y-203262024D01*
X242559271Y-204404881D02*
X243092605Y-204404881D01*
X242254510Y-204214405D02*
X242825938Y-204023928D01*
X242825938Y-204023928D02*
X242825938Y-204519167D01*
D10*
X202963569Y-168672142D02*
X202963569Y-168100714D01*
X202963569Y-168386428D02*
X201963569Y-168386428D01*
X201963569Y-168386428D02*
X202106426Y-168291190D01*
X202106426Y-168291190D02*
X202201664Y-168195952D01*
X202201664Y-168195952D02*
X202249283Y-168100714D01*
X202963569Y-169100714D02*
X201963569Y-169100714D01*
X201963569Y-169100714D02*
X202963569Y-169672142D01*
X202963569Y-169672142D02*
X201963569Y-169672142D01*
X202296902Y-170576904D02*
X202963569Y-170576904D01*
X201915950Y-170338809D02*
X202630235Y-170100714D01*
X202630235Y-170100714D02*
X202630235Y-170719761D01*
X202963569Y-171624523D02*
X202963569Y-171053095D01*
X202963569Y-171338809D02*
X201963569Y-171338809D01*
X201963569Y-171338809D02*
X202106426Y-171243571D01*
X202106426Y-171243571D02*
X202201664Y-171148333D01*
X202201664Y-171148333D02*
X202249283Y-171053095D01*
X202296902Y-172481666D02*
X202963569Y-172481666D01*
X201915950Y-172243571D02*
X202630235Y-172005476D01*
X202630235Y-172005476D02*
X202630235Y-172624523D01*
X202392140Y-173148333D02*
X202344521Y-173053095D01*
X202344521Y-173053095D02*
X202296902Y-173005476D01*
X202296902Y-173005476D02*
X202201664Y-172957857D01*
X202201664Y-172957857D02*
X202154045Y-172957857D01*
X202154045Y-172957857D02*
X202058807Y-173005476D01*
X202058807Y-173005476D02*
X202011188Y-173053095D01*
X202011188Y-173053095D02*
X201963569Y-173148333D01*
X201963569Y-173148333D02*
X201963569Y-173338809D01*
X201963569Y-173338809D02*
X202011188Y-173434047D01*
X202011188Y-173434047D02*
X202058807Y-173481666D01*
X202058807Y-173481666D02*
X202154045Y-173529285D01*
X202154045Y-173529285D02*
X202201664Y-173529285D01*
X202201664Y-173529285D02*
X202296902Y-173481666D01*
X202296902Y-173481666D02*
X202344521Y-173434047D01*
X202344521Y-173434047D02*
X202392140Y-173338809D01*
X202392140Y-173338809D02*
X202392140Y-173148333D01*
X202392140Y-173148333D02*
X202439759Y-173053095D01*
X202439759Y-173053095D02*
X202487378Y-173005476D01*
X202487378Y-173005476D02*
X202582616Y-172957857D01*
X202582616Y-172957857D02*
X202773092Y-172957857D01*
X202773092Y-172957857D02*
X202868330Y-173005476D01*
X202868330Y-173005476D02*
X202915950Y-173053095D01*
X202915950Y-173053095D02*
X202963569Y-173148333D01*
X202963569Y-173148333D02*
X202963569Y-173338809D01*
X202963569Y-173338809D02*
X202915950Y-173434047D01*
X202915950Y-173434047D02*
X202868330Y-173481666D01*
X202868330Y-173481666D02*
X202773092Y-173529285D01*
X202773092Y-173529285D02*
X202582616Y-173529285D01*
X202582616Y-173529285D02*
X202487378Y-173481666D01*
X202487378Y-173481666D02*
X202439759Y-173434047D01*
X202439759Y-173434047D02*
X202392140Y-173338809D01*
X206883569Y-174363095D02*
X205883569Y-174363095D01*
X206883569Y-174934523D02*
X206312140Y-174505952D01*
X205883569Y-174934523D02*
X206454997Y-174363095D01*
D11*
X204992605Y-169543571D02*
X204192605Y-169543571D01*
X204192605Y-169543571D02*
X204192605Y-169734047D01*
X204192605Y-169734047D02*
X204230700Y-169848333D01*
X204230700Y-169848333D02*
X204306890Y-169924523D01*
X204306890Y-169924523D02*
X204383081Y-169962618D01*
X204383081Y-169962618D02*
X204535462Y-170000714D01*
X204535462Y-170000714D02*
X204649748Y-170000714D01*
X204649748Y-170000714D02*
X204802129Y-169962618D01*
X204802129Y-169962618D02*
X204878319Y-169924523D01*
X204878319Y-169924523D02*
X204954510Y-169848333D01*
X204954510Y-169848333D02*
X204992605Y-169734047D01*
X204992605Y-169734047D02*
X204992605Y-169543571D01*
X204992605Y-170762618D02*
X204992605Y-170305475D01*
X204992605Y-170534047D02*
X204192605Y-170534047D01*
X204192605Y-170534047D02*
X204306890Y-170457856D01*
X204306890Y-170457856D02*
X204383081Y-170381666D01*
X204383081Y-170381666D02*
X204421176Y-170305475D01*
X204192605Y-171257857D02*
X204192605Y-171334047D01*
X204192605Y-171334047D02*
X204230700Y-171410238D01*
X204230700Y-171410238D02*
X204268795Y-171448333D01*
X204268795Y-171448333D02*
X204344986Y-171486428D01*
X204344986Y-171486428D02*
X204497367Y-171524523D01*
X204497367Y-171524523D02*
X204687843Y-171524523D01*
X204687843Y-171524523D02*
X204840224Y-171486428D01*
X204840224Y-171486428D02*
X204916414Y-171448333D01*
X204916414Y-171448333D02*
X204954510Y-171410238D01*
X204954510Y-171410238D02*
X204992605Y-171334047D01*
X204992605Y-171334047D02*
X204992605Y-171257857D01*
X204992605Y-171257857D02*
X204954510Y-171181666D01*
X204954510Y-171181666D02*
X204916414Y-171143571D01*
X204916414Y-171143571D02*
X204840224Y-171105476D01*
X204840224Y-171105476D02*
X204687843Y-171067380D01*
X204687843Y-171067380D02*
X204497367Y-171067380D01*
X204497367Y-171067380D02*
X204344986Y-171105476D01*
X204344986Y-171105476D02*
X204268795Y-171143571D01*
X204268795Y-171143571D02*
X204230700Y-171181666D01*
X204230700Y-171181666D02*
X204192605Y-171257857D01*
D10*
X90886069Y-194073392D02*
X90886069Y-193501964D01*
X90886069Y-193787678D02*
X89886069Y-193787678D01*
X89886069Y-193787678D02*
X90028926Y-193692440D01*
X90028926Y-193692440D02*
X90124164Y-193597202D01*
X90124164Y-193597202D02*
X90171783Y-193501964D01*
X90886069Y-194501964D02*
X89886069Y-194501964D01*
X89886069Y-194501964D02*
X90886069Y-195073392D01*
X90886069Y-195073392D02*
X89886069Y-195073392D01*
X90219402Y-195978154D02*
X90886069Y-195978154D01*
X89838450Y-195740059D02*
X90552735Y-195501964D01*
X90552735Y-195501964D02*
X90552735Y-196121011D01*
X90886069Y-197025773D02*
X90886069Y-196454345D01*
X90886069Y-196740059D02*
X89886069Y-196740059D01*
X89886069Y-196740059D02*
X90028926Y-196644821D01*
X90028926Y-196644821D02*
X90124164Y-196549583D01*
X90124164Y-196549583D02*
X90171783Y-196454345D01*
X90219402Y-197882916D02*
X90886069Y-197882916D01*
X89838450Y-197644821D02*
X90552735Y-197406726D01*
X90552735Y-197406726D02*
X90552735Y-198025773D01*
X90314640Y-198549583D02*
X90267021Y-198454345D01*
X90267021Y-198454345D02*
X90219402Y-198406726D01*
X90219402Y-198406726D02*
X90124164Y-198359107D01*
X90124164Y-198359107D02*
X90076545Y-198359107D01*
X90076545Y-198359107D02*
X89981307Y-198406726D01*
X89981307Y-198406726D02*
X89933688Y-198454345D01*
X89933688Y-198454345D02*
X89886069Y-198549583D01*
X89886069Y-198549583D02*
X89886069Y-198740059D01*
X89886069Y-198740059D02*
X89933688Y-198835297D01*
X89933688Y-198835297D02*
X89981307Y-198882916D01*
X89981307Y-198882916D02*
X90076545Y-198930535D01*
X90076545Y-198930535D02*
X90124164Y-198930535D01*
X90124164Y-198930535D02*
X90219402Y-198882916D01*
X90219402Y-198882916D02*
X90267021Y-198835297D01*
X90267021Y-198835297D02*
X90314640Y-198740059D01*
X90314640Y-198740059D02*
X90314640Y-198549583D01*
X90314640Y-198549583D02*
X90362259Y-198454345D01*
X90362259Y-198454345D02*
X90409878Y-198406726D01*
X90409878Y-198406726D02*
X90505116Y-198359107D01*
X90505116Y-198359107D02*
X90695592Y-198359107D01*
X90695592Y-198359107D02*
X90790830Y-198406726D01*
X90790830Y-198406726D02*
X90838450Y-198454345D01*
X90838450Y-198454345D02*
X90886069Y-198549583D01*
X90886069Y-198549583D02*
X90886069Y-198740059D01*
X90886069Y-198740059D02*
X90838450Y-198835297D01*
X90838450Y-198835297D02*
X90790830Y-198882916D01*
X90790830Y-198882916D02*
X90695592Y-198930535D01*
X90695592Y-198930535D02*
X90505116Y-198930535D01*
X90505116Y-198930535D02*
X90409878Y-198882916D01*
X90409878Y-198882916D02*
X90362259Y-198835297D01*
X90362259Y-198835297D02*
X90314640Y-198740059D01*
D11*
X92915105Y-194944821D02*
X92115105Y-194944821D01*
X92115105Y-194944821D02*
X92115105Y-195135297D01*
X92115105Y-195135297D02*
X92153200Y-195249583D01*
X92153200Y-195249583D02*
X92229390Y-195325773D01*
X92229390Y-195325773D02*
X92305581Y-195363868D01*
X92305581Y-195363868D02*
X92457962Y-195401964D01*
X92457962Y-195401964D02*
X92572248Y-195401964D01*
X92572248Y-195401964D02*
X92724629Y-195363868D01*
X92724629Y-195363868D02*
X92800819Y-195325773D01*
X92800819Y-195325773D02*
X92877010Y-195249583D01*
X92877010Y-195249583D02*
X92915105Y-195135297D01*
X92915105Y-195135297D02*
X92915105Y-194944821D01*
X92915105Y-196163868D02*
X92915105Y-195706725D01*
X92915105Y-195935297D02*
X92115105Y-195935297D01*
X92115105Y-195935297D02*
X92229390Y-195859106D01*
X92229390Y-195859106D02*
X92305581Y-195782916D01*
X92305581Y-195782916D02*
X92343676Y-195706725D01*
X92381771Y-196849583D02*
X92915105Y-196849583D01*
X92077010Y-196659107D02*
X92648438Y-196468630D01*
X92648438Y-196468630D02*
X92648438Y-196963869D01*
D10*
X94806069Y-199764345D02*
X93806069Y-199764345D01*
X94806069Y-200335773D02*
X94234640Y-199907202D01*
X93806069Y-200335773D02*
X94377497Y-199764345D01*
X374413569Y-202009642D02*
X374413569Y-201438214D01*
X374413569Y-201723928D02*
X373413569Y-201723928D01*
X373413569Y-201723928D02*
X373556426Y-201628690D01*
X373556426Y-201628690D02*
X373651664Y-201533452D01*
X373651664Y-201533452D02*
X373699283Y-201438214D01*
X374413569Y-202438214D02*
X373413569Y-202438214D01*
X373413569Y-202438214D02*
X374413569Y-203009642D01*
X374413569Y-203009642D02*
X373413569Y-203009642D01*
X373746902Y-203914404D02*
X374413569Y-203914404D01*
X373365950Y-203676309D02*
X374080235Y-203438214D01*
X374080235Y-203438214D02*
X374080235Y-204057261D01*
X374413569Y-204962023D02*
X374413569Y-204390595D01*
X374413569Y-204676309D02*
X373413569Y-204676309D01*
X373413569Y-204676309D02*
X373556426Y-204581071D01*
X373556426Y-204581071D02*
X373651664Y-204485833D01*
X373651664Y-204485833D02*
X373699283Y-204390595D01*
X373746902Y-205819166D02*
X374413569Y-205819166D01*
X373365950Y-205581071D02*
X374080235Y-205342976D01*
X374080235Y-205342976D02*
X374080235Y-205962023D01*
X373842140Y-206485833D02*
X373794521Y-206390595D01*
X373794521Y-206390595D02*
X373746902Y-206342976D01*
X373746902Y-206342976D02*
X373651664Y-206295357D01*
X373651664Y-206295357D02*
X373604045Y-206295357D01*
X373604045Y-206295357D02*
X373508807Y-206342976D01*
X373508807Y-206342976D02*
X373461188Y-206390595D01*
X373461188Y-206390595D02*
X373413569Y-206485833D01*
X373413569Y-206485833D02*
X373413569Y-206676309D01*
X373413569Y-206676309D02*
X373461188Y-206771547D01*
X373461188Y-206771547D02*
X373508807Y-206819166D01*
X373508807Y-206819166D02*
X373604045Y-206866785D01*
X373604045Y-206866785D02*
X373651664Y-206866785D01*
X373651664Y-206866785D02*
X373746902Y-206819166D01*
X373746902Y-206819166D02*
X373794521Y-206771547D01*
X373794521Y-206771547D02*
X373842140Y-206676309D01*
X373842140Y-206676309D02*
X373842140Y-206485833D01*
X373842140Y-206485833D02*
X373889759Y-206390595D01*
X373889759Y-206390595D02*
X373937378Y-206342976D01*
X373937378Y-206342976D02*
X374032616Y-206295357D01*
X374032616Y-206295357D02*
X374223092Y-206295357D01*
X374223092Y-206295357D02*
X374318330Y-206342976D01*
X374318330Y-206342976D02*
X374365950Y-206390595D01*
X374365950Y-206390595D02*
X374413569Y-206485833D01*
X374413569Y-206485833D02*
X374413569Y-206676309D01*
X374413569Y-206676309D02*
X374365950Y-206771547D01*
X374365950Y-206771547D02*
X374318330Y-206819166D01*
X374318330Y-206819166D02*
X374223092Y-206866785D01*
X374223092Y-206866785D02*
X374032616Y-206866785D01*
X374032616Y-206866785D02*
X373937378Y-206819166D01*
X373937378Y-206819166D02*
X373889759Y-206771547D01*
X373889759Y-206771547D02*
X373842140Y-206676309D01*
X378333569Y-207700595D02*
X377333569Y-207700595D01*
X378333569Y-208272023D02*
X377762140Y-207843452D01*
X377333569Y-208272023D02*
X377904997Y-207700595D01*
D11*
X376442605Y-203262024D02*
X375642605Y-203262024D01*
X375642605Y-203262024D02*
X375642605Y-203452500D01*
X375642605Y-203452500D02*
X375680700Y-203566786D01*
X375680700Y-203566786D02*
X375756890Y-203642976D01*
X375756890Y-203642976D02*
X375833081Y-203681071D01*
X375833081Y-203681071D02*
X375985462Y-203719167D01*
X375985462Y-203719167D02*
X376099748Y-203719167D01*
X376099748Y-203719167D02*
X376252129Y-203681071D01*
X376252129Y-203681071D02*
X376328319Y-203642976D01*
X376328319Y-203642976D02*
X376404510Y-203566786D01*
X376404510Y-203566786D02*
X376442605Y-203452500D01*
X376442605Y-203452500D02*
X376442605Y-203262024D01*
X375985462Y-204176309D02*
X375947367Y-204100119D01*
X375947367Y-204100119D02*
X375909271Y-204062024D01*
X375909271Y-204062024D02*
X375833081Y-204023928D01*
X375833081Y-204023928D02*
X375794986Y-204023928D01*
X375794986Y-204023928D02*
X375718795Y-204062024D01*
X375718795Y-204062024D02*
X375680700Y-204100119D01*
X375680700Y-204100119D02*
X375642605Y-204176309D01*
X375642605Y-204176309D02*
X375642605Y-204328690D01*
X375642605Y-204328690D02*
X375680700Y-204404881D01*
X375680700Y-204404881D02*
X375718795Y-204442976D01*
X375718795Y-204442976D02*
X375794986Y-204481071D01*
X375794986Y-204481071D02*
X375833081Y-204481071D01*
X375833081Y-204481071D02*
X375909271Y-204442976D01*
X375909271Y-204442976D02*
X375947367Y-204404881D01*
X375947367Y-204404881D02*
X375985462Y-204328690D01*
X375985462Y-204328690D02*
X375985462Y-204176309D01*
X375985462Y-204176309D02*
X376023557Y-204100119D01*
X376023557Y-204100119D02*
X376061652Y-204062024D01*
X376061652Y-204062024D02*
X376137843Y-204023928D01*
X376137843Y-204023928D02*
X376290224Y-204023928D01*
X376290224Y-204023928D02*
X376366414Y-204062024D01*
X376366414Y-204062024D02*
X376404510Y-204100119D01*
X376404510Y-204100119D02*
X376442605Y-204176309D01*
X376442605Y-204176309D02*
X376442605Y-204328690D01*
X376442605Y-204328690D02*
X376404510Y-204404881D01*
X376404510Y-204404881D02*
X376366414Y-204442976D01*
X376366414Y-204442976D02*
X376290224Y-204481071D01*
X376290224Y-204481071D02*
X376137843Y-204481071D01*
X376137843Y-204481071D02*
X376061652Y-204442976D01*
X376061652Y-204442976D02*
X376023557Y-204404881D01*
X376023557Y-204404881D02*
X375985462Y-204328690D01*
D10*
X109936069Y-194073392D02*
X109936069Y-193501964D01*
X109936069Y-193787678D02*
X108936069Y-193787678D01*
X108936069Y-193787678D02*
X109078926Y-193692440D01*
X109078926Y-193692440D02*
X109174164Y-193597202D01*
X109174164Y-193597202D02*
X109221783Y-193501964D01*
X109936069Y-194501964D02*
X108936069Y-194501964D01*
X108936069Y-194501964D02*
X109936069Y-195073392D01*
X109936069Y-195073392D02*
X108936069Y-195073392D01*
X109269402Y-195978154D02*
X109936069Y-195978154D01*
X108888450Y-195740059D02*
X109602735Y-195501964D01*
X109602735Y-195501964D02*
X109602735Y-196121011D01*
X109936069Y-197025773D02*
X109936069Y-196454345D01*
X109936069Y-196740059D02*
X108936069Y-196740059D01*
X108936069Y-196740059D02*
X109078926Y-196644821D01*
X109078926Y-196644821D02*
X109174164Y-196549583D01*
X109174164Y-196549583D02*
X109221783Y-196454345D01*
X109269402Y-197882916D02*
X109936069Y-197882916D01*
X108888450Y-197644821D02*
X109602735Y-197406726D01*
X109602735Y-197406726D02*
X109602735Y-198025773D01*
X109364640Y-198549583D02*
X109317021Y-198454345D01*
X109317021Y-198454345D02*
X109269402Y-198406726D01*
X109269402Y-198406726D02*
X109174164Y-198359107D01*
X109174164Y-198359107D02*
X109126545Y-198359107D01*
X109126545Y-198359107D02*
X109031307Y-198406726D01*
X109031307Y-198406726D02*
X108983688Y-198454345D01*
X108983688Y-198454345D02*
X108936069Y-198549583D01*
X108936069Y-198549583D02*
X108936069Y-198740059D01*
X108936069Y-198740059D02*
X108983688Y-198835297D01*
X108983688Y-198835297D02*
X109031307Y-198882916D01*
X109031307Y-198882916D02*
X109126545Y-198930535D01*
X109126545Y-198930535D02*
X109174164Y-198930535D01*
X109174164Y-198930535D02*
X109269402Y-198882916D01*
X109269402Y-198882916D02*
X109317021Y-198835297D01*
X109317021Y-198835297D02*
X109364640Y-198740059D01*
X109364640Y-198740059D02*
X109364640Y-198549583D01*
X109364640Y-198549583D02*
X109412259Y-198454345D01*
X109412259Y-198454345D02*
X109459878Y-198406726D01*
X109459878Y-198406726D02*
X109555116Y-198359107D01*
X109555116Y-198359107D02*
X109745592Y-198359107D01*
X109745592Y-198359107D02*
X109840830Y-198406726D01*
X109840830Y-198406726D02*
X109888450Y-198454345D01*
X109888450Y-198454345D02*
X109936069Y-198549583D01*
X109936069Y-198549583D02*
X109936069Y-198740059D01*
X109936069Y-198740059D02*
X109888450Y-198835297D01*
X109888450Y-198835297D02*
X109840830Y-198882916D01*
X109840830Y-198882916D02*
X109745592Y-198930535D01*
X109745592Y-198930535D02*
X109555116Y-198930535D01*
X109555116Y-198930535D02*
X109459878Y-198882916D01*
X109459878Y-198882916D02*
X109412259Y-198835297D01*
X109412259Y-198835297D02*
X109364640Y-198740059D01*
D11*
X111965105Y-194944821D02*
X111165105Y-194944821D01*
X111165105Y-194944821D02*
X111165105Y-195135297D01*
X111165105Y-195135297D02*
X111203200Y-195249583D01*
X111203200Y-195249583D02*
X111279390Y-195325773D01*
X111279390Y-195325773D02*
X111355581Y-195363868D01*
X111355581Y-195363868D02*
X111507962Y-195401964D01*
X111507962Y-195401964D02*
X111622248Y-195401964D01*
X111622248Y-195401964D02*
X111774629Y-195363868D01*
X111774629Y-195363868D02*
X111850819Y-195325773D01*
X111850819Y-195325773D02*
X111927010Y-195249583D01*
X111927010Y-195249583D02*
X111965105Y-195135297D01*
X111965105Y-195135297D02*
X111965105Y-194944821D01*
X111965105Y-196163868D02*
X111965105Y-195706725D01*
X111965105Y-195935297D02*
X111165105Y-195935297D01*
X111165105Y-195935297D02*
X111279390Y-195859106D01*
X111279390Y-195859106D02*
X111355581Y-195782916D01*
X111355581Y-195782916D02*
X111393676Y-195706725D01*
X111165105Y-196887678D02*
X111165105Y-196506726D01*
X111165105Y-196506726D02*
X111546057Y-196468630D01*
X111546057Y-196468630D02*
X111507962Y-196506726D01*
X111507962Y-196506726D02*
X111469867Y-196582916D01*
X111469867Y-196582916D02*
X111469867Y-196773392D01*
X111469867Y-196773392D02*
X111507962Y-196849583D01*
X111507962Y-196849583D02*
X111546057Y-196887678D01*
X111546057Y-196887678D02*
X111622248Y-196925773D01*
X111622248Y-196925773D02*
X111812724Y-196925773D01*
X111812724Y-196925773D02*
X111888914Y-196887678D01*
X111888914Y-196887678D02*
X111927010Y-196849583D01*
X111927010Y-196849583D02*
X111965105Y-196773392D01*
X111965105Y-196773392D02*
X111965105Y-196582916D01*
X111965105Y-196582916D02*
X111927010Y-196506726D01*
X111927010Y-196506726D02*
X111888914Y-196468630D01*
D10*
X113856069Y-199764345D02*
X112856069Y-199764345D01*
X113856069Y-200335773D02*
X113284640Y-199907202D01*
X112856069Y-200335773D02*
X113427497Y-199764345D01*
X183913569Y-202009642D02*
X183913569Y-201438214D01*
X183913569Y-201723928D02*
X182913569Y-201723928D01*
X182913569Y-201723928D02*
X183056426Y-201628690D01*
X183056426Y-201628690D02*
X183151664Y-201533452D01*
X183151664Y-201533452D02*
X183199283Y-201438214D01*
X183913569Y-202438214D02*
X182913569Y-202438214D01*
X182913569Y-202438214D02*
X183913569Y-203009642D01*
X183913569Y-203009642D02*
X182913569Y-203009642D01*
X183246902Y-203914404D02*
X183913569Y-203914404D01*
X182865950Y-203676309D02*
X183580235Y-203438214D01*
X183580235Y-203438214D02*
X183580235Y-204057261D01*
X183913569Y-204962023D02*
X183913569Y-204390595D01*
X183913569Y-204676309D02*
X182913569Y-204676309D01*
X182913569Y-204676309D02*
X183056426Y-204581071D01*
X183056426Y-204581071D02*
X183151664Y-204485833D01*
X183151664Y-204485833D02*
X183199283Y-204390595D01*
X183246902Y-205819166D02*
X183913569Y-205819166D01*
X182865950Y-205581071D02*
X183580235Y-205342976D01*
X183580235Y-205342976D02*
X183580235Y-205962023D01*
X183342140Y-206485833D02*
X183294521Y-206390595D01*
X183294521Y-206390595D02*
X183246902Y-206342976D01*
X183246902Y-206342976D02*
X183151664Y-206295357D01*
X183151664Y-206295357D02*
X183104045Y-206295357D01*
X183104045Y-206295357D02*
X183008807Y-206342976D01*
X183008807Y-206342976D02*
X182961188Y-206390595D01*
X182961188Y-206390595D02*
X182913569Y-206485833D01*
X182913569Y-206485833D02*
X182913569Y-206676309D01*
X182913569Y-206676309D02*
X182961188Y-206771547D01*
X182961188Y-206771547D02*
X183008807Y-206819166D01*
X183008807Y-206819166D02*
X183104045Y-206866785D01*
X183104045Y-206866785D02*
X183151664Y-206866785D01*
X183151664Y-206866785D02*
X183246902Y-206819166D01*
X183246902Y-206819166D02*
X183294521Y-206771547D01*
X183294521Y-206771547D02*
X183342140Y-206676309D01*
X183342140Y-206676309D02*
X183342140Y-206485833D01*
X183342140Y-206485833D02*
X183389759Y-206390595D01*
X183389759Y-206390595D02*
X183437378Y-206342976D01*
X183437378Y-206342976D02*
X183532616Y-206295357D01*
X183532616Y-206295357D02*
X183723092Y-206295357D01*
X183723092Y-206295357D02*
X183818330Y-206342976D01*
X183818330Y-206342976D02*
X183865950Y-206390595D01*
X183865950Y-206390595D02*
X183913569Y-206485833D01*
X183913569Y-206485833D02*
X183913569Y-206676309D01*
X183913569Y-206676309D02*
X183865950Y-206771547D01*
X183865950Y-206771547D02*
X183818330Y-206819166D01*
X183818330Y-206819166D02*
X183723092Y-206866785D01*
X183723092Y-206866785D02*
X183532616Y-206866785D01*
X183532616Y-206866785D02*
X183437378Y-206819166D01*
X183437378Y-206819166D02*
X183389759Y-206771547D01*
X183389759Y-206771547D02*
X183342140Y-206676309D01*
D11*
X185942605Y-203262024D02*
X185142605Y-203262024D01*
X185142605Y-203262024D02*
X185142605Y-203452500D01*
X185142605Y-203452500D02*
X185180700Y-203566786D01*
X185180700Y-203566786D02*
X185256890Y-203642976D01*
X185256890Y-203642976D02*
X185333081Y-203681071D01*
X185333081Y-203681071D02*
X185485462Y-203719167D01*
X185485462Y-203719167D02*
X185599748Y-203719167D01*
X185599748Y-203719167D02*
X185752129Y-203681071D01*
X185752129Y-203681071D02*
X185828319Y-203642976D01*
X185828319Y-203642976D02*
X185904510Y-203566786D01*
X185904510Y-203566786D02*
X185942605Y-203452500D01*
X185942605Y-203452500D02*
X185942605Y-203262024D01*
X185218795Y-204023928D02*
X185180700Y-204062024D01*
X185180700Y-204062024D02*
X185142605Y-204138214D01*
X185142605Y-204138214D02*
X185142605Y-204328690D01*
X185142605Y-204328690D02*
X185180700Y-204404881D01*
X185180700Y-204404881D02*
X185218795Y-204442976D01*
X185218795Y-204442976D02*
X185294986Y-204481071D01*
X185294986Y-204481071D02*
X185371176Y-204481071D01*
X185371176Y-204481071D02*
X185485462Y-204442976D01*
X185485462Y-204442976D02*
X185942605Y-203985833D01*
X185942605Y-203985833D02*
X185942605Y-204481071D01*
D10*
X187833569Y-207700595D02*
X186833569Y-207700595D01*
X187833569Y-208272023D02*
X187262140Y-207843452D01*
X186833569Y-208272023D02*
X187404997Y-207700595D01*
X222013569Y-202009642D02*
X222013569Y-201438214D01*
X222013569Y-201723928D02*
X221013569Y-201723928D01*
X221013569Y-201723928D02*
X221156426Y-201628690D01*
X221156426Y-201628690D02*
X221251664Y-201533452D01*
X221251664Y-201533452D02*
X221299283Y-201438214D01*
X222013569Y-202438214D02*
X221013569Y-202438214D01*
X221013569Y-202438214D02*
X222013569Y-203009642D01*
X222013569Y-203009642D02*
X221013569Y-203009642D01*
X221346902Y-203914404D02*
X222013569Y-203914404D01*
X220965950Y-203676309D02*
X221680235Y-203438214D01*
X221680235Y-203438214D02*
X221680235Y-204057261D01*
X222013569Y-204962023D02*
X222013569Y-204390595D01*
X222013569Y-204676309D02*
X221013569Y-204676309D01*
X221013569Y-204676309D02*
X221156426Y-204581071D01*
X221156426Y-204581071D02*
X221251664Y-204485833D01*
X221251664Y-204485833D02*
X221299283Y-204390595D01*
X221346902Y-205819166D02*
X222013569Y-205819166D01*
X220965950Y-205581071D02*
X221680235Y-205342976D01*
X221680235Y-205342976D02*
X221680235Y-205962023D01*
X221442140Y-206485833D02*
X221394521Y-206390595D01*
X221394521Y-206390595D02*
X221346902Y-206342976D01*
X221346902Y-206342976D02*
X221251664Y-206295357D01*
X221251664Y-206295357D02*
X221204045Y-206295357D01*
X221204045Y-206295357D02*
X221108807Y-206342976D01*
X221108807Y-206342976D02*
X221061188Y-206390595D01*
X221061188Y-206390595D02*
X221013569Y-206485833D01*
X221013569Y-206485833D02*
X221013569Y-206676309D01*
X221013569Y-206676309D02*
X221061188Y-206771547D01*
X221061188Y-206771547D02*
X221108807Y-206819166D01*
X221108807Y-206819166D02*
X221204045Y-206866785D01*
X221204045Y-206866785D02*
X221251664Y-206866785D01*
X221251664Y-206866785D02*
X221346902Y-206819166D01*
X221346902Y-206819166D02*
X221394521Y-206771547D01*
X221394521Y-206771547D02*
X221442140Y-206676309D01*
X221442140Y-206676309D02*
X221442140Y-206485833D01*
X221442140Y-206485833D02*
X221489759Y-206390595D01*
X221489759Y-206390595D02*
X221537378Y-206342976D01*
X221537378Y-206342976D02*
X221632616Y-206295357D01*
X221632616Y-206295357D02*
X221823092Y-206295357D01*
X221823092Y-206295357D02*
X221918330Y-206342976D01*
X221918330Y-206342976D02*
X221965950Y-206390595D01*
X221965950Y-206390595D02*
X222013569Y-206485833D01*
X222013569Y-206485833D02*
X222013569Y-206676309D01*
X222013569Y-206676309D02*
X221965950Y-206771547D01*
X221965950Y-206771547D02*
X221918330Y-206819166D01*
X221918330Y-206819166D02*
X221823092Y-206866785D01*
X221823092Y-206866785D02*
X221632616Y-206866785D01*
X221632616Y-206866785D02*
X221537378Y-206819166D01*
X221537378Y-206819166D02*
X221489759Y-206771547D01*
X221489759Y-206771547D02*
X221442140Y-206676309D01*
D11*
X224042605Y-203262024D02*
X223242605Y-203262024D01*
X223242605Y-203262024D02*
X223242605Y-203452500D01*
X223242605Y-203452500D02*
X223280700Y-203566786D01*
X223280700Y-203566786D02*
X223356890Y-203642976D01*
X223356890Y-203642976D02*
X223433081Y-203681071D01*
X223433081Y-203681071D02*
X223585462Y-203719167D01*
X223585462Y-203719167D02*
X223699748Y-203719167D01*
X223699748Y-203719167D02*
X223852129Y-203681071D01*
X223852129Y-203681071D02*
X223928319Y-203642976D01*
X223928319Y-203642976D02*
X224004510Y-203566786D01*
X224004510Y-203566786D02*
X224042605Y-203452500D01*
X224042605Y-203452500D02*
X224042605Y-203262024D01*
X223242605Y-203985833D02*
X223242605Y-204481071D01*
X223242605Y-204481071D02*
X223547367Y-204214405D01*
X223547367Y-204214405D02*
X223547367Y-204328690D01*
X223547367Y-204328690D02*
X223585462Y-204404881D01*
X223585462Y-204404881D02*
X223623557Y-204442976D01*
X223623557Y-204442976D02*
X223699748Y-204481071D01*
X223699748Y-204481071D02*
X223890224Y-204481071D01*
X223890224Y-204481071D02*
X223966414Y-204442976D01*
X223966414Y-204442976D02*
X224004510Y-204404881D01*
X224004510Y-204404881D02*
X224042605Y-204328690D01*
X224042605Y-204328690D02*
X224042605Y-204100119D01*
X224042605Y-204100119D02*
X224004510Y-204023928D01*
X224004510Y-204023928D02*
X223966414Y-203985833D01*
D10*
X225933569Y-207700595D02*
X224933569Y-207700595D01*
X225933569Y-208272023D02*
X225362140Y-207843452D01*
X224933569Y-208272023D02*
X225504997Y-207700595D01*
X298213569Y-168672142D02*
X298213569Y-168100714D01*
X298213569Y-168386428D02*
X297213569Y-168386428D01*
X297213569Y-168386428D02*
X297356426Y-168291190D01*
X297356426Y-168291190D02*
X297451664Y-168195952D01*
X297451664Y-168195952D02*
X297499283Y-168100714D01*
X298213569Y-169100714D02*
X297213569Y-169100714D01*
X297213569Y-169100714D02*
X298213569Y-169672142D01*
X298213569Y-169672142D02*
X297213569Y-169672142D01*
X297546902Y-170576904D02*
X298213569Y-170576904D01*
X297165950Y-170338809D02*
X297880235Y-170100714D01*
X297880235Y-170100714D02*
X297880235Y-170719761D01*
X298213569Y-171624523D02*
X298213569Y-171053095D01*
X298213569Y-171338809D02*
X297213569Y-171338809D01*
X297213569Y-171338809D02*
X297356426Y-171243571D01*
X297356426Y-171243571D02*
X297451664Y-171148333D01*
X297451664Y-171148333D02*
X297499283Y-171053095D01*
X297546902Y-172481666D02*
X298213569Y-172481666D01*
X297165950Y-172243571D02*
X297880235Y-172005476D01*
X297880235Y-172005476D02*
X297880235Y-172624523D01*
X297642140Y-173148333D02*
X297594521Y-173053095D01*
X297594521Y-173053095D02*
X297546902Y-173005476D01*
X297546902Y-173005476D02*
X297451664Y-172957857D01*
X297451664Y-172957857D02*
X297404045Y-172957857D01*
X297404045Y-172957857D02*
X297308807Y-173005476D01*
X297308807Y-173005476D02*
X297261188Y-173053095D01*
X297261188Y-173053095D02*
X297213569Y-173148333D01*
X297213569Y-173148333D02*
X297213569Y-173338809D01*
X297213569Y-173338809D02*
X297261188Y-173434047D01*
X297261188Y-173434047D02*
X297308807Y-173481666D01*
X297308807Y-173481666D02*
X297404045Y-173529285D01*
X297404045Y-173529285D02*
X297451664Y-173529285D01*
X297451664Y-173529285D02*
X297546902Y-173481666D01*
X297546902Y-173481666D02*
X297594521Y-173434047D01*
X297594521Y-173434047D02*
X297642140Y-173338809D01*
X297642140Y-173338809D02*
X297642140Y-173148333D01*
X297642140Y-173148333D02*
X297689759Y-173053095D01*
X297689759Y-173053095D02*
X297737378Y-173005476D01*
X297737378Y-173005476D02*
X297832616Y-172957857D01*
X297832616Y-172957857D02*
X298023092Y-172957857D01*
X298023092Y-172957857D02*
X298118330Y-173005476D01*
X298118330Y-173005476D02*
X298165950Y-173053095D01*
X298165950Y-173053095D02*
X298213569Y-173148333D01*
X298213569Y-173148333D02*
X298213569Y-173338809D01*
X298213569Y-173338809D02*
X298165950Y-173434047D01*
X298165950Y-173434047D02*
X298118330Y-173481666D01*
X298118330Y-173481666D02*
X298023092Y-173529285D01*
X298023092Y-173529285D02*
X297832616Y-173529285D01*
X297832616Y-173529285D02*
X297737378Y-173481666D01*
X297737378Y-173481666D02*
X297689759Y-173434047D01*
X297689759Y-173434047D02*
X297642140Y-173338809D01*
X302133569Y-174363095D02*
X301133569Y-174363095D01*
X302133569Y-174934523D02*
X301562140Y-174505952D01*
X301133569Y-174934523D02*
X301704997Y-174363095D01*
D11*
X300242605Y-169543571D02*
X299442605Y-169543571D01*
X299442605Y-169543571D02*
X299442605Y-169734047D01*
X299442605Y-169734047D02*
X299480700Y-169848333D01*
X299480700Y-169848333D02*
X299556890Y-169924523D01*
X299556890Y-169924523D02*
X299633081Y-169962618D01*
X299633081Y-169962618D02*
X299785462Y-170000714D01*
X299785462Y-170000714D02*
X299899748Y-170000714D01*
X299899748Y-170000714D02*
X300052129Y-169962618D01*
X300052129Y-169962618D02*
X300128319Y-169924523D01*
X300128319Y-169924523D02*
X300204510Y-169848333D01*
X300204510Y-169848333D02*
X300242605Y-169734047D01*
X300242605Y-169734047D02*
X300242605Y-169543571D01*
X300242605Y-170762618D02*
X300242605Y-170305475D01*
X300242605Y-170534047D02*
X299442605Y-170534047D01*
X299442605Y-170534047D02*
X299556890Y-170457856D01*
X299556890Y-170457856D02*
X299633081Y-170381666D01*
X299633081Y-170381666D02*
X299671176Y-170305475D01*
X299518795Y-171067380D02*
X299480700Y-171105476D01*
X299480700Y-171105476D02*
X299442605Y-171181666D01*
X299442605Y-171181666D02*
X299442605Y-171372142D01*
X299442605Y-171372142D02*
X299480700Y-171448333D01*
X299480700Y-171448333D02*
X299518795Y-171486428D01*
X299518795Y-171486428D02*
X299594986Y-171524523D01*
X299594986Y-171524523D02*
X299671176Y-171524523D01*
X299671176Y-171524523D02*
X299785462Y-171486428D01*
X299785462Y-171486428D02*
X300242605Y-171029285D01*
X300242605Y-171029285D02*
X300242605Y-171524523D01*
D10*
X145813569Y-202009642D02*
X145813569Y-201438214D01*
X145813569Y-201723928D02*
X144813569Y-201723928D01*
X144813569Y-201723928D02*
X144956426Y-201628690D01*
X144956426Y-201628690D02*
X145051664Y-201533452D01*
X145051664Y-201533452D02*
X145099283Y-201438214D01*
X145813569Y-202438214D02*
X144813569Y-202438214D01*
X144813569Y-202438214D02*
X145813569Y-203009642D01*
X145813569Y-203009642D02*
X144813569Y-203009642D01*
X145146902Y-203914404D02*
X145813569Y-203914404D01*
X144765950Y-203676309D02*
X145480235Y-203438214D01*
X145480235Y-203438214D02*
X145480235Y-204057261D01*
X145813569Y-204962023D02*
X145813569Y-204390595D01*
X145813569Y-204676309D02*
X144813569Y-204676309D01*
X144813569Y-204676309D02*
X144956426Y-204581071D01*
X144956426Y-204581071D02*
X145051664Y-204485833D01*
X145051664Y-204485833D02*
X145099283Y-204390595D01*
X145146902Y-205819166D02*
X145813569Y-205819166D01*
X144765950Y-205581071D02*
X145480235Y-205342976D01*
X145480235Y-205342976D02*
X145480235Y-205962023D01*
X145242140Y-206485833D02*
X145194521Y-206390595D01*
X145194521Y-206390595D02*
X145146902Y-206342976D01*
X145146902Y-206342976D02*
X145051664Y-206295357D01*
X145051664Y-206295357D02*
X145004045Y-206295357D01*
X145004045Y-206295357D02*
X144908807Y-206342976D01*
X144908807Y-206342976D02*
X144861188Y-206390595D01*
X144861188Y-206390595D02*
X144813569Y-206485833D01*
X144813569Y-206485833D02*
X144813569Y-206676309D01*
X144813569Y-206676309D02*
X144861188Y-206771547D01*
X144861188Y-206771547D02*
X144908807Y-206819166D01*
X144908807Y-206819166D02*
X145004045Y-206866785D01*
X145004045Y-206866785D02*
X145051664Y-206866785D01*
X145051664Y-206866785D02*
X145146902Y-206819166D01*
X145146902Y-206819166D02*
X145194521Y-206771547D01*
X145194521Y-206771547D02*
X145242140Y-206676309D01*
X145242140Y-206676309D02*
X145242140Y-206485833D01*
X145242140Y-206485833D02*
X145289759Y-206390595D01*
X145289759Y-206390595D02*
X145337378Y-206342976D01*
X145337378Y-206342976D02*
X145432616Y-206295357D01*
X145432616Y-206295357D02*
X145623092Y-206295357D01*
X145623092Y-206295357D02*
X145718330Y-206342976D01*
X145718330Y-206342976D02*
X145765950Y-206390595D01*
X145765950Y-206390595D02*
X145813569Y-206485833D01*
X145813569Y-206485833D02*
X145813569Y-206676309D01*
X145813569Y-206676309D02*
X145765950Y-206771547D01*
X145765950Y-206771547D02*
X145718330Y-206819166D01*
X145718330Y-206819166D02*
X145623092Y-206866785D01*
X145623092Y-206866785D02*
X145432616Y-206866785D01*
X145432616Y-206866785D02*
X145337378Y-206819166D01*
X145337378Y-206819166D02*
X145289759Y-206771547D01*
X145289759Y-206771547D02*
X145242140Y-206676309D01*
D11*
X147842605Y-203262024D02*
X147042605Y-203262024D01*
X147042605Y-203262024D02*
X147042605Y-203452500D01*
X147042605Y-203452500D02*
X147080700Y-203566786D01*
X147080700Y-203566786D02*
X147156890Y-203642976D01*
X147156890Y-203642976D02*
X147233081Y-203681071D01*
X147233081Y-203681071D02*
X147385462Y-203719167D01*
X147385462Y-203719167D02*
X147499748Y-203719167D01*
X147499748Y-203719167D02*
X147652129Y-203681071D01*
X147652129Y-203681071D02*
X147728319Y-203642976D01*
X147728319Y-203642976D02*
X147804510Y-203566786D01*
X147804510Y-203566786D02*
X147842605Y-203452500D01*
X147842605Y-203452500D02*
X147842605Y-203262024D01*
X147842605Y-204481071D02*
X147842605Y-204023928D01*
X147842605Y-204252500D02*
X147042605Y-204252500D01*
X147042605Y-204252500D02*
X147156890Y-204176309D01*
X147156890Y-204176309D02*
X147233081Y-204100119D01*
X147233081Y-204100119D02*
X147271176Y-204023928D01*
D10*
X149733569Y-207700595D02*
X148733569Y-207700595D01*
X149733569Y-208272023D02*
X149162140Y-207843452D01*
X148733569Y-208272023D02*
X149304997Y-207700595D01*
X355363569Y-202009642D02*
X355363569Y-201438214D01*
X355363569Y-201723928D02*
X354363569Y-201723928D01*
X354363569Y-201723928D02*
X354506426Y-201628690D01*
X354506426Y-201628690D02*
X354601664Y-201533452D01*
X354601664Y-201533452D02*
X354649283Y-201438214D01*
X355363569Y-202438214D02*
X354363569Y-202438214D01*
X354363569Y-202438214D02*
X355363569Y-203009642D01*
X355363569Y-203009642D02*
X354363569Y-203009642D01*
X354696902Y-203914404D02*
X355363569Y-203914404D01*
X354315950Y-203676309D02*
X355030235Y-203438214D01*
X355030235Y-203438214D02*
X355030235Y-204057261D01*
X355363569Y-204962023D02*
X355363569Y-204390595D01*
X355363569Y-204676309D02*
X354363569Y-204676309D01*
X354363569Y-204676309D02*
X354506426Y-204581071D01*
X354506426Y-204581071D02*
X354601664Y-204485833D01*
X354601664Y-204485833D02*
X354649283Y-204390595D01*
X354696902Y-205819166D02*
X355363569Y-205819166D01*
X354315950Y-205581071D02*
X355030235Y-205342976D01*
X355030235Y-205342976D02*
X355030235Y-205962023D01*
X354792140Y-206485833D02*
X354744521Y-206390595D01*
X354744521Y-206390595D02*
X354696902Y-206342976D01*
X354696902Y-206342976D02*
X354601664Y-206295357D01*
X354601664Y-206295357D02*
X354554045Y-206295357D01*
X354554045Y-206295357D02*
X354458807Y-206342976D01*
X354458807Y-206342976D02*
X354411188Y-206390595D01*
X354411188Y-206390595D02*
X354363569Y-206485833D01*
X354363569Y-206485833D02*
X354363569Y-206676309D01*
X354363569Y-206676309D02*
X354411188Y-206771547D01*
X354411188Y-206771547D02*
X354458807Y-206819166D01*
X354458807Y-206819166D02*
X354554045Y-206866785D01*
X354554045Y-206866785D02*
X354601664Y-206866785D01*
X354601664Y-206866785D02*
X354696902Y-206819166D01*
X354696902Y-206819166D02*
X354744521Y-206771547D01*
X354744521Y-206771547D02*
X354792140Y-206676309D01*
X354792140Y-206676309D02*
X354792140Y-206485833D01*
X354792140Y-206485833D02*
X354839759Y-206390595D01*
X354839759Y-206390595D02*
X354887378Y-206342976D01*
X354887378Y-206342976D02*
X354982616Y-206295357D01*
X354982616Y-206295357D02*
X355173092Y-206295357D01*
X355173092Y-206295357D02*
X355268330Y-206342976D01*
X355268330Y-206342976D02*
X355315950Y-206390595D01*
X355315950Y-206390595D02*
X355363569Y-206485833D01*
X355363569Y-206485833D02*
X355363569Y-206676309D01*
X355363569Y-206676309D02*
X355315950Y-206771547D01*
X355315950Y-206771547D02*
X355268330Y-206819166D01*
X355268330Y-206819166D02*
X355173092Y-206866785D01*
X355173092Y-206866785D02*
X354982616Y-206866785D01*
X354982616Y-206866785D02*
X354887378Y-206819166D01*
X354887378Y-206819166D02*
X354839759Y-206771547D01*
X354839759Y-206771547D02*
X354792140Y-206676309D01*
X359283569Y-207700595D02*
X358283569Y-207700595D01*
X359283569Y-208272023D02*
X358712140Y-207843452D01*
X358283569Y-208272023D02*
X358854997Y-207700595D01*
D11*
X357392605Y-203262024D02*
X356592605Y-203262024D01*
X356592605Y-203262024D02*
X356592605Y-203452500D01*
X356592605Y-203452500D02*
X356630700Y-203566786D01*
X356630700Y-203566786D02*
X356706890Y-203642976D01*
X356706890Y-203642976D02*
X356783081Y-203681071D01*
X356783081Y-203681071D02*
X356935462Y-203719167D01*
X356935462Y-203719167D02*
X357049748Y-203719167D01*
X357049748Y-203719167D02*
X357202129Y-203681071D01*
X357202129Y-203681071D02*
X357278319Y-203642976D01*
X357278319Y-203642976D02*
X357354510Y-203566786D01*
X357354510Y-203566786D02*
X357392605Y-203452500D01*
X357392605Y-203452500D02*
X357392605Y-203262024D01*
X356592605Y-203985833D02*
X356592605Y-204519167D01*
X356592605Y-204519167D02*
X357392605Y-204176309D01*
D10*
X336313569Y-168672142D02*
X336313569Y-168100714D01*
X336313569Y-168386428D02*
X335313569Y-168386428D01*
X335313569Y-168386428D02*
X335456426Y-168291190D01*
X335456426Y-168291190D02*
X335551664Y-168195952D01*
X335551664Y-168195952D02*
X335599283Y-168100714D01*
X336313569Y-169100714D02*
X335313569Y-169100714D01*
X335313569Y-169100714D02*
X336313569Y-169672142D01*
X336313569Y-169672142D02*
X335313569Y-169672142D01*
X335646902Y-170576904D02*
X336313569Y-170576904D01*
X335265950Y-170338809D02*
X335980235Y-170100714D01*
X335980235Y-170100714D02*
X335980235Y-170719761D01*
X336313569Y-171624523D02*
X336313569Y-171053095D01*
X336313569Y-171338809D02*
X335313569Y-171338809D01*
X335313569Y-171338809D02*
X335456426Y-171243571D01*
X335456426Y-171243571D02*
X335551664Y-171148333D01*
X335551664Y-171148333D02*
X335599283Y-171053095D01*
X335646902Y-172481666D02*
X336313569Y-172481666D01*
X335265950Y-172243571D02*
X335980235Y-172005476D01*
X335980235Y-172005476D02*
X335980235Y-172624523D01*
X335742140Y-173148333D02*
X335694521Y-173053095D01*
X335694521Y-173053095D02*
X335646902Y-173005476D01*
X335646902Y-173005476D02*
X335551664Y-172957857D01*
X335551664Y-172957857D02*
X335504045Y-172957857D01*
X335504045Y-172957857D02*
X335408807Y-173005476D01*
X335408807Y-173005476D02*
X335361188Y-173053095D01*
X335361188Y-173053095D02*
X335313569Y-173148333D01*
X335313569Y-173148333D02*
X335313569Y-173338809D01*
X335313569Y-173338809D02*
X335361188Y-173434047D01*
X335361188Y-173434047D02*
X335408807Y-173481666D01*
X335408807Y-173481666D02*
X335504045Y-173529285D01*
X335504045Y-173529285D02*
X335551664Y-173529285D01*
X335551664Y-173529285D02*
X335646902Y-173481666D01*
X335646902Y-173481666D02*
X335694521Y-173434047D01*
X335694521Y-173434047D02*
X335742140Y-173338809D01*
X335742140Y-173338809D02*
X335742140Y-173148333D01*
X335742140Y-173148333D02*
X335789759Y-173053095D01*
X335789759Y-173053095D02*
X335837378Y-173005476D01*
X335837378Y-173005476D02*
X335932616Y-172957857D01*
X335932616Y-172957857D02*
X336123092Y-172957857D01*
X336123092Y-172957857D02*
X336218330Y-173005476D01*
X336218330Y-173005476D02*
X336265950Y-173053095D01*
X336265950Y-173053095D02*
X336313569Y-173148333D01*
X336313569Y-173148333D02*
X336313569Y-173338809D01*
X336313569Y-173338809D02*
X336265950Y-173434047D01*
X336265950Y-173434047D02*
X336218330Y-173481666D01*
X336218330Y-173481666D02*
X336123092Y-173529285D01*
X336123092Y-173529285D02*
X335932616Y-173529285D01*
X335932616Y-173529285D02*
X335837378Y-173481666D01*
X335837378Y-173481666D02*
X335789759Y-173434047D01*
X335789759Y-173434047D02*
X335742140Y-173338809D01*
D11*
X338342605Y-169543571D02*
X337542605Y-169543571D01*
X337542605Y-169543571D02*
X337542605Y-169734047D01*
X337542605Y-169734047D02*
X337580700Y-169848333D01*
X337580700Y-169848333D02*
X337656890Y-169924523D01*
X337656890Y-169924523D02*
X337733081Y-169962618D01*
X337733081Y-169962618D02*
X337885462Y-170000714D01*
X337885462Y-170000714D02*
X337999748Y-170000714D01*
X337999748Y-170000714D02*
X338152129Y-169962618D01*
X338152129Y-169962618D02*
X338228319Y-169924523D01*
X338228319Y-169924523D02*
X338304510Y-169848333D01*
X338304510Y-169848333D02*
X338342605Y-169734047D01*
X338342605Y-169734047D02*
X338342605Y-169543571D01*
X338342605Y-170762618D02*
X338342605Y-170305475D01*
X338342605Y-170534047D02*
X337542605Y-170534047D01*
X337542605Y-170534047D02*
X337656890Y-170457856D01*
X337656890Y-170457856D02*
X337733081Y-170381666D01*
X337733081Y-170381666D02*
X337771176Y-170305475D01*
X337542605Y-171029285D02*
X337542605Y-171524523D01*
X337542605Y-171524523D02*
X337847367Y-171257857D01*
X337847367Y-171257857D02*
X337847367Y-171372142D01*
X337847367Y-171372142D02*
X337885462Y-171448333D01*
X337885462Y-171448333D02*
X337923557Y-171486428D01*
X337923557Y-171486428D02*
X337999748Y-171524523D01*
X337999748Y-171524523D02*
X338190224Y-171524523D01*
X338190224Y-171524523D02*
X338266414Y-171486428D01*
X338266414Y-171486428D02*
X338304510Y-171448333D01*
X338304510Y-171448333D02*
X338342605Y-171372142D01*
X338342605Y-171372142D02*
X338342605Y-171143571D01*
X338342605Y-171143571D02*
X338304510Y-171067380D01*
X338304510Y-171067380D02*
X338266414Y-171029285D01*
D10*
X340233569Y-174363095D02*
X339233569Y-174363095D01*
X340233569Y-174934523D02*
X339662140Y-174505952D01*
X339233569Y-174934523D02*
X339804997Y-174363095D01*
X279163569Y-202009642D02*
X279163569Y-201438214D01*
X279163569Y-201723928D02*
X278163569Y-201723928D01*
X278163569Y-201723928D02*
X278306426Y-201628690D01*
X278306426Y-201628690D02*
X278401664Y-201533452D01*
X278401664Y-201533452D02*
X278449283Y-201438214D01*
X279163569Y-202438214D02*
X278163569Y-202438214D01*
X278163569Y-202438214D02*
X279163569Y-203009642D01*
X279163569Y-203009642D02*
X278163569Y-203009642D01*
X278496902Y-203914404D02*
X279163569Y-203914404D01*
X278115950Y-203676309D02*
X278830235Y-203438214D01*
X278830235Y-203438214D02*
X278830235Y-204057261D01*
X279163569Y-204962023D02*
X279163569Y-204390595D01*
X279163569Y-204676309D02*
X278163569Y-204676309D01*
X278163569Y-204676309D02*
X278306426Y-204581071D01*
X278306426Y-204581071D02*
X278401664Y-204485833D01*
X278401664Y-204485833D02*
X278449283Y-204390595D01*
X278496902Y-205819166D02*
X279163569Y-205819166D01*
X278115950Y-205581071D02*
X278830235Y-205342976D01*
X278830235Y-205342976D02*
X278830235Y-205962023D01*
X278592140Y-206485833D02*
X278544521Y-206390595D01*
X278544521Y-206390595D02*
X278496902Y-206342976D01*
X278496902Y-206342976D02*
X278401664Y-206295357D01*
X278401664Y-206295357D02*
X278354045Y-206295357D01*
X278354045Y-206295357D02*
X278258807Y-206342976D01*
X278258807Y-206342976D02*
X278211188Y-206390595D01*
X278211188Y-206390595D02*
X278163569Y-206485833D01*
X278163569Y-206485833D02*
X278163569Y-206676309D01*
X278163569Y-206676309D02*
X278211188Y-206771547D01*
X278211188Y-206771547D02*
X278258807Y-206819166D01*
X278258807Y-206819166D02*
X278354045Y-206866785D01*
X278354045Y-206866785D02*
X278401664Y-206866785D01*
X278401664Y-206866785D02*
X278496902Y-206819166D01*
X278496902Y-206819166D02*
X278544521Y-206771547D01*
X278544521Y-206771547D02*
X278592140Y-206676309D01*
X278592140Y-206676309D02*
X278592140Y-206485833D01*
X278592140Y-206485833D02*
X278639759Y-206390595D01*
X278639759Y-206390595D02*
X278687378Y-206342976D01*
X278687378Y-206342976D02*
X278782616Y-206295357D01*
X278782616Y-206295357D02*
X278973092Y-206295357D01*
X278973092Y-206295357D02*
X279068330Y-206342976D01*
X279068330Y-206342976D02*
X279115950Y-206390595D01*
X279115950Y-206390595D02*
X279163569Y-206485833D01*
X279163569Y-206485833D02*
X279163569Y-206676309D01*
X279163569Y-206676309D02*
X279115950Y-206771547D01*
X279115950Y-206771547D02*
X279068330Y-206819166D01*
X279068330Y-206819166D02*
X278973092Y-206866785D01*
X278973092Y-206866785D02*
X278782616Y-206866785D01*
X278782616Y-206866785D02*
X278687378Y-206819166D01*
X278687378Y-206819166D02*
X278639759Y-206771547D01*
X278639759Y-206771547D02*
X278592140Y-206676309D01*
D11*
X281192605Y-203262024D02*
X280392605Y-203262024D01*
X280392605Y-203262024D02*
X280392605Y-203452500D01*
X280392605Y-203452500D02*
X280430700Y-203566786D01*
X280430700Y-203566786D02*
X280506890Y-203642976D01*
X280506890Y-203642976D02*
X280583081Y-203681071D01*
X280583081Y-203681071D02*
X280735462Y-203719167D01*
X280735462Y-203719167D02*
X280849748Y-203719167D01*
X280849748Y-203719167D02*
X281002129Y-203681071D01*
X281002129Y-203681071D02*
X281078319Y-203642976D01*
X281078319Y-203642976D02*
X281154510Y-203566786D01*
X281154510Y-203566786D02*
X281192605Y-203452500D01*
X281192605Y-203452500D02*
X281192605Y-203262024D01*
X280392605Y-204442976D02*
X280392605Y-204062024D01*
X280392605Y-204062024D02*
X280773557Y-204023928D01*
X280773557Y-204023928D02*
X280735462Y-204062024D01*
X280735462Y-204062024D02*
X280697367Y-204138214D01*
X280697367Y-204138214D02*
X280697367Y-204328690D01*
X280697367Y-204328690D02*
X280735462Y-204404881D01*
X280735462Y-204404881D02*
X280773557Y-204442976D01*
X280773557Y-204442976D02*
X280849748Y-204481071D01*
X280849748Y-204481071D02*
X281040224Y-204481071D01*
X281040224Y-204481071D02*
X281116414Y-204442976D01*
X281116414Y-204442976D02*
X281154510Y-204404881D01*
X281154510Y-204404881D02*
X281192605Y-204328690D01*
X281192605Y-204328690D02*
X281192605Y-204138214D01*
X281192605Y-204138214D02*
X281154510Y-204062024D01*
X281154510Y-204062024D02*
X281116414Y-204023928D01*
D10*
X283083569Y-207700595D02*
X282083569Y-207700595D01*
X283083569Y-208272023D02*
X282512140Y-207843452D01*
X282083569Y-208272023D02*
X282654997Y-207700595D01*
X90886069Y-213123392D02*
X90886069Y-212551964D01*
X90886069Y-212837678D02*
X89886069Y-212837678D01*
X89886069Y-212837678D02*
X90028926Y-212742440D01*
X90028926Y-212742440D02*
X90124164Y-212647202D01*
X90124164Y-212647202D02*
X90171783Y-212551964D01*
X90886069Y-213551964D02*
X89886069Y-213551964D01*
X89886069Y-213551964D02*
X90886069Y-214123392D01*
X90886069Y-214123392D02*
X89886069Y-214123392D01*
X90219402Y-215028154D02*
X90886069Y-215028154D01*
X89838450Y-214790059D02*
X90552735Y-214551964D01*
X90552735Y-214551964D02*
X90552735Y-215171011D01*
X90886069Y-216075773D02*
X90886069Y-215504345D01*
X90886069Y-215790059D02*
X89886069Y-215790059D01*
X89886069Y-215790059D02*
X90028926Y-215694821D01*
X90028926Y-215694821D02*
X90124164Y-215599583D01*
X90124164Y-215599583D02*
X90171783Y-215504345D01*
X90219402Y-216932916D02*
X90886069Y-216932916D01*
X89838450Y-216694821D02*
X90552735Y-216456726D01*
X90552735Y-216456726D02*
X90552735Y-217075773D01*
X90314640Y-217599583D02*
X90267021Y-217504345D01*
X90267021Y-217504345D02*
X90219402Y-217456726D01*
X90219402Y-217456726D02*
X90124164Y-217409107D01*
X90124164Y-217409107D02*
X90076545Y-217409107D01*
X90076545Y-217409107D02*
X89981307Y-217456726D01*
X89981307Y-217456726D02*
X89933688Y-217504345D01*
X89933688Y-217504345D02*
X89886069Y-217599583D01*
X89886069Y-217599583D02*
X89886069Y-217790059D01*
X89886069Y-217790059D02*
X89933688Y-217885297D01*
X89933688Y-217885297D02*
X89981307Y-217932916D01*
X89981307Y-217932916D02*
X90076545Y-217980535D01*
X90076545Y-217980535D02*
X90124164Y-217980535D01*
X90124164Y-217980535D02*
X90219402Y-217932916D01*
X90219402Y-217932916D02*
X90267021Y-217885297D01*
X90267021Y-217885297D02*
X90314640Y-217790059D01*
X90314640Y-217790059D02*
X90314640Y-217599583D01*
X90314640Y-217599583D02*
X90362259Y-217504345D01*
X90362259Y-217504345D02*
X90409878Y-217456726D01*
X90409878Y-217456726D02*
X90505116Y-217409107D01*
X90505116Y-217409107D02*
X90695592Y-217409107D01*
X90695592Y-217409107D02*
X90790830Y-217456726D01*
X90790830Y-217456726D02*
X90838450Y-217504345D01*
X90838450Y-217504345D02*
X90886069Y-217599583D01*
X90886069Y-217599583D02*
X90886069Y-217790059D01*
X90886069Y-217790059D02*
X90838450Y-217885297D01*
X90838450Y-217885297D02*
X90790830Y-217932916D01*
X90790830Y-217932916D02*
X90695592Y-217980535D01*
X90695592Y-217980535D02*
X90505116Y-217980535D01*
X90505116Y-217980535D02*
X90409878Y-217932916D01*
X90409878Y-217932916D02*
X90362259Y-217885297D01*
X90362259Y-217885297D02*
X90314640Y-217790059D01*
D11*
X92915105Y-213994821D02*
X92115105Y-213994821D01*
X92115105Y-213994821D02*
X92115105Y-214185297D01*
X92115105Y-214185297D02*
X92153200Y-214299583D01*
X92153200Y-214299583D02*
X92229390Y-214375773D01*
X92229390Y-214375773D02*
X92305581Y-214413868D01*
X92305581Y-214413868D02*
X92457962Y-214451964D01*
X92457962Y-214451964D02*
X92572248Y-214451964D01*
X92572248Y-214451964D02*
X92724629Y-214413868D01*
X92724629Y-214413868D02*
X92800819Y-214375773D01*
X92800819Y-214375773D02*
X92877010Y-214299583D01*
X92877010Y-214299583D02*
X92915105Y-214185297D01*
X92915105Y-214185297D02*
X92915105Y-213994821D01*
X92915105Y-215213868D02*
X92915105Y-214756725D01*
X92915105Y-214985297D02*
X92115105Y-214985297D01*
X92115105Y-214985297D02*
X92229390Y-214909106D01*
X92229390Y-214909106D02*
X92305581Y-214832916D01*
X92305581Y-214832916D02*
X92343676Y-214756725D01*
X92115105Y-215899583D02*
X92115105Y-215747202D01*
X92115105Y-215747202D02*
X92153200Y-215671011D01*
X92153200Y-215671011D02*
X92191295Y-215632916D01*
X92191295Y-215632916D02*
X92305581Y-215556726D01*
X92305581Y-215556726D02*
X92457962Y-215518630D01*
X92457962Y-215518630D02*
X92762724Y-215518630D01*
X92762724Y-215518630D02*
X92838914Y-215556726D01*
X92838914Y-215556726D02*
X92877010Y-215594821D01*
X92877010Y-215594821D02*
X92915105Y-215671011D01*
X92915105Y-215671011D02*
X92915105Y-215823392D01*
X92915105Y-215823392D02*
X92877010Y-215899583D01*
X92877010Y-215899583D02*
X92838914Y-215937678D01*
X92838914Y-215937678D02*
X92762724Y-215975773D01*
X92762724Y-215975773D02*
X92572248Y-215975773D01*
X92572248Y-215975773D02*
X92496057Y-215937678D01*
X92496057Y-215937678D02*
X92457962Y-215899583D01*
X92457962Y-215899583D02*
X92419867Y-215823392D01*
X92419867Y-215823392D02*
X92419867Y-215671011D01*
X92419867Y-215671011D02*
X92457962Y-215594821D01*
X92457962Y-215594821D02*
X92496057Y-215556726D01*
X92496057Y-215556726D02*
X92572248Y-215518630D01*
D10*
X94806069Y-218814345D02*
X93806069Y-218814345D01*
X94806069Y-219385773D02*
X94234640Y-218957202D01*
X93806069Y-219385773D02*
X94377497Y-218814345D01*
X317263569Y-202009642D02*
X317263569Y-201438214D01*
X317263569Y-201723928D02*
X316263569Y-201723928D01*
X316263569Y-201723928D02*
X316406426Y-201628690D01*
X316406426Y-201628690D02*
X316501664Y-201533452D01*
X316501664Y-201533452D02*
X316549283Y-201438214D01*
X317263569Y-202438214D02*
X316263569Y-202438214D01*
X316263569Y-202438214D02*
X317263569Y-203009642D01*
X317263569Y-203009642D02*
X316263569Y-203009642D01*
X316596902Y-203914404D02*
X317263569Y-203914404D01*
X316215950Y-203676309D02*
X316930235Y-203438214D01*
X316930235Y-203438214D02*
X316930235Y-204057261D01*
X317263569Y-204962023D02*
X317263569Y-204390595D01*
X317263569Y-204676309D02*
X316263569Y-204676309D01*
X316263569Y-204676309D02*
X316406426Y-204581071D01*
X316406426Y-204581071D02*
X316501664Y-204485833D01*
X316501664Y-204485833D02*
X316549283Y-204390595D01*
X316596902Y-205819166D02*
X317263569Y-205819166D01*
X316215950Y-205581071D02*
X316930235Y-205342976D01*
X316930235Y-205342976D02*
X316930235Y-205962023D01*
X316692140Y-206485833D02*
X316644521Y-206390595D01*
X316644521Y-206390595D02*
X316596902Y-206342976D01*
X316596902Y-206342976D02*
X316501664Y-206295357D01*
X316501664Y-206295357D02*
X316454045Y-206295357D01*
X316454045Y-206295357D02*
X316358807Y-206342976D01*
X316358807Y-206342976D02*
X316311188Y-206390595D01*
X316311188Y-206390595D02*
X316263569Y-206485833D01*
X316263569Y-206485833D02*
X316263569Y-206676309D01*
X316263569Y-206676309D02*
X316311188Y-206771547D01*
X316311188Y-206771547D02*
X316358807Y-206819166D01*
X316358807Y-206819166D02*
X316454045Y-206866785D01*
X316454045Y-206866785D02*
X316501664Y-206866785D01*
X316501664Y-206866785D02*
X316596902Y-206819166D01*
X316596902Y-206819166D02*
X316644521Y-206771547D01*
X316644521Y-206771547D02*
X316692140Y-206676309D01*
X316692140Y-206676309D02*
X316692140Y-206485833D01*
X316692140Y-206485833D02*
X316739759Y-206390595D01*
X316739759Y-206390595D02*
X316787378Y-206342976D01*
X316787378Y-206342976D02*
X316882616Y-206295357D01*
X316882616Y-206295357D02*
X317073092Y-206295357D01*
X317073092Y-206295357D02*
X317168330Y-206342976D01*
X317168330Y-206342976D02*
X317215950Y-206390595D01*
X317215950Y-206390595D02*
X317263569Y-206485833D01*
X317263569Y-206485833D02*
X317263569Y-206676309D01*
X317263569Y-206676309D02*
X317215950Y-206771547D01*
X317215950Y-206771547D02*
X317168330Y-206819166D01*
X317168330Y-206819166D02*
X317073092Y-206866785D01*
X317073092Y-206866785D02*
X316882616Y-206866785D01*
X316882616Y-206866785D02*
X316787378Y-206819166D01*
X316787378Y-206819166D02*
X316739759Y-206771547D01*
X316739759Y-206771547D02*
X316692140Y-206676309D01*
X321183569Y-207700595D02*
X320183569Y-207700595D01*
X321183569Y-208272023D02*
X320612140Y-207843452D01*
X320183569Y-208272023D02*
X320754997Y-207700595D01*
D11*
X319292605Y-203262024D02*
X318492605Y-203262024D01*
X318492605Y-203262024D02*
X318492605Y-203452500D01*
X318492605Y-203452500D02*
X318530700Y-203566786D01*
X318530700Y-203566786D02*
X318606890Y-203642976D01*
X318606890Y-203642976D02*
X318683081Y-203681071D01*
X318683081Y-203681071D02*
X318835462Y-203719167D01*
X318835462Y-203719167D02*
X318949748Y-203719167D01*
X318949748Y-203719167D02*
X319102129Y-203681071D01*
X319102129Y-203681071D02*
X319178319Y-203642976D01*
X319178319Y-203642976D02*
X319254510Y-203566786D01*
X319254510Y-203566786D02*
X319292605Y-203452500D01*
X319292605Y-203452500D02*
X319292605Y-203262024D01*
X318492605Y-204404881D02*
X318492605Y-204252500D01*
X318492605Y-204252500D02*
X318530700Y-204176309D01*
X318530700Y-204176309D02*
X318568795Y-204138214D01*
X318568795Y-204138214D02*
X318683081Y-204062024D01*
X318683081Y-204062024D02*
X318835462Y-204023928D01*
X318835462Y-204023928D02*
X319140224Y-204023928D01*
X319140224Y-204023928D02*
X319216414Y-204062024D01*
X319216414Y-204062024D02*
X319254510Y-204100119D01*
X319254510Y-204100119D02*
X319292605Y-204176309D01*
X319292605Y-204176309D02*
X319292605Y-204328690D01*
X319292605Y-204328690D02*
X319254510Y-204404881D01*
X319254510Y-204404881D02*
X319216414Y-204442976D01*
X319216414Y-204442976D02*
X319140224Y-204481071D01*
X319140224Y-204481071D02*
X318949748Y-204481071D01*
X318949748Y-204481071D02*
X318873557Y-204442976D01*
X318873557Y-204442976D02*
X318835462Y-204404881D01*
X318835462Y-204404881D02*
X318797367Y-204328690D01*
X318797367Y-204328690D02*
X318797367Y-204176309D01*
X318797367Y-204176309D02*
X318835462Y-204100119D01*
X318835462Y-204100119D02*
X318873557Y-204062024D01*
X318873557Y-204062024D02*
X318949748Y-204023928D01*
D10*
X164863569Y-168672142D02*
X164863569Y-168100714D01*
X164863569Y-168386428D02*
X163863569Y-168386428D01*
X163863569Y-168386428D02*
X164006426Y-168291190D01*
X164006426Y-168291190D02*
X164101664Y-168195952D01*
X164101664Y-168195952D02*
X164149283Y-168100714D01*
X164863569Y-169100714D02*
X163863569Y-169100714D01*
X163863569Y-169100714D02*
X164863569Y-169672142D01*
X164863569Y-169672142D02*
X163863569Y-169672142D01*
X164196902Y-170576904D02*
X164863569Y-170576904D01*
X163815950Y-170338809D02*
X164530235Y-170100714D01*
X164530235Y-170100714D02*
X164530235Y-170719761D01*
X164863569Y-171624523D02*
X164863569Y-171053095D01*
X164863569Y-171338809D02*
X163863569Y-171338809D01*
X163863569Y-171338809D02*
X164006426Y-171243571D01*
X164006426Y-171243571D02*
X164101664Y-171148333D01*
X164101664Y-171148333D02*
X164149283Y-171053095D01*
X164196902Y-172481666D02*
X164863569Y-172481666D01*
X163815950Y-172243571D02*
X164530235Y-172005476D01*
X164530235Y-172005476D02*
X164530235Y-172624523D01*
X164292140Y-173148333D02*
X164244521Y-173053095D01*
X164244521Y-173053095D02*
X164196902Y-173005476D01*
X164196902Y-173005476D02*
X164101664Y-172957857D01*
X164101664Y-172957857D02*
X164054045Y-172957857D01*
X164054045Y-172957857D02*
X163958807Y-173005476D01*
X163958807Y-173005476D02*
X163911188Y-173053095D01*
X163911188Y-173053095D02*
X163863569Y-173148333D01*
X163863569Y-173148333D02*
X163863569Y-173338809D01*
X163863569Y-173338809D02*
X163911188Y-173434047D01*
X163911188Y-173434047D02*
X163958807Y-173481666D01*
X163958807Y-173481666D02*
X164054045Y-173529285D01*
X164054045Y-173529285D02*
X164101664Y-173529285D01*
X164101664Y-173529285D02*
X164196902Y-173481666D01*
X164196902Y-173481666D02*
X164244521Y-173434047D01*
X164244521Y-173434047D02*
X164292140Y-173338809D01*
X164292140Y-173338809D02*
X164292140Y-173148333D01*
X164292140Y-173148333D02*
X164339759Y-173053095D01*
X164339759Y-173053095D02*
X164387378Y-173005476D01*
X164387378Y-173005476D02*
X164482616Y-172957857D01*
X164482616Y-172957857D02*
X164673092Y-172957857D01*
X164673092Y-172957857D02*
X164768330Y-173005476D01*
X164768330Y-173005476D02*
X164815950Y-173053095D01*
X164815950Y-173053095D02*
X164863569Y-173148333D01*
X164863569Y-173148333D02*
X164863569Y-173338809D01*
X164863569Y-173338809D02*
X164815950Y-173434047D01*
X164815950Y-173434047D02*
X164768330Y-173481666D01*
X164768330Y-173481666D02*
X164673092Y-173529285D01*
X164673092Y-173529285D02*
X164482616Y-173529285D01*
X164482616Y-173529285D02*
X164387378Y-173481666D01*
X164387378Y-173481666D02*
X164339759Y-173434047D01*
X164339759Y-173434047D02*
X164292140Y-173338809D01*
D11*
X166892605Y-169924524D02*
X166092605Y-169924524D01*
X166092605Y-169924524D02*
X166092605Y-170115000D01*
X166092605Y-170115000D02*
X166130700Y-170229286D01*
X166130700Y-170229286D02*
X166206890Y-170305476D01*
X166206890Y-170305476D02*
X166283081Y-170343571D01*
X166283081Y-170343571D02*
X166435462Y-170381667D01*
X166435462Y-170381667D02*
X166549748Y-170381667D01*
X166549748Y-170381667D02*
X166702129Y-170343571D01*
X166702129Y-170343571D02*
X166778319Y-170305476D01*
X166778319Y-170305476D02*
X166854510Y-170229286D01*
X166854510Y-170229286D02*
X166892605Y-170115000D01*
X166892605Y-170115000D02*
X166892605Y-169924524D01*
X166892605Y-170762619D02*
X166892605Y-170915000D01*
X166892605Y-170915000D02*
X166854510Y-170991190D01*
X166854510Y-170991190D02*
X166816414Y-171029286D01*
X166816414Y-171029286D02*
X166702129Y-171105476D01*
X166702129Y-171105476D02*
X166549748Y-171143571D01*
X166549748Y-171143571D02*
X166244986Y-171143571D01*
X166244986Y-171143571D02*
X166168795Y-171105476D01*
X166168795Y-171105476D02*
X166130700Y-171067381D01*
X166130700Y-171067381D02*
X166092605Y-170991190D01*
X166092605Y-170991190D02*
X166092605Y-170838809D01*
X166092605Y-170838809D02*
X166130700Y-170762619D01*
X166130700Y-170762619D02*
X166168795Y-170724524D01*
X166168795Y-170724524D02*
X166244986Y-170686428D01*
X166244986Y-170686428D02*
X166435462Y-170686428D01*
X166435462Y-170686428D02*
X166511652Y-170724524D01*
X166511652Y-170724524D02*
X166549748Y-170762619D01*
X166549748Y-170762619D02*
X166587843Y-170838809D01*
X166587843Y-170838809D02*
X166587843Y-170991190D01*
X166587843Y-170991190D02*
X166549748Y-171067381D01*
X166549748Y-171067381D02*
X166511652Y-171105476D01*
X166511652Y-171105476D02*
X166435462Y-171143571D01*
D10*
X168783569Y-174363095D02*
X167783569Y-174363095D01*
X168783569Y-174934523D02*
X168212140Y-174505952D01*
X167783569Y-174934523D02*
X168354997Y-174363095D01*
D12*
G04 #@! TO.C,D17*
X110601250Y-213266250D02*
X110601250Y-217266250D01*
X110601250Y-216566250D02*
X112601250Y-216566250D01*
X110601250Y-216666250D02*
X112601250Y-216666250D01*
X110601250Y-216766250D02*
X112601250Y-216766250D01*
X110601250Y-217266250D02*
X112601250Y-217266250D01*
X111601250Y-213266250D02*
X111601250Y-211456250D01*
X111601250Y-217266250D02*
X111601250Y-219076250D01*
X112601250Y-213266250D02*
X110601250Y-213266250D01*
X112601250Y-217266250D02*
X112601250Y-213266250D01*
G04 #@! TO.C,D11*
X260778750Y-168815000D02*
X260778750Y-172815000D01*
X260778750Y-172115000D02*
X262778750Y-172115000D01*
X260778750Y-172215000D02*
X262778750Y-172215000D01*
X260778750Y-172315000D02*
X262778750Y-172315000D01*
X260778750Y-172815000D02*
X262778750Y-172815000D01*
X261778750Y-168815000D02*
X261778750Y-167005000D01*
X261778750Y-172815000D02*
X261778750Y-174625000D01*
X262778750Y-168815000D02*
X260778750Y-168815000D01*
X262778750Y-172815000D02*
X262778750Y-168815000D01*
G04 #@! TO.C,D4*
X241728750Y-202152500D02*
X241728750Y-206152500D01*
X241728750Y-205452500D02*
X243728750Y-205452500D01*
X241728750Y-205552500D02*
X243728750Y-205552500D01*
X241728750Y-205652500D02*
X243728750Y-205652500D01*
X241728750Y-206152500D02*
X243728750Y-206152500D01*
X242728750Y-202152500D02*
X242728750Y-200342500D01*
X242728750Y-206152500D02*
X242728750Y-207962500D01*
X243728750Y-202152500D02*
X241728750Y-202152500D01*
X243728750Y-206152500D02*
X243728750Y-202152500D01*
G04 #@! TO.C,D10*
X203628750Y-168815000D02*
X203628750Y-172815000D01*
X203628750Y-172115000D02*
X205628750Y-172115000D01*
X203628750Y-172215000D02*
X205628750Y-172215000D01*
X203628750Y-172315000D02*
X205628750Y-172315000D01*
X203628750Y-172815000D02*
X205628750Y-172815000D01*
X204628750Y-168815000D02*
X204628750Y-167005000D01*
X204628750Y-172815000D02*
X204628750Y-174625000D01*
X205628750Y-168815000D02*
X203628750Y-168815000D01*
X205628750Y-172815000D02*
X205628750Y-168815000D01*
G04 #@! TO.C,D14*
X91551250Y-194216250D02*
X91551250Y-198216250D01*
X91551250Y-197516250D02*
X93551250Y-197516250D01*
X91551250Y-197616250D02*
X93551250Y-197616250D01*
X91551250Y-197716250D02*
X93551250Y-197716250D01*
X91551250Y-198216250D02*
X93551250Y-198216250D01*
X92551250Y-194216250D02*
X92551250Y-192406250D01*
X92551250Y-198216250D02*
X92551250Y-200026250D01*
X93551250Y-194216250D02*
X91551250Y-194216250D01*
X93551250Y-198216250D02*
X93551250Y-194216250D01*
G04 #@! TO.C,D8*
X375078750Y-202152500D02*
X375078750Y-206152500D01*
X375078750Y-205452500D02*
X377078750Y-205452500D01*
X375078750Y-205552500D02*
X377078750Y-205552500D01*
X375078750Y-205652500D02*
X377078750Y-205652500D01*
X375078750Y-206152500D02*
X377078750Y-206152500D01*
X376078750Y-202152500D02*
X376078750Y-200342500D01*
X376078750Y-206152500D02*
X376078750Y-207962500D01*
X377078750Y-202152500D02*
X375078750Y-202152500D01*
X377078750Y-206152500D02*
X377078750Y-202152500D01*
G04 #@! TO.C,D15*
X110601250Y-194216250D02*
X110601250Y-198216250D01*
X110601250Y-197516250D02*
X112601250Y-197516250D01*
X110601250Y-197616250D02*
X112601250Y-197616250D01*
X110601250Y-197716250D02*
X112601250Y-197716250D01*
X110601250Y-198216250D02*
X112601250Y-198216250D01*
X111601250Y-194216250D02*
X111601250Y-192406250D01*
X111601250Y-198216250D02*
X111601250Y-200026250D01*
X112601250Y-194216250D02*
X110601250Y-194216250D01*
X112601250Y-198216250D02*
X112601250Y-194216250D01*
G04 #@! TO.C,D2*
X184578750Y-202152500D02*
X184578750Y-206152500D01*
X184578750Y-205452500D02*
X186578750Y-205452500D01*
X184578750Y-205552500D02*
X186578750Y-205552500D01*
X184578750Y-205652500D02*
X186578750Y-205652500D01*
X184578750Y-206152500D02*
X186578750Y-206152500D01*
X185578750Y-202152500D02*
X185578750Y-200342500D01*
X185578750Y-206152500D02*
X185578750Y-207962500D01*
X186578750Y-202152500D02*
X184578750Y-202152500D01*
X186578750Y-206152500D02*
X186578750Y-202152500D01*
G04 #@! TO.C,D3*
X222678750Y-202152500D02*
X222678750Y-206152500D01*
X222678750Y-205452500D02*
X224678750Y-205452500D01*
X222678750Y-205552500D02*
X224678750Y-205552500D01*
X222678750Y-205652500D02*
X224678750Y-205652500D01*
X222678750Y-206152500D02*
X224678750Y-206152500D01*
X223678750Y-202152500D02*
X223678750Y-200342500D01*
X223678750Y-206152500D02*
X223678750Y-207962500D01*
X224678750Y-202152500D02*
X222678750Y-202152500D01*
X224678750Y-206152500D02*
X224678750Y-202152500D01*
G04 #@! TO.C,D12*
X298878750Y-168815000D02*
X298878750Y-172815000D01*
X298878750Y-172115000D02*
X300878750Y-172115000D01*
X298878750Y-172215000D02*
X300878750Y-172215000D01*
X298878750Y-172315000D02*
X300878750Y-172315000D01*
X298878750Y-172815000D02*
X300878750Y-172815000D01*
X299878750Y-168815000D02*
X299878750Y-167005000D01*
X299878750Y-172815000D02*
X299878750Y-174625000D01*
X300878750Y-168815000D02*
X298878750Y-168815000D01*
X300878750Y-172815000D02*
X300878750Y-168815000D01*
G04 #@! TO.C,D1*
X146478750Y-202152500D02*
X146478750Y-206152500D01*
X146478750Y-205452500D02*
X148478750Y-205452500D01*
X146478750Y-205552500D02*
X148478750Y-205552500D01*
X146478750Y-205652500D02*
X148478750Y-205652500D01*
X146478750Y-206152500D02*
X148478750Y-206152500D01*
X147478750Y-202152500D02*
X147478750Y-200342500D01*
X147478750Y-206152500D02*
X147478750Y-207962500D01*
X148478750Y-202152500D02*
X146478750Y-202152500D01*
X148478750Y-206152500D02*
X148478750Y-202152500D01*
G04 #@! TO.C,D7*
X356028750Y-202152500D02*
X356028750Y-206152500D01*
X356028750Y-205452500D02*
X358028750Y-205452500D01*
X356028750Y-205552500D02*
X358028750Y-205552500D01*
X356028750Y-205652500D02*
X358028750Y-205652500D01*
X356028750Y-206152500D02*
X358028750Y-206152500D01*
X357028750Y-202152500D02*
X357028750Y-200342500D01*
X357028750Y-206152500D02*
X357028750Y-207962500D01*
X358028750Y-202152500D02*
X356028750Y-202152500D01*
X358028750Y-206152500D02*
X358028750Y-202152500D01*
G04 #@! TO.C,D13*
X336978750Y-168815000D02*
X336978750Y-172815000D01*
X336978750Y-172115000D02*
X338978750Y-172115000D01*
X336978750Y-172215000D02*
X338978750Y-172215000D01*
X336978750Y-172315000D02*
X338978750Y-172315000D01*
X336978750Y-172815000D02*
X338978750Y-172815000D01*
X337978750Y-168815000D02*
X337978750Y-167005000D01*
X337978750Y-172815000D02*
X337978750Y-174625000D01*
X338978750Y-168815000D02*
X336978750Y-168815000D01*
X338978750Y-172815000D02*
X338978750Y-168815000D01*
G04 #@! TO.C,D5*
X279828750Y-202152500D02*
X279828750Y-206152500D01*
X279828750Y-205452500D02*
X281828750Y-205452500D01*
X279828750Y-205552500D02*
X281828750Y-205552500D01*
X279828750Y-205652500D02*
X281828750Y-205652500D01*
X279828750Y-206152500D02*
X281828750Y-206152500D01*
X280828750Y-202152500D02*
X280828750Y-200342500D01*
X280828750Y-206152500D02*
X280828750Y-207962500D01*
X281828750Y-202152500D02*
X279828750Y-202152500D01*
X281828750Y-206152500D02*
X281828750Y-202152500D01*
G04 #@! TO.C,D16*
X91551250Y-213266250D02*
X91551250Y-217266250D01*
X91551250Y-216566250D02*
X93551250Y-216566250D01*
X91551250Y-216666250D02*
X93551250Y-216666250D01*
X91551250Y-216766250D02*
X93551250Y-216766250D01*
X91551250Y-217266250D02*
X93551250Y-217266250D01*
X92551250Y-213266250D02*
X92551250Y-211456250D01*
X92551250Y-217266250D02*
X92551250Y-219076250D01*
X93551250Y-213266250D02*
X91551250Y-213266250D01*
X93551250Y-217266250D02*
X93551250Y-213266250D01*
G04 #@! TO.C,D6*
X317928750Y-202152500D02*
X317928750Y-206152500D01*
X317928750Y-205452500D02*
X319928750Y-205452500D01*
X317928750Y-205552500D02*
X319928750Y-205552500D01*
X317928750Y-205652500D02*
X319928750Y-205652500D01*
X317928750Y-206152500D02*
X319928750Y-206152500D01*
X318928750Y-202152500D02*
X318928750Y-200342500D01*
X318928750Y-206152500D02*
X318928750Y-207962500D01*
X319928750Y-202152500D02*
X317928750Y-202152500D01*
X319928750Y-206152500D02*
X319928750Y-202152500D01*
G04 #@! TO.C,D9*
X165528750Y-168815000D02*
X165528750Y-172815000D01*
X165528750Y-172115000D02*
X167528750Y-172115000D01*
X165528750Y-172215000D02*
X167528750Y-172215000D01*
X165528750Y-172315000D02*
X167528750Y-172315000D01*
X165528750Y-172815000D02*
X167528750Y-172815000D01*
X166528750Y-168815000D02*
X166528750Y-167005000D01*
X166528750Y-172815000D02*
X166528750Y-174625000D01*
X167528750Y-168815000D02*
X165528750Y-168815000D01*
X167528750Y-172815000D02*
X167528750Y-168815000D01*
G04 #@! TD*
M02*
