G04 #@! TF.GenerationSoftware,KiCad,Pcbnew,8.0.3*
G04 #@! TF.CreationDate,2024-07-07T23:06:26-07:00*
G04 #@! TF.ProjectId,melokey,6d656c6f-6b65-4792-9e6b-696361645f70,rev?*
G04 #@! TF.SameCoordinates,Original*
G04 #@! TF.FileFunction,Legend,Top*
G04 #@! TF.FilePolarity,Positive*
%FSLAX46Y46*%
G04 Gerber Fmt 4.6, Leading zero omitted, Abs format (unit mm)*
G04 Created by KiCad (PCBNEW 8.0.3) date 2024-07-07 23:06:26*
%MOMM*%
%LPD*%
G01*
G04 APERTURE LIST*
G04 Aperture macros list*
%AMRoundRect*
0 Rectangle with rounded corners*
0 $1 Rounding radius*
0 $2 $3 $4 $5 $6 $7 $8 $9 X,Y pos of 4 corners*
0 Add a 4 corners polygon primitive as box body*
4,1,4,$2,$3,$4,$5,$6,$7,$8,$9,$2,$3,0*
0 Add four circle primitives for the rounded corners*
1,1,$1+$1,$2,$3*
1,1,$1+$1,$4,$5*
1,1,$1+$1,$6,$7*
1,1,$1+$1,$8,$9*
0 Add four rect primitives between the rounded corners*
20,1,$1+$1,$2,$3,$4,$5,0*
20,1,$1+$1,$4,$5,$6,$7,0*
20,1,$1+$1,$6,$7,$8,$9,0*
20,1,$1+$1,$8,$9,$2,$3,0*%
G04 Aperture macros list end*
%ADD10C,0.150000*%
%ADD11C,0.120000*%
%ADD12C,0.127000*%
%ADD13C,0.200000*%
%ADD14C,1.750000*%
%ADD15C,4.000000*%
%ADD16C,2.500000*%
%ADD17RoundRect,0.102000X-0.900000X-0.410000X0.900000X-0.410000X0.900000X0.410000X-0.900000X0.410000X0*%
%ADD18C,3.048000*%
%ADD19C,3.987800*%
%ADD20RoundRect,0.102000X0.570000X-0.570000X0.570000X0.570000X-0.570000X0.570000X-0.570000X-0.570000X0*%
%ADD21C,1.344000*%
%ADD22O,1.700000X1.700000*%
%ADD23R,1.700000X3.500000*%
%ADD24R,1.700000X1.700000*%
%ADD25R,3.500000X1.700000*%
%ADD26R,1.600000X1.600000*%
%ADD27O,1.600000X1.600000*%
G04 APERTURE END LIST*
D10*
X155670417Y-164174700D02*
X155813274Y-164222319D01*
X155813274Y-164222319D02*
X156051369Y-164222319D01*
X156051369Y-164222319D02*
X156146607Y-164174700D01*
X156146607Y-164174700D02*
X156194226Y-164127080D01*
X156194226Y-164127080D02*
X156241845Y-164031842D01*
X156241845Y-164031842D02*
X156241845Y-163936604D01*
X156241845Y-163936604D02*
X156194226Y-163841366D01*
X156194226Y-163841366D02*
X156146607Y-163793747D01*
X156146607Y-163793747D02*
X156051369Y-163746128D01*
X156051369Y-163746128D02*
X155860893Y-163698509D01*
X155860893Y-163698509D02*
X155765655Y-163650890D01*
X155765655Y-163650890D02*
X155718036Y-163603271D01*
X155718036Y-163603271D02*
X155670417Y-163508033D01*
X155670417Y-163508033D02*
X155670417Y-163412795D01*
X155670417Y-163412795D02*
X155718036Y-163317557D01*
X155718036Y-163317557D02*
X155765655Y-163269938D01*
X155765655Y-163269938D02*
X155860893Y-163222319D01*
X155860893Y-163222319D02*
X156098988Y-163222319D01*
X156098988Y-163222319D02*
X156241845Y-163269938D01*
X156575179Y-163222319D02*
X156813274Y-164222319D01*
X156813274Y-164222319D02*
X157003750Y-163508033D01*
X157003750Y-163508033D02*
X157194226Y-164222319D01*
X157194226Y-164222319D02*
X157432322Y-163222319D01*
X157860893Y-164222319D02*
X158051369Y-164222319D01*
X158051369Y-164222319D02*
X158146607Y-164174700D01*
X158146607Y-164174700D02*
X158194226Y-164127080D01*
X158194226Y-164127080D02*
X158289464Y-163984223D01*
X158289464Y-163984223D02*
X158337083Y-163793747D01*
X158337083Y-163793747D02*
X158337083Y-163412795D01*
X158337083Y-163412795D02*
X158289464Y-163317557D01*
X158289464Y-163317557D02*
X158241845Y-163269938D01*
X158241845Y-163269938D02*
X158146607Y-163222319D01*
X158146607Y-163222319D02*
X157956131Y-163222319D01*
X157956131Y-163222319D02*
X157860893Y-163269938D01*
X157860893Y-163269938D02*
X157813274Y-163317557D01*
X157813274Y-163317557D02*
X157765655Y-163412795D01*
X157765655Y-163412795D02*
X157765655Y-163650890D01*
X157765655Y-163650890D02*
X157813274Y-163746128D01*
X157813274Y-163746128D02*
X157860893Y-163793747D01*
X157860893Y-163793747D02*
X157956131Y-163841366D01*
X157956131Y-163841366D02*
X158146607Y-163841366D01*
X158146607Y-163841366D02*
X158241845Y-163793747D01*
X158241845Y-163793747D02*
X158289464Y-163746128D01*
X158289464Y-163746128D02*
X158337083Y-163650890D01*
X100266726Y-208625950D02*
X100409583Y-208673569D01*
X100409583Y-208673569D02*
X100647678Y-208673569D01*
X100647678Y-208673569D02*
X100742916Y-208625950D01*
X100742916Y-208625950D02*
X100790535Y-208578330D01*
X100790535Y-208578330D02*
X100838154Y-208483092D01*
X100838154Y-208483092D02*
X100838154Y-208387854D01*
X100838154Y-208387854D02*
X100790535Y-208292616D01*
X100790535Y-208292616D02*
X100742916Y-208244997D01*
X100742916Y-208244997D02*
X100647678Y-208197378D01*
X100647678Y-208197378D02*
X100457202Y-208149759D01*
X100457202Y-208149759D02*
X100361964Y-208102140D01*
X100361964Y-208102140D02*
X100314345Y-208054521D01*
X100314345Y-208054521D02*
X100266726Y-207959283D01*
X100266726Y-207959283D02*
X100266726Y-207864045D01*
X100266726Y-207864045D02*
X100314345Y-207768807D01*
X100314345Y-207768807D02*
X100361964Y-207721188D01*
X100361964Y-207721188D02*
X100457202Y-207673569D01*
X100457202Y-207673569D02*
X100695297Y-207673569D01*
X100695297Y-207673569D02*
X100838154Y-207721188D01*
X101171488Y-207673569D02*
X101409583Y-208673569D01*
X101409583Y-208673569D02*
X101600059Y-207959283D01*
X101600059Y-207959283D02*
X101790535Y-208673569D01*
X101790535Y-208673569D02*
X102028631Y-207673569D01*
X102933392Y-208673569D02*
X102361964Y-208673569D01*
X102647678Y-208673569D02*
X102647678Y-207673569D01*
X102647678Y-207673569D02*
X102552440Y-207816426D01*
X102552440Y-207816426D02*
X102457202Y-207911664D01*
X102457202Y-207911664D02*
X102361964Y-207959283D01*
X103266726Y-207673569D02*
X103933392Y-207673569D01*
X103933392Y-207673569D02*
X103504821Y-208673569D01*
X365624821Y-226215138D02*
X365624821Y-224715138D01*
X365624821Y-224715138D02*
X365981964Y-224715138D01*
X365981964Y-224715138D02*
X366196250Y-224786567D01*
X366196250Y-224786567D02*
X366339107Y-224929424D01*
X366339107Y-224929424D02*
X366410536Y-225072281D01*
X366410536Y-225072281D02*
X366481964Y-225357995D01*
X366481964Y-225357995D02*
X366481964Y-225572281D01*
X366481964Y-225572281D02*
X366410536Y-225857995D01*
X366410536Y-225857995D02*
X366339107Y-226000852D01*
X366339107Y-226000852D02*
X366196250Y-226143710D01*
X366196250Y-226143710D02*
X365981964Y-226215138D01*
X365981964Y-226215138D02*
X365624821Y-226215138D01*
X367053393Y-224857995D02*
X367124821Y-224786567D01*
X367124821Y-224786567D02*
X367267679Y-224715138D01*
X367267679Y-224715138D02*
X367624821Y-224715138D01*
X367624821Y-224715138D02*
X367767679Y-224786567D01*
X367767679Y-224786567D02*
X367839107Y-224857995D01*
X367839107Y-224857995D02*
X367910536Y-225000852D01*
X367910536Y-225000852D02*
X367910536Y-225143710D01*
X367910536Y-225143710D02*
X367839107Y-225357995D01*
X367839107Y-225357995D02*
X366981964Y-226215138D01*
X366981964Y-226215138D02*
X367910536Y-226215138D01*
X369267678Y-224715138D02*
X368553392Y-224715138D01*
X368553392Y-224715138D02*
X368481964Y-225429424D01*
X368481964Y-225429424D02*
X368553392Y-225357995D01*
X368553392Y-225357995D02*
X368696250Y-225286567D01*
X368696250Y-225286567D02*
X369053392Y-225286567D01*
X369053392Y-225286567D02*
X369196250Y-225357995D01*
X369196250Y-225357995D02*
X369267678Y-225429424D01*
X369267678Y-225429424D02*
X369339107Y-225572281D01*
X369339107Y-225572281D02*
X369339107Y-225929424D01*
X369339107Y-225929424D02*
X369267678Y-226072281D01*
X369267678Y-226072281D02*
X369196250Y-226143710D01*
X369196250Y-226143710D02*
X369053392Y-226215138D01*
X369053392Y-226215138D02*
X368696250Y-226215138D01*
X368696250Y-226215138D02*
X368553392Y-226143710D01*
X368553392Y-226143710D02*
X368481964Y-226072281D01*
X365220417Y-197512200D02*
X365363274Y-197559819D01*
X365363274Y-197559819D02*
X365601369Y-197559819D01*
X365601369Y-197559819D02*
X365696607Y-197512200D01*
X365696607Y-197512200D02*
X365744226Y-197464580D01*
X365744226Y-197464580D02*
X365791845Y-197369342D01*
X365791845Y-197369342D02*
X365791845Y-197274104D01*
X365791845Y-197274104D02*
X365744226Y-197178866D01*
X365744226Y-197178866D02*
X365696607Y-197131247D01*
X365696607Y-197131247D02*
X365601369Y-197083628D01*
X365601369Y-197083628D02*
X365410893Y-197036009D01*
X365410893Y-197036009D02*
X365315655Y-196988390D01*
X365315655Y-196988390D02*
X365268036Y-196940771D01*
X365268036Y-196940771D02*
X365220417Y-196845533D01*
X365220417Y-196845533D02*
X365220417Y-196750295D01*
X365220417Y-196750295D02*
X365268036Y-196655057D01*
X365268036Y-196655057D02*
X365315655Y-196607438D01*
X365315655Y-196607438D02*
X365410893Y-196559819D01*
X365410893Y-196559819D02*
X365648988Y-196559819D01*
X365648988Y-196559819D02*
X365791845Y-196607438D01*
X366125179Y-196559819D02*
X366363274Y-197559819D01*
X366363274Y-197559819D02*
X366553750Y-196845533D01*
X366553750Y-196845533D02*
X366744226Y-197559819D01*
X366744226Y-197559819D02*
X366982322Y-196559819D01*
X367506131Y-196988390D02*
X367410893Y-196940771D01*
X367410893Y-196940771D02*
X367363274Y-196893152D01*
X367363274Y-196893152D02*
X367315655Y-196797914D01*
X367315655Y-196797914D02*
X367315655Y-196750295D01*
X367315655Y-196750295D02*
X367363274Y-196655057D01*
X367363274Y-196655057D02*
X367410893Y-196607438D01*
X367410893Y-196607438D02*
X367506131Y-196559819D01*
X367506131Y-196559819D02*
X367696607Y-196559819D01*
X367696607Y-196559819D02*
X367791845Y-196607438D01*
X367791845Y-196607438D02*
X367839464Y-196655057D01*
X367839464Y-196655057D02*
X367887083Y-196750295D01*
X367887083Y-196750295D02*
X367887083Y-196797914D01*
X367887083Y-196797914D02*
X367839464Y-196893152D01*
X367839464Y-196893152D02*
X367791845Y-196940771D01*
X367791845Y-196940771D02*
X367696607Y-196988390D01*
X367696607Y-196988390D02*
X367506131Y-196988390D01*
X367506131Y-196988390D02*
X367410893Y-197036009D01*
X367410893Y-197036009D02*
X367363274Y-197083628D01*
X367363274Y-197083628D02*
X367315655Y-197178866D01*
X367315655Y-197178866D02*
X367315655Y-197369342D01*
X367315655Y-197369342D02*
X367363274Y-197464580D01*
X367363274Y-197464580D02*
X367410893Y-197512200D01*
X367410893Y-197512200D02*
X367506131Y-197559819D01*
X367506131Y-197559819D02*
X367696607Y-197559819D01*
X367696607Y-197559819D02*
X367791845Y-197512200D01*
X367791845Y-197512200D02*
X367839464Y-197464580D01*
X367839464Y-197464580D02*
X367887083Y-197369342D01*
X367887083Y-197369342D02*
X367887083Y-197178866D01*
X367887083Y-197178866D02*
X367839464Y-197083628D01*
X367839464Y-197083628D02*
X367791845Y-197036009D01*
X367791845Y-197036009D02*
X367696607Y-196988390D01*
X213224821Y-226215138D02*
X213224821Y-224715138D01*
X213224821Y-224715138D02*
X213581964Y-224715138D01*
X213581964Y-224715138D02*
X213796250Y-224786567D01*
X213796250Y-224786567D02*
X213939107Y-224929424D01*
X213939107Y-224929424D02*
X214010536Y-225072281D01*
X214010536Y-225072281D02*
X214081964Y-225357995D01*
X214081964Y-225357995D02*
X214081964Y-225572281D01*
X214081964Y-225572281D02*
X214010536Y-225857995D01*
X214010536Y-225857995D02*
X213939107Y-226000852D01*
X213939107Y-226000852D02*
X213796250Y-226143710D01*
X213796250Y-226143710D02*
X213581964Y-226215138D01*
X213581964Y-226215138D02*
X213224821Y-226215138D01*
X214653393Y-224857995D02*
X214724821Y-224786567D01*
X214724821Y-224786567D02*
X214867679Y-224715138D01*
X214867679Y-224715138D02*
X215224821Y-224715138D01*
X215224821Y-224715138D02*
X215367679Y-224786567D01*
X215367679Y-224786567D02*
X215439107Y-224857995D01*
X215439107Y-224857995D02*
X215510536Y-225000852D01*
X215510536Y-225000852D02*
X215510536Y-225143710D01*
X215510536Y-225143710D02*
X215439107Y-225357995D01*
X215439107Y-225357995D02*
X214581964Y-226215138D01*
X214581964Y-226215138D02*
X215510536Y-226215138D01*
X216439107Y-224715138D02*
X216581964Y-224715138D01*
X216581964Y-224715138D02*
X216724821Y-224786567D01*
X216724821Y-224786567D02*
X216796250Y-224857995D01*
X216796250Y-224857995D02*
X216867678Y-225000852D01*
X216867678Y-225000852D02*
X216939107Y-225286567D01*
X216939107Y-225286567D02*
X216939107Y-225643710D01*
X216939107Y-225643710D02*
X216867678Y-225929424D01*
X216867678Y-225929424D02*
X216796250Y-226072281D01*
X216796250Y-226072281D02*
X216724821Y-226143710D01*
X216724821Y-226143710D02*
X216581964Y-226215138D01*
X216581964Y-226215138D02*
X216439107Y-226215138D01*
X216439107Y-226215138D02*
X216296250Y-226143710D01*
X216296250Y-226143710D02*
X216224821Y-226072281D01*
X216224821Y-226072281D02*
X216153392Y-225929424D01*
X216153392Y-225929424D02*
X216081964Y-225643710D01*
X216081964Y-225643710D02*
X216081964Y-225286567D01*
X216081964Y-225286567D02*
X216153392Y-225000852D01*
X216153392Y-225000852D02*
X216224821Y-224857995D01*
X216224821Y-224857995D02*
X216296250Y-224786567D01*
X216296250Y-224786567D02*
X216439107Y-224715138D01*
X289424821Y-192877638D02*
X289424821Y-191377638D01*
X289424821Y-191377638D02*
X289781964Y-191377638D01*
X289781964Y-191377638D02*
X289996250Y-191449067D01*
X289996250Y-191449067D02*
X290139107Y-191591924D01*
X290139107Y-191591924D02*
X290210536Y-191734781D01*
X290210536Y-191734781D02*
X290281964Y-192020495D01*
X290281964Y-192020495D02*
X290281964Y-192234781D01*
X290281964Y-192234781D02*
X290210536Y-192520495D01*
X290210536Y-192520495D02*
X290139107Y-192663352D01*
X290139107Y-192663352D02*
X289996250Y-192806210D01*
X289996250Y-192806210D02*
X289781964Y-192877638D01*
X289781964Y-192877638D02*
X289424821Y-192877638D01*
X290853393Y-191520495D02*
X290924821Y-191449067D01*
X290924821Y-191449067D02*
X291067679Y-191377638D01*
X291067679Y-191377638D02*
X291424821Y-191377638D01*
X291424821Y-191377638D02*
X291567679Y-191449067D01*
X291567679Y-191449067D02*
X291639107Y-191520495D01*
X291639107Y-191520495D02*
X291710536Y-191663352D01*
X291710536Y-191663352D02*
X291710536Y-191806210D01*
X291710536Y-191806210D02*
X291639107Y-192020495D01*
X291639107Y-192020495D02*
X290781964Y-192877638D01*
X290781964Y-192877638D02*
X291710536Y-192877638D01*
X292424821Y-192877638D02*
X292710535Y-192877638D01*
X292710535Y-192877638D02*
X292853392Y-192806210D01*
X292853392Y-192806210D02*
X292924821Y-192734781D01*
X292924821Y-192734781D02*
X293067678Y-192520495D01*
X293067678Y-192520495D02*
X293139107Y-192234781D01*
X293139107Y-192234781D02*
X293139107Y-191663352D01*
X293139107Y-191663352D02*
X293067678Y-191520495D01*
X293067678Y-191520495D02*
X292996250Y-191449067D01*
X292996250Y-191449067D02*
X292853392Y-191377638D01*
X292853392Y-191377638D02*
X292567678Y-191377638D01*
X292567678Y-191377638D02*
X292424821Y-191449067D01*
X292424821Y-191449067D02*
X292353392Y-191520495D01*
X292353392Y-191520495D02*
X292281964Y-191663352D01*
X292281964Y-191663352D02*
X292281964Y-192020495D01*
X292281964Y-192020495D02*
X292353392Y-192163352D01*
X292353392Y-192163352D02*
X292424821Y-192234781D01*
X292424821Y-192234781D02*
X292567678Y-192306210D01*
X292567678Y-192306210D02*
X292853392Y-192306210D01*
X292853392Y-192306210D02*
X292996250Y-192234781D01*
X292996250Y-192234781D02*
X293067678Y-192163352D01*
X293067678Y-192163352D02*
X293139107Y-192020495D01*
X208156069Y-203063333D02*
X207679878Y-203396666D01*
X208156069Y-203634761D02*
X207156069Y-203634761D01*
X207156069Y-203634761D02*
X207156069Y-203253809D01*
X207156069Y-203253809D02*
X207203688Y-203158571D01*
X207203688Y-203158571D02*
X207251307Y-203110952D01*
X207251307Y-203110952D02*
X207346545Y-203063333D01*
X207346545Y-203063333D02*
X207489402Y-203063333D01*
X207489402Y-203063333D02*
X207584640Y-203110952D01*
X207584640Y-203110952D02*
X207632259Y-203158571D01*
X207632259Y-203158571D02*
X207679878Y-203253809D01*
X207679878Y-203253809D02*
X207679878Y-203634761D01*
X207632259Y-202634761D02*
X207632259Y-202301428D01*
X208156069Y-202158571D02*
X208156069Y-202634761D01*
X208156069Y-202634761D02*
X207156069Y-202634761D01*
X207156069Y-202634761D02*
X207156069Y-202158571D01*
X207632259Y-201396666D02*
X207632259Y-201729999D01*
X208156069Y-201729999D02*
X207156069Y-201729999D01*
X207156069Y-201729999D02*
X207156069Y-201253809D01*
X207156069Y-200729999D02*
X207394164Y-200729999D01*
X207298926Y-200968094D02*
X207394164Y-200729999D01*
X207394164Y-200729999D02*
X207298926Y-200491904D01*
X207584640Y-200872856D02*
X207394164Y-200729999D01*
X207394164Y-200729999D02*
X207584640Y-200587142D01*
X207156069Y-199968094D02*
X207394164Y-199968094D01*
X207298926Y-200206189D02*
X207394164Y-199968094D01*
X207394164Y-199968094D02*
X207298926Y-199729999D01*
X207584640Y-200110951D02*
X207394164Y-199968094D01*
X207394164Y-199968094D02*
X207584640Y-199825237D01*
X189106069Y-169725833D02*
X188629878Y-170059166D01*
X189106069Y-170297261D02*
X188106069Y-170297261D01*
X188106069Y-170297261D02*
X188106069Y-169916309D01*
X188106069Y-169916309D02*
X188153688Y-169821071D01*
X188153688Y-169821071D02*
X188201307Y-169773452D01*
X188201307Y-169773452D02*
X188296545Y-169725833D01*
X188296545Y-169725833D02*
X188439402Y-169725833D01*
X188439402Y-169725833D02*
X188534640Y-169773452D01*
X188534640Y-169773452D02*
X188582259Y-169821071D01*
X188582259Y-169821071D02*
X188629878Y-169916309D01*
X188629878Y-169916309D02*
X188629878Y-170297261D01*
X188582259Y-169297261D02*
X188582259Y-168963928D01*
X189106069Y-168821071D02*
X189106069Y-169297261D01*
X189106069Y-169297261D02*
X188106069Y-169297261D01*
X188106069Y-169297261D02*
X188106069Y-168821071D01*
X188582259Y-168059166D02*
X188582259Y-168392499D01*
X189106069Y-168392499D02*
X188106069Y-168392499D01*
X188106069Y-168392499D02*
X188106069Y-167916309D01*
X188106069Y-167392499D02*
X188344164Y-167392499D01*
X188248926Y-167630594D02*
X188344164Y-167392499D01*
X188344164Y-167392499D02*
X188248926Y-167154404D01*
X188534640Y-167535356D02*
X188344164Y-167392499D01*
X188344164Y-167392499D02*
X188534640Y-167249642D01*
X188106069Y-166630594D02*
X188344164Y-166630594D01*
X188248926Y-166868689D02*
X188344164Y-166630594D01*
X188344164Y-166630594D02*
X188248926Y-166392499D01*
X188534640Y-166773451D02*
X188344164Y-166630594D01*
X188344164Y-166630594D02*
X188534640Y-166487737D01*
X36706069Y-203063333D02*
X36229878Y-203396666D01*
X36706069Y-203634761D02*
X35706069Y-203634761D01*
X35706069Y-203634761D02*
X35706069Y-203253809D01*
X35706069Y-203253809D02*
X35753688Y-203158571D01*
X35753688Y-203158571D02*
X35801307Y-203110952D01*
X35801307Y-203110952D02*
X35896545Y-203063333D01*
X35896545Y-203063333D02*
X36039402Y-203063333D01*
X36039402Y-203063333D02*
X36134640Y-203110952D01*
X36134640Y-203110952D02*
X36182259Y-203158571D01*
X36182259Y-203158571D02*
X36229878Y-203253809D01*
X36229878Y-203253809D02*
X36229878Y-203634761D01*
X36182259Y-202634761D02*
X36182259Y-202301428D01*
X36706069Y-202158571D02*
X36706069Y-202634761D01*
X36706069Y-202634761D02*
X35706069Y-202634761D01*
X35706069Y-202634761D02*
X35706069Y-202158571D01*
X36182259Y-201396666D02*
X36182259Y-201729999D01*
X36706069Y-201729999D02*
X35706069Y-201729999D01*
X35706069Y-201729999D02*
X35706069Y-201253809D01*
X35706069Y-200729999D02*
X35944164Y-200729999D01*
X35848926Y-200968094D02*
X35944164Y-200729999D01*
X35944164Y-200729999D02*
X35848926Y-200491904D01*
X36134640Y-200872856D02*
X35944164Y-200729999D01*
X35944164Y-200729999D02*
X36134640Y-200587142D01*
X35706069Y-199968094D02*
X35944164Y-199968094D01*
X35848926Y-200206189D02*
X35944164Y-199968094D01*
X35944164Y-199968094D02*
X35848926Y-199729999D01*
X36134640Y-200110951D02*
X35944164Y-199968094D01*
X35944164Y-199968094D02*
X36134640Y-199825237D01*
X174720417Y-197512200D02*
X174863274Y-197559819D01*
X174863274Y-197559819D02*
X175101369Y-197559819D01*
X175101369Y-197559819D02*
X175196607Y-197512200D01*
X175196607Y-197512200D02*
X175244226Y-197464580D01*
X175244226Y-197464580D02*
X175291845Y-197369342D01*
X175291845Y-197369342D02*
X175291845Y-197274104D01*
X175291845Y-197274104D02*
X175244226Y-197178866D01*
X175244226Y-197178866D02*
X175196607Y-197131247D01*
X175196607Y-197131247D02*
X175101369Y-197083628D01*
X175101369Y-197083628D02*
X174910893Y-197036009D01*
X174910893Y-197036009D02*
X174815655Y-196988390D01*
X174815655Y-196988390D02*
X174768036Y-196940771D01*
X174768036Y-196940771D02*
X174720417Y-196845533D01*
X174720417Y-196845533D02*
X174720417Y-196750295D01*
X174720417Y-196750295D02*
X174768036Y-196655057D01*
X174768036Y-196655057D02*
X174815655Y-196607438D01*
X174815655Y-196607438D02*
X174910893Y-196559819D01*
X174910893Y-196559819D02*
X175148988Y-196559819D01*
X175148988Y-196559819D02*
X175291845Y-196607438D01*
X175625179Y-196559819D02*
X175863274Y-197559819D01*
X175863274Y-197559819D02*
X176053750Y-196845533D01*
X176053750Y-196845533D02*
X176244226Y-197559819D01*
X176244226Y-197559819D02*
X176482322Y-196559819D01*
X176815655Y-196655057D02*
X176863274Y-196607438D01*
X176863274Y-196607438D02*
X176958512Y-196559819D01*
X176958512Y-196559819D02*
X177196607Y-196559819D01*
X177196607Y-196559819D02*
X177291845Y-196607438D01*
X177291845Y-196607438D02*
X177339464Y-196655057D01*
X177339464Y-196655057D02*
X177387083Y-196750295D01*
X177387083Y-196750295D02*
X177387083Y-196845533D01*
X177387083Y-196845533D02*
X177339464Y-196988390D01*
X177339464Y-196988390D02*
X176768036Y-197559819D01*
X176768036Y-197559819D02*
X177387083Y-197559819D01*
X326644226Y-164174700D02*
X326787083Y-164222319D01*
X326787083Y-164222319D02*
X327025178Y-164222319D01*
X327025178Y-164222319D02*
X327120416Y-164174700D01*
X327120416Y-164174700D02*
X327168035Y-164127080D01*
X327168035Y-164127080D02*
X327215654Y-164031842D01*
X327215654Y-164031842D02*
X327215654Y-163936604D01*
X327215654Y-163936604D02*
X327168035Y-163841366D01*
X327168035Y-163841366D02*
X327120416Y-163793747D01*
X327120416Y-163793747D02*
X327025178Y-163746128D01*
X327025178Y-163746128D02*
X326834702Y-163698509D01*
X326834702Y-163698509D02*
X326739464Y-163650890D01*
X326739464Y-163650890D02*
X326691845Y-163603271D01*
X326691845Y-163603271D02*
X326644226Y-163508033D01*
X326644226Y-163508033D02*
X326644226Y-163412795D01*
X326644226Y-163412795D02*
X326691845Y-163317557D01*
X326691845Y-163317557D02*
X326739464Y-163269938D01*
X326739464Y-163269938D02*
X326834702Y-163222319D01*
X326834702Y-163222319D02*
X327072797Y-163222319D01*
X327072797Y-163222319D02*
X327215654Y-163269938D01*
X327548988Y-163222319D02*
X327787083Y-164222319D01*
X327787083Y-164222319D02*
X327977559Y-163508033D01*
X327977559Y-163508033D02*
X328168035Y-164222319D01*
X328168035Y-164222319D02*
X328406131Y-163222319D01*
X329310892Y-164222319D02*
X328739464Y-164222319D01*
X329025178Y-164222319D02*
X329025178Y-163222319D01*
X329025178Y-163222319D02*
X328929940Y-163365176D01*
X328929940Y-163365176D02*
X328834702Y-163460414D01*
X328834702Y-163460414D02*
X328739464Y-163508033D01*
X329644226Y-163222319D02*
X330263273Y-163222319D01*
X330263273Y-163222319D02*
X329929940Y-163603271D01*
X329929940Y-163603271D02*
X330072797Y-163603271D01*
X330072797Y-163603271D02*
X330168035Y-163650890D01*
X330168035Y-163650890D02*
X330215654Y-163698509D01*
X330215654Y-163698509D02*
X330263273Y-163793747D01*
X330263273Y-163793747D02*
X330263273Y-164031842D01*
X330263273Y-164031842D02*
X330215654Y-164127080D01*
X330215654Y-164127080D02*
X330168035Y-164174700D01*
X330168035Y-164174700D02*
X330072797Y-164222319D01*
X330072797Y-164222319D02*
X329787083Y-164222319D01*
X329787083Y-164222319D02*
X329691845Y-164174700D01*
X329691845Y-164174700D02*
X329644226Y-164127080D01*
X232274821Y-226215138D02*
X232274821Y-224715138D01*
X232274821Y-224715138D02*
X232631964Y-224715138D01*
X232631964Y-224715138D02*
X232846250Y-224786567D01*
X232846250Y-224786567D02*
X232989107Y-224929424D01*
X232989107Y-224929424D02*
X233060536Y-225072281D01*
X233060536Y-225072281D02*
X233131964Y-225357995D01*
X233131964Y-225357995D02*
X233131964Y-225572281D01*
X233131964Y-225572281D02*
X233060536Y-225857995D01*
X233060536Y-225857995D02*
X232989107Y-226000852D01*
X232989107Y-226000852D02*
X232846250Y-226143710D01*
X232846250Y-226143710D02*
X232631964Y-226215138D01*
X232631964Y-226215138D02*
X232274821Y-226215138D01*
X233703393Y-224857995D02*
X233774821Y-224786567D01*
X233774821Y-224786567D02*
X233917679Y-224715138D01*
X233917679Y-224715138D02*
X234274821Y-224715138D01*
X234274821Y-224715138D02*
X234417679Y-224786567D01*
X234417679Y-224786567D02*
X234489107Y-224857995D01*
X234489107Y-224857995D02*
X234560536Y-225000852D01*
X234560536Y-225000852D02*
X234560536Y-225143710D01*
X234560536Y-225143710D02*
X234489107Y-225357995D01*
X234489107Y-225357995D02*
X233631964Y-226215138D01*
X233631964Y-226215138D02*
X234560536Y-226215138D01*
X235989107Y-226215138D02*
X235131964Y-226215138D01*
X235560535Y-226215138D02*
X235560535Y-224715138D01*
X235560535Y-224715138D02*
X235417678Y-224929424D01*
X235417678Y-224929424D02*
X235274821Y-225072281D01*
X235274821Y-225072281D02*
X235131964Y-225143710D01*
X327524821Y-192877638D02*
X327524821Y-191377638D01*
X327524821Y-191377638D02*
X327881964Y-191377638D01*
X327881964Y-191377638D02*
X328096250Y-191449067D01*
X328096250Y-191449067D02*
X328239107Y-191591924D01*
X328239107Y-191591924D02*
X328310536Y-191734781D01*
X328310536Y-191734781D02*
X328381964Y-192020495D01*
X328381964Y-192020495D02*
X328381964Y-192234781D01*
X328381964Y-192234781D02*
X328310536Y-192520495D01*
X328310536Y-192520495D02*
X328239107Y-192663352D01*
X328239107Y-192663352D02*
X328096250Y-192806210D01*
X328096250Y-192806210D02*
X327881964Y-192877638D01*
X327881964Y-192877638D02*
X327524821Y-192877638D01*
X328881964Y-191377638D02*
X329810536Y-191377638D01*
X329810536Y-191377638D02*
X329310536Y-191949067D01*
X329310536Y-191949067D02*
X329524821Y-191949067D01*
X329524821Y-191949067D02*
X329667679Y-192020495D01*
X329667679Y-192020495D02*
X329739107Y-192091924D01*
X329739107Y-192091924D02*
X329810536Y-192234781D01*
X329810536Y-192234781D02*
X329810536Y-192591924D01*
X329810536Y-192591924D02*
X329739107Y-192734781D01*
X329739107Y-192734781D02*
X329667679Y-192806210D01*
X329667679Y-192806210D02*
X329524821Y-192877638D01*
X329524821Y-192877638D02*
X329096250Y-192877638D01*
X329096250Y-192877638D02*
X328953393Y-192806210D01*
X328953393Y-192806210D02*
X328881964Y-192734781D01*
X330739107Y-191377638D02*
X330881964Y-191377638D01*
X330881964Y-191377638D02*
X331024821Y-191449067D01*
X331024821Y-191449067D02*
X331096250Y-191520495D01*
X331096250Y-191520495D02*
X331167678Y-191663352D01*
X331167678Y-191663352D02*
X331239107Y-191949067D01*
X331239107Y-191949067D02*
X331239107Y-192306210D01*
X331239107Y-192306210D02*
X331167678Y-192591924D01*
X331167678Y-192591924D02*
X331096250Y-192734781D01*
X331096250Y-192734781D02*
X331024821Y-192806210D01*
X331024821Y-192806210D02*
X330881964Y-192877638D01*
X330881964Y-192877638D02*
X330739107Y-192877638D01*
X330739107Y-192877638D02*
X330596250Y-192806210D01*
X330596250Y-192806210D02*
X330524821Y-192734781D01*
X330524821Y-192734781D02*
X330453392Y-192591924D01*
X330453392Y-192591924D02*
X330381964Y-192306210D01*
X330381964Y-192306210D02*
X330381964Y-191949067D01*
X330381964Y-191949067D02*
X330453392Y-191663352D01*
X330453392Y-191663352D02*
X330524821Y-191520495D01*
X330524821Y-191520495D02*
X330596250Y-191449067D01*
X330596250Y-191449067D02*
X330739107Y-191377638D01*
X193294226Y-164174700D02*
X193437083Y-164222319D01*
X193437083Y-164222319D02*
X193675178Y-164222319D01*
X193675178Y-164222319D02*
X193770416Y-164174700D01*
X193770416Y-164174700D02*
X193818035Y-164127080D01*
X193818035Y-164127080D02*
X193865654Y-164031842D01*
X193865654Y-164031842D02*
X193865654Y-163936604D01*
X193865654Y-163936604D02*
X193818035Y-163841366D01*
X193818035Y-163841366D02*
X193770416Y-163793747D01*
X193770416Y-163793747D02*
X193675178Y-163746128D01*
X193675178Y-163746128D02*
X193484702Y-163698509D01*
X193484702Y-163698509D02*
X193389464Y-163650890D01*
X193389464Y-163650890D02*
X193341845Y-163603271D01*
X193341845Y-163603271D02*
X193294226Y-163508033D01*
X193294226Y-163508033D02*
X193294226Y-163412795D01*
X193294226Y-163412795D02*
X193341845Y-163317557D01*
X193341845Y-163317557D02*
X193389464Y-163269938D01*
X193389464Y-163269938D02*
X193484702Y-163222319D01*
X193484702Y-163222319D02*
X193722797Y-163222319D01*
X193722797Y-163222319D02*
X193865654Y-163269938D01*
X194198988Y-163222319D02*
X194437083Y-164222319D01*
X194437083Y-164222319D02*
X194627559Y-163508033D01*
X194627559Y-163508033D02*
X194818035Y-164222319D01*
X194818035Y-164222319D02*
X195056131Y-163222319D01*
X195960892Y-164222319D02*
X195389464Y-164222319D01*
X195675178Y-164222319D02*
X195675178Y-163222319D01*
X195675178Y-163222319D02*
X195579940Y-163365176D01*
X195579940Y-163365176D02*
X195484702Y-163460414D01*
X195484702Y-163460414D02*
X195389464Y-163508033D01*
X196579940Y-163222319D02*
X196675178Y-163222319D01*
X196675178Y-163222319D02*
X196770416Y-163269938D01*
X196770416Y-163269938D02*
X196818035Y-163317557D01*
X196818035Y-163317557D02*
X196865654Y-163412795D01*
X196865654Y-163412795D02*
X196913273Y-163603271D01*
X196913273Y-163603271D02*
X196913273Y-163841366D01*
X196913273Y-163841366D02*
X196865654Y-164031842D01*
X196865654Y-164031842D02*
X196818035Y-164127080D01*
X196818035Y-164127080D02*
X196770416Y-164174700D01*
X196770416Y-164174700D02*
X196675178Y-164222319D01*
X196675178Y-164222319D02*
X196579940Y-164222319D01*
X196579940Y-164222319D02*
X196484702Y-164174700D01*
X196484702Y-164174700D02*
X196437083Y-164127080D01*
X196437083Y-164127080D02*
X196389464Y-164031842D01*
X196389464Y-164031842D02*
X196341845Y-163841366D01*
X196341845Y-163841366D02*
X196341845Y-163603271D01*
X196341845Y-163603271D02*
X196389464Y-163412795D01*
X196389464Y-163412795D02*
X196437083Y-163317557D01*
X196437083Y-163317557D02*
X196484702Y-163269938D01*
X196484702Y-163269938D02*
X196579940Y-163222319D01*
X170056069Y-203063333D02*
X169579878Y-203396666D01*
X170056069Y-203634761D02*
X169056069Y-203634761D01*
X169056069Y-203634761D02*
X169056069Y-203253809D01*
X169056069Y-203253809D02*
X169103688Y-203158571D01*
X169103688Y-203158571D02*
X169151307Y-203110952D01*
X169151307Y-203110952D02*
X169246545Y-203063333D01*
X169246545Y-203063333D02*
X169389402Y-203063333D01*
X169389402Y-203063333D02*
X169484640Y-203110952D01*
X169484640Y-203110952D02*
X169532259Y-203158571D01*
X169532259Y-203158571D02*
X169579878Y-203253809D01*
X169579878Y-203253809D02*
X169579878Y-203634761D01*
X169532259Y-202634761D02*
X169532259Y-202301428D01*
X170056069Y-202158571D02*
X170056069Y-202634761D01*
X170056069Y-202634761D02*
X169056069Y-202634761D01*
X169056069Y-202634761D02*
X169056069Y-202158571D01*
X169532259Y-201396666D02*
X169532259Y-201729999D01*
X170056069Y-201729999D02*
X169056069Y-201729999D01*
X169056069Y-201729999D02*
X169056069Y-201253809D01*
X169056069Y-200729999D02*
X169294164Y-200729999D01*
X169198926Y-200968094D02*
X169294164Y-200729999D01*
X169294164Y-200729999D02*
X169198926Y-200491904D01*
X169484640Y-200872856D02*
X169294164Y-200729999D01*
X169294164Y-200729999D02*
X169484640Y-200587142D01*
X169056069Y-199968094D02*
X169294164Y-199968094D01*
X169198926Y-200206189D02*
X169294164Y-199968094D01*
X169294164Y-199968094D02*
X169198926Y-199729999D01*
X169484640Y-200110951D02*
X169294164Y-199968094D01*
X169294164Y-199968094D02*
X169484640Y-199825237D01*
X131956069Y-203063333D02*
X131479878Y-203396666D01*
X131956069Y-203634761D02*
X130956069Y-203634761D01*
X130956069Y-203634761D02*
X130956069Y-203253809D01*
X130956069Y-203253809D02*
X131003688Y-203158571D01*
X131003688Y-203158571D02*
X131051307Y-203110952D01*
X131051307Y-203110952D02*
X131146545Y-203063333D01*
X131146545Y-203063333D02*
X131289402Y-203063333D01*
X131289402Y-203063333D02*
X131384640Y-203110952D01*
X131384640Y-203110952D02*
X131432259Y-203158571D01*
X131432259Y-203158571D02*
X131479878Y-203253809D01*
X131479878Y-203253809D02*
X131479878Y-203634761D01*
X131432259Y-202634761D02*
X131432259Y-202301428D01*
X131956069Y-202158571D02*
X131956069Y-202634761D01*
X131956069Y-202634761D02*
X130956069Y-202634761D01*
X130956069Y-202634761D02*
X130956069Y-202158571D01*
X131432259Y-201396666D02*
X131432259Y-201729999D01*
X131956069Y-201729999D02*
X130956069Y-201729999D01*
X130956069Y-201729999D02*
X130956069Y-201253809D01*
X130956069Y-200729999D02*
X131194164Y-200729999D01*
X131098926Y-200968094D02*
X131194164Y-200729999D01*
X131194164Y-200729999D02*
X131098926Y-200491904D01*
X131384640Y-200872856D02*
X131194164Y-200729999D01*
X131194164Y-200729999D02*
X131384640Y-200587142D01*
X130956069Y-199968094D02*
X131194164Y-199968094D01*
X131098926Y-200206189D02*
X131194164Y-199968094D01*
X131194164Y-199968094D02*
X131098926Y-199729999D01*
X131384640Y-200110951D02*
X131194164Y-199968094D01*
X131194164Y-199968094D02*
X131384640Y-199825237D01*
X81216726Y-208625950D02*
X81359583Y-208673569D01*
X81359583Y-208673569D02*
X81597678Y-208673569D01*
X81597678Y-208673569D02*
X81692916Y-208625950D01*
X81692916Y-208625950D02*
X81740535Y-208578330D01*
X81740535Y-208578330D02*
X81788154Y-208483092D01*
X81788154Y-208483092D02*
X81788154Y-208387854D01*
X81788154Y-208387854D02*
X81740535Y-208292616D01*
X81740535Y-208292616D02*
X81692916Y-208244997D01*
X81692916Y-208244997D02*
X81597678Y-208197378D01*
X81597678Y-208197378D02*
X81407202Y-208149759D01*
X81407202Y-208149759D02*
X81311964Y-208102140D01*
X81311964Y-208102140D02*
X81264345Y-208054521D01*
X81264345Y-208054521D02*
X81216726Y-207959283D01*
X81216726Y-207959283D02*
X81216726Y-207864045D01*
X81216726Y-207864045D02*
X81264345Y-207768807D01*
X81264345Y-207768807D02*
X81311964Y-207721188D01*
X81311964Y-207721188D02*
X81407202Y-207673569D01*
X81407202Y-207673569D02*
X81645297Y-207673569D01*
X81645297Y-207673569D02*
X81788154Y-207721188D01*
X82121488Y-207673569D02*
X82359583Y-208673569D01*
X82359583Y-208673569D02*
X82550059Y-207959283D01*
X82550059Y-207959283D02*
X82740535Y-208673569D01*
X82740535Y-208673569D02*
X82978631Y-207673569D01*
X83883392Y-208673569D02*
X83311964Y-208673569D01*
X83597678Y-208673569D02*
X83597678Y-207673569D01*
X83597678Y-207673569D02*
X83502440Y-207816426D01*
X83502440Y-207816426D02*
X83407202Y-207911664D01*
X83407202Y-207911664D02*
X83311964Y-207959283D01*
X84740535Y-207673569D02*
X84550059Y-207673569D01*
X84550059Y-207673569D02*
X84454821Y-207721188D01*
X84454821Y-207721188D02*
X84407202Y-207768807D01*
X84407202Y-207768807D02*
X84311964Y-207911664D01*
X84311964Y-207911664D02*
X84264345Y-208102140D01*
X84264345Y-208102140D02*
X84264345Y-208483092D01*
X84264345Y-208483092D02*
X84311964Y-208578330D01*
X84311964Y-208578330D02*
X84359583Y-208625950D01*
X84359583Y-208625950D02*
X84454821Y-208673569D01*
X84454821Y-208673569D02*
X84645297Y-208673569D01*
X84645297Y-208673569D02*
X84740535Y-208625950D01*
X84740535Y-208625950D02*
X84788154Y-208578330D01*
X84788154Y-208578330D02*
X84835773Y-208483092D01*
X84835773Y-208483092D02*
X84835773Y-208244997D01*
X84835773Y-208244997D02*
X84788154Y-208149759D01*
X84788154Y-208149759D02*
X84740535Y-208102140D01*
X84740535Y-208102140D02*
X84645297Y-208054521D01*
X84645297Y-208054521D02*
X84454821Y-208054521D01*
X84454821Y-208054521D02*
X84359583Y-208102140D01*
X84359583Y-208102140D02*
X84311964Y-208149759D01*
X84311964Y-208149759D02*
X84264345Y-208244997D01*
X100266726Y-189575950D02*
X100409583Y-189623569D01*
X100409583Y-189623569D02*
X100647678Y-189623569D01*
X100647678Y-189623569D02*
X100742916Y-189575950D01*
X100742916Y-189575950D02*
X100790535Y-189528330D01*
X100790535Y-189528330D02*
X100838154Y-189433092D01*
X100838154Y-189433092D02*
X100838154Y-189337854D01*
X100838154Y-189337854D02*
X100790535Y-189242616D01*
X100790535Y-189242616D02*
X100742916Y-189194997D01*
X100742916Y-189194997D02*
X100647678Y-189147378D01*
X100647678Y-189147378D02*
X100457202Y-189099759D01*
X100457202Y-189099759D02*
X100361964Y-189052140D01*
X100361964Y-189052140D02*
X100314345Y-189004521D01*
X100314345Y-189004521D02*
X100266726Y-188909283D01*
X100266726Y-188909283D02*
X100266726Y-188814045D01*
X100266726Y-188814045D02*
X100314345Y-188718807D01*
X100314345Y-188718807D02*
X100361964Y-188671188D01*
X100361964Y-188671188D02*
X100457202Y-188623569D01*
X100457202Y-188623569D02*
X100695297Y-188623569D01*
X100695297Y-188623569D02*
X100838154Y-188671188D01*
X101171488Y-188623569D02*
X101409583Y-189623569D01*
X101409583Y-189623569D02*
X101600059Y-188909283D01*
X101600059Y-188909283D02*
X101790535Y-189623569D01*
X101790535Y-189623569D02*
X102028631Y-188623569D01*
X102933392Y-189623569D02*
X102361964Y-189623569D01*
X102647678Y-189623569D02*
X102647678Y-188623569D01*
X102647678Y-188623569D02*
X102552440Y-188766426D01*
X102552440Y-188766426D02*
X102457202Y-188861664D01*
X102457202Y-188861664D02*
X102361964Y-188909283D01*
X103838154Y-188623569D02*
X103361964Y-188623569D01*
X103361964Y-188623569D02*
X103314345Y-189099759D01*
X103314345Y-189099759D02*
X103361964Y-189052140D01*
X103361964Y-189052140D02*
X103457202Y-189004521D01*
X103457202Y-189004521D02*
X103695297Y-189004521D01*
X103695297Y-189004521D02*
X103790535Y-189052140D01*
X103790535Y-189052140D02*
X103838154Y-189099759D01*
X103838154Y-189099759D02*
X103885773Y-189194997D01*
X103885773Y-189194997D02*
X103885773Y-189433092D01*
X103885773Y-189433092D02*
X103838154Y-189528330D01*
X103838154Y-189528330D02*
X103790535Y-189575950D01*
X103790535Y-189575950D02*
X103695297Y-189623569D01*
X103695297Y-189623569D02*
X103457202Y-189623569D01*
X103457202Y-189623569D02*
X103361964Y-189575950D01*
X103361964Y-189575950D02*
X103314345Y-189528330D01*
X308474821Y-226215138D02*
X308474821Y-224715138D01*
X308474821Y-224715138D02*
X308831964Y-224715138D01*
X308831964Y-224715138D02*
X309046250Y-224786567D01*
X309046250Y-224786567D02*
X309189107Y-224929424D01*
X309189107Y-224929424D02*
X309260536Y-225072281D01*
X309260536Y-225072281D02*
X309331964Y-225357995D01*
X309331964Y-225357995D02*
X309331964Y-225572281D01*
X309331964Y-225572281D02*
X309260536Y-225857995D01*
X309260536Y-225857995D02*
X309189107Y-226000852D01*
X309189107Y-226000852D02*
X309046250Y-226143710D01*
X309046250Y-226143710D02*
X308831964Y-226215138D01*
X308831964Y-226215138D02*
X308474821Y-226215138D01*
X309903393Y-224857995D02*
X309974821Y-224786567D01*
X309974821Y-224786567D02*
X310117679Y-224715138D01*
X310117679Y-224715138D02*
X310474821Y-224715138D01*
X310474821Y-224715138D02*
X310617679Y-224786567D01*
X310617679Y-224786567D02*
X310689107Y-224857995D01*
X310689107Y-224857995D02*
X310760536Y-225000852D01*
X310760536Y-225000852D02*
X310760536Y-225143710D01*
X310760536Y-225143710D02*
X310689107Y-225357995D01*
X310689107Y-225357995D02*
X309831964Y-226215138D01*
X309831964Y-226215138D02*
X310760536Y-226215138D01*
X311260535Y-224715138D02*
X312189107Y-224715138D01*
X312189107Y-224715138D02*
X311689107Y-225286567D01*
X311689107Y-225286567D02*
X311903392Y-225286567D01*
X311903392Y-225286567D02*
X312046250Y-225357995D01*
X312046250Y-225357995D02*
X312117678Y-225429424D01*
X312117678Y-225429424D02*
X312189107Y-225572281D01*
X312189107Y-225572281D02*
X312189107Y-225929424D01*
X312189107Y-225929424D02*
X312117678Y-226072281D01*
X312117678Y-226072281D02*
X312046250Y-226143710D01*
X312046250Y-226143710D02*
X311903392Y-226215138D01*
X311903392Y-226215138D02*
X311474821Y-226215138D01*
X311474821Y-226215138D02*
X311331964Y-226143710D01*
X311331964Y-226143710D02*
X311260535Y-226072281D01*
X288544226Y-164174700D02*
X288687083Y-164222319D01*
X288687083Y-164222319D02*
X288925178Y-164222319D01*
X288925178Y-164222319D02*
X289020416Y-164174700D01*
X289020416Y-164174700D02*
X289068035Y-164127080D01*
X289068035Y-164127080D02*
X289115654Y-164031842D01*
X289115654Y-164031842D02*
X289115654Y-163936604D01*
X289115654Y-163936604D02*
X289068035Y-163841366D01*
X289068035Y-163841366D02*
X289020416Y-163793747D01*
X289020416Y-163793747D02*
X288925178Y-163746128D01*
X288925178Y-163746128D02*
X288734702Y-163698509D01*
X288734702Y-163698509D02*
X288639464Y-163650890D01*
X288639464Y-163650890D02*
X288591845Y-163603271D01*
X288591845Y-163603271D02*
X288544226Y-163508033D01*
X288544226Y-163508033D02*
X288544226Y-163412795D01*
X288544226Y-163412795D02*
X288591845Y-163317557D01*
X288591845Y-163317557D02*
X288639464Y-163269938D01*
X288639464Y-163269938D02*
X288734702Y-163222319D01*
X288734702Y-163222319D02*
X288972797Y-163222319D01*
X288972797Y-163222319D02*
X289115654Y-163269938D01*
X289448988Y-163222319D02*
X289687083Y-164222319D01*
X289687083Y-164222319D02*
X289877559Y-163508033D01*
X289877559Y-163508033D02*
X290068035Y-164222319D01*
X290068035Y-164222319D02*
X290306131Y-163222319D01*
X291210892Y-164222319D02*
X290639464Y-164222319D01*
X290925178Y-164222319D02*
X290925178Y-163222319D01*
X290925178Y-163222319D02*
X290829940Y-163365176D01*
X290829940Y-163365176D02*
X290734702Y-163460414D01*
X290734702Y-163460414D02*
X290639464Y-163508033D01*
X291591845Y-163317557D02*
X291639464Y-163269938D01*
X291639464Y-163269938D02*
X291734702Y-163222319D01*
X291734702Y-163222319D02*
X291972797Y-163222319D01*
X291972797Y-163222319D02*
X292068035Y-163269938D01*
X292068035Y-163269938D02*
X292115654Y-163317557D01*
X292115654Y-163317557D02*
X292163273Y-163412795D01*
X292163273Y-163412795D02*
X292163273Y-163508033D01*
X292163273Y-163508033D02*
X292115654Y-163650890D01*
X292115654Y-163650890D02*
X291544226Y-164222319D01*
X291544226Y-164222319D02*
X292163273Y-164222319D01*
X17656069Y-169725833D02*
X17179878Y-170059166D01*
X17656069Y-170297261D02*
X16656069Y-170297261D01*
X16656069Y-170297261D02*
X16656069Y-169916309D01*
X16656069Y-169916309D02*
X16703688Y-169821071D01*
X16703688Y-169821071D02*
X16751307Y-169773452D01*
X16751307Y-169773452D02*
X16846545Y-169725833D01*
X16846545Y-169725833D02*
X16989402Y-169725833D01*
X16989402Y-169725833D02*
X17084640Y-169773452D01*
X17084640Y-169773452D02*
X17132259Y-169821071D01*
X17132259Y-169821071D02*
X17179878Y-169916309D01*
X17179878Y-169916309D02*
X17179878Y-170297261D01*
X17132259Y-169297261D02*
X17132259Y-168963928D01*
X17656069Y-168821071D02*
X17656069Y-169297261D01*
X17656069Y-169297261D02*
X16656069Y-169297261D01*
X16656069Y-169297261D02*
X16656069Y-168821071D01*
X17132259Y-168059166D02*
X17132259Y-168392499D01*
X17656069Y-168392499D02*
X16656069Y-168392499D01*
X16656069Y-168392499D02*
X16656069Y-167916309D01*
X16656069Y-167392499D02*
X16894164Y-167392499D01*
X16798926Y-167630594D02*
X16894164Y-167392499D01*
X16894164Y-167392499D02*
X16798926Y-167154404D01*
X17084640Y-167535356D02*
X16894164Y-167392499D01*
X16894164Y-167392499D02*
X17084640Y-167249642D01*
X16656069Y-166630594D02*
X16894164Y-166630594D01*
X16798926Y-166868689D02*
X16894164Y-166630594D01*
X16894164Y-166630594D02*
X16798926Y-166392499D01*
X17084640Y-166773451D02*
X16894164Y-166630594D01*
X16894164Y-166630594D02*
X17084640Y-166487737D01*
X212820417Y-197512200D02*
X212963274Y-197559819D01*
X212963274Y-197559819D02*
X213201369Y-197559819D01*
X213201369Y-197559819D02*
X213296607Y-197512200D01*
X213296607Y-197512200D02*
X213344226Y-197464580D01*
X213344226Y-197464580D02*
X213391845Y-197369342D01*
X213391845Y-197369342D02*
X213391845Y-197274104D01*
X213391845Y-197274104D02*
X213344226Y-197178866D01*
X213344226Y-197178866D02*
X213296607Y-197131247D01*
X213296607Y-197131247D02*
X213201369Y-197083628D01*
X213201369Y-197083628D02*
X213010893Y-197036009D01*
X213010893Y-197036009D02*
X212915655Y-196988390D01*
X212915655Y-196988390D02*
X212868036Y-196940771D01*
X212868036Y-196940771D02*
X212820417Y-196845533D01*
X212820417Y-196845533D02*
X212820417Y-196750295D01*
X212820417Y-196750295D02*
X212868036Y-196655057D01*
X212868036Y-196655057D02*
X212915655Y-196607438D01*
X212915655Y-196607438D02*
X213010893Y-196559819D01*
X213010893Y-196559819D02*
X213248988Y-196559819D01*
X213248988Y-196559819D02*
X213391845Y-196607438D01*
X213725179Y-196559819D02*
X213963274Y-197559819D01*
X213963274Y-197559819D02*
X214153750Y-196845533D01*
X214153750Y-196845533D02*
X214344226Y-197559819D01*
X214344226Y-197559819D02*
X214582322Y-196559819D01*
X214868036Y-196559819D02*
X215487083Y-196559819D01*
X215487083Y-196559819D02*
X215153750Y-196940771D01*
X215153750Y-196940771D02*
X215296607Y-196940771D01*
X215296607Y-196940771D02*
X215391845Y-196988390D01*
X215391845Y-196988390D02*
X215439464Y-197036009D01*
X215439464Y-197036009D02*
X215487083Y-197131247D01*
X215487083Y-197131247D02*
X215487083Y-197369342D01*
X215487083Y-197369342D02*
X215439464Y-197464580D01*
X215439464Y-197464580D02*
X215391845Y-197512200D01*
X215391845Y-197512200D02*
X215296607Y-197559819D01*
X215296607Y-197559819D02*
X215010893Y-197559819D01*
X215010893Y-197559819D02*
X214915655Y-197512200D01*
X214915655Y-197512200D02*
X214868036Y-197464580D01*
X346170417Y-197512200D02*
X346313274Y-197559819D01*
X346313274Y-197559819D02*
X346551369Y-197559819D01*
X346551369Y-197559819D02*
X346646607Y-197512200D01*
X346646607Y-197512200D02*
X346694226Y-197464580D01*
X346694226Y-197464580D02*
X346741845Y-197369342D01*
X346741845Y-197369342D02*
X346741845Y-197274104D01*
X346741845Y-197274104D02*
X346694226Y-197178866D01*
X346694226Y-197178866D02*
X346646607Y-197131247D01*
X346646607Y-197131247D02*
X346551369Y-197083628D01*
X346551369Y-197083628D02*
X346360893Y-197036009D01*
X346360893Y-197036009D02*
X346265655Y-196988390D01*
X346265655Y-196988390D02*
X346218036Y-196940771D01*
X346218036Y-196940771D02*
X346170417Y-196845533D01*
X346170417Y-196845533D02*
X346170417Y-196750295D01*
X346170417Y-196750295D02*
X346218036Y-196655057D01*
X346218036Y-196655057D02*
X346265655Y-196607438D01*
X346265655Y-196607438D02*
X346360893Y-196559819D01*
X346360893Y-196559819D02*
X346598988Y-196559819D01*
X346598988Y-196559819D02*
X346741845Y-196607438D01*
X347075179Y-196559819D02*
X347313274Y-197559819D01*
X347313274Y-197559819D02*
X347503750Y-196845533D01*
X347503750Y-196845533D02*
X347694226Y-197559819D01*
X347694226Y-197559819D02*
X347932322Y-196559819D01*
X348218036Y-196559819D02*
X348884702Y-196559819D01*
X348884702Y-196559819D02*
X348456131Y-197559819D01*
X251324821Y-192877638D02*
X251324821Y-191377638D01*
X251324821Y-191377638D02*
X251681964Y-191377638D01*
X251681964Y-191377638D02*
X251896250Y-191449067D01*
X251896250Y-191449067D02*
X252039107Y-191591924D01*
X252039107Y-191591924D02*
X252110536Y-191734781D01*
X252110536Y-191734781D02*
X252181964Y-192020495D01*
X252181964Y-192020495D02*
X252181964Y-192234781D01*
X252181964Y-192234781D02*
X252110536Y-192520495D01*
X252110536Y-192520495D02*
X252039107Y-192663352D01*
X252039107Y-192663352D02*
X251896250Y-192806210D01*
X251896250Y-192806210D02*
X251681964Y-192877638D01*
X251681964Y-192877638D02*
X251324821Y-192877638D01*
X252753393Y-191520495D02*
X252824821Y-191449067D01*
X252824821Y-191449067D02*
X252967679Y-191377638D01*
X252967679Y-191377638D02*
X253324821Y-191377638D01*
X253324821Y-191377638D02*
X253467679Y-191449067D01*
X253467679Y-191449067D02*
X253539107Y-191520495D01*
X253539107Y-191520495D02*
X253610536Y-191663352D01*
X253610536Y-191663352D02*
X253610536Y-191806210D01*
X253610536Y-191806210D02*
X253539107Y-192020495D01*
X253539107Y-192020495D02*
X252681964Y-192877638D01*
X252681964Y-192877638D02*
X253610536Y-192877638D01*
X254467678Y-192020495D02*
X254324821Y-191949067D01*
X254324821Y-191949067D02*
X254253392Y-191877638D01*
X254253392Y-191877638D02*
X254181964Y-191734781D01*
X254181964Y-191734781D02*
X254181964Y-191663352D01*
X254181964Y-191663352D02*
X254253392Y-191520495D01*
X254253392Y-191520495D02*
X254324821Y-191449067D01*
X254324821Y-191449067D02*
X254467678Y-191377638D01*
X254467678Y-191377638D02*
X254753392Y-191377638D01*
X254753392Y-191377638D02*
X254896250Y-191449067D01*
X254896250Y-191449067D02*
X254967678Y-191520495D01*
X254967678Y-191520495D02*
X255039107Y-191663352D01*
X255039107Y-191663352D02*
X255039107Y-191734781D01*
X255039107Y-191734781D02*
X254967678Y-191877638D01*
X254967678Y-191877638D02*
X254896250Y-191949067D01*
X254896250Y-191949067D02*
X254753392Y-192020495D01*
X254753392Y-192020495D02*
X254467678Y-192020495D01*
X254467678Y-192020495D02*
X254324821Y-192091924D01*
X254324821Y-192091924D02*
X254253392Y-192163352D01*
X254253392Y-192163352D02*
X254181964Y-192306210D01*
X254181964Y-192306210D02*
X254181964Y-192591924D01*
X254181964Y-192591924D02*
X254253392Y-192734781D01*
X254253392Y-192734781D02*
X254324821Y-192806210D01*
X254324821Y-192806210D02*
X254467678Y-192877638D01*
X254467678Y-192877638D02*
X254753392Y-192877638D01*
X254753392Y-192877638D02*
X254896250Y-192806210D01*
X254896250Y-192806210D02*
X254967678Y-192734781D01*
X254967678Y-192734781D02*
X255039107Y-192591924D01*
X255039107Y-192591924D02*
X255039107Y-192306210D01*
X255039107Y-192306210D02*
X254967678Y-192163352D01*
X254967678Y-192163352D02*
X254896250Y-192091924D01*
X254896250Y-192091924D02*
X254753392Y-192020495D01*
X55756069Y-169725833D02*
X55279878Y-170059166D01*
X55756069Y-170297261D02*
X54756069Y-170297261D01*
X54756069Y-170297261D02*
X54756069Y-169916309D01*
X54756069Y-169916309D02*
X54803688Y-169821071D01*
X54803688Y-169821071D02*
X54851307Y-169773452D01*
X54851307Y-169773452D02*
X54946545Y-169725833D01*
X54946545Y-169725833D02*
X55089402Y-169725833D01*
X55089402Y-169725833D02*
X55184640Y-169773452D01*
X55184640Y-169773452D02*
X55232259Y-169821071D01*
X55232259Y-169821071D02*
X55279878Y-169916309D01*
X55279878Y-169916309D02*
X55279878Y-170297261D01*
X55232259Y-169297261D02*
X55232259Y-168963928D01*
X55756069Y-168821071D02*
X55756069Y-169297261D01*
X55756069Y-169297261D02*
X54756069Y-169297261D01*
X54756069Y-169297261D02*
X54756069Y-168821071D01*
X55232259Y-168059166D02*
X55232259Y-168392499D01*
X55756069Y-168392499D02*
X54756069Y-168392499D01*
X54756069Y-168392499D02*
X54756069Y-167916309D01*
X54756069Y-167392499D02*
X54994164Y-167392499D01*
X54898926Y-167630594D02*
X54994164Y-167392499D01*
X54994164Y-167392499D02*
X54898926Y-167154404D01*
X55184640Y-167535356D02*
X54994164Y-167392499D01*
X54994164Y-167392499D02*
X55184640Y-167249642D01*
X54756069Y-166630594D02*
X54994164Y-166630594D01*
X54898926Y-166868689D02*
X54994164Y-166630594D01*
X54994164Y-166630594D02*
X54898926Y-166392499D01*
X55184640Y-166773451D02*
X54994164Y-166630594D01*
X54994164Y-166630594D02*
X55184640Y-166487737D01*
X175124821Y-226215138D02*
X175124821Y-224715138D01*
X175124821Y-224715138D02*
X175481964Y-224715138D01*
X175481964Y-224715138D02*
X175696250Y-224786567D01*
X175696250Y-224786567D02*
X175839107Y-224929424D01*
X175839107Y-224929424D02*
X175910536Y-225072281D01*
X175910536Y-225072281D02*
X175981964Y-225357995D01*
X175981964Y-225357995D02*
X175981964Y-225572281D01*
X175981964Y-225572281D02*
X175910536Y-225857995D01*
X175910536Y-225857995D02*
X175839107Y-226000852D01*
X175839107Y-226000852D02*
X175696250Y-226143710D01*
X175696250Y-226143710D02*
X175481964Y-226215138D01*
X175481964Y-226215138D02*
X175124821Y-226215138D01*
X177410536Y-226215138D02*
X176553393Y-226215138D01*
X176981964Y-226215138D02*
X176981964Y-224715138D01*
X176981964Y-224715138D02*
X176839107Y-224929424D01*
X176839107Y-224929424D02*
X176696250Y-225072281D01*
X176696250Y-225072281D02*
X176553393Y-225143710D01*
X178124821Y-226215138D02*
X178410535Y-226215138D01*
X178410535Y-226215138D02*
X178553392Y-226143710D01*
X178553392Y-226143710D02*
X178624821Y-226072281D01*
X178624821Y-226072281D02*
X178767678Y-225857995D01*
X178767678Y-225857995D02*
X178839107Y-225572281D01*
X178839107Y-225572281D02*
X178839107Y-225000852D01*
X178839107Y-225000852D02*
X178767678Y-224857995D01*
X178767678Y-224857995D02*
X178696250Y-224786567D01*
X178696250Y-224786567D02*
X178553392Y-224715138D01*
X178553392Y-224715138D02*
X178267678Y-224715138D01*
X178267678Y-224715138D02*
X178124821Y-224786567D01*
X178124821Y-224786567D02*
X178053392Y-224857995D01*
X178053392Y-224857995D02*
X177981964Y-225000852D01*
X177981964Y-225000852D02*
X177981964Y-225357995D01*
X177981964Y-225357995D02*
X178053392Y-225500852D01*
X178053392Y-225500852D02*
X178124821Y-225572281D01*
X178124821Y-225572281D02*
X178267678Y-225643710D01*
X178267678Y-225643710D02*
X178553392Y-225643710D01*
X178553392Y-225643710D02*
X178696250Y-225572281D01*
X178696250Y-225572281D02*
X178767678Y-225500852D01*
X178767678Y-225500852D02*
X178839107Y-225357995D01*
X81231069Y-179713154D02*
X82040592Y-179713154D01*
X82040592Y-179713154D02*
X82135830Y-179665535D01*
X82135830Y-179665535D02*
X82183450Y-179617916D01*
X82183450Y-179617916D02*
X82231069Y-179522678D01*
X82231069Y-179522678D02*
X82231069Y-179332202D01*
X82231069Y-179332202D02*
X82183450Y-179236964D01*
X82183450Y-179236964D02*
X82135830Y-179189345D01*
X82135830Y-179189345D02*
X82040592Y-179141726D01*
X82040592Y-179141726D02*
X81231069Y-179141726D01*
X81326307Y-178713154D02*
X81278688Y-178665535D01*
X81278688Y-178665535D02*
X81231069Y-178570297D01*
X81231069Y-178570297D02*
X81231069Y-178332202D01*
X81231069Y-178332202D02*
X81278688Y-178236964D01*
X81278688Y-178236964D02*
X81326307Y-178189345D01*
X81326307Y-178189345D02*
X81421545Y-178141726D01*
X81421545Y-178141726D02*
X81516783Y-178141726D01*
X81516783Y-178141726D02*
X81659640Y-178189345D01*
X81659640Y-178189345D02*
X82231069Y-178760773D01*
X82231069Y-178760773D02*
X82231069Y-178141726D01*
X74806069Y-203063333D02*
X74329878Y-203396666D01*
X74806069Y-203634761D02*
X73806069Y-203634761D01*
X73806069Y-203634761D02*
X73806069Y-203253809D01*
X73806069Y-203253809D02*
X73853688Y-203158571D01*
X73853688Y-203158571D02*
X73901307Y-203110952D01*
X73901307Y-203110952D02*
X73996545Y-203063333D01*
X73996545Y-203063333D02*
X74139402Y-203063333D01*
X74139402Y-203063333D02*
X74234640Y-203110952D01*
X74234640Y-203110952D02*
X74282259Y-203158571D01*
X74282259Y-203158571D02*
X74329878Y-203253809D01*
X74329878Y-203253809D02*
X74329878Y-203634761D01*
X74282259Y-202634761D02*
X74282259Y-202301428D01*
X74806069Y-202158571D02*
X74806069Y-202634761D01*
X74806069Y-202634761D02*
X73806069Y-202634761D01*
X73806069Y-202634761D02*
X73806069Y-202158571D01*
X74282259Y-201396666D02*
X74282259Y-201729999D01*
X74806069Y-201729999D02*
X73806069Y-201729999D01*
X73806069Y-201729999D02*
X73806069Y-201253809D01*
X73806069Y-200729999D02*
X74044164Y-200729999D01*
X73948926Y-200968094D02*
X74044164Y-200729999D01*
X74044164Y-200729999D02*
X73948926Y-200491904D01*
X74234640Y-200872856D02*
X74044164Y-200729999D01*
X74044164Y-200729999D02*
X74234640Y-200587142D01*
X73806069Y-199968094D02*
X74044164Y-199968094D01*
X73948926Y-200206189D02*
X74044164Y-199968094D01*
X74044164Y-199968094D02*
X73948926Y-199729999D01*
X74234640Y-200110951D02*
X74044164Y-199968094D01*
X74044164Y-199968094D02*
X74234640Y-199825237D01*
X103784819Y-169725833D02*
X103308628Y-170059166D01*
X103784819Y-170297261D02*
X102784819Y-170297261D01*
X102784819Y-170297261D02*
X102784819Y-169916309D01*
X102784819Y-169916309D02*
X102832438Y-169821071D01*
X102832438Y-169821071D02*
X102880057Y-169773452D01*
X102880057Y-169773452D02*
X102975295Y-169725833D01*
X102975295Y-169725833D02*
X103118152Y-169725833D01*
X103118152Y-169725833D02*
X103213390Y-169773452D01*
X103213390Y-169773452D02*
X103261009Y-169821071D01*
X103261009Y-169821071D02*
X103308628Y-169916309D01*
X103308628Y-169916309D02*
X103308628Y-170297261D01*
X103261009Y-169297261D02*
X103261009Y-168963928D01*
X103784819Y-168821071D02*
X103784819Y-169297261D01*
X103784819Y-169297261D02*
X102784819Y-169297261D01*
X102784819Y-169297261D02*
X102784819Y-168821071D01*
X103261009Y-168059166D02*
X103261009Y-168392499D01*
X103784819Y-168392499D02*
X102784819Y-168392499D01*
X102784819Y-168392499D02*
X102784819Y-167916309D01*
X102784819Y-167392499D02*
X103022914Y-167392499D01*
X102927676Y-167630594D02*
X103022914Y-167392499D01*
X103022914Y-167392499D02*
X102927676Y-167154404D01*
X103213390Y-167535356D02*
X103022914Y-167392499D01*
X103022914Y-167392499D02*
X103213390Y-167249642D01*
X102784819Y-166630594D02*
X103022914Y-166630594D01*
X102927676Y-166868689D02*
X103022914Y-166630594D01*
X103022914Y-166630594D02*
X102927676Y-166392499D01*
X103213390Y-166773451D02*
X103022914Y-166630594D01*
X103022914Y-166630594D02*
X103213390Y-166487737D01*
X136620417Y-197512200D02*
X136763274Y-197559819D01*
X136763274Y-197559819D02*
X137001369Y-197559819D01*
X137001369Y-197559819D02*
X137096607Y-197512200D01*
X137096607Y-197512200D02*
X137144226Y-197464580D01*
X137144226Y-197464580D02*
X137191845Y-197369342D01*
X137191845Y-197369342D02*
X137191845Y-197274104D01*
X137191845Y-197274104D02*
X137144226Y-197178866D01*
X137144226Y-197178866D02*
X137096607Y-197131247D01*
X137096607Y-197131247D02*
X137001369Y-197083628D01*
X137001369Y-197083628D02*
X136810893Y-197036009D01*
X136810893Y-197036009D02*
X136715655Y-196988390D01*
X136715655Y-196988390D02*
X136668036Y-196940771D01*
X136668036Y-196940771D02*
X136620417Y-196845533D01*
X136620417Y-196845533D02*
X136620417Y-196750295D01*
X136620417Y-196750295D02*
X136668036Y-196655057D01*
X136668036Y-196655057D02*
X136715655Y-196607438D01*
X136715655Y-196607438D02*
X136810893Y-196559819D01*
X136810893Y-196559819D02*
X137048988Y-196559819D01*
X137048988Y-196559819D02*
X137191845Y-196607438D01*
X137525179Y-196559819D02*
X137763274Y-197559819D01*
X137763274Y-197559819D02*
X137953750Y-196845533D01*
X137953750Y-196845533D02*
X138144226Y-197559819D01*
X138144226Y-197559819D02*
X138382322Y-196559819D01*
X139287083Y-197559819D02*
X138715655Y-197559819D01*
X139001369Y-197559819D02*
X139001369Y-196559819D01*
X139001369Y-196559819D02*
X138906131Y-196702676D01*
X138906131Y-196702676D02*
X138810893Y-196797914D01*
X138810893Y-196797914D02*
X138715655Y-196845533D01*
X156074821Y-192877638D02*
X156074821Y-191377638D01*
X156074821Y-191377638D02*
X156431964Y-191377638D01*
X156431964Y-191377638D02*
X156646250Y-191449067D01*
X156646250Y-191449067D02*
X156789107Y-191591924D01*
X156789107Y-191591924D02*
X156860536Y-191734781D01*
X156860536Y-191734781D02*
X156931964Y-192020495D01*
X156931964Y-192020495D02*
X156931964Y-192234781D01*
X156931964Y-192234781D02*
X156860536Y-192520495D01*
X156860536Y-192520495D02*
X156789107Y-192663352D01*
X156789107Y-192663352D02*
X156646250Y-192806210D01*
X156646250Y-192806210D02*
X156431964Y-192877638D01*
X156431964Y-192877638D02*
X156074821Y-192877638D01*
X157503393Y-191520495D02*
X157574821Y-191449067D01*
X157574821Y-191449067D02*
X157717679Y-191377638D01*
X157717679Y-191377638D02*
X158074821Y-191377638D01*
X158074821Y-191377638D02*
X158217679Y-191449067D01*
X158217679Y-191449067D02*
X158289107Y-191520495D01*
X158289107Y-191520495D02*
X158360536Y-191663352D01*
X158360536Y-191663352D02*
X158360536Y-191806210D01*
X158360536Y-191806210D02*
X158289107Y-192020495D01*
X158289107Y-192020495D02*
X157431964Y-192877638D01*
X157431964Y-192877638D02*
X158360536Y-192877638D01*
X159646250Y-191377638D02*
X159360535Y-191377638D01*
X159360535Y-191377638D02*
X159217678Y-191449067D01*
X159217678Y-191449067D02*
X159146250Y-191520495D01*
X159146250Y-191520495D02*
X159003392Y-191734781D01*
X159003392Y-191734781D02*
X158931964Y-192020495D01*
X158931964Y-192020495D02*
X158931964Y-192591924D01*
X158931964Y-192591924D02*
X159003392Y-192734781D01*
X159003392Y-192734781D02*
X159074821Y-192806210D01*
X159074821Y-192806210D02*
X159217678Y-192877638D01*
X159217678Y-192877638D02*
X159503392Y-192877638D01*
X159503392Y-192877638D02*
X159646250Y-192806210D01*
X159646250Y-192806210D02*
X159717678Y-192734781D01*
X159717678Y-192734781D02*
X159789107Y-192591924D01*
X159789107Y-192591924D02*
X159789107Y-192234781D01*
X159789107Y-192234781D02*
X159717678Y-192091924D01*
X159717678Y-192091924D02*
X159646250Y-192020495D01*
X159646250Y-192020495D02*
X159503392Y-191949067D01*
X159503392Y-191949067D02*
X159217678Y-191949067D01*
X159217678Y-191949067D02*
X159074821Y-192020495D01*
X159074821Y-192020495D02*
X159003392Y-192091924D01*
X159003392Y-192091924D02*
X158931964Y-192234781D01*
X194174821Y-192877638D02*
X194174821Y-191377638D01*
X194174821Y-191377638D02*
X194531964Y-191377638D01*
X194531964Y-191377638D02*
X194746250Y-191449067D01*
X194746250Y-191449067D02*
X194889107Y-191591924D01*
X194889107Y-191591924D02*
X194960536Y-191734781D01*
X194960536Y-191734781D02*
X195031964Y-192020495D01*
X195031964Y-192020495D02*
X195031964Y-192234781D01*
X195031964Y-192234781D02*
X194960536Y-192520495D01*
X194960536Y-192520495D02*
X194889107Y-192663352D01*
X194889107Y-192663352D02*
X194746250Y-192806210D01*
X194746250Y-192806210D02*
X194531964Y-192877638D01*
X194531964Y-192877638D02*
X194174821Y-192877638D01*
X195603393Y-191520495D02*
X195674821Y-191449067D01*
X195674821Y-191449067D02*
X195817679Y-191377638D01*
X195817679Y-191377638D02*
X196174821Y-191377638D01*
X196174821Y-191377638D02*
X196317679Y-191449067D01*
X196317679Y-191449067D02*
X196389107Y-191520495D01*
X196389107Y-191520495D02*
X196460536Y-191663352D01*
X196460536Y-191663352D02*
X196460536Y-191806210D01*
X196460536Y-191806210D02*
X196389107Y-192020495D01*
X196389107Y-192020495D02*
X195531964Y-192877638D01*
X195531964Y-192877638D02*
X196460536Y-192877638D01*
X196960535Y-191377638D02*
X197960535Y-191377638D01*
X197960535Y-191377638D02*
X197317678Y-192877638D01*
X231870417Y-197512200D02*
X232013274Y-197559819D01*
X232013274Y-197559819D02*
X232251369Y-197559819D01*
X232251369Y-197559819D02*
X232346607Y-197512200D01*
X232346607Y-197512200D02*
X232394226Y-197464580D01*
X232394226Y-197464580D02*
X232441845Y-197369342D01*
X232441845Y-197369342D02*
X232441845Y-197274104D01*
X232441845Y-197274104D02*
X232394226Y-197178866D01*
X232394226Y-197178866D02*
X232346607Y-197131247D01*
X232346607Y-197131247D02*
X232251369Y-197083628D01*
X232251369Y-197083628D02*
X232060893Y-197036009D01*
X232060893Y-197036009D02*
X231965655Y-196988390D01*
X231965655Y-196988390D02*
X231918036Y-196940771D01*
X231918036Y-196940771D02*
X231870417Y-196845533D01*
X231870417Y-196845533D02*
X231870417Y-196750295D01*
X231870417Y-196750295D02*
X231918036Y-196655057D01*
X231918036Y-196655057D02*
X231965655Y-196607438D01*
X231965655Y-196607438D02*
X232060893Y-196559819D01*
X232060893Y-196559819D02*
X232298988Y-196559819D01*
X232298988Y-196559819D02*
X232441845Y-196607438D01*
X232775179Y-196559819D02*
X233013274Y-197559819D01*
X233013274Y-197559819D02*
X233203750Y-196845533D01*
X233203750Y-196845533D02*
X233394226Y-197559819D01*
X233394226Y-197559819D02*
X233632322Y-196559819D01*
X234441845Y-196893152D02*
X234441845Y-197559819D01*
X234203750Y-196512200D02*
X233965655Y-197226485D01*
X233965655Y-197226485D02*
X234584702Y-197226485D01*
X227206069Y-203063333D02*
X226729878Y-203396666D01*
X227206069Y-203634761D02*
X226206069Y-203634761D01*
X226206069Y-203634761D02*
X226206069Y-203253809D01*
X226206069Y-203253809D02*
X226253688Y-203158571D01*
X226253688Y-203158571D02*
X226301307Y-203110952D01*
X226301307Y-203110952D02*
X226396545Y-203063333D01*
X226396545Y-203063333D02*
X226539402Y-203063333D01*
X226539402Y-203063333D02*
X226634640Y-203110952D01*
X226634640Y-203110952D02*
X226682259Y-203158571D01*
X226682259Y-203158571D02*
X226729878Y-203253809D01*
X226729878Y-203253809D02*
X226729878Y-203634761D01*
X226682259Y-202634761D02*
X226682259Y-202301428D01*
X227206069Y-202158571D02*
X227206069Y-202634761D01*
X227206069Y-202634761D02*
X226206069Y-202634761D01*
X226206069Y-202634761D02*
X226206069Y-202158571D01*
X226682259Y-201396666D02*
X226682259Y-201729999D01*
X227206069Y-201729999D02*
X226206069Y-201729999D01*
X226206069Y-201729999D02*
X226206069Y-201253809D01*
X226206069Y-200729999D02*
X226444164Y-200729999D01*
X226348926Y-200968094D02*
X226444164Y-200729999D01*
X226444164Y-200729999D02*
X226348926Y-200491904D01*
X226634640Y-200872856D02*
X226444164Y-200729999D01*
X226444164Y-200729999D02*
X226634640Y-200587142D01*
X226206069Y-199968094D02*
X226444164Y-199968094D01*
X226348926Y-200206189D02*
X226444164Y-199968094D01*
X226444164Y-199968094D02*
X226348926Y-199729999D01*
X226634640Y-200110951D02*
X226444164Y-199968094D01*
X226444164Y-199968094D02*
X226634640Y-199825237D01*
X93856069Y-203063333D02*
X93379878Y-203396666D01*
X93856069Y-203634761D02*
X92856069Y-203634761D01*
X92856069Y-203634761D02*
X92856069Y-203253809D01*
X92856069Y-203253809D02*
X92903688Y-203158571D01*
X92903688Y-203158571D02*
X92951307Y-203110952D01*
X92951307Y-203110952D02*
X93046545Y-203063333D01*
X93046545Y-203063333D02*
X93189402Y-203063333D01*
X93189402Y-203063333D02*
X93284640Y-203110952D01*
X93284640Y-203110952D02*
X93332259Y-203158571D01*
X93332259Y-203158571D02*
X93379878Y-203253809D01*
X93379878Y-203253809D02*
X93379878Y-203634761D01*
X93332259Y-202634761D02*
X93332259Y-202301428D01*
X93856069Y-202158571D02*
X93856069Y-202634761D01*
X93856069Y-202634761D02*
X92856069Y-202634761D01*
X92856069Y-202634761D02*
X92856069Y-202158571D01*
X93332259Y-201396666D02*
X93332259Y-201729999D01*
X93856069Y-201729999D02*
X92856069Y-201729999D01*
X92856069Y-201729999D02*
X92856069Y-201253809D01*
X92856069Y-200729999D02*
X93094164Y-200729999D01*
X92998926Y-200968094D02*
X93094164Y-200729999D01*
X93094164Y-200729999D02*
X92998926Y-200491904D01*
X93284640Y-200872856D02*
X93094164Y-200729999D01*
X93094164Y-200729999D02*
X93284640Y-200587142D01*
X92856069Y-199968094D02*
X93094164Y-199968094D01*
X92998926Y-200206189D02*
X93094164Y-199968094D01*
X93094164Y-199968094D02*
X92998926Y-199729999D01*
X93284640Y-200110951D02*
X93094164Y-199968094D01*
X93094164Y-199968094D02*
X93284640Y-199825237D01*
X270374821Y-226215138D02*
X270374821Y-224715138D01*
X270374821Y-224715138D02*
X270731964Y-224715138D01*
X270731964Y-224715138D02*
X270946250Y-224786567D01*
X270946250Y-224786567D02*
X271089107Y-224929424D01*
X271089107Y-224929424D02*
X271160536Y-225072281D01*
X271160536Y-225072281D02*
X271231964Y-225357995D01*
X271231964Y-225357995D02*
X271231964Y-225572281D01*
X271231964Y-225572281D02*
X271160536Y-225857995D01*
X271160536Y-225857995D02*
X271089107Y-226000852D01*
X271089107Y-226000852D02*
X270946250Y-226143710D01*
X270946250Y-226143710D02*
X270731964Y-226215138D01*
X270731964Y-226215138D02*
X270374821Y-226215138D01*
X271803393Y-224857995D02*
X271874821Y-224786567D01*
X271874821Y-224786567D02*
X272017679Y-224715138D01*
X272017679Y-224715138D02*
X272374821Y-224715138D01*
X272374821Y-224715138D02*
X272517679Y-224786567D01*
X272517679Y-224786567D02*
X272589107Y-224857995D01*
X272589107Y-224857995D02*
X272660536Y-225000852D01*
X272660536Y-225000852D02*
X272660536Y-225143710D01*
X272660536Y-225143710D02*
X272589107Y-225357995D01*
X272589107Y-225357995D02*
X271731964Y-226215138D01*
X271731964Y-226215138D02*
X272660536Y-226215138D01*
X273231964Y-224857995D02*
X273303392Y-224786567D01*
X273303392Y-224786567D02*
X273446250Y-224715138D01*
X273446250Y-224715138D02*
X273803392Y-224715138D01*
X273803392Y-224715138D02*
X273946250Y-224786567D01*
X273946250Y-224786567D02*
X274017678Y-224857995D01*
X274017678Y-224857995D02*
X274089107Y-225000852D01*
X274089107Y-225000852D02*
X274089107Y-225143710D01*
X274089107Y-225143710D02*
X274017678Y-225357995D01*
X274017678Y-225357995D02*
X273160535Y-226215138D01*
X273160535Y-226215138D02*
X274089107Y-226215138D01*
X84459140Y-163298928D02*
X84421045Y-163375118D01*
X84421045Y-163375118D02*
X84421045Y-163489404D01*
X84421045Y-163489404D02*
X84459140Y-163603690D01*
X84459140Y-163603690D02*
X84535330Y-163679880D01*
X84535330Y-163679880D02*
X84611521Y-163717975D01*
X84611521Y-163717975D02*
X84763902Y-163756071D01*
X84763902Y-163756071D02*
X84878188Y-163756071D01*
X84878188Y-163756071D02*
X85030569Y-163717975D01*
X85030569Y-163717975D02*
X85106759Y-163679880D01*
X85106759Y-163679880D02*
X85182950Y-163603690D01*
X85182950Y-163603690D02*
X85221045Y-163489404D01*
X85221045Y-163489404D02*
X85221045Y-163413213D01*
X85221045Y-163413213D02*
X85182950Y-163298928D01*
X85182950Y-163298928D02*
X85144854Y-163260832D01*
X85144854Y-163260832D02*
X84878188Y-163260832D01*
X84878188Y-163260832D02*
X84878188Y-163413213D01*
X85221045Y-162917975D02*
X84421045Y-162917975D01*
X84421045Y-162917975D02*
X84421045Y-162613213D01*
X84421045Y-162613213D02*
X84459140Y-162537023D01*
X84459140Y-162537023D02*
X84497235Y-162498928D01*
X84497235Y-162498928D02*
X84573426Y-162460832D01*
X84573426Y-162460832D02*
X84687711Y-162460832D01*
X84687711Y-162460832D02*
X84763902Y-162498928D01*
X84763902Y-162498928D02*
X84801997Y-162537023D01*
X84801997Y-162537023D02*
X84840092Y-162613213D01*
X84840092Y-162613213D02*
X84840092Y-162917975D01*
X84763902Y-162003690D02*
X84725807Y-162079880D01*
X84725807Y-162079880D02*
X84687711Y-162117975D01*
X84687711Y-162117975D02*
X84611521Y-162156071D01*
X84611521Y-162156071D02*
X84573426Y-162156071D01*
X84573426Y-162156071D02*
X84497235Y-162117975D01*
X84497235Y-162117975D02*
X84459140Y-162079880D01*
X84459140Y-162079880D02*
X84421045Y-162003690D01*
X84421045Y-162003690D02*
X84421045Y-161851309D01*
X84421045Y-161851309D02*
X84459140Y-161775118D01*
X84459140Y-161775118D02*
X84497235Y-161737023D01*
X84497235Y-161737023D02*
X84573426Y-161698928D01*
X84573426Y-161698928D02*
X84611521Y-161698928D01*
X84611521Y-161698928D02*
X84687711Y-161737023D01*
X84687711Y-161737023D02*
X84725807Y-161775118D01*
X84725807Y-161775118D02*
X84763902Y-161851309D01*
X84763902Y-161851309D02*
X84763902Y-162003690D01*
X84763902Y-162003690D02*
X84801997Y-162079880D01*
X84801997Y-162079880D02*
X84840092Y-162117975D01*
X84840092Y-162117975D02*
X84916283Y-162156071D01*
X84916283Y-162156071D02*
X85068664Y-162156071D01*
X85068664Y-162156071D02*
X85144854Y-162117975D01*
X85144854Y-162117975D02*
X85182950Y-162079880D01*
X85182950Y-162079880D02*
X85221045Y-162003690D01*
X85221045Y-162003690D02*
X85221045Y-161851309D01*
X85221045Y-161851309D02*
X85182950Y-161775118D01*
X85182950Y-161775118D02*
X85144854Y-161737023D01*
X85144854Y-161737023D02*
X85068664Y-161698928D01*
X85068664Y-161698928D02*
X84916283Y-161698928D01*
X84916283Y-161698928D02*
X84840092Y-161737023D01*
X84840092Y-161737023D02*
X84801997Y-161775118D01*
X84801997Y-161775118D02*
X84763902Y-161851309D01*
X69181045Y-151637976D02*
X69181045Y-151142738D01*
X69181045Y-151142738D02*
X69485807Y-151409404D01*
X69485807Y-151409404D02*
X69485807Y-151295119D01*
X69485807Y-151295119D02*
X69523902Y-151218928D01*
X69523902Y-151218928D02*
X69561997Y-151180833D01*
X69561997Y-151180833D02*
X69638188Y-151142738D01*
X69638188Y-151142738D02*
X69828664Y-151142738D01*
X69828664Y-151142738D02*
X69904854Y-151180833D01*
X69904854Y-151180833D02*
X69942950Y-151218928D01*
X69942950Y-151218928D02*
X69981045Y-151295119D01*
X69981045Y-151295119D02*
X69981045Y-151523690D01*
X69981045Y-151523690D02*
X69942950Y-151599881D01*
X69942950Y-151599881D02*
X69904854Y-151637976D01*
X69181045Y-150914166D02*
X69981045Y-150647499D01*
X69981045Y-150647499D02*
X69181045Y-150380833D01*
X69181045Y-150190357D02*
X69181045Y-149695119D01*
X69181045Y-149695119D02*
X69485807Y-149961785D01*
X69485807Y-149961785D02*
X69485807Y-149847500D01*
X69485807Y-149847500D02*
X69523902Y-149771309D01*
X69523902Y-149771309D02*
X69561997Y-149733214D01*
X69561997Y-149733214D02*
X69638188Y-149695119D01*
X69638188Y-149695119D02*
X69828664Y-149695119D01*
X69828664Y-149695119D02*
X69904854Y-149733214D01*
X69904854Y-149733214D02*
X69942950Y-149771309D01*
X69942950Y-149771309D02*
X69981045Y-149847500D01*
X69981045Y-149847500D02*
X69981045Y-150076071D01*
X69981045Y-150076071D02*
X69942950Y-150152262D01*
X69942950Y-150152262D02*
X69904854Y-150190357D01*
X59059140Y-163298928D02*
X59021045Y-163375118D01*
X59021045Y-163375118D02*
X59021045Y-163489404D01*
X59021045Y-163489404D02*
X59059140Y-163603690D01*
X59059140Y-163603690D02*
X59135330Y-163679880D01*
X59135330Y-163679880D02*
X59211521Y-163717975D01*
X59211521Y-163717975D02*
X59363902Y-163756071D01*
X59363902Y-163756071D02*
X59478188Y-163756071D01*
X59478188Y-163756071D02*
X59630569Y-163717975D01*
X59630569Y-163717975D02*
X59706759Y-163679880D01*
X59706759Y-163679880D02*
X59782950Y-163603690D01*
X59782950Y-163603690D02*
X59821045Y-163489404D01*
X59821045Y-163489404D02*
X59821045Y-163413213D01*
X59821045Y-163413213D02*
X59782950Y-163298928D01*
X59782950Y-163298928D02*
X59744854Y-163260832D01*
X59744854Y-163260832D02*
X59478188Y-163260832D01*
X59478188Y-163260832D02*
X59478188Y-163413213D01*
X59821045Y-162917975D02*
X59021045Y-162917975D01*
X59021045Y-162917975D02*
X59021045Y-162613213D01*
X59021045Y-162613213D02*
X59059140Y-162537023D01*
X59059140Y-162537023D02*
X59097235Y-162498928D01*
X59097235Y-162498928D02*
X59173426Y-162460832D01*
X59173426Y-162460832D02*
X59287711Y-162460832D01*
X59287711Y-162460832D02*
X59363902Y-162498928D01*
X59363902Y-162498928D02*
X59401997Y-162537023D01*
X59401997Y-162537023D02*
X59440092Y-162613213D01*
X59440092Y-162613213D02*
X59440092Y-162917975D01*
X59021045Y-161965594D02*
X59021045Y-161889404D01*
X59021045Y-161889404D02*
X59059140Y-161813213D01*
X59059140Y-161813213D02*
X59097235Y-161775118D01*
X59097235Y-161775118D02*
X59173426Y-161737023D01*
X59173426Y-161737023D02*
X59325807Y-161698928D01*
X59325807Y-161698928D02*
X59516283Y-161698928D01*
X59516283Y-161698928D02*
X59668664Y-161737023D01*
X59668664Y-161737023D02*
X59744854Y-161775118D01*
X59744854Y-161775118D02*
X59782950Y-161813213D01*
X59782950Y-161813213D02*
X59821045Y-161889404D01*
X59821045Y-161889404D02*
X59821045Y-161965594D01*
X59821045Y-161965594D02*
X59782950Y-162041785D01*
X59782950Y-162041785D02*
X59744854Y-162079880D01*
X59744854Y-162079880D02*
X59668664Y-162117975D01*
X59668664Y-162117975D02*
X59516283Y-162156071D01*
X59516283Y-162156071D02*
X59325807Y-162156071D01*
X59325807Y-162156071D02*
X59173426Y-162117975D01*
X59173426Y-162117975D02*
X59097235Y-162079880D01*
X59097235Y-162079880D02*
X59059140Y-162041785D01*
X59059140Y-162041785D02*
X59021045Y-161965594D01*
X86999140Y-163298928D02*
X86961045Y-163375118D01*
X86961045Y-163375118D02*
X86961045Y-163489404D01*
X86961045Y-163489404D02*
X86999140Y-163603690D01*
X86999140Y-163603690D02*
X87075330Y-163679880D01*
X87075330Y-163679880D02*
X87151521Y-163717975D01*
X87151521Y-163717975D02*
X87303902Y-163756071D01*
X87303902Y-163756071D02*
X87418188Y-163756071D01*
X87418188Y-163756071D02*
X87570569Y-163717975D01*
X87570569Y-163717975D02*
X87646759Y-163679880D01*
X87646759Y-163679880D02*
X87722950Y-163603690D01*
X87722950Y-163603690D02*
X87761045Y-163489404D01*
X87761045Y-163489404D02*
X87761045Y-163413213D01*
X87761045Y-163413213D02*
X87722950Y-163298928D01*
X87722950Y-163298928D02*
X87684854Y-163260832D01*
X87684854Y-163260832D02*
X87418188Y-163260832D01*
X87418188Y-163260832D02*
X87418188Y-163413213D01*
X87761045Y-162917975D02*
X86961045Y-162917975D01*
X86961045Y-162917975D02*
X86961045Y-162613213D01*
X86961045Y-162613213D02*
X86999140Y-162537023D01*
X86999140Y-162537023D02*
X87037235Y-162498928D01*
X87037235Y-162498928D02*
X87113426Y-162460832D01*
X87113426Y-162460832D02*
X87227711Y-162460832D01*
X87227711Y-162460832D02*
X87303902Y-162498928D01*
X87303902Y-162498928D02*
X87341997Y-162537023D01*
X87341997Y-162537023D02*
X87380092Y-162613213D01*
X87380092Y-162613213D02*
X87380092Y-162917975D01*
X87761045Y-162079880D02*
X87761045Y-161927499D01*
X87761045Y-161927499D02*
X87722950Y-161851309D01*
X87722950Y-161851309D02*
X87684854Y-161813213D01*
X87684854Y-161813213D02*
X87570569Y-161737023D01*
X87570569Y-161737023D02*
X87418188Y-161698928D01*
X87418188Y-161698928D02*
X87113426Y-161698928D01*
X87113426Y-161698928D02*
X87037235Y-161737023D01*
X87037235Y-161737023D02*
X86999140Y-161775118D01*
X86999140Y-161775118D02*
X86961045Y-161851309D01*
X86961045Y-161851309D02*
X86961045Y-162003690D01*
X86961045Y-162003690D02*
X86999140Y-162079880D01*
X86999140Y-162079880D02*
X87037235Y-162117975D01*
X87037235Y-162117975D02*
X87113426Y-162156071D01*
X87113426Y-162156071D02*
X87303902Y-162156071D01*
X87303902Y-162156071D02*
X87380092Y-162117975D01*
X87380092Y-162117975D02*
X87418188Y-162079880D01*
X87418188Y-162079880D02*
X87456283Y-162003690D01*
X87456283Y-162003690D02*
X87456283Y-161851309D01*
X87456283Y-161851309D02*
X87418188Y-161775118D01*
X87418188Y-161775118D02*
X87380092Y-161737023D01*
X87380092Y-161737023D02*
X87303902Y-161698928D01*
X102029225Y-159551700D02*
X102143511Y-159589795D01*
X102143511Y-159589795D02*
X102333987Y-159589795D01*
X102333987Y-159589795D02*
X102410178Y-159551700D01*
X102410178Y-159551700D02*
X102448273Y-159513604D01*
X102448273Y-159513604D02*
X102486368Y-159437414D01*
X102486368Y-159437414D02*
X102486368Y-159361223D01*
X102486368Y-159361223D02*
X102448273Y-159285033D01*
X102448273Y-159285033D02*
X102410178Y-159246938D01*
X102410178Y-159246938D02*
X102333987Y-159208842D01*
X102333987Y-159208842D02*
X102181606Y-159170747D01*
X102181606Y-159170747D02*
X102105416Y-159132652D01*
X102105416Y-159132652D02*
X102067321Y-159094557D01*
X102067321Y-159094557D02*
X102029225Y-159018366D01*
X102029225Y-159018366D02*
X102029225Y-158942176D01*
X102029225Y-158942176D02*
X102067321Y-158865985D01*
X102067321Y-158865985D02*
X102105416Y-158827890D01*
X102105416Y-158827890D02*
X102181606Y-158789795D01*
X102181606Y-158789795D02*
X102372083Y-158789795D01*
X102372083Y-158789795D02*
X102486368Y-158827890D01*
X102753035Y-158789795D02*
X102943511Y-159589795D01*
X102943511Y-159589795D02*
X103095892Y-159018366D01*
X103095892Y-159018366D02*
X103248273Y-159589795D01*
X103248273Y-159589795D02*
X103438750Y-158789795D01*
X104200655Y-159513604D02*
X104162559Y-159551700D01*
X104162559Y-159551700D02*
X104048274Y-159589795D01*
X104048274Y-159589795D02*
X103972083Y-159589795D01*
X103972083Y-159589795D02*
X103857797Y-159551700D01*
X103857797Y-159551700D02*
X103781607Y-159475509D01*
X103781607Y-159475509D02*
X103743512Y-159399319D01*
X103743512Y-159399319D02*
X103705416Y-159246938D01*
X103705416Y-159246938D02*
X103705416Y-159132652D01*
X103705416Y-159132652D02*
X103743512Y-158980271D01*
X103743512Y-158980271D02*
X103781607Y-158904080D01*
X103781607Y-158904080D02*
X103857797Y-158827890D01*
X103857797Y-158827890D02*
X103972083Y-158789795D01*
X103972083Y-158789795D02*
X104048274Y-158789795D01*
X104048274Y-158789795D02*
X104162559Y-158827890D01*
X104162559Y-158827890D02*
X104200655Y-158865985D01*
X104924464Y-159589795D02*
X104543512Y-159589795D01*
X104543512Y-159589795D02*
X104543512Y-158789795D01*
X105191131Y-159589795D02*
X105191131Y-158789795D01*
X105648274Y-159589795D02*
X105305416Y-159132652D01*
X105648274Y-158789795D02*
X105191131Y-159246938D01*
X77372473Y-152557023D02*
X77372473Y-152176070D01*
X77601045Y-152633213D02*
X76801045Y-152366546D01*
X76801045Y-152366546D02*
X77601045Y-152099880D01*
X76839140Y-151414166D02*
X76801045Y-151490356D01*
X76801045Y-151490356D02*
X76801045Y-151604642D01*
X76801045Y-151604642D02*
X76839140Y-151718928D01*
X76839140Y-151718928D02*
X76915330Y-151795118D01*
X76915330Y-151795118D02*
X76991521Y-151833213D01*
X76991521Y-151833213D02*
X77143902Y-151871309D01*
X77143902Y-151871309D02*
X77258188Y-151871309D01*
X77258188Y-151871309D02*
X77410569Y-151833213D01*
X77410569Y-151833213D02*
X77486759Y-151795118D01*
X77486759Y-151795118D02*
X77562950Y-151718928D01*
X77562950Y-151718928D02*
X77601045Y-151604642D01*
X77601045Y-151604642D02*
X77601045Y-151528451D01*
X77601045Y-151528451D02*
X77562950Y-151414166D01*
X77562950Y-151414166D02*
X77524854Y-151376070D01*
X77524854Y-151376070D02*
X77258188Y-151376070D01*
X77258188Y-151376070D02*
X77258188Y-151528451D01*
X77601045Y-151033213D02*
X76801045Y-151033213D01*
X76801045Y-151033213D02*
X77601045Y-150576070D01*
X77601045Y-150576070D02*
X76801045Y-150576070D01*
X77601045Y-150195118D02*
X76801045Y-150195118D01*
X76801045Y-150195118D02*
X76801045Y-150004642D01*
X76801045Y-150004642D02*
X76839140Y-149890356D01*
X76839140Y-149890356D02*
X76915330Y-149814166D01*
X76915330Y-149814166D02*
X76991521Y-149776071D01*
X76991521Y-149776071D02*
X77143902Y-149737975D01*
X77143902Y-149737975D02*
X77258188Y-149737975D01*
X77258188Y-149737975D02*
X77410569Y-149776071D01*
X77410569Y-149776071D02*
X77486759Y-149814166D01*
X77486759Y-149814166D02*
X77562950Y-149890356D01*
X77562950Y-149890356D02*
X77601045Y-150004642D01*
X77601045Y-150004642D02*
X77601045Y-150195118D01*
X103979226Y-156287890D02*
X103903036Y-156249795D01*
X103903036Y-156249795D02*
X103788750Y-156249795D01*
X103788750Y-156249795D02*
X103674464Y-156287890D01*
X103674464Y-156287890D02*
X103598274Y-156364080D01*
X103598274Y-156364080D02*
X103560179Y-156440271D01*
X103560179Y-156440271D02*
X103522083Y-156592652D01*
X103522083Y-156592652D02*
X103522083Y-156706938D01*
X103522083Y-156706938D02*
X103560179Y-156859319D01*
X103560179Y-156859319D02*
X103598274Y-156935509D01*
X103598274Y-156935509D02*
X103674464Y-157011700D01*
X103674464Y-157011700D02*
X103788750Y-157049795D01*
X103788750Y-157049795D02*
X103864941Y-157049795D01*
X103864941Y-157049795D02*
X103979226Y-157011700D01*
X103979226Y-157011700D02*
X104017322Y-156973604D01*
X104017322Y-156973604D02*
X104017322Y-156706938D01*
X104017322Y-156706938D02*
X103864941Y-156706938D01*
X104360179Y-157049795D02*
X104360179Y-156249795D01*
X104360179Y-156249795D02*
X104817322Y-157049795D01*
X104817322Y-157049795D02*
X104817322Y-156249795D01*
X105198274Y-157049795D02*
X105198274Y-156249795D01*
X105198274Y-156249795D02*
X105388750Y-156249795D01*
X105388750Y-156249795D02*
X105503036Y-156287890D01*
X105503036Y-156287890D02*
X105579226Y-156364080D01*
X105579226Y-156364080D02*
X105617321Y-156440271D01*
X105617321Y-156440271D02*
X105655417Y-156592652D01*
X105655417Y-156592652D02*
X105655417Y-156706938D01*
X105655417Y-156706938D02*
X105617321Y-156859319D01*
X105617321Y-156859319D02*
X105579226Y-156935509D01*
X105579226Y-156935509D02*
X105503036Y-157011700D01*
X105503036Y-157011700D02*
X105388750Y-157049795D01*
X105388750Y-157049795D02*
X105198274Y-157049795D01*
X61589140Y-163298928D02*
X61551045Y-163375118D01*
X61551045Y-163375118D02*
X61551045Y-163489404D01*
X61551045Y-163489404D02*
X61589140Y-163603690D01*
X61589140Y-163603690D02*
X61665330Y-163679880D01*
X61665330Y-163679880D02*
X61741521Y-163717975D01*
X61741521Y-163717975D02*
X61893902Y-163756071D01*
X61893902Y-163756071D02*
X62008188Y-163756071D01*
X62008188Y-163756071D02*
X62160569Y-163717975D01*
X62160569Y-163717975D02*
X62236759Y-163679880D01*
X62236759Y-163679880D02*
X62312950Y-163603690D01*
X62312950Y-163603690D02*
X62351045Y-163489404D01*
X62351045Y-163489404D02*
X62351045Y-163413213D01*
X62351045Y-163413213D02*
X62312950Y-163298928D01*
X62312950Y-163298928D02*
X62274854Y-163260832D01*
X62274854Y-163260832D02*
X62008188Y-163260832D01*
X62008188Y-163260832D02*
X62008188Y-163413213D01*
X62351045Y-162917975D02*
X61551045Y-162917975D01*
X61551045Y-162917975D02*
X61551045Y-162613213D01*
X61551045Y-162613213D02*
X61589140Y-162537023D01*
X61589140Y-162537023D02*
X61627235Y-162498928D01*
X61627235Y-162498928D02*
X61703426Y-162460832D01*
X61703426Y-162460832D02*
X61817711Y-162460832D01*
X61817711Y-162460832D02*
X61893902Y-162498928D01*
X61893902Y-162498928D02*
X61931997Y-162537023D01*
X61931997Y-162537023D02*
X61970092Y-162613213D01*
X61970092Y-162613213D02*
X61970092Y-162917975D01*
X62351045Y-161698928D02*
X62351045Y-162156071D01*
X62351045Y-161927499D02*
X61551045Y-161927499D01*
X61551045Y-161927499D02*
X61665330Y-162003690D01*
X61665330Y-162003690D02*
X61741521Y-162079880D01*
X61741521Y-162079880D02*
X61779616Y-162156071D01*
X102143511Y-154471700D02*
X102257797Y-154509795D01*
X102257797Y-154509795D02*
X102448273Y-154509795D01*
X102448273Y-154509795D02*
X102524464Y-154471700D01*
X102524464Y-154471700D02*
X102562559Y-154433604D01*
X102562559Y-154433604D02*
X102600654Y-154357414D01*
X102600654Y-154357414D02*
X102600654Y-154281223D01*
X102600654Y-154281223D02*
X102562559Y-154205033D01*
X102562559Y-154205033D02*
X102524464Y-154166938D01*
X102524464Y-154166938D02*
X102448273Y-154128842D01*
X102448273Y-154128842D02*
X102295892Y-154090747D01*
X102295892Y-154090747D02*
X102219702Y-154052652D01*
X102219702Y-154052652D02*
X102181607Y-154014557D01*
X102181607Y-154014557D02*
X102143511Y-153938366D01*
X102143511Y-153938366D02*
X102143511Y-153862176D01*
X102143511Y-153862176D02*
X102181607Y-153785985D01*
X102181607Y-153785985D02*
X102219702Y-153747890D01*
X102219702Y-153747890D02*
X102295892Y-153709795D01*
X102295892Y-153709795D02*
X102486369Y-153709795D01*
X102486369Y-153709795D02*
X102600654Y-153747890D01*
X102867321Y-153709795D02*
X103057797Y-154509795D01*
X103057797Y-154509795D02*
X103210178Y-153938366D01*
X103210178Y-153938366D02*
X103362559Y-154509795D01*
X103362559Y-154509795D02*
X103553036Y-153709795D01*
X103857798Y-154509795D02*
X103857798Y-153709795D01*
X103857798Y-153709795D02*
X104048274Y-153709795D01*
X104048274Y-153709795D02*
X104162560Y-153747890D01*
X104162560Y-153747890D02*
X104238750Y-153824080D01*
X104238750Y-153824080D02*
X104276845Y-153900271D01*
X104276845Y-153900271D02*
X104314941Y-154052652D01*
X104314941Y-154052652D02*
X104314941Y-154166938D01*
X104314941Y-154166938D02*
X104276845Y-154319319D01*
X104276845Y-154319319D02*
X104238750Y-154395509D01*
X104238750Y-154395509D02*
X104162560Y-154471700D01*
X104162560Y-154471700D02*
X104048274Y-154509795D01*
X104048274Y-154509795D02*
X103857798Y-154509795D01*
X104657798Y-154509795D02*
X104657798Y-153709795D01*
X105191131Y-153709795D02*
X105343512Y-153709795D01*
X105343512Y-153709795D02*
X105419702Y-153747890D01*
X105419702Y-153747890D02*
X105495893Y-153824080D01*
X105495893Y-153824080D02*
X105533988Y-153976461D01*
X105533988Y-153976461D02*
X105533988Y-154243128D01*
X105533988Y-154243128D02*
X105495893Y-154395509D01*
X105495893Y-154395509D02*
X105419702Y-154471700D01*
X105419702Y-154471700D02*
X105343512Y-154509795D01*
X105343512Y-154509795D02*
X105191131Y-154509795D01*
X105191131Y-154509795D02*
X105114940Y-154471700D01*
X105114940Y-154471700D02*
X105038750Y-154395509D01*
X105038750Y-154395509D02*
X105000654Y-154243128D01*
X105000654Y-154243128D02*
X105000654Y-153976461D01*
X105000654Y-153976461D02*
X105038750Y-153824080D01*
X105038750Y-153824080D02*
X105114940Y-153747890D01*
X105114940Y-153747890D02*
X105191131Y-153709795D01*
X74299140Y-163298928D02*
X74261045Y-163375118D01*
X74261045Y-163375118D02*
X74261045Y-163489404D01*
X74261045Y-163489404D02*
X74299140Y-163603690D01*
X74299140Y-163603690D02*
X74375330Y-163679880D01*
X74375330Y-163679880D02*
X74451521Y-163717975D01*
X74451521Y-163717975D02*
X74603902Y-163756071D01*
X74603902Y-163756071D02*
X74718188Y-163756071D01*
X74718188Y-163756071D02*
X74870569Y-163717975D01*
X74870569Y-163717975D02*
X74946759Y-163679880D01*
X74946759Y-163679880D02*
X75022950Y-163603690D01*
X75022950Y-163603690D02*
X75061045Y-163489404D01*
X75061045Y-163489404D02*
X75061045Y-163413213D01*
X75061045Y-163413213D02*
X75022950Y-163298928D01*
X75022950Y-163298928D02*
X74984854Y-163260832D01*
X74984854Y-163260832D02*
X74718188Y-163260832D01*
X74718188Y-163260832D02*
X74718188Y-163413213D01*
X75061045Y-162917975D02*
X74261045Y-162917975D01*
X74261045Y-162917975D02*
X74261045Y-162613213D01*
X74261045Y-162613213D02*
X74299140Y-162537023D01*
X74299140Y-162537023D02*
X74337235Y-162498928D01*
X74337235Y-162498928D02*
X74413426Y-162460832D01*
X74413426Y-162460832D02*
X74527711Y-162460832D01*
X74527711Y-162460832D02*
X74603902Y-162498928D01*
X74603902Y-162498928D02*
X74641997Y-162537023D01*
X74641997Y-162537023D02*
X74680092Y-162613213D01*
X74680092Y-162613213D02*
X74680092Y-162917975D01*
X74261045Y-161737023D02*
X74261045Y-162117975D01*
X74261045Y-162117975D02*
X74641997Y-162156071D01*
X74641997Y-162156071D02*
X74603902Y-162117975D01*
X74603902Y-162117975D02*
X74565807Y-162041785D01*
X74565807Y-162041785D02*
X74565807Y-161851309D01*
X74565807Y-161851309D02*
X74603902Y-161775118D01*
X74603902Y-161775118D02*
X74641997Y-161737023D01*
X74641997Y-161737023D02*
X74718188Y-161698928D01*
X74718188Y-161698928D02*
X74908664Y-161698928D01*
X74908664Y-161698928D02*
X74984854Y-161737023D01*
X74984854Y-161737023D02*
X75022950Y-161775118D01*
X75022950Y-161775118D02*
X75061045Y-161851309D01*
X75061045Y-161851309D02*
X75061045Y-162041785D01*
X75061045Y-162041785D02*
X75022950Y-162117975D01*
X75022950Y-162117975D02*
X74984854Y-162156071D01*
X79389140Y-152099881D02*
X79351045Y-152176071D01*
X79351045Y-152176071D02*
X79351045Y-152290357D01*
X79351045Y-152290357D02*
X79389140Y-152404643D01*
X79389140Y-152404643D02*
X79465330Y-152480833D01*
X79465330Y-152480833D02*
X79541521Y-152518928D01*
X79541521Y-152518928D02*
X79693902Y-152557024D01*
X79693902Y-152557024D02*
X79808188Y-152557024D01*
X79808188Y-152557024D02*
X79960569Y-152518928D01*
X79960569Y-152518928D02*
X80036759Y-152480833D01*
X80036759Y-152480833D02*
X80112950Y-152404643D01*
X80112950Y-152404643D02*
X80151045Y-152290357D01*
X80151045Y-152290357D02*
X80151045Y-152214166D01*
X80151045Y-152214166D02*
X80112950Y-152099881D01*
X80112950Y-152099881D02*
X80074854Y-152061785D01*
X80074854Y-152061785D02*
X79808188Y-152061785D01*
X79808188Y-152061785D02*
X79808188Y-152214166D01*
X80151045Y-151718928D02*
X79351045Y-151718928D01*
X79351045Y-151718928D02*
X79351045Y-151414166D01*
X79351045Y-151414166D02*
X79389140Y-151337976D01*
X79389140Y-151337976D02*
X79427235Y-151299881D01*
X79427235Y-151299881D02*
X79503426Y-151261785D01*
X79503426Y-151261785D02*
X79617711Y-151261785D01*
X79617711Y-151261785D02*
X79693902Y-151299881D01*
X79693902Y-151299881D02*
X79731997Y-151337976D01*
X79731997Y-151337976D02*
X79770092Y-151414166D01*
X79770092Y-151414166D02*
X79770092Y-151718928D01*
X79427235Y-150957024D02*
X79389140Y-150918928D01*
X79389140Y-150918928D02*
X79351045Y-150842738D01*
X79351045Y-150842738D02*
X79351045Y-150652262D01*
X79351045Y-150652262D02*
X79389140Y-150576071D01*
X79389140Y-150576071D02*
X79427235Y-150537976D01*
X79427235Y-150537976D02*
X79503426Y-150499881D01*
X79503426Y-150499881D02*
X79579616Y-150499881D01*
X79579616Y-150499881D02*
X79693902Y-150537976D01*
X79693902Y-150537976D02*
X80151045Y-150995119D01*
X80151045Y-150995119D02*
X80151045Y-150499881D01*
X79351045Y-150233214D02*
X79351045Y-149699880D01*
X79351045Y-149699880D02*
X80151045Y-150042738D01*
X89539140Y-151407023D02*
X89501045Y-151483213D01*
X89501045Y-151483213D02*
X89501045Y-151597499D01*
X89501045Y-151597499D02*
X89539140Y-151711785D01*
X89539140Y-151711785D02*
X89615330Y-151787975D01*
X89615330Y-151787975D02*
X89691521Y-151826070D01*
X89691521Y-151826070D02*
X89843902Y-151864166D01*
X89843902Y-151864166D02*
X89958188Y-151864166D01*
X89958188Y-151864166D02*
X90110569Y-151826070D01*
X90110569Y-151826070D02*
X90186759Y-151787975D01*
X90186759Y-151787975D02*
X90262950Y-151711785D01*
X90262950Y-151711785D02*
X90301045Y-151597499D01*
X90301045Y-151597499D02*
X90301045Y-151521308D01*
X90301045Y-151521308D02*
X90262950Y-151407023D01*
X90262950Y-151407023D02*
X90224854Y-151368927D01*
X90224854Y-151368927D02*
X89958188Y-151368927D01*
X89958188Y-151368927D02*
X89958188Y-151521308D01*
X90301045Y-151026070D02*
X89501045Y-151026070D01*
X89501045Y-151026070D02*
X90301045Y-150568927D01*
X90301045Y-150568927D02*
X89501045Y-150568927D01*
X90301045Y-150187975D02*
X89501045Y-150187975D01*
X89501045Y-150187975D02*
X89501045Y-149997499D01*
X89501045Y-149997499D02*
X89539140Y-149883213D01*
X89539140Y-149883213D02*
X89615330Y-149807023D01*
X89615330Y-149807023D02*
X89691521Y-149768928D01*
X89691521Y-149768928D02*
X89843902Y-149730832D01*
X89843902Y-149730832D02*
X89958188Y-149730832D01*
X89958188Y-149730832D02*
X90110569Y-149768928D01*
X90110569Y-149768928D02*
X90186759Y-149807023D01*
X90186759Y-149807023D02*
X90262950Y-149883213D01*
X90262950Y-149883213D02*
X90301045Y-149997499D01*
X90301045Y-149997499D02*
X90301045Y-150187975D01*
X99699140Y-152099881D02*
X99661045Y-152176071D01*
X99661045Y-152176071D02*
X99661045Y-152290357D01*
X99661045Y-152290357D02*
X99699140Y-152404643D01*
X99699140Y-152404643D02*
X99775330Y-152480833D01*
X99775330Y-152480833D02*
X99851521Y-152518928D01*
X99851521Y-152518928D02*
X100003902Y-152557024D01*
X100003902Y-152557024D02*
X100118188Y-152557024D01*
X100118188Y-152557024D02*
X100270569Y-152518928D01*
X100270569Y-152518928D02*
X100346759Y-152480833D01*
X100346759Y-152480833D02*
X100422950Y-152404643D01*
X100422950Y-152404643D02*
X100461045Y-152290357D01*
X100461045Y-152290357D02*
X100461045Y-152214166D01*
X100461045Y-152214166D02*
X100422950Y-152099881D01*
X100422950Y-152099881D02*
X100384854Y-152061785D01*
X100384854Y-152061785D02*
X100118188Y-152061785D01*
X100118188Y-152061785D02*
X100118188Y-152214166D01*
X100461045Y-151718928D02*
X99661045Y-151718928D01*
X99661045Y-151718928D02*
X99661045Y-151414166D01*
X99661045Y-151414166D02*
X99699140Y-151337976D01*
X99699140Y-151337976D02*
X99737235Y-151299881D01*
X99737235Y-151299881D02*
X99813426Y-151261785D01*
X99813426Y-151261785D02*
X99927711Y-151261785D01*
X99927711Y-151261785D02*
X100003902Y-151299881D01*
X100003902Y-151299881D02*
X100041997Y-151337976D01*
X100041997Y-151337976D02*
X100080092Y-151414166D01*
X100080092Y-151414166D02*
X100080092Y-151718928D01*
X100461045Y-150499881D02*
X100461045Y-150957024D01*
X100461045Y-150728452D02*
X99661045Y-150728452D01*
X99661045Y-150728452D02*
X99775330Y-150804643D01*
X99775330Y-150804643D02*
X99851521Y-150880833D01*
X99851521Y-150880833D02*
X99889616Y-150957024D01*
X100003902Y-150042738D02*
X99965807Y-150118928D01*
X99965807Y-150118928D02*
X99927711Y-150157023D01*
X99927711Y-150157023D02*
X99851521Y-150195119D01*
X99851521Y-150195119D02*
X99813426Y-150195119D01*
X99813426Y-150195119D02*
X99737235Y-150157023D01*
X99737235Y-150157023D02*
X99699140Y-150118928D01*
X99699140Y-150118928D02*
X99661045Y-150042738D01*
X99661045Y-150042738D02*
X99661045Y-149890357D01*
X99661045Y-149890357D02*
X99699140Y-149814166D01*
X99699140Y-149814166D02*
X99737235Y-149776071D01*
X99737235Y-149776071D02*
X99813426Y-149737976D01*
X99813426Y-149737976D02*
X99851521Y-149737976D01*
X99851521Y-149737976D02*
X99927711Y-149776071D01*
X99927711Y-149776071D02*
X99965807Y-149814166D01*
X99965807Y-149814166D02*
X100003902Y-149890357D01*
X100003902Y-149890357D02*
X100003902Y-150042738D01*
X100003902Y-150042738D02*
X100041997Y-150118928D01*
X100041997Y-150118928D02*
X100080092Y-150157023D01*
X100080092Y-150157023D02*
X100156283Y-150195119D01*
X100156283Y-150195119D02*
X100308664Y-150195119D01*
X100308664Y-150195119D02*
X100384854Y-150157023D01*
X100384854Y-150157023D02*
X100422950Y-150118928D01*
X100422950Y-150118928D02*
X100461045Y-150042738D01*
X100461045Y-150042738D02*
X100461045Y-149890357D01*
X100461045Y-149890357D02*
X100422950Y-149814166D01*
X100422950Y-149814166D02*
X100384854Y-149776071D01*
X100384854Y-149776071D02*
X100308664Y-149737976D01*
X100308664Y-149737976D02*
X100156283Y-149737976D01*
X100156283Y-149737976D02*
X100080092Y-149776071D01*
X100080092Y-149776071D02*
X100041997Y-149814166D01*
X100041997Y-149814166D02*
X100003902Y-149890357D01*
X71759140Y-163298928D02*
X71721045Y-163375118D01*
X71721045Y-163375118D02*
X71721045Y-163489404D01*
X71721045Y-163489404D02*
X71759140Y-163603690D01*
X71759140Y-163603690D02*
X71835330Y-163679880D01*
X71835330Y-163679880D02*
X71911521Y-163717975D01*
X71911521Y-163717975D02*
X72063902Y-163756071D01*
X72063902Y-163756071D02*
X72178188Y-163756071D01*
X72178188Y-163756071D02*
X72330569Y-163717975D01*
X72330569Y-163717975D02*
X72406759Y-163679880D01*
X72406759Y-163679880D02*
X72482950Y-163603690D01*
X72482950Y-163603690D02*
X72521045Y-163489404D01*
X72521045Y-163489404D02*
X72521045Y-163413213D01*
X72521045Y-163413213D02*
X72482950Y-163298928D01*
X72482950Y-163298928D02*
X72444854Y-163260832D01*
X72444854Y-163260832D02*
X72178188Y-163260832D01*
X72178188Y-163260832D02*
X72178188Y-163413213D01*
X72521045Y-162917975D02*
X71721045Y-162917975D01*
X71721045Y-162917975D02*
X71721045Y-162613213D01*
X71721045Y-162613213D02*
X71759140Y-162537023D01*
X71759140Y-162537023D02*
X71797235Y-162498928D01*
X71797235Y-162498928D02*
X71873426Y-162460832D01*
X71873426Y-162460832D02*
X71987711Y-162460832D01*
X71987711Y-162460832D02*
X72063902Y-162498928D01*
X72063902Y-162498928D02*
X72101997Y-162537023D01*
X72101997Y-162537023D02*
X72140092Y-162613213D01*
X72140092Y-162613213D02*
X72140092Y-162917975D01*
X71987711Y-161775118D02*
X72521045Y-161775118D01*
X71682950Y-161965594D02*
X72254378Y-162156071D01*
X72254378Y-162156071D02*
X72254378Y-161660832D01*
X86999140Y-152099881D02*
X86961045Y-152176071D01*
X86961045Y-152176071D02*
X86961045Y-152290357D01*
X86961045Y-152290357D02*
X86999140Y-152404643D01*
X86999140Y-152404643D02*
X87075330Y-152480833D01*
X87075330Y-152480833D02*
X87151521Y-152518928D01*
X87151521Y-152518928D02*
X87303902Y-152557024D01*
X87303902Y-152557024D02*
X87418188Y-152557024D01*
X87418188Y-152557024D02*
X87570569Y-152518928D01*
X87570569Y-152518928D02*
X87646759Y-152480833D01*
X87646759Y-152480833D02*
X87722950Y-152404643D01*
X87722950Y-152404643D02*
X87761045Y-152290357D01*
X87761045Y-152290357D02*
X87761045Y-152214166D01*
X87761045Y-152214166D02*
X87722950Y-152099881D01*
X87722950Y-152099881D02*
X87684854Y-152061785D01*
X87684854Y-152061785D02*
X87418188Y-152061785D01*
X87418188Y-152061785D02*
X87418188Y-152214166D01*
X87761045Y-151718928D02*
X86961045Y-151718928D01*
X86961045Y-151718928D02*
X86961045Y-151414166D01*
X86961045Y-151414166D02*
X86999140Y-151337976D01*
X86999140Y-151337976D02*
X87037235Y-151299881D01*
X87037235Y-151299881D02*
X87113426Y-151261785D01*
X87113426Y-151261785D02*
X87227711Y-151261785D01*
X87227711Y-151261785D02*
X87303902Y-151299881D01*
X87303902Y-151299881D02*
X87341997Y-151337976D01*
X87341997Y-151337976D02*
X87380092Y-151414166D01*
X87380092Y-151414166D02*
X87380092Y-151718928D01*
X87037235Y-150957024D02*
X86999140Y-150918928D01*
X86999140Y-150918928D02*
X86961045Y-150842738D01*
X86961045Y-150842738D02*
X86961045Y-150652262D01*
X86961045Y-150652262D02*
X86999140Y-150576071D01*
X86999140Y-150576071D02*
X87037235Y-150537976D01*
X87037235Y-150537976D02*
X87113426Y-150499881D01*
X87113426Y-150499881D02*
X87189616Y-150499881D01*
X87189616Y-150499881D02*
X87303902Y-150537976D01*
X87303902Y-150537976D02*
X87761045Y-150995119D01*
X87761045Y-150995119D02*
X87761045Y-150499881D01*
X87037235Y-150195119D02*
X86999140Y-150157023D01*
X86999140Y-150157023D02*
X86961045Y-150080833D01*
X86961045Y-150080833D02*
X86961045Y-149890357D01*
X86961045Y-149890357D02*
X86999140Y-149814166D01*
X86999140Y-149814166D02*
X87037235Y-149776071D01*
X87037235Y-149776071D02*
X87113426Y-149737976D01*
X87113426Y-149737976D02*
X87189616Y-149737976D01*
X87189616Y-149737976D02*
X87303902Y-149776071D01*
X87303902Y-149776071D02*
X87761045Y-150233214D01*
X87761045Y-150233214D02*
X87761045Y-149737976D01*
X97159140Y-152099881D02*
X97121045Y-152176071D01*
X97121045Y-152176071D02*
X97121045Y-152290357D01*
X97121045Y-152290357D02*
X97159140Y-152404643D01*
X97159140Y-152404643D02*
X97235330Y-152480833D01*
X97235330Y-152480833D02*
X97311521Y-152518928D01*
X97311521Y-152518928D02*
X97463902Y-152557024D01*
X97463902Y-152557024D02*
X97578188Y-152557024D01*
X97578188Y-152557024D02*
X97730569Y-152518928D01*
X97730569Y-152518928D02*
X97806759Y-152480833D01*
X97806759Y-152480833D02*
X97882950Y-152404643D01*
X97882950Y-152404643D02*
X97921045Y-152290357D01*
X97921045Y-152290357D02*
X97921045Y-152214166D01*
X97921045Y-152214166D02*
X97882950Y-152099881D01*
X97882950Y-152099881D02*
X97844854Y-152061785D01*
X97844854Y-152061785D02*
X97578188Y-152061785D01*
X97578188Y-152061785D02*
X97578188Y-152214166D01*
X97921045Y-151718928D02*
X97121045Y-151718928D01*
X97121045Y-151718928D02*
X97121045Y-151414166D01*
X97121045Y-151414166D02*
X97159140Y-151337976D01*
X97159140Y-151337976D02*
X97197235Y-151299881D01*
X97197235Y-151299881D02*
X97273426Y-151261785D01*
X97273426Y-151261785D02*
X97387711Y-151261785D01*
X97387711Y-151261785D02*
X97463902Y-151299881D01*
X97463902Y-151299881D02*
X97501997Y-151337976D01*
X97501997Y-151337976D02*
X97540092Y-151414166D01*
X97540092Y-151414166D02*
X97540092Y-151718928D01*
X97921045Y-150499881D02*
X97921045Y-150957024D01*
X97921045Y-150728452D02*
X97121045Y-150728452D01*
X97121045Y-150728452D02*
X97235330Y-150804643D01*
X97235330Y-150804643D02*
X97311521Y-150880833D01*
X97311521Y-150880833D02*
X97349616Y-150957024D01*
X97921045Y-150118928D02*
X97921045Y-149966547D01*
X97921045Y-149966547D02*
X97882950Y-149890357D01*
X97882950Y-149890357D02*
X97844854Y-149852261D01*
X97844854Y-149852261D02*
X97730569Y-149776071D01*
X97730569Y-149776071D02*
X97578188Y-149737976D01*
X97578188Y-149737976D02*
X97273426Y-149737976D01*
X97273426Y-149737976D02*
X97197235Y-149776071D01*
X97197235Y-149776071D02*
X97159140Y-149814166D01*
X97159140Y-149814166D02*
X97121045Y-149890357D01*
X97121045Y-149890357D02*
X97121045Y-150042738D01*
X97121045Y-150042738D02*
X97159140Y-150118928D01*
X97159140Y-150118928D02*
X97197235Y-150157023D01*
X97197235Y-150157023D02*
X97273426Y-150195119D01*
X97273426Y-150195119D02*
X97463902Y-150195119D01*
X97463902Y-150195119D02*
X97540092Y-150157023D01*
X97540092Y-150157023D02*
X97578188Y-150118928D01*
X97578188Y-150118928D02*
X97616283Y-150042738D01*
X97616283Y-150042738D02*
X97616283Y-149890357D01*
X97616283Y-149890357D02*
X97578188Y-149814166D01*
X97578188Y-149814166D02*
X97540092Y-149776071D01*
X97540092Y-149776071D02*
X97463902Y-149737976D01*
X79379140Y-163298928D02*
X79341045Y-163375118D01*
X79341045Y-163375118D02*
X79341045Y-163489404D01*
X79341045Y-163489404D02*
X79379140Y-163603690D01*
X79379140Y-163603690D02*
X79455330Y-163679880D01*
X79455330Y-163679880D02*
X79531521Y-163717975D01*
X79531521Y-163717975D02*
X79683902Y-163756071D01*
X79683902Y-163756071D02*
X79798188Y-163756071D01*
X79798188Y-163756071D02*
X79950569Y-163717975D01*
X79950569Y-163717975D02*
X80026759Y-163679880D01*
X80026759Y-163679880D02*
X80102950Y-163603690D01*
X80102950Y-163603690D02*
X80141045Y-163489404D01*
X80141045Y-163489404D02*
X80141045Y-163413213D01*
X80141045Y-163413213D02*
X80102950Y-163298928D01*
X80102950Y-163298928D02*
X80064854Y-163260832D01*
X80064854Y-163260832D02*
X79798188Y-163260832D01*
X79798188Y-163260832D02*
X79798188Y-163413213D01*
X80141045Y-162917975D02*
X79341045Y-162917975D01*
X79341045Y-162917975D02*
X79341045Y-162613213D01*
X79341045Y-162613213D02*
X79379140Y-162537023D01*
X79379140Y-162537023D02*
X79417235Y-162498928D01*
X79417235Y-162498928D02*
X79493426Y-162460832D01*
X79493426Y-162460832D02*
X79607711Y-162460832D01*
X79607711Y-162460832D02*
X79683902Y-162498928D01*
X79683902Y-162498928D02*
X79721997Y-162537023D01*
X79721997Y-162537023D02*
X79760092Y-162613213D01*
X79760092Y-162613213D02*
X79760092Y-162917975D01*
X79341045Y-161775118D02*
X79341045Y-161927499D01*
X79341045Y-161927499D02*
X79379140Y-162003690D01*
X79379140Y-162003690D02*
X79417235Y-162041785D01*
X79417235Y-162041785D02*
X79531521Y-162117975D01*
X79531521Y-162117975D02*
X79683902Y-162156071D01*
X79683902Y-162156071D02*
X79988664Y-162156071D01*
X79988664Y-162156071D02*
X80064854Y-162117975D01*
X80064854Y-162117975D02*
X80102950Y-162079880D01*
X80102950Y-162079880D02*
X80141045Y-162003690D01*
X80141045Y-162003690D02*
X80141045Y-161851309D01*
X80141045Y-161851309D02*
X80102950Y-161775118D01*
X80102950Y-161775118D02*
X80064854Y-161737023D01*
X80064854Y-161737023D02*
X79988664Y-161698928D01*
X79988664Y-161698928D02*
X79798188Y-161698928D01*
X79798188Y-161698928D02*
X79721997Y-161737023D01*
X79721997Y-161737023D02*
X79683902Y-161775118D01*
X79683902Y-161775118D02*
X79645807Y-161851309D01*
X79645807Y-161851309D02*
X79645807Y-162003690D01*
X79645807Y-162003690D02*
X79683902Y-162079880D01*
X79683902Y-162079880D02*
X79721997Y-162117975D01*
X79721997Y-162117975D02*
X79798188Y-162156071D01*
X102239140Y-163337023D02*
X102201045Y-163413213D01*
X102201045Y-163413213D02*
X102201045Y-163527499D01*
X102201045Y-163527499D02*
X102239140Y-163641785D01*
X102239140Y-163641785D02*
X102315330Y-163717975D01*
X102315330Y-163717975D02*
X102391521Y-163756070D01*
X102391521Y-163756070D02*
X102543902Y-163794166D01*
X102543902Y-163794166D02*
X102658188Y-163794166D01*
X102658188Y-163794166D02*
X102810569Y-163756070D01*
X102810569Y-163756070D02*
X102886759Y-163717975D01*
X102886759Y-163717975D02*
X102962950Y-163641785D01*
X102962950Y-163641785D02*
X103001045Y-163527499D01*
X103001045Y-163527499D02*
X103001045Y-163451308D01*
X103001045Y-163451308D02*
X102962950Y-163337023D01*
X102962950Y-163337023D02*
X102924854Y-163298927D01*
X102924854Y-163298927D02*
X102658188Y-163298927D01*
X102658188Y-163298927D02*
X102658188Y-163451308D01*
X103001045Y-162956070D02*
X102201045Y-162956070D01*
X102201045Y-162956070D02*
X103001045Y-162498927D01*
X103001045Y-162498927D02*
X102201045Y-162498927D01*
X103001045Y-162117975D02*
X102201045Y-162117975D01*
X102201045Y-162117975D02*
X102201045Y-161927499D01*
X102201045Y-161927499D02*
X102239140Y-161813213D01*
X102239140Y-161813213D02*
X102315330Y-161737023D01*
X102315330Y-161737023D02*
X102391521Y-161698928D01*
X102391521Y-161698928D02*
X102543902Y-161660832D01*
X102543902Y-161660832D02*
X102658188Y-161660832D01*
X102658188Y-161660832D02*
X102810569Y-161698928D01*
X102810569Y-161698928D02*
X102886759Y-161737023D01*
X102886759Y-161737023D02*
X102962950Y-161813213D01*
X102962950Y-161813213D02*
X103001045Y-161927499D01*
X103001045Y-161927499D02*
X103001045Y-162117975D01*
X104779140Y-163329881D02*
X104741045Y-163406071D01*
X104741045Y-163406071D02*
X104741045Y-163520357D01*
X104741045Y-163520357D02*
X104779140Y-163634643D01*
X104779140Y-163634643D02*
X104855330Y-163710833D01*
X104855330Y-163710833D02*
X104931521Y-163748928D01*
X104931521Y-163748928D02*
X105083902Y-163787024D01*
X105083902Y-163787024D02*
X105198188Y-163787024D01*
X105198188Y-163787024D02*
X105350569Y-163748928D01*
X105350569Y-163748928D02*
X105426759Y-163710833D01*
X105426759Y-163710833D02*
X105502950Y-163634643D01*
X105502950Y-163634643D02*
X105541045Y-163520357D01*
X105541045Y-163520357D02*
X105541045Y-163444166D01*
X105541045Y-163444166D02*
X105502950Y-163329881D01*
X105502950Y-163329881D02*
X105464854Y-163291785D01*
X105464854Y-163291785D02*
X105198188Y-163291785D01*
X105198188Y-163291785D02*
X105198188Y-163444166D01*
X105541045Y-162948928D02*
X104741045Y-162948928D01*
X104741045Y-162948928D02*
X104741045Y-162644166D01*
X104741045Y-162644166D02*
X104779140Y-162567976D01*
X104779140Y-162567976D02*
X104817235Y-162529881D01*
X104817235Y-162529881D02*
X104893426Y-162491785D01*
X104893426Y-162491785D02*
X105007711Y-162491785D01*
X105007711Y-162491785D02*
X105083902Y-162529881D01*
X105083902Y-162529881D02*
X105121997Y-162567976D01*
X105121997Y-162567976D02*
X105160092Y-162644166D01*
X105160092Y-162644166D02*
X105160092Y-162948928D01*
X105541045Y-161729881D02*
X105541045Y-162187024D01*
X105541045Y-161958452D02*
X104741045Y-161958452D01*
X104741045Y-161958452D02*
X104855330Y-162034643D01*
X104855330Y-162034643D02*
X104931521Y-162110833D01*
X104931521Y-162110833D02*
X104969616Y-162187024D01*
X105007711Y-161044166D02*
X105541045Y-161044166D01*
X104702950Y-161234642D02*
X105274378Y-161425119D01*
X105274378Y-161425119D02*
X105274378Y-160929880D01*
X92089140Y-152099881D02*
X92051045Y-152176071D01*
X92051045Y-152176071D02*
X92051045Y-152290357D01*
X92051045Y-152290357D02*
X92089140Y-152404643D01*
X92089140Y-152404643D02*
X92165330Y-152480833D01*
X92165330Y-152480833D02*
X92241521Y-152518928D01*
X92241521Y-152518928D02*
X92393902Y-152557024D01*
X92393902Y-152557024D02*
X92508188Y-152557024D01*
X92508188Y-152557024D02*
X92660569Y-152518928D01*
X92660569Y-152518928D02*
X92736759Y-152480833D01*
X92736759Y-152480833D02*
X92812950Y-152404643D01*
X92812950Y-152404643D02*
X92851045Y-152290357D01*
X92851045Y-152290357D02*
X92851045Y-152214166D01*
X92851045Y-152214166D02*
X92812950Y-152099881D01*
X92812950Y-152099881D02*
X92774854Y-152061785D01*
X92774854Y-152061785D02*
X92508188Y-152061785D01*
X92508188Y-152061785D02*
X92508188Y-152214166D01*
X92851045Y-151718928D02*
X92051045Y-151718928D01*
X92051045Y-151718928D02*
X92051045Y-151414166D01*
X92051045Y-151414166D02*
X92089140Y-151337976D01*
X92089140Y-151337976D02*
X92127235Y-151299881D01*
X92127235Y-151299881D02*
X92203426Y-151261785D01*
X92203426Y-151261785D02*
X92317711Y-151261785D01*
X92317711Y-151261785D02*
X92393902Y-151299881D01*
X92393902Y-151299881D02*
X92431997Y-151337976D01*
X92431997Y-151337976D02*
X92470092Y-151414166D01*
X92470092Y-151414166D02*
X92470092Y-151718928D01*
X92127235Y-150957024D02*
X92089140Y-150918928D01*
X92089140Y-150918928D02*
X92051045Y-150842738D01*
X92051045Y-150842738D02*
X92051045Y-150652262D01*
X92051045Y-150652262D02*
X92089140Y-150576071D01*
X92089140Y-150576071D02*
X92127235Y-150537976D01*
X92127235Y-150537976D02*
X92203426Y-150499881D01*
X92203426Y-150499881D02*
X92279616Y-150499881D01*
X92279616Y-150499881D02*
X92393902Y-150537976D01*
X92393902Y-150537976D02*
X92851045Y-150995119D01*
X92851045Y-150995119D02*
X92851045Y-150499881D01*
X92851045Y-149737976D02*
X92851045Y-150195119D01*
X92851045Y-149966547D02*
X92051045Y-149966547D01*
X92051045Y-149966547D02*
X92165330Y-150042738D01*
X92165330Y-150042738D02*
X92241521Y-150118928D01*
X92241521Y-150118928D02*
X92279616Y-150195119D01*
X61561045Y-152268928D02*
X62361045Y-152002261D01*
X62361045Y-152002261D02*
X61561045Y-151735595D01*
X62322950Y-151507024D02*
X62361045Y-151392738D01*
X62361045Y-151392738D02*
X62361045Y-151202262D01*
X62361045Y-151202262D02*
X62322950Y-151126071D01*
X62322950Y-151126071D02*
X62284854Y-151087976D01*
X62284854Y-151087976D02*
X62208664Y-151049881D01*
X62208664Y-151049881D02*
X62132473Y-151049881D01*
X62132473Y-151049881D02*
X62056283Y-151087976D01*
X62056283Y-151087976D02*
X62018188Y-151126071D01*
X62018188Y-151126071D02*
X61980092Y-151202262D01*
X61980092Y-151202262D02*
X61941997Y-151354643D01*
X61941997Y-151354643D02*
X61903902Y-151430833D01*
X61903902Y-151430833D02*
X61865807Y-151468928D01*
X61865807Y-151468928D02*
X61789616Y-151507024D01*
X61789616Y-151507024D02*
X61713426Y-151507024D01*
X61713426Y-151507024D02*
X61637235Y-151468928D01*
X61637235Y-151468928D02*
X61599140Y-151430833D01*
X61599140Y-151430833D02*
X61561045Y-151354643D01*
X61561045Y-151354643D02*
X61561045Y-151164166D01*
X61561045Y-151164166D02*
X61599140Y-151049881D01*
X61980092Y-150554642D02*
X62361045Y-150554642D01*
X61561045Y-150821309D02*
X61980092Y-150554642D01*
X61980092Y-150554642D02*
X61561045Y-150287976D01*
X62322950Y-150059405D02*
X62361045Y-149945119D01*
X62361045Y-149945119D02*
X62361045Y-149754643D01*
X62361045Y-149754643D02*
X62322950Y-149678452D01*
X62322950Y-149678452D02*
X62284854Y-149640357D01*
X62284854Y-149640357D02*
X62208664Y-149602262D01*
X62208664Y-149602262D02*
X62132473Y-149602262D01*
X62132473Y-149602262D02*
X62056283Y-149640357D01*
X62056283Y-149640357D02*
X62018188Y-149678452D01*
X62018188Y-149678452D02*
X61980092Y-149754643D01*
X61980092Y-149754643D02*
X61941997Y-149907024D01*
X61941997Y-149907024D02*
X61903902Y-149983214D01*
X61903902Y-149983214D02*
X61865807Y-150021309D01*
X61865807Y-150021309D02*
X61789616Y-150059405D01*
X61789616Y-150059405D02*
X61713426Y-150059405D01*
X61713426Y-150059405D02*
X61637235Y-150021309D01*
X61637235Y-150021309D02*
X61599140Y-149983214D01*
X61599140Y-149983214D02*
X61561045Y-149907024D01*
X61561045Y-149907024D02*
X61561045Y-149716547D01*
X61561045Y-149716547D02*
X61599140Y-149602262D01*
X76839140Y-163337023D02*
X76801045Y-163413213D01*
X76801045Y-163413213D02*
X76801045Y-163527499D01*
X76801045Y-163527499D02*
X76839140Y-163641785D01*
X76839140Y-163641785D02*
X76915330Y-163717975D01*
X76915330Y-163717975D02*
X76991521Y-163756070D01*
X76991521Y-163756070D02*
X77143902Y-163794166D01*
X77143902Y-163794166D02*
X77258188Y-163794166D01*
X77258188Y-163794166D02*
X77410569Y-163756070D01*
X77410569Y-163756070D02*
X77486759Y-163717975D01*
X77486759Y-163717975D02*
X77562950Y-163641785D01*
X77562950Y-163641785D02*
X77601045Y-163527499D01*
X77601045Y-163527499D02*
X77601045Y-163451308D01*
X77601045Y-163451308D02*
X77562950Y-163337023D01*
X77562950Y-163337023D02*
X77524854Y-163298927D01*
X77524854Y-163298927D02*
X77258188Y-163298927D01*
X77258188Y-163298927D02*
X77258188Y-163451308D01*
X77601045Y-162956070D02*
X76801045Y-162956070D01*
X76801045Y-162956070D02*
X77601045Y-162498927D01*
X77601045Y-162498927D02*
X76801045Y-162498927D01*
X77601045Y-162117975D02*
X76801045Y-162117975D01*
X76801045Y-162117975D02*
X76801045Y-161927499D01*
X76801045Y-161927499D02*
X76839140Y-161813213D01*
X76839140Y-161813213D02*
X76915330Y-161737023D01*
X76915330Y-161737023D02*
X76991521Y-161698928D01*
X76991521Y-161698928D02*
X77143902Y-161660832D01*
X77143902Y-161660832D02*
X77258188Y-161660832D01*
X77258188Y-161660832D02*
X77410569Y-161698928D01*
X77410569Y-161698928D02*
X77486759Y-161737023D01*
X77486759Y-161737023D02*
X77562950Y-161813213D01*
X77562950Y-161813213D02*
X77601045Y-161927499D01*
X77601045Y-161927499D02*
X77601045Y-162117975D01*
X64139140Y-151257023D02*
X64101045Y-151333213D01*
X64101045Y-151333213D02*
X64101045Y-151447499D01*
X64101045Y-151447499D02*
X64139140Y-151561785D01*
X64139140Y-151561785D02*
X64215330Y-151637975D01*
X64215330Y-151637975D02*
X64291521Y-151676070D01*
X64291521Y-151676070D02*
X64443902Y-151714166D01*
X64443902Y-151714166D02*
X64558188Y-151714166D01*
X64558188Y-151714166D02*
X64710569Y-151676070D01*
X64710569Y-151676070D02*
X64786759Y-151637975D01*
X64786759Y-151637975D02*
X64862950Y-151561785D01*
X64862950Y-151561785D02*
X64901045Y-151447499D01*
X64901045Y-151447499D02*
X64901045Y-151371308D01*
X64901045Y-151371308D02*
X64862950Y-151257023D01*
X64862950Y-151257023D02*
X64824854Y-151218927D01*
X64824854Y-151218927D02*
X64558188Y-151218927D01*
X64558188Y-151218927D02*
X64558188Y-151371308D01*
X64901045Y-150876070D02*
X64101045Y-150876070D01*
X64101045Y-150876070D02*
X64901045Y-150418927D01*
X64901045Y-150418927D02*
X64101045Y-150418927D01*
X64901045Y-150037975D02*
X64101045Y-150037975D01*
X64101045Y-150037975D02*
X64101045Y-149847499D01*
X64101045Y-149847499D02*
X64139140Y-149733213D01*
X64139140Y-149733213D02*
X64215330Y-149657023D01*
X64215330Y-149657023D02*
X64291521Y-149618928D01*
X64291521Y-149618928D02*
X64443902Y-149580832D01*
X64443902Y-149580832D02*
X64558188Y-149580832D01*
X64558188Y-149580832D02*
X64710569Y-149618928D01*
X64710569Y-149618928D02*
X64786759Y-149657023D01*
X64786759Y-149657023D02*
X64862950Y-149733213D01*
X64862950Y-149733213D02*
X64901045Y-149847499D01*
X64901045Y-149847499D02*
X64901045Y-150037975D01*
X59021045Y-152364166D02*
X59821045Y-152097499D01*
X59821045Y-152097499D02*
X59021045Y-151830833D01*
X59401997Y-151297500D02*
X59440092Y-151183214D01*
X59440092Y-151183214D02*
X59478188Y-151145119D01*
X59478188Y-151145119D02*
X59554378Y-151107023D01*
X59554378Y-151107023D02*
X59668664Y-151107023D01*
X59668664Y-151107023D02*
X59744854Y-151145119D01*
X59744854Y-151145119D02*
X59782950Y-151183214D01*
X59782950Y-151183214D02*
X59821045Y-151259404D01*
X59821045Y-151259404D02*
X59821045Y-151564166D01*
X59821045Y-151564166D02*
X59021045Y-151564166D01*
X59021045Y-151564166D02*
X59021045Y-151297500D01*
X59021045Y-151297500D02*
X59059140Y-151221309D01*
X59059140Y-151221309D02*
X59097235Y-151183214D01*
X59097235Y-151183214D02*
X59173426Y-151145119D01*
X59173426Y-151145119D02*
X59249616Y-151145119D01*
X59249616Y-151145119D02*
X59325807Y-151183214D01*
X59325807Y-151183214D02*
X59363902Y-151221309D01*
X59363902Y-151221309D02*
X59401997Y-151297500D01*
X59401997Y-151297500D02*
X59401997Y-151564166D01*
X59021045Y-150764166D02*
X59668664Y-150764166D01*
X59668664Y-150764166D02*
X59744854Y-150726071D01*
X59744854Y-150726071D02*
X59782950Y-150687976D01*
X59782950Y-150687976D02*
X59821045Y-150611785D01*
X59821045Y-150611785D02*
X59821045Y-150459404D01*
X59821045Y-150459404D02*
X59782950Y-150383214D01*
X59782950Y-150383214D02*
X59744854Y-150345119D01*
X59744854Y-150345119D02*
X59668664Y-150307023D01*
X59668664Y-150307023D02*
X59021045Y-150307023D01*
X59782950Y-149964167D02*
X59821045Y-149849881D01*
X59821045Y-149849881D02*
X59821045Y-149659405D01*
X59821045Y-149659405D02*
X59782950Y-149583214D01*
X59782950Y-149583214D02*
X59744854Y-149545119D01*
X59744854Y-149545119D02*
X59668664Y-149507024D01*
X59668664Y-149507024D02*
X59592473Y-149507024D01*
X59592473Y-149507024D02*
X59516283Y-149545119D01*
X59516283Y-149545119D02*
X59478188Y-149583214D01*
X59478188Y-149583214D02*
X59440092Y-149659405D01*
X59440092Y-149659405D02*
X59401997Y-149811786D01*
X59401997Y-149811786D02*
X59363902Y-149887976D01*
X59363902Y-149887976D02*
X59325807Y-149926071D01*
X59325807Y-149926071D02*
X59249616Y-149964167D01*
X59249616Y-149964167D02*
X59173426Y-149964167D01*
X59173426Y-149964167D02*
X59097235Y-149926071D01*
X59097235Y-149926071D02*
X59059140Y-149887976D01*
X59059140Y-149887976D02*
X59021045Y-149811786D01*
X59021045Y-149811786D02*
X59021045Y-149621309D01*
X59021045Y-149621309D02*
X59059140Y-149507024D01*
X66679140Y-163298928D02*
X66641045Y-163375118D01*
X66641045Y-163375118D02*
X66641045Y-163489404D01*
X66641045Y-163489404D02*
X66679140Y-163603690D01*
X66679140Y-163603690D02*
X66755330Y-163679880D01*
X66755330Y-163679880D02*
X66831521Y-163717975D01*
X66831521Y-163717975D02*
X66983902Y-163756071D01*
X66983902Y-163756071D02*
X67098188Y-163756071D01*
X67098188Y-163756071D02*
X67250569Y-163717975D01*
X67250569Y-163717975D02*
X67326759Y-163679880D01*
X67326759Y-163679880D02*
X67402950Y-163603690D01*
X67402950Y-163603690D02*
X67441045Y-163489404D01*
X67441045Y-163489404D02*
X67441045Y-163413213D01*
X67441045Y-163413213D02*
X67402950Y-163298928D01*
X67402950Y-163298928D02*
X67364854Y-163260832D01*
X67364854Y-163260832D02*
X67098188Y-163260832D01*
X67098188Y-163260832D02*
X67098188Y-163413213D01*
X67441045Y-162917975D02*
X66641045Y-162917975D01*
X66641045Y-162917975D02*
X66641045Y-162613213D01*
X66641045Y-162613213D02*
X66679140Y-162537023D01*
X66679140Y-162537023D02*
X66717235Y-162498928D01*
X66717235Y-162498928D02*
X66793426Y-162460832D01*
X66793426Y-162460832D02*
X66907711Y-162460832D01*
X66907711Y-162460832D02*
X66983902Y-162498928D01*
X66983902Y-162498928D02*
X67021997Y-162537023D01*
X67021997Y-162537023D02*
X67060092Y-162613213D01*
X67060092Y-162613213D02*
X67060092Y-162917975D01*
X66717235Y-162156071D02*
X66679140Y-162117975D01*
X66679140Y-162117975D02*
X66641045Y-162041785D01*
X66641045Y-162041785D02*
X66641045Y-161851309D01*
X66641045Y-161851309D02*
X66679140Y-161775118D01*
X66679140Y-161775118D02*
X66717235Y-161737023D01*
X66717235Y-161737023D02*
X66793426Y-161698928D01*
X66793426Y-161698928D02*
X66869616Y-161698928D01*
X66869616Y-161698928D02*
X66983902Y-161737023D01*
X66983902Y-161737023D02*
X67441045Y-162194166D01*
X67441045Y-162194166D02*
X67441045Y-161698928D01*
X94619140Y-163329881D02*
X94581045Y-163406071D01*
X94581045Y-163406071D02*
X94581045Y-163520357D01*
X94581045Y-163520357D02*
X94619140Y-163634643D01*
X94619140Y-163634643D02*
X94695330Y-163710833D01*
X94695330Y-163710833D02*
X94771521Y-163748928D01*
X94771521Y-163748928D02*
X94923902Y-163787024D01*
X94923902Y-163787024D02*
X95038188Y-163787024D01*
X95038188Y-163787024D02*
X95190569Y-163748928D01*
X95190569Y-163748928D02*
X95266759Y-163710833D01*
X95266759Y-163710833D02*
X95342950Y-163634643D01*
X95342950Y-163634643D02*
X95381045Y-163520357D01*
X95381045Y-163520357D02*
X95381045Y-163444166D01*
X95381045Y-163444166D02*
X95342950Y-163329881D01*
X95342950Y-163329881D02*
X95304854Y-163291785D01*
X95304854Y-163291785D02*
X95038188Y-163291785D01*
X95038188Y-163291785D02*
X95038188Y-163444166D01*
X95381045Y-162948928D02*
X94581045Y-162948928D01*
X94581045Y-162948928D02*
X94581045Y-162644166D01*
X94581045Y-162644166D02*
X94619140Y-162567976D01*
X94619140Y-162567976D02*
X94657235Y-162529881D01*
X94657235Y-162529881D02*
X94733426Y-162491785D01*
X94733426Y-162491785D02*
X94847711Y-162491785D01*
X94847711Y-162491785D02*
X94923902Y-162529881D01*
X94923902Y-162529881D02*
X94961997Y-162567976D01*
X94961997Y-162567976D02*
X95000092Y-162644166D01*
X95000092Y-162644166D02*
X95000092Y-162948928D01*
X95381045Y-161729881D02*
X95381045Y-162187024D01*
X95381045Y-161958452D02*
X94581045Y-161958452D01*
X94581045Y-161958452D02*
X94695330Y-162034643D01*
X94695330Y-162034643D02*
X94771521Y-162110833D01*
X94771521Y-162110833D02*
X94809616Y-162187024D01*
X95381045Y-160967976D02*
X95381045Y-161425119D01*
X95381045Y-161196547D02*
X94581045Y-161196547D01*
X94581045Y-161196547D02*
X94695330Y-161272738D01*
X94695330Y-161272738D02*
X94771521Y-161348928D01*
X94771521Y-161348928D02*
X94809616Y-161425119D01*
X74299140Y-152099881D02*
X74261045Y-152176071D01*
X74261045Y-152176071D02*
X74261045Y-152290357D01*
X74261045Y-152290357D02*
X74299140Y-152404643D01*
X74299140Y-152404643D02*
X74375330Y-152480833D01*
X74375330Y-152480833D02*
X74451521Y-152518928D01*
X74451521Y-152518928D02*
X74603902Y-152557024D01*
X74603902Y-152557024D02*
X74718188Y-152557024D01*
X74718188Y-152557024D02*
X74870569Y-152518928D01*
X74870569Y-152518928D02*
X74946759Y-152480833D01*
X74946759Y-152480833D02*
X75022950Y-152404643D01*
X75022950Y-152404643D02*
X75061045Y-152290357D01*
X75061045Y-152290357D02*
X75061045Y-152214166D01*
X75061045Y-152214166D02*
X75022950Y-152099881D01*
X75022950Y-152099881D02*
X74984854Y-152061785D01*
X74984854Y-152061785D02*
X74718188Y-152061785D01*
X74718188Y-152061785D02*
X74718188Y-152214166D01*
X75061045Y-151718928D02*
X74261045Y-151718928D01*
X74261045Y-151718928D02*
X74261045Y-151414166D01*
X74261045Y-151414166D02*
X74299140Y-151337976D01*
X74299140Y-151337976D02*
X74337235Y-151299881D01*
X74337235Y-151299881D02*
X74413426Y-151261785D01*
X74413426Y-151261785D02*
X74527711Y-151261785D01*
X74527711Y-151261785D02*
X74603902Y-151299881D01*
X74603902Y-151299881D02*
X74641997Y-151337976D01*
X74641997Y-151337976D02*
X74680092Y-151414166D01*
X74680092Y-151414166D02*
X74680092Y-151718928D01*
X74337235Y-150957024D02*
X74299140Y-150918928D01*
X74299140Y-150918928D02*
X74261045Y-150842738D01*
X74261045Y-150842738D02*
X74261045Y-150652262D01*
X74261045Y-150652262D02*
X74299140Y-150576071D01*
X74299140Y-150576071D02*
X74337235Y-150537976D01*
X74337235Y-150537976D02*
X74413426Y-150499881D01*
X74413426Y-150499881D02*
X74489616Y-150499881D01*
X74489616Y-150499881D02*
X74603902Y-150537976D01*
X74603902Y-150537976D02*
X75061045Y-150995119D01*
X75061045Y-150995119D02*
X75061045Y-150499881D01*
X74603902Y-150042738D02*
X74565807Y-150118928D01*
X74565807Y-150118928D02*
X74527711Y-150157023D01*
X74527711Y-150157023D02*
X74451521Y-150195119D01*
X74451521Y-150195119D02*
X74413426Y-150195119D01*
X74413426Y-150195119D02*
X74337235Y-150157023D01*
X74337235Y-150157023D02*
X74299140Y-150118928D01*
X74299140Y-150118928D02*
X74261045Y-150042738D01*
X74261045Y-150042738D02*
X74261045Y-149890357D01*
X74261045Y-149890357D02*
X74299140Y-149814166D01*
X74299140Y-149814166D02*
X74337235Y-149776071D01*
X74337235Y-149776071D02*
X74413426Y-149737976D01*
X74413426Y-149737976D02*
X74451521Y-149737976D01*
X74451521Y-149737976D02*
X74527711Y-149776071D01*
X74527711Y-149776071D02*
X74565807Y-149814166D01*
X74565807Y-149814166D02*
X74603902Y-149890357D01*
X74603902Y-149890357D02*
X74603902Y-150042738D01*
X74603902Y-150042738D02*
X74641997Y-150118928D01*
X74641997Y-150118928D02*
X74680092Y-150157023D01*
X74680092Y-150157023D02*
X74756283Y-150195119D01*
X74756283Y-150195119D02*
X74908664Y-150195119D01*
X74908664Y-150195119D02*
X74984854Y-150157023D01*
X74984854Y-150157023D02*
X75022950Y-150118928D01*
X75022950Y-150118928D02*
X75061045Y-150042738D01*
X75061045Y-150042738D02*
X75061045Y-149890357D01*
X75061045Y-149890357D02*
X75022950Y-149814166D01*
X75022950Y-149814166D02*
X74984854Y-149776071D01*
X74984854Y-149776071D02*
X74908664Y-149737976D01*
X74908664Y-149737976D02*
X74756283Y-149737976D01*
X74756283Y-149737976D02*
X74680092Y-149776071D01*
X74680092Y-149776071D02*
X74641997Y-149814166D01*
X74641997Y-149814166D02*
X74603902Y-149890357D01*
X81889140Y-163298928D02*
X81851045Y-163375118D01*
X81851045Y-163375118D02*
X81851045Y-163489404D01*
X81851045Y-163489404D02*
X81889140Y-163603690D01*
X81889140Y-163603690D02*
X81965330Y-163679880D01*
X81965330Y-163679880D02*
X82041521Y-163717975D01*
X82041521Y-163717975D02*
X82193902Y-163756071D01*
X82193902Y-163756071D02*
X82308188Y-163756071D01*
X82308188Y-163756071D02*
X82460569Y-163717975D01*
X82460569Y-163717975D02*
X82536759Y-163679880D01*
X82536759Y-163679880D02*
X82612950Y-163603690D01*
X82612950Y-163603690D02*
X82651045Y-163489404D01*
X82651045Y-163489404D02*
X82651045Y-163413213D01*
X82651045Y-163413213D02*
X82612950Y-163298928D01*
X82612950Y-163298928D02*
X82574854Y-163260832D01*
X82574854Y-163260832D02*
X82308188Y-163260832D01*
X82308188Y-163260832D02*
X82308188Y-163413213D01*
X82651045Y-162917975D02*
X81851045Y-162917975D01*
X81851045Y-162917975D02*
X81851045Y-162613213D01*
X81851045Y-162613213D02*
X81889140Y-162537023D01*
X81889140Y-162537023D02*
X81927235Y-162498928D01*
X81927235Y-162498928D02*
X82003426Y-162460832D01*
X82003426Y-162460832D02*
X82117711Y-162460832D01*
X82117711Y-162460832D02*
X82193902Y-162498928D01*
X82193902Y-162498928D02*
X82231997Y-162537023D01*
X82231997Y-162537023D02*
X82270092Y-162613213D01*
X82270092Y-162613213D02*
X82270092Y-162917975D01*
X81851045Y-162194166D02*
X81851045Y-161660832D01*
X81851045Y-161660832D02*
X82651045Y-162003690D01*
X64139140Y-163337023D02*
X64101045Y-163413213D01*
X64101045Y-163413213D02*
X64101045Y-163527499D01*
X64101045Y-163527499D02*
X64139140Y-163641785D01*
X64139140Y-163641785D02*
X64215330Y-163717975D01*
X64215330Y-163717975D02*
X64291521Y-163756070D01*
X64291521Y-163756070D02*
X64443902Y-163794166D01*
X64443902Y-163794166D02*
X64558188Y-163794166D01*
X64558188Y-163794166D02*
X64710569Y-163756070D01*
X64710569Y-163756070D02*
X64786759Y-163717975D01*
X64786759Y-163717975D02*
X64862950Y-163641785D01*
X64862950Y-163641785D02*
X64901045Y-163527499D01*
X64901045Y-163527499D02*
X64901045Y-163451308D01*
X64901045Y-163451308D02*
X64862950Y-163337023D01*
X64862950Y-163337023D02*
X64824854Y-163298927D01*
X64824854Y-163298927D02*
X64558188Y-163298927D01*
X64558188Y-163298927D02*
X64558188Y-163451308D01*
X64901045Y-162956070D02*
X64101045Y-162956070D01*
X64101045Y-162956070D02*
X64901045Y-162498927D01*
X64901045Y-162498927D02*
X64101045Y-162498927D01*
X64901045Y-162117975D02*
X64101045Y-162117975D01*
X64101045Y-162117975D02*
X64101045Y-161927499D01*
X64101045Y-161927499D02*
X64139140Y-161813213D01*
X64139140Y-161813213D02*
X64215330Y-161737023D01*
X64215330Y-161737023D02*
X64291521Y-161698928D01*
X64291521Y-161698928D02*
X64443902Y-161660832D01*
X64443902Y-161660832D02*
X64558188Y-161660832D01*
X64558188Y-161660832D02*
X64710569Y-161698928D01*
X64710569Y-161698928D02*
X64786759Y-161737023D01*
X64786759Y-161737023D02*
X64862950Y-161813213D01*
X64862950Y-161813213D02*
X64901045Y-161927499D01*
X64901045Y-161927499D02*
X64901045Y-162117975D01*
X94619140Y-152099881D02*
X94581045Y-152176071D01*
X94581045Y-152176071D02*
X94581045Y-152290357D01*
X94581045Y-152290357D02*
X94619140Y-152404643D01*
X94619140Y-152404643D02*
X94695330Y-152480833D01*
X94695330Y-152480833D02*
X94771521Y-152518928D01*
X94771521Y-152518928D02*
X94923902Y-152557024D01*
X94923902Y-152557024D02*
X95038188Y-152557024D01*
X95038188Y-152557024D02*
X95190569Y-152518928D01*
X95190569Y-152518928D02*
X95266759Y-152480833D01*
X95266759Y-152480833D02*
X95342950Y-152404643D01*
X95342950Y-152404643D02*
X95381045Y-152290357D01*
X95381045Y-152290357D02*
X95381045Y-152214166D01*
X95381045Y-152214166D02*
X95342950Y-152099881D01*
X95342950Y-152099881D02*
X95304854Y-152061785D01*
X95304854Y-152061785D02*
X95038188Y-152061785D01*
X95038188Y-152061785D02*
X95038188Y-152214166D01*
X95381045Y-151718928D02*
X94581045Y-151718928D01*
X94581045Y-151718928D02*
X94581045Y-151414166D01*
X94581045Y-151414166D02*
X94619140Y-151337976D01*
X94619140Y-151337976D02*
X94657235Y-151299881D01*
X94657235Y-151299881D02*
X94733426Y-151261785D01*
X94733426Y-151261785D02*
X94847711Y-151261785D01*
X94847711Y-151261785D02*
X94923902Y-151299881D01*
X94923902Y-151299881D02*
X94961997Y-151337976D01*
X94961997Y-151337976D02*
X95000092Y-151414166D01*
X95000092Y-151414166D02*
X95000092Y-151718928D01*
X94657235Y-150957024D02*
X94619140Y-150918928D01*
X94619140Y-150918928D02*
X94581045Y-150842738D01*
X94581045Y-150842738D02*
X94581045Y-150652262D01*
X94581045Y-150652262D02*
X94619140Y-150576071D01*
X94619140Y-150576071D02*
X94657235Y-150537976D01*
X94657235Y-150537976D02*
X94733426Y-150499881D01*
X94733426Y-150499881D02*
X94809616Y-150499881D01*
X94809616Y-150499881D02*
X94923902Y-150537976D01*
X94923902Y-150537976D02*
X95381045Y-150995119D01*
X95381045Y-150995119D02*
X95381045Y-150499881D01*
X94581045Y-150004642D02*
X94581045Y-149928452D01*
X94581045Y-149928452D02*
X94619140Y-149852261D01*
X94619140Y-149852261D02*
X94657235Y-149814166D01*
X94657235Y-149814166D02*
X94733426Y-149776071D01*
X94733426Y-149776071D02*
X94885807Y-149737976D01*
X94885807Y-149737976D02*
X95076283Y-149737976D01*
X95076283Y-149737976D02*
X95228664Y-149776071D01*
X95228664Y-149776071D02*
X95304854Y-149814166D01*
X95304854Y-149814166D02*
X95342950Y-149852261D01*
X95342950Y-149852261D02*
X95381045Y-149928452D01*
X95381045Y-149928452D02*
X95381045Y-150004642D01*
X95381045Y-150004642D02*
X95342950Y-150080833D01*
X95342950Y-150080833D02*
X95304854Y-150118928D01*
X95304854Y-150118928D02*
X95228664Y-150157023D01*
X95228664Y-150157023D02*
X95076283Y-150195119D01*
X95076283Y-150195119D02*
X94885807Y-150195119D01*
X94885807Y-150195119D02*
X94733426Y-150157023D01*
X94733426Y-150157023D02*
X94657235Y-150118928D01*
X94657235Y-150118928D02*
X94619140Y-150080833D01*
X94619140Y-150080833D02*
X94581045Y-150004642D01*
X81919140Y-152099881D02*
X81881045Y-152176071D01*
X81881045Y-152176071D02*
X81881045Y-152290357D01*
X81881045Y-152290357D02*
X81919140Y-152404643D01*
X81919140Y-152404643D02*
X81995330Y-152480833D01*
X81995330Y-152480833D02*
X82071521Y-152518928D01*
X82071521Y-152518928D02*
X82223902Y-152557024D01*
X82223902Y-152557024D02*
X82338188Y-152557024D01*
X82338188Y-152557024D02*
X82490569Y-152518928D01*
X82490569Y-152518928D02*
X82566759Y-152480833D01*
X82566759Y-152480833D02*
X82642950Y-152404643D01*
X82642950Y-152404643D02*
X82681045Y-152290357D01*
X82681045Y-152290357D02*
X82681045Y-152214166D01*
X82681045Y-152214166D02*
X82642950Y-152099881D01*
X82642950Y-152099881D02*
X82604854Y-152061785D01*
X82604854Y-152061785D02*
X82338188Y-152061785D01*
X82338188Y-152061785D02*
X82338188Y-152214166D01*
X82681045Y-151718928D02*
X81881045Y-151718928D01*
X81881045Y-151718928D02*
X81881045Y-151414166D01*
X81881045Y-151414166D02*
X81919140Y-151337976D01*
X81919140Y-151337976D02*
X81957235Y-151299881D01*
X81957235Y-151299881D02*
X82033426Y-151261785D01*
X82033426Y-151261785D02*
X82147711Y-151261785D01*
X82147711Y-151261785D02*
X82223902Y-151299881D01*
X82223902Y-151299881D02*
X82261997Y-151337976D01*
X82261997Y-151337976D02*
X82300092Y-151414166D01*
X82300092Y-151414166D02*
X82300092Y-151718928D01*
X81957235Y-150957024D02*
X81919140Y-150918928D01*
X81919140Y-150918928D02*
X81881045Y-150842738D01*
X81881045Y-150842738D02*
X81881045Y-150652262D01*
X81881045Y-150652262D02*
X81919140Y-150576071D01*
X81919140Y-150576071D02*
X81957235Y-150537976D01*
X81957235Y-150537976D02*
X82033426Y-150499881D01*
X82033426Y-150499881D02*
X82109616Y-150499881D01*
X82109616Y-150499881D02*
X82223902Y-150537976D01*
X82223902Y-150537976D02*
X82681045Y-150995119D01*
X82681045Y-150995119D02*
X82681045Y-150499881D01*
X81881045Y-149814166D02*
X81881045Y-149966547D01*
X81881045Y-149966547D02*
X81919140Y-150042738D01*
X81919140Y-150042738D02*
X81957235Y-150080833D01*
X81957235Y-150080833D02*
X82071521Y-150157023D01*
X82071521Y-150157023D02*
X82223902Y-150195119D01*
X82223902Y-150195119D02*
X82528664Y-150195119D01*
X82528664Y-150195119D02*
X82604854Y-150157023D01*
X82604854Y-150157023D02*
X82642950Y-150118928D01*
X82642950Y-150118928D02*
X82681045Y-150042738D01*
X82681045Y-150042738D02*
X82681045Y-149890357D01*
X82681045Y-149890357D02*
X82642950Y-149814166D01*
X82642950Y-149814166D02*
X82604854Y-149776071D01*
X82604854Y-149776071D02*
X82528664Y-149737976D01*
X82528664Y-149737976D02*
X82338188Y-149737976D01*
X82338188Y-149737976D02*
X82261997Y-149776071D01*
X82261997Y-149776071D02*
X82223902Y-149814166D01*
X82223902Y-149814166D02*
X82185807Y-149890357D01*
X82185807Y-149890357D02*
X82185807Y-150042738D01*
X82185807Y-150042738D02*
X82223902Y-150118928D01*
X82223902Y-150118928D02*
X82261997Y-150157023D01*
X82261997Y-150157023D02*
X82338188Y-150195119D01*
X97159140Y-163329881D02*
X97121045Y-163406071D01*
X97121045Y-163406071D02*
X97121045Y-163520357D01*
X97121045Y-163520357D02*
X97159140Y-163634643D01*
X97159140Y-163634643D02*
X97235330Y-163710833D01*
X97235330Y-163710833D02*
X97311521Y-163748928D01*
X97311521Y-163748928D02*
X97463902Y-163787024D01*
X97463902Y-163787024D02*
X97578188Y-163787024D01*
X97578188Y-163787024D02*
X97730569Y-163748928D01*
X97730569Y-163748928D02*
X97806759Y-163710833D01*
X97806759Y-163710833D02*
X97882950Y-163634643D01*
X97882950Y-163634643D02*
X97921045Y-163520357D01*
X97921045Y-163520357D02*
X97921045Y-163444166D01*
X97921045Y-163444166D02*
X97882950Y-163329881D01*
X97882950Y-163329881D02*
X97844854Y-163291785D01*
X97844854Y-163291785D02*
X97578188Y-163291785D01*
X97578188Y-163291785D02*
X97578188Y-163444166D01*
X97921045Y-162948928D02*
X97121045Y-162948928D01*
X97121045Y-162948928D02*
X97121045Y-162644166D01*
X97121045Y-162644166D02*
X97159140Y-162567976D01*
X97159140Y-162567976D02*
X97197235Y-162529881D01*
X97197235Y-162529881D02*
X97273426Y-162491785D01*
X97273426Y-162491785D02*
X97387711Y-162491785D01*
X97387711Y-162491785D02*
X97463902Y-162529881D01*
X97463902Y-162529881D02*
X97501997Y-162567976D01*
X97501997Y-162567976D02*
X97540092Y-162644166D01*
X97540092Y-162644166D02*
X97540092Y-162948928D01*
X97921045Y-161729881D02*
X97921045Y-162187024D01*
X97921045Y-161958452D02*
X97121045Y-161958452D01*
X97121045Y-161958452D02*
X97235330Y-162034643D01*
X97235330Y-162034643D02*
X97311521Y-162110833D01*
X97311521Y-162110833D02*
X97349616Y-162187024D01*
X97197235Y-161425119D02*
X97159140Y-161387023D01*
X97159140Y-161387023D02*
X97121045Y-161310833D01*
X97121045Y-161310833D02*
X97121045Y-161120357D01*
X97121045Y-161120357D02*
X97159140Y-161044166D01*
X97159140Y-161044166D02*
X97197235Y-161006071D01*
X97197235Y-161006071D02*
X97273426Y-160967976D01*
X97273426Y-160967976D02*
X97349616Y-160967976D01*
X97349616Y-160967976D02*
X97463902Y-161006071D01*
X97463902Y-161006071D02*
X97921045Y-161463214D01*
X97921045Y-161463214D02*
X97921045Y-160967976D01*
X85221045Y-151387975D02*
X84840092Y-151654642D01*
X85221045Y-151845118D02*
X84421045Y-151845118D01*
X84421045Y-151845118D02*
X84421045Y-151540356D01*
X84421045Y-151540356D02*
X84459140Y-151464166D01*
X84459140Y-151464166D02*
X84497235Y-151426071D01*
X84497235Y-151426071D02*
X84573426Y-151387975D01*
X84573426Y-151387975D02*
X84687711Y-151387975D01*
X84687711Y-151387975D02*
X84763902Y-151426071D01*
X84763902Y-151426071D02*
X84801997Y-151464166D01*
X84801997Y-151464166D02*
X84840092Y-151540356D01*
X84840092Y-151540356D02*
X84840092Y-151845118D01*
X84421045Y-151045118D02*
X85068664Y-151045118D01*
X85068664Y-151045118D02*
X85144854Y-151007023D01*
X85144854Y-151007023D02*
X85182950Y-150968928D01*
X85182950Y-150968928D02*
X85221045Y-150892737D01*
X85221045Y-150892737D02*
X85221045Y-150740356D01*
X85221045Y-150740356D02*
X85182950Y-150664166D01*
X85182950Y-150664166D02*
X85144854Y-150626071D01*
X85144854Y-150626071D02*
X85068664Y-150587975D01*
X85068664Y-150587975D02*
X84421045Y-150587975D01*
X85221045Y-150207023D02*
X84421045Y-150207023D01*
X84421045Y-150207023D02*
X85221045Y-149749880D01*
X85221045Y-149749880D02*
X84421045Y-149749880D01*
X107319140Y-152099881D02*
X107281045Y-152176071D01*
X107281045Y-152176071D02*
X107281045Y-152290357D01*
X107281045Y-152290357D02*
X107319140Y-152404643D01*
X107319140Y-152404643D02*
X107395330Y-152480833D01*
X107395330Y-152480833D02*
X107471521Y-152518928D01*
X107471521Y-152518928D02*
X107623902Y-152557024D01*
X107623902Y-152557024D02*
X107738188Y-152557024D01*
X107738188Y-152557024D02*
X107890569Y-152518928D01*
X107890569Y-152518928D02*
X107966759Y-152480833D01*
X107966759Y-152480833D02*
X108042950Y-152404643D01*
X108042950Y-152404643D02*
X108081045Y-152290357D01*
X108081045Y-152290357D02*
X108081045Y-152214166D01*
X108081045Y-152214166D02*
X108042950Y-152099881D01*
X108042950Y-152099881D02*
X108004854Y-152061785D01*
X108004854Y-152061785D02*
X107738188Y-152061785D01*
X107738188Y-152061785D02*
X107738188Y-152214166D01*
X108081045Y-151718928D02*
X107281045Y-151718928D01*
X107281045Y-151718928D02*
X107281045Y-151414166D01*
X107281045Y-151414166D02*
X107319140Y-151337976D01*
X107319140Y-151337976D02*
X107357235Y-151299881D01*
X107357235Y-151299881D02*
X107433426Y-151261785D01*
X107433426Y-151261785D02*
X107547711Y-151261785D01*
X107547711Y-151261785D02*
X107623902Y-151299881D01*
X107623902Y-151299881D02*
X107661997Y-151337976D01*
X107661997Y-151337976D02*
X107700092Y-151414166D01*
X107700092Y-151414166D02*
X107700092Y-151718928D01*
X108081045Y-150499881D02*
X108081045Y-150957024D01*
X108081045Y-150728452D02*
X107281045Y-150728452D01*
X107281045Y-150728452D02*
X107395330Y-150804643D01*
X107395330Y-150804643D02*
X107471521Y-150880833D01*
X107471521Y-150880833D02*
X107509616Y-150957024D01*
X107281045Y-149814166D02*
X107281045Y-149966547D01*
X107281045Y-149966547D02*
X107319140Y-150042738D01*
X107319140Y-150042738D02*
X107357235Y-150080833D01*
X107357235Y-150080833D02*
X107471521Y-150157023D01*
X107471521Y-150157023D02*
X107623902Y-150195119D01*
X107623902Y-150195119D02*
X107928664Y-150195119D01*
X107928664Y-150195119D02*
X108004854Y-150157023D01*
X108004854Y-150157023D02*
X108042950Y-150118928D01*
X108042950Y-150118928D02*
X108081045Y-150042738D01*
X108081045Y-150042738D02*
X108081045Y-149890357D01*
X108081045Y-149890357D02*
X108042950Y-149814166D01*
X108042950Y-149814166D02*
X108004854Y-149776071D01*
X108004854Y-149776071D02*
X107928664Y-149737976D01*
X107928664Y-149737976D02*
X107738188Y-149737976D01*
X107738188Y-149737976D02*
X107661997Y-149776071D01*
X107661997Y-149776071D02*
X107623902Y-149814166D01*
X107623902Y-149814166D02*
X107585807Y-149890357D01*
X107585807Y-149890357D02*
X107585807Y-150042738D01*
X107585807Y-150042738D02*
X107623902Y-150118928D01*
X107623902Y-150118928D02*
X107661997Y-150157023D01*
X107661997Y-150157023D02*
X107738188Y-150195119D01*
X104779140Y-152099881D02*
X104741045Y-152176071D01*
X104741045Y-152176071D02*
X104741045Y-152290357D01*
X104741045Y-152290357D02*
X104779140Y-152404643D01*
X104779140Y-152404643D02*
X104855330Y-152480833D01*
X104855330Y-152480833D02*
X104931521Y-152518928D01*
X104931521Y-152518928D02*
X105083902Y-152557024D01*
X105083902Y-152557024D02*
X105198188Y-152557024D01*
X105198188Y-152557024D02*
X105350569Y-152518928D01*
X105350569Y-152518928D02*
X105426759Y-152480833D01*
X105426759Y-152480833D02*
X105502950Y-152404643D01*
X105502950Y-152404643D02*
X105541045Y-152290357D01*
X105541045Y-152290357D02*
X105541045Y-152214166D01*
X105541045Y-152214166D02*
X105502950Y-152099881D01*
X105502950Y-152099881D02*
X105464854Y-152061785D01*
X105464854Y-152061785D02*
X105198188Y-152061785D01*
X105198188Y-152061785D02*
X105198188Y-152214166D01*
X105541045Y-151718928D02*
X104741045Y-151718928D01*
X104741045Y-151718928D02*
X104741045Y-151414166D01*
X104741045Y-151414166D02*
X104779140Y-151337976D01*
X104779140Y-151337976D02*
X104817235Y-151299881D01*
X104817235Y-151299881D02*
X104893426Y-151261785D01*
X104893426Y-151261785D02*
X105007711Y-151261785D01*
X105007711Y-151261785D02*
X105083902Y-151299881D01*
X105083902Y-151299881D02*
X105121997Y-151337976D01*
X105121997Y-151337976D02*
X105160092Y-151414166D01*
X105160092Y-151414166D02*
X105160092Y-151718928D01*
X105541045Y-150499881D02*
X105541045Y-150957024D01*
X105541045Y-150728452D02*
X104741045Y-150728452D01*
X104741045Y-150728452D02*
X104855330Y-150804643D01*
X104855330Y-150804643D02*
X104931521Y-150880833D01*
X104931521Y-150880833D02*
X104969616Y-150957024D01*
X104741045Y-150233214D02*
X104741045Y-149699880D01*
X104741045Y-149699880D02*
X105541045Y-150042738D01*
X92079140Y-163329881D02*
X92041045Y-163406071D01*
X92041045Y-163406071D02*
X92041045Y-163520357D01*
X92041045Y-163520357D02*
X92079140Y-163634643D01*
X92079140Y-163634643D02*
X92155330Y-163710833D01*
X92155330Y-163710833D02*
X92231521Y-163748928D01*
X92231521Y-163748928D02*
X92383902Y-163787024D01*
X92383902Y-163787024D02*
X92498188Y-163787024D01*
X92498188Y-163787024D02*
X92650569Y-163748928D01*
X92650569Y-163748928D02*
X92726759Y-163710833D01*
X92726759Y-163710833D02*
X92802950Y-163634643D01*
X92802950Y-163634643D02*
X92841045Y-163520357D01*
X92841045Y-163520357D02*
X92841045Y-163444166D01*
X92841045Y-163444166D02*
X92802950Y-163329881D01*
X92802950Y-163329881D02*
X92764854Y-163291785D01*
X92764854Y-163291785D02*
X92498188Y-163291785D01*
X92498188Y-163291785D02*
X92498188Y-163444166D01*
X92841045Y-162948928D02*
X92041045Y-162948928D01*
X92041045Y-162948928D02*
X92041045Y-162644166D01*
X92041045Y-162644166D02*
X92079140Y-162567976D01*
X92079140Y-162567976D02*
X92117235Y-162529881D01*
X92117235Y-162529881D02*
X92193426Y-162491785D01*
X92193426Y-162491785D02*
X92307711Y-162491785D01*
X92307711Y-162491785D02*
X92383902Y-162529881D01*
X92383902Y-162529881D02*
X92421997Y-162567976D01*
X92421997Y-162567976D02*
X92460092Y-162644166D01*
X92460092Y-162644166D02*
X92460092Y-162948928D01*
X92841045Y-161729881D02*
X92841045Y-162187024D01*
X92841045Y-161958452D02*
X92041045Y-161958452D01*
X92041045Y-161958452D02*
X92155330Y-162034643D01*
X92155330Y-162034643D02*
X92231521Y-162110833D01*
X92231521Y-162110833D02*
X92269616Y-162187024D01*
X92041045Y-161234642D02*
X92041045Y-161158452D01*
X92041045Y-161158452D02*
X92079140Y-161082261D01*
X92079140Y-161082261D02*
X92117235Y-161044166D01*
X92117235Y-161044166D02*
X92193426Y-161006071D01*
X92193426Y-161006071D02*
X92345807Y-160967976D01*
X92345807Y-160967976D02*
X92536283Y-160967976D01*
X92536283Y-160967976D02*
X92688664Y-161006071D01*
X92688664Y-161006071D02*
X92764854Y-161044166D01*
X92764854Y-161044166D02*
X92802950Y-161082261D01*
X92802950Y-161082261D02*
X92841045Y-161158452D01*
X92841045Y-161158452D02*
X92841045Y-161234642D01*
X92841045Y-161234642D02*
X92802950Y-161310833D01*
X92802950Y-161310833D02*
X92764854Y-161348928D01*
X92764854Y-161348928D02*
X92688664Y-161387023D01*
X92688664Y-161387023D02*
X92536283Y-161425119D01*
X92536283Y-161425119D02*
X92345807Y-161425119D01*
X92345807Y-161425119D02*
X92193426Y-161387023D01*
X92193426Y-161387023D02*
X92117235Y-161348928D01*
X92117235Y-161348928D02*
X92079140Y-161310833D01*
X92079140Y-161310833D02*
X92041045Y-161234642D01*
X99699140Y-163329881D02*
X99661045Y-163406071D01*
X99661045Y-163406071D02*
X99661045Y-163520357D01*
X99661045Y-163520357D02*
X99699140Y-163634643D01*
X99699140Y-163634643D02*
X99775330Y-163710833D01*
X99775330Y-163710833D02*
X99851521Y-163748928D01*
X99851521Y-163748928D02*
X100003902Y-163787024D01*
X100003902Y-163787024D02*
X100118188Y-163787024D01*
X100118188Y-163787024D02*
X100270569Y-163748928D01*
X100270569Y-163748928D02*
X100346759Y-163710833D01*
X100346759Y-163710833D02*
X100422950Y-163634643D01*
X100422950Y-163634643D02*
X100461045Y-163520357D01*
X100461045Y-163520357D02*
X100461045Y-163444166D01*
X100461045Y-163444166D02*
X100422950Y-163329881D01*
X100422950Y-163329881D02*
X100384854Y-163291785D01*
X100384854Y-163291785D02*
X100118188Y-163291785D01*
X100118188Y-163291785D02*
X100118188Y-163444166D01*
X100461045Y-162948928D02*
X99661045Y-162948928D01*
X99661045Y-162948928D02*
X99661045Y-162644166D01*
X99661045Y-162644166D02*
X99699140Y-162567976D01*
X99699140Y-162567976D02*
X99737235Y-162529881D01*
X99737235Y-162529881D02*
X99813426Y-162491785D01*
X99813426Y-162491785D02*
X99927711Y-162491785D01*
X99927711Y-162491785D02*
X100003902Y-162529881D01*
X100003902Y-162529881D02*
X100041997Y-162567976D01*
X100041997Y-162567976D02*
X100080092Y-162644166D01*
X100080092Y-162644166D02*
X100080092Y-162948928D01*
X100461045Y-161729881D02*
X100461045Y-162187024D01*
X100461045Y-161958452D02*
X99661045Y-161958452D01*
X99661045Y-161958452D02*
X99775330Y-162034643D01*
X99775330Y-162034643D02*
X99851521Y-162110833D01*
X99851521Y-162110833D02*
X99889616Y-162187024D01*
X99661045Y-161463214D02*
X99661045Y-160967976D01*
X99661045Y-160967976D02*
X99965807Y-161234642D01*
X99965807Y-161234642D02*
X99965807Y-161120357D01*
X99965807Y-161120357D02*
X100003902Y-161044166D01*
X100003902Y-161044166D02*
X100041997Y-161006071D01*
X100041997Y-161006071D02*
X100118188Y-160967976D01*
X100118188Y-160967976D02*
X100308664Y-160967976D01*
X100308664Y-160967976D02*
X100384854Y-161006071D01*
X100384854Y-161006071D02*
X100422950Y-161044166D01*
X100422950Y-161044166D02*
X100461045Y-161120357D01*
X100461045Y-161120357D02*
X100461045Y-161348928D01*
X100461045Y-161348928D02*
X100422950Y-161425119D01*
X100422950Y-161425119D02*
X100384854Y-161463214D01*
X102239140Y-151407023D02*
X102201045Y-151483213D01*
X102201045Y-151483213D02*
X102201045Y-151597499D01*
X102201045Y-151597499D02*
X102239140Y-151711785D01*
X102239140Y-151711785D02*
X102315330Y-151787975D01*
X102315330Y-151787975D02*
X102391521Y-151826070D01*
X102391521Y-151826070D02*
X102543902Y-151864166D01*
X102543902Y-151864166D02*
X102658188Y-151864166D01*
X102658188Y-151864166D02*
X102810569Y-151826070D01*
X102810569Y-151826070D02*
X102886759Y-151787975D01*
X102886759Y-151787975D02*
X102962950Y-151711785D01*
X102962950Y-151711785D02*
X103001045Y-151597499D01*
X103001045Y-151597499D02*
X103001045Y-151521308D01*
X103001045Y-151521308D02*
X102962950Y-151407023D01*
X102962950Y-151407023D02*
X102924854Y-151368927D01*
X102924854Y-151368927D02*
X102658188Y-151368927D01*
X102658188Y-151368927D02*
X102658188Y-151521308D01*
X103001045Y-151026070D02*
X102201045Y-151026070D01*
X102201045Y-151026070D02*
X103001045Y-150568927D01*
X103001045Y-150568927D02*
X102201045Y-150568927D01*
X103001045Y-150187975D02*
X102201045Y-150187975D01*
X102201045Y-150187975D02*
X102201045Y-149997499D01*
X102201045Y-149997499D02*
X102239140Y-149883213D01*
X102239140Y-149883213D02*
X102315330Y-149807023D01*
X102315330Y-149807023D02*
X102391521Y-149768928D01*
X102391521Y-149768928D02*
X102543902Y-149730832D01*
X102543902Y-149730832D02*
X102658188Y-149730832D01*
X102658188Y-149730832D02*
X102810569Y-149768928D01*
X102810569Y-149768928D02*
X102886759Y-149807023D01*
X102886759Y-149807023D02*
X102962950Y-149883213D01*
X102962950Y-149883213D02*
X103001045Y-149997499D01*
X103001045Y-149997499D02*
X103001045Y-150187975D01*
X69219140Y-163298928D02*
X69181045Y-163375118D01*
X69181045Y-163375118D02*
X69181045Y-163489404D01*
X69181045Y-163489404D02*
X69219140Y-163603690D01*
X69219140Y-163603690D02*
X69295330Y-163679880D01*
X69295330Y-163679880D02*
X69371521Y-163717975D01*
X69371521Y-163717975D02*
X69523902Y-163756071D01*
X69523902Y-163756071D02*
X69638188Y-163756071D01*
X69638188Y-163756071D02*
X69790569Y-163717975D01*
X69790569Y-163717975D02*
X69866759Y-163679880D01*
X69866759Y-163679880D02*
X69942950Y-163603690D01*
X69942950Y-163603690D02*
X69981045Y-163489404D01*
X69981045Y-163489404D02*
X69981045Y-163413213D01*
X69981045Y-163413213D02*
X69942950Y-163298928D01*
X69942950Y-163298928D02*
X69904854Y-163260832D01*
X69904854Y-163260832D02*
X69638188Y-163260832D01*
X69638188Y-163260832D02*
X69638188Y-163413213D01*
X69981045Y-162917975D02*
X69181045Y-162917975D01*
X69181045Y-162917975D02*
X69181045Y-162613213D01*
X69181045Y-162613213D02*
X69219140Y-162537023D01*
X69219140Y-162537023D02*
X69257235Y-162498928D01*
X69257235Y-162498928D02*
X69333426Y-162460832D01*
X69333426Y-162460832D02*
X69447711Y-162460832D01*
X69447711Y-162460832D02*
X69523902Y-162498928D01*
X69523902Y-162498928D02*
X69561997Y-162537023D01*
X69561997Y-162537023D02*
X69600092Y-162613213D01*
X69600092Y-162613213D02*
X69600092Y-162917975D01*
X69181045Y-162194166D02*
X69181045Y-161698928D01*
X69181045Y-161698928D02*
X69485807Y-161965594D01*
X69485807Y-161965594D02*
X69485807Y-161851309D01*
X69485807Y-161851309D02*
X69523902Y-161775118D01*
X69523902Y-161775118D02*
X69561997Y-161737023D01*
X69561997Y-161737023D02*
X69638188Y-161698928D01*
X69638188Y-161698928D02*
X69828664Y-161698928D01*
X69828664Y-161698928D02*
X69904854Y-161737023D01*
X69904854Y-161737023D02*
X69942950Y-161775118D01*
X69942950Y-161775118D02*
X69981045Y-161851309D01*
X69981045Y-161851309D02*
X69981045Y-162079880D01*
X69981045Y-162079880D02*
X69942950Y-162156071D01*
X69942950Y-162156071D02*
X69904854Y-162194166D01*
X107319140Y-163329881D02*
X107281045Y-163406071D01*
X107281045Y-163406071D02*
X107281045Y-163520357D01*
X107281045Y-163520357D02*
X107319140Y-163634643D01*
X107319140Y-163634643D02*
X107395330Y-163710833D01*
X107395330Y-163710833D02*
X107471521Y-163748928D01*
X107471521Y-163748928D02*
X107623902Y-163787024D01*
X107623902Y-163787024D02*
X107738188Y-163787024D01*
X107738188Y-163787024D02*
X107890569Y-163748928D01*
X107890569Y-163748928D02*
X107966759Y-163710833D01*
X107966759Y-163710833D02*
X108042950Y-163634643D01*
X108042950Y-163634643D02*
X108081045Y-163520357D01*
X108081045Y-163520357D02*
X108081045Y-163444166D01*
X108081045Y-163444166D02*
X108042950Y-163329881D01*
X108042950Y-163329881D02*
X108004854Y-163291785D01*
X108004854Y-163291785D02*
X107738188Y-163291785D01*
X107738188Y-163291785D02*
X107738188Y-163444166D01*
X108081045Y-162948928D02*
X107281045Y-162948928D01*
X107281045Y-162948928D02*
X107281045Y-162644166D01*
X107281045Y-162644166D02*
X107319140Y-162567976D01*
X107319140Y-162567976D02*
X107357235Y-162529881D01*
X107357235Y-162529881D02*
X107433426Y-162491785D01*
X107433426Y-162491785D02*
X107547711Y-162491785D01*
X107547711Y-162491785D02*
X107623902Y-162529881D01*
X107623902Y-162529881D02*
X107661997Y-162567976D01*
X107661997Y-162567976D02*
X107700092Y-162644166D01*
X107700092Y-162644166D02*
X107700092Y-162948928D01*
X108081045Y-161729881D02*
X108081045Y-162187024D01*
X108081045Y-161958452D02*
X107281045Y-161958452D01*
X107281045Y-161958452D02*
X107395330Y-162034643D01*
X107395330Y-162034643D02*
X107471521Y-162110833D01*
X107471521Y-162110833D02*
X107509616Y-162187024D01*
X107281045Y-161006071D02*
X107281045Y-161387023D01*
X107281045Y-161387023D02*
X107661997Y-161425119D01*
X107661997Y-161425119D02*
X107623902Y-161387023D01*
X107623902Y-161387023D02*
X107585807Y-161310833D01*
X107585807Y-161310833D02*
X107585807Y-161120357D01*
X107585807Y-161120357D02*
X107623902Y-161044166D01*
X107623902Y-161044166D02*
X107661997Y-161006071D01*
X107661997Y-161006071D02*
X107738188Y-160967976D01*
X107738188Y-160967976D02*
X107928664Y-160967976D01*
X107928664Y-160967976D02*
X108004854Y-161006071D01*
X108004854Y-161006071D02*
X108042950Y-161044166D01*
X108042950Y-161044166D02*
X108081045Y-161120357D01*
X108081045Y-161120357D02*
X108081045Y-161310833D01*
X108081045Y-161310833D02*
X108042950Y-161387023D01*
X108042950Y-161387023D02*
X108004854Y-161425119D01*
X89539140Y-163337023D02*
X89501045Y-163413213D01*
X89501045Y-163413213D02*
X89501045Y-163527499D01*
X89501045Y-163527499D02*
X89539140Y-163641785D01*
X89539140Y-163641785D02*
X89615330Y-163717975D01*
X89615330Y-163717975D02*
X89691521Y-163756070D01*
X89691521Y-163756070D02*
X89843902Y-163794166D01*
X89843902Y-163794166D02*
X89958188Y-163794166D01*
X89958188Y-163794166D02*
X90110569Y-163756070D01*
X90110569Y-163756070D02*
X90186759Y-163717975D01*
X90186759Y-163717975D02*
X90262950Y-163641785D01*
X90262950Y-163641785D02*
X90301045Y-163527499D01*
X90301045Y-163527499D02*
X90301045Y-163451308D01*
X90301045Y-163451308D02*
X90262950Y-163337023D01*
X90262950Y-163337023D02*
X90224854Y-163298927D01*
X90224854Y-163298927D02*
X89958188Y-163298927D01*
X89958188Y-163298927D02*
X89958188Y-163451308D01*
X90301045Y-162956070D02*
X89501045Y-162956070D01*
X89501045Y-162956070D02*
X90301045Y-162498927D01*
X90301045Y-162498927D02*
X89501045Y-162498927D01*
X90301045Y-162117975D02*
X89501045Y-162117975D01*
X89501045Y-162117975D02*
X89501045Y-161927499D01*
X89501045Y-161927499D02*
X89539140Y-161813213D01*
X89539140Y-161813213D02*
X89615330Y-161737023D01*
X89615330Y-161737023D02*
X89691521Y-161698928D01*
X89691521Y-161698928D02*
X89843902Y-161660832D01*
X89843902Y-161660832D02*
X89958188Y-161660832D01*
X89958188Y-161660832D02*
X90110569Y-161698928D01*
X90110569Y-161698928D02*
X90186759Y-161737023D01*
X90186759Y-161737023D02*
X90262950Y-161813213D01*
X90262950Y-161813213D02*
X90301045Y-161927499D01*
X90301045Y-161927499D02*
X90301045Y-162117975D01*
X72292473Y-155140357D02*
X72292473Y-154759404D01*
X72521045Y-155216547D02*
X71721045Y-154949880D01*
X71721045Y-154949880D02*
X72521045Y-154683214D01*
X72521045Y-154416547D02*
X71721045Y-154416547D01*
X71721045Y-154416547D02*
X71721045Y-154226071D01*
X71721045Y-154226071D02*
X71759140Y-154111785D01*
X71759140Y-154111785D02*
X71835330Y-154035595D01*
X71835330Y-154035595D02*
X71911521Y-153997500D01*
X71911521Y-153997500D02*
X72063902Y-153959404D01*
X72063902Y-153959404D02*
X72178188Y-153959404D01*
X72178188Y-153959404D02*
X72330569Y-153997500D01*
X72330569Y-153997500D02*
X72406759Y-154035595D01*
X72406759Y-154035595D02*
X72482950Y-154111785D01*
X72482950Y-154111785D02*
X72521045Y-154226071D01*
X72521045Y-154226071D02*
X72521045Y-154416547D01*
X72444854Y-153159404D02*
X72482950Y-153197500D01*
X72482950Y-153197500D02*
X72521045Y-153311785D01*
X72521045Y-153311785D02*
X72521045Y-153387976D01*
X72521045Y-153387976D02*
X72482950Y-153502262D01*
X72482950Y-153502262D02*
X72406759Y-153578452D01*
X72406759Y-153578452D02*
X72330569Y-153616547D01*
X72330569Y-153616547D02*
X72178188Y-153654643D01*
X72178188Y-153654643D02*
X72063902Y-153654643D01*
X72063902Y-153654643D02*
X71911521Y-153616547D01*
X71911521Y-153616547D02*
X71835330Y-153578452D01*
X71835330Y-153578452D02*
X71759140Y-153502262D01*
X71759140Y-153502262D02*
X71721045Y-153387976D01*
X71721045Y-153387976D02*
X71721045Y-153311785D01*
X71721045Y-153311785D02*
X71759140Y-153197500D01*
X71759140Y-153197500D02*
X71797235Y-153159404D01*
X72597235Y-153007024D02*
X72597235Y-152397500D01*
X71721045Y-152321309D02*
X72521045Y-152054642D01*
X72521045Y-152054642D02*
X71721045Y-151787976D01*
X72521045Y-151064166D02*
X72140092Y-151330833D01*
X72521045Y-151521309D02*
X71721045Y-151521309D01*
X71721045Y-151521309D02*
X71721045Y-151216547D01*
X71721045Y-151216547D02*
X71759140Y-151140357D01*
X71759140Y-151140357D02*
X71797235Y-151102262D01*
X71797235Y-151102262D02*
X71873426Y-151064166D01*
X71873426Y-151064166D02*
X71987711Y-151064166D01*
X71987711Y-151064166D02*
X72063902Y-151102262D01*
X72063902Y-151102262D02*
X72101997Y-151140357D01*
X72101997Y-151140357D02*
X72140092Y-151216547D01*
X72140092Y-151216547D02*
X72140092Y-151521309D01*
X72101997Y-150721309D02*
X72101997Y-150454643D01*
X72521045Y-150340357D02*
X72521045Y-150721309D01*
X72521045Y-150721309D02*
X71721045Y-150721309D01*
X71721045Y-150721309D02*
X71721045Y-150340357D01*
X72101997Y-149730833D02*
X72101997Y-149997499D01*
X72521045Y-149997499D02*
X71721045Y-149997499D01*
X71721045Y-149997499D02*
X71721045Y-149616547D01*
X66641045Y-153723690D02*
X66641045Y-153228452D01*
X66641045Y-153228452D02*
X66945807Y-153495118D01*
X66945807Y-153495118D02*
X66945807Y-153380833D01*
X66945807Y-153380833D02*
X66983902Y-153304642D01*
X66983902Y-153304642D02*
X67021997Y-153266547D01*
X67021997Y-153266547D02*
X67098188Y-153228452D01*
X67098188Y-153228452D02*
X67288664Y-153228452D01*
X67288664Y-153228452D02*
X67364854Y-153266547D01*
X67364854Y-153266547D02*
X67402950Y-153304642D01*
X67402950Y-153304642D02*
X67441045Y-153380833D01*
X67441045Y-153380833D02*
X67441045Y-153609404D01*
X67441045Y-153609404D02*
X67402950Y-153685595D01*
X67402950Y-153685595D02*
X67364854Y-153723690D01*
X66641045Y-152999880D02*
X67441045Y-152733213D01*
X67441045Y-152733213D02*
X66641045Y-152466547D01*
X66641045Y-152276071D02*
X66641045Y-151780833D01*
X66641045Y-151780833D02*
X66945807Y-152047499D01*
X66945807Y-152047499D02*
X66945807Y-151933214D01*
X66945807Y-151933214D02*
X66983902Y-151857023D01*
X66983902Y-151857023D02*
X67021997Y-151818928D01*
X67021997Y-151818928D02*
X67098188Y-151780833D01*
X67098188Y-151780833D02*
X67288664Y-151780833D01*
X67288664Y-151780833D02*
X67364854Y-151818928D01*
X67364854Y-151818928D02*
X67402950Y-151857023D01*
X67402950Y-151857023D02*
X67441045Y-151933214D01*
X67441045Y-151933214D02*
X67441045Y-152161785D01*
X67441045Y-152161785D02*
X67402950Y-152237976D01*
X67402950Y-152237976D02*
X67364854Y-152276071D01*
X67517235Y-151628452D02*
X67517235Y-151018928D01*
X67021997Y-150828451D02*
X67021997Y-150561785D01*
X67441045Y-150447499D02*
X67441045Y-150828451D01*
X67441045Y-150828451D02*
X66641045Y-150828451D01*
X66641045Y-150828451D02*
X66641045Y-150447499D01*
X67441045Y-150104641D02*
X66641045Y-150104641D01*
X66641045Y-150104641D02*
X67441045Y-149647498D01*
X67441045Y-149647498D02*
X66641045Y-149647498D01*
X151006069Y-169725833D02*
X150529878Y-170059166D01*
X151006069Y-170297261D02*
X150006069Y-170297261D01*
X150006069Y-170297261D02*
X150006069Y-169916309D01*
X150006069Y-169916309D02*
X150053688Y-169821071D01*
X150053688Y-169821071D02*
X150101307Y-169773452D01*
X150101307Y-169773452D02*
X150196545Y-169725833D01*
X150196545Y-169725833D02*
X150339402Y-169725833D01*
X150339402Y-169725833D02*
X150434640Y-169773452D01*
X150434640Y-169773452D02*
X150482259Y-169821071D01*
X150482259Y-169821071D02*
X150529878Y-169916309D01*
X150529878Y-169916309D02*
X150529878Y-170297261D01*
X150482259Y-169297261D02*
X150482259Y-168963928D01*
X151006069Y-168821071D02*
X151006069Y-169297261D01*
X151006069Y-169297261D02*
X150006069Y-169297261D01*
X150006069Y-169297261D02*
X150006069Y-168821071D01*
X150482259Y-168059166D02*
X150482259Y-168392499D01*
X151006069Y-168392499D02*
X150006069Y-168392499D01*
X150006069Y-168392499D02*
X150006069Y-167916309D01*
X150006069Y-167392499D02*
X150244164Y-167392499D01*
X150148926Y-167630594D02*
X150244164Y-167392499D01*
X150244164Y-167392499D02*
X150148926Y-167154404D01*
X150434640Y-167535356D02*
X150244164Y-167392499D01*
X150244164Y-167392499D02*
X150434640Y-167249642D01*
X150006069Y-166630594D02*
X150244164Y-166630594D01*
X150148926Y-166868689D02*
X150244164Y-166630594D01*
X150244164Y-166630594D02*
X150148926Y-166392499D01*
X150434640Y-166773451D02*
X150244164Y-166630594D01*
X150244164Y-166630594D02*
X150434640Y-166487737D01*
X-1393930Y-203063333D02*
X-1870121Y-203396666D01*
X-1393930Y-203634761D02*
X-2393930Y-203634761D01*
X-2393930Y-203634761D02*
X-2393930Y-203253809D01*
X-2393930Y-203253809D02*
X-2346311Y-203158571D01*
X-2346311Y-203158571D02*
X-2298692Y-203110952D01*
X-2298692Y-203110952D02*
X-2203454Y-203063333D01*
X-2203454Y-203063333D02*
X-2060597Y-203063333D01*
X-2060597Y-203063333D02*
X-1965359Y-203110952D01*
X-1965359Y-203110952D02*
X-1917740Y-203158571D01*
X-1917740Y-203158571D02*
X-1870121Y-203253809D01*
X-1870121Y-203253809D02*
X-1870121Y-203634761D01*
X-1917740Y-202634761D02*
X-1917740Y-202301428D01*
X-1393930Y-202158571D02*
X-1393930Y-202634761D01*
X-1393930Y-202634761D02*
X-2393930Y-202634761D01*
X-2393930Y-202634761D02*
X-2393930Y-202158571D01*
X-1917740Y-201396666D02*
X-1917740Y-201729999D01*
X-1393930Y-201729999D02*
X-2393930Y-201729999D01*
X-2393930Y-201729999D02*
X-2393930Y-201253809D01*
X-2393930Y-200729999D02*
X-2155835Y-200729999D01*
X-2251073Y-200968094D02*
X-2155835Y-200729999D01*
X-2155835Y-200729999D02*
X-2251073Y-200491904D01*
X-1965359Y-200872856D02*
X-2155835Y-200729999D01*
X-2155835Y-200729999D02*
X-1965359Y-200587142D01*
X-2393930Y-199968094D02*
X-2155835Y-199968094D01*
X-2251073Y-200206189D02*
X-2155835Y-199968094D01*
X-2155835Y-199968094D02*
X-2251073Y-199729999D01*
X-1965359Y-200110951D02*
X-2155835Y-199968094D01*
X-2155835Y-199968094D02*
X-1965359Y-199825237D01*
X137024821Y-226215138D02*
X137024821Y-224715138D01*
X137024821Y-224715138D02*
X137381964Y-224715138D01*
X137381964Y-224715138D02*
X137596250Y-224786567D01*
X137596250Y-224786567D02*
X137739107Y-224929424D01*
X137739107Y-224929424D02*
X137810536Y-225072281D01*
X137810536Y-225072281D02*
X137881964Y-225357995D01*
X137881964Y-225357995D02*
X137881964Y-225572281D01*
X137881964Y-225572281D02*
X137810536Y-225857995D01*
X137810536Y-225857995D02*
X137739107Y-226000852D01*
X137739107Y-226000852D02*
X137596250Y-226143710D01*
X137596250Y-226143710D02*
X137381964Y-226215138D01*
X137381964Y-226215138D02*
X137024821Y-226215138D01*
X139310536Y-226215138D02*
X138453393Y-226215138D01*
X138881964Y-226215138D02*
X138881964Y-224715138D01*
X138881964Y-224715138D02*
X138739107Y-224929424D01*
X138739107Y-224929424D02*
X138596250Y-225072281D01*
X138596250Y-225072281D02*
X138453393Y-225143710D01*
X140167678Y-225357995D02*
X140024821Y-225286567D01*
X140024821Y-225286567D02*
X139953392Y-225215138D01*
X139953392Y-225215138D02*
X139881964Y-225072281D01*
X139881964Y-225072281D02*
X139881964Y-225000852D01*
X139881964Y-225000852D02*
X139953392Y-224857995D01*
X139953392Y-224857995D02*
X140024821Y-224786567D01*
X140024821Y-224786567D02*
X140167678Y-224715138D01*
X140167678Y-224715138D02*
X140453392Y-224715138D01*
X140453392Y-224715138D02*
X140596250Y-224786567D01*
X140596250Y-224786567D02*
X140667678Y-224857995D01*
X140667678Y-224857995D02*
X140739107Y-225000852D01*
X140739107Y-225000852D02*
X140739107Y-225072281D01*
X140739107Y-225072281D02*
X140667678Y-225215138D01*
X140667678Y-225215138D02*
X140596250Y-225286567D01*
X140596250Y-225286567D02*
X140453392Y-225357995D01*
X140453392Y-225357995D02*
X140167678Y-225357995D01*
X140167678Y-225357995D02*
X140024821Y-225429424D01*
X140024821Y-225429424D02*
X139953392Y-225500852D01*
X139953392Y-225500852D02*
X139881964Y-225643710D01*
X139881964Y-225643710D02*
X139881964Y-225929424D01*
X139881964Y-225929424D02*
X139953392Y-226072281D01*
X139953392Y-226072281D02*
X140024821Y-226143710D01*
X140024821Y-226143710D02*
X140167678Y-226215138D01*
X140167678Y-226215138D02*
X140453392Y-226215138D01*
X140453392Y-226215138D02*
X140596250Y-226143710D01*
X140596250Y-226143710D02*
X140667678Y-226072281D01*
X140667678Y-226072281D02*
X140739107Y-225929424D01*
X140739107Y-225929424D02*
X140739107Y-225643710D01*
X140739107Y-225643710D02*
X140667678Y-225500852D01*
X140667678Y-225500852D02*
X140596250Y-225429424D01*
X140596250Y-225429424D02*
X140453392Y-225357995D01*
X308070417Y-197512200D02*
X308213274Y-197559819D01*
X308213274Y-197559819D02*
X308451369Y-197559819D01*
X308451369Y-197559819D02*
X308546607Y-197512200D01*
X308546607Y-197512200D02*
X308594226Y-197464580D01*
X308594226Y-197464580D02*
X308641845Y-197369342D01*
X308641845Y-197369342D02*
X308641845Y-197274104D01*
X308641845Y-197274104D02*
X308594226Y-197178866D01*
X308594226Y-197178866D02*
X308546607Y-197131247D01*
X308546607Y-197131247D02*
X308451369Y-197083628D01*
X308451369Y-197083628D02*
X308260893Y-197036009D01*
X308260893Y-197036009D02*
X308165655Y-196988390D01*
X308165655Y-196988390D02*
X308118036Y-196940771D01*
X308118036Y-196940771D02*
X308070417Y-196845533D01*
X308070417Y-196845533D02*
X308070417Y-196750295D01*
X308070417Y-196750295D02*
X308118036Y-196655057D01*
X308118036Y-196655057D02*
X308165655Y-196607438D01*
X308165655Y-196607438D02*
X308260893Y-196559819D01*
X308260893Y-196559819D02*
X308498988Y-196559819D01*
X308498988Y-196559819D02*
X308641845Y-196607438D01*
X308975179Y-196559819D02*
X309213274Y-197559819D01*
X309213274Y-197559819D02*
X309403750Y-196845533D01*
X309403750Y-196845533D02*
X309594226Y-197559819D01*
X309594226Y-197559819D02*
X309832322Y-196559819D01*
X310641845Y-196559819D02*
X310451369Y-196559819D01*
X310451369Y-196559819D02*
X310356131Y-196607438D01*
X310356131Y-196607438D02*
X310308512Y-196655057D01*
X310308512Y-196655057D02*
X310213274Y-196797914D01*
X310213274Y-196797914D02*
X310165655Y-196988390D01*
X310165655Y-196988390D02*
X310165655Y-197369342D01*
X310165655Y-197369342D02*
X310213274Y-197464580D01*
X310213274Y-197464580D02*
X310260893Y-197512200D01*
X310260893Y-197512200D02*
X310356131Y-197559819D01*
X310356131Y-197559819D02*
X310546607Y-197559819D01*
X310546607Y-197559819D02*
X310641845Y-197512200D01*
X310641845Y-197512200D02*
X310689464Y-197464580D01*
X310689464Y-197464580D02*
X310737083Y-197369342D01*
X310737083Y-197369342D02*
X310737083Y-197131247D01*
X310737083Y-197131247D02*
X310689464Y-197036009D01*
X310689464Y-197036009D02*
X310641845Y-196988390D01*
X310641845Y-196988390D02*
X310546607Y-196940771D01*
X310546607Y-196940771D02*
X310356131Y-196940771D01*
X310356131Y-196940771D02*
X310260893Y-196988390D01*
X310260893Y-196988390D02*
X310213274Y-197036009D01*
X310213274Y-197036009D02*
X310165655Y-197131247D01*
X269970417Y-197512200D02*
X270113274Y-197559819D01*
X270113274Y-197559819D02*
X270351369Y-197559819D01*
X270351369Y-197559819D02*
X270446607Y-197512200D01*
X270446607Y-197512200D02*
X270494226Y-197464580D01*
X270494226Y-197464580D02*
X270541845Y-197369342D01*
X270541845Y-197369342D02*
X270541845Y-197274104D01*
X270541845Y-197274104D02*
X270494226Y-197178866D01*
X270494226Y-197178866D02*
X270446607Y-197131247D01*
X270446607Y-197131247D02*
X270351369Y-197083628D01*
X270351369Y-197083628D02*
X270160893Y-197036009D01*
X270160893Y-197036009D02*
X270065655Y-196988390D01*
X270065655Y-196988390D02*
X270018036Y-196940771D01*
X270018036Y-196940771D02*
X269970417Y-196845533D01*
X269970417Y-196845533D02*
X269970417Y-196750295D01*
X269970417Y-196750295D02*
X270018036Y-196655057D01*
X270018036Y-196655057D02*
X270065655Y-196607438D01*
X270065655Y-196607438D02*
X270160893Y-196559819D01*
X270160893Y-196559819D02*
X270398988Y-196559819D01*
X270398988Y-196559819D02*
X270541845Y-196607438D01*
X270875179Y-196559819D02*
X271113274Y-197559819D01*
X271113274Y-197559819D02*
X271303750Y-196845533D01*
X271303750Y-196845533D02*
X271494226Y-197559819D01*
X271494226Y-197559819D02*
X271732322Y-196559819D01*
X272589464Y-196559819D02*
X272113274Y-196559819D01*
X272113274Y-196559819D02*
X272065655Y-197036009D01*
X272065655Y-197036009D02*
X272113274Y-196988390D01*
X272113274Y-196988390D02*
X272208512Y-196940771D01*
X272208512Y-196940771D02*
X272446607Y-196940771D01*
X272446607Y-196940771D02*
X272541845Y-196988390D01*
X272541845Y-196988390D02*
X272589464Y-197036009D01*
X272589464Y-197036009D02*
X272637083Y-197131247D01*
X272637083Y-197131247D02*
X272637083Y-197369342D01*
X272637083Y-197369342D02*
X272589464Y-197464580D01*
X272589464Y-197464580D02*
X272541845Y-197512200D01*
X272541845Y-197512200D02*
X272446607Y-197559819D01*
X272446607Y-197559819D02*
X272208512Y-197559819D01*
X272208512Y-197559819D02*
X272113274Y-197512200D01*
X272113274Y-197512200D02*
X272065655Y-197464580D01*
X346574821Y-226215138D02*
X346574821Y-224715138D01*
X346574821Y-224715138D02*
X346931964Y-224715138D01*
X346931964Y-224715138D02*
X347146250Y-224786567D01*
X347146250Y-224786567D02*
X347289107Y-224929424D01*
X347289107Y-224929424D02*
X347360536Y-225072281D01*
X347360536Y-225072281D02*
X347431964Y-225357995D01*
X347431964Y-225357995D02*
X347431964Y-225572281D01*
X347431964Y-225572281D02*
X347360536Y-225857995D01*
X347360536Y-225857995D02*
X347289107Y-226000852D01*
X347289107Y-226000852D02*
X347146250Y-226143710D01*
X347146250Y-226143710D02*
X346931964Y-226215138D01*
X346931964Y-226215138D02*
X346574821Y-226215138D01*
X348003393Y-224857995D02*
X348074821Y-224786567D01*
X348074821Y-224786567D02*
X348217679Y-224715138D01*
X348217679Y-224715138D02*
X348574821Y-224715138D01*
X348574821Y-224715138D02*
X348717679Y-224786567D01*
X348717679Y-224786567D02*
X348789107Y-224857995D01*
X348789107Y-224857995D02*
X348860536Y-225000852D01*
X348860536Y-225000852D02*
X348860536Y-225143710D01*
X348860536Y-225143710D02*
X348789107Y-225357995D01*
X348789107Y-225357995D02*
X347931964Y-226215138D01*
X347931964Y-226215138D02*
X348860536Y-226215138D01*
X350146250Y-225215138D02*
X350146250Y-226215138D01*
X349789107Y-224643710D02*
X349431964Y-225715138D01*
X349431964Y-225715138D02*
X350360535Y-225715138D01*
X81216726Y-189575950D02*
X81359583Y-189623569D01*
X81359583Y-189623569D02*
X81597678Y-189623569D01*
X81597678Y-189623569D02*
X81692916Y-189575950D01*
X81692916Y-189575950D02*
X81740535Y-189528330D01*
X81740535Y-189528330D02*
X81788154Y-189433092D01*
X81788154Y-189433092D02*
X81788154Y-189337854D01*
X81788154Y-189337854D02*
X81740535Y-189242616D01*
X81740535Y-189242616D02*
X81692916Y-189194997D01*
X81692916Y-189194997D02*
X81597678Y-189147378D01*
X81597678Y-189147378D02*
X81407202Y-189099759D01*
X81407202Y-189099759D02*
X81311964Y-189052140D01*
X81311964Y-189052140D02*
X81264345Y-189004521D01*
X81264345Y-189004521D02*
X81216726Y-188909283D01*
X81216726Y-188909283D02*
X81216726Y-188814045D01*
X81216726Y-188814045D02*
X81264345Y-188718807D01*
X81264345Y-188718807D02*
X81311964Y-188671188D01*
X81311964Y-188671188D02*
X81407202Y-188623569D01*
X81407202Y-188623569D02*
X81645297Y-188623569D01*
X81645297Y-188623569D02*
X81788154Y-188671188D01*
X82121488Y-188623569D02*
X82359583Y-189623569D01*
X82359583Y-189623569D02*
X82550059Y-188909283D01*
X82550059Y-188909283D02*
X82740535Y-189623569D01*
X82740535Y-189623569D02*
X82978631Y-188623569D01*
X83883392Y-189623569D02*
X83311964Y-189623569D01*
X83597678Y-189623569D02*
X83597678Y-188623569D01*
X83597678Y-188623569D02*
X83502440Y-188766426D01*
X83502440Y-188766426D02*
X83407202Y-188861664D01*
X83407202Y-188861664D02*
X83311964Y-188909283D01*
X84740535Y-188956902D02*
X84740535Y-189623569D01*
X84502440Y-188575950D02*
X84264345Y-189290235D01*
X84264345Y-189290235D02*
X84883392Y-189290235D01*
X250444226Y-164174700D02*
X250587083Y-164222319D01*
X250587083Y-164222319D02*
X250825178Y-164222319D01*
X250825178Y-164222319D02*
X250920416Y-164174700D01*
X250920416Y-164174700D02*
X250968035Y-164127080D01*
X250968035Y-164127080D02*
X251015654Y-164031842D01*
X251015654Y-164031842D02*
X251015654Y-163936604D01*
X251015654Y-163936604D02*
X250968035Y-163841366D01*
X250968035Y-163841366D02*
X250920416Y-163793747D01*
X250920416Y-163793747D02*
X250825178Y-163746128D01*
X250825178Y-163746128D02*
X250634702Y-163698509D01*
X250634702Y-163698509D02*
X250539464Y-163650890D01*
X250539464Y-163650890D02*
X250491845Y-163603271D01*
X250491845Y-163603271D02*
X250444226Y-163508033D01*
X250444226Y-163508033D02*
X250444226Y-163412795D01*
X250444226Y-163412795D02*
X250491845Y-163317557D01*
X250491845Y-163317557D02*
X250539464Y-163269938D01*
X250539464Y-163269938D02*
X250634702Y-163222319D01*
X250634702Y-163222319D02*
X250872797Y-163222319D01*
X250872797Y-163222319D02*
X251015654Y-163269938D01*
X251348988Y-163222319D02*
X251587083Y-164222319D01*
X251587083Y-164222319D02*
X251777559Y-163508033D01*
X251777559Y-163508033D02*
X251968035Y-164222319D01*
X251968035Y-164222319D02*
X252206131Y-163222319D01*
X253110892Y-164222319D02*
X252539464Y-164222319D01*
X252825178Y-164222319D02*
X252825178Y-163222319D01*
X252825178Y-163222319D02*
X252729940Y-163365176D01*
X252729940Y-163365176D02*
X252634702Y-163460414D01*
X252634702Y-163460414D02*
X252539464Y-163508033D01*
X254063273Y-164222319D02*
X253491845Y-164222319D01*
X253777559Y-164222319D02*
X253777559Y-163222319D01*
X253777559Y-163222319D02*
X253682321Y-163365176D01*
X253682321Y-163365176D02*
X253587083Y-163460414D01*
X253587083Y-163460414D02*
X253491845Y-163508033D01*
D11*
G04 #@! TO.C,SW9*
X149903750Y-164667500D02*
X149903750Y-178867500D01*
X149903750Y-178867500D02*
X164103750Y-178867500D01*
X164103750Y-164667500D02*
X149903750Y-164667500D01*
X164103750Y-178867500D02*
X164103750Y-164667500D01*
G04 #@! TO.C,SW17*
X94976250Y-209118750D02*
X94976250Y-223318750D01*
X94976250Y-223318750D02*
X109176250Y-223318750D01*
X109176250Y-209118750D02*
X94976250Y-209118750D01*
X109176250Y-223318750D02*
X109176250Y-209118750D01*
D12*
G04 #@! TO.C,D25*
X362303750Y-229667500D02*
X361903750Y-229667500D01*
X370793750Y-228167500D02*
X371193750Y-228167500D01*
X370993750Y-227967500D02*
X370993750Y-228367500D01*
D11*
G04 #@! TO.C,SW8*
X359453750Y-198005000D02*
X359453750Y-212205000D01*
X359453750Y-212205000D02*
X373653750Y-212205000D01*
X373653750Y-198005000D02*
X359453750Y-198005000D01*
X373653750Y-212205000D02*
X373653750Y-198005000D01*
D12*
G04 #@! TO.C,D20*
X209903750Y-229667500D02*
X209503750Y-229667500D01*
X218393750Y-228167500D02*
X218793750Y-228167500D01*
X218593750Y-227967500D02*
X218593750Y-228367500D01*
G04 #@! TO.C,D29*
X286103750Y-196330000D02*
X285703750Y-196330000D01*
X294593750Y-194830000D02*
X294993750Y-194830000D01*
X294793750Y-194630000D02*
X294793750Y-195030000D01*
D11*
G04 #@! TO.C,SW2*
X168953750Y-198005000D02*
X168953750Y-212205000D01*
X168953750Y-212205000D02*
X183153750Y-212205000D01*
X183153750Y-198005000D02*
X168953750Y-198005000D01*
X183153750Y-212205000D02*
X183153750Y-198005000D01*
G04 #@! TO.C,SW13*
X321353750Y-164667500D02*
X321353750Y-178867500D01*
X321353750Y-178867500D02*
X335553750Y-178867500D01*
X335553750Y-164667500D02*
X321353750Y-164667500D01*
X335553750Y-178867500D02*
X335553750Y-164667500D01*
D12*
G04 #@! TO.C,D21*
X228953750Y-229667500D02*
X228553750Y-229667500D01*
X237443750Y-228167500D02*
X237843750Y-228167500D01*
X237643750Y-227967500D02*
X237643750Y-228367500D01*
G04 #@! TO.C,D30*
X324203750Y-196330000D02*
X323803750Y-196330000D01*
X332693750Y-194830000D02*
X333093750Y-194830000D01*
X332893750Y-194630000D02*
X332893750Y-195030000D01*
D11*
G04 #@! TO.C,SW10*
X188003750Y-164667500D02*
X188003750Y-178867500D01*
X188003750Y-178867500D02*
X202203750Y-178867500D01*
X202203750Y-164667500D02*
X188003750Y-164667500D01*
X202203750Y-178867500D02*
X202203750Y-164667500D01*
G04 #@! TO.C,SW16*
X75926250Y-209118750D02*
X75926250Y-223318750D01*
X75926250Y-223318750D02*
X90126250Y-223318750D01*
X90126250Y-209118750D02*
X75926250Y-209118750D01*
X90126250Y-223318750D02*
X90126250Y-209118750D01*
G04 #@! TO.C,SW15*
X94976250Y-190068750D02*
X94976250Y-204268750D01*
X94976250Y-204268750D02*
X109176250Y-204268750D01*
X109176250Y-190068750D02*
X94976250Y-190068750D01*
X109176250Y-204268750D02*
X109176250Y-190068750D01*
D12*
G04 #@! TO.C,D23*
X305153750Y-229667500D02*
X304753750Y-229667500D01*
X313643750Y-228167500D02*
X314043750Y-228167500D01*
X313843750Y-227967500D02*
X313843750Y-228367500D01*
D11*
G04 #@! TO.C,SW12*
X283253750Y-164667500D02*
X283253750Y-178867500D01*
X283253750Y-178867500D02*
X297453750Y-178867500D01*
X297453750Y-164667500D02*
X283253750Y-164667500D01*
X297453750Y-178867500D02*
X297453750Y-164667500D01*
G04 #@! TO.C,SW3*
X207053750Y-198005000D02*
X207053750Y-212205000D01*
X207053750Y-212205000D02*
X221253750Y-212205000D01*
X221253750Y-198005000D02*
X207053750Y-198005000D01*
X221253750Y-212205000D02*
X221253750Y-198005000D01*
G04 #@! TO.C,SW7*
X340403750Y-198005000D02*
X340403750Y-212205000D01*
X340403750Y-212205000D02*
X354603750Y-212205000D01*
X354603750Y-198005000D02*
X340403750Y-198005000D01*
X354603750Y-212205000D02*
X354603750Y-198005000D01*
D12*
G04 #@! TO.C,D28*
X248003750Y-196330000D02*
X247603750Y-196330000D01*
X256493750Y-194830000D02*
X256893750Y-194830000D01*
X256693750Y-194630000D02*
X256693750Y-195030000D01*
G04 #@! TO.C,D19*
X171803750Y-229667500D02*
X171403750Y-229667500D01*
X180293750Y-228167500D02*
X180693750Y-228167500D01*
X180493750Y-227967500D02*
X180493750Y-228367500D01*
G04 #@! TO.C,U2*
X82898750Y-174151250D02*
X84051250Y-174151250D01*
X82898750Y-180501250D02*
X82898750Y-174151250D01*
X84051250Y-180501250D02*
X82898750Y-180501250D01*
X101051250Y-180501250D02*
X102203750Y-180501250D01*
X102203750Y-174151250D02*
X101051250Y-174151250D01*
X102203750Y-180501250D02*
X102203750Y-174151250D01*
D13*
X85051250Y-182626250D02*
G75*
G02*
X84851250Y-182626250I-100000J0D01*
G01*
X84851250Y-182626250D02*
G75*
G02*
X85051250Y-182626250I100000J0D01*
G01*
D11*
G04 #@! TO.C,SW1*
X130853750Y-198005000D02*
X130853750Y-212205000D01*
X130853750Y-212205000D02*
X145053750Y-212205000D01*
X145053750Y-198005000D02*
X130853750Y-198005000D01*
X145053750Y-212205000D02*
X145053750Y-198005000D01*
D12*
G04 #@! TO.C,D26*
X152753750Y-196330000D02*
X152353750Y-196330000D01*
X161243750Y-194830000D02*
X161643750Y-194830000D01*
X161443750Y-194630000D02*
X161443750Y-195030000D01*
G04 #@! TO.C,D27*
X190853750Y-196330000D02*
X190453750Y-196330000D01*
X199343750Y-194830000D02*
X199743750Y-194830000D01*
X199543750Y-194630000D02*
X199543750Y-195030000D01*
D11*
G04 #@! TO.C,SW4*
X226103750Y-198005000D02*
X226103750Y-212205000D01*
X226103750Y-212205000D02*
X240303750Y-212205000D01*
X240303750Y-198005000D02*
X226103750Y-198005000D01*
X240303750Y-212205000D02*
X240303750Y-198005000D01*
D12*
G04 #@! TO.C,D22*
X267053750Y-229667500D02*
X266653750Y-229667500D01*
X275543750Y-228167500D02*
X275943750Y-228167500D01*
X275743750Y-227967500D02*
X275743750Y-228367500D01*
D10*
G04 #@! TO.C,U1*
X58088750Y-146187500D02*
X109088750Y-146187500D01*
X58088750Y-167187500D02*
X58088750Y-146187500D01*
X58088750Y-167187500D02*
X109088750Y-167187500D01*
X60755750Y-164180500D02*
X58088750Y-164180500D01*
X60755750Y-167187500D02*
X60755750Y-164180500D01*
X109088750Y-146187500D02*
X109088750Y-167187500D01*
D12*
G04 #@! TO.C,D18*
X133703750Y-229667500D02*
X133303750Y-229667500D01*
X142193750Y-228167500D02*
X142593750Y-228167500D01*
X142393750Y-227967500D02*
X142393750Y-228367500D01*
D11*
G04 #@! TO.C,SW6*
X302303750Y-198005000D02*
X302303750Y-212205000D01*
X302303750Y-212205000D02*
X316503750Y-212205000D01*
X316503750Y-198005000D02*
X302303750Y-198005000D01*
X316503750Y-212205000D02*
X316503750Y-198005000D01*
G04 #@! TO.C,SW5*
X264203750Y-198005000D02*
X264203750Y-212205000D01*
X264203750Y-212205000D02*
X278403750Y-212205000D01*
X278403750Y-198005000D02*
X264203750Y-198005000D01*
X278403750Y-212205000D02*
X278403750Y-198005000D01*
D12*
G04 #@! TO.C,D24*
X343253750Y-229667500D02*
X342853750Y-229667500D01*
X351743750Y-228167500D02*
X352143750Y-228167500D01*
X351943750Y-227967500D02*
X351943750Y-228367500D01*
D11*
G04 #@! TO.C,SW14*
X75926250Y-190068750D02*
X75926250Y-204268750D01*
X75926250Y-204268750D02*
X90126250Y-204268750D01*
X90126250Y-190068750D02*
X75926250Y-190068750D01*
X90126250Y-204268750D02*
X90126250Y-190068750D01*
G04 #@! TO.C,SW11*
X245153750Y-164667500D02*
X245153750Y-178867500D01*
X245153750Y-178867500D02*
X259353750Y-178867500D01*
X259353750Y-164667500D02*
X245153750Y-164667500D01*
X259353750Y-178867500D02*
X259353750Y-164667500D01*
G04 #@! TD*
%LPC*%
D14*
G04 #@! TO.C,SW9*
X151923750Y-171767500D03*
D15*
X157003750Y-171767500D03*
D14*
X162083750Y-171767500D03*
D16*
X153193750Y-169227500D03*
X159543750Y-166687500D03*
G04 #@! TD*
D14*
G04 #@! TO.C,SW17*
X96996250Y-216218750D03*
D15*
X102076250Y-216218750D03*
D14*
X107156250Y-216218750D03*
D16*
X98266250Y-213678750D03*
X104616250Y-211138750D03*
G04 #@! TD*
D17*
G04 #@! TO.C,D25*
X363543750Y-228167500D03*
X363543750Y-229667500D03*
X369563750Y-229667500D03*
X369563750Y-228167500D03*
G04 #@! TD*
D14*
G04 #@! TO.C,SW8*
X361473750Y-205105000D03*
D15*
X366553750Y-205105000D03*
D14*
X371633750Y-205105000D03*
D16*
X362743750Y-202565000D03*
X369093750Y-200025000D03*
G04 #@! TD*
D17*
G04 #@! TO.C,D20*
X211143750Y-228167500D03*
X211143750Y-229667500D03*
X217163750Y-229667500D03*
X217163750Y-228167500D03*
G04 #@! TD*
G04 #@! TO.C,D29*
X287343750Y-194830000D03*
X287343750Y-196330000D03*
X293363750Y-196330000D03*
X293363750Y-194830000D03*
G04 #@! TD*
D18*
G04 #@! TO.C,REF\u002A\u002A*
X339898750Y-220780000D03*
D19*
X355108750Y-220780000D03*
D18*
X339898750Y-182680000D03*
D19*
X355108750Y-182680000D03*
G04 #@! TD*
D18*
G04 #@! TO.C,REF\u002A\u002A*
X320848750Y-187442500D03*
D19*
X336058750Y-187442500D03*
D18*
X320848750Y-149342500D03*
D19*
X336058750Y-149342500D03*
G04 #@! TD*
D18*
G04 #@! TO.C,REF\u002A\u002A*
X168448750Y-220780000D03*
D19*
X183658750Y-220780000D03*
D18*
X168448750Y-182680000D03*
D19*
X183658750Y-182680000D03*
G04 #@! TD*
D14*
G04 #@! TO.C,SW2*
X170973750Y-205105000D03*
D15*
X176053750Y-205105000D03*
D14*
X181133750Y-205105000D03*
D16*
X172243750Y-202565000D03*
X178593750Y-200025000D03*
G04 #@! TD*
D14*
G04 #@! TO.C,SW13*
X323373750Y-171767500D03*
D15*
X328453750Y-171767500D03*
D14*
X333533750Y-171767500D03*
D16*
X324643750Y-169227500D03*
X330993750Y-166687500D03*
G04 #@! TD*
D17*
G04 #@! TO.C,D21*
X230193750Y-228167500D03*
X230193750Y-229667500D03*
X236213750Y-229667500D03*
X236213750Y-228167500D03*
G04 #@! TD*
G04 #@! TO.C,D30*
X325443750Y-194830000D03*
X325443750Y-196330000D03*
X331463750Y-196330000D03*
X331463750Y-194830000D03*
G04 #@! TD*
D14*
G04 #@! TO.C,SW10*
X190023750Y-171767500D03*
D15*
X195103750Y-171767500D03*
D14*
X200183750Y-171767500D03*
D16*
X191293750Y-169227500D03*
X197643750Y-166687500D03*
G04 #@! TD*
D18*
G04 #@! TO.C,REF\u002A\u002A*
X301798750Y-220780000D03*
D19*
X317008750Y-220780000D03*
D18*
X301798750Y-182680000D03*
D19*
X317008750Y-182680000D03*
G04 #@! TD*
D18*
G04 #@! TO.C,REF\u002A\u002A*
X263698750Y-220780000D03*
D19*
X278908750Y-220780000D03*
D18*
X263698750Y-182680000D03*
D19*
X278908750Y-182680000D03*
G04 #@! TD*
D14*
G04 #@! TO.C,SW16*
X77946250Y-216218750D03*
D15*
X83026250Y-216218750D03*
D14*
X88106250Y-216218750D03*
D16*
X79216250Y-213678750D03*
X85566250Y-211138750D03*
G04 #@! TD*
D14*
G04 #@! TO.C,SW15*
X96996250Y-197168750D03*
D15*
X102076250Y-197168750D03*
D14*
X107156250Y-197168750D03*
D16*
X98266250Y-194628750D03*
X104616250Y-192088750D03*
G04 #@! TD*
D17*
G04 #@! TO.C,D23*
X306393750Y-228167500D03*
X306393750Y-229667500D03*
X312413750Y-229667500D03*
X312413750Y-228167500D03*
G04 #@! TD*
D14*
G04 #@! TO.C,SW12*
X285273750Y-171767500D03*
D15*
X290353750Y-171767500D03*
D14*
X295433750Y-171767500D03*
D16*
X286543750Y-169227500D03*
X292893750Y-166687500D03*
G04 #@! TD*
D18*
G04 #@! TO.C,REF\u002A\u002A*
X149398750Y-187442500D03*
D19*
X164608750Y-187442500D03*
D18*
X149398750Y-149342500D03*
D19*
X164608750Y-149342500D03*
G04 #@! TD*
D14*
G04 #@! TO.C,SW3*
X209073750Y-205105000D03*
D15*
X214153750Y-205105000D03*
D14*
X219233750Y-205105000D03*
D16*
X210343750Y-202565000D03*
X216693750Y-200025000D03*
G04 #@! TD*
D14*
G04 #@! TO.C,SW7*
X342423750Y-205105000D03*
D15*
X347503750Y-205105000D03*
D14*
X352583750Y-205105000D03*
D16*
X343693750Y-202565000D03*
X350043750Y-200025000D03*
G04 #@! TD*
D17*
G04 #@! TO.C,D28*
X249243750Y-194830000D03*
X249243750Y-196330000D03*
X255263750Y-196330000D03*
X255263750Y-194830000D03*
G04 #@! TD*
D18*
G04 #@! TO.C,REF\u002A\u002A*
X187498750Y-187442500D03*
D19*
X202708750Y-187442500D03*
D18*
X187498750Y-149342500D03*
D19*
X202708750Y-149342500D03*
G04 #@! TD*
D17*
G04 #@! TO.C,D19*
X173043750Y-228167500D03*
X173043750Y-229667500D03*
X179063750Y-229667500D03*
X179063750Y-228167500D03*
G04 #@! TD*
D20*
G04 #@! TO.C,U2*
X84931250Y-181296250D03*
D21*
X87471250Y-181296250D03*
X90011250Y-181296250D03*
X92551250Y-181296250D03*
X95091250Y-181296250D03*
X97631250Y-181296250D03*
X100171250Y-181296250D03*
X100171250Y-173356250D03*
X97631250Y-173356250D03*
X95091250Y-173356250D03*
X92551250Y-173356250D03*
X90011250Y-173356250D03*
X87471250Y-173356250D03*
X84931250Y-173356250D03*
G04 #@! TD*
D18*
G04 #@! TO.C,REF\u002A\u002A*
X206548750Y-220780000D03*
D19*
X221758750Y-220780000D03*
D18*
X206548750Y-182680000D03*
D19*
X221758750Y-182680000D03*
G04 #@! TD*
D18*
G04 #@! TO.C,REF\u002A\u002A*
X244648750Y-187442500D03*
D19*
X259858750Y-187442500D03*
D18*
X244648750Y-149342500D03*
D19*
X259858750Y-149342500D03*
G04 #@! TD*
D14*
G04 #@! TO.C,SW1*
X132873750Y-205105000D03*
D15*
X137953750Y-205105000D03*
D14*
X143033750Y-205105000D03*
D16*
X134143750Y-202565000D03*
X140493750Y-200025000D03*
G04 #@! TD*
D17*
G04 #@! TO.C,D26*
X153993750Y-194830000D03*
X153993750Y-196330000D03*
X160013750Y-196330000D03*
X160013750Y-194830000D03*
G04 #@! TD*
G04 #@! TO.C,D27*
X192093750Y-194830000D03*
X192093750Y-196330000D03*
X198113750Y-196330000D03*
X198113750Y-194830000D03*
G04 #@! TD*
D14*
G04 #@! TO.C,SW4*
X228123750Y-205105000D03*
D15*
X233203750Y-205105000D03*
D14*
X238283750Y-205105000D03*
D16*
X229393750Y-202565000D03*
X235743750Y-200025000D03*
G04 #@! TD*
D18*
G04 #@! TO.C,REF\u002A\u002A*
X358948750Y-220780000D03*
D19*
X374158750Y-220780000D03*
D18*
X358948750Y-182680000D03*
D19*
X374158750Y-182680000D03*
G04 #@! TD*
D18*
G04 #@! TO.C,REF\u002A\u002A*
X225598750Y-220780000D03*
D19*
X240808750Y-220780000D03*
D18*
X225598750Y-182680000D03*
D19*
X240808750Y-182680000D03*
G04 #@! TD*
D17*
G04 #@! TO.C,D22*
X268293750Y-228167500D03*
X268293750Y-229667500D03*
X274313750Y-229667500D03*
X274313750Y-228167500D03*
G04 #@! TD*
D22*
G04 #@! TO.C,U1*
X59458750Y-165577500D03*
D23*
X59458750Y-166477500D03*
D22*
X61998750Y-165577500D03*
D23*
X61998750Y-166477500D03*
D24*
X64538750Y-165577500D03*
D23*
X64538750Y-166477500D03*
D22*
X67078750Y-165577500D03*
D23*
X67078750Y-166477500D03*
D22*
X69618750Y-165577500D03*
D23*
X69618750Y-166477500D03*
D22*
X72158750Y-165577500D03*
D23*
X72158750Y-166477500D03*
D22*
X74698750Y-165577500D03*
D23*
X74698750Y-166477500D03*
D24*
X77238750Y-165577500D03*
D23*
X77238750Y-166477500D03*
D22*
X79778750Y-165577500D03*
D23*
X79778750Y-166477500D03*
D22*
X82318750Y-165577500D03*
D23*
X82318750Y-166477500D03*
D22*
X84858750Y-165577500D03*
D23*
X84858750Y-166477500D03*
D22*
X87398750Y-165577500D03*
D23*
X87398750Y-166477500D03*
D24*
X89938750Y-165577500D03*
D23*
X89938750Y-166477500D03*
D22*
X92478750Y-165577500D03*
D23*
X92478750Y-166477500D03*
D22*
X95018750Y-165577500D03*
D23*
X95018750Y-166477500D03*
D22*
X97558750Y-165577500D03*
D23*
X97558750Y-166477500D03*
D22*
X100098750Y-165577500D03*
D23*
X100098750Y-166477500D03*
D24*
X102638750Y-165577500D03*
D23*
X102638750Y-166477500D03*
D22*
X105178750Y-165577500D03*
D23*
X105178750Y-166477500D03*
D22*
X107718750Y-165577500D03*
D23*
X107718750Y-166477500D03*
D22*
X107718750Y-147797500D03*
D23*
X107718750Y-146897500D03*
D22*
X105178750Y-147797500D03*
D23*
X105178750Y-146897500D03*
D24*
X102638750Y-147797500D03*
D23*
X102638750Y-146897500D03*
D22*
X100098750Y-147797500D03*
D23*
X100098750Y-146897500D03*
D22*
X97558750Y-147797500D03*
D23*
X97558750Y-146897500D03*
D22*
X95018750Y-147797500D03*
D23*
X95018750Y-146897500D03*
D22*
X92478750Y-147797500D03*
D23*
X92478750Y-146897500D03*
D24*
X89938750Y-147797500D03*
D23*
X89938750Y-146897500D03*
D22*
X87398750Y-147797500D03*
D23*
X87398750Y-146897500D03*
D22*
X84858750Y-147797500D03*
D23*
X84858750Y-146897500D03*
D22*
X82318750Y-147797500D03*
D23*
X82318750Y-146897500D03*
D22*
X79778750Y-147797500D03*
D23*
X79778750Y-146897500D03*
D24*
X77238750Y-147797500D03*
D23*
X77238750Y-146897500D03*
D22*
X74698750Y-147797500D03*
D23*
X74698750Y-146897500D03*
D22*
X72158750Y-147797500D03*
D23*
X72158750Y-146897500D03*
D22*
X69618750Y-147797500D03*
D23*
X69618750Y-146897500D03*
D22*
X67078750Y-147797500D03*
D23*
X67078750Y-146897500D03*
D24*
X64538750Y-147797500D03*
D23*
X64538750Y-146897500D03*
D22*
X61998750Y-147797500D03*
D23*
X61998750Y-146897500D03*
D22*
X59458750Y-147797500D03*
D23*
X59458750Y-146897500D03*
D22*
X107488750Y-159227500D03*
D25*
X108388750Y-159227500D03*
D24*
X107488750Y-156687500D03*
D25*
X108388750Y-156687500D03*
D22*
X107488750Y-154147500D03*
D25*
X108388750Y-154147500D03*
G04 #@! TD*
D18*
G04 #@! TO.C,REF\u002A\u002A*
X282748750Y-187442500D03*
D19*
X297958750Y-187442500D03*
D18*
X282748750Y-149342500D03*
D19*
X297958750Y-149342500D03*
G04 #@! TD*
D18*
G04 #@! TO.C,REF\u002A\u002A*
X130348750Y-220780000D03*
D19*
X145558750Y-220780000D03*
D18*
X130348750Y-182680000D03*
D19*
X145558750Y-182680000D03*
G04 #@! TD*
D17*
G04 #@! TO.C,D18*
X134943750Y-228167500D03*
X134943750Y-229667500D03*
X140963750Y-229667500D03*
X140963750Y-228167500D03*
G04 #@! TD*
D14*
G04 #@! TO.C,SW6*
X304323750Y-205105000D03*
D15*
X309403750Y-205105000D03*
D14*
X314483750Y-205105000D03*
D16*
X305593750Y-202565000D03*
X311943750Y-200025000D03*
G04 #@! TD*
D14*
G04 #@! TO.C,SW5*
X266223750Y-205105000D03*
D15*
X271303750Y-205105000D03*
D14*
X276383750Y-205105000D03*
D16*
X267493750Y-202565000D03*
X273843750Y-200025000D03*
G04 #@! TD*
D17*
G04 #@! TO.C,D24*
X344493750Y-228167500D03*
X344493750Y-229667500D03*
X350513750Y-229667500D03*
X350513750Y-228167500D03*
G04 #@! TD*
D14*
G04 #@! TO.C,SW14*
X77946250Y-197168750D03*
D15*
X83026250Y-197168750D03*
D14*
X88106250Y-197168750D03*
D16*
X79216250Y-194628750D03*
X85566250Y-192088750D03*
G04 #@! TD*
D14*
G04 #@! TO.C,SW11*
X247173750Y-171767500D03*
D15*
X252253750Y-171767500D03*
D14*
X257333750Y-171767500D03*
D16*
X248443750Y-169227500D03*
X254793750Y-166687500D03*
G04 #@! TD*
D26*
G04 #@! TO.C,D17*
X111601250Y-219076250D03*
D27*
X111601250Y-211456250D03*
G04 #@! TD*
D26*
G04 #@! TO.C,D11*
X261778750Y-174625000D03*
D27*
X261778750Y-167005000D03*
G04 #@! TD*
D26*
G04 #@! TO.C,D4*
X242728750Y-207962500D03*
D27*
X242728750Y-200342500D03*
G04 #@! TD*
D26*
G04 #@! TO.C,D10*
X204628750Y-174625000D03*
D27*
X204628750Y-167005000D03*
G04 #@! TD*
D26*
G04 #@! TO.C,D14*
X92551250Y-200026250D03*
D27*
X92551250Y-192406250D03*
G04 #@! TD*
D26*
G04 #@! TO.C,D8*
X376078750Y-207962500D03*
D27*
X376078750Y-200342500D03*
G04 #@! TD*
D26*
G04 #@! TO.C,D15*
X111601250Y-200026250D03*
D27*
X111601250Y-192406250D03*
G04 #@! TD*
D26*
G04 #@! TO.C,D2*
X185578750Y-207962500D03*
D27*
X185578750Y-200342500D03*
G04 #@! TD*
D26*
G04 #@! TO.C,D3*
X223678750Y-207962500D03*
D27*
X223678750Y-200342500D03*
G04 #@! TD*
D26*
G04 #@! TO.C,D12*
X299878750Y-174625000D03*
D27*
X299878750Y-167005000D03*
G04 #@! TD*
D26*
G04 #@! TO.C,D1*
X147478750Y-207962500D03*
D27*
X147478750Y-200342500D03*
G04 #@! TD*
D26*
G04 #@! TO.C,D7*
X357028750Y-207962500D03*
D27*
X357028750Y-200342500D03*
G04 #@! TD*
D26*
G04 #@! TO.C,D13*
X337978750Y-174625000D03*
D27*
X337978750Y-167005000D03*
G04 #@! TD*
D26*
G04 #@! TO.C,D5*
X280828750Y-207962500D03*
D27*
X280828750Y-200342500D03*
G04 #@! TD*
D26*
G04 #@! TO.C,D16*
X92551250Y-219076250D03*
D27*
X92551250Y-211456250D03*
G04 #@! TD*
D26*
G04 #@! TO.C,D6*
X318928750Y-207962500D03*
D27*
X318928750Y-200342500D03*
G04 #@! TD*
D26*
G04 #@! TO.C,D9*
X166528750Y-174625000D03*
D27*
X166528750Y-167005000D03*
G04 #@! TD*
%LPD*%
M02*
