G04 #@! TF.GenerationSoftware,KiCad,Pcbnew,8.0.3*
G04 #@! TF.CreationDate,2024-07-25T17:07:34-07:00*
G04 #@! TF.ProjectId,melokey,6d656c6f-6b65-4792-9e6b-696361645f70,rev?*
G04 #@! TF.SameCoordinates,Original*
G04 #@! TF.FileFunction,Profile,NP*
%FSLAX46Y46*%
G04 Gerber Fmt 4.6, Leading zero omitted, Abs format (unit mm)*
G04 Created by KiCad (PCBNEW 8.0.3) date 2024-07-25 17:07:34*
%MOMM*%
%LPD*%
G01*
G04 APERTURE LIST*
G04 #@! TA.AperFunction,Profile*
%ADD10C,0.050000*%
G04 #@! TD*
G04 #@! TA.AperFunction,Profile*
%ADD11C,1.625000*%
G04 #@! TD*
G04 #@! TA.AperFunction,Profile*
%ADD12C,0.010000*%
G04 #@! TD*
G04 APERTURE END LIST*
D10*
X387588750Y-132875000D02*
X385603750Y-132875000D01*
X56826250Y-249556250D02*
G75*
G02*
X51826250Y-244556250I0J5000000D01*
G01*
X387588750Y-132875000D02*
G75*
G02*
X392588800Y-137875000I50J-5000000D01*
G01*
X382826250Y-249556250D02*
X56826250Y-249556250D01*
D11*
X385645000Y-241556250D02*
G75*
G02*
X384020000Y-241556250I-812500J0D01*
G01*
X384020000Y-241556250D02*
G75*
G02*
X385645000Y-241556250I812500J0D01*
G01*
X60882500Y-191056250D02*
G75*
G02*
X59257500Y-191056250I-812500J0D01*
G01*
X59257500Y-191056250D02*
G75*
G02*
X60882500Y-191056250I812500J0D01*
G01*
D10*
X392588750Y-244556250D02*
G75*
G02*
X387588750Y-249556250I-4999950J-50D01*
G01*
X392588750Y-137875000D02*
X392588750Y-244556250D01*
X382826250Y-249556250D02*
X387588750Y-249556250D01*
X51826250Y-244556250D02*
X52070000Y-137875000D01*
X52070000Y-137875000D02*
G75*
G02*
X57070000Y-132875000I5000000J0D01*
G01*
D11*
X385645000Y-139875000D02*
G75*
G02*
X384020000Y-139875000I-812500J0D01*
G01*
X384020000Y-139875000D02*
G75*
G02*
X385645000Y-139875000I812500J0D01*
G01*
D10*
X57070000Y-132875000D02*
X385603750Y-132875000D01*
D11*
X385645000Y-190375000D02*
G75*
G02*
X384020000Y-190375000I-812500J0D01*
G01*
X384020000Y-190375000D02*
G75*
G02*
X385645000Y-190375000I812500J0D01*
G01*
X60882500Y-241556250D02*
G75*
G02*
X59257500Y-241556250I-812500J0D01*
G01*
X59257500Y-241556250D02*
G75*
G02*
X60882500Y-241556250I812500J0D01*
G01*
X60882500Y-139875000D02*
G75*
G02*
X59257500Y-139875000I-812500J0D01*
G01*
X59257500Y-139875000D02*
G75*
G02*
X60882500Y-139875000I812500J0D01*
G01*
D12*
G04 #@! TO.C,D25*
X364853750Y-227417500D02*
X368253750Y-227417500D01*
X364853750Y-230417500D02*
X364853750Y-227417500D01*
X368253750Y-227417500D02*
X368253750Y-230417500D01*
X368253750Y-230417500D02*
X364853750Y-230417500D01*
G04 #@! TO.C,D20*
X207691250Y-227417500D02*
X211091250Y-227417500D01*
X207691250Y-230417500D02*
X207691250Y-227417500D01*
X211091250Y-227417500D02*
X211091250Y-230417500D01*
X211091250Y-230417500D02*
X207691250Y-230417500D01*
G04 #@! TO.C,D29*
X288653750Y-194080000D02*
X292053750Y-194080000D01*
X288653750Y-197080000D02*
X288653750Y-194080000D01*
X292053750Y-194080000D02*
X292053750Y-197080000D01*
X292053750Y-197080000D02*
X288653750Y-197080000D01*
G04 #@! TO.C,D21*
X236266250Y-227417500D02*
X239666250Y-227417500D01*
X236266250Y-230417500D02*
X236266250Y-227417500D01*
X239666250Y-227417500D02*
X239666250Y-230417500D01*
X239666250Y-230417500D02*
X236266250Y-230417500D01*
G04 #@! TO.C,D30*
X326753750Y-194080000D02*
X330153750Y-194080000D01*
X326753750Y-197080000D02*
X326753750Y-194080000D01*
X330153750Y-194080000D02*
X330153750Y-197080000D01*
X330153750Y-197080000D02*
X326753750Y-197080000D01*
G04 #@! TO.C,D23*
X307703750Y-227417500D02*
X311103750Y-227417500D01*
X307703750Y-230417500D02*
X307703750Y-227417500D01*
X311103750Y-227417500D02*
X311103750Y-230417500D01*
X311103750Y-230417500D02*
X307703750Y-230417500D01*
G04 #@! TO.C,D28*
X250553750Y-194080000D02*
X253953750Y-194080000D01*
X250553750Y-197080000D02*
X250553750Y-194080000D01*
X253953750Y-194080000D02*
X253953750Y-197080000D01*
X253953750Y-197080000D02*
X250553750Y-197080000D01*
G04 #@! TO.C,D19*
X174353750Y-227417500D02*
X177753750Y-227417500D01*
X174353750Y-230417500D02*
X174353750Y-227417500D01*
X177753750Y-227417500D02*
X177753750Y-230417500D01*
X177753750Y-230417500D02*
X174353750Y-230417500D01*
G04 #@! TO.C,D26*
X155303750Y-194080000D02*
X158703750Y-194080000D01*
X155303750Y-197080000D02*
X155303750Y-194080000D01*
X158703750Y-194080000D02*
X158703750Y-197080000D01*
X158703750Y-197080000D02*
X155303750Y-197080000D01*
G04 #@! TO.C,D27*
X193403750Y-194080000D02*
X196803750Y-194080000D01*
X193403750Y-197080000D02*
X193403750Y-194080000D01*
X196803750Y-194080000D02*
X196803750Y-197080000D01*
X196803750Y-197080000D02*
X193403750Y-197080000D01*
G04 #@! TO.C,D22*
X269603750Y-227417500D02*
X273003750Y-227417500D01*
X269603750Y-230417500D02*
X269603750Y-227417500D01*
X273003750Y-227417500D02*
X273003750Y-230417500D01*
X273003750Y-230417500D02*
X269603750Y-230417500D01*
G04 #@! TO.C,D18*
X138635000Y-227417500D02*
X142035000Y-227417500D01*
X138635000Y-230417500D02*
X138635000Y-227417500D01*
X142035000Y-227417500D02*
X142035000Y-230417500D01*
X142035000Y-230417500D02*
X138635000Y-230417500D01*
G04 #@! TO.C,D24*
X341041250Y-227417500D02*
X344441250Y-227417500D01*
X341041250Y-230417500D02*
X341041250Y-227417500D01*
X344441250Y-227417500D02*
X344441250Y-230417500D01*
X344441250Y-230417500D02*
X341041250Y-230417500D01*
G04 #@! TD*
M02*
