G04 #@! TF.GenerationSoftware,KiCad,Pcbnew,8.0.3*
G04 #@! TF.CreationDate,2024-07-07T23:06:26-07:00*
G04 #@! TF.ProjectId,melokey,6d656c6f-6b65-4792-9e6b-696361645f70,rev?*
G04 #@! TF.SameCoordinates,Original*
G04 #@! TF.FileFunction,Legend,Bot*
G04 #@! TF.FilePolarity,Positive*
%FSLAX46Y46*%
G04 Gerber Fmt 4.6, Leading zero omitted, Abs format (unit mm)*
G04 Created by KiCad (PCBNEW 8.0.3) date 2024-07-07 23:06:26*
%MOMM*%
%LPD*%
G01*
G04 APERTURE LIST*
G04 Aperture macros list*
%AMRoundRect*
0 Rectangle with rounded corners*
0 $1 Rounding radius*
0 $2 $3 $4 $5 $6 $7 $8 $9 X,Y pos of 4 corners*
0 Add a 4 corners polygon primitive as box body*
4,1,4,$2,$3,$4,$5,$6,$7,$8,$9,$2,$3,0*
0 Add four circle primitives for the rounded corners*
1,1,$1+$1,$2,$3*
1,1,$1+$1,$4,$5*
1,1,$1+$1,$6,$7*
1,1,$1+$1,$8,$9*
0 Add four rect primitives between the rounded corners*
20,1,$1+$1,$2,$3,$4,$5,0*
20,1,$1+$1,$4,$5,$6,$7,0*
20,1,$1+$1,$6,$7,$8,$9,0*
20,1,$1+$1,$8,$9,$2,$3,0*%
G04 Aperture macros list end*
%ADD10C,0.150000*%
%ADD11C,0.120000*%
%ADD12C,1.750000*%
%ADD13C,4.000000*%
%ADD14C,2.500000*%
%ADD15C,3.048000*%
%ADD16C,3.987800*%
%ADD17RoundRect,0.102000X0.570000X-0.570000X0.570000X0.570000X-0.570000X0.570000X-0.570000X-0.570000X0*%
%ADD18C,1.344000*%
%ADD19O,1.700000X1.700000*%
%ADD20R,1.700000X1.700000*%
%ADD21R,1.600000X1.600000*%
%ADD22O,1.600000X1.600000*%
G04 APERTURE END LIST*
D10*
X71759140Y-162156071D02*
X71721045Y-162079881D01*
X71721045Y-162079881D02*
X71721045Y-161965595D01*
X71721045Y-161965595D02*
X71759140Y-161851309D01*
X71759140Y-161851309D02*
X71835330Y-161775119D01*
X71835330Y-161775119D02*
X71911521Y-161737024D01*
X71911521Y-161737024D02*
X72063902Y-161698928D01*
X72063902Y-161698928D02*
X72178188Y-161698928D01*
X72178188Y-161698928D02*
X72330569Y-161737024D01*
X72330569Y-161737024D02*
X72406759Y-161775119D01*
X72406759Y-161775119D02*
X72482950Y-161851309D01*
X72482950Y-161851309D02*
X72521045Y-161965595D01*
X72521045Y-161965595D02*
X72521045Y-162041786D01*
X72521045Y-162041786D02*
X72482950Y-162156071D01*
X72482950Y-162156071D02*
X72444854Y-162194167D01*
X72444854Y-162194167D02*
X72178188Y-162194167D01*
X72178188Y-162194167D02*
X72178188Y-162041786D01*
X72521045Y-162537024D02*
X71721045Y-162537024D01*
X71721045Y-162537024D02*
X71721045Y-162841786D01*
X71721045Y-162841786D02*
X71759140Y-162917976D01*
X71759140Y-162917976D02*
X71797235Y-162956071D01*
X71797235Y-162956071D02*
X71873426Y-162994167D01*
X71873426Y-162994167D02*
X71987711Y-162994167D01*
X71987711Y-162994167D02*
X72063902Y-162956071D01*
X72063902Y-162956071D02*
X72101997Y-162917976D01*
X72101997Y-162917976D02*
X72140092Y-162841786D01*
X72140092Y-162841786D02*
X72140092Y-162537024D01*
X71987711Y-163679881D02*
X72521045Y-163679881D01*
X71682950Y-163489405D02*
X72254378Y-163298928D01*
X72254378Y-163298928D02*
X72254378Y-163794167D01*
X102239140Y-162117976D02*
X102201045Y-162041786D01*
X102201045Y-162041786D02*
X102201045Y-161927500D01*
X102201045Y-161927500D02*
X102239140Y-161813214D01*
X102239140Y-161813214D02*
X102315330Y-161737024D01*
X102315330Y-161737024D02*
X102391521Y-161698929D01*
X102391521Y-161698929D02*
X102543902Y-161660833D01*
X102543902Y-161660833D02*
X102658188Y-161660833D01*
X102658188Y-161660833D02*
X102810569Y-161698929D01*
X102810569Y-161698929D02*
X102886759Y-161737024D01*
X102886759Y-161737024D02*
X102962950Y-161813214D01*
X102962950Y-161813214D02*
X103001045Y-161927500D01*
X103001045Y-161927500D02*
X103001045Y-162003691D01*
X103001045Y-162003691D02*
X102962950Y-162117976D01*
X102962950Y-162117976D02*
X102924854Y-162156072D01*
X102924854Y-162156072D02*
X102658188Y-162156072D01*
X102658188Y-162156072D02*
X102658188Y-162003691D01*
X103001045Y-162498929D02*
X102201045Y-162498929D01*
X102201045Y-162498929D02*
X103001045Y-162956072D01*
X103001045Y-162956072D02*
X102201045Y-162956072D01*
X103001045Y-163337024D02*
X102201045Y-163337024D01*
X102201045Y-163337024D02*
X102201045Y-163527500D01*
X102201045Y-163527500D02*
X102239140Y-163641786D01*
X102239140Y-163641786D02*
X102315330Y-163717976D01*
X102315330Y-163717976D02*
X102391521Y-163756071D01*
X102391521Y-163756071D02*
X102543902Y-163794167D01*
X102543902Y-163794167D02*
X102658188Y-163794167D01*
X102658188Y-163794167D02*
X102810569Y-163756071D01*
X102810569Y-163756071D02*
X102886759Y-163717976D01*
X102886759Y-163717976D02*
X102962950Y-163641786D01*
X102962950Y-163641786D02*
X103001045Y-163527500D01*
X103001045Y-163527500D02*
X103001045Y-163337024D01*
X79379140Y-162156071D02*
X79341045Y-162079881D01*
X79341045Y-162079881D02*
X79341045Y-161965595D01*
X79341045Y-161965595D02*
X79379140Y-161851309D01*
X79379140Y-161851309D02*
X79455330Y-161775119D01*
X79455330Y-161775119D02*
X79531521Y-161737024D01*
X79531521Y-161737024D02*
X79683902Y-161698928D01*
X79683902Y-161698928D02*
X79798188Y-161698928D01*
X79798188Y-161698928D02*
X79950569Y-161737024D01*
X79950569Y-161737024D02*
X80026759Y-161775119D01*
X80026759Y-161775119D02*
X80102950Y-161851309D01*
X80102950Y-161851309D02*
X80141045Y-161965595D01*
X80141045Y-161965595D02*
X80141045Y-162041786D01*
X80141045Y-162041786D02*
X80102950Y-162156071D01*
X80102950Y-162156071D02*
X80064854Y-162194167D01*
X80064854Y-162194167D02*
X79798188Y-162194167D01*
X79798188Y-162194167D02*
X79798188Y-162041786D01*
X80141045Y-162537024D02*
X79341045Y-162537024D01*
X79341045Y-162537024D02*
X79341045Y-162841786D01*
X79341045Y-162841786D02*
X79379140Y-162917976D01*
X79379140Y-162917976D02*
X79417235Y-162956071D01*
X79417235Y-162956071D02*
X79493426Y-162994167D01*
X79493426Y-162994167D02*
X79607711Y-162994167D01*
X79607711Y-162994167D02*
X79683902Y-162956071D01*
X79683902Y-162956071D02*
X79721997Y-162917976D01*
X79721997Y-162917976D02*
X79760092Y-162841786D01*
X79760092Y-162841786D02*
X79760092Y-162537024D01*
X79341045Y-163679881D02*
X79341045Y-163527500D01*
X79341045Y-163527500D02*
X79379140Y-163451309D01*
X79379140Y-163451309D02*
X79417235Y-163413214D01*
X79417235Y-163413214D02*
X79531521Y-163337024D01*
X79531521Y-163337024D02*
X79683902Y-163298928D01*
X79683902Y-163298928D02*
X79988664Y-163298928D01*
X79988664Y-163298928D02*
X80064854Y-163337024D01*
X80064854Y-163337024D02*
X80102950Y-163375119D01*
X80102950Y-163375119D02*
X80141045Y-163451309D01*
X80141045Y-163451309D02*
X80141045Y-163603690D01*
X80141045Y-163603690D02*
X80102950Y-163679881D01*
X80102950Y-163679881D02*
X80064854Y-163717976D01*
X80064854Y-163717976D02*
X79988664Y-163756071D01*
X79988664Y-163756071D02*
X79798188Y-163756071D01*
X79798188Y-163756071D02*
X79721997Y-163717976D01*
X79721997Y-163717976D02*
X79683902Y-163679881D01*
X79683902Y-163679881D02*
X79645807Y-163603690D01*
X79645807Y-163603690D02*
X79645807Y-163451309D01*
X79645807Y-163451309D02*
X79683902Y-163375119D01*
X79683902Y-163375119D02*
X79721997Y-163337024D01*
X79721997Y-163337024D02*
X79798188Y-163298928D01*
X105648274Y-159551700D02*
X105533988Y-159589795D01*
X105533988Y-159589795D02*
X105343512Y-159589795D01*
X105343512Y-159589795D02*
X105267321Y-159551700D01*
X105267321Y-159551700D02*
X105229226Y-159513604D01*
X105229226Y-159513604D02*
X105191131Y-159437414D01*
X105191131Y-159437414D02*
X105191131Y-159361223D01*
X105191131Y-159361223D02*
X105229226Y-159285033D01*
X105229226Y-159285033D02*
X105267321Y-159246938D01*
X105267321Y-159246938D02*
X105343512Y-159208842D01*
X105343512Y-159208842D02*
X105495893Y-159170747D01*
X105495893Y-159170747D02*
X105572083Y-159132652D01*
X105572083Y-159132652D02*
X105610178Y-159094557D01*
X105610178Y-159094557D02*
X105648274Y-159018366D01*
X105648274Y-159018366D02*
X105648274Y-158942176D01*
X105648274Y-158942176D02*
X105610178Y-158865985D01*
X105610178Y-158865985D02*
X105572083Y-158827890D01*
X105572083Y-158827890D02*
X105495893Y-158789795D01*
X105495893Y-158789795D02*
X105305416Y-158789795D01*
X105305416Y-158789795D02*
X105191131Y-158827890D01*
X104924464Y-158789795D02*
X104733988Y-159589795D01*
X104733988Y-159589795D02*
X104581607Y-159018366D01*
X104581607Y-159018366D02*
X104429226Y-159589795D01*
X104429226Y-159589795D02*
X104238750Y-158789795D01*
X103476844Y-159513604D02*
X103514940Y-159551700D01*
X103514940Y-159551700D02*
X103629225Y-159589795D01*
X103629225Y-159589795D02*
X103705416Y-159589795D01*
X103705416Y-159589795D02*
X103819702Y-159551700D01*
X103819702Y-159551700D02*
X103895892Y-159475509D01*
X103895892Y-159475509D02*
X103933987Y-159399319D01*
X103933987Y-159399319D02*
X103972083Y-159246938D01*
X103972083Y-159246938D02*
X103972083Y-159132652D01*
X103972083Y-159132652D02*
X103933987Y-158980271D01*
X103933987Y-158980271D02*
X103895892Y-158904080D01*
X103895892Y-158904080D02*
X103819702Y-158827890D01*
X103819702Y-158827890D02*
X103705416Y-158789795D01*
X103705416Y-158789795D02*
X103629225Y-158789795D01*
X103629225Y-158789795D02*
X103514940Y-158827890D01*
X103514940Y-158827890D02*
X103476844Y-158865985D01*
X102753035Y-159589795D02*
X103133987Y-159589795D01*
X103133987Y-159589795D02*
X103133987Y-158789795D01*
X102486368Y-159589795D02*
X102486368Y-158789795D01*
X102029225Y-159589795D02*
X102372083Y-159132652D01*
X102029225Y-158789795D02*
X102486368Y-159246938D01*
X97159140Y-161425118D02*
X97121045Y-161348928D01*
X97121045Y-161348928D02*
X97121045Y-161234642D01*
X97121045Y-161234642D02*
X97159140Y-161120356D01*
X97159140Y-161120356D02*
X97235330Y-161044166D01*
X97235330Y-161044166D02*
X97311521Y-161006071D01*
X97311521Y-161006071D02*
X97463902Y-160967975D01*
X97463902Y-160967975D02*
X97578188Y-160967975D01*
X97578188Y-160967975D02*
X97730569Y-161006071D01*
X97730569Y-161006071D02*
X97806759Y-161044166D01*
X97806759Y-161044166D02*
X97882950Y-161120356D01*
X97882950Y-161120356D02*
X97921045Y-161234642D01*
X97921045Y-161234642D02*
X97921045Y-161310833D01*
X97921045Y-161310833D02*
X97882950Y-161425118D01*
X97882950Y-161425118D02*
X97844854Y-161463214D01*
X97844854Y-161463214D02*
X97578188Y-161463214D01*
X97578188Y-161463214D02*
X97578188Y-161310833D01*
X97921045Y-161806071D02*
X97121045Y-161806071D01*
X97121045Y-161806071D02*
X97121045Y-162110833D01*
X97121045Y-162110833D02*
X97159140Y-162187023D01*
X97159140Y-162187023D02*
X97197235Y-162225118D01*
X97197235Y-162225118D02*
X97273426Y-162263214D01*
X97273426Y-162263214D02*
X97387711Y-162263214D01*
X97387711Y-162263214D02*
X97463902Y-162225118D01*
X97463902Y-162225118D02*
X97501997Y-162187023D01*
X97501997Y-162187023D02*
X97540092Y-162110833D01*
X97540092Y-162110833D02*
X97540092Y-161806071D01*
X97921045Y-163025118D02*
X97921045Y-162567975D01*
X97921045Y-162796547D02*
X97121045Y-162796547D01*
X97121045Y-162796547D02*
X97235330Y-162720356D01*
X97235330Y-162720356D02*
X97311521Y-162644166D01*
X97311521Y-162644166D02*
X97349616Y-162567975D01*
X97197235Y-163329880D02*
X97159140Y-163367976D01*
X97159140Y-163367976D02*
X97121045Y-163444166D01*
X97121045Y-163444166D02*
X97121045Y-163634642D01*
X97121045Y-163634642D02*
X97159140Y-163710833D01*
X97159140Y-163710833D02*
X97197235Y-163748928D01*
X97197235Y-163748928D02*
X97273426Y-163787023D01*
X97273426Y-163787023D02*
X97349616Y-163787023D01*
X97349616Y-163787023D02*
X97463902Y-163748928D01*
X97463902Y-163748928D02*
X97921045Y-163291785D01*
X97921045Y-163291785D02*
X97921045Y-163787023D01*
X99699140Y-150195118D02*
X99661045Y-150118928D01*
X99661045Y-150118928D02*
X99661045Y-150004642D01*
X99661045Y-150004642D02*
X99699140Y-149890356D01*
X99699140Y-149890356D02*
X99775330Y-149814166D01*
X99775330Y-149814166D02*
X99851521Y-149776071D01*
X99851521Y-149776071D02*
X100003902Y-149737975D01*
X100003902Y-149737975D02*
X100118188Y-149737975D01*
X100118188Y-149737975D02*
X100270569Y-149776071D01*
X100270569Y-149776071D02*
X100346759Y-149814166D01*
X100346759Y-149814166D02*
X100422950Y-149890356D01*
X100422950Y-149890356D02*
X100461045Y-150004642D01*
X100461045Y-150004642D02*
X100461045Y-150080833D01*
X100461045Y-150080833D02*
X100422950Y-150195118D01*
X100422950Y-150195118D02*
X100384854Y-150233214D01*
X100384854Y-150233214D02*
X100118188Y-150233214D01*
X100118188Y-150233214D02*
X100118188Y-150080833D01*
X100461045Y-150576071D02*
X99661045Y-150576071D01*
X99661045Y-150576071D02*
X99661045Y-150880833D01*
X99661045Y-150880833D02*
X99699140Y-150957023D01*
X99699140Y-150957023D02*
X99737235Y-150995118D01*
X99737235Y-150995118D02*
X99813426Y-151033214D01*
X99813426Y-151033214D02*
X99927711Y-151033214D01*
X99927711Y-151033214D02*
X100003902Y-150995118D01*
X100003902Y-150995118D02*
X100041997Y-150957023D01*
X100041997Y-150957023D02*
X100080092Y-150880833D01*
X100080092Y-150880833D02*
X100080092Y-150576071D01*
X100461045Y-151795118D02*
X100461045Y-151337975D01*
X100461045Y-151566547D02*
X99661045Y-151566547D01*
X99661045Y-151566547D02*
X99775330Y-151490356D01*
X99775330Y-151490356D02*
X99851521Y-151414166D01*
X99851521Y-151414166D02*
X99889616Y-151337975D01*
X100003902Y-152252261D02*
X99965807Y-152176071D01*
X99965807Y-152176071D02*
X99927711Y-152137976D01*
X99927711Y-152137976D02*
X99851521Y-152099880D01*
X99851521Y-152099880D02*
X99813426Y-152099880D01*
X99813426Y-152099880D02*
X99737235Y-152137976D01*
X99737235Y-152137976D02*
X99699140Y-152176071D01*
X99699140Y-152176071D02*
X99661045Y-152252261D01*
X99661045Y-152252261D02*
X99661045Y-152404642D01*
X99661045Y-152404642D02*
X99699140Y-152480833D01*
X99699140Y-152480833D02*
X99737235Y-152518928D01*
X99737235Y-152518928D02*
X99813426Y-152557023D01*
X99813426Y-152557023D02*
X99851521Y-152557023D01*
X99851521Y-152557023D02*
X99927711Y-152518928D01*
X99927711Y-152518928D02*
X99965807Y-152480833D01*
X99965807Y-152480833D02*
X100003902Y-152404642D01*
X100003902Y-152404642D02*
X100003902Y-152252261D01*
X100003902Y-152252261D02*
X100041997Y-152176071D01*
X100041997Y-152176071D02*
X100080092Y-152137976D01*
X100080092Y-152137976D02*
X100156283Y-152099880D01*
X100156283Y-152099880D02*
X100308664Y-152099880D01*
X100308664Y-152099880D02*
X100384854Y-152137976D01*
X100384854Y-152137976D02*
X100422950Y-152176071D01*
X100422950Y-152176071D02*
X100461045Y-152252261D01*
X100461045Y-152252261D02*
X100461045Y-152404642D01*
X100461045Y-152404642D02*
X100422950Y-152480833D01*
X100422950Y-152480833D02*
X100384854Y-152518928D01*
X100384854Y-152518928D02*
X100308664Y-152557023D01*
X100308664Y-152557023D02*
X100156283Y-152557023D01*
X100156283Y-152557023D02*
X100080092Y-152518928D01*
X100080092Y-152518928D02*
X100041997Y-152480833D01*
X100041997Y-152480833D02*
X100003902Y-152404642D01*
X74299140Y-150195118D02*
X74261045Y-150118928D01*
X74261045Y-150118928D02*
X74261045Y-150004642D01*
X74261045Y-150004642D02*
X74299140Y-149890356D01*
X74299140Y-149890356D02*
X74375330Y-149814166D01*
X74375330Y-149814166D02*
X74451521Y-149776071D01*
X74451521Y-149776071D02*
X74603902Y-149737975D01*
X74603902Y-149737975D02*
X74718188Y-149737975D01*
X74718188Y-149737975D02*
X74870569Y-149776071D01*
X74870569Y-149776071D02*
X74946759Y-149814166D01*
X74946759Y-149814166D02*
X75022950Y-149890356D01*
X75022950Y-149890356D02*
X75061045Y-150004642D01*
X75061045Y-150004642D02*
X75061045Y-150080833D01*
X75061045Y-150080833D02*
X75022950Y-150195118D01*
X75022950Y-150195118D02*
X74984854Y-150233214D01*
X74984854Y-150233214D02*
X74718188Y-150233214D01*
X74718188Y-150233214D02*
X74718188Y-150080833D01*
X75061045Y-150576071D02*
X74261045Y-150576071D01*
X74261045Y-150576071D02*
X74261045Y-150880833D01*
X74261045Y-150880833D02*
X74299140Y-150957023D01*
X74299140Y-150957023D02*
X74337235Y-150995118D01*
X74337235Y-150995118D02*
X74413426Y-151033214D01*
X74413426Y-151033214D02*
X74527711Y-151033214D01*
X74527711Y-151033214D02*
X74603902Y-150995118D01*
X74603902Y-150995118D02*
X74641997Y-150957023D01*
X74641997Y-150957023D02*
X74680092Y-150880833D01*
X74680092Y-150880833D02*
X74680092Y-150576071D01*
X74337235Y-151337975D02*
X74299140Y-151376071D01*
X74299140Y-151376071D02*
X74261045Y-151452261D01*
X74261045Y-151452261D02*
X74261045Y-151642737D01*
X74261045Y-151642737D02*
X74299140Y-151718928D01*
X74299140Y-151718928D02*
X74337235Y-151757023D01*
X74337235Y-151757023D02*
X74413426Y-151795118D01*
X74413426Y-151795118D02*
X74489616Y-151795118D01*
X74489616Y-151795118D02*
X74603902Y-151757023D01*
X74603902Y-151757023D02*
X75061045Y-151299880D01*
X75061045Y-151299880D02*
X75061045Y-151795118D01*
X74603902Y-152252261D02*
X74565807Y-152176071D01*
X74565807Y-152176071D02*
X74527711Y-152137976D01*
X74527711Y-152137976D02*
X74451521Y-152099880D01*
X74451521Y-152099880D02*
X74413426Y-152099880D01*
X74413426Y-152099880D02*
X74337235Y-152137976D01*
X74337235Y-152137976D02*
X74299140Y-152176071D01*
X74299140Y-152176071D02*
X74261045Y-152252261D01*
X74261045Y-152252261D02*
X74261045Y-152404642D01*
X74261045Y-152404642D02*
X74299140Y-152480833D01*
X74299140Y-152480833D02*
X74337235Y-152518928D01*
X74337235Y-152518928D02*
X74413426Y-152557023D01*
X74413426Y-152557023D02*
X74451521Y-152557023D01*
X74451521Y-152557023D02*
X74527711Y-152518928D01*
X74527711Y-152518928D02*
X74565807Y-152480833D01*
X74565807Y-152480833D02*
X74603902Y-152404642D01*
X74603902Y-152404642D02*
X74603902Y-152252261D01*
X74603902Y-152252261D02*
X74641997Y-152176071D01*
X74641997Y-152176071D02*
X74680092Y-152137976D01*
X74680092Y-152137976D02*
X74756283Y-152099880D01*
X74756283Y-152099880D02*
X74908664Y-152099880D01*
X74908664Y-152099880D02*
X74984854Y-152137976D01*
X74984854Y-152137976D02*
X75022950Y-152176071D01*
X75022950Y-152176071D02*
X75061045Y-152252261D01*
X75061045Y-152252261D02*
X75061045Y-152404642D01*
X75061045Y-152404642D02*
X75022950Y-152480833D01*
X75022950Y-152480833D02*
X74984854Y-152518928D01*
X74984854Y-152518928D02*
X74908664Y-152557023D01*
X74908664Y-152557023D02*
X74756283Y-152557023D01*
X74756283Y-152557023D02*
X74680092Y-152518928D01*
X74680092Y-152518928D02*
X74641997Y-152480833D01*
X74641997Y-152480833D02*
X74603902Y-152404642D01*
X97159140Y-150195118D02*
X97121045Y-150118928D01*
X97121045Y-150118928D02*
X97121045Y-150004642D01*
X97121045Y-150004642D02*
X97159140Y-149890356D01*
X97159140Y-149890356D02*
X97235330Y-149814166D01*
X97235330Y-149814166D02*
X97311521Y-149776071D01*
X97311521Y-149776071D02*
X97463902Y-149737975D01*
X97463902Y-149737975D02*
X97578188Y-149737975D01*
X97578188Y-149737975D02*
X97730569Y-149776071D01*
X97730569Y-149776071D02*
X97806759Y-149814166D01*
X97806759Y-149814166D02*
X97882950Y-149890356D01*
X97882950Y-149890356D02*
X97921045Y-150004642D01*
X97921045Y-150004642D02*
X97921045Y-150080833D01*
X97921045Y-150080833D02*
X97882950Y-150195118D01*
X97882950Y-150195118D02*
X97844854Y-150233214D01*
X97844854Y-150233214D02*
X97578188Y-150233214D01*
X97578188Y-150233214D02*
X97578188Y-150080833D01*
X97921045Y-150576071D02*
X97121045Y-150576071D01*
X97121045Y-150576071D02*
X97121045Y-150880833D01*
X97121045Y-150880833D02*
X97159140Y-150957023D01*
X97159140Y-150957023D02*
X97197235Y-150995118D01*
X97197235Y-150995118D02*
X97273426Y-151033214D01*
X97273426Y-151033214D02*
X97387711Y-151033214D01*
X97387711Y-151033214D02*
X97463902Y-150995118D01*
X97463902Y-150995118D02*
X97501997Y-150957023D01*
X97501997Y-150957023D02*
X97540092Y-150880833D01*
X97540092Y-150880833D02*
X97540092Y-150576071D01*
X97921045Y-151795118D02*
X97921045Y-151337975D01*
X97921045Y-151566547D02*
X97121045Y-151566547D01*
X97121045Y-151566547D02*
X97235330Y-151490356D01*
X97235330Y-151490356D02*
X97311521Y-151414166D01*
X97311521Y-151414166D02*
X97349616Y-151337975D01*
X97921045Y-152176071D02*
X97921045Y-152328452D01*
X97921045Y-152328452D02*
X97882950Y-152404642D01*
X97882950Y-152404642D02*
X97844854Y-152442738D01*
X97844854Y-152442738D02*
X97730569Y-152518928D01*
X97730569Y-152518928D02*
X97578188Y-152557023D01*
X97578188Y-152557023D02*
X97273426Y-152557023D01*
X97273426Y-152557023D02*
X97197235Y-152518928D01*
X97197235Y-152518928D02*
X97159140Y-152480833D01*
X97159140Y-152480833D02*
X97121045Y-152404642D01*
X97121045Y-152404642D02*
X97121045Y-152252261D01*
X97121045Y-152252261D02*
X97159140Y-152176071D01*
X97159140Y-152176071D02*
X97197235Y-152137976D01*
X97197235Y-152137976D02*
X97273426Y-152099880D01*
X97273426Y-152099880D02*
X97463902Y-152099880D01*
X97463902Y-152099880D02*
X97540092Y-152137976D01*
X97540092Y-152137976D02*
X97578188Y-152176071D01*
X97578188Y-152176071D02*
X97616283Y-152252261D01*
X97616283Y-152252261D02*
X97616283Y-152404642D01*
X97616283Y-152404642D02*
X97578188Y-152480833D01*
X97578188Y-152480833D02*
X97540092Y-152518928D01*
X97540092Y-152518928D02*
X97463902Y-152557023D01*
X94619140Y-150195118D02*
X94581045Y-150118928D01*
X94581045Y-150118928D02*
X94581045Y-150004642D01*
X94581045Y-150004642D02*
X94619140Y-149890356D01*
X94619140Y-149890356D02*
X94695330Y-149814166D01*
X94695330Y-149814166D02*
X94771521Y-149776071D01*
X94771521Y-149776071D02*
X94923902Y-149737975D01*
X94923902Y-149737975D02*
X95038188Y-149737975D01*
X95038188Y-149737975D02*
X95190569Y-149776071D01*
X95190569Y-149776071D02*
X95266759Y-149814166D01*
X95266759Y-149814166D02*
X95342950Y-149890356D01*
X95342950Y-149890356D02*
X95381045Y-150004642D01*
X95381045Y-150004642D02*
X95381045Y-150080833D01*
X95381045Y-150080833D02*
X95342950Y-150195118D01*
X95342950Y-150195118D02*
X95304854Y-150233214D01*
X95304854Y-150233214D02*
X95038188Y-150233214D01*
X95038188Y-150233214D02*
X95038188Y-150080833D01*
X95381045Y-150576071D02*
X94581045Y-150576071D01*
X94581045Y-150576071D02*
X94581045Y-150880833D01*
X94581045Y-150880833D02*
X94619140Y-150957023D01*
X94619140Y-150957023D02*
X94657235Y-150995118D01*
X94657235Y-150995118D02*
X94733426Y-151033214D01*
X94733426Y-151033214D02*
X94847711Y-151033214D01*
X94847711Y-151033214D02*
X94923902Y-150995118D01*
X94923902Y-150995118D02*
X94961997Y-150957023D01*
X94961997Y-150957023D02*
X95000092Y-150880833D01*
X95000092Y-150880833D02*
X95000092Y-150576071D01*
X94657235Y-151337975D02*
X94619140Y-151376071D01*
X94619140Y-151376071D02*
X94581045Y-151452261D01*
X94581045Y-151452261D02*
X94581045Y-151642737D01*
X94581045Y-151642737D02*
X94619140Y-151718928D01*
X94619140Y-151718928D02*
X94657235Y-151757023D01*
X94657235Y-151757023D02*
X94733426Y-151795118D01*
X94733426Y-151795118D02*
X94809616Y-151795118D01*
X94809616Y-151795118D02*
X94923902Y-151757023D01*
X94923902Y-151757023D02*
X95381045Y-151299880D01*
X95381045Y-151299880D02*
X95381045Y-151795118D01*
X94581045Y-152290357D02*
X94581045Y-152366547D01*
X94581045Y-152366547D02*
X94619140Y-152442738D01*
X94619140Y-152442738D02*
X94657235Y-152480833D01*
X94657235Y-152480833D02*
X94733426Y-152518928D01*
X94733426Y-152518928D02*
X94885807Y-152557023D01*
X94885807Y-152557023D02*
X95076283Y-152557023D01*
X95076283Y-152557023D02*
X95228664Y-152518928D01*
X95228664Y-152518928D02*
X95304854Y-152480833D01*
X95304854Y-152480833D02*
X95342950Y-152442738D01*
X95342950Y-152442738D02*
X95381045Y-152366547D01*
X95381045Y-152366547D02*
X95381045Y-152290357D01*
X95381045Y-152290357D02*
X95342950Y-152214166D01*
X95342950Y-152214166D02*
X95304854Y-152176071D01*
X95304854Y-152176071D02*
X95228664Y-152137976D01*
X95228664Y-152137976D02*
X95076283Y-152099880D01*
X95076283Y-152099880D02*
X94885807Y-152099880D01*
X94885807Y-152099880D02*
X94733426Y-152137976D01*
X94733426Y-152137976D02*
X94657235Y-152176071D01*
X94657235Y-152176071D02*
X94619140Y-152214166D01*
X94619140Y-152214166D02*
X94581045Y-152290357D01*
X81889140Y-162156071D02*
X81851045Y-162079881D01*
X81851045Y-162079881D02*
X81851045Y-161965595D01*
X81851045Y-161965595D02*
X81889140Y-161851309D01*
X81889140Y-161851309D02*
X81965330Y-161775119D01*
X81965330Y-161775119D02*
X82041521Y-161737024D01*
X82041521Y-161737024D02*
X82193902Y-161698928D01*
X82193902Y-161698928D02*
X82308188Y-161698928D01*
X82308188Y-161698928D02*
X82460569Y-161737024D01*
X82460569Y-161737024D02*
X82536759Y-161775119D01*
X82536759Y-161775119D02*
X82612950Y-161851309D01*
X82612950Y-161851309D02*
X82651045Y-161965595D01*
X82651045Y-161965595D02*
X82651045Y-162041786D01*
X82651045Y-162041786D02*
X82612950Y-162156071D01*
X82612950Y-162156071D02*
X82574854Y-162194167D01*
X82574854Y-162194167D02*
X82308188Y-162194167D01*
X82308188Y-162194167D02*
X82308188Y-162041786D01*
X82651045Y-162537024D02*
X81851045Y-162537024D01*
X81851045Y-162537024D02*
X81851045Y-162841786D01*
X81851045Y-162841786D02*
X81889140Y-162917976D01*
X81889140Y-162917976D02*
X81927235Y-162956071D01*
X81927235Y-162956071D02*
X82003426Y-162994167D01*
X82003426Y-162994167D02*
X82117711Y-162994167D01*
X82117711Y-162994167D02*
X82193902Y-162956071D01*
X82193902Y-162956071D02*
X82231997Y-162917976D01*
X82231997Y-162917976D02*
X82270092Y-162841786D01*
X82270092Y-162841786D02*
X82270092Y-162537024D01*
X81851045Y-163260833D02*
X81851045Y-163794167D01*
X81851045Y-163794167D02*
X82651045Y-163451309D01*
X86999140Y-162156071D02*
X86961045Y-162079881D01*
X86961045Y-162079881D02*
X86961045Y-161965595D01*
X86961045Y-161965595D02*
X86999140Y-161851309D01*
X86999140Y-161851309D02*
X87075330Y-161775119D01*
X87075330Y-161775119D02*
X87151521Y-161737024D01*
X87151521Y-161737024D02*
X87303902Y-161698928D01*
X87303902Y-161698928D02*
X87418188Y-161698928D01*
X87418188Y-161698928D02*
X87570569Y-161737024D01*
X87570569Y-161737024D02*
X87646759Y-161775119D01*
X87646759Y-161775119D02*
X87722950Y-161851309D01*
X87722950Y-161851309D02*
X87761045Y-161965595D01*
X87761045Y-161965595D02*
X87761045Y-162041786D01*
X87761045Y-162041786D02*
X87722950Y-162156071D01*
X87722950Y-162156071D02*
X87684854Y-162194167D01*
X87684854Y-162194167D02*
X87418188Y-162194167D01*
X87418188Y-162194167D02*
X87418188Y-162041786D01*
X87761045Y-162537024D02*
X86961045Y-162537024D01*
X86961045Y-162537024D02*
X86961045Y-162841786D01*
X86961045Y-162841786D02*
X86999140Y-162917976D01*
X86999140Y-162917976D02*
X87037235Y-162956071D01*
X87037235Y-162956071D02*
X87113426Y-162994167D01*
X87113426Y-162994167D02*
X87227711Y-162994167D01*
X87227711Y-162994167D02*
X87303902Y-162956071D01*
X87303902Y-162956071D02*
X87341997Y-162917976D01*
X87341997Y-162917976D02*
X87380092Y-162841786D01*
X87380092Y-162841786D02*
X87380092Y-162537024D01*
X87761045Y-163375119D02*
X87761045Y-163527500D01*
X87761045Y-163527500D02*
X87722950Y-163603690D01*
X87722950Y-163603690D02*
X87684854Y-163641786D01*
X87684854Y-163641786D02*
X87570569Y-163717976D01*
X87570569Y-163717976D02*
X87418188Y-163756071D01*
X87418188Y-163756071D02*
X87113426Y-163756071D01*
X87113426Y-163756071D02*
X87037235Y-163717976D01*
X87037235Y-163717976D02*
X86999140Y-163679881D01*
X86999140Y-163679881D02*
X86961045Y-163603690D01*
X86961045Y-163603690D02*
X86961045Y-163451309D01*
X86961045Y-163451309D02*
X86999140Y-163375119D01*
X86999140Y-163375119D02*
X87037235Y-163337024D01*
X87037235Y-163337024D02*
X87113426Y-163298928D01*
X87113426Y-163298928D02*
X87303902Y-163298928D01*
X87303902Y-163298928D02*
X87380092Y-163337024D01*
X87380092Y-163337024D02*
X87418188Y-163375119D01*
X87418188Y-163375119D02*
X87456283Y-163451309D01*
X87456283Y-163451309D02*
X87456283Y-163603690D01*
X87456283Y-163603690D02*
X87418188Y-163679881D01*
X87418188Y-163679881D02*
X87380092Y-163717976D01*
X87380092Y-163717976D02*
X87303902Y-163756071D01*
X74299140Y-162156071D02*
X74261045Y-162079881D01*
X74261045Y-162079881D02*
X74261045Y-161965595D01*
X74261045Y-161965595D02*
X74299140Y-161851309D01*
X74299140Y-161851309D02*
X74375330Y-161775119D01*
X74375330Y-161775119D02*
X74451521Y-161737024D01*
X74451521Y-161737024D02*
X74603902Y-161698928D01*
X74603902Y-161698928D02*
X74718188Y-161698928D01*
X74718188Y-161698928D02*
X74870569Y-161737024D01*
X74870569Y-161737024D02*
X74946759Y-161775119D01*
X74946759Y-161775119D02*
X75022950Y-161851309D01*
X75022950Y-161851309D02*
X75061045Y-161965595D01*
X75061045Y-161965595D02*
X75061045Y-162041786D01*
X75061045Y-162041786D02*
X75022950Y-162156071D01*
X75022950Y-162156071D02*
X74984854Y-162194167D01*
X74984854Y-162194167D02*
X74718188Y-162194167D01*
X74718188Y-162194167D02*
X74718188Y-162041786D01*
X75061045Y-162537024D02*
X74261045Y-162537024D01*
X74261045Y-162537024D02*
X74261045Y-162841786D01*
X74261045Y-162841786D02*
X74299140Y-162917976D01*
X74299140Y-162917976D02*
X74337235Y-162956071D01*
X74337235Y-162956071D02*
X74413426Y-162994167D01*
X74413426Y-162994167D02*
X74527711Y-162994167D01*
X74527711Y-162994167D02*
X74603902Y-162956071D01*
X74603902Y-162956071D02*
X74641997Y-162917976D01*
X74641997Y-162917976D02*
X74680092Y-162841786D01*
X74680092Y-162841786D02*
X74680092Y-162537024D01*
X74261045Y-163717976D02*
X74261045Y-163337024D01*
X74261045Y-163337024D02*
X74641997Y-163298928D01*
X74641997Y-163298928D02*
X74603902Y-163337024D01*
X74603902Y-163337024D02*
X74565807Y-163413214D01*
X74565807Y-163413214D02*
X74565807Y-163603690D01*
X74565807Y-163603690D02*
X74603902Y-163679881D01*
X74603902Y-163679881D02*
X74641997Y-163717976D01*
X74641997Y-163717976D02*
X74718188Y-163756071D01*
X74718188Y-163756071D02*
X74908664Y-163756071D01*
X74908664Y-163756071D02*
X74984854Y-163717976D01*
X74984854Y-163717976D02*
X75022950Y-163679881D01*
X75022950Y-163679881D02*
X75061045Y-163603690D01*
X75061045Y-163603690D02*
X75061045Y-163413214D01*
X75061045Y-163413214D02*
X75022950Y-163337024D01*
X75022950Y-163337024D02*
X74984854Y-163298928D01*
X69181045Y-149657023D02*
X69181045Y-150152261D01*
X69181045Y-150152261D02*
X69485807Y-149885595D01*
X69485807Y-149885595D02*
X69485807Y-149999880D01*
X69485807Y-149999880D02*
X69523902Y-150076071D01*
X69523902Y-150076071D02*
X69561997Y-150114166D01*
X69561997Y-150114166D02*
X69638188Y-150152261D01*
X69638188Y-150152261D02*
X69828664Y-150152261D01*
X69828664Y-150152261D02*
X69904854Y-150114166D01*
X69904854Y-150114166D02*
X69942950Y-150076071D01*
X69942950Y-150076071D02*
X69981045Y-149999880D01*
X69981045Y-149999880D02*
X69981045Y-149771309D01*
X69981045Y-149771309D02*
X69942950Y-149695118D01*
X69942950Y-149695118D02*
X69904854Y-149657023D01*
X69181045Y-150380833D02*
X69981045Y-150647500D01*
X69981045Y-150647500D02*
X69181045Y-150914166D01*
X69181045Y-151104642D02*
X69181045Y-151599880D01*
X69181045Y-151599880D02*
X69485807Y-151333214D01*
X69485807Y-151333214D02*
X69485807Y-151447499D01*
X69485807Y-151447499D02*
X69523902Y-151523690D01*
X69523902Y-151523690D02*
X69561997Y-151561785D01*
X69561997Y-151561785D02*
X69638188Y-151599880D01*
X69638188Y-151599880D02*
X69828664Y-151599880D01*
X69828664Y-151599880D02*
X69904854Y-151561785D01*
X69904854Y-151561785D02*
X69942950Y-151523690D01*
X69942950Y-151523690D02*
X69981045Y-151447499D01*
X69981045Y-151447499D02*
X69981045Y-151218928D01*
X69981045Y-151218928D02*
X69942950Y-151142737D01*
X69942950Y-151142737D02*
X69904854Y-151104642D01*
X66679140Y-162156071D02*
X66641045Y-162079881D01*
X66641045Y-162079881D02*
X66641045Y-161965595D01*
X66641045Y-161965595D02*
X66679140Y-161851309D01*
X66679140Y-161851309D02*
X66755330Y-161775119D01*
X66755330Y-161775119D02*
X66831521Y-161737024D01*
X66831521Y-161737024D02*
X66983902Y-161698928D01*
X66983902Y-161698928D02*
X67098188Y-161698928D01*
X67098188Y-161698928D02*
X67250569Y-161737024D01*
X67250569Y-161737024D02*
X67326759Y-161775119D01*
X67326759Y-161775119D02*
X67402950Y-161851309D01*
X67402950Y-161851309D02*
X67441045Y-161965595D01*
X67441045Y-161965595D02*
X67441045Y-162041786D01*
X67441045Y-162041786D02*
X67402950Y-162156071D01*
X67402950Y-162156071D02*
X67364854Y-162194167D01*
X67364854Y-162194167D02*
X67098188Y-162194167D01*
X67098188Y-162194167D02*
X67098188Y-162041786D01*
X67441045Y-162537024D02*
X66641045Y-162537024D01*
X66641045Y-162537024D02*
X66641045Y-162841786D01*
X66641045Y-162841786D02*
X66679140Y-162917976D01*
X66679140Y-162917976D02*
X66717235Y-162956071D01*
X66717235Y-162956071D02*
X66793426Y-162994167D01*
X66793426Y-162994167D02*
X66907711Y-162994167D01*
X66907711Y-162994167D02*
X66983902Y-162956071D01*
X66983902Y-162956071D02*
X67021997Y-162917976D01*
X67021997Y-162917976D02*
X67060092Y-162841786D01*
X67060092Y-162841786D02*
X67060092Y-162537024D01*
X66717235Y-163298928D02*
X66679140Y-163337024D01*
X66679140Y-163337024D02*
X66641045Y-163413214D01*
X66641045Y-163413214D02*
X66641045Y-163603690D01*
X66641045Y-163603690D02*
X66679140Y-163679881D01*
X66679140Y-163679881D02*
X66717235Y-163717976D01*
X66717235Y-163717976D02*
X66793426Y-163756071D01*
X66793426Y-163756071D02*
X66869616Y-163756071D01*
X66869616Y-163756071D02*
X66983902Y-163717976D01*
X66983902Y-163717976D02*
X67441045Y-163260833D01*
X67441045Y-163260833D02*
X67441045Y-163756071D01*
X105533988Y-154471700D02*
X105419702Y-154509795D01*
X105419702Y-154509795D02*
X105229226Y-154509795D01*
X105229226Y-154509795D02*
X105153035Y-154471700D01*
X105153035Y-154471700D02*
X105114940Y-154433604D01*
X105114940Y-154433604D02*
X105076845Y-154357414D01*
X105076845Y-154357414D02*
X105076845Y-154281223D01*
X105076845Y-154281223D02*
X105114940Y-154205033D01*
X105114940Y-154205033D02*
X105153035Y-154166938D01*
X105153035Y-154166938D02*
X105229226Y-154128842D01*
X105229226Y-154128842D02*
X105381607Y-154090747D01*
X105381607Y-154090747D02*
X105457797Y-154052652D01*
X105457797Y-154052652D02*
X105495892Y-154014557D01*
X105495892Y-154014557D02*
X105533988Y-153938366D01*
X105533988Y-153938366D02*
X105533988Y-153862176D01*
X105533988Y-153862176D02*
X105495892Y-153785985D01*
X105495892Y-153785985D02*
X105457797Y-153747890D01*
X105457797Y-153747890D02*
X105381607Y-153709795D01*
X105381607Y-153709795D02*
X105191130Y-153709795D01*
X105191130Y-153709795D02*
X105076845Y-153747890D01*
X104810178Y-153709795D02*
X104619702Y-154509795D01*
X104619702Y-154509795D02*
X104467321Y-153938366D01*
X104467321Y-153938366D02*
X104314940Y-154509795D01*
X104314940Y-154509795D02*
X104124464Y-153709795D01*
X103819701Y-154509795D02*
X103819701Y-153709795D01*
X103819701Y-153709795D02*
X103629225Y-153709795D01*
X103629225Y-153709795D02*
X103514939Y-153747890D01*
X103514939Y-153747890D02*
X103438749Y-153824080D01*
X103438749Y-153824080D02*
X103400654Y-153900271D01*
X103400654Y-153900271D02*
X103362558Y-154052652D01*
X103362558Y-154052652D02*
X103362558Y-154166938D01*
X103362558Y-154166938D02*
X103400654Y-154319319D01*
X103400654Y-154319319D02*
X103438749Y-154395509D01*
X103438749Y-154395509D02*
X103514939Y-154471700D01*
X103514939Y-154471700D02*
X103629225Y-154509795D01*
X103629225Y-154509795D02*
X103819701Y-154509795D01*
X103019701Y-154509795D02*
X103019701Y-153709795D01*
X102486368Y-153709795D02*
X102333987Y-153709795D01*
X102333987Y-153709795D02*
X102257797Y-153747890D01*
X102257797Y-153747890D02*
X102181606Y-153824080D01*
X102181606Y-153824080D02*
X102143511Y-153976461D01*
X102143511Y-153976461D02*
X102143511Y-154243128D01*
X102143511Y-154243128D02*
X102181606Y-154395509D01*
X102181606Y-154395509D02*
X102257797Y-154471700D01*
X102257797Y-154471700D02*
X102333987Y-154509795D01*
X102333987Y-154509795D02*
X102486368Y-154509795D01*
X102486368Y-154509795D02*
X102562559Y-154471700D01*
X102562559Y-154471700D02*
X102638749Y-154395509D01*
X102638749Y-154395509D02*
X102676845Y-154243128D01*
X102676845Y-154243128D02*
X102676845Y-153976461D01*
X102676845Y-153976461D02*
X102638749Y-153824080D01*
X102638749Y-153824080D02*
X102562559Y-153747890D01*
X102562559Y-153747890D02*
X102486368Y-153709795D01*
X94619140Y-161425118D02*
X94581045Y-161348928D01*
X94581045Y-161348928D02*
X94581045Y-161234642D01*
X94581045Y-161234642D02*
X94619140Y-161120356D01*
X94619140Y-161120356D02*
X94695330Y-161044166D01*
X94695330Y-161044166D02*
X94771521Y-161006071D01*
X94771521Y-161006071D02*
X94923902Y-160967975D01*
X94923902Y-160967975D02*
X95038188Y-160967975D01*
X95038188Y-160967975D02*
X95190569Y-161006071D01*
X95190569Y-161006071D02*
X95266759Y-161044166D01*
X95266759Y-161044166D02*
X95342950Y-161120356D01*
X95342950Y-161120356D02*
X95381045Y-161234642D01*
X95381045Y-161234642D02*
X95381045Y-161310833D01*
X95381045Y-161310833D02*
X95342950Y-161425118D01*
X95342950Y-161425118D02*
X95304854Y-161463214D01*
X95304854Y-161463214D02*
X95038188Y-161463214D01*
X95038188Y-161463214D02*
X95038188Y-161310833D01*
X95381045Y-161806071D02*
X94581045Y-161806071D01*
X94581045Y-161806071D02*
X94581045Y-162110833D01*
X94581045Y-162110833D02*
X94619140Y-162187023D01*
X94619140Y-162187023D02*
X94657235Y-162225118D01*
X94657235Y-162225118D02*
X94733426Y-162263214D01*
X94733426Y-162263214D02*
X94847711Y-162263214D01*
X94847711Y-162263214D02*
X94923902Y-162225118D01*
X94923902Y-162225118D02*
X94961997Y-162187023D01*
X94961997Y-162187023D02*
X95000092Y-162110833D01*
X95000092Y-162110833D02*
X95000092Y-161806071D01*
X95381045Y-163025118D02*
X95381045Y-162567975D01*
X95381045Y-162796547D02*
X94581045Y-162796547D01*
X94581045Y-162796547D02*
X94695330Y-162720356D01*
X94695330Y-162720356D02*
X94771521Y-162644166D01*
X94771521Y-162644166D02*
X94809616Y-162567975D01*
X95381045Y-163787023D02*
X95381045Y-163329880D01*
X95381045Y-163558452D02*
X94581045Y-163558452D01*
X94581045Y-163558452D02*
X94695330Y-163482261D01*
X94695330Y-163482261D02*
X94771521Y-163406071D01*
X94771521Y-163406071D02*
X94809616Y-163329880D01*
X72292473Y-149654642D02*
X72292473Y-150035595D01*
X72521045Y-149578452D02*
X71721045Y-149845119D01*
X71721045Y-149845119D02*
X72521045Y-150111785D01*
X72521045Y-150378452D02*
X71721045Y-150378452D01*
X71721045Y-150378452D02*
X71721045Y-150568928D01*
X71721045Y-150568928D02*
X71759140Y-150683214D01*
X71759140Y-150683214D02*
X71835330Y-150759404D01*
X71835330Y-150759404D02*
X71911521Y-150797499D01*
X71911521Y-150797499D02*
X72063902Y-150835595D01*
X72063902Y-150835595D02*
X72178188Y-150835595D01*
X72178188Y-150835595D02*
X72330569Y-150797499D01*
X72330569Y-150797499D02*
X72406759Y-150759404D01*
X72406759Y-150759404D02*
X72482950Y-150683214D01*
X72482950Y-150683214D02*
X72521045Y-150568928D01*
X72521045Y-150568928D02*
X72521045Y-150378452D01*
X72444854Y-151635595D02*
X72482950Y-151597499D01*
X72482950Y-151597499D02*
X72521045Y-151483214D01*
X72521045Y-151483214D02*
X72521045Y-151407023D01*
X72521045Y-151407023D02*
X72482950Y-151292737D01*
X72482950Y-151292737D02*
X72406759Y-151216547D01*
X72406759Y-151216547D02*
X72330569Y-151178452D01*
X72330569Y-151178452D02*
X72178188Y-151140356D01*
X72178188Y-151140356D02*
X72063902Y-151140356D01*
X72063902Y-151140356D02*
X71911521Y-151178452D01*
X71911521Y-151178452D02*
X71835330Y-151216547D01*
X71835330Y-151216547D02*
X71759140Y-151292737D01*
X71759140Y-151292737D02*
X71721045Y-151407023D01*
X71721045Y-151407023D02*
X71721045Y-151483214D01*
X71721045Y-151483214D02*
X71759140Y-151597499D01*
X71759140Y-151597499D02*
X71797235Y-151635595D01*
X72597235Y-151787976D02*
X72597235Y-152397499D01*
X71721045Y-152473690D02*
X72521045Y-152740357D01*
X72521045Y-152740357D02*
X71721045Y-153007023D01*
X72521045Y-153730833D02*
X72140092Y-153464166D01*
X72521045Y-153273690D02*
X71721045Y-153273690D01*
X71721045Y-153273690D02*
X71721045Y-153578452D01*
X71721045Y-153578452D02*
X71759140Y-153654642D01*
X71759140Y-153654642D02*
X71797235Y-153692737D01*
X71797235Y-153692737D02*
X71873426Y-153730833D01*
X71873426Y-153730833D02*
X71987711Y-153730833D01*
X71987711Y-153730833D02*
X72063902Y-153692737D01*
X72063902Y-153692737D02*
X72101997Y-153654642D01*
X72101997Y-153654642D02*
X72140092Y-153578452D01*
X72140092Y-153578452D02*
X72140092Y-153273690D01*
X72101997Y-154073690D02*
X72101997Y-154340356D01*
X72521045Y-154454642D02*
X72521045Y-154073690D01*
X72521045Y-154073690D02*
X71721045Y-154073690D01*
X71721045Y-154073690D02*
X71721045Y-154454642D01*
X72101997Y-155064166D02*
X72101997Y-154797500D01*
X72521045Y-154797500D02*
X71721045Y-154797500D01*
X71721045Y-154797500D02*
X71721045Y-155178452D01*
X104779140Y-161425118D02*
X104741045Y-161348928D01*
X104741045Y-161348928D02*
X104741045Y-161234642D01*
X104741045Y-161234642D02*
X104779140Y-161120356D01*
X104779140Y-161120356D02*
X104855330Y-161044166D01*
X104855330Y-161044166D02*
X104931521Y-161006071D01*
X104931521Y-161006071D02*
X105083902Y-160967975D01*
X105083902Y-160967975D02*
X105198188Y-160967975D01*
X105198188Y-160967975D02*
X105350569Y-161006071D01*
X105350569Y-161006071D02*
X105426759Y-161044166D01*
X105426759Y-161044166D02*
X105502950Y-161120356D01*
X105502950Y-161120356D02*
X105541045Y-161234642D01*
X105541045Y-161234642D02*
X105541045Y-161310833D01*
X105541045Y-161310833D02*
X105502950Y-161425118D01*
X105502950Y-161425118D02*
X105464854Y-161463214D01*
X105464854Y-161463214D02*
X105198188Y-161463214D01*
X105198188Y-161463214D02*
X105198188Y-161310833D01*
X105541045Y-161806071D02*
X104741045Y-161806071D01*
X104741045Y-161806071D02*
X104741045Y-162110833D01*
X104741045Y-162110833D02*
X104779140Y-162187023D01*
X104779140Y-162187023D02*
X104817235Y-162225118D01*
X104817235Y-162225118D02*
X104893426Y-162263214D01*
X104893426Y-162263214D02*
X105007711Y-162263214D01*
X105007711Y-162263214D02*
X105083902Y-162225118D01*
X105083902Y-162225118D02*
X105121997Y-162187023D01*
X105121997Y-162187023D02*
X105160092Y-162110833D01*
X105160092Y-162110833D02*
X105160092Y-161806071D01*
X105541045Y-163025118D02*
X105541045Y-162567975D01*
X105541045Y-162796547D02*
X104741045Y-162796547D01*
X104741045Y-162796547D02*
X104855330Y-162720356D01*
X104855330Y-162720356D02*
X104931521Y-162644166D01*
X104931521Y-162644166D02*
X104969616Y-162567975D01*
X105007711Y-163710833D02*
X105541045Y-163710833D01*
X104702950Y-163520357D02*
X105274378Y-163329880D01*
X105274378Y-163329880D02*
X105274378Y-163825119D01*
X59021045Y-149430833D02*
X59821045Y-149697500D01*
X59821045Y-149697500D02*
X59021045Y-149964166D01*
X59401997Y-150497499D02*
X59440092Y-150611785D01*
X59440092Y-150611785D02*
X59478188Y-150649880D01*
X59478188Y-150649880D02*
X59554378Y-150687976D01*
X59554378Y-150687976D02*
X59668664Y-150687976D01*
X59668664Y-150687976D02*
X59744854Y-150649880D01*
X59744854Y-150649880D02*
X59782950Y-150611785D01*
X59782950Y-150611785D02*
X59821045Y-150535595D01*
X59821045Y-150535595D02*
X59821045Y-150230833D01*
X59821045Y-150230833D02*
X59021045Y-150230833D01*
X59021045Y-150230833D02*
X59021045Y-150497499D01*
X59021045Y-150497499D02*
X59059140Y-150573690D01*
X59059140Y-150573690D02*
X59097235Y-150611785D01*
X59097235Y-150611785D02*
X59173426Y-150649880D01*
X59173426Y-150649880D02*
X59249616Y-150649880D01*
X59249616Y-150649880D02*
X59325807Y-150611785D01*
X59325807Y-150611785D02*
X59363902Y-150573690D01*
X59363902Y-150573690D02*
X59401997Y-150497499D01*
X59401997Y-150497499D02*
X59401997Y-150230833D01*
X59021045Y-151030833D02*
X59668664Y-151030833D01*
X59668664Y-151030833D02*
X59744854Y-151068928D01*
X59744854Y-151068928D02*
X59782950Y-151107023D01*
X59782950Y-151107023D02*
X59821045Y-151183214D01*
X59821045Y-151183214D02*
X59821045Y-151335595D01*
X59821045Y-151335595D02*
X59782950Y-151411785D01*
X59782950Y-151411785D02*
X59744854Y-151449880D01*
X59744854Y-151449880D02*
X59668664Y-151487976D01*
X59668664Y-151487976D02*
X59021045Y-151487976D01*
X59782950Y-151830832D02*
X59821045Y-151945118D01*
X59821045Y-151945118D02*
X59821045Y-152135594D01*
X59821045Y-152135594D02*
X59782950Y-152211785D01*
X59782950Y-152211785D02*
X59744854Y-152249880D01*
X59744854Y-152249880D02*
X59668664Y-152287975D01*
X59668664Y-152287975D02*
X59592473Y-152287975D01*
X59592473Y-152287975D02*
X59516283Y-152249880D01*
X59516283Y-152249880D02*
X59478188Y-152211785D01*
X59478188Y-152211785D02*
X59440092Y-152135594D01*
X59440092Y-152135594D02*
X59401997Y-151983213D01*
X59401997Y-151983213D02*
X59363902Y-151907023D01*
X59363902Y-151907023D02*
X59325807Y-151868928D01*
X59325807Y-151868928D02*
X59249616Y-151830832D01*
X59249616Y-151830832D02*
X59173426Y-151830832D01*
X59173426Y-151830832D02*
X59097235Y-151868928D01*
X59097235Y-151868928D02*
X59059140Y-151907023D01*
X59059140Y-151907023D02*
X59021045Y-151983213D01*
X59021045Y-151983213D02*
X59021045Y-152173690D01*
X59021045Y-152173690D02*
X59059140Y-152287975D01*
X92079140Y-161425118D02*
X92041045Y-161348928D01*
X92041045Y-161348928D02*
X92041045Y-161234642D01*
X92041045Y-161234642D02*
X92079140Y-161120356D01*
X92079140Y-161120356D02*
X92155330Y-161044166D01*
X92155330Y-161044166D02*
X92231521Y-161006071D01*
X92231521Y-161006071D02*
X92383902Y-160967975D01*
X92383902Y-160967975D02*
X92498188Y-160967975D01*
X92498188Y-160967975D02*
X92650569Y-161006071D01*
X92650569Y-161006071D02*
X92726759Y-161044166D01*
X92726759Y-161044166D02*
X92802950Y-161120356D01*
X92802950Y-161120356D02*
X92841045Y-161234642D01*
X92841045Y-161234642D02*
X92841045Y-161310833D01*
X92841045Y-161310833D02*
X92802950Y-161425118D01*
X92802950Y-161425118D02*
X92764854Y-161463214D01*
X92764854Y-161463214D02*
X92498188Y-161463214D01*
X92498188Y-161463214D02*
X92498188Y-161310833D01*
X92841045Y-161806071D02*
X92041045Y-161806071D01*
X92041045Y-161806071D02*
X92041045Y-162110833D01*
X92041045Y-162110833D02*
X92079140Y-162187023D01*
X92079140Y-162187023D02*
X92117235Y-162225118D01*
X92117235Y-162225118D02*
X92193426Y-162263214D01*
X92193426Y-162263214D02*
X92307711Y-162263214D01*
X92307711Y-162263214D02*
X92383902Y-162225118D01*
X92383902Y-162225118D02*
X92421997Y-162187023D01*
X92421997Y-162187023D02*
X92460092Y-162110833D01*
X92460092Y-162110833D02*
X92460092Y-161806071D01*
X92841045Y-163025118D02*
X92841045Y-162567975D01*
X92841045Y-162796547D02*
X92041045Y-162796547D01*
X92041045Y-162796547D02*
X92155330Y-162720356D01*
X92155330Y-162720356D02*
X92231521Y-162644166D01*
X92231521Y-162644166D02*
X92269616Y-162567975D01*
X92041045Y-163520357D02*
X92041045Y-163596547D01*
X92041045Y-163596547D02*
X92079140Y-163672738D01*
X92079140Y-163672738D02*
X92117235Y-163710833D01*
X92117235Y-163710833D02*
X92193426Y-163748928D01*
X92193426Y-163748928D02*
X92345807Y-163787023D01*
X92345807Y-163787023D02*
X92536283Y-163787023D01*
X92536283Y-163787023D02*
X92688664Y-163748928D01*
X92688664Y-163748928D02*
X92764854Y-163710833D01*
X92764854Y-163710833D02*
X92802950Y-163672738D01*
X92802950Y-163672738D02*
X92841045Y-163596547D01*
X92841045Y-163596547D02*
X92841045Y-163520357D01*
X92841045Y-163520357D02*
X92802950Y-163444166D01*
X92802950Y-163444166D02*
X92764854Y-163406071D01*
X92764854Y-163406071D02*
X92688664Y-163367976D01*
X92688664Y-163367976D02*
X92536283Y-163329880D01*
X92536283Y-163329880D02*
X92345807Y-163329880D01*
X92345807Y-163329880D02*
X92193426Y-163367976D01*
X92193426Y-163367976D02*
X92117235Y-163406071D01*
X92117235Y-163406071D02*
X92079140Y-163444166D01*
X92079140Y-163444166D02*
X92041045Y-163520357D01*
X69219140Y-162156071D02*
X69181045Y-162079881D01*
X69181045Y-162079881D02*
X69181045Y-161965595D01*
X69181045Y-161965595D02*
X69219140Y-161851309D01*
X69219140Y-161851309D02*
X69295330Y-161775119D01*
X69295330Y-161775119D02*
X69371521Y-161737024D01*
X69371521Y-161737024D02*
X69523902Y-161698928D01*
X69523902Y-161698928D02*
X69638188Y-161698928D01*
X69638188Y-161698928D02*
X69790569Y-161737024D01*
X69790569Y-161737024D02*
X69866759Y-161775119D01*
X69866759Y-161775119D02*
X69942950Y-161851309D01*
X69942950Y-161851309D02*
X69981045Y-161965595D01*
X69981045Y-161965595D02*
X69981045Y-162041786D01*
X69981045Y-162041786D02*
X69942950Y-162156071D01*
X69942950Y-162156071D02*
X69904854Y-162194167D01*
X69904854Y-162194167D02*
X69638188Y-162194167D01*
X69638188Y-162194167D02*
X69638188Y-162041786D01*
X69981045Y-162537024D02*
X69181045Y-162537024D01*
X69181045Y-162537024D02*
X69181045Y-162841786D01*
X69181045Y-162841786D02*
X69219140Y-162917976D01*
X69219140Y-162917976D02*
X69257235Y-162956071D01*
X69257235Y-162956071D02*
X69333426Y-162994167D01*
X69333426Y-162994167D02*
X69447711Y-162994167D01*
X69447711Y-162994167D02*
X69523902Y-162956071D01*
X69523902Y-162956071D02*
X69561997Y-162917976D01*
X69561997Y-162917976D02*
X69600092Y-162841786D01*
X69600092Y-162841786D02*
X69600092Y-162537024D01*
X69181045Y-163260833D02*
X69181045Y-163756071D01*
X69181045Y-163756071D02*
X69485807Y-163489405D01*
X69485807Y-163489405D02*
X69485807Y-163603690D01*
X69485807Y-163603690D02*
X69523902Y-163679881D01*
X69523902Y-163679881D02*
X69561997Y-163717976D01*
X69561997Y-163717976D02*
X69638188Y-163756071D01*
X69638188Y-163756071D02*
X69828664Y-163756071D01*
X69828664Y-163756071D02*
X69904854Y-163717976D01*
X69904854Y-163717976D02*
X69942950Y-163679881D01*
X69942950Y-163679881D02*
X69981045Y-163603690D01*
X69981045Y-163603690D02*
X69981045Y-163375119D01*
X69981045Y-163375119D02*
X69942950Y-163298928D01*
X69942950Y-163298928D02*
X69904854Y-163260833D01*
X92089140Y-150195118D02*
X92051045Y-150118928D01*
X92051045Y-150118928D02*
X92051045Y-150004642D01*
X92051045Y-150004642D02*
X92089140Y-149890356D01*
X92089140Y-149890356D02*
X92165330Y-149814166D01*
X92165330Y-149814166D02*
X92241521Y-149776071D01*
X92241521Y-149776071D02*
X92393902Y-149737975D01*
X92393902Y-149737975D02*
X92508188Y-149737975D01*
X92508188Y-149737975D02*
X92660569Y-149776071D01*
X92660569Y-149776071D02*
X92736759Y-149814166D01*
X92736759Y-149814166D02*
X92812950Y-149890356D01*
X92812950Y-149890356D02*
X92851045Y-150004642D01*
X92851045Y-150004642D02*
X92851045Y-150080833D01*
X92851045Y-150080833D02*
X92812950Y-150195118D01*
X92812950Y-150195118D02*
X92774854Y-150233214D01*
X92774854Y-150233214D02*
X92508188Y-150233214D01*
X92508188Y-150233214D02*
X92508188Y-150080833D01*
X92851045Y-150576071D02*
X92051045Y-150576071D01*
X92051045Y-150576071D02*
X92051045Y-150880833D01*
X92051045Y-150880833D02*
X92089140Y-150957023D01*
X92089140Y-150957023D02*
X92127235Y-150995118D01*
X92127235Y-150995118D02*
X92203426Y-151033214D01*
X92203426Y-151033214D02*
X92317711Y-151033214D01*
X92317711Y-151033214D02*
X92393902Y-150995118D01*
X92393902Y-150995118D02*
X92431997Y-150957023D01*
X92431997Y-150957023D02*
X92470092Y-150880833D01*
X92470092Y-150880833D02*
X92470092Y-150576071D01*
X92127235Y-151337975D02*
X92089140Y-151376071D01*
X92089140Y-151376071D02*
X92051045Y-151452261D01*
X92051045Y-151452261D02*
X92051045Y-151642737D01*
X92051045Y-151642737D02*
X92089140Y-151718928D01*
X92089140Y-151718928D02*
X92127235Y-151757023D01*
X92127235Y-151757023D02*
X92203426Y-151795118D01*
X92203426Y-151795118D02*
X92279616Y-151795118D01*
X92279616Y-151795118D02*
X92393902Y-151757023D01*
X92393902Y-151757023D02*
X92851045Y-151299880D01*
X92851045Y-151299880D02*
X92851045Y-151795118D01*
X92851045Y-152557023D02*
X92851045Y-152099880D01*
X92851045Y-152328452D02*
X92051045Y-152328452D01*
X92051045Y-152328452D02*
X92165330Y-152252261D01*
X92165330Y-152252261D02*
X92241521Y-152176071D01*
X92241521Y-152176071D02*
X92279616Y-152099880D01*
X59059140Y-162156071D02*
X59021045Y-162079881D01*
X59021045Y-162079881D02*
X59021045Y-161965595D01*
X59021045Y-161965595D02*
X59059140Y-161851309D01*
X59059140Y-161851309D02*
X59135330Y-161775119D01*
X59135330Y-161775119D02*
X59211521Y-161737024D01*
X59211521Y-161737024D02*
X59363902Y-161698928D01*
X59363902Y-161698928D02*
X59478188Y-161698928D01*
X59478188Y-161698928D02*
X59630569Y-161737024D01*
X59630569Y-161737024D02*
X59706759Y-161775119D01*
X59706759Y-161775119D02*
X59782950Y-161851309D01*
X59782950Y-161851309D02*
X59821045Y-161965595D01*
X59821045Y-161965595D02*
X59821045Y-162041786D01*
X59821045Y-162041786D02*
X59782950Y-162156071D01*
X59782950Y-162156071D02*
X59744854Y-162194167D01*
X59744854Y-162194167D02*
X59478188Y-162194167D01*
X59478188Y-162194167D02*
X59478188Y-162041786D01*
X59821045Y-162537024D02*
X59021045Y-162537024D01*
X59021045Y-162537024D02*
X59021045Y-162841786D01*
X59021045Y-162841786D02*
X59059140Y-162917976D01*
X59059140Y-162917976D02*
X59097235Y-162956071D01*
X59097235Y-162956071D02*
X59173426Y-162994167D01*
X59173426Y-162994167D02*
X59287711Y-162994167D01*
X59287711Y-162994167D02*
X59363902Y-162956071D01*
X59363902Y-162956071D02*
X59401997Y-162917976D01*
X59401997Y-162917976D02*
X59440092Y-162841786D01*
X59440092Y-162841786D02*
X59440092Y-162537024D01*
X59021045Y-163489405D02*
X59021045Y-163565595D01*
X59021045Y-163565595D02*
X59059140Y-163641786D01*
X59059140Y-163641786D02*
X59097235Y-163679881D01*
X59097235Y-163679881D02*
X59173426Y-163717976D01*
X59173426Y-163717976D02*
X59325807Y-163756071D01*
X59325807Y-163756071D02*
X59516283Y-163756071D01*
X59516283Y-163756071D02*
X59668664Y-163717976D01*
X59668664Y-163717976D02*
X59744854Y-163679881D01*
X59744854Y-163679881D02*
X59782950Y-163641786D01*
X59782950Y-163641786D02*
X59821045Y-163565595D01*
X59821045Y-163565595D02*
X59821045Y-163489405D01*
X59821045Y-163489405D02*
X59782950Y-163413214D01*
X59782950Y-163413214D02*
X59744854Y-163375119D01*
X59744854Y-163375119D02*
X59668664Y-163337024D01*
X59668664Y-163337024D02*
X59516283Y-163298928D01*
X59516283Y-163298928D02*
X59325807Y-163298928D01*
X59325807Y-163298928D02*
X59173426Y-163337024D01*
X59173426Y-163337024D02*
X59097235Y-163375119D01*
X59097235Y-163375119D02*
X59059140Y-163413214D01*
X59059140Y-163413214D02*
X59021045Y-163489405D01*
X102239140Y-150187976D02*
X102201045Y-150111786D01*
X102201045Y-150111786D02*
X102201045Y-149997500D01*
X102201045Y-149997500D02*
X102239140Y-149883214D01*
X102239140Y-149883214D02*
X102315330Y-149807024D01*
X102315330Y-149807024D02*
X102391521Y-149768929D01*
X102391521Y-149768929D02*
X102543902Y-149730833D01*
X102543902Y-149730833D02*
X102658188Y-149730833D01*
X102658188Y-149730833D02*
X102810569Y-149768929D01*
X102810569Y-149768929D02*
X102886759Y-149807024D01*
X102886759Y-149807024D02*
X102962950Y-149883214D01*
X102962950Y-149883214D02*
X103001045Y-149997500D01*
X103001045Y-149997500D02*
X103001045Y-150073691D01*
X103001045Y-150073691D02*
X102962950Y-150187976D01*
X102962950Y-150187976D02*
X102924854Y-150226072D01*
X102924854Y-150226072D02*
X102658188Y-150226072D01*
X102658188Y-150226072D02*
X102658188Y-150073691D01*
X103001045Y-150568929D02*
X102201045Y-150568929D01*
X102201045Y-150568929D02*
X103001045Y-151026072D01*
X103001045Y-151026072D02*
X102201045Y-151026072D01*
X103001045Y-151407024D02*
X102201045Y-151407024D01*
X102201045Y-151407024D02*
X102201045Y-151597500D01*
X102201045Y-151597500D02*
X102239140Y-151711786D01*
X102239140Y-151711786D02*
X102315330Y-151787976D01*
X102315330Y-151787976D02*
X102391521Y-151826071D01*
X102391521Y-151826071D02*
X102543902Y-151864167D01*
X102543902Y-151864167D02*
X102658188Y-151864167D01*
X102658188Y-151864167D02*
X102810569Y-151826071D01*
X102810569Y-151826071D02*
X102886759Y-151787976D01*
X102886759Y-151787976D02*
X102962950Y-151711786D01*
X102962950Y-151711786D02*
X103001045Y-151597500D01*
X103001045Y-151597500D02*
X103001045Y-151407024D01*
X76839140Y-162117976D02*
X76801045Y-162041786D01*
X76801045Y-162041786D02*
X76801045Y-161927500D01*
X76801045Y-161927500D02*
X76839140Y-161813214D01*
X76839140Y-161813214D02*
X76915330Y-161737024D01*
X76915330Y-161737024D02*
X76991521Y-161698929D01*
X76991521Y-161698929D02*
X77143902Y-161660833D01*
X77143902Y-161660833D02*
X77258188Y-161660833D01*
X77258188Y-161660833D02*
X77410569Y-161698929D01*
X77410569Y-161698929D02*
X77486759Y-161737024D01*
X77486759Y-161737024D02*
X77562950Y-161813214D01*
X77562950Y-161813214D02*
X77601045Y-161927500D01*
X77601045Y-161927500D02*
X77601045Y-162003691D01*
X77601045Y-162003691D02*
X77562950Y-162117976D01*
X77562950Y-162117976D02*
X77524854Y-162156072D01*
X77524854Y-162156072D02*
X77258188Y-162156072D01*
X77258188Y-162156072D02*
X77258188Y-162003691D01*
X77601045Y-162498929D02*
X76801045Y-162498929D01*
X76801045Y-162498929D02*
X77601045Y-162956072D01*
X77601045Y-162956072D02*
X76801045Y-162956072D01*
X77601045Y-163337024D02*
X76801045Y-163337024D01*
X76801045Y-163337024D02*
X76801045Y-163527500D01*
X76801045Y-163527500D02*
X76839140Y-163641786D01*
X76839140Y-163641786D02*
X76915330Y-163717976D01*
X76915330Y-163717976D02*
X76991521Y-163756071D01*
X76991521Y-163756071D02*
X77143902Y-163794167D01*
X77143902Y-163794167D02*
X77258188Y-163794167D01*
X77258188Y-163794167D02*
X77410569Y-163756071D01*
X77410569Y-163756071D02*
X77486759Y-163717976D01*
X77486759Y-163717976D02*
X77562950Y-163641786D01*
X77562950Y-163641786D02*
X77601045Y-163527500D01*
X77601045Y-163527500D02*
X77601045Y-163337024D01*
X85221045Y-150207024D02*
X84840092Y-149940357D01*
X85221045Y-149749881D02*
X84421045Y-149749881D01*
X84421045Y-149749881D02*
X84421045Y-150054643D01*
X84421045Y-150054643D02*
X84459140Y-150130833D01*
X84459140Y-150130833D02*
X84497235Y-150168928D01*
X84497235Y-150168928D02*
X84573426Y-150207024D01*
X84573426Y-150207024D02*
X84687711Y-150207024D01*
X84687711Y-150207024D02*
X84763902Y-150168928D01*
X84763902Y-150168928D02*
X84801997Y-150130833D01*
X84801997Y-150130833D02*
X84840092Y-150054643D01*
X84840092Y-150054643D02*
X84840092Y-149749881D01*
X84421045Y-150549881D02*
X85068664Y-150549881D01*
X85068664Y-150549881D02*
X85144854Y-150587976D01*
X85144854Y-150587976D02*
X85182950Y-150626071D01*
X85182950Y-150626071D02*
X85221045Y-150702262D01*
X85221045Y-150702262D02*
X85221045Y-150854643D01*
X85221045Y-150854643D02*
X85182950Y-150930833D01*
X85182950Y-150930833D02*
X85144854Y-150968928D01*
X85144854Y-150968928D02*
X85068664Y-151007024D01*
X85068664Y-151007024D02*
X84421045Y-151007024D01*
X85221045Y-151387976D02*
X84421045Y-151387976D01*
X84421045Y-151387976D02*
X85221045Y-151845119D01*
X85221045Y-151845119D02*
X84421045Y-151845119D01*
X64139140Y-150037976D02*
X64101045Y-149961786D01*
X64101045Y-149961786D02*
X64101045Y-149847500D01*
X64101045Y-149847500D02*
X64139140Y-149733214D01*
X64139140Y-149733214D02*
X64215330Y-149657024D01*
X64215330Y-149657024D02*
X64291521Y-149618929D01*
X64291521Y-149618929D02*
X64443902Y-149580833D01*
X64443902Y-149580833D02*
X64558188Y-149580833D01*
X64558188Y-149580833D02*
X64710569Y-149618929D01*
X64710569Y-149618929D02*
X64786759Y-149657024D01*
X64786759Y-149657024D02*
X64862950Y-149733214D01*
X64862950Y-149733214D02*
X64901045Y-149847500D01*
X64901045Y-149847500D02*
X64901045Y-149923691D01*
X64901045Y-149923691D02*
X64862950Y-150037976D01*
X64862950Y-150037976D02*
X64824854Y-150076072D01*
X64824854Y-150076072D02*
X64558188Y-150076072D01*
X64558188Y-150076072D02*
X64558188Y-149923691D01*
X64901045Y-150418929D02*
X64101045Y-150418929D01*
X64101045Y-150418929D02*
X64901045Y-150876072D01*
X64901045Y-150876072D02*
X64101045Y-150876072D01*
X64901045Y-151257024D02*
X64101045Y-151257024D01*
X64101045Y-151257024D02*
X64101045Y-151447500D01*
X64101045Y-151447500D02*
X64139140Y-151561786D01*
X64139140Y-151561786D02*
X64215330Y-151637976D01*
X64215330Y-151637976D02*
X64291521Y-151676071D01*
X64291521Y-151676071D02*
X64443902Y-151714167D01*
X64443902Y-151714167D02*
X64558188Y-151714167D01*
X64558188Y-151714167D02*
X64710569Y-151676071D01*
X64710569Y-151676071D02*
X64786759Y-151637976D01*
X64786759Y-151637976D02*
X64862950Y-151561786D01*
X64862950Y-151561786D02*
X64901045Y-151447500D01*
X64901045Y-151447500D02*
X64901045Y-151257024D01*
X99699140Y-161425118D02*
X99661045Y-161348928D01*
X99661045Y-161348928D02*
X99661045Y-161234642D01*
X99661045Y-161234642D02*
X99699140Y-161120356D01*
X99699140Y-161120356D02*
X99775330Y-161044166D01*
X99775330Y-161044166D02*
X99851521Y-161006071D01*
X99851521Y-161006071D02*
X100003902Y-160967975D01*
X100003902Y-160967975D02*
X100118188Y-160967975D01*
X100118188Y-160967975D02*
X100270569Y-161006071D01*
X100270569Y-161006071D02*
X100346759Y-161044166D01*
X100346759Y-161044166D02*
X100422950Y-161120356D01*
X100422950Y-161120356D02*
X100461045Y-161234642D01*
X100461045Y-161234642D02*
X100461045Y-161310833D01*
X100461045Y-161310833D02*
X100422950Y-161425118D01*
X100422950Y-161425118D02*
X100384854Y-161463214D01*
X100384854Y-161463214D02*
X100118188Y-161463214D01*
X100118188Y-161463214D02*
X100118188Y-161310833D01*
X100461045Y-161806071D02*
X99661045Y-161806071D01*
X99661045Y-161806071D02*
X99661045Y-162110833D01*
X99661045Y-162110833D02*
X99699140Y-162187023D01*
X99699140Y-162187023D02*
X99737235Y-162225118D01*
X99737235Y-162225118D02*
X99813426Y-162263214D01*
X99813426Y-162263214D02*
X99927711Y-162263214D01*
X99927711Y-162263214D02*
X100003902Y-162225118D01*
X100003902Y-162225118D02*
X100041997Y-162187023D01*
X100041997Y-162187023D02*
X100080092Y-162110833D01*
X100080092Y-162110833D02*
X100080092Y-161806071D01*
X100461045Y-163025118D02*
X100461045Y-162567975D01*
X100461045Y-162796547D02*
X99661045Y-162796547D01*
X99661045Y-162796547D02*
X99775330Y-162720356D01*
X99775330Y-162720356D02*
X99851521Y-162644166D01*
X99851521Y-162644166D02*
X99889616Y-162567975D01*
X99661045Y-163291785D02*
X99661045Y-163787023D01*
X99661045Y-163787023D02*
X99965807Y-163520357D01*
X99965807Y-163520357D02*
X99965807Y-163634642D01*
X99965807Y-163634642D02*
X100003902Y-163710833D01*
X100003902Y-163710833D02*
X100041997Y-163748928D01*
X100041997Y-163748928D02*
X100118188Y-163787023D01*
X100118188Y-163787023D02*
X100308664Y-163787023D01*
X100308664Y-163787023D02*
X100384854Y-163748928D01*
X100384854Y-163748928D02*
X100422950Y-163710833D01*
X100422950Y-163710833D02*
X100461045Y-163634642D01*
X100461045Y-163634642D02*
X100461045Y-163406071D01*
X100461045Y-163406071D02*
X100422950Y-163329880D01*
X100422950Y-163329880D02*
X100384854Y-163291785D01*
X61589140Y-162156071D02*
X61551045Y-162079881D01*
X61551045Y-162079881D02*
X61551045Y-161965595D01*
X61551045Y-161965595D02*
X61589140Y-161851309D01*
X61589140Y-161851309D02*
X61665330Y-161775119D01*
X61665330Y-161775119D02*
X61741521Y-161737024D01*
X61741521Y-161737024D02*
X61893902Y-161698928D01*
X61893902Y-161698928D02*
X62008188Y-161698928D01*
X62008188Y-161698928D02*
X62160569Y-161737024D01*
X62160569Y-161737024D02*
X62236759Y-161775119D01*
X62236759Y-161775119D02*
X62312950Y-161851309D01*
X62312950Y-161851309D02*
X62351045Y-161965595D01*
X62351045Y-161965595D02*
X62351045Y-162041786D01*
X62351045Y-162041786D02*
X62312950Y-162156071D01*
X62312950Y-162156071D02*
X62274854Y-162194167D01*
X62274854Y-162194167D02*
X62008188Y-162194167D01*
X62008188Y-162194167D02*
X62008188Y-162041786D01*
X62351045Y-162537024D02*
X61551045Y-162537024D01*
X61551045Y-162537024D02*
X61551045Y-162841786D01*
X61551045Y-162841786D02*
X61589140Y-162917976D01*
X61589140Y-162917976D02*
X61627235Y-162956071D01*
X61627235Y-162956071D02*
X61703426Y-162994167D01*
X61703426Y-162994167D02*
X61817711Y-162994167D01*
X61817711Y-162994167D02*
X61893902Y-162956071D01*
X61893902Y-162956071D02*
X61931997Y-162917976D01*
X61931997Y-162917976D02*
X61970092Y-162841786D01*
X61970092Y-162841786D02*
X61970092Y-162537024D01*
X62351045Y-163756071D02*
X62351045Y-163298928D01*
X62351045Y-163527500D02*
X61551045Y-163527500D01*
X61551045Y-163527500D02*
X61665330Y-163451309D01*
X61665330Y-163451309D02*
X61741521Y-163375119D01*
X61741521Y-163375119D02*
X61779616Y-163298928D01*
X77372473Y-149737976D02*
X77372473Y-150118929D01*
X77601045Y-149661786D02*
X76801045Y-149928453D01*
X76801045Y-149928453D02*
X77601045Y-150195119D01*
X76839140Y-150880833D02*
X76801045Y-150804643D01*
X76801045Y-150804643D02*
X76801045Y-150690357D01*
X76801045Y-150690357D02*
X76839140Y-150576071D01*
X76839140Y-150576071D02*
X76915330Y-150499881D01*
X76915330Y-150499881D02*
X76991521Y-150461786D01*
X76991521Y-150461786D02*
X77143902Y-150423690D01*
X77143902Y-150423690D02*
X77258188Y-150423690D01*
X77258188Y-150423690D02*
X77410569Y-150461786D01*
X77410569Y-150461786D02*
X77486759Y-150499881D01*
X77486759Y-150499881D02*
X77562950Y-150576071D01*
X77562950Y-150576071D02*
X77601045Y-150690357D01*
X77601045Y-150690357D02*
X77601045Y-150766548D01*
X77601045Y-150766548D02*
X77562950Y-150880833D01*
X77562950Y-150880833D02*
X77524854Y-150918929D01*
X77524854Y-150918929D02*
X77258188Y-150918929D01*
X77258188Y-150918929D02*
X77258188Y-150766548D01*
X77601045Y-151261786D02*
X76801045Y-151261786D01*
X76801045Y-151261786D02*
X77601045Y-151718929D01*
X77601045Y-151718929D02*
X76801045Y-151718929D01*
X77601045Y-152099881D02*
X76801045Y-152099881D01*
X76801045Y-152099881D02*
X76801045Y-152290357D01*
X76801045Y-152290357D02*
X76839140Y-152404643D01*
X76839140Y-152404643D02*
X76915330Y-152480833D01*
X76915330Y-152480833D02*
X76991521Y-152518928D01*
X76991521Y-152518928D02*
X77143902Y-152557024D01*
X77143902Y-152557024D02*
X77258188Y-152557024D01*
X77258188Y-152557024D02*
X77410569Y-152518928D01*
X77410569Y-152518928D02*
X77486759Y-152480833D01*
X77486759Y-152480833D02*
X77562950Y-152404643D01*
X77562950Y-152404643D02*
X77601045Y-152290357D01*
X77601045Y-152290357D02*
X77601045Y-152099881D01*
X105198273Y-156287890D02*
X105274463Y-156249795D01*
X105274463Y-156249795D02*
X105388749Y-156249795D01*
X105388749Y-156249795D02*
X105503035Y-156287890D01*
X105503035Y-156287890D02*
X105579225Y-156364080D01*
X105579225Y-156364080D02*
X105617320Y-156440271D01*
X105617320Y-156440271D02*
X105655416Y-156592652D01*
X105655416Y-156592652D02*
X105655416Y-156706938D01*
X105655416Y-156706938D02*
X105617320Y-156859319D01*
X105617320Y-156859319D02*
X105579225Y-156935509D01*
X105579225Y-156935509D02*
X105503035Y-157011700D01*
X105503035Y-157011700D02*
X105388749Y-157049795D01*
X105388749Y-157049795D02*
X105312558Y-157049795D01*
X105312558Y-157049795D02*
X105198273Y-157011700D01*
X105198273Y-157011700D02*
X105160177Y-156973604D01*
X105160177Y-156973604D02*
X105160177Y-156706938D01*
X105160177Y-156706938D02*
X105312558Y-156706938D01*
X104817320Y-157049795D02*
X104817320Y-156249795D01*
X104817320Y-156249795D02*
X104360177Y-157049795D01*
X104360177Y-157049795D02*
X104360177Y-156249795D01*
X103979225Y-157049795D02*
X103979225Y-156249795D01*
X103979225Y-156249795D02*
X103788749Y-156249795D01*
X103788749Y-156249795D02*
X103674463Y-156287890D01*
X103674463Y-156287890D02*
X103598273Y-156364080D01*
X103598273Y-156364080D02*
X103560178Y-156440271D01*
X103560178Y-156440271D02*
X103522082Y-156592652D01*
X103522082Y-156592652D02*
X103522082Y-156706938D01*
X103522082Y-156706938D02*
X103560178Y-156859319D01*
X103560178Y-156859319D02*
X103598273Y-156935509D01*
X103598273Y-156935509D02*
X103674463Y-157011700D01*
X103674463Y-157011700D02*
X103788749Y-157049795D01*
X103788749Y-157049795D02*
X103979225Y-157049795D01*
X104779140Y-150195118D02*
X104741045Y-150118928D01*
X104741045Y-150118928D02*
X104741045Y-150004642D01*
X104741045Y-150004642D02*
X104779140Y-149890356D01*
X104779140Y-149890356D02*
X104855330Y-149814166D01*
X104855330Y-149814166D02*
X104931521Y-149776071D01*
X104931521Y-149776071D02*
X105083902Y-149737975D01*
X105083902Y-149737975D02*
X105198188Y-149737975D01*
X105198188Y-149737975D02*
X105350569Y-149776071D01*
X105350569Y-149776071D02*
X105426759Y-149814166D01*
X105426759Y-149814166D02*
X105502950Y-149890356D01*
X105502950Y-149890356D02*
X105541045Y-150004642D01*
X105541045Y-150004642D02*
X105541045Y-150080833D01*
X105541045Y-150080833D02*
X105502950Y-150195118D01*
X105502950Y-150195118D02*
X105464854Y-150233214D01*
X105464854Y-150233214D02*
X105198188Y-150233214D01*
X105198188Y-150233214D02*
X105198188Y-150080833D01*
X105541045Y-150576071D02*
X104741045Y-150576071D01*
X104741045Y-150576071D02*
X104741045Y-150880833D01*
X104741045Y-150880833D02*
X104779140Y-150957023D01*
X104779140Y-150957023D02*
X104817235Y-150995118D01*
X104817235Y-150995118D02*
X104893426Y-151033214D01*
X104893426Y-151033214D02*
X105007711Y-151033214D01*
X105007711Y-151033214D02*
X105083902Y-150995118D01*
X105083902Y-150995118D02*
X105121997Y-150957023D01*
X105121997Y-150957023D02*
X105160092Y-150880833D01*
X105160092Y-150880833D02*
X105160092Y-150576071D01*
X105541045Y-151795118D02*
X105541045Y-151337975D01*
X105541045Y-151566547D02*
X104741045Y-151566547D01*
X104741045Y-151566547D02*
X104855330Y-151490356D01*
X104855330Y-151490356D02*
X104931521Y-151414166D01*
X104931521Y-151414166D02*
X104969616Y-151337975D01*
X104741045Y-152061785D02*
X104741045Y-152595119D01*
X104741045Y-152595119D02*
X105541045Y-152252261D01*
X89539140Y-162117976D02*
X89501045Y-162041786D01*
X89501045Y-162041786D02*
X89501045Y-161927500D01*
X89501045Y-161927500D02*
X89539140Y-161813214D01*
X89539140Y-161813214D02*
X89615330Y-161737024D01*
X89615330Y-161737024D02*
X89691521Y-161698929D01*
X89691521Y-161698929D02*
X89843902Y-161660833D01*
X89843902Y-161660833D02*
X89958188Y-161660833D01*
X89958188Y-161660833D02*
X90110569Y-161698929D01*
X90110569Y-161698929D02*
X90186759Y-161737024D01*
X90186759Y-161737024D02*
X90262950Y-161813214D01*
X90262950Y-161813214D02*
X90301045Y-161927500D01*
X90301045Y-161927500D02*
X90301045Y-162003691D01*
X90301045Y-162003691D02*
X90262950Y-162117976D01*
X90262950Y-162117976D02*
X90224854Y-162156072D01*
X90224854Y-162156072D02*
X89958188Y-162156072D01*
X89958188Y-162156072D02*
X89958188Y-162003691D01*
X90301045Y-162498929D02*
X89501045Y-162498929D01*
X89501045Y-162498929D02*
X90301045Y-162956072D01*
X90301045Y-162956072D02*
X89501045Y-162956072D01*
X90301045Y-163337024D02*
X89501045Y-163337024D01*
X89501045Y-163337024D02*
X89501045Y-163527500D01*
X89501045Y-163527500D02*
X89539140Y-163641786D01*
X89539140Y-163641786D02*
X89615330Y-163717976D01*
X89615330Y-163717976D02*
X89691521Y-163756071D01*
X89691521Y-163756071D02*
X89843902Y-163794167D01*
X89843902Y-163794167D02*
X89958188Y-163794167D01*
X89958188Y-163794167D02*
X90110569Y-163756071D01*
X90110569Y-163756071D02*
X90186759Y-163717976D01*
X90186759Y-163717976D02*
X90262950Y-163641786D01*
X90262950Y-163641786D02*
X90301045Y-163527500D01*
X90301045Y-163527500D02*
X90301045Y-163337024D01*
X61561045Y-149526071D02*
X62361045Y-149792738D01*
X62361045Y-149792738D02*
X61561045Y-150059404D01*
X62322950Y-150287975D02*
X62361045Y-150402261D01*
X62361045Y-150402261D02*
X62361045Y-150592737D01*
X62361045Y-150592737D02*
X62322950Y-150668928D01*
X62322950Y-150668928D02*
X62284854Y-150707023D01*
X62284854Y-150707023D02*
X62208664Y-150745118D01*
X62208664Y-150745118D02*
X62132473Y-150745118D01*
X62132473Y-150745118D02*
X62056283Y-150707023D01*
X62056283Y-150707023D02*
X62018188Y-150668928D01*
X62018188Y-150668928D02*
X61980092Y-150592737D01*
X61980092Y-150592737D02*
X61941997Y-150440356D01*
X61941997Y-150440356D02*
X61903902Y-150364166D01*
X61903902Y-150364166D02*
X61865807Y-150326071D01*
X61865807Y-150326071D02*
X61789616Y-150287975D01*
X61789616Y-150287975D02*
X61713426Y-150287975D01*
X61713426Y-150287975D02*
X61637235Y-150326071D01*
X61637235Y-150326071D02*
X61599140Y-150364166D01*
X61599140Y-150364166D02*
X61561045Y-150440356D01*
X61561045Y-150440356D02*
X61561045Y-150630833D01*
X61561045Y-150630833D02*
X61599140Y-150745118D01*
X61980092Y-151240357D02*
X62361045Y-151240357D01*
X61561045Y-150973690D02*
X61980092Y-151240357D01*
X61980092Y-151240357D02*
X61561045Y-151507023D01*
X62322950Y-151735594D02*
X62361045Y-151849880D01*
X62361045Y-151849880D02*
X62361045Y-152040356D01*
X62361045Y-152040356D02*
X62322950Y-152116547D01*
X62322950Y-152116547D02*
X62284854Y-152154642D01*
X62284854Y-152154642D02*
X62208664Y-152192737D01*
X62208664Y-152192737D02*
X62132473Y-152192737D01*
X62132473Y-152192737D02*
X62056283Y-152154642D01*
X62056283Y-152154642D02*
X62018188Y-152116547D01*
X62018188Y-152116547D02*
X61980092Y-152040356D01*
X61980092Y-152040356D02*
X61941997Y-151887975D01*
X61941997Y-151887975D02*
X61903902Y-151811785D01*
X61903902Y-151811785D02*
X61865807Y-151773690D01*
X61865807Y-151773690D02*
X61789616Y-151735594D01*
X61789616Y-151735594D02*
X61713426Y-151735594D01*
X61713426Y-151735594D02*
X61637235Y-151773690D01*
X61637235Y-151773690D02*
X61599140Y-151811785D01*
X61599140Y-151811785D02*
X61561045Y-151887975D01*
X61561045Y-151887975D02*
X61561045Y-152078452D01*
X61561045Y-152078452D02*
X61599140Y-152192737D01*
X86999140Y-150195118D02*
X86961045Y-150118928D01*
X86961045Y-150118928D02*
X86961045Y-150004642D01*
X86961045Y-150004642D02*
X86999140Y-149890356D01*
X86999140Y-149890356D02*
X87075330Y-149814166D01*
X87075330Y-149814166D02*
X87151521Y-149776071D01*
X87151521Y-149776071D02*
X87303902Y-149737975D01*
X87303902Y-149737975D02*
X87418188Y-149737975D01*
X87418188Y-149737975D02*
X87570569Y-149776071D01*
X87570569Y-149776071D02*
X87646759Y-149814166D01*
X87646759Y-149814166D02*
X87722950Y-149890356D01*
X87722950Y-149890356D02*
X87761045Y-150004642D01*
X87761045Y-150004642D02*
X87761045Y-150080833D01*
X87761045Y-150080833D02*
X87722950Y-150195118D01*
X87722950Y-150195118D02*
X87684854Y-150233214D01*
X87684854Y-150233214D02*
X87418188Y-150233214D01*
X87418188Y-150233214D02*
X87418188Y-150080833D01*
X87761045Y-150576071D02*
X86961045Y-150576071D01*
X86961045Y-150576071D02*
X86961045Y-150880833D01*
X86961045Y-150880833D02*
X86999140Y-150957023D01*
X86999140Y-150957023D02*
X87037235Y-150995118D01*
X87037235Y-150995118D02*
X87113426Y-151033214D01*
X87113426Y-151033214D02*
X87227711Y-151033214D01*
X87227711Y-151033214D02*
X87303902Y-150995118D01*
X87303902Y-150995118D02*
X87341997Y-150957023D01*
X87341997Y-150957023D02*
X87380092Y-150880833D01*
X87380092Y-150880833D02*
X87380092Y-150576071D01*
X87037235Y-151337975D02*
X86999140Y-151376071D01*
X86999140Y-151376071D02*
X86961045Y-151452261D01*
X86961045Y-151452261D02*
X86961045Y-151642737D01*
X86961045Y-151642737D02*
X86999140Y-151718928D01*
X86999140Y-151718928D02*
X87037235Y-151757023D01*
X87037235Y-151757023D02*
X87113426Y-151795118D01*
X87113426Y-151795118D02*
X87189616Y-151795118D01*
X87189616Y-151795118D02*
X87303902Y-151757023D01*
X87303902Y-151757023D02*
X87761045Y-151299880D01*
X87761045Y-151299880D02*
X87761045Y-151795118D01*
X87037235Y-152099880D02*
X86999140Y-152137976D01*
X86999140Y-152137976D02*
X86961045Y-152214166D01*
X86961045Y-152214166D02*
X86961045Y-152404642D01*
X86961045Y-152404642D02*
X86999140Y-152480833D01*
X86999140Y-152480833D02*
X87037235Y-152518928D01*
X87037235Y-152518928D02*
X87113426Y-152557023D01*
X87113426Y-152557023D02*
X87189616Y-152557023D01*
X87189616Y-152557023D02*
X87303902Y-152518928D01*
X87303902Y-152518928D02*
X87761045Y-152061785D01*
X87761045Y-152061785D02*
X87761045Y-152557023D01*
X89539140Y-150187976D02*
X89501045Y-150111786D01*
X89501045Y-150111786D02*
X89501045Y-149997500D01*
X89501045Y-149997500D02*
X89539140Y-149883214D01*
X89539140Y-149883214D02*
X89615330Y-149807024D01*
X89615330Y-149807024D02*
X89691521Y-149768929D01*
X89691521Y-149768929D02*
X89843902Y-149730833D01*
X89843902Y-149730833D02*
X89958188Y-149730833D01*
X89958188Y-149730833D02*
X90110569Y-149768929D01*
X90110569Y-149768929D02*
X90186759Y-149807024D01*
X90186759Y-149807024D02*
X90262950Y-149883214D01*
X90262950Y-149883214D02*
X90301045Y-149997500D01*
X90301045Y-149997500D02*
X90301045Y-150073691D01*
X90301045Y-150073691D02*
X90262950Y-150187976D01*
X90262950Y-150187976D02*
X90224854Y-150226072D01*
X90224854Y-150226072D02*
X89958188Y-150226072D01*
X89958188Y-150226072D02*
X89958188Y-150073691D01*
X90301045Y-150568929D02*
X89501045Y-150568929D01*
X89501045Y-150568929D02*
X90301045Y-151026072D01*
X90301045Y-151026072D02*
X89501045Y-151026072D01*
X90301045Y-151407024D02*
X89501045Y-151407024D01*
X89501045Y-151407024D02*
X89501045Y-151597500D01*
X89501045Y-151597500D02*
X89539140Y-151711786D01*
X89539140Y-151711786D02*
X89615330Y-151787976D01*
X89615330Y-151787976D02*
X89691521Y-151826071D01*
X89691521Y-151826071D02*
X89843902Y-151864167D01*
X89843902Y-151864167D02*
X89958188Y-151864167D01*
X89958188Y-151864167D02*
X90110569Y-151826071D01*
X90110569Y-151826071D02*
X90186759Y-151787976D01*
X90186759Y-151787976D02*
X90262950Y-151711786D01*
X90262950Y-151711786D02*
X90301045Y-151597500D01*
X90301045Y-151597500D02*
X90301045Y-151407024D01*
X66641045Y-149571309D02*
X66641045Y-150066547D01*
X66641045Y-150066547D02*
X66945807Y-149799881D01*
X66945807Y-149799881D02*
X66945807Y-149914166D01*
X66945807Y-149914166D02*
X66983902Y-149990357D01*
X66983902Y-149990357D02*
X67021997Y-150028452D01*
X67021997Y-150028452D02*
X67098188Y-150066547D01*
X67098188Y-150066547D02*
X67288664Y-150066547D01*
X67288664Y-150066547D02*
X67364854Y-150028452D01*
X67364854Y-150028452D02*
X67402950Y-149990357D01*
X67402950Y-149990357D02*
X67441045Y-149914166D01*
X67441045Y-149914166D02*
X67441045Y-149685595D01*
X67441045Y-149685595D02*
X67402950Y-149609404D01*
X67402950Y-149609404D02*
X67364854Y-149571309D01*
X66641045Y-150295119D02*
X67441045Y-150561786D01*
X67441045Y-150561786D02*
X66641045Y-150828452D01*
X66641045Y-151018928D02*
X66641045Y-151514166D01*
X66641045Y-151514166D02*
X66945807Y-151247500D01*
X66945807Y-151247500D02*
X66945807Y-151361785D01*
X66945807Y-151361785D02*
X66983902Y-151437976D01*
X66983902Y-151437976D02*
X67021997Y-151476071D01*
X67021997Y-151476071D02*
X67098188Y-151514166D01*
X67098188Y-151514166D02*
X67288664Y-151514166D01*
X67288664Y-151514166D02*
X67364854Y-151476071D01*
X67364854Y-151476071D02*
X67402950Y-151437976D01*
X67402950Y-151437976D02*
X67441045Y-151361785D01*
X67441045Y-151361785D02*
X67441045Y-151133214D01*
X67441045Y-151133214D02*
X67402950Y-151057023D01*
X67402950Y-151057023D02*
X67364854Y-151018928D01*
X67517235Y-151666548D02*
X67517235Y-152276071D01*
X67021997Y-152466548D02*
X67021997Y-152733214D01*
X67441045Y-152847500D02*
X67441045Y-152466548D01*
X67441045Y-152466548D02*
X66641045Y-152466548D01*
X66641045Y-152466548D02*
X66641045Y-152847500D01*
X67441045Y-153190358D02*
X66641045Y-153190358D01*
X66641045Y-153190358D02*
X67441045Y-153647501D01*
X67441045Y-153647501D02*
X66641045Y-153647501D01*
X107319140Y-150195118D02*
X107281045Y-150118928D01*
X107281045Y-150118928D02*
X107281045Y-150004642D01*
X107281045Y-150004642D02*
X107319140Y-149890356D01*
X107319140Y-149890356D02*
X107395330Y-149814166D01*
X107395330Y-149814166D02*
X107471521Y-149776071D01*
X107471521Y-149776071D02*
X107623902Y-149737975D01*
X107623902Y-149737975D02*
X107738188Y-149737975D01*
X107738188Y-149737975D02*
X107890569Y-149776071D01*
X107890569Y-149776071D02*
X107966759Y-149814166D01*
X107966759Y-149814166D02*
X108042950Y-149890356D01*
X108042950Y-149890356D02*
X108081045Y-150004642D01*
X108081045Y-150004642D02*
X108081045Y-150080833D01*
X108081045Y-150080833D02*
X108042950Y-150195118D01*
X108042950Y-150195118D02*
X108004854Y-150233214D01*
X108004854Y-150233214D02*
X107738188Y-150233214D01*
X107738188Y-150233214D02*
X107738188Y-150080833D01*
X108081045Y-150576071D02*
X107281045Y-150576071D01*
X107281045Y-150576071D02*
X107281045Y-150880833D01*
X107281045Y-150880833D02*
X107319140Y-150957023D01*
X107319140Y-150957023D02*
X107357235Y-150995118D01*
X107357235Y-150995118D02*
X107433426Y-151033214D01*
X107433426Y-151033214D02*
X107547711Y-151033214D01*
X107547711Y-151033214D02*
X107623902Y-150995118D01*
X107623902Y-150995118D02*
X107661997Y-150957023D01*
X107661997Y-150957023D02*
X107700092Y-150880833D01*
X107700092Y-150880833D02*
X107700092Y-150576071D01*
X108081045Y-151795118D02*
X108081045Y-151337975D01*
X108081045Y-151566547D02*
X107281045Y-151566547D01*
X107281045Y-151566547D02*
X107395330Y-151490356D01*
X107395330Y-151490356D02*
X107471521Y-151414166D01*
X107471521Y-151414166D02*
X107509616Y-151337975D01*
X107281045Y-152480833D02*
X107281045Y-152328452D01*
X107281045Y-152328452D02*
X107319140Y-152252261D01*
X107319140Y-152252261D02*
X107357235Y-152214166D01*
X107357235Y-152214166D02*
X107471521Y-152137976D01*
X107471521Y-152137976D02*
X107623902Y-152099880D01*
X107623902Y-152099880D02*
X107928664Y-152099880D01*
X107928664Y-152099880D02*
X108004854Y-152137976D01*
X108004854Y-152137976D02*
X108042950Y-152176071D01*
X108042950Y-152176071D02*
X108081045Y-152252261D01*
X108081045Y-152252261D02*
X108081045Y-152404642D01*
X108081045Y-152404642D02*
X108042950Y-152480833D01*
X108042950Y-152480833D02*
X108004854Y-152518928D01*
X108004854Y-152518928D02*
X107928664Y-152557023D01*
X107928664Y-152557023D02*
X107738188Y-152557023D01*
X107738188Y-152557023D02*
X107661997Y-152518928D01*
X107661997Y-152518928D02*
X107623902Y-152480833D01*
X107623902Y-152480833D02*
X107585807Y-152404642D01*
X107585807Y-152404642D02*
X107585807Y-152252261D01*
X107585807Y-152252261D02*
X107623902Y-152176071D01*
X107623902Y-152176071D02*
X107661997Y-152137976D01*
X107661997Y-152137976D02*
X107738188Y-152099880D01*
X79389140Y-150195118D02*
X79351045Y-150118928D01*
X79351045Y-150118928D02*
X79351045Y-150004642D01*
X79351045Y-150004642D02*
X79389140Y-149890356D01*
X79389140Y-149890356D02*
X79465330Y-149814166D01*
X79465330Y-149814166D02*
X79541521Y-149776071D01*
X79541521Y-149776071D02*
X79693902Y-149737975D01*
X79693902Y-149737975D02*
X79808188Y-149737975D01*
X79808188Y-149737975D02*
X79960569Y-149776071D01*
X79960569Y-149776071D02*
X80036759Y-149814166D01*
X80036759Y-149814166D02*
X80112950Y-149890356D01*
X80112950Y-149890356D02*
X80151045Y-150004642D01*
X80151045Y-150004642D02*
X80151045Y-150080833D01*
X80151045Y-150080833D02*
X80112950Y-150195118D01*
X80112950Y-150195118D02*
X80074854Y-150233214D01*
X80074854Y-150233214D02*
X79808188Y-150233214D01*
X79808188Y-150233214D02*
X79808188Y-150080833D01*
X80151045Y-150576071D02*
X79351045Y-150576071D01*
X79351045Y-150576071D02*
X79351045Y-150880833D01*
X79351045Y-150880833D02*
X79389140Y-150957023D01*
X79389140Y-150957023D02*
X79427235Y-150995118D01*
X79427235Y-150995118D02*
X79503426Y-151033214D01*
X79503426Y-151033214D02*
X79617711Y-151033214D01*
X79617711Y-151033214D02*
X79693902Y-150995118D01*
X79693902Y-150995118D02*
X79731997Y-150957023D01*
X79731997Y-150957023D02*
X79770092Y-150880833D01*
X79770092Y-150880833D02*
X79770092Y-150576071D01*
X79427235Y-151337975D02*
X79389140Y-151376071D01*
X79389140Y-151376071D02*
X79351045Y-151452261D01*
X79351045Y-151452261D02*
X79351045Y-151642737D01*
X79351045Y-151642737D02*
X79389140Y-151718928D01*
X79389140Y-151718928D02*
X79427235Y-151757023D01*
X79427235Y-151757023D02*
X79503426Y-151795118D01*
X79503426Y-151795118D02*
X79579616Y-151795118D01*
X79579616Y-151795118D02*
X79693902Y-151757023D01*
X79693902Y-151757023D02*
X80151045Y-151299880D01*
X80151045Y-151299880D02*
X80151045Y-151795118D01*
X79351045Y-152061785D02*
X79351045Y-152595119D01*
X79351045Y-152595119D02*
X80151045Y-152252261D01*
X84459140Y-162156071D02*
X84421045Y-162079881D01*
X84421045Y-162079881D02*
X84421045Y-161965595D01*
X84421045Y-161965595D02*
X84459140Y-161851309D01*
X84459140Y-161851309D02*
X84535330Y-161775119D01*
X84535330Y-161775119D02*
X84611521Y-161737024D01*
X84611521Y-161737024D02*
X84763902Y-161698928D01*
X84763902Y-161698928D02*
X84878188Y-161698928D01*
X84878188Y-161698928D02*
X85030569Y-161737024D01*
X85030569Y-161737024D02*
X85106759Y-161775119D01*
X85106759Y-161775119D02*
X85182950Y-161851309D01*
X85182950Y-161851309D02*
X85221045Y-161965595D01*
X85221045Y-161965595D02*
X85221045Y-162041786D01*
X85221045Y-162041786D02*
X85182950Y-162156071D01*
X85182950Y-162156071D02*
X85144854Y-162194167D01*
X85144854Y-162194167D02*
X84878188Y-162194167D01*
X84878188Y-162194167D02*
X84878188Y-162041786D01*
X85221045Y-162537024D02*
X84421045Y-162537024D01*
X84421045Y-162537024D02*
X84421045Y-162841786D01*
X84421045Y-162841786D02*
X84459140Y-162917976D01*
X84459140Y-162917976D02*
X84497235Y-162956071D01*
X84497235Y-162956071D02*
X84573426Y-162994167D01*
X84573426Y-162994167D02*
X84687711Y-162994167D01*
X84687711Y-162994167D02*
X84763902Y-162956071D01*
X84763902Y-162956071D02*
X84801997Y-162917976D01*
X84801997Y-162917976D02*
X84840092Y-162841786D01*
X84840092Y-162841786D02*
X84840092Y-162537024D01*
X84763902Y-163451309D02*
X84725807Y-163375119D01*
X84725807Y-163375119D02*
X84687711Y-163337024D01*
X84687711Y-163337024D02*
X84611521Y-163298928D01*
X84611521Y-163298928D02*
X84573426Y-163298928D01*
X84573426Y-163298928D02*
X84497235Y-163337024D01*
X84497235Y-163337024D02*
X84459140Y-163375119D01*
X84459140Y-163375119D02*
X84421045Y-163451309D01*
X84421045Y-163451309D02*
X84421045Y-163603690D01*
X84421045Y-163603690D02*
X84459140Y-163679881D01*
X84459140Y-163679881D02*
X84497235Y-163717976D01*
X84497235Y-163717976D02*
X84573426Y-163756071D01*
X84573426Y-163756071D02*
X84611521Y-163756071D01*
X84611521Y-163756071D02*
X84687711Y-163717976D01*
X84687711Y-163717976D02*
X84725807Y-163679881D01*
X84725807Y-163679881D02*
X84763902Y-163603690D01*
X84763902Y-163603690D02*
X84763902Y-163451309D01*
X84763902Y-163451309D02*
X84801997Y-163375119D01*
X84801997Y-163375119D02*
X84840092Y-163337024D01*
X84840092Y-163337024D02*
X84916283Y-163298928D01*
X84916283Y-163298928D02*
X85068664Y-163298928D01*
X85068664Y-163298928D02*
X85144854Y-163337024D01*
X85144854Y-163337024D02*
X85182950Y-163375119D01*
X85182950Y-163375119D02*
X85221045Y-163451309D01*
X85221045Y-163451309D02*
X85221045Y-163603690D01*
X85221045Y-163603690D02*
X85182950Y-163679881D01*
X85182950Y-163679881D02*
X85144854Y-163717976D01*
X85144854Y-163717976D02*
X85068664Y-163756071D01*
X85068664Y-163756071D02*
X84916283Y-163756071D01*
X84916283Y-163756071D02*
X84840092Y-163717976D01*
X84840092Y-163717976D02*
X84801997Y-163679881D01*
X84801997Y-163679881D02*
X84763902Y-163603690D01*
X64139140Y-162117976D02*
X64101045Y-162041786D01*
X64101045Y-162041786D02*
X64101045Y-161927500D01*
X64101045Y-161927500D02*
X64139140Y-161813214D01*
X64139140Y-161813214D02*
X64215330Y-161737024D01*
X64215330Y-161737024D02*
X64291521Y-161698929D01*
X64291521Y-161698929D02*
X64443902Y-161660833D01*
X64443902Y-161660833D02*
X64558188Y-161660833D01*
X64558188Y-161660833D02*
X64710569Y-161698929D01*
X64710569Y-161698929D02*
X64786759Y-161737024D01*
X64786759Y-161737024D02*
X64862950Y-161813214D01*
X64862950Y-161813214D02*
X64901045Y-161927500D01*
X64901045Y-161927500D02*
X64901045Y-162003691D01*
X64901045Y-162003691D02*
X64862950Y-162117976D01*
X64862950Y-162117976D02*
X64824854Y-162156072D01*
X64824854Y-162156072D02*
X64558188Y-162156072D01*
X64558188Y-162156072D02*
X64558188Y-162003691D01*
X64901045Y-162498929D02*
X64101045Y-162498929D01*
X64101045Y-162498929D02*
X64901045Y-162956072D01*
X64901045Y-162956072D02*
X64101045Y-162956072D01*
X64901045Y-163337024D02*
X64101045Y-163337024D01*
X64101045Y-163337024D02*
X64101045Y-163527500D01*
X64101045Y-163527500D02*
X64139140Y-163641786D01*
X64139140Y-163641786D02*
X64215330Y-163717976D01*
X64215330Y-163717976D02*
X64291521Y-163756071D01*
X64291521Y-163756071D02*
X64443902Y-163794167D01*
X64443902Y-163794167D02*
X64558188Y-163794167D01*
X64558188Y-163794167D02*
X64710569Y-163756071D01*
X64710569Y-163756071D02*
X64786759Y-163717976D01*
X64786759Y-163717976D02*
X64862950Y-163641786D01*
X64862950Y-163641786D02*
X64901045Y-163527500D01*
X64901045Y-163527500D02*
X64901045Y-163337024D01*
X107319140Y-161425118D02*
X107281045Y-161348928D01*
X107281045Y-161348928D02*
X107281045Y-161234642D01*
X107281045Y-161234642D02*
X107319140Y-161120356D01*
X107319140Y-161120356D02*
X107395330Y-161044166D01*
X107395330Y-161044166D02*
X107471521Y-161006071D01*
X107471521Y-161006071D02*
X107623902Y-160967975D01*
X107623902Y-160967975D02*
X107738188Y-160967975D01*
X107738188Y-160967975D02*
X107890569Y-161006071D01*
X107890569Y-161006071D02*
X107966759Y-161044166D01*
X107966759Y-161044166D02*
X108042950Y-161120356D01*
X108042950Y-161120356D02*
X108081045Y-161234642D01*
X108081045Y-161234642D02*
X108081045Y-161310833D01*
X108081045Y-161310833D02*
X108042950Y-161425118D01*
X108042950Y-161425118D02*
X108004854Y-161463214D01*
X108004854Y-161463214D02*
X107738188Y-161463214D01*
X107738188Y-161463214D02*
X107738188Y-161310833D01*
X108081045Y-161806071D02*
X107281045Y-161806071D01*
X107281045Y-161806071D02*
X107281045Y-162110833D01*
X107281045Y-162110833D02*
X107319140Y-162187023D01*
X107319140Y-162187023D02*
X107357235Y-162225118D01*
X107357235Y-162225118D02*
X107433426Y-162263214D01*
X107433426Y-162263214D02*
X107547711Y-162263214D01*
X107547711Y-162263214D02*
X107623902Y-162225118D01*
X107623902Y-162225118D02*
X107661997Y-162187023D01*
X107661997Y-162187023D02*
X107700092Y-162110833D01*
X107700092Y-162110833D02*
X107700092Y-161806071D01*
X108081045Y-163025118D02*
X108081045Y-162567975D01*
X108081045Y-162796547D02*
X107281045Y-162796547D01*
X107281045Y-162796547D02*
X107395330Y-162720356D01*
X107395330Y-162720356D02*
X107471521Y-162644166D01*
X107471521Y-162644166D02*
X107509616Y-162567975D01*
X107281045Y-163748928D02*
X107281045Y-163367976D01*
X107281045Y-163367976D02*
X107661997Y-163329880D01*
X107661997Y-163329880D02*
X107623902Y-163367976D01*
X107623902Y-163367976D02*
X107585807Y-163444166D01*
X107585807Y-163444166D02*
X107585807Y-163634642D01*
X107585807Y-163634642D02*
X107623902Y-163710833D01*
X107623902Y-163710833D02*
X107661997Y-163748928D01*
X107661997Y-163748928D02*
X107738188Y-163787023D01*
X107738188Y-163787023D02*
X107928664Y-163787023D01*
X107928664Y-163787023D02*
X108004854Y-163748928D01*
X108004854Y-163748928D02*
X108042950Y-163710833D01*
X108042950Y-163710833D02*
X108081045Y-163634642D01*
X108081045Y-163634642D02*
X108081045Y-163444166D01*
X108081045Y-163444166D02*
X108042950Y-163367976D01*
X108042950Y-163367976D02*
X108004854Y-163329880D01*
X81919140Y-150195118D02*
X81881045Y-150118928D01*
X81881045Y-150118928D02*
X81881045Y-150004642D01*
X81881045Y-150004642D02*
X81919140Y-149890356D01*
X81919140Y-149890356D02*
X81995330Y-149814166D01*
X81995330Y-149814166D02*
X82071521Y-149776071D01*
X82071521Y-149776071D02*
X82223902Y-149737975D01*
X82223902Y-149737975D02*
X82338188Y-149737975D01*
X82338188Y-149737975D02*
X82490569Y-149776071D01*
X82490569Y-149776071D02*
X82566759Y-149814166D01*
X82566759Y-149814166D02*
X82642950Y-149890356D01*
X82642950Y-149890356D02*
X82681045Y-150004642D01*
X82681045Y-150004642D02*
X82681045Y-150080833D01*
X82681045Y-150080833D02*
X82642950Y-150195118D01*
X82642950Y-150195118D02*
X82604854Y-150233214D01*
X82604854Y-150233214D02*
X82338188Y-150233214D01*
X82338188Y-150233214D02*
X82338188Y-150080833D01*
X82681045Y-150576071D02*
X81881045Y-150576071D01*
X81881045Y-150576071D02*
X81881045Y-150880833D01*
X81881045Y-150880833D02*
X81919140Y-150957023D01*
X81919140Y-150957023D02*
X81957235Y-150995118D01*
X81957235Y-150995118D02*
X82033426Y-151033214D01*
X82033426Y-151033214D02*
X82147711Y-151033214D01*
X82147711Y-151033214D02*
X82223902Y-150995118D01*
X82223902Y-150995118D02*
X82261997Y-150957023D01*
X82261997Y-150957023D02*
X82300092Y-150880833D01*
X82300092Y-150880833D02*
X82300092Y-150576071D01*
X81957235Y-151337975D02*
X81919140Y-151376071D01*
X81919140Y-151376071D02*
X81881045Y-151452261D01*
X81881045Y-151452261D02*
X81881045Y-151642737D01*
X81881045Y-151642737D02*
X81919140Y-151718928D01*
X81919140Y-151718928D02*
X81957235Y-151757023D01*
X81957235Y-151757023D02*
X82033426Y-151795118D01*
X82033426Y-151795118D02*
X82109616Y-151795118D01*
X82109616Y-151795118D02*
X82223902Y-151757023D01*
X82223902Y-151757023D02*
X82681045Y-151299880D01*
X82681045Y-151299880D02*
X82681045Y-151795118D01*
X81881045Y-152480833D02*
X81881045Y-152328452D01*
X81881045Y-152328452D02*
X81919140Y-152252261D01*
X81919140Y-152252261D02*
X81957235Y-152214166D01*
X81957235Y-152214166D02*
X82071521Y-152137976D01*
X82071521Y-152137976D02*
X82223902Y-152099880D01*
X82223902Y-152099880D02*
X82528664Y-152099880D01*
X82528664Y-152099880D02*
X82604854Y-152137976D01*
X82604854Y-152137976D02*
X82642950Y-152176071D01*
X82642950Y-152176071D02*
X82681045Y-152252261D01*
X82681045Y-152252261D02*
X82681045Y-152404642D01*
X82681045Y-152404642D02*
X82642950Y-152480833D01*
X82642950Y-152480833D02*
X82604854Y-152518928D01*
X82604854Y-152518928D02*
X82528664Y-152557023D01*
X82528664Y-152557023D02*
X82338188Y-152557023D01*
X82338188Y-152557023D02*
X82261997Y-152518928D01*
X82261997Y-152518928D02*
X82223902Y-152480833D01*
X82223902Y-152480833D02*
X82185807Y-152404642D01*
X82185807Y-152404642D02*
X82185807Y-152252261D01*
X82185807Y-152252261D02*
X82223902Y-152176071D01*
X82223902Y-152176071D02*
X82261997Y-152137976D01*
X82261997Y-152137976D02*
X82338188Y-152099880D01*
X114176069Y-214051964D02*
X113176069Y-214051964D01*
X113176069Y-214051964D02*
X113176069Y-214290059D01*
X113176069Y-214290059D02*
X113223688Y-214432916D01*
X113223688Y-214432916D02*
X113318926Y-214528154D01*
X113318926Y-214528154D02*
X113414164Y-214575773D01*
X113414164Y-214575773D02*
X113604640Y-214623392D01*
X113604640Y-214623392D02*
X113747497Y-214623392D01*
X113747497Y-214623392D02*
X113937973Y-214575773D01*
X113937973Y-214575773D02*
X114033211Y-214528154D01*
X114033211Y-214528154D02*
X114128450Y-214432916D01*
X114128450Y-214432916D02*
X114176069Y-214290059D01*
X114176069Y-214290059D02*
X114176069Y-214051964D01*
X114176069Y-215575773D02*
X114176069Y-215004345D01*
X114176069Y-215290059D02*
X113176069Y-215290059D01*
X113176069Y-215290059D02*
X113318926Y-215194821D01*
X113318926Y-215194821D02*
X113414164Y-215099583D01*
X113414164Y-215099583D02*
X113461783Y-215004345D01*
X113176069Y-215909107D02*
X113176069Y-216575773D01*
X113176069Y-216575773D02*
X114176069Y-216147202D01*
X113856069Y-218814345D02*
X112856069Y-218814345D01*
X113856069Y-219385773D02*
X113284640Y-218957202D01*
X112856069Y-219385773D02*
X113427497Y-218814345D01*
X264353569Y-169600714D02*
X263353569Y-169600714D01*
X263353569Y-169600714D02*
X263353569Y-169838809D01*
X263353569Y-169838809D02*
X263401188Y-169981666D01*
X263401188Y-169981666D02*
X263496426Y-170076904D01*
X263496426Y-170076904D02*
X263591664Y-170124523D01*
X263591664Y-170124523D02*
X263782140Y-170172142D01*
X263782140Y-170172142D02*
X263924997Y-170172142D01*
X263924997Y-170172142D02*
X264115473Y-170124523D01*
X264115473Y-170124523D02*
X264210711Y-170076904D01*
X264210711Y-170076904D02*
X264305950Y-169981666D01*
X264305950Y-169981666D02*
X264353569Y-169838809D01*
X264353569Y-169838809D02*
X264353569Y-169600714D01*
X264353569Y-171124523D02*
X264353569Y-170553095D01*
X264353569Y-170838809D02*
X263353569Y-170838809D01*
X263353569Y-170838809D02*
X263496426Y-170743571D01*
X263496426Y-170743571D02*
X263591664Y-170648333D01*
X263591664Y-170648333D02*
X263639283Y-170553095D01*
X264353569Y-172076904D02*
X264353569Y-171505476D01*
X264353569Y-171791190D02*
X263353569Y-171791190D01*
X263353569Y-171791190D02*
X263496426Y-171695952D01*
X263496426Y-171695952D02*
X263591664Y-171600714D01*
X263591664Y-171600714D02*
X263639283Y-171505476D01*
X264033569Y-174363095D02*
X263033569Y-174363095D01*
X264033569Y-174934523D02*
X263462140Y-174505952D01*
X263033569Y-174934523D02*
X263604997Y-174363095D01*
X245303569Y-203414405D02*
X244303569Y-203414405D01*
X244303569Y-203414405D02*
X244303569Y-203652500D01*
X244303569Y-203652500D02*
X244351188Y-203795357D01*
X244351188Y-203795357D02*
X244446426Y-203890595D01*
X244446426Y-203890595D02*
X244541664Y-203938214D01*
X244541664Y-203938214D02*
X244732140Y-203985833D01*
X244732140Y-203985833D02*
X244874997Y-203985833D01*
X244874997Y-203985833D02*
X245065473Y-203938214D01*
X245065473Y-203938214D02*
X245160711Y-203890595D01*
X245160711Y-203890595D02*
X245255950Y-203795357D01*
X245255950Y-203795357D02*
X245303569Y-203652500D01*
X245303569Y-203652500D02*
X245303569Y-203414405D01*
X244636902Y-204842976D02*
X245303569Y-204842976D01*
X244255950Y-204604881D02*
X244970235Y-204366786D01*
X244970235Y-204366786D02*
X244970235Y-204985833D01*
X244983569Y-207700595D02*
X243983569Y-207700595D01*
X244983569Y-208272023D02*
X244412140Y-207843452D01*
X243983569Y-208272023D02*
X244554997Y-207700595D01*
X207203569Y-169600714D02*
X206203569Y-169600714D01*
X206203569Y-169600714D02*
X206203569Y-169838809D01*
X206203569Y-169838809D02*
X206251188Y-169981666D01*
X206251188Y-169981666D02*
X206346426Y-170076904D01*
X206346426Y-170076904D02*
X206441664Y-170124523D01*
X206441664Y-170124523D02*
X206632140Y-170172142D01*
X206632140Y-170172142D02*
X206774997Y-170172142D01*
X206774997Y-170172142D02*
X206965473Y-170124523D01*
X206965473Y-170124523D02*
X207060711Y-170076904D01*
X207060711Y-170076904D02*
X207155950Y-169981666D01*
X207155950Y-169981666D02*
X207203569Y-169838809D01*
X207203569Y-169838809D02*
X207203569Y-169600714D01*
X207203569Y-171124523D02*
X207203569Y-170553095D01*
X207203569Y-170838809D02*
X206203569Y-170838809D01*
X206203569Y-170838809D02*
X206346426Y-170743571D01*
X206346426Y-170743571D02*
X206441664Y-170648333D01*
X206441664Y-170648333D02*
X206489283Y-170553095D01*
X206203569Y-171743571D02*
X206203569Y-171838809D01*
X206203569Y-171838809D02*
X206251188Y-171934047D01*
X206251188Y-171934047D02*
X206298807Y-171981666D01*
X206298807Y-171981666D02*
X206394045Y-172029285D01*
X206394045Y-172029285D02*
X206584521Y-172076904D01*
X206584521Y-172076904D02*
X206822616Y-172076904D01*
X206822616Y-172076904D02*
X207013092Y-172029285D01*
X207013092Y-172029285D02*
X207108330Y-171981666D01*
X207108330Y-171981666D02*
X207155950Y-171934047D01*
X207155950Y-171934047D02*
X207203569Y-171838809D01*
X207203569Y-171838809D02*
X207203569Y-171743571D01*
X207203569Y-171743571D02*
X207155950Y-171648333D01*
X207155950Y-171648333D02*
X207108330Y-171600714D01*
X207108330Y-171600714D02*
X207013092Y-171553095D01*
X207013092Y-171553095D02*
X206822616Y-171505476D01*
X206822616Y-171505476D02*
X206584521Y-171505476D01*
X206584521Y-171505476D02*
X206394045Y-171553095D01*
X206394045Y-171553095D02*
X206298807Y-171600714D01*
X206298807Y-171600714D02*
X206251188Y-171648333D01*
X206251188Y-171648333D02*
X206203569Y-171743571D01*
X206883569Y-174363095D02*
X205883569Y-174363095D01*
X206883569Y-174934523D02*
X206312140Y-174505952D01*
X205883569Y-174934523D02*
X206454997Y-174363095D01*
X95126069Y-195001964D02*
X94126069Y-195001964D01*
X94126069Y-195001964D02*
X94126069Y-195240059D01*
X94126069Y-195240059D02*
X94173688Y-195382916D01*
X94173688Y-195382916D02*
X94268926Y-195478154D01*
X94268926Y-195478154D02*
X94364164Y-195525773D01*
X94364164Y-195525773D02*
X94554640Y-195573392D01*
X94554640Y-195573392D02*
X94697497Y-195573392D01*
X94697497Y-195573392D02*
X94887973Y-195525773D01*
X94887973Y-195525773D02*
X94983211Y-195478154D01*
X94983211Y-195478154D02*
X95078450Y-195382916D01*
X95078450Y-195382916D02*
X95126069Y-195240059D01*
X95126069Y-195240059D02*
X95126069Y-195001964D01*
X95126069Y-196525773D02*
X95126069Y-195954345D01*
X95126069Y-196240059D02*
X94126069Y-196240059D01*
X94126069Y-196240059D02*
X94268926Y-196144821D01*
X94268926Y-196144821D02*
X94364164Y-196049583D01*
X94364164Y-196049583D02*
X94411783Y-195954345D01*
X94459402Y-197382916D02*
X95126069Y-197382916D01*
X94078450Y-197144821D02*
X94792735Y-196906726D01*
X94792735Y-196906726D02*
X94792735Y-197525773D01*
X94806069Y-199764345D02*
X93806069Y-199764345D01*
X94806069Y-200335773D02*
X94234640Y-199907202D01*
X93806069Y-200335773D02*
X94377497Y-199764345D01*
X378653569Y-203414405D02*
X377653569Y-203414405D01*
X377653569Y-203414405D02*
X377653569Y-203652500D01*
X377653569Y-203652500D02*
X377701188Y-203795357D01*
X377701188Y-203795357D02*
X377796426Y-203890595D01*
X377796426Y-203890595D02*
X377891664Y-203938214D01*
X377891664Y-203938214D02*
X378082140Y-203985833D01*
X378082140Y-203985833D02*
X378224997Y-203985833D01*
X378224997Y-203985833D02*
X378415473Y-203938214D01*
X378415473Y-203938214D02*
X378510711Y-203890595D01*
X378510711Y-203890595D02*
X378605950Y-203795357D01*
X378605950Y-203795357D02*
X378653569Y-203652500D01*
X378653569Y-203652500D02*
X378653569Y-203414405D01*
X378082140Y-204557262D02*
X378034521Y-204462024D01*
X378034521Y-204462024D02*
X377986902Y-204414405D01*
X377986902Y-204414405D02*
X377891664Y-204366786D01*
X377891664Y-204366786D02*
X377844045Y-204366786D01*
X377844045Y-204366786D02*
X377748807Y-204414405D01*
X377748807Y-204414405D02*
X377701188Y-204462024D01*
X377701188Y-204462024D02*
X377653569Y-204557262D01*
X377653569Y-204557262D02*
X377653569Y-204747738D01*
X377653569Y-204747738D02*
X377701188Y-204842976D01*
X377701188Y-204842976D02*
X377748807Y-204890595D01*
X377748807Y-204890595D02*
X377844045Y-204938214D01*
X377844045Y-204938214D02*
X377891664Y-204938214D01*
X377891664Y-204938214D02*
X377986902Y-204890595D01*
X377986902Y-204890595D02*
X378034521Y-204842976D01*
X378034521Y-204842976D02*
X378082140Y-204747738D01*
X378082140Y-204747738D02*
X378082140Y-204557262D01*
X378082140Y-204557262D02*
X378129759Y-204462024D01*
X378129759Y-204462024D02*
X378177378Y-204414405D01*
X378177378Y-204414405D02*
X378272616Y-204366786D01*
X378272616Y-204366786D02*
X378463092Y-204366786D01*
X378463092Y-204366786D02*
X378558330Y-204414405D01*
X378558330Y-204414405D02*
X378605950Y-204462024D01*
X378605950Y-204462024D02*
X378653569Y-204557262D01*
X378653569Y-204557262D02*
X378653569Y-204747738D01*
X378653569Y-204747738D02*
X378605950Y-204842976D01*
X378605950Y-204842976D02*
X378558330Y-204890595D01*
X378558330Y-204890595D02*
X378463092Y-204938214D01*
X378463092Y-204938214D02*
X378272616Y-204938214D01*
X378272616Y-204938214D02*
X378177378Y-204890595D01*
X378177378Y-204890595D02*
X378129759Y-204842976D01*
X378129759Y-204842976D02*
X378082140Y-204747738D01*
X378333569Y-207700595D02*
X377333569Y-207700595D01*
X378333569Y-208272023D02*
X377762140Y-207843452D01*
X377333569Y-208272023D02*
X377904997Y-207700595D01*
X114176069Y-195001964D02*
X113176069Y-195001964D01*
X113176069Y-195001964D02*
X113176069Y-195240059D01*
X113176069Y-195240059D02*
X113223688Y-195382916D01*
X113223688Y-195382916D02*
X113318926Y-195478154D01*
X113318926Y-195478154D02*
X113414164Y-195525773D01*
X113414164Y-195525773D02*
X113604640Y-195573392D01*
X113604640Y-195573392D02*
X113747497Y-195573392D01*
X113747497Y-195573392D02*
X113937973Y-195525773D01*
X113937973Y-195525773D02*
X114033211Y-195478154D01*
X114033211Y-195478154D02*
X114128450Y-195382916D01*
X114128450Y-195382916D02*
X114176069Y-195240059D01*
X114176069Y-195240059D02*
X114176069Y-195001964D01*
X114176069Y-196525773D02*
X114176069Y-195954345D01*
X114176069Y-196240059D02*
X113176069Y-196240059D01*
X113176069Y-196240059D02*
X113318926Y-196144821D01*
X113318926Y-196144821D02*
X113414164Y-196049583D01*
X113414164Y-196049583D02*
X113461783Y-195954345D01*
X113176069Y-197430535D02*
X113176069Y-196954345D01*
X113176069Y-196954345D02*
X113652259Y-196906726D01*
X113652259Y-196906726D02*
X113604640Y-196954345D01*
X113604640Y-196954345D02*
X113557021Y-197049583D01*
X113557021Y-197049583D02*
X113557021Y-197287678D01*
X113557021Y-197287678D02*
X113604640Y-197382916D01*
X113604640Y-197382916D02*
X113652259Y-197430535D01*
X113652259Y-197430535D02*
X113747497Y-197478154D01*
X113747497Y-197478154D02*
X113985592Y-197478154D01*
X113985592Y-197478154D02*
X114080830Y-197430535D01*
X114080830Y-197430535D02*
X114128450Y-197382916D01*
X114128450Y-197382916D02*
X114176069Y-197287678D01*
X114176069Y-197287678D02*
X114176069Y-197049583D01*
X114176069Y-197049583D02*
X114128450Y-196954345D01*
X114128450Y-196954345D02*
X114080830Y-196906726D01*
X113856069Y-199764345D02*
X112856069Y-199764345D01*
X113856069Y-200335773D02*
X113284640Y-199907202D01*
X112856069Y-200335773D02*
X113427497Y-199764345D01*
X188153569Y-203414405D02*
X187153569Y-203414405D01*
X187153569Y-203414405D02*
X187153569Y-203652500D01*
X187153569Y-203652500D02*
X187201188Y-203795357D01*
X187201188Y-203795357D02*
X187296426Y-203890595D01*
X187296426Y-203890595D02*
X187391664Y-203938214D01*
X187391664Y-203938214D02*
X187582140Y-203985833D01*
X187582140Y-203985833D02*
X187724997Y-203985833D01*
X187724997Y-203985833D02*
X187915473Y-203938214D01*
X187915473Y-203938214D02*
X188010711Y-203890595D01*
X188010711Y-203890595D02*
X188105950Y-203795357D01*
X188105950Y-203795357D02*
X188153569Y-203652500D01*
X188153569Y-203652500D02*
X188153569Y-203414405D01*
X187248807Y-204366786D02*
X187201188Y-204414405D01*
X187201188Y-204414405D02*
X187153569Y-204509643D01*
X187153569Y-204509643D02*
X187153569Y-204747738D01*
X187153569Y-204747738D02*
X187201188Y-204842976D01*
X187201188Y-204842976D02*
X187248807Y-204890595D01*
X187248807Y-204890595D02*
X187344045Y-204938214D01*
X187344045Y-204938214D02*
X187439283Y-204938214D01*
X187439283Y-204938214D02*
X187582140Y-204890595D01*
X187582140Y-204890595D02*
X188153569Y-204319167D01*
X188153569Y-204319167D02*
X188153569Y-204938214D01*
X187833569Y-207700595D02*
X186833569Y-207700595D01*
X187833569Y-208272023D02*
X187262140Y-207843452D01*
X186833569Y-208272023D02*
X187404997Y-207700595D01*
X226253569Y-203414405D02*
X225253569Y-203414405D01*
X225253569Y-203414405D02*
X225253569Y-203652500D01*
X225253569Y-203652500D02*
X225301188Y-203795357D01*
X225301188Y-203795357D02*
X225396426Y-203890595D01*
X225396426Y-203890595D02*
X225491664Y-203938214D01*
X225491664Y-203938214D02*
X225682140Y-203985833D01*
X225682140Y-203985833D02*
X225824997Y-203985833D01*
X225824997Y-203985833D02*
X226015473Y-203938214D01*
X226015473Y-203938214D02*
X226110711Y-203890595D01*
X226110711Y-203890595D02*
X226205950Y-203795357D01*
X226205950Y-203795357D02*
X226253569Y-203652500D01*
X226253569Y-203652500D02*
X226253569Y-203414405D01*
X225253569Y-204319167D02*
X225253569Y-204938214D01*
X225253569Y-204938214D02*
X225634521Y-204604881D01*
X225634521Y-204604881D02*
X225634521Y-204747738D01*
X225634521Y-204747738D02*
X225682140Y-204842976D01*
X225682140Y-204842976D02*
X225729759Y-204890595D01*
X225729759Y-204890595D02*
X225824997Y-204938214D01*
X225824997Y-204938214D02*
X226063092Y-204938214D01*
X226063092Y-204938214D02*
X226158330Y-204890595D01*
X226158330Y-204890595D02*
X226205950Y-204842976D01*
X226205950Y-204842976D02*
X226253569Y-204747738D01*
X226253569Y-204747738D02*
X226253569Y-204462024D01*
X226253569Y-204462024D02*
X226205950Y-204366786D01*
X226205950Y-204366786D02*
X226158330Y-204319167D01*
X225933569Y-207700595D02*
X224933569Y-207700595D01*
X225933569Y-208272023D02*
X225362140Y-207843452D01*
X224933569Y-208272023D02*
X225504997Y-207700595D01*
X302453569Y-169600714D02*
X301453569Y-169600714D01*
X301453569Y-169600714D02*
X301453569Y-169838809D01*
X301453569Y-169838809D02*
X301501188Y-169981666D01*
X301501188Y-169981666D02*
X301596426Y-170076904D01*
X301596426Y-170076904D02*
X301691664Y-170124523D01*
X301691664Y-170124523D02*
X301882140Y-170172142D01*
X301882140Y-170172142D02*
X302024997Y-170172142D01*
X302024997Y-170172142D02*
X302215473Y-170124523D01*
X302215473Y-170124523D02*
X302310711Y-170076904D01*
X302310711Y-170076904D02*
X302405950Y-169981666D01*
X302405950Y-169981666D02*
X302453569Y-169838809D01*
X302453569Y-169838809D02*
X302453569Y-169600714D01*
X302453569Y-171124523D02*
X302453569Y-170553095D01*
X302453569Y-170838809D02*
X301453569Y-170838809D01*
X301453569Y-170838809D02*
X301596426Y-170743571D01*
X301596426Y-170743571D02*
X301691664Y-170648333D01*
X301691664Y-170648333D02*
X301739283Y-170553095D01*
X301548807Y-171505476D02*
X301501188Y-171553095D01*
X301501188Y-171553095D02*
X301453569Y-171648333D01*
X301453569Y-171648333D02*
X301453569Y-171886428D01*
X301453569Y-171886428D02*
X301501188Y-171981666D01*
X301501188Y-171981666D02*
X301548807Y-172029285D01*
X301548807Y-172029285D02*
X301644045Y-172076904D01*
X301644045Y-172076904D02*
X301739283Y-172076904D01*
X301739283Y-172076904D02*
X301882140Y-172029285D01*
X301882140Y-172029285D02*
X302453569Y-171457857D01*
X302453569Y-171457857D02*
X302453569Y-172076904D01*
X302133569Y-174363095D02*
X301133569Y-174363095D01*
X302133569Y-174934523D02*
X301562140Y-174505952D01*
X301133569Y-174934523D02*
X301704997Y-174363095D01*
X150053569Y-203414405D02*
X149053569Y-203414405D01*
X149053569Y-203414405D02*
X149053569Y-203652500D01*
X149053569Y-203652500D02*
X149101188Y-203795357D01*
X149101188Y-203795357D02*
X149196426Y-203890595D01*
X149196426Y-203890595D02*
X149291664Y-203938214D01*
X149291664Y-203938214D02*
X149482140Y-203985833D01*
X149482140Y-203985833D02*
X149624997Y-203985833D01*
X149624997Y-203985833D02*
X149815473Y-203938214D01*
X149815473Y-203938214D02*
X149910711Y-203890595D01*
X149910711Y-203890595D02*
X150005950Y-203795357D01*
X150005950Y-203795357D02*
X150053569Y-203652500D01*
X150053569Y-203652500D02*
X150053569Y-203414405D01*
X150053569Y-204938214D02*
X150053569Y-204366786D01*
X150053569Y-204652500D02*
X149053569Y-204652500D01*
X149053569Y-204652500D02*
X149196426Y-204557262D01*
X149196426Y-204557262D02*
X149291664Y-204462024D01*
X149291664Y-204462024D02*
X149339283Y-204366786D01*
X149733569Y-207700595D02*
X148733569Y-207700595D01*
X149733569Y-208272023D02*
X149162140Y-207843452D01*
X148733569Y-208272023D02*
X149304997Y-207700595D01*
X359603569Y-203414405D02*
X358603569Y-203414405D01*
X358603569Y-203414405D02*
X358603569Y-203652500D01*
X358603569Y-203652500D02*
X358651188Y-203795357D01*
X358651188Y-203795357D02*
X358746426Y-203890595D01*
X358746426Y-203890595D02*
X358841664Y-203938214D01*
X358841664Y-203938214D02*
X359032140Y-203985833D01*
X359032140Y-203985833D02*
X359174997Y-203985833D01*
X359174997Y-203985833D02*
X359365473Y-203938214D01*
X359365473Y-203938214D02*
X359460711Y-203890595D01*
X359460711Y-203890595D02*
X359555950Y-203795357D01*
X359555950Y-203795357D02*
X359603569Y-203652500D01*
X359603569Y-203652500D02*
X359603569Y-203414405D01*
X358603569Y-204319167D02*
X358603569Y-204985833D01*
X358603569Y-204985833D02*
X359603569Y-204557262D01*
X359283569Y-207700595D02*
X358283569Y-207700595D01*
X359283569Y-208272023D02*
X358712140Y-207843452D01*
X358283569Y-208272023D02*
X358854997Y-207700595D01*
X340553569Y-169600714D02*
X339553569Y-169600714D01*
X339553569Y-169600714D02*
X339553569Y-169838809D01*
X339553569Y-169838809D02*
X339601188Y-169981666D01*
X339601188Y-169981666D02*
X339696426Y-170076904D01*
X339696426Y-170076904D02*
X339791664Y-170124523D01*
X339791664Y-170124523D02*
X339982140Y-170172142D01*
X339982140Y-170172142D02*
X340124997Y-170172142D01*
X340124997Y-170172142D02*
X340315473Y-170124523D01*
X340315473Y-170124523D02*
X340410711Y-170076904D01*
X340410711Y-170076904D02*
X340505950Y-169981666D01*
X340505950Y-169981666D02*
X340553569Y-169838809D01*
X340553569Y-169838809D02*
X340553569Y-169600714D01*
X340553569Y-171124523D02*
X340553569Y-170553095D01*
X340553569Y-170838809D02*
X339553569Y-170838809D01*
X339553569Y-170838809D02*
X339696426Y-170743571D01*
X339696426Y-170743571D02*
X339791664Y-170648333D01*
X339791664Y-170648333D02*
X339839283Y-170553095D01*
X339553569Y-171457857D02*
X339553569Y-172076904D01*
X339553569Y-172076904D02*
X339934521Y-171743571D01*
X339934521Y-171743571D02*
X339934521Y-171886428D01*
X339934521Y-171886428D02*
X339982140Y-171981666D01*
X339982140Y-171981666D02*
X340029759Y-172029285D01*
X340029759Y-172029285D02*
X340124997Y-172076904D01*
X340124997Y-172076904D02*
X340363092Y-172076904D01*
X340363092Y-172076904D02*
X340458330Y-172029285D01*
X340458330Y-172029285D02*
X340505950Y-171981666D01*
X340505950Y-171981666D02*
X340553569Y-171886428D01*
X340553569Y-171886428D02*
X340553569Y-171600714D01*
X340553569Y-171600714D02*
X340505950Y-171505476D01*
X340505950Y-171505476D02*
X340458330Y-171457857D01*
X340233569Y-174363095D02*
X339233569Y-174363095D01*
X340233569Y-174934523D02*
X339662140Y-174505952D01*
X339233569Y-174934523D02*
X339804997Y-174363095D01*
X283403569Y-203414405D02*
X282403569Y-203414405D01*
X282403569Y-203414405D02*
X282403569Y-203652500D01*
X282403569Y-203652500D02*
X282451188Y-203795357D01*
X282451188Y-203795357D02*
X282546426Y-203890595D01*
X282546426Y-203890595D02*
X282641664Y-203938214D01*
X282641664Y-203938214D02*
X282832140Y-203985833D01*
X282832140Y-203985833D02*
X282974997Y-203985833D01*
X282974997Y-203985833D02*
X283165473Y-203938214D01*
X283165473Y-203938214D02*
X283260711Y-203890595D01*
X283260711Y-203890595D02*
X283355950Y-203795357D01*
X283355950Y-203795357D02*
X283403569Y-203652500D01*
X283403569Y-203652500D02*
X283403569Y-203414405D01*
X282403569Y-204890595D02*
X282403569Y-204414405D01*
X282403569Y-204414405D02*
X282879759Y-204366786D01*
X282879759Y-204366786D02*
X282832140Y-204414405D01*
X282832140Y-204414405D02*
X282784521Y-204509643D01*
X282784521Y-204509643D02*
X282784521Y-204747738D01*
X282784521Y-204747738D02*
X282832140Y-204842976D01*
X282832140Y-204842976D02*
X282879759Y-204890595D01*
X282879759Y-204890595D02*
X282974997Y-204938214D01*
X282974997Y-204938214D02*
X283213092Y-204938214D01*
X283213092Y-204938214D02*
X283308330Y-204890595D01*
X283308330Y-204890595D02*
X283355950Y-204842976D01*
X283355950Y-204842976D02*
X283403569Y-204747738D01*
X283403569Y-204747738D02*
X283403569Y-204509643D01*
X283403569Y-204509643D02*
X283355950Y-204414405D01*
X283355950Y-204414405D02*
X283308330Y-204366786D01*
X283083569Y-207700595D02*
X282083569Y-207700595D01*
X283083569Y-208272023D02*
X282512140Y-207843452D01*
X282083569Y-208272023D02*
X282654997Y-207700595D01*
X95126069Y-214051964D02*
X94126069Y-214051964D01*
X94126069Y-214051964D02*
X94126069Y-214290059D01*
X94126069Y-214290059D02*
X94173688Y-214432916D01*
X94173688Y-214432916D02*
X94268926Y-214528154D01*
X94268926Y-214528154D02*
X94364164Y-214575773D01*
X94364164Y-214575773D02*
X94554640Y-214623392D01*
X94554640Y-214623392D02*
X94697497Y-214623392D01*
X94697497Y-214623392D02*
X94887973Y-214575773D01*
X94887973Y-214575773D02*
X94983211Y-214528154D01*
X94983211Y-214528154D02*
X95078450Y-214432916D01*
X95078450Y-214432916D02*
X95126069Y-214290059D01*
X95126069Y-214290059D02*
X95126069Y-214051964D01*
X95126069Y-215575773D02*
X95126069Y-215004345D01*
X95126069Y-215290059D02*
X94126069Y-215290059D01*
X94126069Y-215290059D02*
X94268926Y-215194821D01*
X94268926Y-215194821D02*
X94364164Y-215099583D01*
X94364164Y-215099583D02*
X94411783Y-215004345D01*
X94126069Y-216432916D02*
X94126069Y-216242440D01*
X94126069Y-216242440D02*
X94173688Y-216147202D01*
X94173688Y-216147202D02*
X94221307Y-216099583D01*
X94221307Y-216099583D02*
X94364164Y-216004345D01*
X94364164Y-216004345D02*
X94554640Y-215956726D01*
X94554640Y-215956726D02*
X94935592Y-215956726D01*
X94935592Y-215956726D02*
X95030830Y-216004345D01*
X95030830Y-216004345D02*
X95078450Y-216051964D01*
X95078450Y-216051964D02*
X95126069Y-216147202D01*
X95126069Y-216147202D02*
X95126069Y-216337678D01*
X95126069Y-216337678D02*
X95078450Y-216432916D01*
X95078450Y-216432916D02*
X95030830Y-216480535D01*
X95030830Y-216480535D02*
X94935592Y-216528154D01*
X94935592Y-216528154D02*
X94697497Y-216528154D01*
X94697497Y-216528154D02*
X94602259Y-216480535D01*
X94602259Y-216480535D02*
X94554640Y-216432916D01*
X94554640Y-216432916D02*
X94507021Y-216337678D01*
X94507021Y-216337678D02*
X94507021Y-216147202D01*
X94507021Y-216147202D02*
X94554640Y-216051964D01*
X94554640Y-216051964D02*
X94602259Y-216004345D01*
X94602259Y-216004345D02*
X94697497Y-215956726D01*
X94806069Y-218814345D02*
X93806069Y-218814345D01*
X94806069Y-219385773D02*
X94234640Y-218957202D01*
X93806069Y-219385773D02*
X94377497Y-218814345D01*
X321503569Y-203414405D02*
X320503569Y-203414405D01*
X320503569Y-203414405D02*
X320503569Y-203652500D01*
X320503569Y-203652500D02*
X320551188Y-203795357D01*
X320551188Y-203795357D02*
X320646426Y-203890595D01*
X320646426Y-203890595D02*
X320741664Y-203938214D01*
X320741664Y-203938214D02*
X320932140Y-203985833D01*
X320932140Y-203985833D02*
X321074997Y-203985833D01*
X321074997Y-203985833D02*
X321265473Y-203938214D01*
X321265473Y-203938214D02*
X321360711Y-203890595D01*
X321360711Y-203890595D02*
X321455950Y-203795357D01*
X321455950Y-203795357D02*
X321503569Y-203652500D01*
X321503569Y-203652500D02*
X321503569Y-203414405D01*
X320503569Y-204842976D02*
X320503569Y-204652500D01*
X320503569Y-204652500D02*
X320551188Y-204557262D01*
X320551188Y-204557262D02*
X320598807Y-204509643D01*
X320598807Y-204509643D02*
X320741664Y-204414405D01*
X320741664Y-204414405D02*
X320932140Y-204366786D01*
X320932140Y-204366786D02*
X321313092Y-204366786D01*
X321313092Y-204366786D02*
X321408330Y-204414405D01*
X321408330Y-204414405D02*
X321455950Y-204462024D01*
X321455950Y-204462024D02*
X321503569Y-204557262D01*
X321503569Y-204557262D02*
X321503569Y-204747738D01*
X321503569Y-204747738D02*
X321455950Y-204842976D01*
X321455950Y-204842976D02*
X321408330Y-204890595D01*
X321408330Y-204890595D02*
X321313092Y-204938214D01*
X321313092Y-204938214D02*
X321074997Y-204938214D01*
X321074997Y-204938214D02*
X320979759Y-204890595D01*
X320979759Y-204890595D02*
X320932140Y-204842976D01*
X320932140Y-204842976D02*
X320884521Y-204747738D01*
X320884521Y-204747738D02*
X320884521Y-204557262D01*
X320884521Y-204557262D02*
X320932140Y-204462024D01*
X320932140Y-204462024D02*
X320979759Y-204414405D01*
X320979759Y-204414405D02*
X321074997Y-204366786D01*
X321183569Y-207700595D02*
X320183569Y-207700595D01*
X321183569Y-208272023D02*
X320612140Y-207843452D01*
X320183569Y-208272023D02*
X320754997Y-207700595D01*
X169103569Y-170076905D02*
X168103569Y-170076905D01*
X168103569Y-170076905D02*
X168103569Y-170315000D01*
X168103569Y-170315000D02*
X168151188Y-170457857D01*
X168151188Y-170457857D02*
X168246426Y-170553095D01*
X168246426Y-170553095D02*
X168341664Y-170600714D01*
X168341664Y-170600714D02*
X168532140Y-170648333D01*
X168532140Y-170648333D02*
X168674997Y-170648333D01*
X168674997Y-170648333D02*
X168865473Y-170600714D01*
X168865473Y-170600714D02*
X168960711Y-170553095D01*
X168960711Y-170553095D02*
X169055950Y-170457857D01*
X169055950Y-170457857D02*
X169103569Y-170315000D01*
X169103569Y-170315000D02*
X169103569Y-170076905D01*
X169103569Y-171124524D02*
X169103569Y-171315000D01*
X169103569Y-171315000D02*
X169055950Y-171410238D01*
X169055950Y-171410238D02*
X169008330Y-171457857D01*
X169008330Y-171457857D02*
X168865473Y-171553095D01*
X168865473Y-171553095D02*
X168674997Y-171600714D01*
X168674997Y-171600714D02*
X168294045Y-171600714D01*
X168294045Y-171600714D02*
X168198807Y-171553095D01*
X168198807Y-171553095D02*
X168151188Y-171505476D01*
X168151188Y-171505476D02*
X168103569Y-171410238D01*
X168103569Y-171410238D02*
X168103569Y-171219762D01*
X168103569Y-171219762D02*
X168151188Y-171124524D01*
X168151188Y-171124524D02*
X168198807Y-171076905D01*
X168198807Y-171076905D02*
X168294045Y-171029286D01*
X168294045Y-171029286D02*
X168532140Y-171029286D01*
X168532140Y-171029286D02*
X168627378Y-171076905D01*
X168627378Y-171076905D02*
X168674997Y-171124524D01*
X168674997Y-171124524D02*
X168722616Y-171219762D01*
X168722616Y-171219762D02*
X168722616Y-171410238D01*
X168722616Y-171410238D02*
X168674997Y-171505476D01*
X168674997Y-171505476D02*
X168627378Y-171553095D01*
X168627378Y-171553095D02*
X168532140Y-171600714D01*
X168783569Y-174363095D02*
X167783569Y-174363095D01*
X168783569Y-174934523D02*
X168212140Y-174505952D01*
X167783569Y-174934523D02*
X168354997Y-174363095D01*
G04 #@! TO.C,U1*
X58088750Y-146187500D02*
X58088750Y-167187500D01*
X58088750Y-146187500D02*
X109088750Y-146187500D01*
X58088750Y-167187500D02*
X109088750Y-167187500D01*
X60755750Y-146187500D02*
X60755750Y-149194500D01*
X60755750Y-149194500D02*
X58088750Y-149194500D01*
X109088750Y-167187500D02*
X109088750Y-146187500D01*
D11*
G04 #@! TO.C,D17*
X110481250Y-213146250D02*
X110481250Y-217386250D01*
X110481250Y-216546250D02*
X112721250Y-216546250D01*
X110481250Y-216666250D02*
X112721250Y-216666250D01*
X110481250Y-216786250D02*
X112721250Y-216786250D01*
X110481250Y-217386250D02*
X112721250Y-217386250D01*
X111601250Y-213146250D02*
X111601250Y-212496250D01*
X111601250Y-217386250D02*
X111601250Y-218036250D01*
X112721250Y-213146250D02*
X110481250Y-213146250D01*
X112721250Y-217386250D02*
X112721250Y-213146250D01*
G04 #@! TO.C,D11*
X260658750Y-168695000D02*
X260658750Y-172935000D01*
X260658750Y-172095000D02*
X262898750Y-172095000D01*
X260658750Y-172215000D02*
X262898750Y-172215000D01*
X260658750Y-172335000D02*
X262898750Y-172335000D01*
X260658750Y-172935000D02*
X262898750Y-172935000D01*
X261778750Y-168695000D02*
X261778750Y-168045000D01*
X261778750Y-172935000D02*
X261778750Y-173585000D01*
X262898750Y-168695000D02*
X260658750Y-168695000D01*
X262898750Y-172935000D02*
X262898750Y-168695000D01*
G04 #@! TO.C,D4*
X241608750Y-202032500D02*
X241608750Y-206272500D01*
X241608750Y-205432500D02*
X243848750Y-205432500D01*
X241608750Y-205552500D02*
X243848750Y-205552500D01*
X241608750Y-205672500D02*
X243848750Y-205672500D01*
X241608750Y-206272500D02*
X243848750Y-206272500D01*
X242728750Y-202032500D02*
X242728750Y-201382500D01*
X242728750Y-206272500D02*
X242728750Y-206922500D01*
X243848750Y-202032500D02*
X241608750Y-202032500D01*
X243848750Y-206272500D02*
X243848750Y-202032500D01*
G04 #@! TO.C,D10*
X203508750Y-168695000D02*
X203508750Y-172935000D01*
X203508750Y-172095000D02*
X205748750Y-172095000D01*
X203508750Y-172215000D02*
X205748750Y-172215000D01*
X203508750Y-172335000D02*
X205748750Y-172335000D01*
X203508750Y-172935000D02*
X205748750Y-172935000D01*
X204628750Y-168695000D02*
X204628750Y-168045000D01*
X204628750Y-172935000D02*
X204628750Y-173585000D01*
X205748750Y-168695000D02*
X203508750Y-168695000D01*
X205748750Y-172935000D02*
X205748750Y-168695000D01*
G04 #@! TO.C,D14*
X91431250Y-194096250D02*
X91431250Y-198336250D01*
X91431250Y-197496250D02*
X93671250Y-197496250D01*
X91431250Y-197616250D02*
X93671250Y-197616250D01*
X91431250Y-197736250D02*
X93671250Y-197736250D01*
X91431250Y-198336250D02*
X93671250Y-198336250D01*
X92551250Y-194096250D02*
X92551250Y-193446250D01*
X92551250Y-198336250D02*
X92551250Y-198986250D01*
X93671250Y-194096250D02*
X91431250Y-194096250D01*
X93671250Y-198336250D02*
X93671250Y-194096250D01*
G04 #@! TO.C,D8*
X374958750Y-202032500D02*
X374958750Y-206272500D01*
X374958750Y-205432500D02*
X377198750Y-205432500D01*
X374958750Y-205552500D02*
X377198750Y-205552500D01*
X374958750Y-205672500D02*
X377198750Y-205672500D01*
X374958750Y-206272500D02*
X377198750Y-206272500D01*
X376078750Y-202032500D02*
X376078750Y-201382500D01*
X376078750Y-206272500D02*
X376078750Y-206922500D01*
X377198750Y-202032500D02*
X374958750Y-202032500D01*
X377198750Y-206272500D02*
X377198750Y-202032500D01*
G04 #@! TO.C,D15*
X110481250Y-194096250D02*
X110481250Y-198336250D01*
X110481250Y-197496250D02*
X112721250Y-197496250D01*
X110481250Y-197616250D02*
X112721250Y-197616250D01*
X110481250Y-197736250D02*
X112721250Y-197736250D01*
X110481250Y-198336250D02*
X112721250Y-198336250D01*
X111601250Y-194096250D02*
X111601250Y-193446250D01*
X111601250Y-198336250D02*
X111601250Y-198986250D01*
X112721250Y-194096250D02*
X110481250Y-194096250D01*
X112721250Y-198336250D02*
X112721250Y-194096250D01*
G04 #@! TO.C,D2*
X184458750Y-202032500D02*
X184458750Y-206272500D01*
X184458750Y-205432500D02*
X186698750Y-205432500D01*
X184458750Y-205552500D02*
X186698750Y-205552500D01*
X184458750Y-205672500D02*
X186698750Y-205672500D01*
X184458750Y-206272500D02*
X186698750Y-206272500D01*
X185578750Y-202032500D02*
X185578750Y-201382500D01*
X185578750Y-206272500D02*
X185578750Y-206922500D01*
X186698750Y-202032500D02*
X184458750Y-202032500D01*
X186698750Y-206272500D02*
X186698750Y-202032500D01*
G04 #@! TO.C,D3*
X222558750Y-202032500D02*
X222558750Y-206272500D01*
X222558750Y-205432500D02*
X224798750Y-205432500D01*
X222558750Y-205552500D02*
X224798750Y-205552500D01*
X222558750Y-205672500D02*
X224798750Y-205672500D01*
X222558750Y-206272500D02*
X224798750Y-206272500D01*
X223678750Y-202032500D02*
X223678750Y-201382500D01*
X223678750Y-206272500D02*
X223678750Y-206922500D01*
X224798750Y-202032500D02*
X222558750Y-202032500D01*
X224798750Y-206272500D02*
X224798750Y-202032500D01*
G04 #@! TO.C,D12*
X298758750Y-168695000D02*
X298758750Y-172935000D01*
X298758750Y-172095000D02*
X300998750Y-172095000D01*
X298758750Y-172215000D02*
X300998750Y-172215000D01*
X298758750Y-172335000D02*
X300998750Y-172335000D01*
X298758750Y-172935000D02*
X300998750Y-172935000D01*
X299878750Y-168695000D02*
X299878750Y-168045000D01*
X299878750Y-172935000D02*
X299878750Y-173585000D01*
X300998750Y-168695000D02*
X298758750Y-168695000D01*
X300998750Y-172935000D02*
X300998750Y-168695000D01*
G04 #@! TO.C,D1*
X146358750Y-202032500D02*
X146358750Y-206272500D01*
X146358750Y-205432500D02*
X148598750Y-205432500D01*
X146358750Y-205552500D02*
X148598750Y-205552500D01*
X146358750Y-205672500D02*
X148598750Y-205672500D01*
X146358750Y-206272500D02*
X148598750Y-206272500D01*
X147478750Y-202032500D02*
X147478750Y-201382500D01*
X147478750Y-206272500D02*
X147478750Y-206922500D01*
X148598750Y-202032500D02*
X146358750Y-202032500D01*
X148598750Y-206272500D02*
X148598750Y-202032500D01*
G04 #@! TO.C,D7*
X355908750Y-202032500D02*
X355908750Y-206272500D01*
X355908750Y-205432500D02*
X358148750Y-205432500D01*
X355908750Y-205552500D02*
X358148750Y-205552500D01*
X355908750Y-205672500D02*
X358148750Y-205672500D01*
X355908750Y-206272500D02*
X358148750Y-206272500D01*
X357028750Y-202032500D02*
X357028750Y-201382500D01*
X357028750Y-206272500D02*
X357028750Y-206922500D01*
X358148750Y-202032500D02*
X355908750Y-202032500D01*
X358148750Y-206272500D02*
X358148750Y-202032500D01*
G04 #@! TO.C,D13*
X336858750Y-168695000D02*
X336858750Y-172935000D01*
X336858750Y-172095000D02*
X339098750Y-172095000D01*
X336858750Y-172215000D02*
X339098750Y-172215000D01*
X336858750Y-172335000D02*
X339098750Y-172335000D01*
X336858750Y-172935000D02*
X339098750Y-172935000D01*
X337978750Y-168695000D02*
X337978750Y-168045000D01*
X337978750Y-172935000D02*
X337978750Y-173585000D01*
X339098750Y-168695000D02*
X336858750Y-168695000D01*
X339098750Y-172935000D02*
X339098750Y-168695000D01*
G04 #@! TO.C,D5*
X279708750Y-202032500D02*
X279708750Y-206272500D01*
X279708750Y-205432500D02*
X281948750Y-205432500D01*
X279708750Y-205552500D02*
X281948750Y-205552500D01*
X279708750Y-205672500D02*
X281948750Y-205672500D01*
X279708750Y-206272500D02*
X281948750Y-206272500D01*
X280828750Y-202032500D02*
X280828750Y-201382500D01*
X280828750Y-206272500D02*
X280828750Y-206922500D01*
X281948750Y-202032500D02*
X279708750Y-202032500D01*
X281948750Y-206272500D02*
X281948750Y-202032500D01*
G04 #@! TO.C,D16*
X91431250Y-213146250D02*
X91431250Y-217386250D01*
X91431250Y-216546250D02*
X93671250Y-216546250D01*
X91431250Y-216666250D02*
X93671250Y-216666250D01*
X91431250Y-216786250D02*
X93671250Y-216786250D01*
X91431250Y-217386250D02*
X93671250Y-217386250D01*
X92551250Y-213146250D02*
X92551250Y-212496250D01*
X92551250Y-217386250D02*
X92551250Y-218036250D01*
X93671250Y-213146250D02*
X91431250Y-213146250D01*
X93671250Y-217386250D02*
X93671250Y-213146250D01*
G04 #@! TO.C,D6*
X317808750Y-202032500D02*
X317808750Y-206272500D01*
X317808750Y-205432500D02*
X320048750Y-205432500D01*
X317808750Y-205552500D02*
X320048750Y-205552500D01*
X317808750Y-205672500D02*
X320048750Y-205672500D01*
X317808750Y-206272500D02*
X320048750Y-206272500D01*
X318928750Y-202032500D02*
X318928750Y-201382500D01*
X318928750Y-206272500D02*
X318928750Y-206922500D01*
X320048750Y-202032500D02*
X317808750Y-202032500D01*
X320048750Y-206272500D02*
X320048750Y-202032500D01*
G04 #@! TO.C,D9*
X165408750Y-168695000D02*
X165408750Y-172935000D01*
X165408750Y-172095000D02*
X167648750Y-172095000D01*
X165408750Y-172215000D02*
X167648750Y-172215000D01*
X165408750Y-172335000D02*
X167648750Y-172335000D01*
X165408750Y-172935000D02*
X167648750Y-172935000D01*
X166528750Y-168695000D02*
X166528750Y-168045000D01*
X166528750Y-172935000D02*
X166528750Y-173585000D01*
X167648750Y-168695000D02*
X165408750Y-168695000D01*
X167648750Y-172935000D02*
X167648750Y-168695000D01*
G04 #@! TD*
%LPC*%
D12*
G04 #@! TO.C,SW9*
X151923750Y-171767500D03*
D13*
X157003750Y-171767500D03*
D12*
X162083750Y-171767500D03*
D14*
X153193750Y-169227500D03*
X159543750Y-166687500D03*
G04 #@! TD*
D12*
G04 #@! TO.C,SW17*
X96996250Y-216218750D03*
D13*
X102076250Y-216218750D03*
D12*
X107156250Y-216218750D03*
D14*
X98266250Y-213678750D03*
X104616250Y-211138750D03*
G04 #@! TD*
D12*
G04 #@! TO.C,SW8*
X361473750Y-205105000D03*
D13*
X366553750Y-205105000D03*
D12*
X371633750Y-205105000D03*
D14*
X362743750Y-202565000D03*
X369093750Y-200025000D03*
G04 #@! TD*
D15*
G04 #@! TO.C,REF\u002A\u002A*
X339898750Y-220780000D03*
D16*
X355108750Y-220780000D03*
D15*
X339898750Y-182680000D03*
D16*
X355108750Y-182680000D03*
G04 #@! TD*
D15*
G04 #@! TO.C,REF\u002A\u002A*
X320848750Y-187442500D03*
D16*
X336058750Y-187442500D03*
D15*
X320848750Y-149342500D03*
D16*
X336058750Y-149342500D03*
G04 #@! TD*
D15*
G04 #@! TO.C,REF\u002A\u002A*
X168448750Y-220780000D03*
D16*
X183658750Y-220780000D03*
D15*
X168448750Y-182680000D03*
D16*
X183658750Y-182680000D03*
G04 #@! TD*
D12*
G04 #@! TO.C,SW2*
X170973750Y-205105000D03*
D13*
X176053750Y-205105000D03*
D12*
X181133750Y-205105000D03*
D14*
X172243750Y-202565000D03*
X178593750Y-200025000D03*
G04 #@! TD*
D12*
G04 #@! TO.C,SW13*
X323373750Y-171767500D03*
D13*
X328453750Y-171767500D03*
D12*
X333533750Y-171767500D03*
D14*
X324643750Y-169227500D03*
X330993750Y-166687500D03*
G04 #@! TD*
D12*
G04 #@! TO.C,SW10*
X190023750Y-171767500D03*
D13*
X195103750Y-171767500D03*
D12*
X200183750Y-171767500D03*
D14*
X191293750Y-169227500D03*
X197643750Y-166687500D03*
G04 #@! TD*
D15*
G04 #@! TO.C,REF\u002A\u002A*
X301798750Y-220780000D03*
D16*
X317008750Y-220780000D03*
D15*
X301798750Y-182680000D03*
D16*
X317008750Y-182680000D03*
G04 #@! TD*
D15*
G04 #@! TO.C,REF\u002A\u002A*
X263698750Y-220780000D03*
D16*
X278908750Y-220780000D03*
D15*
X263698750Y-182680000D03*
D16*
X278908750Y-182680000D03*
G04 #@! TD*
D12*
G04 #@! TO.C,SW16*
X77946250Y-216218750D03*
D13*
X83026250Y-216218750D03*
D12*
X88106250Y-216218750D03*
D14*
X79216250Y-213678750D03*
X85566250Y-211138750D03*
G04 #@! TD*
D12*
G04 #@! TO.C,SW15*
X96996250Y-197168750D03*
D13*
X102076250Y-197168750D03*
D12*
X107156250Y-197168750D03*
D14*
X98266250Y-194628750D03*
X104616250Y-192088750D03*
G04 #@! TD*
D12*
G04 #@! TO.C,SW12*
X285273750Y-171767500D03*
D13*
X290353750Y-171767500D03*
D12*
X295433750Y-171767500D03*
D14*
X286543750Y-169227500D03*
X292893750Y-166687500D03*
G04 #@! TD*
D15*
G04 #@! TO.C,REF\u002A\u002A*
X149398750Y-187442500D03*
D16*
X164608750Y-187442500D03*
D15*
X149398750Y-149342500D03*
D16*
X164608750Y-149342500D03*
G04 #@! TD*
D12*
G04 #@! TO.C,SW3*
X209073750Y-205105000D03*
D13*
X214153750Y-205105000D03*
D12*
X219233750Y-205105000D03*
D14*
X210343750Y-202565000D03*
X216693750Y-200025000D03*
G04 #@! TD*
D12*
G04 #@! TO.C,SW7*
X342423750Y-205105000D03*
D13*
X347503750Y-205105000D03*
D12*
X352583750Y-205105000D03*
D14*
X343693750Y-202565000D03*
X350043750Y-200025000D03*
G04 #@! TD*
D15*
G04 #@! TO.C,REF\u002A\u002A*
X187498750Y-187442500D03*
D16*
X202708750Y-187442500D03*
D15*
X187498750Y-149342500D03*
D16*
X202708750Y-149342500D03*
G04 #@! TD*
D17*
G04 #@! TO.C,U2*
X84931250Y-181296250D03*
D18*
X87471250Y-181296250D03*
X90011250Y-181296250D03*
X92551250Y-181296250D03*
X95091250Y-181296250D03*
X97631250Y-181296250D03*
X100171250Y-181296250D03*
X100171250Y-173356250D03*
X97631250Y-173356250D03*
X95091250Y-173356250D03*
X92551250Y-173356250D03*
X90011250Y-173356250D03*
X87471250Y-173356250D03*
X84931250Y-173356250D03*
G04 #@! TD*
D15*
G04 #@! TO.C,REF\u002A\u002A*
X206548750Y-220780000D03*
D16*
X221758750Y-220780000D03*
D15*
X206548750Y-182680000D03*
D16*
X221758750Y-182680000D03*
G04 #@! TD*
D15*
G04 #@! TO.C,REF\u002A\u002A*
X244648750Y-187442500D03*
D16*
X259858750Y-187442500D03*
D15*
X244648750Y-149342500D03*
D16*
X259858750Y-149342500D03*
G04 #@! TD*
D12*
G04 #@! TO.C,SW1*
X132873750Y-205105000D03*
D13*
X137953750Y-205105000D03*
D12*
X143033750Y-205105000D03*
D14*
X134143750Y-202565000D03*
X140493750Y-200025000D03*
G04 #@! TD*
D12*
G04 #@! TO.C,SW4*
X228123750Y-205105000D03*
D13*
X233203750Y-205105000D03*
D12*
X238283750Y-205105000D03*
D14*
X229393750Y-202565000D03*
X235743750Y-200025000D03*
G04 #@! TD*
D15*
G04 #@! TO.C,REF\u002A\u002A*
X358948750Y-220780000D03*
D16*
X374158750Y-220780000D03*
D15*
X358948750Y-182680000D03*
D16*
X374158750Y-182680000D03*
G04 #@! TD*
D15*
G04 #@! TO.C,REF\u002A\u002A*
X225598750Y-220780000D03*
D16*
X240808750Y-220780000D03*
D15*
X225598750Y-182680000D03*
D16*
X240808750Y-182680000D03*
G04 #@! TD*
D19*
G04 #@! TO.C,U1*
X59458750Y-165577500D03*
X61998750Y-165577500D03*
D20*
X64538750Y-165577500D03*
D19*
X67078750Y-165577500D03*
X69618750Y-165577500D03*
X72158750Y-165577500D03*
X74698750Y-165577500D03*
D20*
X77238750Y-165577500D03*
D19*
X79778750Y-165577500D03*
X82318750Y-165577500D03*
X84858750Y-165577500D03*
X87398750Y-165577500D03*
D20*
X89938750Y-165577500D03*
D19*
X92478750Y-165577500D03*
X95018750Y-165577500D03*
X97558750Y-165577500D03*
X100098750Y-165577500D03*
D20*
X102638750Y-165577500D03*
D19*
X105178750Y-165577500D03*
X107718750Y-165577500D03*
X107718750Y-147797500D03*
X105178750Y-147797500D03*
D20*
X102638750Y-147797500D03*
D19*
X100098750Y-147797500D03*
X97558750Y-147797500D03*
X95018750Y-147797500D03*
X92478750Y-147797500D03*
D20*
X89938750Y-147797500D03*
D19*
X87398750Y-147797500D03*
X84858750Y-147797500D03*
X82318750Y-147797500D03*
X79778750Y-147797500D03*
D20*
X77238750Y-147797500D03*
D19*
X74698750Y-147797500D03*
X72158750Y-147797500D03*
X69618750Y-147797500D03*
X67078750Y-147797500D03*
D20*
X64538750Y-147797500D03*
D19*
X61998750Y-147797500D03*
X59458750Y-147797500D03*
X107488750Y-159227500D03*
D20*
X107488750Y-156687500D03*
D19*
X107488750Y-154147500D03*
G04 #@! TD*
D15*
G04 #@! TO.C,REF\u002A\u002A*
X282748750Y-187442500D03*
D16*
X297958750Y-187442500D03*
D15*
X282748750Y-149342500D03*
D16*
X297958750Y-149342500D03*
G04 #@! TD*
D15*
G04 #@! TO.C,REF\u002A\u002A*
X130348750Y-220780000D03*
D16*
X145558750Y-220780000D03*
D15*
X130348750Y-182680000D03*
D16*
X145558750Y-182680000D03*
G04 #@! TD*
D12*
G04 #@! TO.C,SW6*
X304323750Y-205105000D03*
D13*
X309403750Y-205105000D03*
D12*
X314483750Y-205105000D03*
D14*
X305593750Y-202565000D03*
X311943750Y-200025000D03*
G04 #@! TD*
D12*
G04 #@! TO.C,SW5*
X266223750Y-205105000D03*
D13*
X271303750Y-205105000D03*
D12*
X276383750Y-205105000D03*
D14*
X267493750Y-202565000D03*
X273843750Y-200025000D03*
G04 #@! TD*
D12*
G04 #@! TO.C,SW14*
X77946250Y-197168750D03*
D13*
X83026250Y-197168750D03*
D12*
X88106250Y-197168750D03*
D14*
X79216250Y-194628750D03*
X85566250Y-192088750D03*
G04 #@! TD*
D12*
G04 #@! TO.C,SW11*
X247173750Y-171767500D03*
D13*
X252253750Y-171767500D03*
D12*
X257333750Y-171767500D03*
D14*
X248443750Y-169227500D03*
X254793750Y-166687500D03*
G04 #@! TD*
D21*
G04 #@! TO.C,D17*
X111601250Y-219076250D03*
D22*
X111601250Y-211456250D03*
G04 #@! TD*
D21*
G04 #@! TO.C,D11*
X261778750Y-174625000D03*
D22*
X261778750Y-167005000D03*
G04 #@! TD*
D21*
G04 #@! TO.C,D4*
X242728750Y-207962500D03*
D22*
X242728750Y-200342500D03*
G04 #@! TD*
D21*
G04 #@! TO.C,D10*
X204628750Y-174625000D03*
D22*
X204628750Y-167005000D03*
G04 #@! TD*
D21*
G04 #@! TO.C,D14*
X92551250Y-200026250D03*
D22*
X92551250Y-192406250D03*
G04 #@! TD*
D21*
G04 #@! TO.C,D8*
X376078750Y-207962500D03*
D22*
X376078750Y-200342500D03*
G04 #@! TD*
D21*
G04 #@! TO.C,D15*
X111601250Y-200026250D03*
D22*
X111601250Y-192406250D03*
G04 #@! TD*
D21*
G04 #@! TO.C,D2*
X185578750Y-207962500D03*
D22*
X185578750Y-200342500D03*
G04 #@! TD*
D21*
G04 #@! TO.C,D3*
X223678750Y-207962500D03*
D22*
X223678750Y-200342500D03*
G04 #@! TD*
D21*
G04 #@! TO.C,D12*
X299878750Y-174625000D03*
D22*
X299878750Y-167005000D03*
G04 #@! TD*
D21*
G04 #@! TO.C,D1*
X147478750Y-207962500D03*
D22*
X147478750Y-200342500D03*
G04 #@! TD*
D21*
G04 #@! TO.C,D7*
X357028750Y-207962500D03*
D22*
X357028750Y-200342500D03*
G04 #@! TD*
D21*
G04 #@! TO.C,D13*
X337978750Y-174625000D03*
D22*
X337978750Y-167005000D03*
G04 #@! TD*
D21*
G04 #@! TO.C,D5*
X280828750Y-207962500D03*
D22*
X280828750Y-200342500D03*
G04 #@! TD*
D21*
G04 #@! TO.C,D16*
X92551250Y-219076250D03*
D22*
X92551250Y-211456250D03*
G04 #@! TD*
D21*
G04 #@! TO.C,D6*
X318928750Y-207962500D03*
D22*
X318928750Y-200342500D03*
G04 #@! TD*
D21*
G04 #@! TO.C,D9*
X166528750Y-174625000D03*
D22*
X166528750Y-167005000D03*
G04 #@! TD*
%LPD*%
M02*
