G04 #@! TF.GenerationSoftware,KiCad,Pcbnew,8.0.3*
G04 #@! TF.CreationDate,2024-07-25T17:07:34-07:00*
G04 #@! TF.ProjectId,melokey,6d656c6f-6b65-4792-9e6b-696361645f70,rev?*
G04 #@! TF.SameCoordinates,Original*
G04 #@! TF.FileFunction,Paste,Top*
G04 #@! TF.FilePolarity,Positive*
%FSLAX46Y46*%
G04 Gerber Fmt 4.6, Leading zero omitted, Abs format (unit mm)*
G04 Created by KiCad (PCBNEW 8.0.3) date 2024-07-25 17:07:34*
%MOMM*%
%LPD*%
G01*
G04 APERTURE LIST*
%ADD10R,1.800000X0.820000*%
G04 APERTURE END LIST*
D10*
G04 #@! TO.C,D25*
X363543750Y-228167500D03*
X363543750Y-229667500D03*
X369563750Y-229667500D03*
X369563750Y-228167500D03*
G04 #@! TD*
G04 #@! TO.C,D20*
X206381250Y-228167500D03*
X206381250Y-229667500D03*
X212401250Y-229667500D03*
X212401250Y-228167500D03*
G04 #@! TD*
G04 #@! TO.C,D29*
X287343750Y-194830000D03*
X287343750Y-196330000D03*
X293363750Y-196330000D03*
X293363750Y-194830000D03*
G04 #@! TD*
G04 #@! TO.C,D21*
X234956250Y-228167500D03*
X234956250Y-229667500D03*
X240976250Y-229667500D03*
X240976250Y-228167500D03*
G04 #@! TD*
G04 #@! TO.C,D30*
X325443750Y-194830000D03*
X325443750Y-196330000D03*
X331463750Y-196330000D03*
X331463750Y-194830000D03*
G04 #@! TD*
G04 #@! TO.C,D23*
X306393750Y-228167500D03*
X306393750Y-229667500D03*
X312413750Y-229667500D03*
X312413750Y-228167500D03*
G04 #@! TD*
G04 #@! TO.C,D28*
X249243750Y-194830000D03*
X249243750Y-196330000D03*
X255263750Y-196330000D03*
X255263750Y-194830000D03*
G04 #@! TD*
G04 #@! TO.C,D19*
X173043750Y-228167500D03*
X173043750Y-229667500D03*
X179063750Y-229667500D03*
X179063750Y-228167500D03*
G04 #@! TD*
G04 #@! TO.C,D26*
X153993750Y-194830000D03*
X153993750Y-196330000D03*
X160013750Y-196330000D03*
X160013750Y-194830000D03*
G04 #@! TD*
G04 #@! TO.C,D27*
X192093750Y-194830000D03*
X192093750Y-196330000D03*
X198113750Y-196330000D03*
X198113750Y-194830000D03*
G04 #@! TD*
G04 #@! TO.C,D22*
X268293750Y-228167500D03*
X268293750Y-229667500D03*
X274313750Y-229667500D03*
X274313750Y-228167500D03*
G04 #@! TD*
G04 #@! TO.C,D18*
X137325000Y-228167500D03*
X137325000Y-229667500D03*
X143345000Y-229667500D03*
X143345000Y-228167500D03*
G04 #@! TD*
G04 #@! TO.C,D24*
X339731250Y-228167500D03*
X339731250Y-229667500D03*
X345751250Y-229667500D03*
X345751250Y-228167500D03*
G04 #@! TD*
M02*
