G04 #@! TF.GenerationSoftware,KiCad,Pcbnew,8.0.3*
G04 #@! TF.CreationDate,2024-07-07T23:06:26-07:00*
G04 #@! TF.ProjectId,melokey,6d656c6f-6b65-4792-9e6b-696361645f70,rev?*
G04 #@! TF.SameCoordinates,Original*
G04 #@! TF.FileFunction,OtherDrawing,Comment*
%FSLAX46Y46*%
G04 Gerber Fmt 4.6, Leading zero omitted, Abs format (unit mm)*
G04 Created by KiCad (PCBNEW 8.0.3) date 2024-07-07 23:06:26*
%MOMM*%
%LPD*%
G01*
G04 APERTURE LIST*
%ADD10C,0.100000*%
G04 APERTURE END LIST*
D10*
G04 #@! TO.C,SW9*
X147478750Y-143192500D02*
X166528750Y-143192500D01*
X147478750Y-200342500D02*
X147478750Y-143192500D01*
X166528750Y-143192500D02*
X166528750Y-200342500D01*
X166528750Y-200342500D02*
X147478750Y-200342500D01*
G04 #@! TO.C,SW17*
X92551250Y-206693750D02*
X92551250Y-225743750D01*
X92551250Y-225743750D02*
X111601250Y-225743750D01*
X111601250Y-206693750D02*
X92551250Y-206693750D01*
X111601250Y-225743750D02*
X111601250Y-206693750D01*
G04 #@! TO.C,SW8*
X357028750Y-176530000D02*
X376078750Y-176530000D01*
X357028750Y-233680000D02*
X357028750Y-176530000D01*
X376078750Y-176530000D02*
X376078750Y-233680000D01*
X376078750Y-233680000D02*
X357028750Y-233680000D01*
G04 #@! TO.C,REF\u002A\u002A*
X346883750Y-203730000D02*
X346883750Y-199730000D01*
X348883750Y-201730000D02*
X344883750Y-201730000D01*
X327833750Y-170392500D02*
X327833750Y-166392500D01*
X329833750Y-168392500D02*
X325833750Y-168392500D01*
X175433750Y-203730000D02*
X175433750Y-199730000D01*
X177433750Y-201730000D02*
X173433750Y-201730000D01*
G04 #@! TO.C,SW2*
X166528750Y-176530000D02*
X185578750Y-176530000D01*
X166528750Y-233680000D02*
X166528750Y-176530000D01*
X185578750Y-176530000D02*
X185578750Y-233680000D01*
X185578750Y-233680000D02*
X166528750Y-233680000D01*
G04 #@! TO.C,SW13*
X318928750Y-143192500D02*
X337978750Y-143192500D01*
X318928750Y-200342500D02*
X318928750Y-143192500D01*
X337978750Y-143192500D02*
X337978750Y-200342500D01*
X337978750Y-200342500D02*
X318928750Y-200342500D01*
G04 #@! TO.C,SW10*
X185578750Y-143192500D02*
X204628750Y-143192500D01*
X185578750Y-200342500D02*
X185578750Y-143192500D01*
X204628750Y-143192500D02*
X204628750Y-200342500D01*
X204628750Y-200342500D02*
X185578750Y-200342500D01*
G04 #@! TO.C,REF\u002A\u002A*
X308783750Y-203730000D02*
X308783750Y-199730000D01*
X310783750Y-201730000D02*
X306783750Y-201730000D01*
X270683750Y-203730000D02*
X270683750Y-199730000D01*
X272683750Y-201730000D02*
X268683750Y-201730000D01*
G04 #@! TO.C,SW16*
X73501250Y-206693750D02*
X73501250Y-225743750D01*
X73501250Y-225743750D02*
X92551250Y-225743750D01*
X92551250Y-206693750D02*
X73501250Y-206693750D01*
X92551250Y-225743750D02*
X92551250Y-206693750D01*
G04 #@! TO.C,SW15*
X92551250Y-187643750D02*
X92551250Y-206693750D01*
X92551250Y-206693750D02*
X111601250Y-206693750D01*
X111601250Y-187643750D02*
X92551250Y-187643750D01*
X111601250Y-206693750D02*
X111601250Y-187643750D01*
G04 #@! TO.C,SW12*
X280828750Y-143192500D02*
X299878750Y-143192500D01*
X280828750Y-200342500D02*
X280828750Y-143192500D01*
X299878750Y-143192500D02*
X299878750Y-200342500D01*
X299878750Y-200342500D02*
X280828750Y-200342500D01*
G04 #@! TO.C,REF\u002A\u002A*
X156383750Y-170392500D02*
X156383750Y-166392500D01*
X158383750Y-168392500D02*
X154383750Y-168392500D01*
G04 #@! TO.C,SW3*
X204628750Y-176530000D02*
X223678750Y-176530000D01*
X204628750Y-233680000D02*
X204628750Y-176530000D01*
X223678750Y-176530000D02*
X223678750Y-233680000D01*
X223678750Y-233680000D02*
X204628750Y-233680000D01*
G04 #@! TO.C,SW7*
X337978750Y-176530000D02*
X357028750Y-176530000D01*
X337978750Y-233680000D02*
X337978750Y-176530000D01*
X357028750Y-176530000D02*
X357028750Y-233680000D01*
X357028750Y-233680000D02*
X337978750Y-233680000D01*
G04 #@! TO.C,REF\u002A\u002A*
X194483750Y-170392500D02*
X194483750Y-166392500D01*
X196483750Y-168392500D02*
X192483750Y-168392500D01*
X213533750Y-203730000D02*
X213533750Y-199730000D01*
X215533750Y-201730000D02*
X211533750Y-201730000D01*
X251633750Y-170392500D02*
X251633750Y-166392500D01*
X253633750Y-168392500D02*
X249633750Y-168392500D01*
G04 #@! TO.C,SW1*
X128428750Y-176530000D02*
X147478750Y-176530000D01*
X128428750Y-233680000D02*
X128428750Y-176530000D01*
X147478750Y-176530000D02*
X147478750Y-233680000D01*
X147478750Y-233680000D02*
X128428750Y-233680000D01*
G04 #@! TO.C,SW4*
X223678750Y-176530000D02*
X242728750Y-176530000D01*
X223678750Y-233680000D02*
X223678750Y-176530000D01*
X242728750Y-176530000D02*
X242728750Y-233680000D01*
X242728750Y-233680000D02*
X223678750Y-233680000D01*
G04 #@! TO.C,REF\u002A\u002A*
X365933750Y-203730000D02*
X365933750Y-199730000D01*
X367933750Y-201730000D02*
X363933750Y-201730000D01*
X232583750Y-203730000D02*
X232583750Y-199730000D01*
X234583750Y-201730000D02*
X230583750Y-201730000D01*
G04 #@! TO.C,U1*
X63388750Y-160387500D02*
X58688750Y-160387500D01*
X58688750Y-152987500D01*
X63388750Y-152987500D01*
X63388750Y-160387500D01*
G36*
X63388750Y-160387500D02*
G01*
X58688750Y-160387500D01*
X58688750Y-152987500D01*
X63388750Y-152987500D01*
X63388750Y-160387500D01*
G37*
X67088750Y-160187500D02*
X65088750Y-160187500D01*
X65088750Y-158187500D01*
X67088750Y-158187500D01*
X67088750Y-160187500D01*
G36*
X67088750Y-160187500D02*
G01*
X65088750Y-160187500D01*
X65088750Y-158187500D01*
X67088750Y-158187500D01*
X67088750Y-160187500D01*
G37*
X69588750Y-160187500D02*
X67588750Y-160187500D01*
X67588750Y-158187500D01*
X69588750Y-158187500D01*
X69588750Y-160187500D01*
G36*
X69588750Y-160187500D02*
G01*
X67588750Y-160187500D01*
X67588750Y-158187500D01*
X69588750Y-158187500D01*
X69588750Y-160187500D01*
G37*
X72088750Y-160187500D02*
X70088750Y-160187500D01*
X70088750Y-158187500D01*
X72088750Y-158187500D01*
X72088750Y-160187500D01*
G36*
X72088750Y-160187500D02*
G01*
X70088750Y-160187500D01*
X70088750Y-158187500D01*
X72088750Y-158187500D01*
X72088750Y-160187500D01*
G37*
G04 #@! TO.C,REF\u002A\u002A*
X289733750Y-170392500D02*
X289733750Y-166392500D01*
X291733750Y-168392500D02*
X287733750Y-168392500D01*
X137333750Y-203730000D02*
X137333750Y-199730000D01*
X139333750Y-201730000D02*
X135333750Y-201730000D01*
G04 #@! TO.C,SW6*
X299878750Y-176530000D02*
X318928750Y-176530000D01*
X299878750Y-233680000D02*
X299878750Y-176530000D01*
X318928750Y-176530000D02*
X318928750Y-233680000D01*
X318928750Y-233680000D02*
X299878750Y-233680000D01*
G04 #@! TO.C,SW5*
X261778750Y-176530000D02*
X280828750Y-176530000D01*
X261778750Y-233680000D02*
X261778750Y-176530000D01*
X280828750Y-176530000D02*
X280828750Y-233680000D01*
X280828750Y-233680000D02*
X261778750Y-233680000D01*
G04 #@! TO.C,SW14*
X73501250Y-187643750D02*
X73501250Y-206693750D01*
X73501250Y-206693750D02*
X92551250Y-206693750D01*
X92551250Y-187643750D02*
X73501250Y-187643750D01*
X92551250Y-206693750D02*
X92551250Y-187643750D01*
G04 #@! TO.C,SW11*
X242728750Y-143192500D02*
X261778750Y-143192500D01*
X242728750Y-200342500D02*
X242728750Y-143192500D01*
X261778750Y-143192500D02*
X261778750Y-200342500D01*
X261778750Y-200342500D02*
X242728750Y-200342500D01*
G04 #@! TD*
M02*
