G04 #@! TF.GenerationSoftware,KiCad,Pcbnew,8.0.3*
G04 #@! TF.CreationDate,2024-07-07T23:06:26-07:00*
G04 #@! TF.ProjectId,melokey,6d656c6f-6b65-4792-9e6b-696361645f70,rev?*
G04 #@! TF.SameCoordinates,Original*
G04 #@! TF.FileFunction,Other,User*
%FSLAX46Y46*%
G04 Gerber Fmt 4.6, Leading zero omitted, Abs format (unit mm)*
G04 Created by KiCad (PCBNEW 8.0.3) date 2024-07-07 23:06:26*
%MOMM*%
%LPD*%
G01*
G04 APERTURE LIST*
%ADD10C,0.050000*%
G04 APERTURE END LIST*
D10*
G04 #@! TO.C,D17*
X110351250Y-210406250D02*
X110351250Y-220126250D01*
X110351250Y-220126250D02*
X112851250Y-220126250D01*
X112851250Y-210406250D02*
X110351250Y-210406250D01*
X112851250Y-220126250D02*
X112851250Y-210406250D01*
G04 #@! TO.C,D11*
X260528750Y-165955000D02*
X260528750Y-175675000D01*
X260528750Y-175675000D02*
X263028750Y-175675000D01*
X263028750Y-165955000D02*
X260528750Y-165955000D01*
X263028750Y-175675000D02*
X263028750Y-165955000D01*
G04 #@! TO.C,D4*
X241478750Y-199292500D02*
X241478750Y-209012500D01*
X241478750Y-209012500D02*
X243978750Y-209012500D01*
X243978750Y-199292500D02*
X241478750Y-199292500D01*
X243978750Y-209012500D02*
X243978750Y-199292500D01*
G04 #@! TO.C,D10*
X203378750Y-165955000D02*
X203378750Y-175675000D01*
X203378750Y-175675000D02*
X205878750Y-175675000D01*
X205878750Y-165955000D02*
X203378750Y-165955000D01*
X205878750Y-175675000D02*
X205878750Y-165955000D01*
G04 #@! TO.C,D14*
X91301250Y-191356250D02*
X91301250Y-201076250D01*
X91301250Y-201076250D02*
X93801250Y-201076250D01*
X93801250Y-191356250D02*
X91301250Y-191356250D01*
X93801250Y-201076250D02*
X93801250Y-191356250D01*
G04 #@! TO.C,D8*
X374828750Y-199292500D02*
X374828750Y-209012500D01*
X374828750Y-209012500D02*
X377328750Y-209012500D01*
X377328750Y-199292500D02*
X374828750Y-199292500D01*
X377328750Y-209012500D02*
X377328750Y-199292500D01*
G04 #@! TO.C,D15*
X110351250Y-191356250D02*
X110351250Y-201076250D01*
X110351250Y-201076250D02*
X112851250Y-201076250D01*
X112851250Y-191356250D02*
X110351250Y-191356250D01*
X112851250Y-201076250D02*
X112851250Y-191356250D01*
G04 #@! TO.C,D2*
X184328750Y-199292500D02*
X184328750Y-209012500D01*
X184328750Y-209012500D02*
X186828750Y-209012500D01*
X186828750Y-199292500D02*
X184328750Y-199292500D01*
X186828750Y-209012500D02*
X186828750Y-199292500D01*
G04 #@! TO.C,D3*
X222428750Y-199292500D02*
X222428750Y-209012500D01*
X222428750Y-209012500D02*
X224928750Y-209012500D01*
X224928750Y-199292500D02*
X222428750Y-199292500D01*
X224928750Y-209012500D02*
X224928750Y-199292500D01*
G04 #@! TO.C,D12*
X298628750Y-165955000D02*
X298628750Y-175675000D01*
X298628750Y-175675000D02*
X301128750Y-175675000D01*
X301128750Y-165955000D02*
X298628750Y-165955000D01*
X301128750Y-175675000D02*
X301128750Y-165955000D01*
G04 #@! TO.C,D1*
X146228750Y-199292500D02*
X146228750Y-209012500D01*
X146228750Y-209012500D02*
X148728750Y-209012500D01*
X148728750Y-199292500D02*
X146228750Y-199292500D01*
X148728750Y-209012500D02*
X148728750Y-199292500D01*
G04 #@! TO.C,D7*
X355778750Y-199292500D02*
X355778750Y-209012500D01*
X355778750Y-209012500D02*
X358278750Y-209012500D01*
X358278750Y-199292500D02*
X355778750Y-199292500D01*
X358278750Y-209012500D02*
X358278750Y-199292500D01*
G04 #@! TO.C,D13*
X336728750Y-165955000D02*
X336728750Y-175675000D01*
X336728750Y-175675000D02*
X339228750Y-175675000D01*
X339228750Y-165955000D02*
X336728750Y-165955000D01*
X339228750Y-175675000D02*
X339228750Y-165955000D01*
G04 #@! TO.C,D5*
X279578750Y-199292500D02*
X279578750Y-209012500D01*
X279578750Y-209012500D02*
X282078750Y-209012500D01*
X282078750Y-199292500D02*
X279578750Y-199292500D01*
X282078750Y-209012500D02*
X282078750Y-199292500D01*
G04 #@! TO.C,D16*
X91301250Y-210406250D02*
X91301250Y-220126250D01*
X91301250Y-220126250D02*
X93801250Y-220126250D01*
X93801250Y-210406250D02*
X91301250Y-210406250D01*
X93801250Y-220126250D02*
X93801250Y-210406250D01*
G04 #@! TO.C,D6*
X317678750Y-199292500D02*
X317678750Y-209012500D01*
X317678750Y-209012500D02*
X320178750Y-209012500D01*
X320178750Y-199292500D02*
X317678750Y-199292500D01*
X320178750Y-209012500D02*
X320178750Y-199292500D01*
G04 #@! TO.C,D9*
X165278750Y-165955000D02*
X165278750Y-175675000D01*
X165278750Y-175675000D02*
X167778750Y-175675000D01*
X167778750Y-165955000D02*
X165278750Y-165955000D01*
X167778750Y-175675000D02*
X167778750Y-165955000D01*
G04 #@! TD*
M02*
