M48
; DRILL file {KiCad 8.0.3} date 2024-07-07T23:06:26-0700
; FORMAT={-:-/ absolute / metric / decimal}
; #@! TF.CreationDate,2024-07-07T23:06:26-07:00
; #@! TF.GenerationSoftware,Kicad,Pcbnew,8.0.3
; #@! TF.FileFunction,Plated,1,2,PTH
FMAT,2
METRIC
; #@! TA.AperFunction,Plated,PTH,ViaDrill
T1C0.300
; #@! TA.AperFunction,Plated,PTH,ComponentDrill
T2C0.740
; #@! TA.AperFunction,Plated,PTH,ComponentDrill
T3C0.800
; #@! TA.AperFunction,Plated,PTH,ComponentDrill
T4C1.020
; #@! TA.AperFunction,Plated,PTH,ComponentDrill
T5C1.500
%
G90
G05
T1
X123.551Y-171.737
X123.671Y-192.857
X129.551Y-216.737
X132.551Y-232.737
X143.551Y-229.737
X152.082Y-228.125
X153.551Y-195.42
X161.607Y-197.169
X171.132Y-230.317
X171.132Y-232.887
X179.551Y-230.737
X190.183Y-194.787
X190.183Y-197.169
X190.183Y-199.55
X197.326Y-192.406
X211.614Y-225.944
X216.376Y-225.744
X216.486Y-230.718
X228.282Y-230.317
X228.282Y-232.887
X237.807Y-225.744
X247.332Y-196.98
X247.332Y-198.58
X255.264Y-196.94
X257.034Y-197.226
X264.001Y-228.125
X266.382Y-228.125
X273.526Y-225.744
X285.433Y-196.98
X285.433Y-198.98
X293.364Y-196.94
X295.121Y-197.332
X304.482Y-230.317
X304.482Y-232.887
X312.414Y-230.278
X316.389Y-225.744
X321.151Y-196.98
X321.151Y-208.562
X321.151Y-228.125
X330.676Y-197.875
X342.582Y-228.125
X349.726Y-225.744
X350.184Y-230.37
X361.632Y-230.317
T2
X84.931Y-173.356
X84.931Y-181.296
X87.471Y-173.356
X87.471Y-181.296
X90.011Y-173.356
X90.011Y-181.296
X92.551Y-173.356
X92.551Y-181.296
X95.091Y-173.356
X95.091Y-181.296
X97.631Y-173.356
X97.631Y-181.296
X100.171Y-173.356
X100.171Y-181.296
T3
X92.551Y-192.406
X92.551Y-200.026
X92.551Y-211.456
X92.551Y-219.076
X111.601Y-192.406
X111.601Y-200.026
X111.601Y-211.456
X111.601Y-219.076
X147.479Y-200.343
X147.479Y-207.962
X166.529Y-167.005
X166.529Y-174.625
X185.579Y-200.343
X185.579Y-207.962
X204.629Y-167.005
X204.629Y-174.625
X223.679Y-200.343
X223.679Y-207.962
X242.729Y-200.343
X242.729Y-207.962
X261.779Y-167.005
X261.779Y-174.625
X280.829Y-200.343
X280.829Y-207.962
X299.879Y-167.005
X299.879Y-174.625
X318.929Y-200.343
X318.929Y-207.962
X337.979Y-167.005
X337.979Y-174.625
X357.029Y-200.343
X357.029Y-207.962
X376.079Y-200.343
X376.079Y-207.962
T4
X59.459Y-147.797
X59.459Y-165.577
X61.999Y-147.797
X61.999Y-165.577
X64.539Y-147.797
X64.539Y-165.577
X67.079Y-147.797
X67.079Y-165.577
X69.619Y-147.797
X69.619Y-165.577
X72.159Y-147.797
X72.159Y-165.577
X74.699Y-147.797
X74.699Y-165.577
X77.239Y-147.797
X77.239Y-165.577
X79.779Y-147.797
X79.779Y-165.577
X82.319Y-147.797
X82.319Y-165.577
X84.859Y-147.797
X84.859Y-165.577
X87.399Y-147.797
X87.399Y-165.577
X89.939Y-147.797
X89.939Y-165.577
X92.479Y-147.797
X92.479Y-165.577
X95.019Y-147.797
X95.019Y-165.577
X97.559Y-147.797
X97.559Y-165.577
X100.099Y-147.797
X100.099Y-165.577
X102.639Y-147.797
X102.639Y-165.577
X105.179Y-147.797
X105.179Y-165.577
X107.489Y-154.147
X107.489Y-156.688
X107.489Y-159.227
X107.719Y-147.797
X107.719Y-165.577
T5
X79.216Y-194.629
X79.216Y-213.679
X85.566Y-192.089
X85.566Y-211.139
X98.266Y-194.629
X98.266Y-213.679
X104.616Y-192.089
X104.616Y-211.139
X134.144Y-202.565
X140.494Y-200.025
X153.194Y-169.227
X159.544Y-166.688
X172.244Y-202.565
X178.594Y-200.025
X191.294Y-169.227
X197.644Y-166.688
X210.344Y-202.565
X216.694Y-200.025
X229.394Y-202.565
X235.744Y-200.025
X248.444Y-169.227
X254.794Y-166.688
X267.494Y-202.565
X273.844Y-200.025
X286.544Y-169.227
X292.894Y-166.688
X305.594Y-202.565
X311.944Y-200.025
X324.644Y-169.227
X330.994Y-166.688
X343.694Y-202.565
X350.044Y-200.025
X362.744Y-202.565
X369.094Y-200.025
M30
