G04 #@! TF.GenerationSoftware,KiCad,Pcbnew,8.0.3*
G04 #@! TF.CreationDate,2024-07-25T17:07:34-07:00*
G04 #@! TF.ProjectId,melokey,6d656c6f-6b65-4792-9e6b-696361645f70,rev?*
G04 #@! TF.SameCoordinates,Original*
G04 #@! TF.FileFunction,Soldermask,Top*
G04 #@! TF.FilePolarity,Negative*
%FSLAX46Y46*%
G04 Gerber Fmt 4.6, Leading zero omitted, Abs format (unit mm)*
G04 Created by KiCad (PCBNEW 8.0.3) date 2024-07-25 17:07:34*
%MOMM*%
%LPD*%
G01*
G04 APERTURE LIST*
G04 Aperture macros list*
%AMRoundRect*
0 Rectangle with rounded corners*
0 $1 Rounding radius*
0 $2 $3 $4 $5 $6 $7 $8 $9 X,Y pos of 4 corners*
0 Add a 4 corners polygon primitive as box body*
4,1,4,$2,$3,$4,$5,$6,$7,$8,$9,$2,$3,0*
0 Add four circle primitives for the rounded corners*
1,1,$1+$1,$2,$3*
1,1,$1+$1,$4,$5*
1,1,$1+$1,$6,$7*
1,1,$1+$1,$8,$9*
0 Add four rect primitives between the rounded corners*
20,1,$1+$1,$2,$3,$4,$5,0*
20,1,$1+$1,$4,$5,$6,$7,0*
20,1,$1+$1,$6,$7,$8,$9,0*
20,1,$1+$1,$8,$9,$2,$3,0*%
G04 Aperture macros list end*
%ADD10C,1.750000*%
%ADD11C,4.000000*%
%ADD12C,2.500000*%
%ADD13RoundRect,0.102000X-0.900000X-0.410000X0.900000X-0.410000X0.900000X0.410000X-0.900000X0.410000X0*%
%ADD14C,3.048000*%
%ADD15C,3.987800*%
%ADD16R,1.600000X1.600000*%
%ADD17O,1.600000X1.600000*%
%ADD18RoundRect,0.102000X0.570000X-0.570000X0.570000X0.570000X-0.570000X0.570000X-0.570000X-0.570000X0*%
%ADD19C,1.344000*%
%ADD20O,1.700000X1.700000*%
%ADD21R,1.700000X1.700000*%
G04 APERTURE END LIST*
D10*
G04 #@! TO.C,SW9*
X151923750Y-171767500D03*
D11*
X157003750Y-171767500D03*
D10*
X162083750Y-171767500D03*
D12*
X153193750Y-169227500D03*
X159543750Y-166687500D03*
G04 #@! TD*
D10*
G04 #@! TO.C,SW17*
X90011250Y-214630000D03*
D11*
X95091250Y-214630000D03*
D10*
X100171250Y-214630000D03*
D12*
X91281250Y-212090000D03*
X97631250Y-209550000D03*
G04 #@! TD*
D13*
G04 #@! TO.C,D25*
X363543750Y-228167500D03*
X363543750Y-229667500D03*
X369563750Y-229667500D03*
X369563750Y-228167500D03*
G04 #@! TD*
D10*
G04 #@! TO.C,SW8*
X361473750Y-205105000D03*
D11*
X366553750Y-205105000D03*
D10*
X371633750Y-205105000D03*
D12*
X362743750Y-202565000D03*
X369093750Y-200025000D03*
G04 #@! TD*
D13*
G04 #@! TO.C,D20*
X206381250Y-228167500D03*
X206381250Y-229667500D03*
X212401250Y-229667500D03*
X212401250Y-228167500D03*
G04 #@! TD*
G04 #@! TO.C,D29*
X287343750Y-194830000D03*
X287343750Y-196330000D03*
X293363750Y-196330000D03*
X293363750Y-194830000D03*
G04 #@! TD*
D14*
G04 #@! TO.C,REF\u002A\u002A*
X339898750Y-220780000D03*
D15*
X355108750Y-220780000D03*
D14*
X339898750Y-182680000D03*
D15*
X355108750Y-182680000D03*
G04 #@! TD*
D14*
G04 #@! TO.C,REF\u002A\u002A*
X320848750Y-187442500D03*
D15*
X336058750Y-187442500D03*
D14*
X320848750Y-149342500D03*
D15*
X336058750Y-149342500D03*
G04 #@! TD*
D14*
G04 #@! TO.C,REF\u002A\u002A*
X168448750Y-220780000D03*
D15*
X183658750Y-220780000D03*
D14*
X168448750Y-182680000D03*
D15*
X183658750Y-182680000D03*
G04 #@! TD*
D10*
G04 #@! TO.C,SW2*
X170973750Y-205105000D03*
D11*
X176053750Y-205105000D03*
D10*
X181133750Y-205105000D03*
D12*
X172243750Y-202565000D03*
X178593750Y-200025000D03*
G04 #@! TD*
D10*
G04 #@! TO.C,SW13*
X323373750Y-171767500D03*
D11*
X328453750Y-171767500D03*
D10*
X333533750Y-171767500D03*
D12*
X324643750Y-169227500D03*
X330993750Y-166687500D03*
G04 #@! TD*
D13*
G04 #@! TO.C,D21*
X234956250Y-228167500D03*
X234956250Y-229667500D03*
X240976250Y-229667500D03*
X240976250Y-228167500D03*
G04 #@! TD*
G04 #@! TO.C,D30*
X325443750Y-194830000D03*
X325443750Y-196330000D03*
X331463750Y-196330000D03*
X331463750Y-194830000D03*
G04 #@! TD*
D10*
G04 #@! TO.C,SW10*
X190023750Y-171767500D03*
D11*
X195103750Y-171767500D03*
D10*
X200183750Y-171767500D03*
D12*
X191293750Y-169227500D03*
X197643750Y-166687500D03*
G04 #@! TD*
D14*
G04 #@! TO.C,REF\u002A\u002A*
X301798750Y-220780000D03*
D15*
X317008750Y-220780000D03*
D14*
X301798750Y-182680000D03*
D15*
X317008750Y-182680000D03*
G04 #@! TD*
D14*
G04 #@! TO.C,REF\u002A\u002A*
X263698750Y-220780000D03*
D15*
X278908750Y-220780000D03*
D14*
X263698750Y-182680000D03*
D15*
X278908750Y-182680000D03*
G04 #@! TD*
D10*
G04 #@! TO.C,SW16*
X70961250Y-214630000D03*
D11*
X76041250Y-214630000D03*
D10*
X81121250Y-214630000D03*
D12*
X72231250Y-212090000D03*
X78581250Y-209550000D03*
G04 #@! TD*
D10*
G04 #@! TO.C,SW15*
X90011250Y-195580000D03*
D11*
X95091250Y-195580000D03*
D10*
X100171250Y-195580000D03*
D12*
X91281250Y-193040000D03*
X97631250Y-190500000D03*
G04 #@! TD*
D13*
G04 #@! TO.C,D23*
X306393750Y-228167500D03*
X306393750Y-229667500D03*
X312413750Y-229667500D03*
X312413750Y-228167500D03*
G04 #@! TD*
D10*
G04 #@! TO.C,SW12*
X285273750Y-171767500D03*
D11*
X290353750Y-171767500D03*
D10*
X295433750Y-171767500D03*
D12*
X286543750Y-169227500D03*
X292893750Y-166687500D03*
G04 #@! TD*
D14*
G04 #@! TO.C,REF\u002A\u002A*
X149398750Y-187442500D03*
D15*
X164608750Y-187442500D03*
D14*
X149398750Y-149342500D03*
D15*
X164608750Y-149342500D03*
G04 #@! TD*
D10*
G04 #@! TO.C,SW3*
X209073750Y-205105000D03*
D11*
X214153750Y-205105000D03*
D10*
X219233750Y-205105000D03*
D12*
X210343750Y-202565000D03*
X216693750Y-200025000D03*
G04 #@! TD*
D10*
G04 #@! TO.C,SW7*
X342423750Y-205105000D03*
D11*
X347503750Y-205105000D03*
D10*
X352583750Y-205105000D03*
D12*
X343693750Y-202565000D03*
X350043750Y-200025000D03*
G04 #@! TD*
D13*
G04 #@! TO.C,D28*
X249243750Y-194830000D03*
X249243750Y-196330000D03*
X255263750Y-196330000D03*
X255263750Y-194830000D03*
G04 #@! TD*
D14*
G04 #@! TO.C,REF\u002A\u002A*
X187498750Y-187442500D03*
D15*
X202708750Y-187442500D03*
D14*
X187498750Y-149342500D03*
D15*
X202708750Y-149342500D03*
G04 #@! TD*
D13*
G04 #@! TO.C,D19*
X173043750Y-228167500D03*
X173043750Y-229667500D03*
X179063750Y-229667500D03*
X179063750Y-228167500D03*
G04 #@! TD*
D14*
G04 #@! TO.C,REF\u002A\u002A*
X206548750Y-220780000D03*
D15*
X221758750Y-220780000D03*
D14*
X206548750Y-182680000D03*
D15*
X221758750Y-182680000D03*
G04 #@! TD*
D14*
G04 #@! TO.C,REF\u002A\u002A*
X244648750Y-187442500D03*
D15*
X259858750Y-187442500D03*
D14*
X244648750Y-149342500D03*
D15*
X259858750Y-149342500D03*
G04 #@! TD*
D10*
G04 #@! TO.C,SW1*
X132873750Y-205105000D03*
D11*
X137953750Y-205105000D03*
D10*
X143033750Y-205105000D03*
D12*
X134143750Y-202565000D03*
X140493750Y-200025000D03*
G04 #@! TD*
D13*
G04 #@! TO.C,D26*
X153993750Y-194830000D03*
X153993750Y-196330000D03*
X160013750Y-196330000D03*
X160013750Y-194830000D03*
G04 #@! TD*
G04 #@! TO.C,D27*
X192093750Y-194830000D03*
X192093750Y-196330000D03*
X198113750Y-196330000D03*
X198113750Y-194830000D03*
G04 #@! TD*
D10*
G04 #@! TO.C,SW4*
X228123750Y-205105000D03*
D11*
X233203750Y-205105000D03*
D10*
X238283750Y-205105000D03*
D12*
X229393750Y-202565000D03*
X235743750Y-200025000D03*
G04 #@! TD*
D14*
G04 #@! TO.C,REF\u002A\u002A*
X358948750Y-220780000D03*
D15*
X374158750Y-220780000D03*
D14*
X358948750Y-182680000D03*
D15*
X374158750Y-182680000D03*
G04 #@! TD*
D14*
G04 #@! TO.C,REF\u002A\u002A*
X225598750Y-220780000D03*
D15*
X240808750Y-220780000D03*
D14*
X225598750Y-182680000D03*
D15*
X240808750Y-182680000D03*
G04 #@! TD*
D13*
G04 #@! TO.C,D22*
X268293750Y-228167500D03*
X268293750Y-229667500D03*
X274313750Y-229667500D03*
X274313750Y-228167500D03*
G04 #@! TD*
D14*
G04 #@! TO.C,REF\u002A\u002A*
X282748750Y-187442500D03*
D15*
X297958750Y-187442500D03*
D14*
X282748750Y-149342500D03*
D15*
X297958750Y-149342500D03*
G04 #@! TD*
D14*
G04 #@! TO.C,REF\u002A\u002A*
X130348750Y-220780000D03*
D15*
X145558750Y-220780000D03*
D14*
X130348750Y-182680000D03*
D15*
X145558750Y-182680000D03*
G04 #@! TD*
D13*
G04 #@! TO.C,D18*
X137325000Y-228167500D03*
X137325000Y-229667500D03*
X143345000Y-229667500D03*
X143345000Y-228167500D03*
G04 #@! TD*
D10*
G04 #@! TO.C,SW6*
X304323750Y-205105000D03*
D11*
X309403750Y-205105000D03*
D10*
X314483750Y-205105000D03*
D12*
X305593750Y-202565000D03*
X311943750Y-200025000D03*
G04 #@! TD*
D10*
G04 #@! TO.C,SW5*
X266223750Y-205105000D03*
D11*
X271303750Y-205105000D03*
D10*
X276383750Y-205105000D03*
D12*
X267493750Y-202565000D03*
X273843750Y-200025000D03*
G04 #@! TD*
D13*
G04 #@! TO.C,D24*
X339731250Y-228167500D03*
X339731250Y-229667500D03*
X345751250Y-229667500D03*
X345751250Y-228167500D03*
G04 #@! TD*
D10*
G04 #@! TO.C,SW14*
X70961250Y-195580000D03*
D11*
X76041250Y-195580000D03*
D10*
X81121250Y-195580000D03*
D12*
X72231250Y-193040000D03*
X78581250Y-190500000D03*
G04 #@! TD*
D10*
G04 #@! TO.C,SW11*
X247173750Y-171767500D03*
D11*
X252253750Y-171767500D03*
D10*
X257333750Y-171767500D03*
D12*
X248443750Y-169227500D03*
X254793750Y-166687500D03*
G04 #@! TD*
D16*
G04 #@! TO.C,D17*
X104616250Y-217487500D03*
D17*
X104616250Y-209867500D03*
G04 #@! TD*
D16*
G04 #@! TO.C,D11*
X261778750Y-174625000D03*
D17*
X261778750Y-167005000D03*
G04 #@! TD*
D16*
G04 #@! TO.C,D4*
X242728750Y-207962500D03*
D17*
X242728750Y-200342500D03*
G04 #@! TD*
D16*
G04 #@! TO.C,D10*
X204628750Y-174625000D03*
D17*
X204628750Y-167005000D03*
G04 #@! TD*
D16*
G04 #@! TO.C,D14*
X85566250Y-198437500D03*
D17*
X85566250Y-190817500D03*
G04 #@! TD*
D16*
G04 #@! TO.C,D8*
X376078750Y-207962500D03*
D17*
X376078750Y-200342500D03*
G04 #@! TD*
D16*
G04 #@! TO.C,D15*
X104616250Y-198437500D03*
D17*
X104616250Y-190817500D03*
G04 #@! TD*
D16*
G04 #@! TO.C,D2*
X185578750Y-207962500D03*
D17*
X185578750Y-200342500D03*
G04 #@! TD*
D16*
G04 #@! TO.C,D3*
X223678750Y-207962500D03*
D17*
X223678750Y-200342500D03*
G04 #@! TD*
D16*
G04 #@! TO.C,D12*
X299878750Y-174625000D03*
D17*
X299878750Y-167005000D03*
G04 #@! TD*
D18*
G04 #@! TO.C,U2*
X93186250Y-180500000D03*
D19*
X90646250Y-180500000D03*
X88106250Y-180500000D03*
X85566250Y-180500000D03*
X83026250Y-180500000D03*
X80486250Y-180500000D03*
X77946250Y-180500000D03*
X77946250Y-172560000D03*
X80486250Y-172560000D03*
X83026250Y-172560000D03*
X85566250Y-172560000D03*
X88106250Y-172560000D03*
X90646250Y-172560000D03*
X93186250Y-172560000D03*
G04 #@! TD*
D16*
G04 #@! TO.C,D1*
X147478750Y-207962500D03*
D17*
X147478750Y-200342500D03*
G04 #@! TD*
D16*
G04 #@! TO.C,D7*
X357028750Y-207962500D03*
D17*
X357028750Y-200342500D03*
G04 #@! TD*
D20*
G04 #@! TO.C,U1*
X54696250Y-147797500D03*
X57236250Y-147797500D03*
D21*
X59776250Y-147797500D03*
D20*
X62316250Y-147797500D03*
X64856250Y-147797500D03*
X67396250Y-147797500D03*
X69936250Y-147797500D03*
D21*
X72476250Y-147797500D03*
D20*
X75016250Y-147797500D03*
X77556250Y-147797500D03*
X80096250Y-147797500D03*
X82636250Y-147797500D03*
D21*
X85176250Y-147797500D03*
D20*
X87716250Y-147797500D03*
X90256250Y-147797500D03*
X92796250Y-147797500D03*
X95336250Y-147797500D03*
D21*
X97876250Y-147797500D03*
D20*
X100416250Y-147797500D03*
X102956250Y-147797500D03*
X102956250Y-165577500D03*
X100416250Y-165577500D03*
D21*
X97876250Y-165577500D03*
D20*
X95336250Y-165577500D03*
X92796250Y-165577500D03*
X90256250Y-165577500D03*
X87716250Y-165577500D03*
D21*
X85176250Y-165577500D03*
D20*
X82636250Y-165577500D03*
X80096250Y-165577500D03*
X77556250Y-165577500D03*
X75016250Y-165577500D03*
D21*
X72476250Y-165577500D03*
D20*
X69936250Y-165577500D03*
X67396250Y-165577500D03*
X64856250Y-165577500D03*
X62316250Y-165577500D03*
D21*
X59776250Y-165577500D03*
D20*
X57236250Y-165577500D03*
X54696250Y-165577500D03*
X102726250Y-154147500D03*
D21*
X102726250Y-156687500D03*
D20*
X102726250Y-159227500D03*
G04 #@! TD*
D16*
G04 #@! TO.C,D13*
X337978750Y-174625000D03*
D17*
X337978750Y-167005000D03*
G04 #@! TD*
D16*
G04 #@! TO.C,D5*
X280828750Y-207962500D03*
D17*
X280828750Y-200342500D03*
G04 #@! TD*
D16*
G04 #@! TO.C,D16*
X85566250Y-217487500D03*
D17*
X85566250Y-209867500D03*
G04 #@! TD*
D16*
G04 #@! TO.C,D6*
X318928750Y-207962500D03*
D17*
X318928750Y-200342500D03*
G04 #@! TD*
D16*
G04 #@! TO.C,D9*
X166528750Y-174625000D03*
D17*
X166528750Y-167005000D03*
G04 #@! TD*
M02*
