G04 #@! TF.GenerationSoftware,KiCad,Pcbnew,8.0.3*
G04 #@! TF.CreationDate,2024-07-25T17:07:34-07:00*
G04 #@! TF.ProjectId,melokey,6d656c6f-6b65-4792-9e6b-696361645f70,rev?*
G04 #@! TF.SameCoordinates,Original*
G04 #@! TF.FileFunction,Legend,Top*
G04 #@! TF.FilePolarity,Positive*
%FSLAX46Y46*%
G04 Gerber Fmt 4.6, Leading zero omitted, Abs format (unit mm)*
G04 Created by KiCad (PCBNEW 8.0.3) date 2024-07-25 17:07:34*
%MOMM*%
%LPD*%
G01*
G04 APERTURE LIST*
G04 Aperture macros list*
%AMRoundRect*
0 Rectangle with rounded corners*
0 $1 Rounding radius*
0 $2 $3 $4 $5 $6 $7 $8 $9 X,Y pos of 4 corners*
0 Add a 4 corners polygon primitive as box body*
4,1,4,$2,$3,$4,$5,$6,$7,$8,$9,$2,$3,0*
0 Add four circle primitives for the rounded corners*
1,1,$1+$1,$2,$3*
1,1,$1+$1,$4,$5*
1,1,$1+$1,$6,$7*
1,1,$1+$1,$8,$9*
0 Add four rect primitives between the rounded corners*
20,1,$1+$1,$2,$3,$4,$5,0*
20,1,$1+$1,$4,$5,$6,$7,0*
20,1,$1+$1,$6,$7,$8,$9,0*
20,1,$1+$1,$8,$9,$2,$3,0*%
G04 Aperture macros list end*
%ADD10C,0.150000*%
%ADD11C,0.120000*%
%ADD12C,0.127000*%
%ADD13C,1.750000*%
%ADD14C,4.000000*%
%ADD15C,2.500000*%
%ADD16RoundRect,0.102000X-0.900000X-0.410000X0.900000X-0.410000X0.900000X0.410000X-0.900000X0.410000X0*%
%ADD17C,3.048000*%
%ADD18C,3.987800*%
%ADD19R,1.600000X1.600000*%
%ADD20O,1.600000X1.600000*%
%ADD21RoundRect,0.102000X0.570000X-0.570000X0.570000X0.570000X-0.570000X0.570000X-0.570000X-0.570000X0*%
%ADD22C,1.344000*%
%ADD23O,1.700000X1.700000*%
%ADD24R,1.700000X1.700000*%
G04 APERTURE END LIST*
D10*
X155670417Y-164174700D02*
X155813274Y-164222319D01*
X155813274Y-164222319D02*
X156051369Y-164222319D01*
X156051369Y-164222319D02*
X156146607Y-164174700D01*
X156146607Y-164174700D02*
X156194226Y-164127080D01*
X156194226Y-164127080D02*
X156241845Y-164031842D01*
X156241845Y-164031842D02*
X156241845Y-163936604D01*
X156241845Y-163936604D02*
X156194226Y-163841366D01*
X156194226Y-163841366D02*
X156146607Y-163793747D01*
X156146607Y-163793747D02*
X156051369Y-163746128D01*
X156051369Y-163746128D02*
X155860893Y-163698509D01*
X155860893Y-163698509D02*
X155765655Y-163650890D01*
X155765655Y-163650890D02*
X155718036Y-163603271D01*
X155718036Y-163603271D02*
X155670417Y-163508033D01*
X155670417Y-163508033D02*
X155670417Y-163412795D01*
X155670417Y-163412795D02*
X155718036Y-163317557D01*
X155718036Y-163317557D02*
X155765655Y-163269938D01*
X155765655Y-163269938D02*
X155860893Y-163222319D01*
X155860893Y-163222319D02*
X156098988Y-163222319D01*
X156098988Y-163222319D02*
X156241845Y-163269938D01*
X156575179Y-163222319D02*
X156813274Y-164222319D01*
X156813274Y-164222319D02*
X157003750Y-163508033D01*
X157003750Y-163508033D02*
X157194226Y-164222319D01*
X157194226Y-164222319D02*
X157432322Y-163222319D01*
X157860893Y-164222319D02*
X158051369Y-164222319D01*
X158051369Y-164222319D02*
X158146607Y-164174700D01*
X158146607Y-164174700D02*
X158194226Y-164127080D01*
X158194226Y-164127080D02*
X158289464Y-163984223D01*
X158289464Y-163984223D02*
X158337083Y-163793747D01*
X158337083Y-163793747D02*
X158337083Y-163412795D01*
X158337083Y-163412795D02*
X158289464Y-163317557D01*
X158289464Y-163317557D02*
X158241845Y-163269938D01*
X158241845Y-163269938D02*
X158146607Y-163222319D01*
X158146607Y-163222319D02*
X157956131Y-163222319D01*
X157956131Y-163222319D02*
X157860893Y-163269938D01*
X157860893Y-163269938D02*
X157813274Y-163317557D01*
X157813274Y-163317557D02*
X157765655Y-163412795D01*
X157765655Y-163412795D02*
X157765655Y-163650890D01*
X157765655Y-163650890D02*
X157813274Y-163746128D01*
X157813274Y-163746128D02*
X157860893Y-163793747D01*
X157860893Y-163793747D02*
X157956131Y-163841366D01*
X157956131Y-163841366D02*
X158146607Y-163841366D01*
X158146607Y-163841366D02*
X158241845Y-163793747D01*
X158241845Y-163793747D02*
X158289464Y-163746128D01*
X158289464Y-163746128D02*
X158337083Y-163650890D01*
X93281726Y-207037200D02*
X93424583Y-207084819D01*
X93424583Y-207084819D02*
X93662678Y-207084819D01*
X93662678Y-207084819D02*
X93757916Y-207037200D01*
X93757916Y-207037200D02*
X93805535Y-206989580D01*
X93805535Y-206989580D02*
X93853154Y-206894342D01*
X93853154Y-206894342D02*
X93853154Y-206799104D01*
X93853154Y-206799104D02*
X93805535Y-206703866D01*
X93805535Y-206703866D02*
X93757916Y-206656247D01*
X93757916Y-206656247D02*
X93662678Y-206608628D01*
X93662678Y-206608628D02*
X93472202Y-206561009D01*
X93472202Y-206561009D02*
X93376964Y-206513390D01*
X93376964Y-206513390D02*
X93329345Y-206465771D01*
X93329345Y-206465771D02*
X93281726Y-206370533D01*
X93281726Y-206370533D02*
X93281726Y-206275295D01*
X93281726Y-206275295D02*
X93329345Y-206180057D01*
X93329345Y-206180057D02*
X93376964Y-206132438D01*
X93376964Y-206132438D02*
X93472202Y-206084819D01*
X93472202Y-206084819D02*
X93710297Y-206084819D01*
X93710297Y-206084819D02*
X93853154Y-206132438D01*
X94186488Y-206084819D02*
X94424583Y-207084819D01*
X94424583Y-207084819D02*
X94615059Y-206370533D01*
X94615059Y-206370533D02*
X94805535Y-207084819D01*
X94805535Y-207084819D02*
X95043631Y-206084819D01*
X95948392Y-207084819D02*
X95376964Y-207084819D01*
X95662678Y-207084819D02*
X95662678Y-206084819D01*
X95662678Y-206084819D02*
X95567440Y-206227676D01*
X95567440Y-206227676D02*
X95472202Y-206322914D01*
X95472202Y-206322914D02*
X95376964Y-206370533D01*
X96281726Y-206084819D02*
X96948392Y-206084819D01*
X96948392Y-206084819D02*
X96519821Y-207084819D01*
X365624821Y-226215138D02*
X365624821Y-224715138D01*
X365624821Y-224715138D02*
X365981964Y-224715138D01*
X365981964Y-224715138D02*
X366196250Y-224786567D01*
X366196250Y-224786567D02*
X366339107Y-224929424D01*
X366339107Y-224929424D02*
X366410536Y-225072281D01*
X366410536Y-225072281D02*
X366481964Y-225357995D01*
X366481964Y-225357995D02*
X366481964Y-225572281D01*
X366481964Y-225572281D02*
X366410536Y-225857995D01*
X366410536Y-225857995D02*
X366339107Y-226000852D01*
X366339107Y-226000852D02*
X366196250Y-226143710D01*
X366196250Y-226143710D02*
X365981964Y-226215138D01*
X365981964Y-226215138D02*
X365624821Y-226215138D01*
X367053393Y-224857995D02*
X367124821Y-224786567D01*
X367124821Y-224786567D02*
X367267679Y-224715138D01*
X367267679Y-224715138D02*
X367624821Y-224715138D01*
X367624821Y-224715138D02*
X367767679Y-224786567D01*
X367767679Y-224786567D02*
X367839107Y-224857995D01*
X367839107Y-224857995D02*
X367910536Y-225000852D01*
X367910536Y-225000852D02*
X367910536Y-225143710D01*
X367910536Y-225143710D02*
X367839107Y-225357995D01*
X367839107Y-225357995D02*
X366981964Y-226215138D01*
X366981964Y-226215138D02*
X367910536Y-226215138D01*
X369267678Y-224715138D02*
X368553392Y-224715138D01*
X368553392Y-224715138D02*
X368481964Y-225429424D01*
X368481964Y-225429424D02*
X368553392Y-225357995D01*
X368553392Y-225357995D02*
X368696250Y-225286567D01*
X368696250Y-225286567D02*
X369053392Y-225286567D01*
X369053392Y-225286567D02*
X369196250Y-225357995D01*
X369196250Y-225357995D02*
X369267678Y-225429424D01*
X369267678Y-225429424D02*
X369339107Y-225572281D01*
X369339107Y-225572281D02*
X369339107Y-225929424D01*
X369339107Y-225929424D02*
X369267678Y-226072281D01*
X369267678Y-226072281D02*
X369196250Y-226143710D01*
X369196250Y-226143710D02*
X369053392Y-226215138D01*
X369053392Y-226215138D02*
X368696250Y-226215138D01*
X368696250Y-226215138D02*
X368553392Y-226143710D01*
X368553392Y-226143710D02*
X368481964Y-226072281D01*
X365220417Y-197512200D02*
X365363274Y-197559819D01*
X365363274Y-197559819D02*
X365601369Y-197559819D01*
X365601369Y-197559819D02*
X365696607Y-197512200D01*
X365696607Y-197512200D02*
X365744226Y-197464580D01*
X365744226Y-197464580D02*
X365791845Y-197369342D01*
X365791845Y-197369342D02*
X365791845Y-197274104D01*
X365791845Y-197274104D02*
X365744226Y-197178866D01*
X365744226Y-197178866D02*
X365696607Y-197131247D01*
X365696607Y-197131247D02*
X365601369Y-197083628D01*
X365601369Y-197083628D02*
X365410893Y-197036009D01*
X365410893Y-197036009D02*
X365315655Y-196988390D01*
X365315655Y-196988390D02*
X365268036Y-196940771D01*
X365268036Y-196940771D02*
X365220417Y-196845533D01*
X365220417Y-196845533D02*
X365220417Y-196750295D01*
X365220417Y-196750295D02*
X365268036Y-196655057D01*
X365268036Y-196655057D02*
X365315655Y-196607438D01*
X365315655Y-196607438D02*
X365410893Y-196559819D01*
X365410893Y-196559819D02*
X365648988Y-196559819D01*
X365648988Y-196559819D02*
X365791845Y-196607438D01*
X366125179Y-196559819D02*
X366363274Y-197559819D01*
X366363274Y-197559819D02*
X366553750Y-196845533D01*
X366553750Y-196845533D02*
X366744226Y-197559819D01*
X366744226Y-197559819D02*
X366982322Y-196559819D01*
X367506131Y-196988390D02*
X367410893Y-196940771D01*
X367410893Y-196940771D02*
X367363274Y-196893152D01*
X367363274Y-196893152D02*
X367315655Y-196797914D01*
X367315655Y-196797914D02*
X367315655Y-196750295D01*
X367315655Y-196750295D02*
X367363274Y-196655057D01*
X367363274Y-196655057D02*
X367410893Y-196607438D01*
X367410893Y-196607438D02*
X367506131Y-196559819D01*
X367506131Y-196559819D02*
X367696607Y-196559819D01*
X367696607Y-196559819D02*
X367791845Y-196607438D01*
X367791845Y-196607438D02*
X367839464Y-196655057D01*
X367839464Y-196655057D02*
X367887083Y-196750295D01*
X367887083Y-196750295D02*
X367887083Y-196797914D01*
X367887083Y-196797914D02*
X367839464Y-196893152D01*
X367839464Y-196893152D02*
X367791845Y-196940771D01*
X367791845Y-196940771D02*
X367696607Y-196988390D01*
X367696607Y-196988390D02*
X367506131Y-196988390D01*
X367506131Y-196988390D02*
X367410893Y-197036009D01*
X367410893Y-197036009D02*
X367363274Y-197083628D01*
X367363274Y-197083628D02*
X367315655Y-197178866D01*
X367315655Y-197178866D02*
X367315655Y-197369342D01*
X367315655Y-197369342D02*
X367363274Y-197464580D01*
X367363274Y-197464580D02*
X367410893Y-197512200D01*
X367410893Y-197512200D02*
X367506131Y-197559819D01*
X367506131Y-197559819D02*
X367696607Y-197559819D01*
X367696607Y-197559819D02*
X367791845Y-197512200D01*
X367791845Y-197512200D02*
X367839464Y-197464580D01*
X367839464Y-197464580D02*
X367887083Y-197369342D01*
X367887083Y-197369342D02*
X367887083Y-197178866D01*
X367887083Y-197178866D02*
X367839464Y-197083628D01*
X367839464Y-197083628D02*
X367791845Y-197036009D01*
X367791845Y-197036009D02*
X367696607Y-196988390D01*
X208462321Y-226215138D02*
X208462321Y-224715138D01*
X208462321Y-224715138D02*
X208819464Y-224715138D01*
X208819464Y-224715138D02*
X209033750Y-224786567D01*
X209033750Y-224786567D02*
X209176607Y-224929424D01*
X209176607Y-224929424D02*
X209248036Y-225072281D01*
X209248036Y-225072281D02*
X209319464Y-225357995D01*
X209319464Y-225357995D02*
X209319464Y-225572281D01*
X209319464Y-225572281D02*
X209248036Y-225857995D01*
X209248036Y-225857995D02*
X209176607Y-226000852D01*
X209176607Y-226000852D02*
X209033750Y-226143710D01*
X209033750Y-226143710D02*
X208819464Y-226215138D01*
X208819464Y-226215138D02*
X208462321Y-226215138D01*
X209890893Y-224857995D02*
X209962321Y-224786567D01*
X209962321Y-224786567D02*
X210105179Y-224715138D01*
X210105179Y-224715138D02*
X210462321Y-224715138D01*
X210462321Y-224715138D02*
X210605179Y-224786567D01*
X210605179Y-224786567D02*
X210676607Y-224857995D01*
X210676607Y-224857995D02*
X210748036Y-225000852D01*
X210748036Y-225000852D02*
X210748036Y-225143710D01*
X210748036Y-225143710D02*
X210676607Y-225357995D01*
X210676607Y-225357995D02*
X209819464Y-226215138D01*
X209819464Y-226215138D02*
X210748036Y-226215138D01*
X211676607Y-224715138D02*
X211819464Y-224715138D01*
X211819464Y-224715138D02*
X211962321Y-224786567D01*
X211962321Y-224786567D02*
X212033750Y-224857995D01*
X212033750Y-224857995D02*
X212105178Y-225000852D01*
X212105178Y-225000852D02*
X212176607Y-225286567D01*
X212176607Y-225286567D02*
X212176607Y-225643710D01*
X212176607Y-225643710D02*
X212105178Y-225929424D01*
X212105178Y-225929424D02*
X212033750Y-226072281D01*
X212033750Y-226072281D02*
X211962321Y-226143710D01*
X211962321Y-226143710D02*
X211819464Y-226215138D01*
X211819464Y-226215138D02*
X211676607Y-226215138D01*
X211676607Y-226215138D02*
X211533750Y-226143710D01*
X211533750Y-226143710D02*
X211462321Y-226072281D01*
X211462321Y-226072281D02*
X211390892Y-225929424D01*
X211390892Y-225929424D02*
X211319464Y-225643710D01*
X211319464Y-225643710D02*
X211319464Y-225286567D01*
X211319464Y-225286567D02*
X211390892Y-225000852D01*
X211390892Y-225000852D02*
X211462321Y-224857995D01*
X211462321Y-224857995D02*
X211533750Y-224786567D01*
X211533750Y-224786567D02*
X211676607Y-224715138D01*
X289424821Y-192877638D02*
X289424821Y-191377638D01*
X289424821Y-191377638D02*
X289781964Y-191377638D01*
X289781964Y-191377638D02*
X289996250Y-191449067D01*
X289996250Y-191449067D02*
X290139107Y-191591924D01*
X290139107Y-191591924D02*
X290210536Y-191734781D01*
X290210536Y-191734781D02*
X290281964Y-192020495D01*
X290281964Y-192020495D02*
X290281964Y-192234781D01*
X290281964Y-192234781D02*
X290210536Y-192520495D01*
X290210536Y-192520495D02*
X290139107Y-192663352D01*
X290139107Y-192663352D02*
X289996250Y-192806210D01*
X289996250Y-192806210D02*
X289781964Y-192877638D01*
X289781964Y-192877638D02*
X289424821Y-192877638D01*
X290853393Y-191520495D02*
X290924821Y-191449067D01*
X290924821Y-191449067D02*
X291067679Y-191377638D01*
X291067679Y-191377638D02*
X291424821Y-191377638D01*
X291424821Y-191377638D02*
X291567679Y-191449067D01*
X291567679Y-191449067D02*
X291639107Y-191520495D01*
X291639107Y-191520495D02*
X291710536Y-191663352D01*
X291710536Y-191663352D02*
X291710536Y-191806210D01*
X291710536Y-191806210D02*
X291639107Y-192020495D01*
X291639107Y-192020495D02*
X290781964Y-192877638D01*
X290781964Y-192877638D02*
X291710536Y-192877638D01*
X292424821Y-192877638D02*
X292710535Y-192877638D01*
X292710535Y-192877638D02*
X292853392Y-192806210D01*
X292853392Y-192806210D02*
X292924821Y-192734781D01*
X292924821Y-192734781D02*
X293067678Y-192520495D01*
X293067678Y-192520495D02*
X293139107Y-192234781D01*
X293139107Y-192234781D02*
X293139107Y-191663352D01*
X293139107Y-191663352D02*
X293067678Y-191520495D01*
X293067678Y-191520495D02*
X292996250Y-191449067D01*
X292996250Y-191449067D02*
X292853392Y-191377638D01*
X292853392Y-191377638D02*
X292567678Y-191377638D01*
X292567678Y-191377638D02*
X292424821Y-191449067D01*
X292424821Y-191449067D02*
X292353392Y-191520495D01*
X292353392Y-191520495D02*
X292281964Y-191663352D01*
X292281964Y-191663352D02*
X292281964Y-192020495D01*
X292281964Y-192020495D02*
X292353392Y-192163352D01*
X292353392Y-192163352D02*
X292424821Y-192234781D01*
X292424821Y-192234781D02*
X292567678Y-192306210D01*
X292567678Y-192306210D02*
X292853392Y-192306210D01*
X292853392Y-192306210D02*
X292996250Y-192234781D01*
X292996250Y-192234781D02*
X293067678Y-192163352D01*
X293067678Y-192163352D02*
X293139107Y-192020495D01*
X208156069Y-203063333D02*
X207679878Y-203396666D01*
X208156069Y-203634761D02*
X207156069Y-203634761D01*
X207156069Y-203634761D02*
X207156069Y-203253809D01*
X207156069Y-203253809D02*
X207203688Y-203158571D01*
X207203688Y-203158571D02*
X207251307Y-203110952D01*
X207251307Y-203110952D02*
X207346545Y-203063333D01*
X207346545Y-203063333D02*
X207489402Y-203063333D01*
X207489402Y-203063333D02*
X207584640Y-203110952D01*
X207584640Y-203110952D02*
X207632259Y-203158571D01*
X207632259Y-203158571D02*
X207679878Y-203253809D01*
X207679878Y-203253809D02*
X207679878Y-203634761D01*
X207632259Y-202634761D02*
X207632259Y-202301428D01*
X208156069Y-202158571D02*
X208156069Y-202634761D01*
X208156069Y-202634761D02*
X207156069Y-202634761D01*
X207156069Y-202634761D02*
X207156069Y-202158571D01*
X207632259Y-201396666D02*
X207632259Y-201729999D01*
X208156069Y-201729999D02*
X207156069Y-201729999D01*
X207156069Y-201729999D02*
X207156069Y-201253809D01*
X207156069Y-200729999D02*
X207394164Y-200729999D01*
X207298926Y-200968094D02*
X207394164Y-200729999D01*
X207394164Y-200729999D02*
X207298926Y-200491904D01*
X207584640Y-200872856D02*
X207394164Y-200729999D01*
X207394164Y-200729999D02*
X207584640Y-200587142D01*
X207156069Y-199968094D02*
X207394164Y-199968094D01*
X207298926Y-200206189D02*
X207394164Y-199968094D01*
X207394164Y-199968094D02*
X207298926Y-199729999D01*
X207584640Y-200110951D02*
X207394164Y-199968094D01*
X207394164Y-199968094D02*
X207584640Y-199825237D01*
X189106069Y-169725833D02*
X188629878Y-170059166D01*
X189106069Y-170297261D02*
X188106069Y-170297261D01*
X188106069Y-170297261D02*
X188106069Y-169916309D01*
X188106069Y-169916309D02*
X188153688Y-169821071D01*
X188153688Y-169821071D02*
X188201307Y-169773452D01*
X188201307Y-169773452D02*
X188296545Y-169725833D01*
X188296545Y-169725833D02*
X188439402Y-169725833D01*
X188439402Y-169725833D02*
X188534640Y-169773452D01*
X188534640Y-169773452D02*
X188582259Y-169821071D01*
X188582259Y-169821071D02*
X188629878Y-169916309D01*
X188629878Y-169916309D02*
X188629878Y-170297261D01*
X188582259Y-169297261D02*
X188582259Y-168963928D01*
X189106069Y-168821071D02*
X189106069Y-169297261D01*
X189106069Y-169297261D02*
X188106069Y-169297261D01*
X188106069Y-169297261D02*
X188106069Y-168821071D01*
X188582259Y-168059166D02*
X188582259Y-168392499D01*
X189106069Y-168392499D02*
X188106069Y-168392499D01*
X188106069Y-168392499D02*
X188106069Y-167916309D01*
X188106069Y-167392499D02*
X188344164Y-167392499D01*
X188248926Y-167630594D02*
X188344164Y-167392499D01*
X188344164Y-167392499D02*
X188248926Y-167154404D01*
X188534640Y-167535356D02*
X188344164Y-167392499D01*
X188344164Y-167392499D02*
X188534640Y-167249642D01*
X188106069Y-166630594D02*
X188344164Y-166630594D01*
X188248926Y-166868689D02*
X188344164Y-166630594D01*
X188344164Y-166630594D02*
X188248926Y-166392499D01*
X188534640Y-166773451D02*
X188344164Y-166630594D01*
X188344164Y-166630594D02*
X188534640Y-166487737D01*
X36706069Y-203063333D02*
X36229878Y-203396666D01*
X36706069Y-203634761D02*
X35706069Y-203634761D01*
X35706069Y-203634761D02*
X35706069Y-203253809D01*
X35706069Y-203253809D02*
X35753688Y-203158571D01*
X35753688Y-203158571D02*
X35801307Y-203110952D01*
X35801307Y-203110952D02*
X35896545Y-203063333D01*
X35896545Y-203063333D02*
X36039402Y-203063333D01*
X36039402Y-203063333D02*
X36134640Y-203110952D01*
X36134640Y-203110952D02*
X36182259Y-203158571D01*
X36182259Y-203158571D02*
X36229878Y-203253809D01*
X36229878Y-203253809D02*
X36229878Y-203634761D01*
X36182259Y-202634761D02*
X36182259Y-202301428D01*
X36706069Y-202158571D02*
X36706069Y-202634761D01*
X36706069Y-202634761D02*
X35706069Y-202634761D01*
X35706069Y-202634761D02*
X35706069Y-202158571D01*
X36182259Y-201396666D02*
X36182259Y-201729999D01*
X36706069Y-201729999D02*
X35706069Y-201729999D01*
X35706069Y-201729999D02*
X35706069Y-201253809D01*
X35706069Y-200729999D02*
X35944164Y-200729999D01*
X35848926Y-200968094D02*
X35944164Y-200729999D01*
X35944164Y-200729999D02*
X35848926Y-200491904D01*
X36134640Y-200872856D02*
X35944164Y-200729999D01*
X35944164Y-200729999D02*
X36134640Y-200587142D01*
X35706069Y-199968094D02*
X35944164Y-199968094D01*
X35848926Y-200206189D02*
X35944164Y-199968094D01*
X35944164Y-199968094D02*
X35848926Y-199729999D01*
X36134640Y-200110951D02*
X35944164Y-199968094D01*
X35944164Y-199968094D02*
X36134640Y-199825237D01*
X174720417Y-197512200D02*
X174863274Y-197559819D01*
X174863274Y-197559819D02*
X175101369Y-197559819D01*
X175101369Y-197559819D02*
X175196607Y-197512200D01*
X175196607Y-197512200D02*
X175244226Y-197464580D01*
X175244226Y-197464580D02*
X175291845Y-197369342D01*
X175291845Y-197369342D02*
X175291845Y-197274104D01*
X175291845Y-197274104D02*
X175244226Y-197178866D01*
X175244226Y-197178866D02*
X175196607Y-197131247D01*
X175196607Y-197131247D02*
X175101369Y-197083628D01*
X175101369Y-197083628D02*
X174910893Y-197036009D01*
X174910893Y-197036009D02*
X174815655Y-196988390D01*
X174815655Y-196988390D02*
X174768036Y-196940771D01*
X174768036Y-196940771D02*
X174720417Y-196845533D01*
X174720417Y-196845533D02*
X174720417Y-196750295D01*
X174720417Y-196750295D02*
X174768036Y-196655057D01*
X174768036Y-196655057D02*
X174815655Y-196607438D01*
X174815655Y-196607438D02*
X174910893Y-196559819D01*
X174910893Y-196559819D02*
X175148988Y-196559819D01*
X175148988Y-196559819D02*
X175291845Y-196607438D01*
X175625179Y-196559819D02*
X175863274Y-197559819D01*
X175863274Y-197559819D02*
X176053750Y-196845533D01*
X176053750Y-196845533D02*
X176244226Y-197559819D01*
X176244226Y-197559819D02*
X176482322Y-196559819D01*
X176815655Y-196655057D02*
X176863274Y-196607438D01*
X176863274Y-196607438D02*
X176958512Y-196559819D01*
X176958512Y-196559819D02*
X177196607Y-196559819D01*
X177196607Y-196559819D02*
X177291845Y-196607438D01*
X177291845Y-196607438D02*
X177339464Y-196655057D01*
X177339464Y-196655057D02*
X177387083Y-196750295D01*
X177387083Y-196750295D02*
X177387083Y-196845533D01*
X177387083Y-196845533D02*
X177339464Y-196988390D01*
X177339464Y-196988390D02*
X176768036Y-197559819D01*
X176768036Y-197559819D02*
X177387083Y-197559819D01*
X326644226Y-164174700D02*
X326787083Y-164222319D01*
X326787083Y-164222319D02*
X327025178Y-164222319D01*
X327025178Y-164222319D02*
X327120416Y-164174700D01*
X327120416Y-164174700D02*
X327168035Y-164127080D01*
X327168035Y-164127080D02*
X327215654Y-164031842D01*
X327215654Y-164031842D02*
X327215654Y-163936604D01*
X327215654Y-163936604D02*
X327168035Y-163841366D01*
X327168035Y-163841366D02*
X327120416Y-163793747D01*
X327120416Y-163793747D02*
X327025178Y-163746128D01*
X327025178Y-163746128D02*
X326834702Y-163698509D01*
X326834702Y-163698509D02*
X326739464Y-163650890D01*
X326739464Y-163650890D02*
X326691845Y-163603271D01*
X326691845Y-163603271D02*
X326644226Y-163508033D01*
X326644226Y-163508033D02*
X326644226Y-163412795D01*
X326644226Y-163412795D02*
X326691845Y-163317557D01*
X326691845Y-163317557D02*
X326739464Y-163269938D01*
X326739464Y-163269938D02*
X326834702Y-163222319D01*
X326834702Y-163222319D02*
X327072797Y-163222319D01*
X327072797Y-163222319D02*
X327215654Y-163269938D01*
X327548988Y-163222319D02*
X327787083Y-164222319D01*
X327787083Y-164222319D02*
X327977559Y-163508033D01*
X327977559Y-163508033D02*
X328168035Y-164222319D01*
X328168035Y-164222319D02*
X328406131Y-163222319D01*
X329310892Y-164222319D02*
X328739464Y-164222319D01*
X329025178Y-164222319D02*
X329025178Y-163222319D01*
X329025178Y-163222319D02*
X328929940Y-163365176D01*
X328929940Y-163365176D02*
X328834702Y-163460414D01*
X328834702Y-163460414D02*
X328739464Y-163508033D01*
X329644226Y-163222319D02*
X330263273Y-163222319D01*
X330263273Y-163222319D02*
X329929940Y-163603271D01*
X329929940Y-163603271D02*
X330072797Y-163603271D01*
X330072797Y-163603271D02*
X330168035Y-163650890D01*
X330168035Y-163650890D02*
X330215654Y-163698509D01*
X330215654Y-163698509D02*
X330263273Y-163793747D01*
X330263273Y-163793747D02*
X330263273Y-164031842D01*
X330263273Y-164031842D02*
X330215654Y-164127080D01*
X330215654Y-164127080D02*
X330168035Y-164174700D01*
X330168035Y-164174700D02*
X330072797Y-164222319D01*
X330072797Y-164222319D02*
X329787083Y-164222319D01*
X329787083Y-164222319D02*
X329691845Y-164174700D01*
X329691845Y-164174700D02*
X329644226Y-164127080D01*
X237037321Y-226215138D02*
X237037321Y-224715138D01*
X237037321Y-224715138D02*
X237394464Y-224715138D01*
X237394464Y-224715138D02*
X237608750Y-224786567D01*
X237608750Y-224786567D02*
X237751607Y-224929424D01*
X237751607Y-224929424D02*
X237823036Y-225072281D01*
X237823036Y-225072281D02*
X237894464Y-225357995D01*
X237894464Y-225357995D02*
X237894464Y-225572281D01*
X237894464Y-225572281D02*
X237823036Y-225857995D01*
X237823036Y-225857995D02*
X237751607Y-226000852D01*
X237751607Y-226000852D02*
X237608750Y-226143710D01*
X237608750Y-226143710D02*
X237394464Y-226215138D01*
X237394464Y-226215138D02*
X237037321Y-226215138D01*
X238465893Y-224857995D02*
X238537321Y-224786567D01*
X238537321Y-224786567D02*
X238680179Y-224715138D01*
X238680179Y-224715138D02*
X239037321Y-224715138D01*
X239037321Y-224715138D02*
X239180179Y-224786567D01*
X239180179Y-224786567D02*
X239251607Y-224857995D01*
X239251607Y-224857995D02*
X239323036Y-225000852D01*
X239323036Y-225000852D02*
X239323036Y-225143710D01*
X239323036Y-225143710D02*
X239251607Y-225357995D01*
X239251607Y-225357995D02*
X238394464Y-226215138D01*
X238394464Y-226215138D02*
X239323036Y-226215138D01*
X240751607Y-226215138D02*
X239894464Y-226215138D01*
X240323035Y-226215138D02*
X240323035Y-224715138D01*
X240323035Y-224715138D02*
X240180178Y-224929424D01*
X240180178Y-224929424D02*
X240037321Y-225072281D01*
X240037321Y-225072281D02*
X239894464Y-225143710D01*
X327524821Y-192877638D02*
X327524821Y-191377638D01*
X327524821Y-191377638D02*
X327881964Y-191377638D01*
X327881964Y-191377638D02*
X328096250Y-191449067D01*
X328096250Y-191449067D02*
X328239107Y-191591924D01*
X328239107Y-191591924D02*
X328310536Y-191734781D01*
X328310536Y-191734781D02*
X328381964Y-192020495D01*
X328381964Y-192020495D02*
X328381964Y-192234781D01*
X328381964Y-192234781D02*
X328310536Y-192520495D01*
X328310536Y-192520495D02*
X328239107Y-192663352D01*
X328239107Y-192663352D02*
X328096250Y-192806210D01*
X328096250Y-192806210D02*
X327881964Y-192877638D01*
X327881964Y-192877638D02*
X327524821Y-192877638D01*
X328881964Y-191377638D02*
X329810536Y-191377638D01*
X329810536Y-191377638D02*
X329310536Y-191949067D01*
X329310536Y-191949067D02*
X329524821Y-191949067D01*
X329524821Y-191949067D02*
X329667679Y-192020495D01*
X329667679Y-192020495D02*
X329739107Y-192091924D01*
X329739107Y-192091924D02*
X329810536Y-192234781D01*
X329810536Y-192234781D02*
X329810536Y-192591924D01*
X329810536Y-192591924D02*
X329739107Y-192734781D01*
X329739107Y-192734781D02*
X329667679Y-192806210D01*
X329667679Y-192806210D02*
X329524821Y-192877638D01*
X329524821Y-192877638D02*
X329096250Y-192877638D01*
X329096250Y-192877638D02*
X328953393Y-192806210D01*
X328953393Y-192806210D02*
X328881964Y-192734781D01*
X330739107Y-191377638D02*
X330881964Y-191377638D01*
X330881964Y-191377638D02*
X331024821Y-191449067D01*
X331024821Y-191449067D02*
X331096250Y-191520495D01*
X331096250Y-191520495D02*
X331167678Y-191663352D01*
X331167678Y-191663352D02*
X331239107Y-191949067D01*
X331239107Y-191949067D02*
X331239107Y-192306210D01*
X331239107Y-192306210D02*
X331167678Y-192591924D01*
X331167678Y-192591924D02*
X331096250Y-192734781D01*
X331096250Y-192734781D02*
X331024821Y-192806210D01*
X331024821Y-192806210D02*
X330881964Y-192877638D01*
X330881964Y-192877638D02*
X330739107Y-192877638D01*
X330739107Y-192877638D02*
X330596250Y-192806210D01*
X330596250Y-192806210D02*
X330524821Y-192734781D01*
X330524821Y-192734781D02*
X330453392Y-192591924D01*
X330453392Y-192591924D02*
X330381964Y-192306210D01*
X330381964Y-192306210D02*
X330381964Y-191949067D01*
X330381964Y-191949067D02*
X330453392Y-191663352D01*
X330453392Y-191663352D02*
X330524821Y-191520495D01*
X330524821Y-191520495D02*
X330596250Y-191449067D01*
X330596250Y-191449067D02*
X330739107Y-191377638D01*
X193294226Y-164174700D02*
X193437083Y-164222319D01*
X193437083Y-164222319D02*
X193675178Y-164222319D01*
X193675178Y-164222319D02*
X193770416Y-164174700D01*
X193770416Y-164174700D02*
X193818035Y-164127080D01*
X193818035Y-164127080D02*
X193865654Y-164031842D01*
X193865654Y-164031842D02*
X193865654Y-163936604D01*
X193865654Y-163936604D02*
X193818035Y-163841366D01*
X193818035Y-163841366D02*
X193770416Y-163793747D01*
X193770416Y-163793747D02*
X193675178Y-163746128D01*
X193675178Y-163746128D02*
X193484702Y-163698509D01*
X193484702Y-163698509D02*
X193389464Y-163650890D01*
X193389464Y-163650890D02*
X193341845Y-163603271D01*
X193341845Y-163603271D02*
X193294226Y-163508033D01*
X193294226Y-163508033D02*
X193294226Y-163412795D01*
X193294226Y-163412795D02*
X193341845Y-163317557D01*
X193341845Y-163317557D02*
X193389464Y-163269938D01*
X193389464Y-163269938D02*
X193484702Y-163222319D01*
X193484702Y-163222319D02*
X193722797Y-163222319D01*
X193722797Y-163222319D02*
X193865654Y-163269938D01*
X194198988Y-163222319D02*
X194437083Y-164222319D01*
X194437083Y-164222319D02*
X194627559Y-163508033D01*
X194627559Y-163508033D02*
X194818035Y-164222319D01*
X194818035Y-164222319D02*
X195056131Y-163222319D01*
X195960892Y-164222319D02*
X195389464Y-164222319D01*
X195675178Y-164222319D02*
X195675178Y-163222319D01*
X195675178Y-163222319D02*
X195579940Y-163365176D01*
X195579940Y-163365176D02*
X195484702Y-163460414D01*
X195484702Y-163460414D02*
X195389464Y-163508033D01*
X196579940Y-163222319D02*
X196675178Y-163222319D01*
X196675178Y-163222319D02*
X196770416Y-163269938D01*
X196770416Y-163269938D02*
X196818035Y-163317557D01*
X196818035Y-163317557D02*
X196865654Y-163412795D01*
X196865654Y-163412795D02*
X196913273Y-163603271D01*
X196913273Y-163603271D02*
X196913273Y-163841366D01*
X196913273Y-163841366D02*
X196865654Y-164031842D01*
X196865654Y-164031842D02*
X196818035Y-164127080D01*
X196818035Y-164127080D02*
X196770416Y-164174700D01*
X196770416Y-164174700D02*
X196675178Y-164222319D01*
X196675178Y-164222319D02*
X196579940Y-164222319D01*
X196579940Y-164222319D02*
X196484702Y-164174700D01*
X196484702Y-164174700D02*
X196437083Y-164127080D01*
X196437083Y-164127080D02*
X196389464Y-164031842D01*
X196389464Y-164031842D02*
X196341845Y-163841366D01*
X196341845Y-163841366D02*
X196341845Y-163603271D01*
X196341845Y-163603271D02*
X196389464Y-163412795D01*
X196389464Y-163412795D02*
X196437083Y-163317557D01*
X196437083Y-163317557D02*
X196484702Y-163269938D01*
X196484702Y-163269938D02*
X196579940Y-163222319D01*
X170056069Y-203063333D02*
X169579878Y-203396666D01*
X170056069Y-203634761D02*
X169056069Y-203634761D01*
X169056069Y-203634761D02*
X169056069Y-203253809D01*
X169056069Y-203253809D02*
X169103688Y-203158571D01*
X169103688Y-203158571D02*
X169151307Y-203110952D01*
X169151307Y-203110952D02*
X169246545Y-203063333D01*
X169246545Y-203063333D02*
X169389402Y-203063333D01*
X169389402Y-203063333D02*
X169484640Y-203110952D01*
X169484640Y-203110952D02*
X169532259Y-203158571D01*
X169532259Y-203158571D02*
X169579878Y-203253809D01*
X169579878Y-203253809D02*
X169579878Y-203634761D01*
X169532259Y-202634761D02*
X169532259Y-202301428D01*
X170056069Y-202158571D02*
X170056069Y-202634761D01*
X170056069Y-202634761D02*
X169056069Y-202634761D01*
X169056069Y-202634761D02*
X169056069Y-202158571D01*
X169532259Y-201396666D02*
X169532259Y-201729999D01*
X170056069Y-201729999D02*
X169056069Y-201729999D01*
X169056069Y-201729999D02*
X169056069Y-201253809D01*
X169056069Y-200729999D02*
X169294164Y-200729999D01*
X169198926Y-200968094D02*
X169294164Y-200729999D01*
X169294164Y-200729999D02*
X169198926Y-200491904D01*
X169484640Y-200872856D02*
X169294164Y-200729999D01*
X169294164Y-200729999D02*
X169484640Y-200587142D01*
X169056069Y-199968094D02*
X169294164Y-199968094D01*
X169198926Y-200206189D02*
X169294164Y-199968094D01*
X169294164Y-199968094D02*
X169198926Y-199729999D01*
X169484640Y-200110951D02*
X169294164Y-199968094D01*
X169294164Y-199968094D02*
X169484640Y-199825237D01*
X131956069Y-203063333D02*
X131479878Y-203396666D01*
X131956069Y-203634761D02*
X130956069Y-203634761D01*
X130956069Y-203634761D02*
X130956069Y-203253809D01*
X130956069Y-203253809D02*
X131003688Y-203158571D01*
X131003688Y-203158571D02*
X131051307Y-203110952D01*
X131051307Y-203110952D02*
X131146545Y-203063333D01*
X131146545Y-203063333D02*
X131289402Y-203063333D01*
X131289402Y-203063333D02*
X131384640Y-203110952D01*
X131384640Y-203110952D02*
X131432259Y-203158571D01*
X131432259Y-203158571D02*
X131479878Y-203253809D01*
X131479878Y-203253809D02*
X131479878Y-203634761D01*
X131432259Y-202634761D02*
X131432259Y-202301428D01*
X131956069Y-202158571D02*
X131956069Y-202634761D01*
X131956069Y-202634761D02*
X130956069Y-202634761D01*
X130956069Y-202634761D02*
X130956069Y-202158571D01*
X131432259Y-201396666D02*
X131432259Y-201729999D01*
X131956069Y-201729999D02*
X130956069Y-201729999D01*
X130956069Y-201729999D02*
X130956069Y-201253809D01*
X130956069Y-200729999D02*
X131194164Y-200729999D01*
X131098926Y-200968094D02*
X131194164Y-200729999D01*
X131194164Y-200729999D02*
X131098926Y-200491904D01*
X131384640Y-200872856D02*
X131194164Y-200729999D01*
X131194164Y-200729999D02*
X131384640Y-200587142D01*
X130956069Y-199968094D02*
X131194164Y-199968094D01*
X131098926Y-200206189D02*
X131194164Y-199968094D01*
X131194164Y-199968094D02*
X131098926Y-199729999D01*
X131384640Y-200110951D02*
X131194164Y-199968094D01*
X131194164Y-199968094D02*
X131384640Y-199825237D01*
X74231726Y-207037200D02*
X74374583Y-207084819D01*
X74374583Y-207084819D02*
X74612678Y-207084819D01*
X74612678Y-207084819D02*
X74707916Y-207037200D01*
X74707916Y-207037200D02*
X74755535Y-206989580D01*
X74755535Y-206989580D02*
X74803154Y-206894342D01*
X74803154Y-206894342D02*
X74803154Y-206799104D01*
X74803154Y-206799104D02*
X74755535Y-206703866D01*
X74755535Y-206703866D02*
X74707916Y-206656247D01*
X74707916Y-206656247D02*
X74612678Y-206608628D01*
X74612678Y-206608628D02*
X74422202Y-206561009D01*
X74422202Y-206561009D02*
X74326964Y-206513390D01*
X74326964Y-206513390D02*
X74279345Y-206465771D01*
X74279345Y-206465771D02*
X74231726Y-206370533D01*
X74231726Y-206370533D02*
X74231726Y-206275295D01*
X74231726Y-206275295D02*
X74279345Y-206180057D01*
X74279345Y-206180057D02*
X74326964Y-206132438D01*
X74326964Y-206132438D02*
X74422202Y-206084819D01*
X74422202Y-206084819D02*
X74660297Y-206084819D01*
X74660297Y-206084819D02*
X74803154Y-206132438D01*
X75136488Y-206084819D02*
X75374583Y-207084819D01*
X75374583Y-207084819D02*
X75565059Y-206370533D01*
X75565059Y-206370533D02*
X75755535Y-207084819D01*
X75755535Y-207084819D02*
X75993631Y-206084819D01*
X76898392Y-207084819D02*
X76326964Y-207084819D01*
X76612678Y-207084819D02*
X76612678Y-206084819D01*
X76612678Y-206084819D02*
X76517440Y-206227676D01*
X76517440Y-206227676D02*
X76422202Y-206322914D01*
X76422202Y-206322914D02*
X76326964Y-206370533D01*
X77755535Y-206084819D02*
X77565059Y-206084819D01*
X77565059Y-206084819D02*
X77469821Y-206132438D01*
X77469821Y-206132438D02*
X77422202Y-206180057D01*
X77422202Y-206180057D02*
X77326964Y-206322914D01*
X77326964Y-206322914D02*
X77279345Y-206513390D01*
X77279345Y-206513390D02*
X77279345Y-206894342D01*
X77279345Y-206894342D02*
X77326964Y-206989580D01*
X77326964Y-206989580D02*
X77374583Y-207037200D01*
X77374583Y-207037200D02*
X77469821Y-207084819D01*
X77469821Y-207084819D02*
X77660297Y-207084819D01*
X77660297Y-207084819D02*
X77755535Y-207037200D01*
X77755535Y-207037200D02*
X77803154Y-206989580D01*
X77803154Y-206989580D02*
X77850773Y-206894342D01*
X77850773Y-206894342D02*
X77850773Y-206656247D01*
X77850773Y-206656247D02*
X77803154Y-206561009D01*
X77803154Y-206561009D02*
X77755535Y-206513390D01*
X77755535Y-206513390D02*
X77660297Y-206465771D01*
X77660297Y-206465771D02*
X77469821Y-206465771D01*
X77469821Y-206465771D02*
X77374583Y-206513390D01*
X77374583Y-206513390D02*
X77326964Y-206561009D01*
X77326964Y-206561009D02*
X77279345Y-206656247D01*
X93281726Y-187987200D02*
X93424583Y-188034819D01*
X93424583Y-188034819D02*
X93662678Y-188034819D01*
X93662678Y-188034819D02*
X93757916Y-187987200D01*
X93757916Y-187987200D02*
X93805535Y-187939580D01*
X93805535Y-187939580D02*
X93853154Y-187844342D01*
X93853154Y-187844342D02*
X93853154Y-187749104D01*
X93853154Y-187749104D02*
X93805535Y-187653866D01*
X93805535Y-187653866D02*
X93757916Y-187606247D01*
X93757916Y-187606247D02*
X93662678Y-187558628D01*
X93662678Y-187558628D02*
X93472202Y-187511009D01*
X93472202Y-187511009D02*
X93376964Y-187463390D01*
X93376964Y-187463390D02*
X93329345Y-187415771D01*
X93329345Y-187415771D02*
X93281726Y-187320533D01*
X93281726Y-187320533D02*
X93281726Y-187225295D01*
X93281726Y-187225295D02*
X93329345Y-187130057D01*
X93329345Y-187130057D02*
X93376964Y-187082438D01*
X93376964Y-187082438D02*
X93472202Y-187034819D01*
X93472202Y-187034819D02*
X93710297Y-187034819D01*
X93710297Y-187034819D02*
X93853154Y-187082438D01*
X94186488Y-187034819D02*
X94424583Y-188034819D01*
X94424583Y-188034819D02*
X94615059Y-187320533D01*
X94615059Y-187320533D02*
X94805535Y-188034819D01*
X94805535Y-188034819D02*
X95043631Y-187034819D01*
X95948392Y-188034819D02*
X95376964Y-188034819D01*
X95662678Y-188034819D02*
X95662678Y-187034819D01*
X95662678Y-187034819D02*
X95567440Y-187177676D01*
X95567440Y-187177676D02*
X95472202Y-187272914D01*
X95472202Y-187272914D02*
X95376964Y-187320533D01*
X96853154Y-187034819D02*
X96376964Y-187034819D01*
X96376964Y-187034819D02*
X96329345Y-187511009D01*
X96329345Y-187511009D02*
X96376964Y-187463390D01*
X96376964Y-187463390D02*
X96472202Y-187415771D01*
X96472202Y-187415771D02*
X96710297Y-187415771D01*
X96710297Y-187415771D02*
X96805535Y-187463390D01*
X96805535Y-187463390D02*
X96853154Y-187511009D01*
X96853154Y-187511009D02*
X96900773Y-187606247D01*
X96900773Y-187606247D02*
X96900773Y-187844342D01*
X96900773Y-187844342D02*
X96853154Y-187939580D01*
X96853154Y-187939580D02*
X96805535Y-187987200D01*
X96805535Y-187987200D02*
X96710297Y-188034819D01*
X96710297Y-188034819D02*
X96472202Y-188034819D01*
X96472202Y-188034819D02*
X96376964Y-187987200D01*
X96376964Y-187987200D02*
X96329345Y-187939580D01*
X308474821Y-226215138D02*
X308474821Y-224715138D01*
X308474821Y-224715138D02*
X308831964Y-224715138D01*
X308831964Y-224715138D02*
X309046250Y-224786567D01*
X309046250Y-224786567D02*
X309189107Y-224929424D01*
X309189107Y-224929424D02*
X309260536Y-225072281D01*
X309260536Y-225072281D02*
X309331964Y-225357995D01*
X309331964Y-225357995D02*
X309331964Y-225572281D01*
X309331964Y-225572281D02*
X309260536Y-225857995D01*
X309260536Y-225857995D02*
X309189107Y-226000852D01*
X309189107Y-226000852D02*
X309046250Y-226143710D01*
X309046250Y-226143710D02*
X308831964Y-226215138D01*
X308831964Y-226215138D02*
X308474821Y-226215138D01*
X309903393Y-224857995D02*
X309974821Y-224786567D01*
X309974821Y-224786567D02*
X310117679Y-224715138D01*
X310117679Y-224715138D02*
X310474821Y-224715138D01*
X310474821Y-224715138D02*
X310617679Y-224786567D01*
X310617679Y-224786567D02*
X310689107Y-224857995D01*
X310689107Y-224857995D02*
X310760536Y-225000852D01*
X310760536Y-225000852D02*
X310760536Y-225143710D01*
X310760536Y-225143710D02*
X310689107Y-225357995D01*
X310689107Y-225357995D02*
X309831964Y-226215138D01*
X309831964Y-226215138D02*
X310760536Y-226215138D01*
X311260535Y-224715138D02*
X312189107Y-224715138D01*
X312189107Y-224715138D02*
X311689107Y-225286567D01*
X311689107Y-225286567D02*
X311903392Y-225286567D01*
X311903392Y-225286567D02*
X312046250Y-225357995D01*
X312046250Y-225357995D02*
X312117678Y-225429424D01*
X312117678Y-225429424D02*
X312189107Y-225572281D01*
X312189107Y-225572281D02*
X312189107Y-225929424D01*
X312189107Y-225929424D02*
X312117678Y-226072281D01*
X312117678Y-226072281D02*
X312046250Y-226143710D01*
X312046250Y-226143710D02*
X311903392Y-226215138D01*
X311903392Y-226215138D02*
X311474821Y-226215138D01*
X311474821Y-226215138D02*
X311331964Y-226143710D01*
X311331964Y-226143710D02*
X311260535Y-226072281D01*
X288544226Y-164174700D02*
X288687083Y-164222319D01*
X288687083Y-164222319D02*
X288925178Y-164222319D01*
X288925178Y-164222319D02*
X289020416Y-164174700D01*
X289020416Y-164174700D02*
X289068035Y-164127080D01*
X289068035Y-164127080D02*
X289115654Y-164031842D01*
X289115654Y-164031842D02*
X289115654Y-163936604D01*
X289115654Y-163936604D02*
X289068035Y-163841366D01*
X289068035Y-163841366D02*
X289020416Y-163793747D01*
X289020416Y-163793747D02*
X288925178Y-163746128D01*
X288925178Y-163746128D02*
X288734702Y-163698509D01*
X288734702Y-163698509D02*
X288639464Y-163650890D01*
X288639464Y-163650890D02*
X288591845Y-163603271D01*
X288591845Y-163603271D02*
X288544226Y-163508033D01*
X288544226Y-163508033D02*
X288544226Y-163412795D01*
X288544226Y-163412795D02*
X288591845Y-163317557D01*
X288591845Y-163317557D02*
X288639464Y-163269938D01*
X288639464Y-163269938D02*
X288734702Y-163222319D01*
X288734702Y-163222319D02*
X288972797Y-163222319D01*
X288972797Y-163222319D02*
X289115654Y-163269938D01*
X289448988Y-163222319D02*
X289687083Y-164222319D01*
X289687083Y-164222319D02*
X289877559Y-163508033D01*
X289877559Y-163508033D02*
X290068035Y-164222319D01*
X290068035Y-164222319D02*
X290306131Y-163222319D01*
X291210892Y-164222319D02*
X290639464Y-164222319D01*
X290925178Y-164222319D02*
X290925178Y-163222319D01*
X290925178Y-163222319D02*
X290829940Y-163365176D01*
X290829940Y-163365176D02*
X290734702Y-163460414D01*
X290734702Y-163460414D02*
X290639464Y-163508033D01*
X291591845Y-163317557D02*
X291639464Y-163269938D01*
X291639464Y-163269938D02*
X291734702Y-163222319D01*
X291734702Y-163222319D02*
X291972797Y-163222319D01*
X291972797Y-163222319D02*
X292068035Y-163269938D01*
X292068035Y-163269938D02*
X292115654Y-163317557D01*
X292115654Y-163317557D02*
X292163273Y-163412795D01*
X292163273Y-163412795D02*
X292163273Y-163508033D01*
X292163273Y-163508033D02*
X292115654Y-163650890D01*
X292115654Y-163650890D02*
X291544226Y-164222319D01*
X291544226Y-164222319D02*
X292163273Y-164222319D01*
X17656069Y-169725833D02*
X17179878Y-170059166D01*
X17656069Y-170297261D02*
X16656069Y-170297261D01*
X16656069Y-170297261D02*
X16656069Y-169916309D01*
X16656069Y-169916309D02*
X16703688Y-169821071D01*
X16703688Y-169821071D02*
X16751307Y-169773452D01*
X16751307Y-169773452D02*
X16846545Y-169725833D01*
X16846545Y-169725833D02*
X16989402Y-169725833D01*
X16989402Y-169725833D02*
X17084640Y-169773452D01*
X17084640Y-169773452D02*
X17132259Y-169821071D01*
X17132259Y-169821071D02*
X17179878Y-169916309D01*
X17179878Y-169916309D02*
X17179878Y-170297261D01*
X17132259Y-169297261D02*
X17132259Y-168963928D01*
X17656069Y-168821071D02*
X17656069Y-169297261D01*
X17656069Y-169297261D02*
X16656069Y-169297261D01*
X16656069Y-169297261D02*
X16656069Y-168821071D01*
X17132259Y-168059166D02*
X17132259Y-168392499D01*
X17656069Y-168392499D02*
X16656069Y-168392499D01*
X16656069Y-168392499D02*
X16656069Y-167916309D01*
X16656069Y-167392499D02*
X16894164Y-167392499D01*
X16798926Y-167630594D02*
X16894164Y-167392499D01*
X16894164Y-167392499D02*
X16798926Y-167154404D01*
X17084640Y-167535356D02*
X16894164Y-167392499D01*
X16894164Y-167392499D02*
X17084640Y-167249642D01*
X16656069Y-166630594D02*
X16894164Y-166630594D01*
X16798926Y-166868689D02*
X16894164Y-166630594D01*
X16894164Y-166630594D02*
X16798926Y-166392499D01*
X17084640Y-166773451D02*
X16894164Y-166630594D01*
X16894164Y-166630594D02*
X17084640Y-166487737D01*
X212820417Y-197512200D02*
X212963274Y-197559819D01*
X212963274Y-197559819D02*
X213201369Y-197559819D01*
X213201369Y-197559819D02*
X213296607Y-197512200D01*
X213296607Y-197512200D02*
X213344226Y-197464580D01*
X213344226Y-197464580D02*
X213391845Y-197369342D01*
X213391845Y-197369342D02*
X213391845Y-197274104D01*
X213391845Y-197274104D02*
X213344226Y-197178866D01*
X213344226Y-197178866D02*
X213296607Y-197131247D01*
X213296607Y-197131247D02*
X213201369Y-197083628D01*
X213201369Y-197083628D02*
X213010893Y-197036009D01*
X213010893Y-197036009D02*
X212915655Y-196988390D01*
X212915655Y-196988390D02*
X212868036Y-196940771D01*
X212868036Y-196940771D02*
X212820417Y-196845533D01*
X212820417Y-196845533D02*
X212820417Y-196750295D01*
X212820417Y-196750295D02*
X212868036Y-196655057D01*
X212868036Y-196655057D02*
X212915655Y-196607438D01*
X212915655Y-196607438D02*
X213010893Y-196559819D01*
X213010893Y-196559819D02*
X213248988Y-196559819D01*
X213248988Y-196559819D02*
X213391845Y-196607438D01*
X213725179Y-196559819D02*
X213963274Y-197559819D01*
X213963274Y-197559819D02*
X214153750Y-196845533D01*
X214153750Y-196845533D02*
X214344226Y-197559819D01*
X214344226Y-197559819D02*
X214582322Y-196559819D01*
X214868036Y-196559819D02*
X215487083Y-196559819D01*
X215487083Y-196559819D02*
X215153750Y-196940771D01*
X215153750Y-196940771D02*
X215296607Y-196940771D01*
X215296607Y-196940771D02*
X215391845Y-196988390D01*
X215391845Y-196988390D02*
X215439464Y-197036009D01*
X215439464Y-197036009D02*
X215487083Y-197131247D01*
X215487083Y-197131247D02*
X215487083Y-197369342D01*
X215487083Y-197369342D02*
X215439464Y-197464580D01*
X215439464Y-197464580D02*
X215391845Y-197512200D01*
X215391845Y-197512200D02*
X215296607Y-197559819D01*
X215296607Y-197559819D02*
X215010893Y-197559819D01*
X215010893Y-197559819D02*
X214915655Y-197512200D01*
X214915655Y-197512200D02*
X214868036Y-197464580D01*
X346170417Y-197512200D02*
X346313274Y-197559819D01*
X346313274Y-197559819D02*
X346551369Y-197559819D01*
X346551369Y-197559819D02*
X346646607Y-197512200D01*
X346646607Y-197512200D02*
X346694226Y-197464580D01*
X346694226Y-197464580D02*
X346741845Y-197369342D01*
X346741845Y-197369342D02*
X346741845Y-197274104D01*
X346741845Y-197274104D02*
X346694226Y-197178866D01*
X346694226Y-197178866D02*
X346646607Y-197131247D01*
X346646607Y-197131247D02*
X346551369Y-197083628D01*
X346551369Y-197083628D02*
X346360893Y-197036009D01*
X346360893Y-197036009D02*
X346265655Y-196988390D01*
X346265655Y-196988390D02*
X346218036Y-196940771D01*
X346218036Y-196940771D02*
X346170417Y-196845533D01*
X346170417Y-196845533D02*
X346170417Y-196750295D01*
X346170417Y-196750295D02*
X346218036Y-196655057D01*
X346218036Y-196655057D02*
X346265655Y-196607438D01*
X346265655Y-196607438D02*
X346360893Y-196559819D01*
X346360893Y-196559819D02*
X346598988Y-196559819D01*
X346598988Y-196559819D02*
X346741845Y-196607438D01*
X347075179Y-196559819D02*
X347313274Y-197559819D01*
X347313274Y-197559819D02*
X347503750Y-196845533D01*
X347503750Y-196845533D02*
X347694226Y-197559819D01*
X347694226Y-197559819D02*
X347932322Y-196559819D01*
X348218036Y-196559819D02*
X348884702Y-196559819D01*
X348884702Y-196559819D02*
X348456131Y-197559819D01*
X251324821Y-192877638D02*
X251324821Y-191377638D01*
X251324821Y-191377638D02*
X251681964Y-191377638D01*
X251681964Y-191377638D02*
X251896250Y-191449067D01*
X251896250Y-191449067D02*
X252039107Y-191591924D01*
X252039107Y-191591924D02*
X252110536Y-191734781D01*
X252110536Y-191734781D02*
X252181964Y-192020495D01*
X252181964Y-192020495D02*
X252181964Y-192234781D01*
X252181964Y-192234781D02*
X252110536Y-192520495D01*
X252110536Y-192520495D02*
X252039107Y-192663352D01*
X252039107Y-192663352D02*
X251896250Y-192806210D01*
X251896250Y-192806210D02*
X251681964Y-192877638D01*
X251681964Y-192877638D02*
X251324821Y-192877638D01*
X252753393Y-191520495D02*
X252824821Y-191449067D01*
X252824821Y-191449067D02*
X252967679Y-191377638D01*
X252967679Y-191377638D02*
X253324821Y-191377638D01*
X253324821Y-191377638D02*
X253467679Y-191449067D01*
X253467679Y-191449067D02*
X253539107Y-191520495D01*
X253539107Y-191520495D02*
X253610536Y-191663352D01*
X253610536Y-191663352D02*
X253610536Y-191806210D01*
X253610536Y-191806210D02*
X253539107Y-192020495D01*
X253539107Y-192020495D02*
X252681964Y-192877638D01*
X252681964Y-192877638D02*
X253610536Y-192877638D01*
X254467678Y-192020495D02*
X254324821Y-191949067D01*
X254324821Y-191949067D02*
X254253392Y-191877638D01*
X254253392Y-191877638D02*
X254181964Y-191734781D01*
X254181964Y-191734781D02*
X254181964Y-191663352D01*
X254181964Y-191663352D02*
X254253392Y-191520495D01*
X254253392Y-191520495D02*
X254324821Y-191449067D01*
X254324821Y-191449067D02*
X254467678Y-191377638D01*
X254467678Y-191377638D02*
X254753392Y-191377638D01*
X254753392Y-191377638D02*
X254896250Y-191449067D01*
X254896250Y-191449067D02*
X254967678Y-191520495D01*
X254967678Y-191520495D02*
X255039107Y-191663352D01*
X255039107Y-191663352D02*
X255039107Y-191734781D01*
X255039107Y-191734781D02*
X254967678Y-191877638D01*
X254967678Y-191877638D02*
X254896250Y-191949067D01*
X254896250Y-191949067D02*
X254753392Y-192020495D01*
X254753392Y-192020495D02*
X254467678Y-192020495D01*
X254467678Y-192020495D02*
X254324821Y-192091924D01*
X254324821Y-192091924D02*
X254253392Y-192163352D01*
X254253392Y-192163352D02*
X254181964Y-192306210D01*
X254181964Y-192306210D02*
X254181964Y-192591924D01*
X254181964Y-192591924D02*
X254253392Y-192734781D01*
X254253392Y-192734781D02*
X254324821Y-192806210D01*
X254324821Y-192806210D02*
X254467678Y-192877638D01*
X254467678Y-192877638D02*
X254753392Y-192877638D01*
X254753392Y-192877638D02*
X254896250Y-192806210D01*
X254896250Y-192806210D02*
X254967678Y-192734781D01*
X254967678Y-192734781D02*
X255039107Y-192591924D01*
X255039107Y-192591924D02*
X255039107Y-192306210D01*
X255039107Y-192306210D02*
X254967678Y-192163352D01*
X254967678Y-192163352D02*
X254896250Y-192091924D01*
X254896250Y-192091924D02*
X254753392Y-192020495D01*
X50993569Y-169725833D02*
X50517378Y-170059166D01*
X50993569Y-170297261D02*
X49993569Y-170297261D01*
X49993569Y-170297261D02*
X49993569Y-169916309D01*
X49993569Y-169916309D02*
X50041188Y-169821071D01*
X50041188Y-169821071D02*
X50088807Y-169773452D01*
X50088807Y-169773452D02*
X50184045Y-169725833D01*
X50184045Y-169725833D02*
X50326902Y-169725833D01*
X50326902Y-169725833D02*
X50422140Y-169773452D01*
X50422140Y-169773452D02*
X50469759Y-169821071D01*
X50469759Y-169821071D02*
X50517378Y-169916309D01*
X50517378Y-169916309D02*
X50517378Y-170297261D01*
X50469759Y-169297261D02*
X50469759Y-168963928D01*
X50993569Y-168821071D02*
X50993569Y-169297261D01*
X50993569Y-169297261D02*
X49993569Y-169297261D01*
X49993569Y-169297261D02*
X49993569Y-168821071D01*
X50469759Y-168059166D02*
X50469759Y-168392499D01*
X50993569Y-168392499D02*
X49993569Y-168392499D01*
X49993569Y-168392499D02*
X49993569Y-167916309D01*
X49993569Y-167392499D02*
X50231664Y-167392499D01*
X50136426Y-167630594D02*
X50231664Y-167392499D01*
X50231664Y-167392499D02*
X50136426Y-167154404D01*
X50422140Y-167535356D02*
X50231664Y-167392499D01*
X50231664Y-167392499D02*
X50422140Y-167249642D01*
X49993569Y-166630594D02*
X50231664Y-166630594D01*
X50136426Y-166868689D02*
X50231664Y-166630594D01*
X50231664Y-166630594D02*
X50136426Y-166392499D01*
X50422140Y-166773451D02*
X50231664Y-166630594D01*
X50231664Y-166630594D02*
X50422140Y-166487737D01*
X175124821Y-226215138D02*
X175124821Y-224715138D01*
X175124821Y-224715138D02*
X175481964Y-224715138D01*
X175481964Y-224715138D02*
X175696250Y-224786567D01*
X175696250Y-224786567D02*
X175839107Y-224929424D01*
X175839107Y-224929424D02*
X175910536Y-225072281D01*
X175910536Y-225072281D02*
X175981964Y-225357995D01*
X175981964Y-225357995D02*
X175981964Y-225572281D01*
X175981964Y-225572281D02*
X175910536Y-225857995D01*
X175910536Y-225857995D02*
X175839107Y-226000852D01*
X175839107Y-226000852D02*
X175696250Y-226143710D01*
X175696250Y-226143710D02*
X175481964Y-226215138D01*
X175481964Y-226215138D02*
X175124821Y-226215138D01*
X177410536Y-226215138D02*
X176553393Y-226215138D01*
X176981964Y-226215138D02*
X176981964Y-224715138D01*
X176981964Y-224715138D02*
X176839107Y-224929424D01*
X176839107Y-224929424D02*
X176696250Y-225072281D01*
X176696250Y-225072281D02*
X176553393Y-225143710D01*
X178124821Y-226215138D02*
X178410535Y-226215138D01*
X178410535Y-226215138D02*
X178553392Y-226143710D01*
X178553392Y-226143710D02*
X178624821Y-226072281D01*
X178624821Y-226072281D02*
X178767678Y-225857995D01*
X178767678Y-225857995D02*
X178839107Y-225572281D01*
X178839107Y-225572281D02*
X178839107Y-225000852D01*
X178839107Y-225000852D02*
X178767678Y-224857995D01*
X178767678Y-224857995D02*
X178696250Y-224786567D01*
X178696250Y-224786567D02*
X178553392Y-224715138D01*
X178553392Y-224715138D02*
X178267678Y-224715138D01*
X178267678Y-224715138D02*
X178124821Y-224786567D01*
X178124821Y-224786567D02*
X178053392Y-224857995D01*
X178053392Y-224857995D02*
X177981964Y-225000852D01*
X177981964Y-225000852D02*
X177981964Y-225357995D01*
X177981964Y-225357995D02*
X178053392Y-225500852D01*
X178053392Y-225500852D02*
X178124821Y-225572281D01*
X178124821Y-225572281D02*
X178267678Y-225643710D01*
X178267678Y-225643710D02*
X178553392Y-225643710D01*
X178553392Y-225643710D02*
X178696250Y-225572281D01*
X178696250Y-225572281D02*
X178767678Y-225500852D01*
X178767678Y-225500852D02*
X178839107Y-225357995D01*
X67821069Y-201474583D02*
X67344878Y-201807916D01*
X67821069Y-202046011D02*
X66821069Y-202046011D01*
X66821069Y-202046011D02*
X66821069Y-201665059D01*
X66821069Y-201665059D02*
X66868688Y-201569821D01*
X66868688Y-201569821D02*
X66916307Y-201522202D01*
X66916307Y-201522202D02*
X67011545Y-201474583D01*
X67011545Y-201474583D02*
X67154402Y-201474583D01*
X67154402Y-201474583D02*
X67249640Y-201522202D01*
X67249640Y-201522202D02*
X67297259Y-201569821D01*
X67297259Y-201569821D02*
X67344878Y-201665059D01*
X67344878Y-201665059D02*
X67344878Y-202046011D01*
X67297259Y-201046011D02*
X67297259Y-200712678D01*
X67821069Y-200569821D02*
X67821069Y-201046011D01*
X67821069Y-201046011D02*
X66821069Y-201046011D01*
X66821069Y-201046011D02*
X66821069Y-200569821D01*
X67297259Y-199807916D02*
X67297259Y-200141249D01*
X67821069Y-200141249D02*
X66821069Y-200141249D01*
X66821069Y-200141249D02*
X66821069Y-199665059D01*
X66821069Y-199141249D02*
X67059164Y-199141249D01*
X66963926Y-199379344D02*
X67059164Y-199141249D01*
X67059164Y-199141249D02*
X66963926Y-198903154D01*
X67249640Y-199284106D02*
X67059164Y-199141249D01*
X67059164Y-199141249D02*
X67249640Y-198998392D01*
X66821069Y-198379344D02*
X67059164Y-198379344D01*
X66963926Y-198617439D02*
X67059164Y-198379344D01*
X67059164Y-198379344D02*
X66963926Y-198141249D01*
X67249640Y-198522201D02*
X67059164Y-198379344D01*
X67059164Y-198379344D02*
X67249640Y-198236487D01*
X99022319Y-169725833D02*
X98546128Y-170059166D01*
X99022319Y-170297261D02*
X98022319Y-170297261D01*
X98022319Y-170297261D02*
X98022319Y-169916309D01*
X98022319Y-169916309D02*
X98069938Y-169821071D01*
X98069938Y-169821071D02*
X98117557Y-169773452D01*
X98117557Y-169773452D02*
X98212795Y-169725833D01*
X98212795Y-169725833D02*
X98355652Y-169725833D01*
X98355652Y-169725833D02*
X98450890Y-169773452D01*
X98450890Y-169773452D02*
X98498509Y-169821071D01*
X98498509Y-169821071D02*
X98546128Y-169916309D01*
X98546128Y-169916309D02*
X98546128Y-170297261D01*
X98498509Y-169297261D02*
X98498509Y-168963928D01*
X99022319Y-168821071D02*
X99022319Y-169297261D01*
X99022319Y-169297261D02*
X98022319Y-169297261D01*
X98022319Y-169297261D02*
X98022319Y-168821071D01*
X98498509Y-168059166D02*
X98498509Y-168392499D01*
X99022319Y-168392499D02*
X98022319Y-168392499D01*
X98022319Y-168392499D02*
X98022319Y-167916309D01*
X98022319Y-167392499D02*
X98260414Y-167392499D01*
X98165176Y-167630594D02*
X98260414Y-167392499D01*
X98260414Y-167392499D02*
X98165176Y-167154404D01*
X98450890Y-167535356D02*
X98260414Y-167392499D01*
X98260414Y-167392499D02*
X98450890Y-167249642D01*
X98022319Y-166630594D02*
X98260414Y-166630594D01*
X98165176Y-166868689D02*
X98260414Y-166630594D01*
X98260414Y-166630594D02*
X98165176Y-166392499D01*
X98450890Y-166773451D02*
X98260414Y-166630594D01*
X98260414Y-166630594D02*
X98450890Y-166487737D01*
X136620417Y-197512200D02*
X136763274Y-197559819D01*
X136763274Y-197559819D02*
X137001369Y-197559819D01*
X137001369Y-197559819D02*
X137096607Y-197512200D01*
X137096607Y-197512200D02*
X137144226Y-197464580D01*
X137144226Y-197464580D02*
X137191845Y-197369342D01*
X137191845Y-197369342D02*
X137191845Y-197274104D01*
X137191845Y-197274104D02*
X137144226Y-197178866D01*
X137144226Y-197178866D02*
X137096607Y-197131247D01*
X137096607Y-197131247D02*
X137001369Y-197083628D01*
X137001369Y-197083628D02*
X136810893Y-197036009D01*
X136810893Y-197036009D02*
X136715655Y-196988390D01*
X136715655Y-196988390D02*
X136668036Y-196940771D01*
X136668036Y-196940771D02*
X136620417Y-196845533D01*
X136620417Y-196845533D02*
X136620417Y-196750295D01*
X136620417Y-196750295D02*
X136668036Y-196655057D01*
X136668036Y-196655057D02*
X136715655Y-196607438D01*
X136715655Y-196607438D02*
X136810893Y-196559819D01*
X136810893Y-196559819D02*
X137048988Y-196559819D01*
X137048988Y-196559819D02*
X137191845Y-196607438D01*
X137525179Y-196559819D02*
X137763274Y-197559819D01*
X137763274Y-197559819D02*
X137953750Y-196845533D01*
X137953750Y-196845533D02*
X138144226Y-197559819D01*
X138144226Y-197559819D02*
X138382322Y-196559819D01*
X139287083Y-197559819D02*
X138715655Y-197559819D01*
X139001369Y-197559819D02*
X139001369Y-196559819D01*
X139001369Y-196559819D02*
X138906131Y-196702676D01*
X138906131Y-196702676D02*
X138810893Y-196797914D01*
X138810893Y-196797914D02*
X138715655Y-196845533D01*
X156074821Y-192877638D02*
X156074821Y-191377638D01*
X156074821Y-191377638D02*
X156431964Y-191377638D01*
X156431964Y-191377638D02*
X156646250Y-191449067D01*
X156646250Y-191449067D02*
X156789107Y-191591924D01*
X156789107Y-191591924D02*
X156860536Y-191734781D01*
X156860536Y-191734781D02*
X156931964Y-192020495D01*
X156931964Y-192020495D02*
X156931964Y-192234781D01*
X156931964Y-192234781D02*
X156860536Y-192520495D01*
X156860536Y-192520495D02*
X156789107Y-192663352D01*
X156789107Y-192663352D02*
X156646250Y-192806210D01*
X156646250Y-192806210D02*
X156431964Y-192877638D01*
X156431964Y-192877638D02*
X156074821Y-192877638D01*
X157503393Y-191520495D02*
X157574821Y-191449067D01*
X157574821Y-191449067D02*
X157717679Y-191377638D01*
X157717679Y-191377638D02*
X158074821Y-191377638D01*
X158074821Y-191377638D02*
X158217679Y-191449067D01*
X158217679Y-191449067D02*
X158289107Y-191520495D01*
X158289107Y-191520495D02*
X158360536Y-191663352D01*
X158360536Y-191663352D02*
X158360536Y-191806210D01*
X158360536Y-191806210D02*
X158289107Y-192020495D01*
X158289107Y-192020495D02*
X157431964Y-192877638D01*
X157431964Y-192877638D02*
X158360536Y-192877638D01*
X159646250Y-191377638D02*
X159360535Y-191377638D01*
X159360535Y-191377638D02*
X159217678Y-191449067D01*
X159217678Y-191449067D02*
X159146250Y-191520495D01*
X159146250Y-191520495D02*
X159003392Y-191734781D01*
X159003392Y-191734781D02*
X158931964Y-192020495D01*
X158931964Y-192020495D02*
X158931964Y-192591924D01*
X158931964Y-192591924D02*
X159003392Y-192734781D01*
X159003392Y-192734781D02*
X159074821Y-192806210D01*
X159074821Y-192806210D02*
X159217678Y-192877638D01*
X159217678Y-192877638D02*
X159503392Y-192877638D01*
X159503392Y-192877638D02*
X159646250Y-192806210D01*
X159646250Y-192806210D02*
X159717678Y-192734781D01*
X159717678Y-192734781D02*
X159789107Y-192591924D01*
X159789107Y-192591924D02*
X159789107Y-192234781D01*
X159789107Y-192234781D02*
X159717678Y-192091924D01*
X159717678Y-192091924D02*
X159646250Y-192020495D01*
X159646250Y-192020495D02*
X159503392Y-191949067D01*
X159503392Y-191949067D02*
X159217678Y-191949067D01*
X159217678Y-191949067D02*
X159074821Y-192020495D01*
X159074821Y-192020495D02*
X159003392Y-192091924D01*
X159003392Y-192091924D02*
X158931964Y-192234781D01*
X194174821Y-192877638D02*
X194174821Y-191377638D01*
X194174821Y-191377638D02*
X194531964Y-191377638D01*
X194531964Y-191377638D02*
X194746250Y-191449067D01*
X194746250Y-191449067D02*
X194889107Y-191591924D01*
X194889107Y-191591924D02*
X194960536Y-191734781D01*
X194960536Y-191734781D02*
X195031964Y-192020495D01*
X195031964Y-192020495D02*
X195031964Y-192234781D01*
X195031964Y-192234781D02*
X194960536Y-192520495D01*
X194960536Y-192520495D02*
X194889107Y-192663352D01*
X194889107Y-192663352D02*
X194746250Y-192806210D01*
X194746250Y-192806210D02*
X194531964Y-192877638D01*
X194531964Y-192877638D02*
X194174821Y-192877638D01*
X195603393Y-191520495D02*
X195674821Y-191449067D01*
X195674821Y-191449067D02*
X195817679Y-191377638D01*
X195817679Y-191377638D02*
X196174821Y-191377638D01*
X196174821Y-191377638D02*
X196317679Y-191449067D01*
X196317679Y-191449067D02*
X196389107Y-191520495D01*
X196389107Y-191520495D02*
X196460536Y-191663352D01*
X196460536Y-191663352D02*
X196460536Y-191806210D01*
X196460536Y-191806210D02*
X196389107Y-192020495D01*
X196389107Y-192020495D02*
X195531964Y-192877638D01*
X195531964Y-192877638D02*
X196460536Y-192877638D01*
X196960535Y-191377638D02*
X197960535Y-191377638D01*
X197960535Y-191377638D02*
X197317678Y-192877638D01*
X231870417Y-197512200D02*
X232013274Y-197559819D01*
X232013274Y-197559819D02*
X232251369Y-197559819D01*
X232251369Y-197559819D02*
X232346607Y-197512200D01*
X232346607Y-197512200D02*
X232394226Y-197464580D01*
X232394226Y-197464580D02*
X232441845Y-197369342D01*
X232441845Y-197369342D02*
X232441845Y-197274104D01*
X232441845Y-197274104D02*
X232394226Y-197178866D01*
X232394226Y-197178866D02*
X232346607Y-197131247D01*
X232346607Y-197131247D02*
X232251369Y-197083628D01*
X232251369Y-197083628D02*
X232060893Y-197036009D01*
X232060893Y-197036009D02*
X231965655Y-196988390D01*
X231965655Y-196988390D02*
X231918036Y-196940771D01*
X231918036Y-196940771D02*
X231870417Y-196845533D01*
X231870417Y-196845533D02*
X231870417Y-196750295D01*
X231870417Y-196750295D02*
X231918036Y-196655057D01*
X231918036Y-196655057D02*
X231965655Y-196607438D01*
X231965655Y-196607438D02*
X232060893Y-196559819D01*
X232060893Y-196559819D02*
X232298988Y-196559819D01*
X232298988Y-196559819D02*
X232441845Y-196607438D01*
X232775179Y-196559819D02*
X233013274Y-197559819D01*
X233013274Y-197559819D02*
X233203750Y-196845533D01*
X233203750Y-196845533D02*
X233394226Y-197559819D01*
X233394226Y-197559819D02*
X233632322Y-196559819D01*
X234441845Y-196893152D02*
X234441845Y-197559819D01*
X234203750Y-196512200D02*
X233965655Y-197226485D01*
X233965655Y-197226485D02*
X234584702Y-197226485D01*
X227206069Y-203063333D02*
X226729878Y-203396666D01*
X227206069Y-203634761D02*
X226206069Y-203634761D01*
X226206069Y-203634761D02*
X226206069Y-203253809D01*
X226206069Y-203253809D02*
X226253688Y-203158571D01*
X226253688Y-203158571D02*
X226301307Y-203110952D01*
X226301307Y-203110952D02*
X226396545Y-203063333D01*
X226396545Y-203063333D02*
X226539402Y-203063333D01*
X226539402Y-203063333D02*
X226634640Y-203110952D01*
X226634640Y-203110952D02*
X226682259Y-203158571D01*
X226682259Y-203158571D02*
X226729878Y-203253809D01*
X226729878Y-203253809D02*
X226729878Y-203634761D01*
X226682259Y-202634761D02*
X226682259Y-202301428D01*
X227206069Y-202158571D02*
X227206069Y-202634761D01*
X227206069Y-202634761D02*
X226206069Y-202634761D01*
X226206069Y-202634761D02*
X226206069Y-202158571D01*
X226682259Y-201396666D02*
X226682259Y-201729999D01*
X227206069Y-201729999D02*
X226206069Y-201729999D01*
X226206069Y-201729999D02*
X226206069Y-201253809D01*
X226206069Y-200729999D02*
X226444164Y-200729999D01*
X226348926Y-200968094D02*
X226444164Y-200729999D01*
X226444164Y-200729999D02*
X226348926Y-200491904D01*
X226634640Y-200872856D02*
X226444164Y-200729999D01*
X226444164Y-200729999D02*
X226634640Y-200587142D01*
X226206069Y-199968094D02*
X226444164Y-199968094D01*
X226348926Y-200206189D02*
X226444164Y-199968094D01*
X226444164Y-199968094D02*
X226348926Y-199729999D01*
X226634640Y-200110951D02*
X226444164Y-199968094D01*
X226444164Y-199968094D02*
X226634640Y-199825237D01*
X86871069Y-201474583D02*
X86394878Y-201807916D01*
X86871069Y-202046011D02*
X85871069Y-202046011D01*
X85871069Y-202046011D02*
X85871069Y-201665059D01*
X85871069Y-201665059D02*
X85918688Y-201569821D01*
X85918688Y-201569821D02*
X85966307Y-201522202D01*
X85966307Y-201522202D02*
X86061545Y-201474583D01*
X86061545Y-201474583D02*
X86204402Y-201474583D01*
X86204402Y-201474583D02*
X86299640Y-201522202D01*
X86299640Y-201522202D02*
X86347259Y-201569821D01*
X86347259Y-201569821D02*
X86394878Y-201665059D01*
X86394878Y-201665059D02*
X86394878Y-202046011D01*
X86347259Y-201046011D02*
X86347259Y-200712678D01*
X86871069Y-200569821D02*
X86871069Y-201046011D01*
X86871069Y-201046011D02*
X85871069Y-201046011D01*
X85871069Y-201046011D02*
X85871069Y-200569821D01*
X86347259Y-199807916D02*
X86347259Y-200141249D01*
X86871069Y-200141249D02*
X85871069Y-200141249D01*
X85871069Y-200141249D02*
X85871069Y-199665059D01*
X85871069Y-199141249D02*
X86109164Y-199141249D01*
X86013926Y-199379344D02*
X86109164Y-199141249D01*
X86109164Y-199141249D02*
X86013926Y-198903154D01*
X86299640Y-199284106D02*
X86109164Y-199141249D01*
X86109164Y-199141249D02*
X86299640Y-198998392D01*
X85871069Y-198379344D02*
X86109164Y-198379344D01*
X86013926Y-198617439D02*
X86109164Y-198379344D01*
X86109164Y-198379344D02*
X86013926Y-198141249D01*
X86299640Y-198522201D02*
X86109164Y-198379344D01*
X86109164Y-198379344D02*
X86299640Y-198236487D01*
X270374821Y-226215138D02*
X270374821Y-224715138D01*
X270374821Y-224715138D02*
X270731964Y-224715138D01*
X270731964Y-224715138D02*
X270946250Y-224786567D01*
X270946250Y-224786567D02*
X271089107Y-224929424D01*
X271089107Y-224929424D02*
X271160536Y-225072281D01*
X271160536Y-225072281D02*
X271231964Y-225357995D01*
X271231964Y-225357995D02*
X271231964Y-225572281D01*
X271231964Y-225572281D02*
X271160536Y-225857995D01*
X271160536Y-225857995D02*
X271089107Y-226000852D01*
X271089107Y-226000852D02*
X270946250Y-226143710D01*
X270946250Y-226143710D02*
X270731964Y-226215138D01*
X270731964Y-226215138D02*
X270374821Y-226215138D01*
X271803393Y-224857995D02*
X271874821Y-224786567D01*
X271874821Y-224786567D02*
X272017679Y-224715138D01*
X272017679Y-224715138D02*
X272374821Y-224715138D01*
X272374821Y-224715138D02*
X272517679Y-224786567D01*
X272517679Y-224786567D02*
X272589107Y-224857995D01*
X272589107Y-224857995D02*
X272660536Y-225000852D01*
X272660536Y-225000852D02*
X272660536Y-225143710D01*
X272660536Y-225143710D02*
X272589107Y-225357995D01*
X272589107Y-225357995D02*
X271731964Y-226215138D01*
X271731964Y-226215138D02*
X272660536Y-226215138D01*
X273231964Y-224857995D02*
X273303392Y-224786567D01*
X273303392Y-224786567D02*
X273446250Y-224715138D01*
X273446250Y-224715138D02*
X273803392Y-224715138D01*
X273803392Y-224715138D02*
X273946250Y-224786567D01*
X273946250Y-224786567D02*
X274017678Y-224857995D01*
X274017678Y-224857995D02*
X274089107Y-225000852D01*
X274089107Y-225000852D02*
X274089107Y-225143710D01*
X274089107Y-225143710D02*
X274017678Y-225357995D01*
X274017678Y-225357995D02*
X273160535Y-226215138D01*
X273160535Y-226215138D02*
X274089107Y-226215138D01*
X151006069Y-169725833D02*
X150529878Y-170059166D01*
X151006069Y-170297261D02*
X150006069Y-170297261D01*
X150006069Y-170297261D02*
X150006069Y-169916309D01*
X150006069Y-169916309D02*
X150053688Y-169821071D01*
X150053688Y-169821071D02*
X150101307Y-169773452D01*
X150101307Y-169773452D02*
X150196545Y-169725833D01*
X150196545Y-169725833D02*
X150339402Y-169725833D01*
X150339402Y-169725833D02*
X150434640Y-169773452D01*
X150434640Y-169773452D02*
X150482259Y-169821071D01*
X150482259Y-169821071D02*
X150529878Y-169916309D01*
X150529878Y-169916309D02*
X150529878Y-170297261D01*
X150482259Y-169297261D02*
X150482259Y-168963928D01*
X151006069Y-168821071D02*
X151006069Y-169297261D01*
X151006069Y-169297261D02*
X150006069Y-169297261D01*
X150006069Y-169297261D02*
X150006069Y-168821071D01*
X150482259Y-168059166D02*
X150482259Y-168392499D01*
X151006069Y-168392499D02*
X150006069Y-168392499D01*
X150006069Y-168392499D02*
X150006069Y-167916309D01*
X150006069Y-167392499D02*
X150244164Y-167392499D01*
X150148926Y-167630594D02*
X150244164Y-167392499D01*
X150244164Y-167392499D02*
X150148926Y-167154404D01*
X150434640Y-167535356D02*
X150244164Y-167392499D01*
X150244164Y-167392499D02*
X150434640Y-167249642D01*
X150006069Y-166630594D02*
X150244164Y-166630594D01*
X150148926Y-166868689D02*
X150244164Y-166630594D01*
X150244164Y-166630594D02*
X150148926Y-166392499D01*
X150434640Y-166773451D02*
X150244164Y-166630594D01*
X150244164Y-166630594D02*
X150434640Y-166487737D01*
X-1393930Y-203063333D02*
X-1870121Y-203396666D01*
X-1393930Y-203634761D02*
X-2393930Y-203634761D01*
X-2393930Y-203634761D02*
X-2393930Y-203253809D01*
X-2393930Y-203253809D02*
X-2346311Y-203158571D01*
X-2346311Y-203158571D02*
X-2298692Y-203110952D01*
X-2298692Y-203110952D02*
X-2203454Y-203063333D01*
X-2203454Y-203063333D02*
X-2060597Y-203063333D01*
X-2060597Y-203063333D02*
X-1965359Y-203110952D01*
X-1965359Y-203110952D02*
X-1917740Y-203158571D01*
X-1917740Y-203158571D02*
X-1870121Y-203253809D01*
X-1870121Y-203253809D02*
X-1870121Y-203634761D01*
X-1917740Y-202634761D02*
X-1917740Y-202301428D01*
X-1393930Y-202158571D02*
X-1393930Y-202634761D01*
X-1393930Y-202634761D02*
X-2393930Y-202634761D01*
X-2393930Y-202634761D02*
X-2393930Y-202158571D01*
X-1917740Y-201396666D02*
X-1917740Y-201729999D01*
X-1393930Y-201729999D02*
X-2393930Y-201729999D01*
X-2393930Y-201729999D02*
X-2393930Y-201253809D01*
X-2393930Y-200729999D02*
X-2155835Y-200729999D01*
X-2251073Y-200968094D02*
X-2155835Y-200729999D01*
X-2155835Y-200729999D02*
X-2251073Y-200491904D01*
X-1965359Y-200872856D02*
X-2155835Y-200729999D01*
X-2155835Y-200729999D02*
X-1965359Y-200587142D01*
X-2393930Y-199968094D02*
X-2155835Y-199968094D01*
X-2251073Y-200206189D02*
X-2155835Y-199968094D01*
X-2155835Y-199968094D02*
X-2251073Y-199729999D01*
X-1965359Y-200110951D02*
X-2155835Y-199968094D01*
X-2155835Y-199968094D02*
X-1965359Y-199825237D01*
X139406071Y-226215138D02*
X139406071Y-224715138D01*
X139406071Y-224715138D02*
X139763214Y-224715138D01*
X139763214Y-224715138D02*
X139977500Y-224786567D01*
X139977500Y-224786567D02*
X140120357Y-224929424D01*
X140120357Y-224929424D02*
X140191786Y-225072281D01*
X140191786Y-225072281D02*
X140263214Y-225357995D01*
X140263214Y-225357995D02*
X140263214Y-225572281D01*
X140263214Y-225572281D02*
X140191786Y-225857995D01*
X140191786Y-225857995D02*
X140120357Y-226000852D01*
X140120357Y-226000852D02*
X139977500Y-226143710D01*
X139977500Y-226143710D02*
X139763214Y-226215138D01*
X139763214Y-226215138D02*
X139406071Y-226215138D01*
X141691786Y-226215138D02*
X140834643Y-226215138D01*
X141263214Y-226215138D02*
X141263214Y-224715138D01*
X141263214Y-224715138D02*
X141120357Y-224929424D01*
X141120357Y-224929424D02*
X140977500Y-225072281D01*
X140977500Y-225072281D02*
X140834643Y-225143710D01*
X142548928Y-225357995D02*
X142406071Y-225286567D01*
X142406071Y-225286567D02*
X142334642Y-225215138D01*
X142334642Y-225215138D02*
X142263214Y-225072281D01*
X142263214Y-225072281D02*
X142263214Y-225000852D01*
X142263214Y-225000852D02*
X142334642Y-224857995D01*
X142334642Y-224857995D02*
X142406071Y-224786567D01*
X142406071Y-224786567D02*
X142548928Y-224715138D01*
X142548928Y-224715138D02*
X142834642Y-224715138D01*
X142834642Y-224715138D02*
X142977500Y-224786567D01*
X142977500Y-224786567D02*
X143048928Y-224857995D01*
X143048928Y-224857995D02*
X143120357Y-225000852D01*
X143120357Y-225000852D02*
X143120357Y-225072281D01*
X143120357Y-225072281D02*
X143048928Y-225215138D01*
X143048928Y-225215138D02*
X142977500Y-225286567D01*
X142977500Y-225286567D02*
X142834642Y-225357995D01*
X142834642Y-225357995D02*
X142548928Y-225357995D01*
X142548928Y-225357995D02*
X142406071Y-225429424D01*
X142406071Y-225429424D02*
X142334642Y-225500852D01*
X142334642Y-225500852D02*
X142263214Y-225643710D01*
X142263214Y-225643710D02*
X142263214Y-225929424D01*
X142263214Y-225929424D02*
X142334642Y-226072281D01*
X142334642Y-226072281D02*
X142406071Y-226143710D01*
X142406071Y-226143710D02*
X142548928Y-226215138D01*
X142548928Y-226215138D02*
X142834642Y-226215138D01*
X142834642Y-226215138D02*
X142977500Y-226143710D01*
X142977500Y-226143710D02*
X143048928Y-226072281D01*
X143048928Y-226072281D02*
X143120357Y-225929424D01*
X143120357Y-225929424D02*
X143120357Y-225643710D01*
X143120357Y-225643710D02*
X143048928Y-225500852D01*
X143048928Y-225500852D02*
X142977500Y-225429424D01*
X142977500Y-225429424D02*
X142834642Y-225357995D01*
X308070417Y-197512200D02*
X308213274Y-197559819D01*
X308213274Y-197559819D02*
X308451369Y-197559819D01*
X308451369Y-197559819D02*
X308546607Y-197512200D01*
X308546607Y-197512200D02*
X308594226Y-197464580D01*
X308594226Y-197464580D02*
X308641845Y-197369342D01*
X308641845Y-197369342D02*
X308641845Y-197274104D01*
X308641845Y-197274104D02*
X308594226Y-197178866D01*
X308594226Y-197178866D02*
X308546607Y-197131247D01*
X308546607Y-197131247D02*
X308451369Y-197083628D01*
X308451369Y-197083628D02*
X308260893Y-197036009D01*
X308260893Y-197036009D02*
X308165655Y-196988390D01*
X308165655Y-196988390D02*
X308118036Y-196940771D01*
X308118036Y-196940771D02*
X308070417Y-196845533D01*
X308070417Y-196845533D02*
X308070417Y-196750295D01*
X308070417Y-196750295D02*
X308118036Y-196655057D01*
X308118036Y-196655057D02*
X308165655Y-196607438D01*
X308165655Y-196607438D02*
X308260893Y-196559819D01*
X308260893Y-196559819D02*
X308498988Y-196559819D01*
X308498988Y-196559819D02*
X308641845Y-196607438D01*
X308975179Y-196559819D02*
X309213274Y-197559819D01*
X309213274Y-197559819D02*
X309403750Y-196845533D01*
X309403750Y-196845533D02*
X309594226Y-197559819D01*
X309594226Y-197559819D02*
X309832322Y-196559819D01*
X310641845Y-196559819D02*
X310451369Y-196559819D01*
X310451369Y-196559819D02*
X310356131Y-196607438D01*
X310356131Y-196607438D02*
X310308512Y-196655057D01*
X310308512Y-196655057D02*
X310213274Y-196797914D01*
X310213274Y-196797914D02*
X310165655Y-196988390D01*
X310165655Y-196988390D02*
X310165655Y-197369342D01*
X310165655Y-197369342D02*
X310213274Y-197464580D01*
X310213274Y-197464580D02*
X310260893Y-197512200D01*
X310260893Y-197512200D02*
X310356131Y-197559819D01*
X310356131Y-197559819D02*
X310546607Y-197559819D01*
X310546607Y-197559819D02*
X310641845Y-197512200D01*
X310641845Y-197512200D02*
X310689464Y-197464580D01*
X310689464Y-197464580D02*
X310737083Y-197369342D01*
X310737083Y-197369342D02*
X310737083Y-197131247D01*
X310737083Y-197131247D02*
X310689464Y-197036009D01*
X310689464Y-197036009D02*
X310641845Y-196988390D01*
X310641845Y-196988390D02*
X310546607Y-196940771D01*
X310546607Y-196940771D02*
X310356131Y-196940771D01*
X310356131Y-196940771D02*
X310260893Y-196988390D01*
X310260893Y-196988390D02*
X310213274Y-197036009D01*
X310213274Y-197036009D02*
X310165655Y-197131247D01*
X269970417Y-197512200D02*
X270113274Y-197559819D01*
X270113274Y-197559819D02*
X270351369Y-197559819D01*
X270351369Y-197559819D02*
X270446607Y-197512200D01*
X270446607Y-197512200D02*
X270494226Y-197464580D01*
X270494226Y-197464580D02*
X270541845Y-197369342D01*
X270541845Y-197369342D02*
X270541845Y-197274104D01*
X270541845Y-197274104D02*
X270494226Y-197178866D01*
X270494226Y-197178866D02*
X270446607Y-197131247D01*
X270446607Y-197131247D02*
X270351369Y-197083628D01*
X270351369Y-197083628D02*
X270160893Y-197036009D01*
X270160893Y-197036009D02*
X270065655Y-196988390D01*
X270065655Y-196988390D02*
X270018036Y-196940771D01*
X270018036Y-196940771D02*
X269970417Y-196845533D01*
X269970417Y-196845533D02*
X269970417Y-196750295D01*
X269970417Y-196750295D02*
X270018036Y-196655057D01*
X270018036Y-196655057D02*
X270065655Y-196607438D01*
X270065655Y-196607438D02*
X270160893Y-196559819D01*
X270160893Y-196559819D02*
X270398988Y-196559819D01*
X270398988Y-196559819D02*
X270541845Y-196607438D01*
X270875179Y-196559819D02*
X271113274Y-197559819D01*
X271113274Y-197559819D02*
X271303750Y-196845533D01*
X271303750Y-196845533D02*
X271494226Y-197559819D01*
X271494226Y-197559819D02*
X271732322Y-196559819D01*
X272589464Y-196559819D02*
X272113274Y-196559819D01*
X272113274Y-196559819D02*
X272065655Y-197036009D01*
X272065655Y-197036009D02*
X272113274Y-196988390D01*
X272113274Y-196988390D02*
X272208512Y-196940771D01*
X272208512Y-196940771D02*
X272446607Y-196940771D01*
X272446607Y-196940771D02*
X272541845Y-196988390D01*
X272541845Y-196988390D02*
X272589464Y-197036009D01*
X272589464Y-197036009D02*
X272637083Y-197131247D01*
X272637083Y-197131247D02*
X272637083Y-197369342D01*
X272637083Y-197369342D02*
X272589464Y-197464580D01*
X272589464Y-197464580D02*
X272541845Y-197512200D01*
X272541845Y-197512200D02*
X272446607Y-197559819D01*
X272446607Y-197559819D02*
X272208512Y-197559819D01*
X272208512Y-197559819D02*
X272113274Y-197512200D01*
X272113274Y-197512200D02*
X272065655Y-197464580D01*
X341812321Y-226215138D02*
X341812321Y-224715138D01*
X341812321Y-224715138D02*
X342169464Y-224715138D01*
X342169464Y-224715138D02*
X342383750Y-224786567D01*
X342383750Y-224786567D02*
X342526607Y-224929424D01*
X342526607Y-224929424D02*
X342598036Y-225072281D01*
X342598036Y-225072281D02*
X342669464Y-225357995D01*
X342669464Y-225357995D02*
X342669464Y-225572281D01*
X342669464Y-225572281D02*
X342598036Y-225857995D01*
X342598036Y-225857995D02*
X342526607Y-226000852D01*
X342526607Y-226000852D02*
X342383750Y-226143710D01*
X342383750Y-226143710D02*
X342169464Y-226215138D01*
X342169464Y-226215138D02*
X341812321Y-226215138D01*
X343240893Y-224857995D02*
X343312321Y-224786567D01*
X343312321Y-224786567D02*
X343455179Y-224715138D01*
X343455179Y-224715138D02*
X343812321Y-224715138D01*
X343812321Y-224715138D02*
X343955179Y-224786567D01*
X343955179Y-224786567D02*
X344026607Y-224857995D01*
X344026607Y-224857995D02*
X344098036Y-225000852D01*
X344098036Y-225000852D02*
X344098036Y-225143710D01*
X344098036Y-225143710D02*
X344026607Y-225357995D01*
X344026607Y-225357995D02*
X343169464Y-226215138D01*
X343169464Y-226215138D02*
X344098036Y-226215138D01*
X345383750Y-225215138D02*
X345383750Y-226215138D01*
X345026607Y-224643710D02*
X344669464Y-225715138D01*
X344669464Y-225715138D02*
X345598035Y-225715138D01*
X74231726Y-187987200D02*
X74374583Y-188034819D01*
X74374583Y-188034819D02*
X74612678Y-188034819D01*
X74612678Y-188034819D02*
X74707916Y-187987200D01*
X74707916Y-187987200D02*
X74755535Y-187939580D01*
X74755535Y-187939580D02*
X74803154Y-187844342D01*
X74803154Y-187844342D02*
X74803154Y-187749104D01*
X74803154Y-187749104D02*
X74755535Y-187653866D01*
X74755535Y-187653866D02*
X74707916Y-187606247D01*
X74707916Y-187606247D02*
X74612678Y-187558628D01*
X74612678Y-187558628D02*
X74422202Y-187511009D01*
X74422202Y-187511009D02*
X74326964Y-187463390D01*
X74326964Y-187463390D02*
X74279345Y-187415771D01*
X74279345Y-187415771D02*
X74231726Y-187320533D01*
X74231726Y-187320533D02*
X74231726Y-187225295D01*
X74231726Y-187225295D02*
X74279345Y-187130057D01*
X74279345Y-187130057D02*
X74326964Y-187082438D01*
X74326964Y-187082438D02*
X74422202Y-187034819D01*
X74422202Y-187034819D02*
X74660297Y-187034819D01*
X74660297Y-187034819D02*
X74803154Y-187082438D01*
X75136488Y-187034819D02*
X75374583Y-188034819D01*
X75374583Y-188034819D02*
X75565059Y-187320533D01*
X75565059Y-187320533D02*
X75755535Y-188034819D01*
X75755535Y-188034819D02*
X75993631Y-187034819D01*
X76898392Y-188034819D02*
X76326964Y-188034819D01*
X76612678Y-188034819D02*
X76612678Y-187034819D01*
X76612678Y-187034819D02*
X76517440Y-187177676D01*
X76517440Y-187177676D02*
X76422202Y-187272914D01*
X76422202Y-187272914D02*
X76326964Y-187320533D01*
X77755535Y-187368152D02*
X77755535Y-188034819D01*
X77517440Y-186987200D02*
X77279345Y-187701485D01*
X77279345Y-187701485D02*
X77898392Y-187701485D01*
X250444226Y-164174700D02*
X250587083Y-164222319D01*
X250587083Y-164222319D02*
X250825178Y-164222319D01*
X250825178Y-164222319D02*
X250920416Y-164174700D01*
X250920416Y-164174700D02*
X250968035Y-164127080D01*
X250968035Y-164127080D02*
X251015654Y-164031842D01*
X251015654Y-164031842D02*
X251015654Y-163936604D01*
X251015654Y-163936604D02*
X250968035Y-163841366D01*
X250968035Y-163841366D02*
X250920416Y-163793747D01*
X250920416Y-163793747D02*
X250825178Y-163746128D01*
X250825178Y-163746128D02*
X250634702Y-163698509D01*
X250634702Y-163698509D02*
X250539464Y-163650890D01*
X250539464Y-163650890D02*
X250491845Y-163603271D01*
X250491845Y-163603271D02*
X250444226Y-163508033D01*
X250444226Y-163508033D02*
X250444226Y-163412795D01*
X250444226Y-163412795D02*
X250491845Y-163317557D01*
X250491845Y-163317557D02*
X250539464Y-163269938D01*
X250539464Y-163269938D02*
X250634702Y-163222319D01*
X250634702Y-163222319D02*
X250872797Y-163222319D01*
X250872797Y-163222319D02*
X251015654Y-163269938D01*
X251348988Y-163222319D02*
X251587083Y-164222319D01*
X251587083Y-164222319D02*
X251777559Y-163508033D01*
X251777559Y-163508033D02*
X251968035Y-164222319D01*
X251968035Y-164222319D02*
X252206131Y-163222319D01*
X253110892Y-164222319D02*
X252539464Y-164222319D01*
X252825178Y-164222319D02*
X252825178Y-163222319D01*
X252825178Y-163222319D02*
X252729940Y-163365176D01*
X252729940Y-163365176D02*
X252634702Y-163460414D01*
X252634702Y-163460414D02*
X252539464Y-163508033D01*
X254063273Y-164222319D02*
X253491845Y-164222319D01*
X253777559Y-164222319D02*
X253777559Y-163222319D01*
X253777559Y-163222319D02*
X253682321Y-163365176D01*
X253682321Y-163365176D02*
X253587083Y-163460414D01*
X253587083Y-163460414D02*
X253491845Y-163508033D01*
X66996640Y-151218928D02*
X66958545Y-151295118D01*
X66958545Y-151295118D02*
X66958545Y-151409404D01*
X66958545Y-151409404D02*
X66996640Y-151523690D01*
X66996640Y-151523690D02*
X67072830Y-151599880D01*
X67072830Y-151599880D02*
X67149021Y-151637975D01*
X67149021Y-151637975D02*
X67301402Y-151676071D01*
X67301402Y-151676071D02*
X67415688Y-151676071D01*
X67415688Y-151676071D02*
X67568069Y-151637975D01*
X67568069Y-151637975D02*
X67644259Y-151599880D01*
X67644259Y-151599880D02*
X67720450Y-151523690D01*
X67720450Y-151523690D02*
X67758545Y-151409404D01*
X67758545Y-151409404D02*
X67758545Y-151333213D01*
X67758545Y-151333213D02*
X67720450Y-151218928D01*
X67720450Y-151218928D02*
X67682354Y-151180832D01*
X67682354Y-151180832D02*
X67415688Y-151180832D01*
X67415688Y-151180832D02*
X67415688Y-151333213D01*
X67758545Y-150837975D02*
X66958545Y-150837975D01*
X66958545Y-150837975D02*
X66958545Y-150533213D01*
X66958545Y-150533213D02*
X66996640Y-150457023D01*
X66996640Y-150457023D02*
X67034735Y-150418928D01*
X67034735Y-150418928D02*
X67110926Y-150380832D01*
X67110926Y-150380832D02*
X67225211Y-150380832D01*
X67225211Y-150380832D02*
X67301402Y-150418928D01*
X67301402Y-150418928D02*
X67339497Y-150457023D01*
X67339497Y-150457023D02*
X67377592Y-150533213D01*
X67377592Y-150533213D02*
X67377592Y-150837975D01*
X67225211Y-149695118D02*
X67758545Y-149695118D01*
X66920450Y-149885594D02*
X67491878Y-150076071D01*
X67491878Y-150076071D02*
X67491878Y-149580832D01*
X97476640Y-151257023D02*
X97438545Y-151333213D01*
X97438545Y-151333213D02*
X97438545Y-151447499D01*
X97438545Y-151447499D02*
X97476640Y-151561785D01*
X97476640Y-151561785D02*
X97552830Y-151637975D01*
X97552830Y-151637975D02*
X97629021Y-151676070D01*
X97629021Y-151676070D02*
X97781402Y-151714166D01*
X97781402Y-151714166D02*
X97895688Y-151714166D01*
X97895688Y-151714166D02*
X98048069Y-151676070D01*
X98048069Y-151676070D02*
X98124259Y-151637975D01*
X98124259Y-151637975D02*
X98200450Y-151561785D01*
X98200450Y-151561785D02*
X98238545Y-151447499D01*
X98238545Y-151447499D02*
X98238545Y-151371308D01*
X98238545Y-151371308D02*
X98200450Y-151257023D01*
X98200450Y-151257023D02*
X98162354Y-151218927D01*
X98162354Y-151218927D02*
X97895688Y-151218927D01*
X97895688Y-151218927D02*
X97895688Y-151371308D01*
X98238545Y-150876070D02*
X97438545Y-150876070D01*
X97438545Y-150876070D02*
X98238545Y-150418927D01*
X98238545Y-150418927D02*
X97438545Y-150418927D01*
X98238545Y-150037975D02*
X97438545Y-150037975D01*
X97438545Y-150037975D02*
X97438545Y-149847499D01*
X97438545Y-149847499D02*
X97476640Y-149733213D01*
X97476640Y-149733213D02*
X97552830Y-149657023D01*
X97552830Y-149657023D02*
X97629021Y-149618928D01*
X97629021Y-149618928D02*
X97781402Y-149580832D01*
X97781402Y-149580832D02*
X97895688Y-149580832D01*
X97895688Y-149580832D02*
X98048069Y-149618928D01*
X98048069Y-149618928D02*
X98124259Y-149657023D01*
X98124259Y-149657023D02*
X98200450Y-149733213D01*
X98200450Y-149733213D02*
X98238545Y-149847499D01*
X98238545Y-149847499D02*
X98238545Y-150037975D01*
X74616640Y-151218928D02*
X74578545Y-151295118D01*
X74578545Y-151295118D02*
X74578545Y-151409404D01*
X74578545Y-151409404D02*
X74616640Y-151523690D01*
X74616640Y-151523690D02*
X74692830Y-151599880D01*
X74692830Y-151599880D02*
X74769021Y-151637975D01*
X74769021Y-151637975D02*
X74921402Y-151676071D01*
X74921402Y-151676071D02*
X75035688Y-151676071D01*
X75035688Y-151676071D02*
X75188069Y-151637975D01*
X75188069Y-151637975D02*
X75264259Y-151599880D01*
X75264259Y-151599880D02*
X75340450Y-151523690D01*
X75340450Y-151523690D02*
X75378545Y-151409404D01*
X75378545Y-151409404D02*
X75378545Y-151333213D01*
X75378545Y-151333213D02*
X75340450Y-151218928D01*
X75340450Y-151218928D02*
X75302354Y-151180832D01*
X75302354Y-151180832D02*
X75035688Y-151180832D01*
X75035688Y-151180832D02*
X75035688Y-151333213D01*
X75378545Y-150837975D02*
X74578545Y-150837975D01*
X74578545Y-150837975D02*
X74578545Y-150533213D01*
X74578545Y-150533213D02*
X74616640Y-150457023D01*
X74616640Y-150457023D02*
X74654735Y-150418928D01*
X74654735Y-150418928D02*
X74730926Y-150380832D01*
X74730926Y-150380832D02*
X74845211Y-150380832D01*
X74845211Y-150380832D02*
X74921402Y-150418928D01*
X74921402Y-150418928D02*
X74959497Y-150457023D01*
X74959497Y-150457023D02*
X74997592Y-150533213D01*
X74997592Y-150533213D02*
X74997592Y-150837975D01*
X74578545Y-149695118D02*
X74578545Y-149847499D01*
X74578545Y-149847499D02*
X74616640Y-149923690D01*
X74616640Y-149923690D02*
X74654735Y-149961785D01*
X74654735Y-149961785D02*
X74769021Y-150037975D01*
X74769021Y-150037975D02*
X74921402Y-150076071D01*
X74921402Y-150076071D02*
X75226164Y-150076071D01*
X75226164Y-150076071D02*
X75302354Y-150037975D01*
X75302354Y-150037975D02*
X75340450Y-149999880D01*
X75340450Y-149999880D02*
X75378545Y-149923690D01*
X75378545Y-149923690D02*
X75378545Y-149771309D01*
X75378545Y-149771309D02*
X75340450Y-149695118D01*
X75340450Y-149695118D02*
X75302354Y-149657023D01*
X75302354Y-149657023D02*
X75226164Y-149618928D01*
X75226164Y-149618928D02*
X75035688Y-149618928D01*
X75035688Y-149618928D02*
X74959497Y-149657023D01*
X74959497Y-149657023D02*
X74921402Y-149695118D01*
X74921402Y-149695118D02*
X74883307Y-149771309D01*
X74883307Y-149771309D02*
X74883307Y-149923690D01*
X74883307Y-149923690D02*
X74921402Y-149999880D01*
X74921402Y-149999880D02*
X74959497Y-150037975D01*
X74959497Y-150037975D02*
X75035688Y-150076071D01*
X97266725Y-154471700D02*
X97381011Y-154509795D01*
X97381011Y-154509795D02*
X97571487Y-154509795D01*
X97571487Y-154509795D02*
X97647678Y-154471700D01*
X97647678Y-154471700D02*
X97685773Y-154433604D01*
X97685773Y-154433604D02*
X97723868Y-154357414D01*
X97723868Y-154357414D02*
X97723868Y-154281223D01*
X97723868Y-154281223D02*
X97685773Y-154205033D01*
X97685773Y-154205033D02*
X97647678Y-154166938D01*
X97647678Y-154166938D02*
X97571487Y-154128842D01*
X97571487Y-154128842D02*
X97419106Y-154090747D01*
X97419106Y-154090747D02*
X97342916Y-154052652D01*
X97342916Y-154052652D02*
X97304821Y-154014557D01*
X97304821Y-154014557D02*
X97266725Y-153938366D01*
X97266725Y-153938366D02*
X97266725Y-153862176D01*
X97266725Y-153862176D02*
X97304821Y-153785985D01*
X97304821Y-153785985D02*
X97342916Y-153747890D01*
X97342916Y-153747890D02*
X97419106Y-153709795D01*
X97419106Y-153709795D02*
X97609583Y-153709795D01*
X97609583Y-153709795D02*
X97723868Y-153747890D01*
X97990535Y-153709795D02*
X98181011Y-154509795D01*
X98181011Y-154509795D02*
X98333392Y-153938366D01*
X98333392Y-153938366D02*
X98485773Y-154509795D01*
X98485773Y-154509795D02*
X98676250Y-153709795D01*
X99438155Y-154433604D02*
X99400059Y-154471700D01*
X99400059Y-154471700D02*
X99285774Y-154509795D01*
X99285774Y-154509795D02*
X99209583Y-154509795D01*
X99209583Y-154509795D02*
X99095297Y-154471700D01*
X99095297Y-154471700D02*
X99019107Y-154395509D01*
X99019107Y-154395509D02*
X98981012Y-154319319D01*
X98981012Y-154319319D02*
X98942916Y-154166938D01*
X98942916Y-154166938D02*
X98942916Y-154052652D01*
X98942916Y-154052652D02*
X98981012Y-153900271D01*
X98981012Y-153900271D02*
X99019107Y-153824080D01*
X99019107Y-153824080D02*
X99095297Y-153747890D01*
X99095297Y-153747890D02*
X99209583Y-153709795D01*
X99209583Y-153709795D02*
X99285774Y-153709795D01*
X99285774Y-153709795D02*
X99400059Y-153747890D01*
X99400059Y-153747890D02*
X99438155Y-153785985D01*
X100161964Y-154509795D02*
X99781012Y-154509795D01*
X99781012Y-154509795D02*
X99781012Y-153709795D01*
X100428631Y-154509795D02*
X100428631Y-153709795D01*
X100885774Y-154509795D02*
X100542916Y-154052652D01*
X100885774Y-153709795D02*
X100428631Y-154166938D01*
X92396640Y-151949881D02*
X92358545Y-152026071D01*
X92358545Y-152026071D02*
X92358545Y-152140357D01*
X92358545Y-152140357D02*
X92396640Y-152254643D01*
X92396640Y-152254643D02*
X92472830Y-152330833D01*
X92472830Y-152330833D02*
X92549021Y-152368928D01*
X92549021Y-152368928D02*
X92701402Y-152407024D01*
X92701402Y-152407024D02*
X92815688Y-152407024D01*
X92815688Y-152407024D02*
X92968069Y-152368928D01*
X92968069Y-152368928D02*
X93044259Y-152330833D01*
X93044259Y-152330833D02*
X93120450Y-152254643D01*
X93120450Y-152254643D02*
X93158545Y-152140357D01*
X93158545Y-152140357D02*
X93158545Y-152064166D01*
X93158545Y-152064166D02*
X93120450Y-151949881D01*
X93120450Y-151949881D02*
X93082354Y-151911785D01*
X93082354Y-151911785D02*
X92815688Y-151911785D01*
X92815688Y-151911785D02*
X92815688Y-152064166D01*
X93158545Y-151568928D02*
X92358545Y-151568928D01*
X92358545Y-151568928D02*
X92358545Y-151264166D01*
X92358545Y-151264166D02*
X92396640Y-151187976D01*
X92396640Y-151187976D02*
X92434735Y-151149881D01*
X92434735Y-151149881D02*
X92510926Y-151111785D01*
X92510926Y-151111785D02*
X92625211Y-151111785D01*
X92625211Y-151111785D02*
X92701402Y-151149881D01*
X92701402Y-151149881D02*
X92739497Y-151187976D01*
X92739497Y-151187976D02*
X92777592Y-151264166D01*
X92777592Y-151264166D02*
X92777592Y-151568928D01*
X93158545Y-150349881D02*
X93158545Y-150807024D01*
X93158545Y-150578452D02*
X92358545Y-150578452D01*
X92358545Y-150578452D02*
X92472830Y-150654643D01*
X92472830Y-150654643D02*
X92549021Y-150730833D01*
X92549021Y-150730833D02*
X92587116Y-150807024D01*
X92434735Y-150045119D02*
X92396640Y-150007023D01*
X92396640Y-150007023D02*
X92358545Y-149930833D01*
X92358545Y-149930833D02*
X92358545Y-149740357D01*
X92358545Y-149740357D02*
X92396640Y-149664166D01*
X92396640Y-149664166D02*
X92434735Y-149626071D01*
X92434735Y-149626071D02*
X92510926Y-149587976D01*
X92510926Y-149587976D02*
X92587116Y-149587976D01*
X92587116Y-149587976D02*
X92701402Y-149626071D01*
X92701402Y-149626071D02*
X93158545Y-150083214D01*
X93158545Y-150083214D02*
X93158545Y-149587976D01*
X94936640Y-163179881D02*
X94898545Y-163256071D01*
X94898545Y-163256071D02*
X94898545Y-163370357D01*
X94898545Y-163370357D02*
X94936640Y-163484643D01*
X94936640Y-163484643D02*
X95012830Y-163560833D01*
X95012830Y-163560833D02*
X95089021Y-163598928D01*
X95089021Y-163598928D02*
X95241402Y-163637024D01*
X95241402Y-163637024D02*
X95355688Y-163637024D01*
X95355688Y-163637024D02*
X95508069Y-163598928D01*
X95508069Y-163598928D02*
X95584259Y-163560833D01*
X95584259Y-163560833D02*
X95660450Y-163484643D01*
X95660450Y-163484643D02*
X95698545Y-163370357D01*
X95698545Y-163370357D02*
X95698545Y-163294166D01*
X95698545Y-163294166D02*
X95660450Y-163179881D01*
X95660450Y-163179881D02*
X95622354Y-163141785D01*
X95622354Y-163141785D02*
X95355688Y-163141785D01*
X95355688Y-163141785D02*
X95355688Y-163294166D01*
X95698545Y-162798928D02*
X94898545Y-162798928D01*
X94898545Y-162798928D02*
X94898545Y-162494166D01*
X94898545Y-162494166D02*
X94936640Y-162417976D01*
X94936640Y-162417976D02*
X94974735Y-162379881D01*
X94974735Y-162379881D02*
X95050926Y-162341785D01*
X95050926Y-162341785D02*
X95165211Y-162341785D01*
X95165211Y-162341785D02*
X95241402Y-162379881D01*
X95241402Y-162379881D02*
X95279497Y-162417976D01*
X95279497Y-162417976D02*
X95317592Y-162494166D01*
X95317592Y-162494166D02*
X95317592Y-162798928D01*
X95698545Y-161579881D02*
X95698545Y-162037024D01*
X95698545Y-161808452D02*
X94898545Y-161808452D01*
X94898545Y-161808452D02*
X95012830Y-161884643D01*
X95012830Y-161884643D02*
X95089021Y-161960833D01*
X95089021Y-161960833D02*
X95127116Y-162037024D01*
X95241402Y-161122738D02*
X95203307Y-161198928D01*
X95203307Y-161198928D02*
X95165211Y-161237023D01*
X95165211Y-161237023D02*
X95089021Y-161275119D01*
X95089021Y-161275119D02*
X95050926Y-161275119D01*
X95050926Y-161275119D02*
X94974735Y-161237023D01*
X94974735Y-161237023D02*
X94936640Y-161198928D01*
X94936640Y-161198928D02*
X94898545Y-161122738D01*
X94898545Y-161122738D02*
X94898545Y-160970357D01*
X94898545Y-160970357D02*
X94936640Y-160894166D01*
X94936640Y-160894166D02*
X94974735Y-160856071D01*
X94974735Y-160856071D02*
X95050926Y-160817976D01*
X95050926Y-160817976D02*
X95089021Y-160817976D01*
X95089021Y-160817976D02*
X95165211Y-160856071D01*
X95165211Y-160856071D02*
X95203307Y-160894166D01*
X95203307Y-160894166D02*
X95241402Y-160970357D01*
X95241402Y-160970357D02*
X95241402Y-161122738D01*
X95241402Y-161122738D02*
X95279497Y-161198928D01*
X95279497Y-161198928D02*
X95317592Y-161237023D01*
X95317592Y-161237023D02*
X95393783Y-161275119D01*
X95393783Y-161275119D02*
X95546164Y-161275119D01*
X95546164Y-161275119D02*
X95622354Y-161237023D01*
X95622354Y-161237023D02*
X95660450Y-161198928D01*
X95660450Y-161198928D02*
X95698545Y-161122738D01*
X95698545Y-161122738D02*
X95698545Y-160970357D01*
X95698545Y-160970357D02*
X95660450Y-160894166D01*
X95660450Y-160894166D02*
X95622354Y-160856071D01*
X95622354Y-160856071D02*
X95546164Y-160817976D01*
X95546164Y-160817976D02*
X95393783Y-160817976D01*
X95393783Y-160817976D02*
X95317592Y-160856071D01*
X95317592Y-160856071D02*
X95279497Y-160894166D01*
X95279497Y-160894166D02*
X95241402Y-160970357D01*
X69536640Y-163179881D02*
X69498545Y-163256071D01*
X69498545Y-163256071D02*
X69498545Y-163370357D01*
X69498545Y-163370357D02*
X69536640Y-163484643D01*
X69536640Y-163484643D02*
X69612830Y-163560833D01*
X69612830Y-163560833D02*
X69689021Y-163598928D01*
X69689021Y-163598928D02*
X69841402Y-163637024D01*
X69841402Y-163637024D02*
X69955688Y-163637024D01*
X69955688Y-163637024D02*
X70108069Y-163598928D01*
X70108069Y-163598928D02*
X70184259Y-163560833D01*
X70184259Y-163560833D02*
X70260450Y-163484643D01*
X70260450Y-163484643D02*
X70298545Y-163370357D01*
X70298545Y-163370357D02*
X70298545Y-163294166D01*
X70298545Y-163294166D02*
X70260450Y-163179881D01*
X70260450Y-163179881D02*
X70222354Y-163141785D01*
X70222354Y-163141785D02*
X69955688Y-163141785D01*
X69955688Y-163141785D02*
X69955688Y-163294166D01*
X70298545Y-162798928D02*
X69498545Y-162798928D01*
X69498545Y-162798928D02*
X69498545Y-162494166D01*
X69498545Y-162494166D02*
X69536640Y-162417976D01*
X69536640Y-162417976D02*
X69574735Y-162379881D01*
X69574735Y-162379881D02*
X69650926Y-162341785D01*
X69650926Y-162341785D02*
X69765211Y-162341785D01*
X69765211Y-162341785D02*
X69841402Y-162379881D01*
X69841402Y-162379881D02*
X69879497Y-162417976D01*
X69879497Y-162417976D02*
X69917592Y-162494166D01*
X69917592Y-162494166D02*
X69917592Y-162798928D01*
X69574735Y-162037024D02*
X69536640Y-161998928D01*
X69536640Y-161998928D02*
X69498545Y-161922738D01*
X69498545Y-161922738D02*
X69498545Y-161732262D01*
X69498545Y-161732262D02*
X69536640Y-161656071D01*
X69536640Y-161656071D02*
X69574735Y-161617976D01*
X69574735Y-161617976D02*
X69650926Y-161579881D01*
X69650926Y-161579881D02*
X69727116Y-161579881D01*
X69727116Y-161579881D02*
X69841402Y-161617976D01*
X69841402Y-161617976D02*
X70298545Y-162075119D01*
X70298545Y-162075119D02*
X70298545Y-161579881D01*
X69841402Y-161122738D02*
X69803307Y-161198928D01*
X69803307Y-161198928D02*
X69765211Y-161237023D01*
X69765211Y-161237023D02*
X69689021Y-161275119D01*
X69689021Y-161275119D02*
X69650926Y-161275119D01*
X69650926Y-161275119D02*
X69574735Y-161237023D01*
X69574735Y-161237023D02*
X69536640Y-161198928D01*
X69536640Y-161198928D02*
X69498545Y-161122738D01*
X69498545Y-161122738D02*
X69498545Y-160970357D01*
X69498545Y-160970357D02*
X69536640Y-160894166D01*
X69536640Y-160894166D02*
X69574735Y-160856071D01*
X69574735Y-160856071D02*
X69650926Y-160817976D01*
X69650926Y-160817976D02*
X69689021Y-160817976D01*
X69689021Y-160817976D02*
X69765211Y-160856071D01*
X69765211Y-160856071D02*
X69803307Y-160894166D01*
X69803307Y-160894166D02*
X69841402Y-160970357D01*
X69841402Y-160970357D02*
X69841402Y-161122738D01*
X69841402Y-161122738D02*
X69879497Y-161198928D01*
X69879497Y-161198928D02*
X69917592Y-161237023D01*
X69917592Y-161237023D02*
X69993783Y-161275119D01*
X69993783Y-161275119D02*
X70146164Y-161275119D01*
X70146164Y-161275119D02*
X70222354Y-161237023D01*
X70222354Y-161237023D02*
X70260450Y-161198928D01*
X70260450Y-161198928D02*
X70298545Y-161122738D01*
X70298545Y-161122738D02*
X70298545Y-160970357D01*
X70298545Y-160970357D02*
X70260450Y-160894166D01*
X70260450Y-160894166D02*
X70222354Y-160856071D01*
X70222354Y-160856071D02*
X70146164Y-160817976D01*
X70146164Y-160817976D02*
X69993783Y-160817976D01*
X69993783Y-160817976D02*
X69917592Y-160856071D01*
X69917592Y-160856071D02*
X69879497Y-160894166D01*
X69879497Y-160894166D02*
X69841402Y-160970357D01*
X92396640Y-163179881D02*
X92358545Y-163256071D01*
X92358545Y-163256071D02*
X92358545Y-163370357D01*
X92358545Y-163370357D02*
X92396640Y-163484643D01*
X92396640Y-163484643D02*
X92472830Y-163560833D01*
X92472830Y-163560833D02*
X92549021Y-163598928D01*
X92549021Y-163598928D02*
X92701402Y-163637024D01*
X92701402Y-163637024D02*
X92815688Y-163637024D01*
X92815688Y-163637024D02*
X92968069Y-163598928D01*
X92968069Y-163598928D02*
X93044259Y-163560833D01*
X93044259Y-163560833D02*
X93120450Y-163484643D01*
X93120450Y-163484643D02*
X93158545Y-163370357D01*
X93158545Y-163370357D02*
X93158545Y-163294166D01*
X93158545Y-163294166D02*
X93120450Y-163179881D01*
X93120450Y-163179881D02*
X93082354Y-163141785D01*
X93082354Y-163141785D02*
X92815688Y-163141785D01*
X92815688Y-163141785D02*
X92815688Y-163294166D01*
X93158545Y-162798928D02*
X92358545Y-162798928D01*
X92358545Y-162798928D02*
X92358545Y-162494166D01*
X92358545Y-162494166D02*
X92396640Y-162417976D01*
X92396640Y-162417976D02*
X92434735Y-162379881D01*
X92434735Y-162379881D02*
X92510926Y-162341785D01*
X92510926Y-162341785D02*
X92625211Y-162341785D01*
X92625211Y-162341785D02*
X92701402Y-162379881D01*
X92701402Y-162379881D02*
X92739497Y-162417976D01*
X92739497Y-162417976D02*
X92777592Y-162494166D01*
X92777592Y-162494166D02*
X92777592Y-162798928D01*
X93158545Y-161579881D02*
X93158545Y-162037024D01*
X93158545Y-161808452D02*
X92358545Y-161808452D01*
X92358545Y-161808452D02*
X92472830Y-161884643D01*
X92472830Y-161884643D02*
X92549021Y-161960833D01*
X92549021Y-161960833D02*
X92587116Y-162037024D01*
X93158545Y-161198928D02*
X93158545Y-161046547D01*
X93158545Y-161046547D02*
X93120450Y-160970357D01*
X93120450Y-160970357D02*
X93082354Y-160932261D01*
X93082354Y-160932261D02*
X92968069Y-160856071D01*
X92968069Y-160856071D02*
X92815688Y-160817976D01*
X92815688Y-160817976D02*
X92510926Y-160817976D01*
X92510926Y-160817976D02*
X92434735Y-160856071D01*
X92434735Y-160856071D02*
X92396640Y-160894166D01*
X92396640Y-160894166D02*
X92358545Y-160970357D01*
X92358545Y-160970357D02*
X92358545Y-161122738D01*
X92358545Y-161122738D02*
X92396640Y-161198928D01*
X92396640Y-161198928D02*
X92434735Y-161237023D01*
X92434735Y-161237023D02*
X92510926Y-161275119D01*
X92510926Y-161275119D02*
X92701402Y-161275119D01*
X92701402Y-161275119D02*
X92777592Y-161237023D01*
X92777592Y-161237023D02*
X92815688Y-161198928D01*
X92815688Y-161198928D02*
X92853783Y-161122738D01*
X92853783Y-161122738D02*
X92853783Y-160970357D01*
X92853783Y-160970357D02*
X92815688Y-160894166D01*
X92815688Y-160894166D02*
X92777592Y-160856071D01*
X92777592Y-160856071D02*
X92701402Y-160817976D01*
X89856640Y-163179881D02*
X89818545Y-163256071D01*
X89818545Y-163256071D02*
X89818545Y-163370357D01*
X89818545Y-163370357D02*
X89856640Y-163484643D01*
X89856640Y-163484643D02*
X89932830Y-163560833D01*
X89932830Y-163560833D02*
X90009021Y-163598928D01*
X90009021Y-163598928D02*
X90161402Y-163637024D01*
X90161402Y-163637024D02*
X90275688Y-163637024D01*
X90275688Y-163637024D02*
X90428069Y-163598928D01*
X90428069Y-163598928D02*
X90504259Y-163560833D01*
X90504259Y-163560833D02*
X90580450Y-163484643D01*
X90580450Y-163484643D02*
X90618545Y-163370357D01*
X90618545Y-163370357D02*
X90618545Y-163294166D01*
X90618545Y-163294166D02*
X90580450Y-163179881D01*
X90580450Y-163179881D02*
X90542354Y-163141785D01*
X90542354Y-163141785D02*
X90275688Y-163141785D01*
X90275688Y-163141785D02*
X90275688Y-163294166D01*
X90618545Y-162798928D02*
X89818545Y-162798928D01*
X89818545Y-162798928D02*
X89818545Y-162494166D01*
X89818545Y-162494166D02*
X89856640Y-162417976D01*
X89856640Y-162417976D02*
X89894735Y-162379881D01*
X89894735Y-162379881D02*
X89970926Y-162341785D01*
X89970926Y-162341785D02*
X90085211Y-162341785D01*
X90085211Y-162341785D02*
X90161402Y-162379881D01*
X90161402Y-162379881D02*
X90199497Y-162417976D01*
X90199497Y-162417976D02*
X90237592Y-162494166D01*
X90237592Y-162494166D02*
X90237592Y-162798928D01*
X89894735Y-162037024D02*
X89856640Y-161998928D01*
X89856640Y-161998928D02*
X89818545Y-161922738D01*
X89818545Y-161922738D02*
X89818545Y-161732262D01*
X89818545Y-161732262D02*
X89856640Y-161656071D01*
X89856640Y-161656071D02*
X89894735Y-161617976D01*
X89894735Y-161617976D02*
X89970926Y-161579881D01*
X89970926Y-161579881D02*
X90047116Y-161579881D01*
X90047116Y-161579881D02*
X90161402Y-161617976D01*
X90161402Y-161617976D02*
X90618545Y-162075119D01*
X90618545Y-162075119D02*
X90618545Y-161579881D01*
X89818545Y-161084642D02*
X89818545Y-161008452D01*
X89818545Y-161008452D02*
X89856640Y-160932261D01*
X89856640Y-160932261D02*
X89894735Y-160894166D01*
X89894735Y-160894166D02*
X89970926Y-160856071D01*
X89970926Y-160856071D02*
X90123307Y-160817976D01*
X90123307Y-160817976D02*
X90313783Y-160817976D01*
X90313783Y-160817976D02*
X90466164Y-160856071D01*
X90466164Y-160856071D02*
X90542354Y-160894166D01*
X90542354Y-160894166D02*
X90580450Y-160932261D01*
X90580450Y-160932261D02*
X90618545Y-161008452D01*
X90618545Y-161008452D02*
X90618545Y-161084642D01*
X90618545Y-161084642D02*
X90580450Y-161160833D01*
X90580450Y-161160833D02*
X90542354Y-161198928D01*
X90542354Y-161198928D02*
X90466164Y-161237023D01*
X90466164Y-161237023D02*
X90313783Y-161275119D01*
X90313783Y-161275119D02*
X90123307Y-161275119D01*
X90123307Y-161275119D02*
X89970926Y-161237023D01*
X89970926Y-161237023D02*
X89894735Y-161198928D01*
X89894735Y-161198928D02*
X89856640Y-161160833D01*
X89856640Y-161160833D02*
X89818545Y-161084642D01*
X77126640Y-151218928D02*
X77088545Y-151295118D01*
X77088545Y-151295118D02*
X77088545Y-151409404D01*
X77088545Y-151409404D02*
X77126640Y-151523690D01*
X77126640Y-151523690D02*
X77202830Y-151599880D01*
X77202830Y-151599880D02*
X77279021Y-151637975D01*
X77279021Y-151637975D02*
X77431402Y-151676071D01*
X77431402Y-151676071D02*
X77545688Y-151676071D01*
X77545688Y-151676071D02*
X77698069Y-151637975D01*
X77698069Y-151637975D02*
X77774259Y-151599880D01*
X77774259Y-151599880D02*
X77850450Y-151523690D01*
X77850450Y-151523690D02*
X77888545Y-151409404D01*
X77888545Y-151409404D02*
X77888545Y-151333213D01*
X77888545Y-151333213D02*
X77850450Y-151218928D01*
X77850450Y-151218928D02*
X77812354Y-151180832D01*
X77812354Y-151180832D02*
X77545688Y-151180832D01*
X77545688Y-151180832D02*
X77545688Y-151333213D01*
X77888545Y-150837975D02*
X77088545Y-150837975D01*
X77088545Y-150837975D02*
X77088545Y-150533213D01*
X77088545Y-150533213D02*
X77126640Y-150457023D01*
X77126640Y-150457023D02*
X77164735Y-150418928D01*
X77164735Y-150418928D02*
X77240926Y-150380832D01*
X77240926Y-150380832D02*
X77355211Y-150380832D01*
X77355211Y-150380832D02*
X77431402Y-150418928D01*
X77431402Y-150418928D02*
X77469497Y-150457023D01*
X77469497Y-150457023D02*
X77507592Y-150533213D01*
X77507592Y-150533213D02*
X77507592Y-150837975D01*
X77088545Y-150114166D02*
X77088545Y-149580832D01*
X77088545Y-149580832D02*
X77888545Y-149923690D01*
X82236640Y-151218928D02*
X82198545Y-151295118D01*
X82198545Y-151295118D02*
X82198545Y-151409404D01*
X82198545Y-151409404D02*
X82236640Y-151523690D01*
X82236640Y-151523690D02*
X82312830Y-151599880D01*
X82312830Y-151599880D02*
X82389021Y-151637975D01*
X82389021Y-151637975D02*
X82541402Y-151676071D01*
X82541402Y-151676071D02*
X82655688Y-151676071D01*
X82655688Y-151676071D02*
X82808069Y-151637975D01*
X82808069Y-151637975D02*
X82884259Y-151599880D01*
X82884259Y-151599880D02*
X82960450Y-151523690D01*
X82960450Y-151523690D02*
X82998545Y-151409404D01*
X82998545Y-151409404D02*
X82998545Y-151333213D01*
X82998545Y-151333213D02*
X82960450Y-151218928D01*
X82960450Y-151218928D02*
X82922354Y-151180832D01*
X82922354Y-151180832D02*
X82655688Y-151180832D01*
X82655688Y-151180832D02*
X82655688Y-151333213D01*
X82998545Y-150837975D02*
X82198545Y-150837975D01*
X82198545Y-150837975D02*
X82198545Y-150533213D01*
X82198545Y-150533213D02*
X82236640Y-150457023D01*
X82236640Y-150457023D02*
X82274735Y-150418928D01*
X82274735Y-150418928D02*
X82350926Y-150380832D01*
X82350926Y-150380832D02*
X82465211Y-150380832D01*
X82465211Y-150380832D02*
X82541402Y-150418928D01*
X82541402Y-150418928D02*
X82579497Y-150457023D01*
X82579497Y-150457023D02*
X82617592Y-150533213D01*
X82617592Y-150533213D02*
X82617592Y-150837975D01*
X82998545Y-149999880D02*
X82998545Y-149847499D01*
X82998545Y-149847499D02*
X82960450Y-149771309D01*
X82960450Y-149771309D02*
X82922354Y-149733213D01*
X82922354Y-149733213D02*
X82808069Y-149657023D01*
X82808069Y-149657023D02*
X82655688Y-149618928D01*
X82655688Y-149618928D02*
X82350926Y-149618928D01*
X82350926Y-149618928D02*
X82274735Y-149657023D01*
X82274735Y-149657023D02*
X82236640Y-149695118D01*
X82236640Y-149695118D02*
X82198545Y-149771309D01*
X82198545Y-149771309D02*
X82198545Y-149923690D01*
X82198545Y-149923690D02*
X82236640Y-149999880D01*
X82236640Y-149999880D02*
X82274735Y-150037975D01*
X82274735Y-150037975D02*
X82350926Y-150076071D01*
X82350926Y-150076071D02*
X82541402Y-150076071D01*
X82541402Y-150076071D02*
X82617592Y-150037975D01*
X82617592Y-150037975D02*
X82655688Y-149999880D01*
X82655688Y-149999880D02*
X82693783Y-149923690D01*
X82693783Y-149923690D02*
X82693783Y-149771309D01*
X82693783Y-149771309D02*
X82655688Y-149695118D01*
X82655688Y-149695118D02*
X82617592Y-149657023D01*
X82617592Y-149657023D02*
X82541402Y-149618928D01*
X69536640Y-151218928D02*
X69498545Y-151295118D01*
X69498545Y-151295118D02*
X69498545Y-151409404D01*
X69498545Y-151409404D02*
X69536640Y-151523690D01*
X69536640Y-151523690D02*
X69612830Y-151599880D01*
X69612830Y-151599880D02*
X69689021Y-151637975D01*
X69689021Y-151637975D02*
X69841402Y-151676071D01*
X69841402Y-151676071D02*
X69955688Y-151676071D01*
X69955688Y-151676071D02*
X70108069Y-151637975D01*
X70108069Y-151637975D02*
X70184259Y-151599880D01*
X70184259Y-151599880D02*
X70260450Y-151523690D01*
X70260450Y-151523690D02*
X70298545Y-151409404D01*
X70298545Y-151409404D02*
X70298545Y-151333213D01*
X70298545Y-151333213D02*
X70260450Y-151218928D01*
X70260450Y-151218928D02*
X70222354Y-151180832D01*
X70222354Y-151180832D02*
X69955688Y-151180832D01*
X69955688Y-151180832D02*
X69955688Y-151333213D01*
X70298545Y-150837975D02*
X69498545Y-150837975D01*
X69498545Y-150837975D02*
X69498545Y-150533213D01*
X69498545Y-150533213D02*
X69536640Y-150457023D01*
X69536640Y-150457023D02*
X69574735Y-150418928D01*
X69574735Y-150418928D02*
X69650926Y-150380832D01*
X69650926Y-150380832D02*
X69765211Y-150380832D01*
X69765211Y-150380832D02*
X69841402Y-150418928D01*
X69841402Y-150418928D02*
X69879497Y-150457023D01*
X69879497Y-150457023D02*
X69917592Y-150533213D01*
X69917592Y-150533213D02*
X69917592Y-150837975D01*
X69498545Y-149657023D02*
X69498545Y-150037975D01*
X69498545Y-150037975D02*
X69879497Y-150076071D01*
X69879497Y-150076071D02*
X69841402Y-150037975D01*
X69841402Y-150037975D02*
X69803307Y-149961785D01*
X69803307Y-149961785D02*
X69803307Y-149771309D01*
X69803307Y-149771309D02*
X69841402Y-149695118D01*
X69841402Y-149695118D02*
X69879497Y-149657023D01*
X69879497Y-149657023D02*
X69955688Y-149618928D01*
X69955688Y-149618928D02*
X70146164Y-149618928D01*
X70146164Y-149618928D02*
X70222354Y-149657023D01*
X70222354Y-149657023D02*
X70260450Y-149695118D01*
X70260450Y-149695118D02*
X70298545Y-149771309D01*
X70298545Y-149771309D02*
X70298545Y-149961785D01*
X70298545Y-149961785D02*
X70260450Y-150037975D01*
X70260450Y-150037975D02*
X70222354Y-150076071D01*
X64418545Y-163717976D02*
X64418545Y-163222738D01*
X64418545Y-163222738D02*
X64723307Y-163489404D01*
X64723307Y-163489404D02*
X64723307Y-163375119D01*
X64723307Y-163375119D02*
X64761402Y-163298928D01*
X64761402Y-163298928D02*
X64799497Y-163260833D01*
X64799497Y-163260833D02*
X64875688Y-163222738D01*
X64875688Y-163222738D02*
X65066164Y-163222738D01*
X65066164Y-163222738D02*
X65142354Y-163260833D01*
X65142354Y-163260833D02*
X65180450Y-163298928D01*
X65180450Y-163298928D02*
X65218545Y-163375119D01*
X65218545Y-163375119D02*
X65218545Y-163603690D01*
X65218545Y-163603690D02*
X65180450Y-163679881D01*
X65180450Y-163679881D02*
X65142354Y-163717976D01*
X64418545Y-162994166D02*
X65218545Y-162727499D01*
X65218545Y-162727499D02*
X64418545Y-162460833D01*
X64418545Y-162270357D02*
X64418545Y-161775119D01*
X64418545Y-161775119D02*
X64723307Y-162041785D01*
X64723307Y-162041785D02*
X64723307Y-161927500D01*
X64723307Y-161927500D02*
X64761402Y-161851309D01*
X64761402Y-161851309D02*
X64799497Y-161813214D01*
X64799497Y-161813214D02*
X64875688Y-161775119D01*
X64875688Y-161775119D02*
X65066164Y-161775119D01*
X65066164Y-161775119D02*
X65142354Y-161813214D01*
X65142354Y-161813214D02*
X65180450Y-161851309D01*
X65180450Y-161851309D02*
X65218545Y-161927500D01*
X65218545Y-161927500D02*
X65218545Y-162156071D01*
X65218545Y-162156071D02*
X65180450Y-162232262D01*
X65180450Y-162232262D02*
X65142354Y-162270357D01*
X61916640Y-151218928D02*
X61878545Y-151295118D01*
X61878545Y-151295118D02*
X61878545Y-151409404D01*
X61878545Y-151409404D02*
X61916640Y-151523690D01*
X61916640Y-151523690D02*
X61992830Y-151599880D01*
X61992830Y-151599880D02*
X62069021Y-151637975D01*
X62069021Y-151637975D02*
X62221402Y-151676071D01*
X62221402Y-151676071D02*
X62335688Y-151676071D01*
X62335688Y-151676071D02*
X62488069Y-151637975D01*
X62488069Y-151637975D02*
X62564259Y-151599880D01*
X62564259Y-151599880D02*
X62640450Y-151523690D01*
X62640450Y-151523690D02*
X62678545Y-151409404D01*
X62678545Y-151409404D02*
X62678545Y-151333213D01*
X62678545Y-151333213D02*
X62640450Y-151218928D01*
X62640450Y-151218928D02*
X62602354Y-151180832D01*
X62602354Y-151180832D02*
X62335688Y-151180832D01*
X62335688Y-151180832D02*
X62335688Y-151333213D01*
X62678545Y-150837975D02*
X61878545Y-150837975D01*
X61878545Y-150837975D02*
X61878545Y-150533213D01*
X61878545Y-150533213D02*
X61916640Y-150457023D01*
X61916640Y-150457023D02*
X61954735Y-150418928D01*
X61954735Y-150418928D02*
X62030926Y-150380832D01*
X62030926Y-150380832D02*
X62145211Y-150380832D01*
X62145211Y-150380832D02*
X62221402Y-150418928D01*
X62221402Y-150418928D02*
X62259497Y-150457023D01*
X62259497Y-150457023D02*
X62297592Y-150533213D01*
X62297592Y-150533213D02*
X62297592Y-150837975D01*
X61954735Y-150076071D02*
X61916640Y-150037975D01*
X61916640Y-150037975D02*
X61878545Y-149961785D01*
X61878545Y-149961785D02*
X61878545Y-149771309D01*
X61878545Y-149771309D02*
X61916640Y-149695118D01*
X61916640Y-149695118D02*
X61954735Y-149657023D01*
X61954735Y-149657023D02*
X62030926Y-149618928D01*
X62030926Y-149618928D02*
X62107116Y-149618928D01*
X62107116Y-149618928D02*
X62221402Y-149657023D01*
X62221402Y-149657023D02*
X62678545Y-150114166D01*
X62678545Y-150114166D02*
X62678545Y-149618928D01*
X97381011Y-159551700D02*
X97495297Y-159589795D01*
X97495297Y-159589795D02*
X97685773Y-159589795D01*
X97685773Y-159589795D02*
X97761964Y-159551700D01*
X97761964Y-159551700D02*
X97800059Y-159513604D01*
X97800059Y-159513604D02*
X97838154Y-159437414D01*
X97838154Y-159437414D02*
X97838154Y-159361223D01*
X97838154Y-159361223D02*
X97800059Y-159285033D01*
X97800059Y-159285033D02*
X97761964Y-159246938D01*
X97761964Y-159246938D02*
X97685773Y-159208842D01*
X97685773Y-159208842D02*
X97533392Y-159170747D01*
X97533392Y-159170747D02*
X97457202Y-159132652D01*
X97457202Y-159132652D02*
X97419107Y-159094557D01*
X97419107Y-159094557D02*
X97381011Y-159018366D01*
X97381011Y-159018366D02*
X97381011Y-158942176D01*
X97381011Y-158942176D02*
X97419107Y-158865985D01*
X97419107Y-158865985D02*
X97457202Y-158827890D01*
X97457202Y-158827890D02*
X97533392Y-158789795D01*
X97533392Y-158789795D02*
X97723869Y-158789795D01*
X97723869Y-158789795D02*
X97838154Y-158827890D01*
X98104821Y-158789795D02*
X98295297Y-159589795D01*
X98295297Y-159589795D02*
X98447678Y-159018366D01*
X98447678Y-159018366D02*
X98600059Y-159589795D01*
X98600059Y-159589795D02*
X98790536Y-158789795D01*
X99095298Y-159589795D02*
X99095298Y-158789795D01*
X99095298Y-158789795D02*
X99285774Y-158789795D01*
X99285774Y-158789795D02*
X99400060Y-158827890D01*
X99400060Y-158827890D02*
X99476250Y-158904080D01*
X99476250Y-158904080D02*
X99514345Y-158980271D01*
X99514345Y-158980271D02*
X99552441Y-159132652D01*
X99552441Y-159132652D02*
X99552441Y-159246938D01*
X99552441Y-159246938D02*
X99514345Y-159399319D01*
X99514345Y-159399319D02*
X99476250Y-159475509D01*
X99476250Y-159475509D02*
X99400060Y-159551700D01*
X99400060Y-159551700D02*
X99285774Y-159589795D01*
X99285774Y-159589795D02*
X99095298Y-159589795D01*
X99895298Y-159589795D02*
X99895298Y-158789795D01*
X100428631Y-158789795D02*
X100581012Y-158789795D01*
X100581012Y-158789795D02*
X100657202Y-158827890D01*
X100657202Y-158827890D02*
X100733393Y-158904080D01*
X100733393Y-158904080D02*
X100771488Y-159056461D01*
X100771488Y-159056461D02*
X100771488Y-159323128D01*
X100771488Y-159323128D02*
X100733393Y-159475509D01*
X100733393Y-159475509D02*
X100657202Y-159551700D01*
X100657202Y-159551700D02*
X100581012Y-159589795D01*
X100581012Y-159589795D02*
X100428631Y-159589795D01*
X100428631Y-159589795D02*
X100352440Y-159551700D01*
X100352440Y-159551700D02*
X100276250Y-159475509D01*
X100276250Y-159475509D02*
X100238154Y-159323128D01*
X100238154Y-159323128D02*
X100238154Y-159056461D01*
X100238154Y-159056461D02*
X100276250Y-158904080D01*
X100276250Y-158904080D02*
X100352440Y-158827890D01*
X100352440Y-158827890D02*
X100428631Y-158789795D01*
X89856640Y-151949881D02*
X89818545Y-152026071D01*
X89818545Y-152026071D02*
X89818545Y-152140357D01*
X89818545Y-152140357D02*
X89856640Y-152254643D01*
X89856640Y-152254643D02*
X89932830Y-152330833D01*
X89932830Y-152330833D02*
X90009021Y-152368928D01*
X90009021Y-152368928D02*
X90161402Y-152407024D01*
X90161402Y-152407024D02*
X90275688Y-152407024D01*
X90275688Y-152407024D02*
X90428069Y-152368928D01*
X90428069Y-152368928D02*
X90504259Y-152330833D01*
X90504259Y-152330833D02*
X90580450Y-152254643D01*
X90580450Y-152254643D02*
X90618545Y-152140357D01*
X90618545Y-152140357D02*
X90618545Y-152064166D01*
X90618545Y-152064166D02*
X90580450Y-151949881D01*
X90580450Y-151949881D02*
X90542354Y-151911785D01*
X90542354Y-151911785D02*
X90275688Y-151911785D01*
X90275688Y-151911785D02*
X90275688Y-152064166D01*
X90618545Y-151568928D02*
X89818545Y-151568928D01*
X89818545Y-151568928D02*
X89818545Y-151264166D01*
X89818545Y-151264166D02*
X89856640Y-151187976D01*
X89856640Y-151187976D02*
X89894735Y-151149881D01*
X89894735Y-151149881D02*
X89970926Y-151111785D01*
X89970926Y-151111785D02*
X90085211Y-151111785D01*
X90085211Y-151111785D02*
X90161402Y-151149881D01*
X90161402Y-151149881D02*
X90199497Y-151187976D01*
X90199497Y-151187976D02*
X90237592Y-151264166D01*
X90237592Y-151264166D02*
X90237592Y-151568928D01*
X90618545Y-150349881D02*
X90618545Y-150807024D01*
X90618545Y-150578452D02*
X89818545Y-150578452D01*
X89818545Y-150578452D02*
X89932830Y-150654643D01*
X89932830Y-150654643D02*
X90009021Y-150730833D01*
X90009021Y-150730833D02*
X90047116Y-150807024D01*
X90618545Y-149587976D02*
X90618545Y-150045119D01*
X90618545Y-149816547D02*
X89818545Y-149816547D01*
X89818545Y-149816547D02*
X89932830Y-149892738D01*
X89932830Y-149892738D02*
X90009021Y-149968928D01*
X90009021Y-149968928D02*
X90047116Y-150045119D01*
X67529973Y-163720357D02*
X67529973Y-163339404D01*
X67758545Y-163796547D02*
X66958545Y-163529880D01*
X66958545Y-163529880D02*
X67758545Y-163263214D01*
X67758545Y-162996547D02*
X66958545Y-162996547D01*
X66958545Y-162996547D02*
X66958545Y-162806071D01*
X66958545Y-162806071D02*
X66996640Y-162691785D01*
X66996640Y-162691785D02*
X67072830Y-162615595D01*
X67072830Y-162615595D02*
X67149021Y-162577500D01*
X67149021Y-162577500D02*
X67301402Y-162539404D01*
X67301402Y-162539404D02*
X67415688Y-162539404D01*
X67415688Y-162539404D02*
X67568069Y-162577500D01*
X67568069Y-162577500D02*
X67644259Y-162615595D01*
X67644259Y-162615595D02*
X67720450Y-162691785D01*
X67720450Y-162691785D02*
X67758545Y-162806071D01*
X67758545Y-162806071D02*
X67758545Y-162996547D01*
X67682354Y-161739404D02*
X67720450Y-161777500D01*
X67720450Y-161777500D02*
X67758545Y-161891785D01*
X67758545Y-161891785D02*
X67758545Y-161967976D01*
X67758545Y-161967976D02*
X67720450Y-162082262D01*
X67720450Y-162082262D02*
X67644259Y-162158452D01*
X67644259Y-162158452D02*
X67568069Y-162196547D01*
X67568069Y-162196547D02*
X67415688Y-162234643D01*
X67415688Y-162234643D02*
X67301402Y-162234643D01*
X67301402Y-162234643D02*
X67149021Y-162196547D01*
X67149021Y-162196547D02*
X67072830Y-162158452D01*
X67072830Y-162158452D02*
X66996640Y-162082262D01*
X66996640Y-162082262D02*
X66958545Y-161967976D01*
X66958545Y-161967976D02*
X66958545Y-161891785D01*
X66958545Y-161891785D02*
X66996640Y-161777500D01*
X66996640Y-161777500D02*
X67034735Y-161739404D01*
X67834735Y-161587024D02*
X67834735Y-160977500D01*
X66958545Y-160901309D02*
X67758545Y-160634642D01*
X67758545Y-160634642D02*
X66958545Y-160367976D01*
X67758545Y-159644166D02*
X67377592Y-159910833D01*
X67758545Y-160101309D02*
X66958545Y-160101309D01*
X66958545Y-160101309D02*
X66958545Y-159796547D01*
X66958545Y-159796547D02*
X66996640Y-159720357D01*
X66996640Y-159720357D02*
X67034735Y-159682262D01*
X67034735Y-159682262D02*
X67110926Y-159644166D01*
X67110926Y-159644166D02*
X67225211Y-159644166D01*
X67225211Y-159644166D02*
X67301402Y-159682262D01*
X67301402Y-159682262D02*
X67339497Y-159720357D01*
X67339497Y-159720357D02*
X67377592Y-159796547D01*
X67377592Y-159796547D02*
X67377592Y-160101309D01*
X67339497Y-159301309D02*
X67339497Y-159034643D01*
X67758545Y-158920357D02*
X67758545Y-159301309D01*
X67758545Y-159301309D02*
X66958545Y-159301309D01*
X66958545Y-159301309D02*
X66958545Y-158920357D01*
X67339497Y-158310833D02*
X67339497Y-158577499D01*
X67758545Y-158577499D02*
X66958545Y-158577499D01*
X66958545Y-158577499D02*
X66958545Y-158196547D01*
X100016640Y-151949881D02*
X99978545Y-152026071D01*
X99978545Y-152026071D02*
X99978545Y-152140357D01*
X99978545Y-152140357D02*
X100016640Y-152254643D01*
X100016640Y-152254643D02*
X100092830Y-152330833D01*
X100092830Y-152330833D02*
X100169021Y-152368928D01*
X100169021Y-152368928D02*
X100321402Y-152407024D01*
X100321402Y-152407024D02*
X100435688Y-152407024D01*
X100435688Y-152407024D02*
X100588069Y-152368928D01*
X100588069Y-152368928D02*
X100664259Y-152330833D01*
X100664259Y-152330833D02*
X100740450Y-152254643D01*
X100740450Y-152254643D02*
X100778545Y-152140357D01*
X100778545Y-152140357D02*
X100778545Y-152064166D01*
X100778545Y-152064166D02*
X100740450Y-151949881D01*
X100740450Y-151949881D02*
X100702354Y-151911785D01*
X100702354Y-151911785D02*
X100435688Y-151911785D01*
X100435688Y-151911785D02*
X100435688Y-152064166D01*
X100778545Y-151568928D02*
X99978545Y-151568928D01*
X99978545Y-151568928D02*
X99978545Y-151264166D01*
X99978545Y-151264166D02*
X100016640Y-151187976D01*
X100016640Y-151187976D02*
X100054735Y-151149881D01*
X100054735Y-151149881D02*
X100130926Y-151111785D01*
X100130926Y-151111785D02*
X100245211Y-151111785D01*
X100245211Y-151111785D02*
X100321402Y-151149881D01*
X100321402Y-151149881D02*
X100359497Y-151187976D01*
X100359497Y-151187976D02*
X100397592Y-151264166D01*
X100397592Y-151264166D02*
X100397592Y-151568928D01*
X100778545Y-150349881D02*
X100778545Y-150807024D01*
X100778545Y-150578452D02*
X99978545Y-150578452D01*
X99978545Y-150578452D02*
X100092830Y-150654643D01*
X100092830Y-150654643D02*
X100169021Y-150730833D01*
X100169021Y-150730833D02*
X100207116Y-150807024D01*
X100245211Y-149664166D02*
X100778545Y-149664166D01*
X99940450Y-149854642D02*
X100511878Y-150045119D01*
X100511878Y-150045119D02*
X100511878Y-149549880D01*
X54258545Y-163944166D02*
X55058545Y-163677499D01*
X55058545Y-163677499D02*
X54258545Y-163410833D01*
X54639497Y-162877500D02*
X54677592Y-162763214D01*
X54677592Y-162763214D02*
X54715688Y-162725119D01*
X54715688Y-162725119D02*
X54791878Y-162687023D01*
X54791878Y-162687023D02*
X54906164Y-162687023D01*
X54906164Y-162687023D02*
X54982354Y-162725119D01*
X54982354Y-162725119D02*
X55020450Y-162763214D01*
X55020450Y-162763214D02*
X55058545Y-162839404D01*
X55058545Y-162839404D02*
X55058545Y-163144166D01*
X55058545Y-163144166D02*
X54258545Y-163144166D01*
X54258545Y-163144166D02*
X54258545Y-162877500D01*
X54258545Y-162877500D02*
X54296640Y-162801309D01*
X54296640Y-162801309D02*
X54334735Y-162763214D01*
X54334735Y-162763214D02*
X54410926Y-162725119D01*
X54410926Y-162725119D02*
X54487116Y-162725119D01*
X54487116Y-162725119D02*
X54563307Y-162763214D01*
X54563307Y-162763214D02*
X54601402Y-162801309D01*
X54601402Y-162801309D02*
X54639497Y-162877500D01*
X54639497Y-162877500D02*
X54639497Y-163144166D01*
X54258545Y-162344166D02*
X54906164Y-162344166D01*
X54906164Y-162344166D02*
X54982354Y-162306071D01*
X54982354Y-162306071D02*
X55020450Y-162267976D01*
X55020450Y-162267976D02*
X55058545Y-162191785D01*
X55058545Y-162191785D02*
X55058545Y-162039404D01*
X55058545Y-162039404D02*
X55020450Y-161963214D01*
X55020450Y-161963214D02*
X54982354Y-161925119D01*
X54982354Y-161925119D02*
X54906164Y-161887023D01*
X54906164Y-161887023D02*
X54258545Y-161887023D01*
X55020450Y-161544167D02*
X55058545Y-161429881D01*
X55058545Y-161429881D02*
X55058545Y-161239405D01*
X55058545Y-161239405D02*
X55020450Y-161163214D01*
X55020450Y-161163214D02*
X54982354Y-161125119D01*
X54982354Y-161125119D02*
X54906164Y-161087024D01*
X54906164Y-161087024D02*
X54829973Y-161087024D01*
X54829973Y-161087024D02*
X54753783Y-161125119D01*
X54753783Y-161125119D02*
X54715688Y-161163214D01*
X54715688Y-161163214D02*
X54677592Y-161239405D01*
X54677592Y-161239405D02*
X54639497Y-161391786D01*
X54639497Y-161391786D02*
X54601402Y-161467976D01*
X54601402Y-161467976D02*
X54563307Y-161506071D01*
X54563307Y-161506071D02*
X54487116Y-161544167D01*
X54487116Y-161544167D02*
X54410926Y-161544167D01*
X54410926Y-161544167D02*
X54334735Y-161506071D01*
X54334735Y-161506071D02*
X54296640Y-161467976D01*
X54296640Y-161467976D02*
X54258545Y-161391786D01*
X54258545Y-161391786D02*
X54258545Y-161201309D01*
X54258545Y-161201309D02*
X54296640Y-161087024D01*
X87316640Y-151949881D02*
X87278545Y-152026071D01*
X87278545Y-152026071D02*
X87278545Y-152140357D01*
X87278545Y-152140357D02*
X87316640Y-152254643D01*
X87316640Y-152254643D02*
X87392830Y-152330833D01*
X87392830Y-152330833D02*
X87469021Y-152368928D01*
X87469021Y-152368928D02*
X87621402Y-152407024D01*
X87621402Y-152407024D02*
X87735688Y-152407024D01*
X87735688Y-152407024D02*
X87888069Y-152368928D01*
X87888069Y-152368928D02*
X87964259Y-152330833D01*
X87964259Y-152330833D02*
X88040450Y-152254643D01*
X88040450Y-152254643D02*
X88078545Y-152140357D01*
X88078545Y-152140357D02*
X88078545Y-152064166D01*
X88078545Y-152064166D02*
X88040450Y-151949881D01*
X88040450Y-151949881D02*
X88002354Y-151911785D01*
X88002354Y-151911785D02*
X87735688Y-151911785D01*
X87735688Y-151911785D02*
X87735688Y-152064166D01*
X88078545Y-151568928D02*
X87278545Y-151568928D01*
X87278545Y-151568928D02*
X87278545Y-151264166D01*
X87278545Y-151264166D02*
X87316640Y-151187976D01*
X87316640Y-151187976D02*
X87354735Y-151149881D01*
X87354735Y-151149881D02*
X87430926Y-151111785D01*
X87430926Y-151111785D02*
X87545211Y-151111785D01*
X87545211Y-151111785D02*
X87621402Y-151149881D01*
X87621402Y-151149881D02*
X87659497Y-151187976D01*
X87659497Y-151187976D02*
X87697592Y-151264166D01*
X87697592Y-151264166D02*
X87697592Y-151568928D01*
X88078545Y-150349881D02*
X88078545Y-150807024D01*
X88078545Y-150578452D02*
X87278545Y-150578452D01*
X87278545Y-150578452D02*
X87392830Y-150654643D01*
X87392830Y-150654643D02*
X87469021Y-150730833D01*
X87469021Y-150730833D02*
X87507116Y-150807024D01*
X87278545Y-149854642D02*
X87278545Y-149778452D01*
X87278545Y-149778452D02*
X87316640Y-149702261D01*
X87316640Y-149702261D02*
X87354735Y-149664166D01*
X87354735Y-149664166D02*
X87430926Y-149626071D01*
X87430926Y-149626071D02*
X87583307Y-149587976D01*
X87583307Y-149587976D02*
X87773783Y-149587976D01*
X87773783Y-149587976D02*
X87926164Y-149626071D01*
X87926164Y-149626071D02*
X88002354Y-149664166D01*
X88002354Y-149664166D02*
X88040450Y-149702261D01*
X88040450Y-149702261D02*
X88078545Y-149778452D01*
X88078545Y-149778452D02*
X88078545Y-149854642D01*
X88078545Y-149854642D02*
X88040450Y-149930833D01*
X88040450Y-149930833D02*
X88002354Y-149968928D01*
X88002354Y-149968928D02*
X87926164Y-150007023D01*
X87926164Y-150007023D02*
X87773783Y-150045119D01*
X87773783Y-150045119D02*
X87583307Y-150045119D01*
X87583307Y-150045119D02*
X87430926Y-150007023D01*
X87430926Y-150007023D02*
X87354735Y-149968928D01*
X87354735Y-149968928D02*
X87316640Y-149930833D01*
X87316640Y-149930833D02*
X87278545Y-149854642D01*
X64456640Y-151218928D02*
X64418545Y-151295118D01*
X64418545Y-151295118D02*
X64418545Y-151409404D01*
X64418545Y-151409404D02*
X64456640Y-151523690D01*
X64456640Y-151523690D02*
X64532830Y-151599880D01*
X64532830Y-151599880D02*
X64609021Y-151637975D01*
X64609021Y-151637975D02*
X64761402Y-151676071D01*
X64761402Y-151676071D02*
X64875688Y-151676071D01*
X64875688Y-151676071D02*
X65028069Y-151637975D01*
X65028069Y-151637975D02*
X65104259Y-151599880D01*
X65104259Y-151599880D02*
X65180450Y-151523690D01*
X65180450Y-151523690D02*
X65218545Y-151409404D01*
X65218545Y-151409404D02*
X65218545Y-151333213D01*
X65218545Y-151333213D02*
X65180450Y-151218928D01*
X65180450Y-151218928D02*
X65142354Y-151180832D01*
X65142354Y-151180832D02*
X64875688Y-151180832D01*
X64875688Y-151180832D02*
X64875688Y-151333213D01*
X65218545Y-150837975D02*
X64418545Y-150837975D01*
X64418545Y-150837975D02*
X64418545Y-150533213D01*
X64418545Y-150533213D02*
X64456640Y-150457023D01*
X64456640Y-150457023D02*
X64494735Y-150418928D01*
X64494735Y-150418928D02*
X64570926Y-150380832D01*
X64570926Y-150380832D02*
X64685211Y-150380832D01*
X64685211Y-150380832D02*
X64761402Y-150418928D01*
X64761402Y-150418928D02*
X64799497Y-150457023D01*
X64799497Y-150457023D02*
X64837592Y-150533213D01*
X64837592Y-150533213D02*
X64837592Y-150837975D01*
X64418545Y-150114166D02*
X64418545Y-149618928D01*
X64418545Y-149618928D02*
X64723307Y-149885594D01*
X64723307Y-149885594D02*
X64723307Y-149771309D01*
X64723307Y-149771309D02*
X64761402Y-149695118D01*
X64761402Y-149695118D02*
X64799497Y-149657023D01*
X64799497Y-149657023D02*
X64875688Y-149618928D01*
X64875688Y-149618928D02*
X65066164Y-149618928D01*
X65066164Y-149618928D02*
X65142354Y-149657023D01*
X65142354Y-149657023D02*
X65180450Y-149695118D01*
X65180450Y-149695118D02*
X65218545Y-149771309D01*
X65218545Y-149771309D02*
X65218545Y-149999880D01*
X65218545Y-149999880D02*
X65180450Y-150076071D01*
X65180450Y-150076071D02*
X65142354Y-150114166D01*
X87326640Y-163179881D02*
X87288545Y-163256071D01*
X87288545Y-163256071D02*
X87288545Y-163370357D01*
X87288545Y-163370357D02*
X87326640Y-163484643D01*
X87326640Y-163484643D02*
X87402830Y-163560833D01*
X87402830Y-163560833D02*
X87479021Y-163598928D01*
X87479021Y-163598928D02*
X87631402Y-163637024D01*
X87631402Y-163637024D02*
X87745688Y-163637024D01*
X87745688Y-163637024D02*
X87898069Y-163598928D01*
X87898069Y-163598928D02*
X87974259Y-163560833D01*
X87974259Y-163560833D02*
X88050450Y-163484643D01*
X88050450Y-163484643D02*
X88088545Y-163370357D01*
X88088545Y-163370357D02*
X88088545Y-163294166D01*
X88088545Y-163294166D02*
X88050450Y-163179881D01*
X88050450Y-163179881D02*
X88012354Y-163141785D01*
X88012354Y-163141785D02*
X87745688Y-163141785D01*
X87745688Y-163141785D02*
X87745688Y-163294166D01*
X88088545Y-162798928D02*
X87288545Y-162798928D01*
X87288545Y-162798928D02*
X87288545Y-162494166D01*
X87288545Y-162494166D02*
X87326640Y-162417976D01*
X87326640Y-162417976D02*
X87364735Y-162379881D01*
X87364735Y-162379881D02*
X87440926Y-162341785D01*
X87440926Y-162341785D02*
X87555211Y-162341785D01*
X87555211Y-162341785D02*
X87631402Y-162379881D01*
X87631402Y-162379881D02*
X87669497Y-162417976D01*
X87669497Y-162417976D02*
X87707592Y-162494166D01*
X87707592Y-162494166D02*
X87707592Y-162798928D01*
X87364735Y-162037024D02*
X87326640Y-161998928D01*
X87326640Y-161998928D02*
X87288545Y-161922738D01*
X87288545Y-161922738D02*
X87288545Y-161732262D01*
X87288545Y-161732262D02*
X87326640Y-161656071D01*
X87326640Y-161656071D02*
X87364735Y-161617976D01*
X87364735Y-161617976D02*
X87440926Y-161579881D01*
X87440926Y-161579881D02*
X87517116Y-161579881D01*
X87517116Y-161579881D02*
X87631402Y-161617976D01*
X87631402Y-161617976D02*
X88088545Y-162075119D01*
X88088545Y-162075119D02*
X88088545Y-161579881D01*
X88088545Y-160817976D02*
X88088545Y-161275119D01*
X88088545Y-161046547D02*
X87288545Y-161046547D01*
X87288545Y-161046547D02*
X87402830Y-161122738D01*
X87402830Y-161122738D02*
X87479021Y-161198928D01*
X87479021Y-161198928D02*
X87517116Y-161275119D01*
X54296640Y-151218928D02*
X54258545Y-151295118D01*
X54258545Y-151295118D02*
X54258545Y-151409404D01*
X54258545Y-151409404D02*
X54296640Y-151523690D01*
X54296640Y-151523690D02*
X54372830Y-151599880D01*
X54372830Y-151599880D02*
X54449021Y-151637975D01*
X54449021Y-151637975D02*
X54601402Y-151676071D01*
X54601402Y-151676071D02*
X54715688Y-151676071D01*
X54715688Y-151676071D02*
X54868069Y-151637975D01*
X54868069Y-151637975D02*
X54944259Y-151599880D01*
X54944259Y-151599880D02*
X55020450Y-151523690D01*
X55020450Y-151523690D02*
X55058545Y-151409404D01*
X55058545Y-151409404D02*
X55058545Y-151333213D01*
X55058545Y-151333213D02*
X55020450Y-151218928D01*
X55020450Y-151218928D02*
X54982354Y-151180832D01*
X54982354Y-151180832D02*
X54715688Y-151180832D01*
X54715688Y-151180832D02*
X54715688Y-151333213D01*
X55058545Y-150837975D02*
X54258545Y-150837975D01*
X54258545Y-150837975D02*
X54258545Y-150533213D01*
X54258545Y-150533213D02*
X54296640Y-150457023D01*
X54296640Y-150457023D02*
X54334735Y-150418928D01*
X54334735Y-150418928D02*
X54410926Y-150380832D01*
X54410926Y-150380832D02*
X54525211Y-150380832D01*
X54525211Y-150380832D02*
X54601402Y-150418928D01*
X54601402Y-150418928D02*
X54639497Y-150457023D01*
X54639497Y-150457023D02*
X54677592Y-150533213D01*
X54677592Y-150533213D02*
X54677592Y-150837975D01*
X54258545Y-149885594D02*
X54258545Y-149809404D01*
X54258545Y-149809404D02*
X54296640Y-149733213D01*
X54296640Y-149733213D02*
X54334735Y-149695118D01*
X54334735Y-149695118D02*
X54410926Y-149657023D01*
X54410926Y-149657023D02*
X54563307Y-149618928D01*
X54563307Y-149618928D02*
X54753783Y-149618928D01*
X54753783Y-149618928D02*
X54906164Y-149657023D01*
X54906164Y-149657023D02*
X54982354Y-149695118D01*
X54982354Y-149695118D02*
X55020450Y-149733213D01*
X55020450Y-149733213D02*
X55058545Y-149809404D01*
X55058545Y-149809404D02*
X55058545Y-149885594D01*
X55058545Y-149885594D02*
X55020450Y-149961785D01*
X55020450Y-149961785D02*
X54982354Y-149999880D01*
X54982354Y-149999880D02*
X54906164Y-150037975D01*
X54906164Y-150037975D02*
X54753783Y-150076071D01*
X54753783Y-150076071D02*
X54563307Y-150076071D01*
X54563307Y-150076071D02*
X54410926Y-150037975D01*
X54410926Y-150037975D02*
X54334735Y-149999880D01*
X54334735Y-149999880D02*
X54296640Y-149961785D01*
X54296640Y-149961785D02*
X54258545Y-149885594D01*
X97476640Y-163187023D02*
X97438545Y-163263213D01*
X97438545Y-163263213D02*
X97438545Y-163377499D01*
X97438545Y-163377499D02*
X97476640Y-163491785D01*
X97476640Y-163491785D02*
X97552830Y-163567975D01*
X97552830Y-163567975D02*
X97629021Y-163606070D01*
X97629021Y-163606070D02*
X97781402Y-163644166D01*
X97781402Y-163644166D02*
X97895688Y-163644166D01*
X97895688Y-163644166D02*
X98048069Y-163606070D01*
X98048069Y-163606070D02*
X98124259Y-163567975D01*
X98124259Y-163567975D02*
X98200450Y-163491785D01*
X98200450Y-163491785D02*
X98238545Y-163377499D01*
X98238545Y-163377499D02*
X98238545Y-163301308D01*
X98238545Y-163301308D02*
X98200450Y-163187023D01*
X98200450Y-163187023D02*
X98162354Y-163148927D01*
X98162354Y-163148927D02*
X97895688Y-163148927D01*
X97895688Y-163148927D02*
X97895688Y-163301308D01*
X98238545Y-162806070D02*
X97438545Y-162806070D01*
X97438545Y-162806070D02*
X98238545Y-162348927D01*
X98238545Y-162348927D02*
X97438545Y-162348927D01*
X98238545Y-161967975D02*
X97438545Y-161967975D01*
X97438545Y-161967975D02*
X97438545Y-161777499D01*
X97438545Y-161777499D02*
X97476640Y-161663213D01*
X97476640Y-161663213D02*
X97552830Y-161587023D01*
X97552830Y-161587023D02*
X97629021Y-161548928D01*
X97629021Y-161548928D02*
X97781402Y-161510832D01*
X97781402Y-161510832D02*
X97895688Y-161510832D01*
X97895688Y-161510832D02*
X98048069Y-161548928D01*
X98048069Y-161548928D02*
X98124259Y-161587023D01*
X98124259Y-161587023D02*
X98200450Y-161663213D01*
X98200450Y-161663213D02*
X98238545Y-161777499D01*
X98238545Y-161777499D02*
X98238545Y-161967975D01*
X72076640Y-151257023D02*
X72038545Y-151333213D01*
X72038545Y-151333213D02*
X72038545Y-151447499D01*
X72038545Y-151447499D02*
X72076640Y-151561785D01*
X72076640Y-151561785D02*
X72152830Y-151637975D01*
X72152830Y-151637975D02*
X72229021Y-151676070D01*
X72229021Y-151676070D02*
X72381402Y-151714166D01*
X72381402Y-151714166D02*
X72495688Y-151714166D01*
X72495688Y-151714166D02*
X72648069Y-151676070D01*
X72648069Y-151676070D02*
X72724259Y-151637975D01*
X72724259Y-151637975D02*
X72800450Y-151561785D01*
X72800450Y-151561785D02*
X72838545Y-151447499D01*
X72838545Y-151447499D02*
X72838545Y-151371308D01*
X72838545Y-151371308D02*
X72800450Y-151257023D01*
X72800450Y-151257023D02*
X72762354Y-151218927D01*
X72762354Y-151218927D02*
X72495688Y-151218927D01*
X72495688Y-151218927D02*
X72495688Y-151371308D01*
X72838545Y-150876070D02*
X72038545Y-150876070D01*
X72038545Y-150876070D02*
X72838545Y-150418927D01*
X72838545Y-150418927D02*
X72038545Y-150418927D01*
X72838545Y-150037975D02*
X72038545Y-150037975D01*
X72038545Y-150037975D02*
X72038545Y-149847499D01*
X72038545Y-149847499D02*
X72076640Y-149733213D01*
X72076640Y-149733213D02*
X72152830Y-149657023D01*
X72152830Y-149657023D02*
X72229021Y-149618928D01*
X72229021Y-149618928D02*
X72381402Y-149580832D01*
X72381402Y-149580832D02*
X72495688Y-149580832D01*
X72495688Y-149580832D02*
X72648069Y-149618928D01*
X72648069Y-149618928D02*
X72724259Y-149657023D01*
X72724259Y-149657023D02*
X72800450Y-149733213D01*
X72800450Y-149733213D02*
X72838545Y-149847499D01*
X72838545Y-149847499D02*
X72838545Y-150037975D01*
X80458545Y-163167975D02*
X80077592Y-163434642D01*
X80458545Y-163625118D02*
X79658545Y-163625118D01*
X79658545Y-163625118D02*
X79658545Y-163320356D01*
X79658545Y-163320356D02*
X79696640Y-163244166D01*
X79696640Y-163244166D02*
X79734735Y-163206071D01*
X79734735Y-163206071D02*
X79810926Y-163167975D01*
X79810926Y-163167975D02*
X79925211Y-163167975D01*
X79925211Y-163167975D02*
X80001402Y-163206071D01*
X80001402Y-163206071D02*
X80039497Y-163244166D01*
X80039497Y-163244166D02*
X80077592Y-163320356D01*
X80077592Y-163320356D02*
X80077592Y-163625118D01*
X79658545Y-162825118D02*
X80306164Y-162825118D01*
X80306164Y-162825118D02*
X80382354Y-162787023D01*
X80382354Y-162787023D02*
X80420450Y-162748928D01*
X80420450Y-162748928D02*
X80458545Y-162672737D01*
X80458545Y-162672737D02*
X80458545Y-162520356D01*
X80458545Y-162520356D02*
X80420450Y-162444166D01*
X80420450Y-162444166D02*
X80382354Y-162406071D01*
X80382354Y-162406071D02*
X80306164Y-162367975D01*
X80306164Y-162367975D02*
X79658545Y-162367975D01*
X80458545Y-161987023D02*
X79658545Y-161987023D01*
X79658545Y-161987023D02*
X80458545Y-161529880D01*
X80458545Y-161529880D02*
X79658545Y-161529880D01*
X59376640Y-163337023D02*
X59338545Y-163413213D01*
X59338545Y-163413213D02*
X59338545Y-163527499D01*
X59338545Y-163527499D02*
X59376640Y-163641785D01*
X59376640Y-163641785D02*
X59452830Y-163717975D01*
X59452830Y-163717975D02*
X59529021Y-163756070D01*
X59529021Y-163756070D02*
X59681402Y-163794166D01*
X59681402Y-163794166D02*
X59795688Y-163794166D01*
X59795688Y-163794166D02*
X59948069Y-163756070D01*
X59948069Y-163756070D02*
X60024259Y-163717975D01*
X60024259Y-163717975D02*
X60100450Y-163641785D01*
X60100450Y-163641785D02*
X60138545Y-163527499D01*
X60138545Y-163527499D02*
X60138545Y-163451308D01*
X60138545Y-163451308D02*
X60100450Y-163337023D01*
X60100450Y-163337023D02*
X60062354Y-163298927D01*
X60062354Y-163298927D02*
X59795688Y-163298927D01*
X59795688Y-163298927D02*
X59795688Y-163451308D01*
X60138545Y-162956070D02*
X59338545Y-162956070D01*
X59338545Y-162956070D02*
X60138545Y-162498927D01*
X60138545Y-162498927D02*
X59338545Y-162498927D01*
X60138545Y-162117975D02*
X59338545Y-162117975D01*
X59338545Y-162117975D02*
X59338545Y-161927499D01*
X59338545Y-161927499D02*
X59376640Y-161813213D01*
X59376640Y-161813213D02*
X59452830Y-161737023D01*
X59452830Y-161737023D02*
X59529021Y-161698928D01*
X59529021Y-161698928D02*
X59681402Y-161660832D01*
X59681402Y-161660832D02*
X59795688Y-161660832D01*
X59795688Y-161660832D02*
X59948069Y-161698928D01*
X59948069Y-161698928D02*
X60024259Y-161737023D01*
X60024259Y-161737023D02*
X60100450Y-161813213D01*
X60100450Y-161813213D02*
X60138545Y-161927499D01*
X60138545Y-161927499D02*
X60138545Y-162117975D01*
X94936640Y-151949881D02*
X94898545Y-152026071D01*
X94898545Y-152026071D02*
X94898545Y-152140357D01*
X94898545Y-152140357D02*
X94936640Y-152254643D01*
X94936640Y-152254643D02*
X95012830Y-152330833D01*
X95012830Y-152330833D02*
X95089021Y-152368928D01*
X95089021Y-152368928D02*
X95241402Y-152407024D01*
X95241402Y-152407024D02*
X95355688Y-152407024D01*
X95355688Y-152407024D02*
X95508069Y-152368928D01*
X95508069Y-152368928D02*
X95584259Y-152330833D01*
X95584259Y-152330833D02*
X95660450Y-152254643D01*
X95660450Y-152254643D02*
X95698545Y-152140357D01*
X95698545Y-152140357D02*
X95698545Y-152064166D01*
X95698545Y-152064166D02*
X95660450Y-151949881D01*
X95660450Y-151949881D02*
X95622354Y-151911785D01*
X95622354Y-151911785D02*
X95355688Y-151911785D01*
X95355688Y-151911785D02*
X95355688Y-152064166D01*
X95698545Y-151568928D02*
X94898545Y-151568928D01*
X94898545Y-151568928D02*
X94898545Y-151264166D01*
X94898545Y-151264166D02*
X94936640Y-151187976D01*
X94936640Y-151187976D02*
X94974735Y-151149881D01*
X94974735Y-151149881D02*
X95050926Y-151111785D01*
X95050926Y-151111785D02*
X95165211Y-151111785D01*
X95165211Y-151111785D02*
X95241402Y-151149881D01*
X95241402Y-151149881D02*
X95279497Y-151187976D01*
X95279497Y-151187976D02*
X95317592Y-151264166D01*
X95317592Y-151264166D02*
X95317592Y-151568928D01*
X95698545Y-150349881D02*
X95698545Y-150807024D01*
X95698545Y-150578452D02*
X94898545Y-150578452D01*
X94898545Y-150578452D02*
X95012830Y-150654643D01*
X95012830Y-150654643D02*
X95089021Y-150730833D01*
X95089021Y-150730833D02*
X95127116Y-150807024D01*
X94898545Y-150083214D02*
X94898545Y-149587976D01*
X94898545Y-149587976D02*
X95203307Y-149854642D01*
X95203307Y-149854642D02*
X95203307Y-149740357D01*
X95203307Y-149740357D02*
X95241402Y-149664166D01*
X95241402Y-149664166D02*
X95279497Y-149626071D01*
X95279497Y-149626071D02*
X95355688Y-149587976D01*
X95355688Y-149587976D02*
X95546164Y-149587976D01*
X95546164Y-149587976D02*
X95622354Y-149626071D01*
X95622354Y-149626071D02*
X95660450Y-149664166D01*
X95660450Y-149664166D02*
X95698545Y-149740357D01*
X95698545Y-149740357D02*
X95698545Y-149968928D01*
X95698545Y-149968928D02*
X95660450Y-150045119D01*
X95660450Y-150045119D02*
X95622354Y-150083214D01*
X56826640Y-151218928D02*
X56788545Y-151295118D01*
X56788545Y-151295118D02*
X56788545Y-151409404D01*
X56788545Y-151409404D02*
X56826640Y-151523690D01*
X56826640Y-151523690D02*
X56902830Y-151599880D01*
X56902830Y-151599880D02*
X56979021Y-151637975D01*
X56979021Y-151637975D02*
X57131402Y-151676071D01*
X57131402Y-151676071D02*
X57245688Y-151676071D01*
X57245688Y-151676071D02*
X57398069Y-151637975D01*
X57398069Y-151637975D02*
X57474259Y-151599880D01*
X57474259Y-151599880D02*
X57550450Y-151523690D01*
X57550450Y-151523690D02*
X57588545Y-151409404D01*
X57588545Y-151409404D02*
X57588545Y-151333213D01*
X57588545Y-151333213D02*
X57550450Y-151218928D01*
X57550450Y-151218928D02*
X57512354Y-151180832D01*
X57512354Y-151180832D02*
X57245688Y-151180832D01*
X57245688Y-151180832D02*
X57245688Y-151333213D01*
X57588545Y-150837975D02*
X56788545Y-150837975D01*
X56788545Y-150837975D02*
X56788545Y-150533213D01*
X56788545Y-150533213D02*
X56826640Y-150457023D01*
X56826640Y-150457023D02*
X56864735Y-150418928D01*
X56864735Y-150418928D02*
X56940926Y-150380832D01*
X56940926Y-150380832D02*
X57055211Y-150380832D01*
X57055211Y-150380832D02*
X57131402Y-150418928D01*
X57131402Y-150418928D02*
X57169497Y-150457023D01*
X57169497Y-150457023D02*
X57207592Y-150533213D01*
X57207592Y-150533213D02*
X57207592Y-150837975D01*
X57588545Y-149618928D02*
X57588545Y-150076071D01*
X57588545Y-149847499D02*
X56788545Y-149847499D01*
X56788545Y-149847499D02*
X56902830Y-149923690D01*
X56902830Y-149923690D02*
X56979021Y-149999880D01*
X56979021Y-149999880D02*
X57017116Y-150076071D01*
X72609973Y-163637023D02*
X72609973Y-163256070D01*
X72838545Y-163713213D02*
X72038545Y-163446546D01*
X72038545Y-163446546D02*
X72838545Y-163179880D01*
X72076640Y-162494166D02*
X72038545Y-162570356D01*
X72038545Y-162570356D02*
X72038545Y-162684642D01*
X72038545Y-162684642D02*
X72076640Y-162798928D01*
X72076640Y-162798928D02*
X72152830Y-162875118D01*
X72152830Y-162875118D02*
X72229021Y-162913213D01*
X72229021Y-162913213D02*
X72381402Y-162951309D01*
X72381402Y-162951309D02*
X72495688Y-162951309D01*
X72495688Y-162951309D02*
X72648069Y-162913213D01*
X72648069Y-162913213D02*
X72724259Y-162875118D01*
X72724259Y-162875118D02*
X72800450Y-162798928D01*
X72800450Y-162798928D02*
X72838545Y-162684642D01*
X72838545Y-162684642D02*
X72838545Y-162608451D01*
X72838545Y-162608451D02*
X72800450Y-162494166D01*
X72800450Y-162494166D02*
X72762354Y-162456070D01*
X72762354Y-162456070D02*
X72495688Y-162456070D01*
X72495688Y-162456070D02*
X72495688Y-162608451D01*
X72838545Y-162113213D02*
X72038545Y-162113213D01*
X72038545Y-162113213D02*
X72838545Y-161656070D01*
X72838545Y-161656070D02*
X72038545Y-161656070D01*
X72838545Y-161275118D02*
X72038545Y-161275118D01*
X72038545Y-161275118D02*
X72038545Y-161084642D01*
X72038545Y-161084642D02*
X72076640Y-160970356D01*
X72076640Y-160970356D02*
X72152830Y-160894166D01*
X72152830Y-160894166D02*
X72229021Y-160856071D01*
X72229021Y-160856071D02*
X72381402Y-160817975D01*
X72381402Y-160817975D02*
X72495688Y-160817975D01*
X72495688Y-160817975D02*
X72648069Y-160856071D01*
X72648069Y-160856071D02*
X72724259Y-160894166D01*
X72724259Y-160894166D02*
X72800450Y-160970356D01*
X72800450Y-160970356D02*
X72838545Y-161084642D01*
X72838545Y-161084642D02*
X72838545Y-161275118D01*
X99216726Y-156287890D02*
X99140536Y-156249795D01*
X99140536Y-156249795D02*
X99026250Y-156249795D01*
X99026250Y-156249795D02*
X98911964Y-156287890D01*
X98911964Y-156287890D02*
X98835774Y-156364080D01*
X98835774Y-156364080D02*
X98797679Y-156440271D01*
X98797679Y-156440271D02*
X98759583Y-156592652D01*
X98759583Y-156592652D02*
X98759583Y-156706938D01*
X98759583Y-156706938D02*
X98797679Y-156859319D01*
X98797679Y-156859319D02*
X98835774Y-156935509D01*
X98835774Y-156935509D02*
X98911964Y-157011700D01*
X98911964Y-157011700D02*
X99026250Y-157049795D01*
X99026250Y-157049795D02*
X99102441Y-157049795D01*
X99102441Y-157049795D02*
X99216726Y-157011700D01*
X99216726Y-157011700D02*
X99254822Y-156973604D01*
X99254822Y-156973604D02*
X99254822Y-156706938D01*
X99254822Y-156706938D02*
X99102441Y-156706938D01*
X99597679Y-157049795D02*
X99597679Y-156249795D01*
X99597679Y-156249795D02*
X100054822Y-157049795D01*
X100054822Y-157049795D02*
X100054822Y-156249795D01*
X100435774Y-157049795D02*
X100435774Y-156249795D01*
X100435774Y-156249795D02*
X100626250Y-156249795D01*
X100626250Y-156249795D02*
X100740536Y-156287890D01*
X100740536Y-156287890D02*
X100816726Y-156364080D01*
X100816726Y-156364080D02*
X100854821Y-156440271D01*
X100854821Y-156440271D02*
X100892917Y-156592652D01*
X100892917Y-156592652D02*
X100892917Y-156706938D01*
X100892917Y-156706938D02*
X100854821Y-156859319D01*
X100854821Y-156859319D02*
X100816726Y-156935509D01*
X100816726Y-156935509D02*
X100740536Y-157011700D01*
X100740536Y-157011700D02*
X100626250Y-157049795D01*
X100626250Y-157049795D02*
X100435774Y-157049795D01*
X100016640Y-163179881D02*
X99978545Y-163256071D01*
X99978545Y-163256071D02*
X99978545Y-163370357D01*
X99978545Y-163370357D02*
X100016640Y-163484643D01*
X100016640Y-163484643D02*
X100092830Y-163560833D01*
X100092830Y-163560833D02*
X100169021Y-163598928D01*
X100169021Y-163598928D02*
X100321402Y-163637024D01*
X100321402Y-163637024D02*
X100435688Y-163637024D01*
X100435688Y-163637024D02*
X100588069Y-163598928D01*
X100588069Y-163598928D02*
X100664259Y-163560833D01*
X100664259Y-163560833D02*
X100740450Y-163484643D01*
X100740450Y-163484643D02*
X100778545Y-163370357D01*
X100778545Y-163370357D02*
X100778545Y-163294166D01*
X100778545Y-163294166D02*
X100740450Y-163179881D01*
X100740450Y-163179881D02*
X100702354Y-163141785D01*
X100702354Y-163141785D02*
X100435688Y-163141785D01*
X100435688Y-163141785D02*
X100435688Y-163294166D01*
X100778545Y-162798928D02*
X99978545Y-162798928D01*
X99978545Y-162798928D02*
X99978545Y-162494166D01*
X99978545Y-162494166D02*
X100016640Y-162417976D01*
X100016640Y-162417976D02*
X100054735Y-162379881D01*
X100054735Y-162379881D02*
X100130926Y-162341785D01*
X100130926Y-162341785D02*
X100245211Y-162341785D01*
X100245211Y-162341785D02*
X100321402Y-162379881D01*
X100321402Y-162379881D02*
X100359497Y-162417976D01*
X100359497Y-162417976D02*
X100397592Y-162494166D01*
X100397592Y-162494166D02*
X100397592Y-162798928D01*
X100778545Y-161579881D02*
X100778545Y-162037024D01*
X100778545Y-161808452D02*
X99978545Y-161808452D01*
X99978545Y-161808452D02*
X100092830Y-161884643D01*
X100092830Y-161884643D02*
X100169021Y-161960833D01*
X100169021Y-161960833D02*
X100207116Y-162037024D01*
X99978545Y-161313214D02*
X99978545Y-160779880D01*
X99978545Y-160779880D02*
X100778545Y-161122738D01*
X84776640Y-151257023D02*
X84738545Y-151333213D01*
X84738545Y-151333213D02*
X84738545Y-151447499D01*
X84738545Y-151447499D02*
X84776640Y-151561785D01*
X84776640Y-151561785D02*
X84852830Y-151637975D01*
X84852830Y-151637975D02*
X84929021Y-151676070D01*
X84929021Y-151676070D02*
X85081402Y-151714166D01*
X85081402Y-151714166D02*
X85195688Y-151714166D01*
X85195688Y-151714166D02*
X85348069Y-151676070D01*
X85348069Y-151676070D02*
X85424259Y-151637975D01*
X85424259Y-151637975D02*
X85500450Y-151561785D01*
X85500450Y-151561785D02*
X85538545Y-151447499D01*
X85538545Y-151447499D02*
X85538545Y-151371308D01*
X85538545Y-151371308D02*
X85500450Y-151257023D01*
X85500450Y-151257023D02*
X85462354Y-151218927D01*
X85462354Y-151218927D02*
X85195688Y-151218927D01*
X85195688Y-151218927D02*
X85195688Y-151371308D01*
X85538545Y-150876070D02*
X84738545Y-150876070D01*
X84738545Y-150876070D02*
X85538545Y-150418927D01*
X85538545Y-150418927D02*
X84738545Y-150418927D01*
X85538545Y-150037975D02*
X84738545Y-150037975D01*
X84738545Y-150037975D02*
X84738545Y-149847499D01*
X84738545Y-149847499D02*
X84776640Y-149733213D01*
X84776640Y-149733213D02*
X84852830Y-149657023D01*
X84852830Y-149657023D02*
X84929021Y-149618928D01*
X84929021Y-149618928D02*
X85081402Y-149580832D01*
X85081402Y-149580832D02*
X85195688Y-149580832D01*
X85195688Y-149580832D02*
X85348069Y-149618928D01*
X85348069Y-149618928D02*
X85424259Y-149657023D01*
X85424259Y-149657023D02*
X85500450Y-149733213D01*
X85500450Y-149733213D02*
X85538545Y-149847499D01*
X85538545Y-149847499D02*
X85538545Y-150037975D01*
X56798545Y-163848928D02*
X57598545Y-163582261D01*
X57598545Y-163582261D02*
X56798545Y-163315595D01*
X57560450Y-163087024D02*
X57598545Y-162972738D01*
X57598545Y-162972738D02*
X57598545Y-162782262D01*
X57598545Y-162782262D02*
X57560450Y-162706071D01*
X57560450Y-162706071D02*
X57522354Y-162667976D01*
X57522354Y-162667976D02*
X57446164Y-162629881D01*
X57446164Y-162629881D02*
X57369973Y-162629881D01*
X57369973Y-162629881D02*
X57293783Y-162667976D01*
X57293783Y-162667976D02*
X57255688Y-162706071D01*
X57255688Y-162706071D02*
X57217592Y-162782262D01*
X57217592Y-162782262D02*
X57179497Y-162934643D01*
X57179497Y-162934643D02*
X57141402Y-163010833D01*
X57141402Y-163010833D02*
X57103307Y-163048928D01*
X57103307Y-163048928D02*
X57027116Y-163087024D01*
X57027116Y-163087024D02*
X56950926Y-163087024D01*
X56950926Y-163087024D02*
X56874735Y-163048928D01*
X56874735Y-163048928D02*
X56836640Y-163010833D01*
X56836640Y-163010833D02*
X56798545Y-162934643D01*
X56798545Y-162934643D02*
X56798545Y-162744166D01*
X56798545Y-162744166D02*
X56836640Y-162629881D01*
X57217592Y-162134642D02*
X57598545Y-162134642D01*
X56798545Y-162401309D02*
X57217592Y-162134642D01*
X57217592Y-162134642D02*
X56798545Y-161867976D01*
X57560450Y-161639405D02*
X57598545Y-161525119D01*
X57598545Y-161525119D02*
X57598545Y-161334643D01*
X57598545Y-161334643D02*
X57560450Y-161258452D01*
X57560450Y-161258452D02*
X57522354Y-161220357D01*
X57522354Y-161220357D02*
X57446164Y-161182262D01*
X57446164Y-161182262D02*
X57369973Y-161182262D01*
X57369973Y-161182262D02*
X57293783Y-161220357D01*
X57293783Y-161220357D02*
X57255688Y-161258452D01*
X57255688Y-161258452D02*
X57217592Y-161334643D01*
X57217592Y-161334643D02*
X57179497Y-161487024D01*
X57179497Y-161487024D02*
X57141402Y-161563214D01*
X57141402Y-161563214D02*
X57103307Y-161601309D01*
X57103307Y-161601309D02*
X57027116Y-161639405D01*
X57027116Y-161639405D02*
X56950926Y-161639405D01*
X56950926Y-161639405D02*
X56874735Y-161601309D01*
X56874735Y-161601309D02*
X56836640Y-161563214D01*
X56836640Y-161563214D02*
X56798545Y-161487024D01*
X56798545Y-161487024D02*
X56798545Y-161296547D01*
X56798545Y-161296547D02*
X56836640Y-161182262D01*
X82236640Y-163179881D02*
X82198545Y-163256071D01*
X82198545Y-163256071D02*
X82198545Y-163370357D01*
X82198545Y-163370357D02*
X82236640Y-163484643D01*
X82236640Y-163484643D02*
X82312830Y-163560833D01*
X82312830Y-163560833D02*
X82389021Y-163598928D01*
X82389021Y-163598928D02*
X82541402Y-163637024D01*
X82541402Y-163637024D02*
X82655688Y-163637024D01*
X82655688Y-163637024D02*
X82808069Y-163598928D01*
X82808069Y-163598928D02*
X82884259Y-163560833D01*
X82884259Y-163560833D02*
X82960450Y-163484643D01*
X82960450Y-163484643D02*
X82998545Y-163370357D01*
X82998545Y-163370357D02*
X82998545Y-163294166D01*
X82998545Y-163294166D02*
X82960450Y-163179881D01*
X82960450Y-163179881D02*
X82922354Y-163141785D01*
X82922354Y-163141785D02*
X82655688Y-163141785D01*
X82655688Y-163141785D02*
X82655688Y-163294166D01*
X82998545Y-162798928D02*
X82198545Y-162798928D01*
X82198545Y-162798928D02*
X82198545Y-162494166D01*
X82198545Y-162494166D02*
X82236640Y-162417976D01*
X82236640Y-162417976D02*
X82274735Y-162379881D01*
X82274735Y-162379881D02*
X82350926Y-162341785D01*
X82350926Y-162341785D02*
X82465211Y-162341785D01*
X82465211Y-162341785D02*
X82541402Y-162379881D01*
X82541402Y-162379881D02*
X82579497Y-162417976D01*
X82579497Y-162417976D02*
X82617592Y-162494166D01*
X82617592Y-162494166D02*
X82617592Y-162798928D01*
X82274735Y-162037024D02*
X82236640Y-161998928D01*
X82236640Y-161998928D02*
X82198545Y-161922738D01*
X82198545Y-161922738D02*
X82198545Y-161732262D01*
X82198545Y-161732262D02*
X82236640Y-161656071D01*
X82236640Y-161656071D02*
X82274735Y-161617976D01*
X82274735Y-161617976D02*
X82350926Y-161579881D01*
X82350926Y-161579881D02*
X82427116Y-161579881D01*
X82427116Y-161579881D02*
X82541402Y-161617976D01*
X82541402Y-161617976D02*
X82998545Y-162075119D01*
X82998545Y-162075119D02*
X82998545Y-161579881D01*
X82274735Y-161275119D02*
X82236640Y-161237023D01*
X82236640Y-161237023D02*
X82198545Y-161160833D01*
X82198545Y-161160833D02*
X82198545Y-160970357D01*
X82198545Y-160970357D02*
X82236640Y-160894166D01*
X82236640Y-160894166D02*
X82274735Y-160856071D01*
X82274735Y-160856071D02*
X82350926Y-160817976D01*
X82350926Y-160817976D02*
X82427116Y-160817976D01*
X82427116Y-160817976D02*
X82541402Y-160856071D01*
X82541402Y-160856071D02*
X82998545Y-161313214D01*
X82998545Y-161313214D02*
X82998545Y-160817976D01*
X84776640Y-163187023D02*
X84738545Y-163263213D01*
X84738545Y-163263213D02*
X84738545Y-163377499D01*
X84738545Y-163377499D02*
X84776640Y-163491785D01*
X84776640Y-163491785D02*
X84852830Y-163567975D01*
X84852830Y-163567975D02*
X84929021Y-163606070D01*
X84929021Y-163606070D02*
X85081402Y-163644166D01*
X85081402Y-163644166D02*
X85195688Y-163644166D01*
X85195688Y-163644166D02*
X85348069Y-163606070D01*
X85348069Y-163606070D02*
X85424259Y-163567975D01*
X85424259Y-163567975D02*
X85500450Y-163491785D01*
X85500450Y-163491785D02*
X85538545Y-163377499D01*
X85538545Y-163377499D02*
X85538545Y-163301308D01*
X85538545Y-163301308D02*
X85500450Y-163187023D01*
X85500450Y-163187023D02*
X85462354Y-163148927D01*
X85462354Y-163148927D02*
X85195688Y-163148927D01*
X85195688Y-163148927D02*
X85195688Y-163301308D01*
X85538545Y-162806070D02*
X84738545Y-162806070D01*
X84738545Y-162806070D02*
X85538545Y-162348927D01*
X85538545Y-162348927D02*
X84738545Y-162348927D01*
X85538545Y-161967975D02*
X84738545Y-161967975D01*
X84738545Y-161967975D02*
X84738545Y-161777499D01*
X84738545Y-161777499D02*
X84776640Y-161663213D01*
X84776640Y-161663213D02*
X84852830Y-161587023D01*
X84852830Y-161587023D02*
X84929021Y-161548928D01*
X84929021Y-161548928D02*
X85081402Y-161510832D01*
X85081402Y-161510832D02*
X85195688Y-161510832D01*
X85195688Y-161510832D02*
X85348069Y-161548928D01*
X85348069Y-161548928D02*
X85424259Y-161587023D01*
X85424259Y-161587023D02*
X85500450Y-161663213D01*
X85500450Y-161663213D02*
X85538545Y-161777499D01*
X85538545Y-161777499D02*
X85538545Y-161967975D01*
X61878545Y-163803690D02*
X61878545Y-163308452D01*
X61878545Y-163308452D02*
X62183307Y-163575118D01*
X62183307Y-163575118D02*
X62183307Y-163460833D01*
X62183307Y-163460833D02*
X62221402Y-163384642D01*
X62221402Y-163384642D02*
X62259497Y-163346547D01*
X62259497Y-163346547D02*
X62335688Y-163308452D01*
X62335688Y-163308452D02*
X62526164Y-163308452D01*
X62526164Y-163308452D02*
X62602354Y-163346547D01*
X62602354Y-163346547D02*
X62640450Y-163384642D01*
X62640450Y-163384642D02*
X62678545Y-163460833D01*
X62678545Y-163460833D02*
X62678545Y-163689404D01*
X62678545Y-163689404D02*
X62640450Y-163765595D01*
X62640450Y-163765595D02*
X62602354Y-163803690D01*
X61878545Y-163079880D02*
X62678545Y-162813213D01*
X62678545Y-162813213D02*
X61878545Y-162546547D01*
X61878545Y-162356071D02*
X61878545Y-161860833D01*
X61878545Y-161860833D02*
X62183307Y-162127499D01*
X62183307Y-162127499D02*
X62183307Y-162013214D01*
X62183307Y-162013214D02*
X62221402Y-161937023D01*
X62221402Y-161937023D02*
X62259497Y-161898928D01*
X62259497Y-161898928D02*
X62335688Y-161860833D01*
X62335688Y-161860833D02*
X62526164Y-161860833D01*
X62526164Y-161860833D02*
X62602354Y-161898928D01*
X62602354Y-161898928D02*
X62640450Y-161937023D01*
X62640450Y-161937023D02*
X62678545Y-162013214D01*
X62678545Y-162013214D02*
X62678545Y-162241785D01*
X62678545Y-162241785D02*
X62640450Y-162317976D01*
X62640450Y-162317976D02*
X62602354Y-162356071D01*
X62754735Y-161708452D02*
X62754735Y-161098928D01*
X62259497Y-160908451D02*
X62259497Y-160641785D01*
X62678545Y-160527499D02*
X62678545Y-160908451D01*
X62678545Y-160908451D02*
X61878545Y-160908451D01*
X61878545Y-160908451D02*
X61878545Y-160527499D01*
X62678545Y-160184641D02*
X61878545Y-160184641D01*
X61878545Y-160184641D02*
X62678545Y-159727498D01*
X62678545Y-159727498D02*
X61878545Y-159727498D01*
X102556640Y-163179881D02*
X102518545Y-163256071D01*
X102518545Y-163256071D02*
X102518545Y-163370357D01*
X102518545Y-163370357D02*
X102556640Y-163484643D01*
X102556640Y-163484643D02*
X102632830Y-163560833D01*
X102632830Y-163560833D02*
X102709021Y-163598928D01*
X102709021Y-163598928D02*
X102861402Y-163637024D01*
X102861402Y-163637024D02*
X102975688Y-163637024D01*
X102975688Y-163637024D02*
X103128069Y-163598928D01*
X103128069Y-163598928D02*
X103204259Y-163560833D01*
X103204259Y-163560833D02*
X103280450Y-163484643D01*
X103280450Y-163484643D02*
X103318545Y-163370357D01*
X103318545Y-163370357D02*
X103318545Y-163294166D01*
X103318545Y-163294166D02*
X103280450Y-163179881D01*
X103280450Y-163179881D02*
X103242354Y-163141785D01*
X103242354Y-163141785D02*
X102975688Y-163141785D01*
X102975688Y-163141785D02*
X102975688Y-163294166D01*
X103318545Y-162798928D02*
X102518545Y-162798928D01*
X102518545Y-162798928D02*
X102518545Y-162494166D01*
X102518545Y-162494166D02*
X102556640Y-162417976D01*
X102556640Y-162417976D02*
X102594735Y-162379881D01*
X102594735Y-162379881D02*
X102670926Y-162341785D01*
X102670926Y-162341785D02*
X102785211Y-162341785D01*
X102785211Y-162341785D02*
X102861402Y-162379881D01*
X102861402Y-162379881D02*
X102899497Y-162417976D01*
X102899497Y-162417976D02*
X102937592Y-162494166D01*
X102937592Y-162494166D02*
X102937592Y-162798928D01*
X103318545Y-161579881D02*
X103318545Y-162037024D01*
X103318545Y-161808452D02*
X102518545Y-161808452D01*
X102518545Y-161808452D02*
X102632830Y-161884643D01*
X102632830Y-161884643D02*
X102709021Y-161960833D01*
X102709021Y-161960833D02*
X102747116Y-162037024D01*
X102518545Y-160894166D02*
X102518545Y-161046547D01*
X102518545Y-161046547D02*
X102556640Y-161122738D01*
X102556640Y-161122738D02*
X102594735Y-161160833D01*
X102594735Y-161160833D02*
X102709021Y-161237023D01*
X102709021Y-161237023D02*
X102861402Y-161275119D01*
X102861402Y-161275119D02*
X103166164Y-161275119D01*
X103166164Y-161275119D02*
X103242354Y-161237023D01*
X103242354Y-161237023D02*
X103280450Y-161198928D01*
X103280450Y-161198928D02*
X103318545Y-161122738D01*
X103318545Y-161122738D02*
X103318545Y-160970357D01*
X103318545Y-160970357D02*
X103280450Y-160894166D01*
X103280450Y-160894166D02*
X103242354Y-160856071D01*
X103242354Y-160856071D02*
X103166164Y-160817976D01*
X103166164Y-160817976D02*
X102975688Y-160817976D01*
X102975688Y-160817976D02*
X102899497Y-160856071D01*
X102899497Y-160856071D02*
X102861402Y-160894166D01*
X102861402Y-160894166D02*
X102823307Y-160970357D01*
X102823307Y-160970357D02*
X102823307Y-161122738D01*
X102823307Y-161122738D02*
X102861402Y-161198928D01*
X102861402Y-161198928D02*
X102899497Y-161237023D01*
X102899497Y-161237023D02*
X102975688Y-161275119D01*
X74626640Y-163179881D02*
X74588545Y-163256071D01*
X74588545Y-163256071D02*
X74588545Y-163370357D01*
X74588545Y-163370357D02*
X74626640Y-163484643D01*
X74626640Y-163484643D02*
X74702830Y-163560833D01*
X74702830Y-163560833D02*
X74779021Y-163598928D01*
X74779021Y-163598928D02*
X74931402Y-163637024D01*
X74931402Y-163637024D02*
X75045688Y-163637024D01*
X75045688Y-163637024D02*
X75198069Y-163598928D01*
X75198069Y-163598928D02*
X75274259Y-163560833D01*
X75274259Y-163560833D02*
X75350450Y-163484643D01*
X75350450Y-163484643D02*
X75388545Y-163370357D01*
X75388545Y-163370357D02*
X75388545Y-163294166D01*
X75388545Y-163294166D02*
X75350450Y-163179881D01*
X75350450Y-163179881D02*
X75312354Y-163141785D01*
X75312354Y-163141785D02*
X75045688Y-163141785D01*
X75045688Y-163141785D02*
X75045688Y-163294166D01*
X75388545Y-162798928D02*
X74588545Y-162798928D01*
X74588545Y-162798928D02*
X74588545Y-162494166D01*
X74588545Y-162494166D02*
X74626640Y-162417976D01*
X74626640Y-162417976D02*
X74664735Y-162379881D01*
X74664735Y-162379881D02*
X74740926Y-162341785D01*
X74740926Y-162341785D02*
X74855211Y-162341785D01*
X74855211Y-162341785D02*
X74931402Y-162379881D01*
X74931402Y-162379881D02*
X74969497Y-162417976D01*
X74969497Y-162417976D02*
X75007592Y-162494166D01*
X75007592Y-162494166D02*
X75007592Y-162798928D01*
X74664735Y-162037024D02*
X74626640Y-161998928D01*
X74626640Y-161998928D02*
X74588545Y-161922738D01*
X74588545Y-161922738D02*
X74588545Y-161732262D01*
X74588545Y-161732262D02*
X74626640Y-161656071D01*
X74626640Y-161656071D02*
X74664735Y-161617976D01*
X74664735Y-161617976D02*
X74740926Y-161579881D01*
X74740926Y-161579881D02*
X74817116Y-161579881D01*
X74817116Y-161579881D02*
X74931402Y-161617976D01*
X74931402Y-161617976D02*
X75388545Y-162075119D01*
X75388545Y-162075119D02*
X75388545Y-161579881D01*
X74588545Y-161313214D02*
X74588545Y-160779880D01*
X74588545Y-160779880D02*
X75388545Y-161122738D01*
X79696640Y-151218928D02*
X79658545Y-151295118D01*
X79658545Y-151295118D02*
X79658545Y-151409404D01*
X79658545Y-151409404D02*
X79696640Y-151523690D01*
X79696640Y-151523690D02*
X79772830Y-151599880D01*
X79772830Y-151599880D02*
X79849021Y-151637975D01*
X79849021Y-151637975D02*
X80001402Y-151676071D01*
X80001402Y-151676071D02*
X80115688Y-151676071D01*
X80115688Y-151676071D02*
X80268069Y-151637975D01*
X80268069Y-151637975D02*
X80344259Y-151599880D01*
X80344259Y-151599880D02*
X80420450Y-151523690D01*
X80420450Y-151523690D02*
X80458545Y-151409404D01*
X80458545Y-151409404D02*
X80458545Y-151333213D01*
X80458545Y-151333213D02*
X80420450Y-151218928D01*
X80420450Y-151218928D02*
X80382354Y-151180832D01*
X80382354Y-151180832D02*
X80115688Y-151180832D01*
X80115688Y-151180832D02*
X80115688Y-151333213D01*
X80458545Y-150837975D02*
X79658545Y-150837975D01*
X79658545Y-150837975D02*
X79658545Y-150533213D01*
X79658545Y-150533213D02*
X79696640Y-150457023D01*
X79696640Y-150457023D02*
X79734735Y-150418928D01*
X79734735Y-150418928D02*
X79810926Y-150380832D01*
X79810926Y-150380832D02*
X79925211Y-150380832D01*
X79925211Y-150380832D02*
X80001402Y-150418928D01*
X80001402Y-150418928D02*
X80039497Y-150457023D01*
X80039497Y-150457023D02*
X80077592Y-150533213D01*
X80077592Y-150533213D02*
X80077592Y-150837975D01*
X80001402Y-149923690D02*
X79963307Y-149999880D01*
X79963307Y-149999880D02*
X79925211Y-150037975D01*
X79925211Y-150037975D02*
X79849021Y-150076071D01*
X79849021Y-150076071D02*
X79810926Y-150076071D01*
X79810926Y-150076071D02*
X79734735Y-150037975D01*
X79734735Y-150037975D02*
X79696640Y-149999880D01*
X79696640Y-149999880D02*
X79658545Y-149923690D01*
X79658545Y-149923690D02*
X79658545Y-149771309D01*
X79658545Y-149771309D02*
X79696640Y-149695118D01*
X79696640Y-149695118D02*
X79734735Y-149657023D01*
X79734735Y-149657023D02*
X79810926Y-149618928D01*
X79810926Y-149618928D02*
X79849021Y-149618928D01*
X79849021Y-149618928D02*
X79925211Y-149657023D01*
X79925211Y-149657023D02*
X79963307Y-149695118D01*
X79963307Y-149695118D02*
X80001402Y-149771309D01*
X80001402Y-149771309D02*
X80001402Y-149923690D01*
X80001402Y-149923690D02*
X80039497Y-149999880D01*
X80039497Y-149999880D02*
X80077592Y-150037975D01*
X80077592Y-150037975D02*
X80153783Y-150076071D01*
X80153783Y-150076071D02*
X80306164Y-150076071D01*
X80306164Y-150076071D02*
X80382354Y-150037975D01*
X80382354Y-150037975D02*
X80420450Y-149999880D01*
X80420450Y-149999880D02*
X80458545Y-149923690D01*
X80458545Y-149923690D02*
X80458545Y-149771309D01*
X80458545Y-149771309D02*
X80420450Y-149695118D01*
X80420450Y-149695118D02*
X80382354Y-149657023D01*
X80382354Y-149657023D02*
X80306164Y-149618928D01*
X80306164Y-149618928D02*
X80153783Y-149618928D01*
X80153783Y-149618928D02*
X80077592Y-149657023D01*
X80077592Y-149657023D02*
X80039497Y-149695118D01*
X80039497Y-149695118D02*
X80001402Y-149771309D01*
X59376640Y-151257023D02*
X59338545Y-151333213D01*
X59338545Y-151333213D02*
X59338545Y-151447499D01*
X59338545Y-151447499D02*
X59376640Y-151561785D01*
X59376640Y-151561785D02*
X59452830Y-151637975D01*
X59452830Y-151637975D02*
X59529021Y-151676070D01*
X59529021Y-151676070D02*
X59681402Y-151714166D01*
X59681402Y-151714166D02*
X59795688Y-151714166D01*
X59795688Y-151714166D02*
X59948069Y-151676070D01*
X59948069Y-151676070D02*
X60024259Y-151637975D01*
X60024259Y-151637975D02*
X60100450Y-151561785D01*
X60100450Y-151561785D02*
X60138545Y-151447499D01*
X60138545Y-151447499D02*
X60138545Y-151371308D01*
X60138545Y-151371308D02*
X60100450Y-151257023D01*
X60100450Y-151257023D02*
X60062354Y-151218927D01*
X60062354Y-151218927D02*
X59795688Y-151218927D01*
X59795688Y-151218927D02*
X59795688Y-151371308D01*
X60138545Y-150876070D02*
X59338545Y-150876070D01*
X59338545Y-150876070D02*
X60138545Y-150418927D01*
X60138545Y-150418927D02*
X59338545Y-150418927D01*
X60138545Y-150037975D02*
X59338545Y-150037975D01*
X59338545Y-150037975D02*
X59338545Y-149847499D01*
X59338545Y-149847499D02*
X59376640Y-149733213D01*
X59376640Y-149733213D02*
X59452830Y-149657023D01*
X59452830Y-149657023D02*
X59529021Y-149618928D01*
X59529021Y-149618928D02*
X59681402Y-149580832D01*
X59681402Y-149580832D02*
X59795688Y-149580832D01*
X59795688Y-149580832D02*
X59948069Y-149618928D01*
X59948069Y-149618928D02*
X60024259Y-149657023D01*
X60024259Y-149657023D02*
X60100450Y-149733213D01*
X60100450Y-149733213D02*
X60138545Y-149847499D01*
X60138545Y-149847499D02*
X60138545Y-150037975D01*
X102556640Y-151949881D02*
X102518545Y-152026071D01*
X102518545Y-152026071D02*
X102518545Y-152140357D01*
X102518545Y-152140357D02*
X102556640Y-152254643D01*
X102556640Y-152254643D02*
X102632830Y-152330833D01*
X102632830Y-152330833D02*
X102709021Y-152368928D01*
X102709021Y-152368928D02*
X102861402Y-152407024D01*
X102861402Y-152407024D02*
X102975688Y-152407024D01*
X102975688Y-152407024D02*
X103128069Y-152368928D01*
X103128069Y-152368928D02*
X103204259Y-152330833D01*
X103204259Y-152330833D02*
X103280450Y-152254643D01*
X103280450Y-152254643D02*
X103318545Y-152140357D01*
X103318545Y-152140357D02*
X103318545Y-152064166D01*
X103318545Y-152064166D02*
X103280450Y-151949881D01*
X103280450Y-151949881D02*
X103242354Y-151911785D01*
X103242354Y-151911785D02*
X102975688Y-151911785D01*
X102975688Y-151911785D02*
X102975688Y-152064166D01*
X103318545Y-151568928D02*
X102518545Y-151568928D01*
X102518545Y-151568928D02*
X102518545Y-151264166D01*
X102518545Y-151264166D02*
X102556640Y-151187976D01*
X102556640Y-151187976D02*
X102594735Y-151149881D01*
X102594735Y-151149881D02*
X102670926Y-151111785D01*
X102670926Y-151111785D02*
X102785211Y-151111785D01*
X102785211Y-151111785D02*
X102861402Y-151149881D01*
X102861402Y-151149881D02*
X102899497Y-151187976D01*
X102899497Y-151187976D02*
X102937592Y-151264166D01*
X102937592Y-151264166D02*
X102937592Y-151568928D01*
X103318545Y-150349881D02*
X103318545Y-150807024D01*
X103318545Y-150578452D02*
X102518545Y-150578452D01*
X102518545Y-150578452D02*
X102632830Y-150654643D01*
X102632830Y-150654643D02*
X102709021Y-150730833D01*
X102709021Y-150730833D02*
X102747116Y-150807024D01*
X102518545Y-149626071D02*
X102518545Y-150007023D01*
X102518545Y-150007023D02*
X102899497Y-150045119D01*
X102899497Y-150045119D02*
X102861402Y-150007023D01*
X102861402Y-150007023D02*
X102823307Y-149930833D01*
X102823307Y-149930833D02*
X102823307Y-149740357D01*
X102823307Y-149740357D02*
X102861402Y-149664166D01*
X102861402Y-149664166D02*
X102899497Y-149626071D01*
X102899497Y-149626071D02*
X102975688Y-149587976D01*
X102975688Y-149587976D02*
X103166164Y-149587976D01*
X103166164Y-149587976D02*
X103242354Y-149626071D01*
X103242354Y-149626071D02*
X103280450Y-149664166D01*
X103280450Y-149664166D02*
X103318545Y-149740357D01*
X103318545Y-149740357D02*
X103318545Y-149930833D01*
X103318545Y-149930833D02*
X103280450Y-150007023D01*
X103280450Y-150007023D02*
X103242354Y-150045119D01*
X77156640Y-163179881D02*
X77118545Y-163256071D01*
X77118545Y-163256071D02*
X77118545Y-163370357D01*
X77118545Y-163370357D02*
X77156640Y-163484643D01*
X77156640Y-163484643D02*
X77232830Y-163560833D01*
X77232830Y-163560833D02*
X77309021Y-163598928D01*
X77309021Y-163598928D02*
X77461402Y-163637024D01*
X77461402Y-163637024D02*
X77575688Y-163637024D01*
X77575688Y-163637024D02*
X77728069Y-163598928D01*
X77728069Y-163598928D02*
X77804259Y-163560833D01*
X77804259Y-163560833D02*
X77880450Y-163484643D01*
X77880450Y-163484643D02*
X77918545Y-163370357D01*
X77918545Y-163370357D02*
X77918545Y-163294166D01*
X77918545Y-163294166D02*
X77880450Y-163179881D01*
X77880450Y-163179881D02*
X77842354Y-163141785D01*
X77842354Y-163141785D02*
X77575688Y-163141785D01*
X77575688Y-163141785D02*
X77575688Y-163294166D01*
X77918545Y-162798928D02*
X77118545Y-162798928D01*
X77118545Y-162798928D02*
X77118545Y-162494166D01*
X77118545Y-162494166D02*
X77156640Y-162417976D01*
X77156640Y-162417976D02*
X77194735Y-162379881D01*
X77194735Y-162379881D02*
X77270926Y-162341785D01*
X77270926Y-162341785D02*
X77385211Y-162341785D01*
X77385211Y-162341785D02*
X77461402Y-162379881D01*
X77461402Y-162379881D02*
X77499497Y-162417976D01*
X77499497Y-162417976D02*
X77537592Y-162494166D01*
X77537592Y-162494166D02*
X77537592Y-162798928D01*
X77194735Y-162037024D02*
X77156640Y-161998928D01*
X77156640Y-161998928D02*
X77118545Y-161922738D01*
X77118545Y-161922738D02*
X77118545Y-161732262D01*
X77118545Y-161732262D02*
X77156640Y-161656071D01*
X77156640Y-161656071D02*
X77194735Y-161617976D01*
X77194735Y-161617976D02*
X77270926Y-161579881D01*
X77270926Y-161579881D02*
X77347116Y-161579881D01*
X77347116Y-161579881D02*
X77461402Y-161617976D01*
X77461402Y-161617976D02*
X77918545Y-162075119D01*
X77918545Y-162075119D02*
X77918545Y-161579881D01*
X77118545Y-160894166D02*
X77118545Y-161046547D01*
X77118545Y-161046547D02*
X77156640Y-161122738D01*
X77156640Y-161122738D02*
X77194735Y-161160833D01*
X77194735Y-161160833D02*
X77309021Y-161237023D01*
X77309021Y-161237023D02*
X77461402Y-161275119D01*
X77461402Y-161275119D02*
X77766164Y-161275119D01*
X77766164Y-161275119D02*
X77842354Y-161237023D01*
X77842354Y-161237023D02*
X77880450Y-161198928D01*
X77880450Y-161198928D02*
X77918545Y-161122738D01*
X77918545Y-161122738D02*
X77918545Y-160970357D01*
X77918545Y-160970357D02*
X77880450Y-160894166D01*
X77880450Y-160894166D02*
X77842354Y-160856071D01*
X77842354Y-160856071D02*
X77766164Y-160817976D01*
X77766164Y-160817976D02*
X77575688Y-160817976D01*
X77575688Y-160817976D02*
X77499497Y-160856071D01*
X77499497Y-160856071D02*
X77461402Y-160894166D01*
X77461402Y-160894166D02*
X77423307Y-160970357D01*
X77423307Y-160970357D02*
X77423307Y-161122738D01*
X77423307Y-161122738D02*
X77461402Y-161198928D01*
X77461402Y-161198928D02*
X77499497Y-161237023D01*
X77499497Y-161237023D02*
X77575688Y-161275119D01*
D11*
G04 #@! TO.C,SW9*
X149903750Y-164667500D02*
X149903750Y-178867500D01*
X149903750Y-178867500D02*
X164103750Y-178867500D01*
X164103750Y-164667500D02*
X149903750Y-164667500D01*
X164103750Y-178867500D02*
X164103750Y-164667500D01*
G04 #@! TO.C,SW17*
X87991250Y-207530000D02*
X87991250Y-221730000D01*
X87991250Y-221730000D02*
X102191250Y-221730000D01*
X102191250Y-207530000D02*
X87991250Y-207530000D01*
X102191250Y-221730000D02*
X102191250Y-207530000D01*
D12*
G04 #@! TO.C,D25*
X362303750Y-229667500D02*
X361903750Y-229667500D01*
X370793750Y-228167500D02*
X371193750Y-228167500D01*
X370993750Y-227967500D02*
X370993750Y-228367500D01*
D11*
G04 #@! TO.C,SW8*
X359453750Y-198005000D02*
X359453750Y-212205000D01*
X359453750Y-212205000D02*
X373653750Y-212205000D01*
X373653750Y-198005000D02*
X359453750Y-198005000D01*
X373653750Y-212205000D02*
X373653750Y-198005000D01*
D12*
G04 #@! TO.C,D20*
X205141250Y-229667500D02*
X204741250Y-229667500D01*
X213631250Y-228167500D02*
X214031250Y-228167500D01*
X213831250Y-227967500D02*
X213831250Y-228367500D01*
G04 #@! TO.C,D29*
X286103750Y-196330000D02*
X285703750Y-196330000D01*
X294593750Y-194830000D02*
X294993750Y-194830000D01*
X294793750Y-194630000D02*
X294793750Y-195030000D01*
D11*
G04 #@! TO.C,SW2*
X168953750Y-198005000D02*
X168953750Y-212205000D01*
X168953750Y-212205000D02*
X183153750Y-212205000D01*
X183153750Y-198005000D02*
X168953750Y-198005000D01*
X183153750Y-212205000D02*
X183153750Y-198005000D01*
G04 #@! TO.C,SW13*
X321353750Y-164667500D02*
X321353750Y-178867500D01*
X321353750Y-178867500D02*
X335553750Y-178867500D01*
X335553750Y-164667500D02*
X321353750Y-164667500D01*
X335553750Y-178867500D02*
X335553750Y-164667500D01*
D12*
G04 #@! TO.C,D21*
X233716250Y-229667500D02*
X233316250Y-229667500D01*
X242206250Y-228167500D02*
X242606250Y-228167500D01*
X242406250Y-227967500D02*
X242406250Y-228367500D01*
G04 #@! TO.C,D30*
X324203750Y-196330000D02*
X323803750Y-196330000D01*
X332693750Y-194830000D02*
X333093750Y-194830000D01*
X332893750Y-194630000D02*
X332893750Y-195030000D01*
D11*
G04 #@! TO.C,SW10*
X188003750Y-164667500D02*
X188003750Y-178867500D01*
X188003750Y-178867500D02*
X202203750Y-178867500D01*
X202203750Y-164667500D02*
X188003750Y-164667500D01*
X202203750Y-178867500D02*
X202203750Y-164667500D01*
G04 #@! TO.C,SW16*
X68941250Y-207530000D02*
X68941250Y-221730000D01*
X68941250Y-221730000D02*
X83141250Y-221730000D01*
X83141250Y-207530000D02*
X68941250Y-207530000D01*
X83141250Y-221730000D02*
X83141250Y-207530000D01*
G04 #@! TO.C,SW15*
X87991250Y-188480000D02*
X87991250Y-202680000D01*
X87991250Y-202680000D02*
X102191250Y-202680000D01*
X102191250Y-188480000D02*
X87991250Y-188480000D01*
X102191250Y-202680000D02*
X102191250Y-188480000D01*
D12*
G04 #@! TO.C,D23*
X305153750Y-229667500D02*
X304753750Y-229667500D01*
X313643750Y-228167500D02*
X314043750Y-228167500D01*
X313843750Y-227967500D02*
X313843750Y-228367500D01*
D11*
G04 #@! TO.C,SW12*
X283253750Y-164667500D02*
X283253750Y-178867500D01*
X283253750Y-178867500D02*
X297453750Y-178867500D01*
X297453750Y-164667500D02*
X283253750Y-164667500D01*
X297453750Y-178867500D02*
X297453750Y-164667500D01*
G04 #@! TO.C,SW3*
X207053750Y-198005000D02*
X207053750Y-212205000D01*
X207053750Y-212205000D02*
X221253750Y-212205000D01*
X221253750Y-198005000D02*
X207053750Y-198005000D01*
X221253750Y-212205000D02*
X221253750Y-198005000D01*
G04 #@! TO.C,SW7*
X340403750Y-198005000D02*
X340403750Y-212205000D01*
X340403750Y-212205000D02*
X354603750Y-212205000D01*
X354603750Y-198005000D02*
X340403750Y-198005000D01*
X354603750Y-212205000D02*
X354603750Y-198005000D01*
D12*
G04 #@! TO.C,D28*
X248003750Y-196330000D02*
X247603750Y-196330000D01*
X256493750Y-194830000D02*
X256893750Y-194830000D01*
X256693750Y-194630000D02*
X256693750Y-195030000D01*
G04 #@! TO.C,D19*
X171803750Y-229667500D02*
X171403750Y-229667500D01*
X180293750Y-228167500D02*
X180693750Y-228167500D01*
X180493750Y-227967500D02*
X180493750Y-228367500D01*
D11*
G04 #@! TO.C,SW1*
X130853750Y-198005000D02*
X130853750Y-212205000D01*
X130853750Y-212205000D02*
X145053750Y-212205000D01*
X145053750Y-198005000D02*
X130853750Y-198005000D01*
X145053750Y-212205000D02*
X145053750Y-198005000D01*
D12*
G04 #@! TO.C,D26*
X152753750Y-196330000D02*
X152353750Y-196330000D01*
X161243750Y-194830000D02*
X161643750Y-194830000D01*
X161443750Y-194630000D02*
X161443750Y-195030000D01*
G04 #@! TO.C,D27*
X190853750Y-196330000D02*
X190453750Y-196330000D01*
X199343750Y-194830000D02*
X199743750Y-194830000D01*
X199543750Y-194630000D02*
X199543750Y-195030000D01*
D11*
G04 #@! TO.C,SW4*
X226103750Y-198005000D02*
X226103750Y-212205000D01*
X226103750Y-212205000D02*
X240303750Y-212205000D01*
X240303750Y-198005000D02*
X226103750Y-198005000D01*
X240303750Y-212205000D02*
X240303750Y-198005000D01*
D12*
G04 #@! TO.C,D22*
X267053750Y-229667500D02*
X266653750Y-229667500D01*
X275543750Y-228167500D02*
X275943750Y-228167500D01*
X275743750Y-227967500D02*
X275743750Y-228367500D01*
G04 #@! TO.C,D18*
X136085000Y-229667500D02*
X135685000Y-229667500D01*
X144575000Y-228167500D02*
X144975000Y-228167500D01*
X144775000Y-227967500D02*
X144775000Y-228367500D01*
D11*
G04 #@! TO.C,SW6*
X302303750Y-198005000D02*
X302303750Y-212205000D01*
X302303750Y-212205000D02*
X316503750Y-212205000D01*
X316503750Y-198005000D02*
X302303750Y-198005000D01*
X316503750Y-212205000D02*
X316503750Y-198005000D01*
G04 #@! TO.C,SW5*
X264203750Y-198005000D02*
X264203750Y-212205000D01*
X264203750Y-212205000D02*
X278403750Y-212205000D01*
X278403750Y-198005000D02*
X264203750Y-198005000D01*
X278403750Y-212205000D02*
X278403750Y-198005000D01*
D12*
G04 #@! TO.C,D24*
X338491250Y-229667500D02*
X338091250Y-229667500D01*
X346981250Y-228167500D02*
X347381250Y-228167500D01*
X347181250Y-227967500D02*
X347181250Y-228367500D01*
D11*
G04 #@! TO.C,SW14*
X68941250Y-188480000D02*
X68941250Y-202680000D01*
X68941250Y-202680000D02*
X83141250Y-202680000D01*
X83141250Y-188480000D02*
X68941250Y-188480000D01*
X83141250Y-202680000D02*
X83141250Y-188480000D01*
G04 #@! TO.C,SW11*
X245153750Y-164667500D02*
X245153750Y-178867500D01*
X245153750Y-178867500D02*
X259353750Y-178867500D01*
X259353750Y-164667500D02*
X245153750Y-164667500D01*
X259353750Y-178867500D02*
X259353750Y-164667500D01*
D10*
G04 #@! TO.C,U1*
X53326250Y-146187500D02*
X53326250Y-167187500D01*
X53326250Y-164180500D02*
X55993250Y-164180500D01*
X55993250Y-164180500D02*
X55993250Y-167187500D01*
X104326250Y-146187500D02*
X53326250Y-146187500D01*
X104326250Y-167187500D02*
X53326250Y-167187500D01*
X104326250Y-167187500D02*
X104326250Y-146187500D01*
G04 #@! TD*
%LPC*%
D13*
G04 #@! TO.C,SW9*
X151923750Y-171767500D03*
D14*
X157003750Y-171767500D03*
D13*
X162083750Y-171767500D03*
D15*
X153193750Y-169227500D03*
X159543750Y-166687500D03*
G04 #@! TD*
D13*
G04 #@! TO.C,SW17*
X90011250Y-214630000D03*
D14*
X95091250Y-214630000D03*
D13*
X100171250Y-214630000D03*
D15*
X91281250Y-212090000D03*
X97631250Y-209550000D03*
G04 #@! TD*
D16*
G04 #@! TO.C,D25*
X363543750Y-228167500D03*
X363543750Y-229667500D03*
X369563750Y-229667500D03*
X369563750Y-228167500D03*
G04 #@! TD*
D13*
G04 #@! TO.C,SW8*
X361473750Y-205105000D03*
D14*
X366553750Y-205105000D03*
D13*
X371633750Y-205105000D03*
D15*
X362743750Y-202565000D03*
X369093750Y-200025000D03*
G04 #@! TD*
D16*
G04 #@! TO.C,D20*
X206381250Y-228167500D03*
X206381250Y-229667500D03*
X212401250Y-229667500D03*
X212401250Y-228167500D03*
G04 #@! TD*
G04 #@! TO.C,D29*
X287343750Y-194830000D03*
X287343750Y-196330000D03*
X293363750Y-196330000D03*
X293363750Y-194830000D03*
G04 #@! TD*
D17*
G04 #@! TO.C,REF\u002A\u002A*
X339898750Y-220780000D03*
D18*
X355108750Y-220780000D03*
D17*
X339898750Y-182680000D03*
D18*
X355108750Y-182680000D03*
G04 #@! TD*
D17*
G04 #@! TO.C,REF\u002A\u002A*
X320848750Y-187442500D03*
D18*
X336058750Y-187442500D03*
D17*
X320848750Y-149342500D03*
D18*
X336058750Y-149342500D03*
G04 #@! TD*
D17*
G04 #@! TO.C,REF\u002A\u002A*
X168448750Y-220780000D03*
D18*
X183658750Y-220780000D03*
D17*
X168448750Y-182680000D03*
D18*
X183658750Y-182680000D03*
G04 #@! TD*
D13*
G04 #@! TO.C,SW2*
X170973750Y-205105000D03*
D14*
X176053750Y-205105000D03*
D13*
X181133750Y-205105000D03*
D15*
X172243750Y-202565000D03*
X178593750Y-200025000D03*
G04 #@! TD*
D13*
G04 #@! TO.C,SW13*
X323373750Y-171767500D03*
D14*
X328453750Y-171767500D03*
D13*
X333533750Y-171767500D03*
D15*
X324643750Y-169227500D03*
X330993750Y-166687500D03*
G04 #@! TD*
D16*
G04 #@! TO.C,D21*
X234956250Y-228167500D03*
X234956250Y-229667500D03*
X240976250Y-229667500D03*
X240976250Y-228167500D03*
G04 #@! TD*
G04 #@! TO.C,D30*
X325443750Y-194830000D03*
X325443750Y-196330000D03*
X331463750Y-196330000D03*
X331463750Y-194830000D03*
G04 #@! TD*
D13*
G04 #@! TO.C,SW10*
X190023750Y-171767500D03*
D14*
X195103750Y-171767500D03*
D13*
X200183750Y-171767500D03*
D15*
X191293750Y-169227500D03*
X197643750Y-166687500D03*
G04 #@! TD*
D17*
G04 #@! TO.C,REF\u002A\u002A*
X301798750Y-220780000D03*
D18*
X317008750Y-220780000D03*
D17*
X301798750Y-182680000D03*
D18*
X317008750Y-182680000D03*
G04 #@! TD*
D17*
G04 #@! TO.C,REF\u002A\u002A*
X263698750Y-220780000D03*
D18*
X278908750Y-220780000D03*
D17*
X263698750Y-182680000D03*
D18*
X278908750Y-182680000D03*
G04 #@! TD*
D13*
G04 #@! TO.C,SW16*
X70961250Y-214630000D03*
D14*
X76041250Y-214630000D03*
D13*
X81121250Y-214630000D03*
D15*
X72231250Y-212090000D03*
X78581250Y-209550000D03*
G04 #@! TD*
D13*
G04 #@! TO.C,SW15*
X90011250Y-195580000D03*
D14*
X95091250Y-195580000D03*
D13*
X100171250Y-195580000D03*
D15*
X91281250Y-193040000D03*
X97631250Y-190500000D03*
G04 #@! TD*
D16*
G04 #@! TO.C,D23*
X306393750Y-228167500D03*
X306393750Y-229667500D03*
X312413750Y-229667500D03*
X312413750Y-228167500D03*
G04 #@! TD*
D13*
G04 #@! TO.C,SW12*
X285273750Y-171767500D03*
D14*
X290353750Y-171767500D03*
D13*
X295433750Y-171767500D03*
D15*
X286543750Y-169227500D03*
X292893750Y-166687500D03*
G04 #@! TD*
D17*
G04 #@! TO.C,REF\u002A\u002A*
X149398750Y-187442500D03*
D18*
X164608750Y-187442500D03*
D17*
X149398750Y-149342500D03*
D18*
X164608750Y-149342500D03*
G04 #@! TD*
D13*
G04 #@! TO.C,SW3*
X209073750Y-205105000D03*
D14*
X214153750Y-205105000D03*
D13*
X219233750Y-205105000D03*
D15*
X210343750Y-202565000D03*
X216693750Y-200025000D03*
G04 #@! TD*
D13*
G04 #@! TO.C,SW7*
X342423750Y-205105000D03*
D14*
X347503750Y-205105000D03*
D13*
X352583750Y-205105000D03*
D15*
X343693750Y-202565000D03*
X350043750Y-200025000D03*
G04 #@! TD*
D16*
G04 #@! TO.C,D28*
X249243750Y-194830000D03*
X249243750Y-196330000D03*
X255263750Y-196330000D03*
X255263750Y-194830000D03*
G04 #@! TD*
D17*
G04 #@! TO.C,REF\u002A\u002A*
X187498750Y-187442500D03*
D18*
X202708750Y-187442500D03*
D17*
X187498750Y-149342500D03*
D18*
X202708750Y-149342500D03*
G04 #@! TD*
D16*
G04 #@! TO.C,D19*
X173043750Y-228167500D03*
X173043750Y-229667500D03*
X179063750Y-229667500D03*
X179063750Y-228167500D03*
G04 #@! TD*
D17*
G04 #@! TO.C,REF\u002A\u002A*
X206548750Y-220780000D03*
D18*
X221758750Y-220780000D03*
D17*
X206548750Y-182680000D03*
D18*
X221758750Y-182680000D03*
G04 #@! TD*
D17*
G04 #@! TO.C,REF\u002A\u002A*
X244648750Y-187442500D03*
D18*
X259858750Y-187442500D03*
D17*
X244648750Y-149342500D03*
D18*
X259858750Y-149342500D03*
G04 #@! TD*
D13*
G04 #@! TO.C,SW1*
X132873750Y-205105000D03*
D14*
X137953750Y-205105000D03*
D13*
X143033750Y-205105000D03*
D15*
X134143750Y-202565000D03*
X140493750Y-200025000D03*
G04 #@! TD*
D16*
G04 #@! TO.C,D26*
X153993750Y-194830000D03*
X153993750Y-196330000D03*
X160013750Y-196330000D03*
X160013750Y-194830000D03*
G04 #@! TD*
G04 #@! TO.C,D27*
X192093750Y-194830000D03*
X192093750Y-196330000D03*
X198113750Y-196330000D03*
X198113750Y-194830000D03*
G04 #@! TD*
D13*
G04 #@! TO.C,SW4*
X228123750Y-205105000D03*
D14*
X233203750Y-205105000D03*
D13*
X238283750Y-205105000D03*
D15*
X229393750Y-202565000D03*
X235743750Y-200025000D03*
G04 #@! TD*
D17*
G04 #@! TO.C,REF\u002A\u002A*
X358948750Y-220780000D03*
D18*
X374158750Y-220780000D03*
D17*
X358948750Y-182680000D03*
D18*
X374158750Y-182680000D03*
G04 #@! TD*
D17*
G04 #@! TO.C,REF\u002A\u002A*
X225598750Y-220780000D03*
D18*
X240808750Y-220780000D03*
D17*
X225598750Y-182680000D03*
D18*
X240808750Y-182680000D03*
G04 #@! TD*
D16*
G04 #@! TO.C,D22*
X268293750Y-228167500D03*
X268293750Y-229667500D03*
X274313750Y-229667500D03*
X274313750Y-228167500D03*
G04 #@! TD*
D17*
G04 #@! TO.C,REF\u002A\u002A*
X282748750Y-187442500D03*
D18*
X297958750Y-187442500D03*
D17*
X282748750Y-149342500D03*
D18*
X297958750Y-149342500D03*
G04 #@! TD*
D17*
G04 #@! TO.C,REF\u002A\u002A*
X130348750Y-220780000D03*
D18*
X145558750Y-220780000D03*
D17*
X130348750Y-182680000D03*
D18*
X145558750Y-182680000D03*
G04 #@! TD*
D16*
G04 #@! TO.C,D18*
X137325000Y-228167500D03*
X137325000Y-229667500D03*
X143345000Y-229667500D03*
X143345000Y-228167500D03*
G04 #@! TD*
D13*
G04 #@! TO.C,SW6*
X304323750Y-205105000D03*
D14*
X309403750Y-205105000D03*
D13*
X314483750Y-205105000D03*
D15*
X305593750Y-202565000D03*
X311943750Y-200025000D03*
G04 #@! TD*
D13*
G04 #@! TO.C,SW5*
X266223750Y-205105000D03*
D14*
X271303750Y-205105000D03*
D13*
X276383750Y-205105000D03*
D15*
X267493750Y-202565000D03*
X273843750Y-200025000D03*
G04 #@! TD*
D16*
G04 #@! TO.C,D24*
X339731250Y-228167500D03*
X339731250Y-229667500D03*
X345751250Y-229667500D03*
X345751250Y-228167500D03*
G04 #@! TD*
D13*
G04 #@! TO.C,SW14*
X70961250Y-195580000D03*
D14*
X76041250Y-195580000D03*
D13*
X81121250Y-195580000D03*
D15*
X72231250Y-193040000D03*
X78581250Y-190500000D03*
G04 #@! TD*
D13*
G04 #@! TO.C,SW11*
X247173750Y-171767500D03*
D14*
X252253750Y-171767500D03*
D13*
X257333750Y-171767500D03*
D15*
X248443750Y-169227500D03*
X254793750Y-166687500D03*
G04 #@! TD*
D19*
G04 #@! TO.C,D17*
X104616250Y-217487500D03*
D20*
X104616250Y-209867500D03*
G04 #@! TD*
D19*
G04 #@! TO.C,D11*
X261778750Y-174625000D03*
D20*
X261778750Y-167005000D03*
G04 #@! TD*
D19*
G04 #@! TO.C,D4*
X242728750Y-207962500D03*
D20*
X242728750Y-200342500D03*
G04 #@! TD*
D19*
G04 #@! TO.C,D10*
X204628750Y-174625000D03*
D20*
X204628750Y-167005000D03*
G04 #@! TD*
D19*
G04 #@! TO.C,D14*
X85566250Y-198437500D03*
D20*
X85566250Y-190817500D03*
G04 #@! TD*
D19*
G04 #@! TO.C,D8*
X376078750Y-207962500D03*
D20*
X376078750Y-200342500D03*
G04 #@! TD*
D19*
G04 #@! TO.C,D15*
X104616250Y-198437500D03*
D20*
X104616250Y-190817500D03*
G04 #@! TD*
D19*
G04 #@! TO.C,D2*
X185578750Y-207962500D03*
D20*
X185578750Y-200342500D03*
G04 #@! TD*
D19*
G04 #@! TO.C,D3*
X223678750Y-207962500D03*
D20*
X223678750Y-200342500D03*
G04 #@! TD*
D19*
G04 #@! TO.C,D12*
X299878750Y-174625000D03*
D20*
X299878750Y-167005000D03*
G04 #@! TD*
D21*
G04 #@! TO.C,U2*
X93186250Y-180500000D03*
D22*
X90646250Y-180500000D03*
X88106250Y-180500000D03*
X85566250Y-180500000D03*
X83026250Y-180500000D03*
X80486250Y-180500000D03*
X77946250Y-180500000D03*
X77946250Y-172560000D03*
X80486250Y-172560000D03*
X83026250Y-172560000D03*
X85566250Y-172560000D03*
X88106250Y-172560000D03*
X90646250Y-172560000D03*
X93186250Y-172560000D03*
G04 #@! TD*
D19*
G04 #@! TO.C,D1*
X147478750Y-207962500D03*
D20*
X147478750Y-200342500D03*
G04 #@! TD*
D19*
G04 #@! TO.C,D7*
X357028750Y-207962500D03*
D20*
X357028750Y-200342500D03*
G04 #@! TD*
D23*
G04 #@! TO.C,U1*
X54696250Y-147797500D03*
X57236250Y-147797500D03*
D24*
X59776250Y-147797500D03*
D23*
X62316250Y-147797500D03*
X64856250Y-147797500D03*
X67396250Y-147797500D03*
X69936250Y-147797500D03*
D24*
X72476250Y-147797500D03*
D23*
X75016250Y-147797500D03*
X77556250Y-147797500D03*
X80096250Y-147797500D03*
X82636250Y-147797500D03*
D24*
X85176250Y-147797500D03*
D23*
X87716250Y-147797500D03*
X90256250Y-147797500D03*
X92796250Y-147797500D03*
X95336250Y-147797500D03*
D24*
X97876250Y-147797500D03*
D23*
X100416250Y-147797500D03*
X102956250Y-147797500D03*
X102956250Y-165577500D03*
X100416250Y-165577500D03*
D24*
X97876250Y-165577500D03*
D23*
X95336250Y-165577500D03*
X92796250Y-165577500D03*
X90256250Y-165577500D03*
X87716250Y-165577500D03*
D24*
X85176250Y-165577500D03*
D23*
X82636250Y-165577500D03*
X80096250Y-165577500D03*
X77556250Y-165577500D03*
X75016250Y-165577500D03*
D24*
X72476250Y-165577500D03*
D23*
X69936250Y-165577500D03*
X67396250Y-165577500D03*
X64856250Y-165577500D03*
X62316250Y-165577500D03*
D24*
X59776250Y-165577500D03*
D23*
X57236250Y-165577500D03*
X54696250Y-165577500D03*
X102726250Y-154147500D03*
D24*
X102726250Y-156687500D03*
D23*
X102726250Y-159227500D03*
G04 #@! TD*
D19*
G04 #@! TO.C,D13*
X337978750Y-174625000D03*
D20*
X337978750Y-167005000D03*
G04 #@! TD*
D19*
G04 #@! TO.C,D5*
X280828750Y-207962500D03*
D20*
X280828750Y-200342500D03*
G04 #@! TD*
D19*
G04 #@! TO.C,D16*
X85566250Y-217487500D03*
D20*
X85566250Y-209867500D03*
G04 #@! TD*
D19*
G04 #@! TO.C,D6*
X318928750Y-207962500D03*
D20*
X318928750Y-200342500D03*
G04 #@! TD*
D19*
G04 #@! TO.C,D9*
X166528750Y-174625000D03*
D20*
X166528750Y-167005000D03*
G04 #@! TD*
%LPD*%
M02*
