%TF.GenerationSoftware,KiCad,Pcbnew,8.0.3*%
%TF.CreationDate,2024-07-25T17:07:34-07:00*%
%TF.ProjectId,melokey,6d656c6f-6b65-4792-9e6b-696361645f70,rev?*%
%TF.SameCoordinates,Original*%
%TF.FileFunction,Drillmap*%
%TF.FilePolarity,Positive*%
%FSLAX45Y45*%
G04 Gerber Fmt 4.5, Leading zero omitted, Abs format (unit mm)*
G04 Created by KiCad (PCBNEW 8.0.3) date 2024-07-25 17:07:34*
%MOMM*%
%LPD*%
G01*
G04 APERTURE LIST*
%ADD10C,0.050000*%
%ADD11C,1.625000*%
%ADD12C,0.010000*%
%ADD13C,0.200000*%
%ADD14C,0.100000*%
%ADD15C,0.102000*%
%ADD16C,0.150000*%
G04 APERTURE END LIST*
D10*
X38758875Y-13287500D02*
X38560375Y-13287500D01*
X5682625Y-24955625D02*
G75*
G02*
X5182625Y-24455625I0J500000D01*
G01*
X38758875Y-13287500D02*
G75*
G02*
X39258880Y-13787500I5J-500000D01*
G01*
X38282625Y-24955625D02*
X5682625Y-24955625D01*
D11*
X38564500Y-24155625D02*
G75*
G02*
X38402000Y-24155625I-81250J0D01*
G01*
X38402000Y-24155625D02*
G75*
G02*
X38564500Y-24155625I81250J0D01*
G01*
X6088250Y-19105625D02*
G75*
G02*
X5925750Y-19105625I-81250J0D01*
G01*
X5925750Y-19105625D02*
G75*
G02*
X6088250Y-19105625I81250J0D01*
G01*
D10*
X39258875Y-24455625D02*
G75*
G02*
X38758875Y-24955625I-499995J-5D01*
G01*
X39258875Y-13787500D02*
X39258875Y-24455625D01*
X38282625Y-24955625D02*
X38758875Y-24955625D01*
X5182625Y-24455625D02*
X5207000Y-13787500D01*
X5207000Y-13787500D02*
G75*
G02*
X5707000Y-13287500I500000J0D01*
G01*
D11*
X38564500Y-13987500D02*
G75*
G02*
X38402000Y-13987500I-81250J0D01*
G01*
X38402000Y-13987500D02*
G75*
G02*
X38564500Y-13987500I81250J0D01*
G01*
D10*
X5707000Y-13287500D02*
X38560375Y-13287500D01*
D11*
X38564500Y-19037500D02*
G75*
G02*
X38402000Y-19037500I-81250J0D01*
G01*
X38402000Y-19037500D02*
G75*
G02*
X38564500Y-19037500I81250J0D01*
G01*
X6088250Y-24155625D02*
G75*
G02*
X5925750Y-24155625I-81250J0D01*
G01*
X5925750Y-24155625D02*
G75*
G02*
X6088250Y-24155625I81250J0D01*
G01*
X6088250Y-13987500D02*
G75*
G02*
X5925750Y-13987500I-81250J0D01*
G01*
X5925750Y-13987500D02*
G75*
G02*
X6088250Y-13987500I81250J0D01*
G01*
D12*
X36485375Y-22741750D02*
X36825375Y-22741750D01*
X36485375Y-23041750D02*
X36485375Y-22741750D01*
X36825375Y-22741750D02*
X36825375Y-23041750D01*
X36825375Y-23041750D02*
X36485375Y-23041750D01*
X20769125Y-22741750D02*
X21109125Y-22741750D01*
X20769125Y-23041750D02*
X20769125Y-22741750D01*
X21109125Y-22741750D02*
X21109125Y-23041750D01*
X21109125Y-23041750D02*
X20769125Y-23041750D01*
X28865375Y-19408000D02*
X29205375Y-19408000D01*
X28865375Y-19708000D02*
X28865375Y-19408000D01*
X29205375Y-19408000D02*
X29205375Y-19708000D01*
X29205375Y-19708000D02*
X28865375Y-19708000D01*
X23626625Y-22741750D02*
X23966625Y-22741750D01*
X23626625Y-23041750D02*
X23626625Y-22741750D01*
X23966625Y-22741750D02*
X23966625Y-23041750D01*
X23966625Y-23041750D02*
X23626625Y-23041750D01*
X32675375Y-19408000D02*
X33015375Y-19408000D01*
X32675375Y-19708000D02*
X32675375Y-19408000D01*
X33015375Y-19408000D02*
X33015375Y-19708000D01*
X33015375Y-19708000D02*
X32675375Y-19708000D01*
X30770375Y-22741750D02*
X31110375Y-22741750D01*
X30770375Y-23041750D02*
X30770375Y-22741750D01*
X31110375Y-22741750D02*
X31110375Y-23041750D01*
X31110375Y-23041750D02*
X30770375Y-23041750D01*
X25055375Y-19408000D02*
X25395375Y-19408000D01*
X25055375Y-19708000D02*
X25055375Y-19408000D01*
X25395375Y-19408000D02*
X25395375Y-19708000D01*
X25395375Y-19708000D02*
X25055375Y-19708000D01*
X17435375Y-22741750D02*
X17775375Y-22741750D01*
X17435375Y-23041750D02*
X17435375Y-22741750D01*
X17775375Y-22741750D02*
X17775375Y-23041750D01*
X17775375Y-23041750D02*
X17435375Y-23041750D01*
X15530375Y-19408000D02*
X15870375Y-19408000D01*
X15530375Y-19708000D02*
X15530375Y-19408000D01*
X15870375Y-19408000D02*
X15870375Y-19708000D01*
X15870375Y-19708000D02*
X15530375Y-19708000D01*
X19340375Y-19408000D02*
X19680375Y-19408000D01*
X19340375Y-19708000D02*
X19340375Y-19408000D01*
X19680375Y-19408000D02*
X19680375Y-19708000D01*
X19680375Y-19708000D02*
X19340375Y-19708000D01*
X26960375Y-22741750D02*
X27300375Y-22741750D01*
X26960375Y-23041750D02*
X26960375Y-22741750D01*
X27300375Y-22741750D02*
X27300375Y-23041750D01*
X27300375Y-23041750D02*
X26960375Y-23041750D01*
X13863500Y-22741750D02*
X14203500Y-22741750D01*
X13863500Y-23041750D02*
X13863500Y-22741750D01*
X14203500Y-22741750D02*
X14203500Y-23041750D01*
X14203500Y-23041750D02*
X13863500Y-23041750D01*
X34104125Y-22741750D02*
X34444125Y-22741750D01*
X34104125Y-23041750D02*
X34104125Y-22741750D01*
X34444125Y-22741750D02*
X34444125Y-23041750D01*
X34444125Y-23041750D02*
X34104125Y-23041750D01*
D13*
D14*
X11863875Y-17158750D02*
X11893875Y-17188750D01*
X11893875Y-17158750D02*
X11863875Y-17188750D01*
X11875813Y-19270688D02*
X11905813Y-19300688D01*
X11905813Y-19270688D02*
X11875813Y-19300688D01*
X12940125Y-21658750D02*
X12970125Y-21688750D01*
X12970125Y-21658750D02*
X12940125Y-21688750D01*
X13240125Y-23258750D02*
X13270125Y-23288750D01*
X13270125Y-23258750D02*
X13240125Y-23288750D01*
X14578250Y-22958750D02*
X14608250Y-22988750D01*
X14608250Y-22958750D02*
X14578250Y-22988750D01*
X15193250Y-22797500D02*
X15223250Y-22827500D01*
X15223250Y-22797500D02*
X15193250Y-22827500D01*
X15340125Y-19527000D02*
X15370125Y-19557000D01*
X15370125Y-19527000D02*
X15340125Y-19557000D01*
X16145750Y-19701875D02*
X16175750Y-19731875D01*
X16175750Y-19701875D02*
X16145750Y-19731875D01*
X17098250Y-23016750D02*
X17128250Y-23046750D01*
X17128250Y-23016750D02*
X17098250Y-23046750D01*
X17098250Y-23273750D02*
X17128250Y-23303750D01*
X17128250Y-23273750D02*
X17098250Y-23303750D01*
X17940125Y-23058750D02*
X17970125Y-23088750D01*
X17970125Y-23058750D02*
X17940125Y-23088750D01*
X19003250Y-19463750D02*
X19033250Y-19493750D01*
X19033250Y-19463750D02*
X19003250Y-19493750D01*
X19003250Y-19701875D02*
X19033250Y-19731875D01*
X19033250Y-19701875D02*
X19003250Y-19731875D01*
X19003250Y-19940000D02*
X19033250Y-19970000D01*
X19033250Y-19940000D02*
X19003250Y-19970000D01*
X19717625Y-19225625D02*
X19747625Y-19255625D01*
X19747625Y-19225625D02*
X19717625Y-19255625D01*
X20670125Y-22579375D02*
X20700125Y-22609375D01*
X20700125Y-22579375D02*
X20670125Y-22609375D01*
X21146375Y-22559375D02*
X21176375Y-22589375D01*
X21176375Y-22559375D02*
X21146375Y-22589375D01*
X21157371Y-23056750D02*
X21187371Y-23086750D01*
X21187371Y-23056750D02*
X21157371Y-23086750D01*
X23289500Y-23016750D02*
X23319500Y-23046750D01*
X23319500Y-23016750D02*
X23289500Y-23046750D01*
X23289500Y-23273750D02*
X23319500Y-23303750D01*
X23319500Y-23273750D02*
X23289500Y-23303750D01*
X24242000Y-22559375D02*
X24272000Y-22589375D01*
X24272000Y-22559375D02*
X24242000Y-22589375D01*
X24718250Y-19683000D02*
X24748250Y-19713000D01*
X24748250Y-19683000D02*
X24718250Y-19713000D01*
X24718250Y-19843000D02*
X24748250Y-19873000D01*
X24748250Y-19843000D02*
X24718250Y-19873000D01*
X25511375Y-19679000D02*
X25541375Y-19709000D01*
X25541375Y-19679000D02*
X25511375Y-19709000D01*
X25688404Y-19707648D02*
X25718404Y-19737648D01*
X25718404Y-19707648D02*
X25688404Y-19737648D01*
X26385125Y-22797500D02*
X26415125Y-22827500D01*
X26415125Y-22797500D02*
X26385125Y-22827500D01*
X26623250Y-22797500D02*
X26653250Y-22827500D01*
X26653250Y-22797500D02*
X26623250Y-22827500D01*
X27337625Y-22559375D02*
X27367625Y-22589375D01*
X27367625Y-22559375D02*
X27337625Y-22589375D01*
X28528250Y-19683000D02*
X28558250Y-19713000D01*
X28558250Y-19683000D02*
X28528250Y-19713000D01*
X28528250Y-19883000D02*
X28558250Y-19913000D01*
X28558250Y-19883000D02*
X28528250Y-19913000D01*
X29321375Y-19679000D02*
X29351375Y-19709000D01*
X29351375Y-19679000D02*
X29321375Y-19709000D01*
X29497051Y-19718177D02*
X29527051Y-19748177D01*
X29527051Y-19718177D02*
X29497051Y-19748177D01*
X30433250Y-23016750D02*
X30463250Y-23046750D01*
X30463250Y-23016750D02*
X30433250Y-23046750D01*
X30433250Y-23273750D02*
X30463250Y-23303750D01*
X30463250Y-23273750D02*
X30433250Y-23303750D01*
X31226375Y-23012750D02*
X31256375Y-23042750D01*
X31256375Y-23012750D02*
X31226375Y-23042750D01*
X31623875Y-22559375D02*
X31653875Y-22589375D01*
X31653875Y-22559375D02*
X31623875Y-22589375D01*
X32100125Y-19683000D02*
X32130125Y-19713000D01*
X32130125Y-19683000D02*
X32100125Y-19713000D01*
X32100125Y-20841250D02*
X32130125Y-20871250D01*
X32130125Y-20841250D02*
X32100125Y-20871250D01*
X32100125Y-22797500D02*
X32130125Y-22827500D01*
X32130125Y-22797500D02*
X32100125Y-22827500D01*
X33052625Y-19772500D02*
X33082625Y-19802500D01*
X33082625Y-19772500D02*
X33052625Y-19802500D01*
X33767000Y-22797500D02*
X33797000Y-22827500D01*
X33797000Y-22797500D02*
X33767000Y-22827500D01*
X34481375Y-22559375D02*
X34511375Y-22589375D01*
X34511375Y-22559375D02*
X34481375Y-22589375D01*
X34527123Y-23021998D02*
X34557123Y-23051998D01*
X34557123Y-23021998D02*
X34527123Y-23051998D01*
X36148250Y-23016750D02*
X36178250Y-23046750D01*
X36178250Y-23016750D02*
X36148250Y-23046750D01*
X7831625Y-17256000D02*
G75*
G02*
X7757625Y-17256000I-37000J0D01*
G01*
X7757625Y-17256000D02*
G75*
G02*
X7831625Y-17256000I37000J0D01*
G01*
X7831625Y-18050000D02*
G75*
G02*
X7757625Y-18050000I-37000J0D01*
G01*
X7757625Y-18050000D02*
G75*
G02*
X7831625Y-18050000I37000J0D01*
G01*
X8085625Y-17256000D02*
G75*
G02*
X8011625Y-17256000I-37000J0D01*
G01*
X8011625Y-17256000D02*
G75*
G02*
X8085625Y-17256000I37000J0D01*
G01*
X8085625Y-18050000D02*
G75*
G02*
X8011625Y-18050000I-37000J0D01*
G01*
X8011625Y-18050000D02*
G75*
G02*
X8085625Y-18050000I37000J0D01*
G01*
X8339625Y-17256000D02*
G75*
G02*
X8265625Y-17256000I-37000J0D01*
G01*
X8265625Y-17256000D02*
G75*
G02*
X8339625Y-17256000I37000J0D01*
G01*
X8339625Y-18050000D02*
G75*
G02*
X8265625Y-18050000I-37000J0D01*
G01*
X8265625Y-18050000D02*
G75*
G02*
X8339625Y-18050000I37000J0D01*
G01*
X8593625Y-17256000D02*
G75*
G02*
X8519625Y-17256000I-37000J0D01*
G01*
X8519625Y-17256000D02*
G75*
G02*
X8593625Y-17256000I37000J0D01*
G01*
X8593625Y-18050000D02*
G75*
G02*
X8519625Y-18050000I-37000J0D01*
G01*
X8519625Y-18050000D02*
G75*
G02*
X8593625Y-18050000I37000J0D01*
G01*
X8847625Y-17256000D02*
G75*
G02*
X8773625Y-17256000I-37000J0D01*
G01*
X8773625Y-17256000D02*
G75*
G02*
X8847625Y-17256000I37000J0D01*
G01*
X8847625Y-18050000D02*
G75*
G02*
X8773625Y-18050000I-37000J0D01*
G01*
X8773625Y-18050000D02*
G75*
G02*
X8847625Y-18050000I37000J0D01*
G01*
X9101625Y-17256000D02*
G75*
G02*
X9027625Y-17256000I-37000J0D01*
G01*
X9027625Y-17256000D02*
G75*
G02*
X9101625Y-17256000I37000J0D01*
G01*
X9101625Y-18050000D02*
G75*
G02*
X9027625Y-18050000I-37000J0D01*
G01*
X9027625Y-18050000D02*
G75*
G02*
X9101625Y-18050000I37000J0D01*
G01*
X9355625Y-17256000D02*
G75*
G02*
X9281625Y-17256000I-37000J0D01*
G01*
X9281625Y-17256000D02*
G75*
G02*
X9355625Y-17256000I37000J0D01*
G01*
X9355625Y-18050000D02*
G75*
G02*
X9281625Y-18050000I-37000J0D01*
G01*
X9281625Y-18050000D02*
G75*
G02*
X9355625Y-18050000I37000J0D01*
G01*
X8556625Y-19041750D02*
X8556625Y-19121750D01*
X8516625Y-19081750D02*
X8596625Y-19081750D01*
X8556625Y-19803750D02*
X8556625Y-19883750D01*
X8516625Y-19843750D02*
X8596625Y-19843750D01*
X8556625Y-20946750D02*
X8556625Y-21026750D01*
X8516625Y-20986750D02*
X8596625Y-20986750D01*
X8556625Y-21708750D02*
X8556625Y-21788750D01*
X8516625Y-21748750D02*
X8596625Y-21748750D01*
X10461625Y-19041750D02*
X10461625Y-19121750D01*
X10421625Y-19081750D02*
X10501625Y-19081750D01*
X10461625Y-19803750D02*
X10461625Y-19883750D01*
X10421625Y-19843750D02*
X10501625Y-19843750D01*
X10461625Y-20946750D02*
X10461625Y-21026750D01*
X10421625Y-20986750D02*
X10501625Y-20986750D01*
X10461625Y-21708750D02*
X10461625Y-21788750D01*
X10421625Y-21748750D02*
X10501625Y-21748750D01*
X14747875Y-19994250D02*
X14747875Y-20074250D01*
X14707875Y-20034250D02*
X14787875Y-20034250D01*
X14747875Y-20756250D02*
X14747875Y-20836250D01*
X14707875Y-20796250D02*
X14787875Y-20796250D01*
X16652875Y-16660500D02*
X16652875Y-16740500D01*
X16612875Y-16700500D02*
X16692875Y-16700500D01*
X16652875Y-17422500D02*
X16652875Y-17502500D01*
X16612875Y-17462500D02*
X16692875Y-17462500D01*
X18557875Y-19994250D02*
X18557875Y-20074250D01*
X18517875Y-20034250D02*
X18597875Y-20034250D01*
X18557875Y-20756250D02*
X18557875Y-20836250D01*
X18517875Y-20796250D02*
X18597875Y-20796250D01*
X20462875Y-16660500D02*
X20462875Y-16740500D01*
X20422875Y-16700500D02*
X20502875Y-16700500D01*
X20462875Y-17422500D02*
X20462875Y-17502500D01*
X20422875Y-17462500D02*
X20502875Y-17462500D01*
X22367875Y-19994250D02*
X22367875Y-20074250D01*
X22327875Y-20034250D02*
X22407875Y-20034250D01*
X22367875Y-20756250D02*
X22367875Y-20836250D01*
X22327875Y-20796250D02*
X22407875Y-20796250D01*
X24272875Y-19994250D02*
X24272875Y-20074250D01*
X24232875Y-20034250D02*
X24312875Y-20034250D01*
X24272875Y-20756250D02*
X24272875Y-20836250D01*
X24232875Y-20796250D02*
X24312875Y-20796250D01*
X26177875Y-16660500D02*
X26177875Y-16740500D01*
X26137875Y-16700500D02*
X26217875Y-16700500D01*
X26177875Y-17422500D02*
X26177875Y-17502500D01*
X26137875Y-17462500D02*
X26217875Y-17462500D01*
X28082875Y-19994250D02*
X28082875Y-20074250D01*
X28042875Y-20034250D02*
X28122875Y-20034250D01*
X28082875Y-20756250D02*
X28082875Y-20836250D01*
X28042875Y-20796250D02*
X28122875Y-20796250D01*
X29987875Y-16660500D02*
X29987875Y-16740500D01*
X29947875Y-16700500D02*
X30027875Y-16700500D01*
X29987875Y-17422500D02*
X29987875Y-17502500D01*
X29947875Y-17462500D02*
X30027875Y-17462500D01*
X31892875Y-19994250D02*
X31892875Y-20074250D01*
X31852875Y-20034250D02*
X31932875Y-20034250D01*
X31892875Y-20756250D02*
X31892875Y-20836250D01*
X31852875Y-20796250D02*
X31932875Y-20796250D01*
X33797875Y-16660500D02*
X33797875Y-16740500D01*
X33757875Y-16700500D02*
X33837875Y-16700500D01*
X33797875Y-17422500D02*
X33797875Y-17502500D01*
X33757875Y-17462500D02*
X33837875Y-17462500D01*
X35702875Y-19994250D02*
X35702875Y-20074250D01*
X35662875Y-20034250D02*
X35742875Y-20034250D01*
X35702875Y-20756250D02*
X35702875Y-20836250D01*
X35662875Y-20796250D02*
X35742875Y-20796250D01*
X37607875Y-19994250D02*
X37607875Y-20074250D01*
X37567875Y-20034250D02*
X37647875Y-20034250D01*
X37607875Y-20756250D02*
X37607875Y-20836250D01*
X37567875Y-20796250D02*
X37647875Y-20796250D01*
D15*
X5505688Y-14815813D02*
X5505688Y-14743687D01*
X5433562Y-14743687D01*
X5433562Y-14815813D01*
X5505688Y-14815813D01*
X5505688Y-16593813D02*
X5505688Y-16521687D01*
X5433562Y-16521687D01*
X5433562Y-16593813D01*
X5505688Y-16593813D01*
X5759688Y-14815813D02*
X5759688Y-14743687D01*
X5687562Y-14743687D01*
X5687562Y-14815813D01*
X5759688Y-14815813D01*
X5759688Y-16593813D02*
X5759688Y-16521687D01*
X5687562Y-16521687D01*
X5687562Y-16593813D01*
X5759688Y-16593813D01*
X6013688Y-14815813D02*
X6013688Y-14743687D01*
X5941562Y-14743687D01*
X5941562Y-14815813D01*
X6013688Y-14815813D01*
X6013688Y-16593813D02*
X6013688Y-16521687D01*
X5941562Y-16521687D01*
X5941562Y-16593813D01*
X6013688Y-16593813D01*
X6267688Y-14815813D02*
X6267688Y-14743687D01*
X6195562Y-14743687D01*
X6195562Y-14815813D01*
X6267688Y-14815813D01*
X6267688Y-16593813D02*
X6267688Y-16521687D01*
X6195562Y-16521687D01*
X6195562Y-16593813D01*
X6267688Y-16593813D01*
X6521688Y-14815813D02*
X6521688Y-14743687D01*
X6449562Y-14743687D01*
X6449562Y-14815813D01*
X6521688Y-14815813D01*
X6521688Y-16593813D02*
X6521688Y-16521687D01*
X6449562Y-16521687D01*
X6449562Y-16593813D01*
X6521688Y-16593813D01*
X6775688Y-14815813D02*
X6775688Y-14743687D01*
X6703562Y-14743687D01*
X6703562Y-14815813D01*
X6775688Y-14815813D01*
X6775688Y-16593813D02*
X6775688Y-16521687D01*
X6703562Y-16521687D01*
X6703562Y-16593813D01*
X6775688Y-16593813D01*
X7029688Y-14815813D02*
X7029688Y-14743687D01*
X6957562Y-14743687D01*
X6957562Y-14815813D01*
X7029688Y-14815813D01*
X7029688Y-16593813D02*
X7029688Y-16521687D01*
X6957562Y-16521687D01*
X6957562Y-16593813D01*
X7029688Y-16593813D01*
X7283688Y-14815813D02*
X7283688Y-14743687D01*
X7211562Y-14743687D01*
X7211562Y-14815813D01*
X7283688Y-14815813D01*
X7283688Y-16593813D02*
X7283688Y-16521687D01*
X7211562Y-16521687D01*
X7211562Y-16593813D01*
X7283688Y-16593813D01*
X7537688Y-14815813D02*
X7537688Y-14743687D01*
X7465562Y-14743687D01*
X7465562Y-14815813D01*
X7537688Y-14815813D01*
X7537688Y-16593813D02*
X7537688Y-16521687D01*
X7465562Y-16521687D01*
X7465562Y-16593813D01*
X7537688Y-16593813D01*
X7791688Y-14815813D02*
X7791688Y-14743687D01*
X7719562Y-14743687D01*
X7719562Y-14815813D01*
X7791688Y-14815813D01*
X7791688Y-16593813D02*
X7791688Y-16521687D01*
X7719562Y-16521687D01*
X7719562Y-16593813D01*
X7791688Y-16593813D01*
X8045688Y-14815813D02*
X8045688Y-14743687D01*
X7973562Y-14743687D01*
X7973562Y-14815813D01*
X8045688Y-14815813D01*
X8045688Y-16593813D02*
X8045688Y-16521687D01*
X7973562Y-16521687D01*
X7973562Y-16593813D01*
X8045688Y-16593813D01*
X8299688Y-14815813D02*
X8299688Y-14743687D01*
X8227562Y-14743687D01*
X8227562Y-14815813D01*
X8299688Y-14815813D01*
X8299688Y-16593813D02*
X8299688Y-16521687D01*
X8227562Y-16521687D01*
X8227562Y-16593813D01*
X8299688Y-16593813D01*
X8553688Y-14815813D02*
X8553688Y-14743687D01*
X8481562Y-14743687D01*
X8481562Y-14815813D01*
X8553688Y-14815813D01*
X8553688Y-16593813D02*
X8553688Y-16521687D01*
X8481562Y-16521687D01*
X8481562Y-16593813D01*
X8553688Y-16593813D01*
X8807688Y-14815813D02*
X8807688Y-14743687D01*
X8735562Y-14743687D01*
X8735562Y-14815813D01*
X8807688Y-14815813D01*
X8807688Y-16593813D02*
X8807688Y-16521687D01*
X8735562Y-16521687D01*
X8735562Y-16593813D01*
X8807688Y-16593813D01*
X9061688Y-14815813D02*
X9061688Y-14743687D01*
X8989562Y-14743687D01*
X8989562Y-14815813D01*
X9061688Y-14815813D01*
X9061688Y-16593813D02*
X9061688Y-16521687D01*
X8989562Y-16521687D01*
X8989562Y-16593813D01*
X9061688Y-16593813D01*
X9315688Y-14815813D02*
X9315688Y-14743687D01*
X9243562Y-14743687D01*
X9243562Y-14815813D01*
X9315688Y-14815813D01*
X9315688Y-16593813D02*
X9315688Y-16521687D01*
X9243562Y-16521687D01*
X9243562Y-16593813D01*
X9315688Y-16593813D01*
X9569688Y-14815813D02*
X9569688Y-14743687D01*
X9497562Y-14743687D01*
X9497562Y-14815813D01*
X9569688Y-14815813D01*
X9569688Y-16593813D02*
X9569688Y-16521687D01*
X9497562Y-16521687D01*
X9497562Y-16593813D01*
X9569688Y-16593813D01*
X9823688Y-14815813D02*
X9823688Y-14743687D01*
X9751562Y-14743687D01*
X9751562Y-14815813D01*
X9823688Y-14815813D01*
X9823688Y-16593813D02*
X9823688Y-16521687D01*
X9751562Y-16521687D01*
X9751562Y-16593813D01*
X9823688Y-16593813D01*
X10077688Y-14815813D02*
X10077688Y-14743687D01*
X10005562Y-14743687D01*
X10005562Y-14815813D01*
X10077688Y-14815813D01*
X10077688Y-16593813D02*
X10077688Y-16521687D01*
X10005562Y-16521687D01*
X10005562Y-16593813D01*
X10077688Y-16593813D01*
X10308688Y-15450813D02*
X10308688Y-15378687D01*
X10236562Y-15378687D01*
X10236562Y-15450813D01*
X10308688Y-15450813D01*
X10308688Y-15704813D02*
X10308688Y-15632687D01*
X10236562Y-15632687D01*
X10236562Y-15704813D01*
X10308688Y-15704813D01*
X10308688Y-15958813D02*
X10308688Y-15886687D01*
X10236562Y-15886687D01*
X10236562Y-15958813D01*
X10308688Y-15958813D01*
X10331688Y-14815813D02*
X10331688Y-14743687D01*
X10259562Y-14743687D01*
X10259562Y-14815813D01*
X10331688Y-14815813D01*
X10331688Y-16593813D02*
X10331688Y-16521687D01*
X10259562Y-16521687D01*
X10259562Y-16593813D01*
X10331688Y-16593813D01*
D16*
X7223125Y-19379000D02*
X7298125Y-19304000D01*
X7223125Y-19229000D01*
X7148125Y-19304000D01*
X7223125Y-19379000D01*
X7223125Y-21284000D02*
X7298125Y-21209000D01*
X7223125Y-21134000D01*
X7148125Y-21209000D01*
X7223125Y-21284000D01*
X7858125Y-19125000D02*
X7933125Y-19050000D01*
X7858125Y-18975000D01*
X7783125Y-19050000D01*
X7858125Y-19125000D01*
X7858125Y-21030000D02*
X7933125Y-20955000D01*
X7858125Y-20880000D01*
X7783125Y-20955000D01*
X7858125Y-21030000D01*
X9128125Y-19379000D02*
X9203125Y-19304000D01*
X9128125Y-19229000D01*
X9053125Y-19304000D01*
X9128125Y-19379000D01*
X9128125Y-21284000D02*
X9203125Y-21209000D01*
X9128125Y-21134000D01*
X9053125Y-21209000D01*
X9128125Y-21284000D01*
X9763125Y-19125000D02*
X9838125Y-19050000D01*
X9763125Y-18975000D01*
X9688125Y-19050000D01*
X9763125Y-19125000D01*
X9763125Y-21030000D02*
X9838125Y-20955000D01*
X9763125Y-20880000D01*
X9688125Y-20955000D01*
X9763125Y-21030000D01*
X13414375Y-20331500D02*
X13489375Y-20256500D01*
X13414375Y-20181500D01*
X13339375Y-20256500D01*
X13414375Y-20331500D01*
X14049375Y-20077500D02*
X14124375Y-20002500D01*
X14049375Y-19927500D01*
X13974375Y-20002500D01*
X14049375Y-20077500D01*
X15319375Y-16997750D02*
X15394375Y-16922750D01*
X15319375Y-16847750D01*
X15244375Y-16922750D01*
X15319375Y-16997750D01*
X15954375Y-16743750D02*
X16029375Y-16668750D01*
X15954375Y-16593750D01*
X15879375Y-16668750D01*
X15954375Y-16743750D01*
X17224375Y-20331500D02*
X17299375Y-20256500D01*
X17224375Y-20181500D01*
X17149375Y-20256500D01*
X17224375Y-20331500D01*
X17859375Y-20077500D02*
X17934375Y-20002500D01*
X17859375Y-19927500D01*
X17784375Y-20002500D01*
X17859375Y-20077500D01*
X19129375Y-16997750D02*
X19204375Y-16922750D01*
X19129375Y-16847750D01*
X19054375Y-16922750D01*
X19129375Y-16997750D01*
X19764375Y-16743750D02*
X19839375Y-16668750D01*
X19764375Y-16593750D01*
X19689375Y-16668750D01*
X19764375Y-16743750D01*
X21034375Y-20331500D02*
X21109375Y-20256500D01*
X21034375Y-20181500D01*
X20959375Y-20256500D01*
X21034375Y-20331500D01*
X21669375Y-20077500D02*
X21744375Y-20002500D01*
X21669375Y-19927500D01*
X21594375Y-20002500D01*
X21669375Y-20077500D01*
X22939375Y-20331500D02*
X23014375Y-20256500D01*
X22939375Y-20181500D01*
X22864375Y-20256500D01*
X22939375Y-20331500D01*
X23574375Y-20077500D02*
X23649375Y-20002500D01*
X23574375Y-19927500D01*
X23499375Y-20002500D01*
X23574375Y-20077500D01*
X24844375Y-16997750D02*
X24919375Y-16922750D01*
X24844375Y-16847750D01*
X24769375Y-16922750D01*
X24844375Y-16997750D01*
X25479375Y-16743750D02*
X25554375Y-16668750D01*
X25479375Y-16593750D01*
X25404375Y-16668750D01*
X25479375Y-16743750D01*
X26749375Y-20331500D02*
X26824375Y-20256500D01*
X26749375Y-20181500D01*
X26674375Y-20256500D01*
X26749375Y-20331500D01*
X27384375Y-20077500D02*
X27459375Y-20002500D01*
X27384375Y-19927500D01*
X27309375Y-20002500D01*
X27384375Y-20077500D01*
X28654375Y-16997750D02*
X28729375Y-16922750D01*
X28654375Y-16847750D01*
X28579375Y-16922750D01*
X28654375Y-16997750D01*
X29289375Y-16743750D02*
X29364375Y-16668750D01*
X29289375Y-16593750D01*
X29214375Y-16668750D01*
X29289375Y-16743750D01*
X30559375Y-20331500D02*
X30634375Y-20256500D01*
X30559375Y-20181500D01*
X30484375Y-20256500D01*
X30559375Y-20331500D01*
X31194375Y-20077500D02*
X31269375Y-20002500D01*
X31194375Y-19927500D01*
X31119375Y-20002500D01*
X31194375Y-20077500D01*
X32464375Y-16997750D02*
X32539375Y-16922750D01*
X32464375Y-16847750D01*
X32389375Y-16922750D01*
X32464375Y-16997750D01*
X33099375Y-16743750D02*
X33174375Y-16668750D01*
X33099375Y-16593750D01*
X33024375Y-16668750D01*
X33099375Y-16743750D01*
X34369375Y-20331500D02*
X34444375Y-20256500D01*
X34369375Y-20181500D01*
X34294375Y-20256500D01*
X34369375Y-20331500D01*
X35004375Y-20077500D02*
X35079375Y-20002500D01*
X35004375Y-19927500D01*
X34929375Y-20002500D01*
X35004375Y-20077500D01*
X36274375Y-20331500D02*
X36349375Y-20256500D01*
X36274375Y-20181500D01*
X36199375Y-20256500D01*
X36274375Y-20331500D01*
X36909375Y-20077500D02*
X36984375Y-20002500D01*
X36909375Y-19927500D01*
X36834375Y-20002500D01*
X36909375Y-20077500D01*
D13*
X5440902Y-25269609D02*
X5440902Y-25069609D01*
X5440902Y-25069609D02*
X5488521Y-25069609D01*
X5488521Y-25069609D02*
X5517092Y-25079133D01*
X5517092Y-25079133D02*
X5536140Y-25098180D01*
X5536140Y-25098180D02*
X5545664Y-25117228D01*
X5545664Y-25117228D02*
X5555188Y-25155323D01*
X5555188Y-25155323D02*
X5555188Y-25183894D01*
X5555188Y-25183894D02*
X5545664Y-25221990D01*
X5545664Y-25221990D02*
X5536140Y-25241037D01*
X5536140Y-25241037D02*
X5517092Y-25260085D01*
X5517092Y-25260085D02*
X5488521Y-25269609D01*
X5488521Y-25269609D02*
X5440902Y-25269609D01*
X5640902Y-25269609D02*
X5640902Y-25136275D01*
X5640902Y-25174371D02*
X5650426Y-25155323D01*
X5650426Y-25155323D02*
X5659949Y-25145799D01*
X5659949Y-25145799D02*
X5678997Y-25136275D01*
X5678997Y-25136275D02*
X5698045Y-25136275D01*
X5764711Y-25269609D02*
X5764711Y-25136275D01*
X5764711Y-25069609D02*
X5755187Y-25079133D01*
X5755187Y-25079133D02*
X5764711Y-25088656D01*
X5764711Y-25088656D02*
X5774235Y-25079133D01*
X5774235Y-25079133D02*
X5764711Y-25069609D01*
X5764711Y-25069609D02*
X5764711Y-25088656D01*
X5888521Y-25269609D02*
X5869473Y-25260085D01*
X5869473Y-25260085D02*
X5859949Y-25241037D01*
X5859949Y-25241037D02*
X5859949Y-25069609D01*
X5993283Y-25269609D02*
X5974235Y-25260085D01*
X5974235Y-25260085D02*
X5964711Y-25241037D01*
X5964711Y-25241037D02*
X5964711Y-25069609D01*
X6221854Y-25269609D02*
X6221854Y-25069609D01*
X6221854Y-25069609D02*
X6288521Y-25212466D01*
X6288521Y-25212466D02*
X6355187Y-25069609D01*
X6355187Y-25069609D02*
X6355187Y-25269609D01*
X6536140Y-25269609D02*
X6536140Y-25164847D01*
X6536140Y-25164847D02*
X6526616Y-25145799D01*
X6526616Y-25145799D02*
X6507568Y-25136275D01*
X6507568Y-25136275D02*
X6469473Y-25136275D01*
X6469473Y-25136275D02*
X6450426Y-25145799D01*
X6536140Y-25260085D02*
X6517092Y-25269609D01*
X6517092Y-25269609D02*
X6469473Y-25269609D01*
X6469473Y-25269609D02*
X6450426Y-25260085D01*
X6450426Y-25260085D02*
X6440902Y-25241037D01*
X6440902Y-25241037D02*
X6440902Y-25221990D01*
X6440902Y-25221990D02*
X6450426Y-25202942D01*
X6450426Y-25202942D02*
X6469473Y-25193418D01*
X6469473Y-25193418D02*
X6517092Y-25193418D01*
X6517092Y-25193418D02*
X6536140Y-25183894D01*
X6631378Y-25136275D02*
X6631378Y-25336275D01*
X6631378Y-25145799D02*
X6650426Y-25136275D01*
X6650426Y-25136275D02*
X6688521Y-25136275D01*
X6688521Y-25136275D02*
X6707568Y-25145799D01*
X6707568Y-25145799D02*
X6717092Y-25155323D01*
X6717092Y-25155323D02*
X6726616Y-25174371D01*
X6726616Y-25174371D02*
X6726616Y-25231513D01*
X6726616Y-25231513D02*
X6717092Y-25250561D01*
X6717092Y-25250561D02*
X6707568Y-25260085D01*
X6707568Y-25260085D02*
X6688521Y-25269609D01*
X6688521Y-25269609D02*
X6650426Y-25269609D01*
X6650426Y-25269609D02*
X6631378Y-25260085D01*
X6812330Y-25250561D02*
X6821854Y-25260085D01*
X6821854Y-25260085D02*
X6812330Y-25269609D01*
X6812330Y-25269609D02*
X6802807Y-25260085D01*
X6802807Y-25260085D02*
X6812330Y-25250561D01*
X6812330Y-25250561D02*
X6812330Y-25269609D01*
X6812330Y-25145799D02*
X6821854Y-25155323D01*
X6821854Y-25155323D02*
X6812330Y-25164847D01*
X6812330Y-25164847D02*
X6802807Y-25155323D01*
X6802807Y-25155323D02*
X6812330Y-25145799D01*
X6812330Y-25145799D02*
X6812330Y-25164847D01*
D14*
X5150125Y-25583125D02*
X5180125Y-25613125D01*
X5180125Y-25583125D02*
X5150125Y-25613125D01*
D13*
X5478997Y-25489609D02*
X5498045Y-25489609D01*
X5498045Y-25489609D02*
X5517092Y-25499133D01*
X5517092Y-25499133D02*
X5526616Y-25508656D01*
X5526616Y-25508656D02*
X5536140Y-25527704D01*
X5536140Y-25527704D02*
X5545664Y-25565799D01*
X5545664Y-25565799D02*
X5545664Y-25613418D01*
X5545664Y-25613418D02*
X5536140Y-25651513D01*
X5536140Y-25651513D02*
X5526616Y-25670561D01*
X5526616Y-25670561D02*
X5517092Y-25680085D01*
X5517092Y-25680085D02*
X5498045Y-25689609D01*
X5498045Y-25689609D02*
X5478997Y-25689609D01*
X5478997Y-25689609D02*
X5459949Y-25680085D01*
X5459949Y-25680085D02*
X5450426Y-25670561D01*
X5450426Y-25670561D02*
X5440902Y-25651513D01*
X5440902Y-25651513D02*
X5431378Y-25613418D01*
X5431378Y-25613418D02*
X5431378Y-25565799D01*
X5431378Y-25565799D02*
X5440902Y-25527704D01*
X5440902Y-25527704D02*
X5450426Y-25508656D01*
X5450426Y-25508656D02*
X5459949Y-25499133D01*
X5459949Y-25499133D02*
X5478997Y-25489609D01*
X5631378Y-25670561D02*
X5640902Y-25680085D01*
X5640902Y-25680085D02*
X5631378Y-25689609D01*
X5631378Y-25689609D02*
X5621854Y-25680085D01*
X5621854Y-25680085D02*
X5631378Y-25670561D01*
X5631378Y-25670561D02*
X5631378Y-25689609D01*
X5707568Y-25489609D02*
X5831378Y-25489609D01*
X5831378Y-25489609D02*
X5764711Y-25565799D01*
X5764711Y-25565799D02*
X5793283Y-25565799D01*
X5793283Y-25565799D02*
X5812330Y-25575323D01*
X5812330Y-25575323D02*
X5821854Y-25584847D01*
X5821854Y-25584847D02*
X5831378Y-25603894D01*
X5831378Y-25603894D02*
X5831378Y-25651513D01*
X5831378Y-25651513D02*
X5821854Y-25670561D01*
X5821854Y-25670561D02*
X5812330Y-25680085D01*
X5812330Y-25680085D02*
X5793283Y-25689609D01*
X5793283Y-25689609D02*
X5736140Y-25689609D01*
X5736140Y-25689609D02*
X5717092Y-25680085D01*
X5717092Y-25680085D02*
X5707568Y-25670561D01*
X5955187Y-25489609D02*
X5974235Y-25489609D01*
X5974235Y-25489609D02*
X5993283Y-25499133D01*
X5993283Y-25499133D02*
X6002807Y-25508656D01*
X6002807Y-25508656D02*
X6012330Y-25527704D01*
X6012330Y-25527704D02*
X6021854Y-25565799D01*
X6021854Y-25565799D02*
X6021854Y-25613418D01*
X6021854Y-25613418D02*
X6012330Y-25651513D01*
X6012330Y-25651513D02*
X6002807Y-25670561D01*
X6002807Y-25670561D02*
X5993283Y-25680085D01*
X5993283Y-25680085D02*
X5974235Y-25689609D01*
X5974235Y-25689609D02*
X5955187Y-25689609D01*
X5955187Y-25689609D02*
X5936140Y-25680085D01*
X5936140Y-25680085D02*
X5926616Y-25670561D01*
X5926616Y-25670561D02*
X5917092Y-25651513D01*
X5917092Y-25651513D02*
X5907568Y-25613418D01*
X5907568Y-25613418D02*
X5907568Y-25565799D01*
X5907568Y-25565799D02*
X5917092Y-25527704D01*
X5917092Y-25527704D02*
X5926616Y-25508656D01*
X5926616Y-25508656D02*
X5936140Y-25499133D01*
X5936140Y-25499133D02*
X5955187Y-25489609D01*
X6145664Y-25489609D02*
X6164711Y-25489609D01*
X6164711Y-25489609D02*
X6183759Y-25499133D01*
X6183759Y-25499133D02*
X6193283Y-25508656D01*
X6193283Y-25508656D02*
X6202807Y-25527704D01*
X6202807Y-25527704D02*
X6212330Y-25565799D01*
X6212330Y-25565799D02*
X6212330Y-25613418D01*
X6212330Y-25613418D02*
X6202807Y-25651513D01*
X6202807Y-25651513D02*
X6193283Y-25670561D01*
X6193283Y-25670561D02*
X6183759Y-25680085D01*
X6183759Y-25680085D02*
X6164711Y-25689609D01*
X6164711Y-25689609D02*
X6145664Y-25689609D01*
X6145664Y-25689609D02*
X6126616Y-25680085D01*
X6126616Y-25680085D02*
X6117092Y-25670561D01*
X6117092Y-25670561D02*
X6107568Y-25651513D01*
X6107568Y-25651513D02*
X6098045Y-25613418D01*
X6098045Y-25613418D02*
X6098045Y-25565799D01*
X6098045Y-25565799D02*
X6107568Y-25527704D01*
X6107568Y-25527704D02*
X6117092Y-25508656D01*
X6117092Y-25508656D02*
X6126616Y-25499133D01*
X6126616Y-25499133D02*
X6145664Y-25489609D01*
X6298045Y-25689609D02*
X6298045Y-25556275D01*
X6298045Y-25575323D02*
X6307568Y-25565799D01*
X6307568Y-25565799D02*
X6326616Y-25556275D01*
X6326616Y-25556275D02*
X6355188Y-25556275D01*
X6355188Y-25556275D02*
X6374235Y-25565799D01*
X6374235Y-25565799D02*
X6383759Y-25584847D01*
X6383759Y-25584847D02*
X6383759Y-25689609D01*
X6383759Y-25584847D02*
X6393283Y-25565799D01*
X6393283Y-25565799D02*
X6412330Y-25556275D01*
X6412330Y-25556275D02*
X6440902Y-25556275D01*
X6440902Y-25556275D02*
X6459949Y-25565799D01*
X6459949Y-25565799D02*
X6469473Y-25584847D01*
X6469473Y-25584847D02*
X6469473Y-25689609D01*
X6564711Y-25689609D02*
X6564711Y-25556275D01*
X6564711Y-25575323D02*
X6574235Y-25565799D01*
X6574235Y-25565799D02*
X6593283Y-25556275D01*
X6593283Y-25556275D02*
X6621854Y-25556275D01*
X6621854Y-25556275D02*
X6640902Y-25565799D01*
X6640902Y-25565799D02*
X6650426Y-25584847D01*
X6650426Y-25584847D02*
X6650426Y-25689609D01*
X6650426Y-25584847D02*
X6659949Y-25565799D01*
X6659949Y-25565799D02*
X6678997Y-25556275D01*
X6678997Y-25556275D02*
X6707568Y-25556275D01*
X6707568Y-25556275D02*
X6726616Y-25565799D01*
X6726616Y-25565799D02*
X6736140Y-25584847D01*
X6736140Y-25584847D02*
X6736140Y-25689609D01*
X7126616Y-25480085D02*
X6955188Y-25737228D01*
X7383759Y-25489609D02*
X7402807Y-25489609D01*
X7402807Y-25489609D02*
X7421854Y-25499133D01*
X7421854Y-25499133D02*
X7431378Y-25508656D01*
X7431378Y-25508656D02*
X7440902Y-25527704D01*
X7440902Y-25527704D02*
X7450426Y-25565799D01*
X7450426Y-25565799D02*
X7450426Y-25613418D01*
X7450426Y-25613418D02*
X7440902Y-25651513D01*
X7440902Y-25651513D02*
X7431378Y-25670561D01*
X7431378Y-25670561D02*
X7421854Y-25680085D01*
X7421854Y-25680085D02*
X7402807Y-25689609D01*
X7402807Y-25689609D02*
X7383759Y-25689609D01*
X7383759Y-25689609D02*
X7364711Y-25680085D01*
X7364711Y-25680085D02*
X7355188Y-25670561D01*
X7355188Y-25670561D02*
X7345664Y-25651513D01*
X7345664Y-25651513D02*
X7336140Y-25613418D01*
X7336140Y-25613418D02*
X7336140Y-25565799D01*
X7336140Y-25565799D02*
X7345664Y-25527704D01*
X7345664Y-25527704D02*
X7355188Y-25508656D01*
X7355188Y-25508656D02*
X7364711Y-25499133D01*
X7364711Y-25499133D02*
X7383759Y-25489609D01*
X7536140Y-25670561D02*
X7545664Y-25680085D01*
X7545664Y-25680085D02*
X7536140Y-25689609D01*
X7536140Y-25689609D02*
X7526616Y-25680085D01*
X7526616Y-25680085D02*
X7536140Y-25670561D01*
X7536140Y-25670561D02*
X7536140Y-25689609D01*
X7669473Y-25489609D02*
X7688521Y-25489609D01*
X7688521Y-25489609D02*
X7707569Y-25499133D01*
X7707569Y-25499133D02*
X7717092Y-25508656D01*
X7717092Y-25508656D02*
X7726616Y-25527704D01*
X7726616Y-25527704D02*
X7736140Y-25565799D01*
X7736140Y-25565799D02*
X7736140Y-25613418D01*
X7736140Y-25613418D02*
X7726616Y-25651513D01*
X7726616Y-25651513D02*
X7717092Y-25670561D01*
X7717092Y-25670561D02*
X7707569Y-25680085D01*
X7707569Y-25680085D02*
X7688521Y-25689609D01*
X7688521Y-25689609D02*
X7669473Y-25689609D01*
X7669473Y-25689609D02*
X7650426Y-25680085D01*
X7650426Y-25680085D02*
X7640902Y-25670561D01*
X7640902Y-25670561D02*
X7631378Y-25651513D01*
X7631378Y-25651513D02*
X7621854Y-25613418D01*
X7621854Y-25613418D02*
X7621854Y-25565799D01*
X7621854Y-25565799D02*
X7631378Y-25527704D01*
X7631378Y-25527704D02*
X7640902Y-25508656D01*
X7640902Y-25508656D02*
X7650426Y-25499133D01*
X7650426Y-25499133D02*
X7669473Y-25489609D01*
X7926616Y-25689609D02*
X7812331Y-25689609D01*
X7869473Y-25689609D02*
X7869473Y-25489609D01*
X7869473Y-25489609D02*
X7850426Y-25518180D01*
X7850426Y-25518180D02*
X7831378Y-25537228D01*
X7831378Y-25537228D02*
X7812331Y-25546752D01*
X8117092Y-25689609D02*
X8002807Y-25689609D01*
X8059950Y-25689609D02*
X8059950Y-25489609D01*
X8059950Y-25489609D02*
X8040902Y-25518180D01*
X8040902Y-25518180D02*
X8021854Y-25537228D01*
X8021854Y-25537228D02*
X8002807Y-25546752D01*
X8231378Y-25575323D02*
X8212331Y-25565799D01*
X8212331Y-25565799D02*
X8202807Y-25556275D01*
X8202807Y-25556275D02*
X8193283Y-25537228D01*
X8193283Y-25537228D02*
X8193283Y-25527704D01*
X8193283Y-25527704D02*
X8202807Y-25508656D01*
X8202807Y-25508656D02*
X8212331Y-25499133D01*
X8212331Y-25499133D02*
X8231378Y-25489609D01*
X8231378Y-25489609D02*
X8269473Y-25489609D01*
X8269473Y-25489609D02*
X8288521Y-25499133D01*
X8288521Y-25499133D02*
X8298045Y-25508656D01*
X8298045Y-25508656D02*
X8307569Y-25527704D01*
X8307569Y-25527704D02*
X8307569Y-25537228D01*
X8307569Y-25537228D02*
X8298045Y-25556275D01*
X8298045Y-25556275D02*
X8288521Y-25565799D01*
X8288521Y-25565799D02*
X8269473Y-25575323D01*
X8269473Y-25575323D02*
X8231378Y-25575323D01*
X8231378Y-25575323D02*
X8212331Y-25584847D01*
X8212331Y-25584847D02*
X8202807Y-25594371D01*
X8202807Y-25594371D02*
X8193283Y-25613418D01*
X8193283Y-25613418D02*
X8193283Y-25651513D01*
X8193283Y-25651513D02*
X8202807Y-25670561D01*
X8202807Y-25670561D02*
X8212331Y-25680085D01*
X8212331Y-25680085D02*
X8231378Y-25689609D01*
X8231378Y-25689609D02*
X8269473Y-25689609D01*
X8269473Y-25689609D02*
X8288521Y-25680085D01*
X8288521Y-25680085D02*
X8298045Y-25670561D01*
X8298045Y-25670561D02*
X8307569Y-25651513D01*
X8307569Y-25651513D02*
X8307569Y-25613418D01*
X8307569Y-25613418D02*
X8298045Y-25594371D01*
X8298045Y-25594371D02*
X8288521Y-25584847D01*
X8288521Y-25584847D02*
X8269473Y-25575323D01*
X8383759Y-25489609D02*
X8383759Y-25527704D01*
X8459950Y-25489609D02*
X8459950Y-25527704D01*
X8755188Y-25765799D02*
X8745664Y-25756275D01*
X8745664Y-25756275D02*
X8726616Y-25727704D01*
X8726616Y-25727704D02*
X8717093Y-25708656D01*
X8717093Y-25708656D02*
X8707569Y-25680085D01*
X8707569Y-25680085D02*
X8698045Y-25632466D01*
X8698045Y-25632466D02*
X8698045Y-25594371D01*
X8698045Y-25594371D02*
X8707569Y-25546752D01*
X8707569Y-25546752D02*
X8717093Y-25518180D01*
X8717093Y-25518180D02*
X8726616Y-25499133D01*
X8726616Y-25499133D02*
X8745664Y-25470561D01*
X8745664Y-25470561D02*
X8755188Y-25461037D01*
X8917093Y-25556275D02*
X8917093Y-25689609D01*
X8869474Y-25480085D02*
X8821855Y-25622942D01*
X8821855Y-25622942D02*
X8945664Y-25622942D01*
X9107569Y-25556275D02*
X9107569Y-25689609D01*
X9059950Y-25480085D02*
X9012331Y-25622942D01*
X9012331Y-25622942D02*
X9136140Y-25622942D01*
X9364712Y-25689609D02*
X9364712Y-25489609D01*
X9450426Y-25689609D02*
X9450426Y-25584847D01*
X9450426Y-25584847D02*
X9440902Y-25565799D01*
X9440902Y-25565799D02*
X9421855Y-25556275D01*
X9421855Y-25556275D02*
X9393283Y-25556275D01*
X9393283Y-25556275D02*
X9374236Y-25565799D01*
X9374236Y-25565799D02*
X9364712Y-25575323D01*
X9574236Y-25689609D02*
X9555188Y-25680085D01*
X9555188Y-25680085D02*
X9545664Y-25670561D01*
X9545664Y-25670561D02*
X9536140Y-25651513D01*
X9536140Y-25651513D02*
X9536140Y-25594371D01*
X9536140Y-25594371D02*
X9545664Y-25575323D01*
X9545664Y-25575323D02*
X9555188Y-25565799D01*
X9555188Y-25565799D02*
X9574236Y-25556275D01*
X9574236Y-25556275D02*
X9602807Y-25556275D01*
X9602807Y-25556275D02*
X9621855Y-25565799D01*
X9621855Y-25565799D02*
X9631378Y-25575323D01*
X9631378Y-25575323D02*
X9640902Y-25594371D01*
X9640902Y-25594371D02*
X9640902Y-25651513D01*
X9640902Y-25651513D02*
X9631378Y-25670561D01*
X9631378Y-25670561D02*
X9621855Y-25680085D01*
X9621855Y-25680085D02*
X9602807Y-25689609D01*
X9602807Y-25689609D02*
X9574236Y-25689609D01*
X9755188Y-25689609D02*
X9736140Y-25680085D01*
X9736140Y-25680085D02*
X9726617Y-25661037D01*
X9726617Y-25661037D02*
X9726617Y-25489609D01*
X9907569Y-25680085D02*
X9888521Y-25689609D01*
X9888521Y-25689609D02*
X9850426Y-25689609D01*
X9850426Y-25689609D02*
X9831378Y-25680085D01*
X9831378Y-25680085D02*
X9821855Y-25661037D01*
X9821855Y-25661037D02*
X9821855Y-25584847D01*
X9821855Y-25584847D02*
X9831378Y-25565799D01*
X9831378Y-25565799D02*
X9850426Y-25556275D01*
X9850426Y-25556275D02*
X9888521Y-25556275D01*
X9888521Y-25556275D02*
X9907569Y-25565799D01*
X9907569Y-25565799D02*
X9917093Y-25584847D01*
X9917093Y-25584847D02*
X9917093Y-25603894D01*
X9917093Y-25603894D02*
X9821855Y-25622942D01*
X9993283Y-25680085D02*
X10012331Y-25689609D01*
X10012331Y-25689609D02*
X10050426Y-25689609D01*
X10050426Y-25689609D02*
X10069474Y-25680085D01*
X10069474Y-25680085D02*
X10078998Y-25661037D01*
X10078998Y-25661037D02*
X10078998Y-25651513D01*
X10078998Y-25651513D02*
X10069474Y-25632466D01*
X10069474Y-25632466D02*
X10050426Y-25622942D01*
X10050426Y-25622942D02*
X10021855Y-25622942D01*
X10021855Y-25622942D02*
X10002807Y-25613418D01*
X10002807Y-25613418D02*
X9993283Y-25594371D01*
X9993283Y-25594371D02*
X9993283Y-25584847D01*
X9993283Y-25584847D02*
X10002807Y-25565799D01*
X10002807Y-25565799D02*
X10021855Y-25556275D01*
X10021855Y-25556275D02*
X10050426Y-25556275D01*
X10050426Y-25556275D02*
X10069474Y-25565799D01*
X10145664Y-25765799D02*
X10155188Y-25756275D01*
X10155188Y-25756275D02*
X10174236Y-25727704D01*
X10174236Y-25727704D02*
X10183759Y-25708656D01*
X10183759Y-25708656D02*
X10193283Y-25680085D01*
X10193283Y-25680085D02*
X10202807Y-25632466D01*
X10202807Y-25632466D02*
X10202807Y-25594371D01*
X10202807Y-25594371D02*
X10193283Y-25546752D01*
X10193283Y-25546752D02*
X10183759Y-25518180D01*
X10183759Y-25518180D02*
X10174236Y-25499133D01*
X10174236Y-25499133D02*
X10155188Y-25470561D01*
X10155188Y-25470561D02*
X10145664Y-25461037D01*
D14*
X5180125Y-25862125D02*
G75*
G02*
X5106125Y-25862125I-37000J0D01*
G01*
X5106125Y-25862125D02*
G75*
G02*
X5180125Y-25862125I37000J0D01*
G01*
D13*
X5478997Y-25753609D02*
X5498045Y-25753609D01*
X5498045Y-25753609D02*
X5517092Y-25763133D01*
X5517092Y-25763133D02*
X5526616Y-25772656D01*
X5526616Y-25772656D02*
X5536140Y-25791704D01*
X5536140Y-25791704D02*
X5545664Y-25829799D01*
X5545664Y-25829799D02*
X5545664Y-25877418D01*
X5545664Y-25877418D02*
X5536140Y-25915513D01*
X5536140Y-25915513D02*
X5526616Y-25934561D01*
X5526616Y-25934561D02*
X5517092Y-25944085D01*
X5517092Y-25944085D02*
X5498045Y-25953609D01*
X5498045Y-25953609D02*
X5478997Y-25953609D01*
X5478997Y-25953609D02*
X5459949Y-25944085D01*
X5459949Y-25944085D02*
X5450426Y-25934561D01*
X5450426Y-25934561D02*
X5440902Y-25915513D01*
X5440902Y-25915513D02*
X5431378Y-25877418D01*
X5431378Y-25877418D02*
X5431378Y-25829799D01*
X5431378Y-25829799D02*
X5440902Y-25791704D01*
X5440902Y-25791704D02*
X5450426Y-25772656D01*
X5450426Y-25772656D02*
X5459949Y-25763133D01*
X5459949Y-25763133D02*
X5478997Y-25753609D01*
X5631378Y-25934561D02*
X5640902Y-25944085D01*
X5640902Y-25944085D02*
X5631378Y-25953609D01*
X5631378Y-25953609D02*
X5621854Y-25944085D01*
X5621854Y-25944085D02*
X5631378Y-25934561D01*
X5631378Y-25934561D02*
X5631378Y-25953609D01*
X5707568Y-25753609D02*
X5840902Y-25753609D01*
X5840902Y-25753609D02*
X5755187Y-25953609D01*
X6002807Y-25820275D02*
X6002807Y-25953609D01*
X5955187Y-25744085D02*
X5907568Y-25886942D01*
X5907568Y-25886942D02*
X6031378Y-25886942D01*
X6145664Y-25753609D02*
X6164711Y-25753609D01*
X6164711Y-25753609D02*
X6183759Y-25763133D01*
X6183759Y-25763133D02*
X6193283Y-25772656D01*
X6193283Y-25772656D02*
X6202807Y-25791704D01*
X6202807Y-25791704D02*
X6212330Y-25829799D01*
X6212330Y-25829799D02*
X6212330Y-25877418D01*
X6212330Y-25877418D02*
X6202807Y-25915513D01*
X6202807Y-25915513D02*
X6193283Y-25934561D01*
X6193283Y-25934561D02*
X6183759Y-25944085D01*
X6183759Y-25944085D02*
X6164711Y-25953609D01*
X6164711Y-25953609D02*
X6145664Y-25953609D01*
X6145664Y-25953609D02*
X6126616Y-25944085D01*
X6126616Y-25944085D02*
X6117092Y-25934561D01*
X6117092Y-25934561D02*
X6107568Y-25915513D01*
X6107568Y-25915513D02*
X6098045Y-25877418D01*
X6098045Y-25877418D02*
X6098045Y-25829799D01*
X6098045Y-25829799D02*
X6107568Y-25791704D01*
X6107568Y-25791704D02*
X6117092Y-25772656D01*
X6117092Y-25772656D02*
X6126616Y-25763133D01*
X6126616Y-25763133D02*
X6145664Y-25753609D01*
X6298045Y-25953609D02*
X6298045Y-25820275D01*
X6298045Y-25839323D02*
X6307568Y-25829799D01*
X6307568Y-25829799D02*
X6326616Y-25820275D01*
X6326616Y-25820275D02*
X6355188Y-25820275D01*
X6355188Y-25820275D02*
X6374235Y-25829799D01*
X6374235Y-25829799D02*
X6383759Y-25848847D01*
X6383759Y-25848847D02*
X6383759Y-25953609D01*
X6383759Y-25848847D02*
X6393283Y-25829799D01*
X6393283Y-25829799D02*
X6412330Y-25820275D01*
X6412330Y-25820275D02*
X6440902Y-25820275D01*
X6440902Y-25820275D02*
X6459949Y-25829799D01*
X6459949Y-25829799D02*
X6469473Y-25848847D01*
X6469473Y-25848847D02*
X6469473Y-25953609D01*
X6564711Y-25953609D02*
X6564711Y-25820275D01*
X6564711Y-25839323D02*
X6574235Y-25829799D01*
X6574235Y-25829799D02*
X6593283Y-25820275D01*
X6593283Y-25820275D02*
X6621854Y-25820275D01*
X6621854Y-25820275D02*
X6640902Y-25829799D01*
X6640902Y-25829799D02*
X6650426Y-25848847D01*
X6650426Y-25848847D02*
X6650426Y-25953609D01*
X6650426Y-25848847D02*
X6659949Y-25829799D01*
X6659949Y-25829799D02*
X6678997Y-25820275D01*
X6678997Y-25820275D02*
X6707568Y-25820275D01*
X6707568Y-25820275D02*
X6726616Y-25829799D01*
X6726616Y-25829799D02*
X6736140Y-25848847D01*
X6736140Y-25848847D02*
X6736140Y-25953609D01*
X7126616Y-25744085D02*
X6955188Y-26001228D01*
X7383759Y-25753609D02*
X7402807Y-25753609D01*
X7402807Y-25753609D02*
X7421854Y-25763133D01*
X7421854Y-25763133D02*
X7431378Y-25772656D01*
X7431378Y-25772656D02*
X7440902Y-25791704D01*
X7440902Y-25791704D02*
X7450426Y-25829799D01*
X7450426Y-25829799D02*
X7450426Y-25877418D01*
X7450426Y-25877418D02*
X7440902Y-25915513D01*
X7440902Y-25915513D02*
X7431378Y-25934561D01*
X7431378Y-25934561D02*
X7421854Y-25944085D01*
X7421854Y-25944085D02*
X7402807Y-25953609D01*
X7402807Y-25953609D02*
X7383759Y-25953609D01*
X7383759Y-25953609D02*
X7364711Y-25944085D01*
X7364711Y-25944085D02*
X7355188Y-25934561D01*
X7355188Y-25934561D02*
X7345664Y-25915513D01*
X7345664Y-25915513D02*
X7336140Y-25877418D01*
X7336140Y-25877418D02*
X7336140Y-25829799D01*
X7336140Y-25829799D02*
X7345664Y-25791704D01*
X7345664Y-25791704D02*
X7355188Y-25772656D01*
X7355188Y-25772656D02*
X7364711Y-25763133D01*
X7364711Y-25763133D02*
X7383759Y-25753609D01*
X7536140Y-25934561D02*
X7545664Y-25944085D01*
X7545664Y-25944085D02*
X7536140Y-25953609D01*
X7536140Y-25953609D02*
X7526616Y-25944085D01*
X7526616Y-25944085D02*
X7536140Y-25934561D01*
X7536140Y-25934561D02*
X7536140Y-25953609D01*
X7669473Y-25753609D02*
X7688521Y-25753609D01*
X7688521Y-25753609D02*
X7707569Y-25763133D01*
X7707569Y-25763133D02*
X7717092Y-25772656D01*
X7717092Y-25772656D02*
X7726616Y-25791704D01*
X7726616Y-25791704D02*
X7736140Y-25829799D01*
X7736140Y-25829799D02*
X7736140Y-25877418D01*
X7736140Y-25877418D02*
X7726616Y-25915513D01*
X7726616Y-25915513D02*
X7717092Y-25934561D01*
X7717092Y-25934561D02*
X7707569Y-25944085D01*
X7707569Y-25944085D02*
X7688521Y-25953609D01*
X7688521Y-25953609D02*
X7669473Y-25953609D01*
X7669473Y-25953609D02*
X7650426Y-25944085D01*
X7650426Y-25944085D02*
X7640902Y-25934561D01*
X7640902Y-25934561D02*
X7631378Y-25915513D01*
X7631378Y-25915513D02*
X7621854Y-25877418D01*
X7621854Y-25877418D02*
X7621854Y-25829799D01*
X7621854Y-25829799D02*
X7631378Y-25791704D01*
X7631378Y-25791704D02*
X7640902Y-25772656D01*
X7640902Y-25772656D02*
X7650426Y-25763133D01*
X7650426Y-25763133D02*
X7669473Y-25753609D01*
X7812331Y-25772656D02*
X7821854Y-25763133D01*
X7821854Y-25763133D02*
X7840902Y-25753609D01*
X7840902Y-25753609D02*
X7888521Y-25753609D01*
X7888521Y-25753609D02*
X7907569Y-25763133D01*
X7907569Y-25763133D02*
X7917092Y-25772656D01*
X7917092Y-25772656D02*
X7926616Y-25791704D01*
X7926616Y-25791704D02*
X7926616Y-25810752D01*
X7926616Y-25810752D02*
X7917092Y-25839323D01*
X7917092Y-25839323D02*
X7802807Y-25953609D01*
X7802807Y-25953609D02*
X7926616Y-25953609D01*
X8021854Y-25953609D02*
X8059950Y-25953609D01*
X8059950Y-25953609D02*
X8078997Y-25944085D01*
X8078997Y-25944085D02*
X8088521Y-25934561D01*
X8088521Y-25934561D02*
X8107569Y-25905990D01*
X8107569Y-25905990D02*
X8117092Y-25867894D01*
X8117092Y-25867894D02*
X8117092Y-25791704D01*
X8117092Y-25791704D02*
X8107569Y-25772656D01*
X8107569Y-25772656D02*
X8098045Y-25763133D01*
X8098045Y-25763133D02*
X8078997Y-25753609D01*
X8078997Y-25753609D02*
X8040902Y-25753609D01*
X8040902Y-25753609D02*
X8021854Y-25763133D01*
X8021854Y-25763133D02*
X8012331Y-25772656D01*
X8012331Y-25772656D02*
X8002807Y-25791704D01*
X8002807Y-25791704D02*
X8002807Y-25839323D01*
X8002807Y-25839323D02*
X8012331Y-25858371D01*
X8012331Y-25858371D02*
X8021854Y-25867894D01*
X8021854Y-25867894D02*
X8040902Y-25877418D01*
X8040902Y-25877418D02*
X8078997Y-25877418D01*
X8078997Y-25877418D02*
X8098045Y-25867894D01*
X8098045Y-25867894D02*
X8107569Y-25858371D01*
X8107569Y-25858371D02*
X8117092Y-25839323D01*
X8307569Y-25953609D02*
X8193283Y-25953609D01*
X8250426Y-25953609D02*
X8250426Y-25753609D01*
X8250426Y-25753609D02*
X8231378Y-25782180D01*
X8231378Y-25782180D02*
X8212331Y-25801228D01*
X8212331Y-25801228D02*
X8193283Y-25810752D01*
X8383759Y-25753609D02*
X8383759Y-25791704D01*
X8459950Y-25753609D02*
X8459950Y-25791704D01*
X8755188Y-26029799D02*
X8745664Y-26020275D01*
X8745664Y-26020275D02*
X8726616Y-25991704D01*
X8726616Y-25991704D02*
X8717093Y-25972656D01*
X8717093Y-25972656D02*
X8707569Y-25944085D01*
X8707569Y-25944085D02*
X8698045Y-25896466D01*
X8698045Y-25896466D02*
X8698045Y-25858371D01*
X8698045Y-25858371D02*
X8707569Y-25810752D01*
X8707569Y-25810752D02*
X8717093Y-25782180D01*
X8717093Y-25782180D02*
X8726616Y-25763133D01*
X8726616Y-25763133D02*
X8745664Y-25734561D01*
X8745664Y-25734561D02*
X8755188Y-25725037D01*
X8936140Y-25953609D02*
X8821855Y-25953609D01*
X8878997Y-25953609D02*
X8878997Y-25753609D01*
X8878997Y-25753609D02*
X8859950Y-25782180D01*
X8859950Y-25782180D02*
X8840902Y-25801228D01*
X8840902Y-25801228D02*
X8821855Y-25810752D01*
X9107569Y-25820275D02*
X9107569Y-25953609D01*
X9059950Y-25744085D02*
X9012331Y-25886942D01*
X9012331Y-25886942D02*
X9136140Y-25886942D01*
X9364712Y-25953609D02*
X9364712Y-25753609D01*
X9450426Y-25953609D02*
X9450426Y-25848847D01*
X9450426Y-25848847D02*
X9440902Y-25829799D01*
X9440902Y-25829799D02*
X9421855Y-25820275D01*
X9421855Y-25820275D02*
X9393283Y-25820275D01*
X9393283Y-25820275D02*
X9374236Y-25829799D01*
X9374236Y-25829799D02*
X9364712Y-25839323D01*
X9574236Y-25953609D02*
X9555188Y-25944085D01*
X9555188Y-25944085D02*
X9545664Y-25934561D01*
X9545664Y-25934561D02*
X9536140Y-25915513D01*
X9536140Y-25915513D02*
X9536140Y-25858371D01*
X9536140Y-25858371D02*
X9545664Y-25839323D01*
X9545664Y-25839323D02*
X9555188Y-25829799D01*
X9555188Y-25829799D02*
X9574236Y-25820275D01*
X9574236Y-25820275D02*
X9602807Y-25820275D01*
X9602807Y-25820275D02*
X9621855Y-25829799D01*
X9621855Y-25829799D02*
X9631378Y-25839323D01*
X9631378Y-25839323D02*
X9640902Y-25858371D01*
X9640902Y-25858371D02*
X9640902Y-25915513D01*
X9640902Y-25915513D02*
X9631378Y-25934561D01*
X9631378Y-25934561D02*
X9621855Y-25944085D01*
X9621855Y-25944085D02*
X9602807Y-25953609D01*
X9602807Y-25953609D02*
X9574236Y-25953609D01*
X9755188Y-25953609D02*
X9736140Y-25944085D01*
X9736140Y-25944085D02*
X9726617Y-25925037D01*
X9726617Y-25925037D02*
X9726617Y-25753609D01*
X9907569Y-25944085D02*
X9888521Y-25953609D01*
X9888521Y-25953609D02*
X9850426Y-25953609D01*
X9850426Y-25953609D02*
X9831378Y-25944085D01*
X9831378Y-25944085D02*
X9821855Y-25925037D01*
X9821855Y-25925037D02*
X9821855Y-25848847D01*
X9821855Y-25848847D02*
X9831378Y-25829799D01*
X9831378Y-25829799D02*
X9850426Y-25820275D01*
X9850426Y-25820275D02*
X9888521Y-25820275D01*
X9888521Y-25820275D02*
X9907569Y-25829799D01*
X9907569Y-25829799D02*
X9917093Y-25848847D01*
X9917093Y-25848847D02*
X9917093Y-25867894D01*
X9917093Y-25867894D02*
X9821855Y-25886942D01*
X9993283Y-25944085D02*
X10012331Y-25953609D01*
X10012331Y-25953609D02*
X10050426Y-25953609D01*
X10050426Y-25953609D02*
X10069474Y-25944085D01*
X10069474Y-25944085D02*
X10078998Y-25925037D01*
X10078998Y-25925037D02*
X10078998Y-25915513D01*
X10078998Y-25915513D02*
X10069474Y-25896466D01*
X10069474Y-25896466D02*
X10050426Y-25886942D01*
X10050426Y-25886942D02*
X10021855Y-25886942D01*
X10021855Y-25886942D02*
X10002807Y-25877418D01*
X10002807Y-25877418D02*
X9993283Y-25858371D01*
X9993283Y-25858371D02*
X9993283Y-25848847D01*
X9993283Y-25848847D02*
X10002807Y-25829799D01*
X10002807Y-25829799D02*
X10021855Y-25820275D01*
X10021855Y-25820275D02*
X10050426Y-25820275D01*
X10050426Y-25820275D02*
X10069474Y-25829799D01*
X10145664Y-26029799D02*
X10155188Y-26020275D01*
X10155188Y-26020275D02*
X10174236Y-25991704D01*
X10174236Y-25991704D02*
X10183759Y-25972656D01*
X10183759Y-25972656D02*
X10193283Y-25944085D01*
X10193283Y-25944085D02*
X10202807Y-25896466D01*
X10202807Y-25896466D02*
X10202807Y-25858371D01*
X10202807Y-25858371D02*
X10193283Y-25810752D01*
X10193283Y-25810752D02*
X10183759Y-25782180D01*
X10183759Y-25782180D02*
X10174236Y-25763133D01*
X10174236Y-25763133D02*
X10155188Y-25734561D01*
X10155188Y-25734561D02*
X10145664Y-25725037D01*
D14*
X5140125Y-26086125D02*
X5140125Y-26166125D01*
X5100125Y-26126125D02*
X5180125Y-26126125D01*
D13*
X5478997Y-26017609D02*
X5498045Y-26017609D01*
X5498045Y-26017609D02*
X5517092Y-26027133D01*
X5517092Y-26027133D02*
X5526616Y-26036656D01*
X5526616Y-26036656D02*
X5536140Y-26055704D01*
X5536140Y-26055704D02*
X5545664Y-26093799D01*
X5545664Y-26093799D02*
X5545664Y-26141418D01*
X5545664Y-26141418D02*
X5536140Y-26179513D01*
X5536140Y-26179513D02*
X5526616Y-26198561D01*
X5526616Y-26198561D02*
X5517092Y-26208085D01*
X5517092Y-26208085D02*
X5498045Y-26217609D01*
X5498045Y-26217609D02*
X5478997Y-26217609D01*
X5478997Y-26217609D02*
X5459949Y-26208085D01*
X5459949Y-26208085D02*
X5450426Y-26198561D01*
X5450426Y-26198561D02*
X5440902Y-26179513D01*
X5440902Y-26179513D02*
X5431378Y-26141418D01*
X5431378Y-26141418D02*
X5431378Y-26093799D01*
X5431378Y-26093799D02*
X5440902Y-26055704D01*
X5440902Y-26055704D02*
X5450426Y-26036656D01*
X5450426Y-26036656D02*
X5459949Y-26027133D01*
X5459949Y-26027133D02*
X5478997Y-26017609D01*
X5631378Y-26198561D02*
X5640902Y-26208085D01*
X5640902Y-26208085D02*
X5631378Y-26217609D01*
X5631378Y-26217609D02*
X5621854Y-26208085D01*
X5621854Y-26208085D02*
X5631378Y-26198561D01*
X5631378Y-26198561D02*
X5631378Y-26217609D01*
X5755187Y-26103323D02*
X5736140Y-26093799D01*
X5736140Y-26093799D02*
X5726616Y-26084275D01*
X5726616Y-26084275D02*
X5717092Y-26065228D01*
X5717092Y-26065228D02*
X5717092Y-26055704D01*
X5717092Y-26055704D02*
X5726616Y-26036656D01*
X5726616Y-26036656D02*
X5736140Y-26027133D01*
X5736140Y-26027133D02*
X5755187Y-26017609D01*
X5755187Y-26017609D02*
X5793283Y-26017609D01*
X5793283Y-26017609D02*
X5812330Y-26027133D01*
X5812330Y-26027133D02*
X5821854Y-26036656D01*
X5821854Y-26036656D02*
X5831378Y-26055704D01*
X5831378Y-26055704D02*
X5831378Y-26065228D01*
X5831378Y-26065228D02*
X5821854Y-26084275D01*
X5821854Y-26084275D02*
X5812330Y-26093799D01*
X5812330Y-26093799D02*
X5793283Y-26103323D01*
X5793283Y-26103323D02*
X5755187Y-26103323D01*
X5755187Y-26103323D02*
X5736140Y-26112847D01*
X5736140Y-26112847D02*
X5726616Y-26122371D01*
X5726616Y-26122371D02*
X5717092Y-26141418D01*
X5717092Y-26141418D02*
X5717092Y-26179513D01*
X5717092Y-26179513D02*
X5726616Y-26198561D01*
X5726616Y-26198561D02*
X5736140Y-26208085D01*
X5736140Y-26208085D02*
X5755187Y-26217609D01*
X5755187Y-26217609D02*
X5793283Y-26217609D01*
X5793283Y-26217609D02*
X5812330Y-26208085D01*
X5812330Y-26208085D02*
X5821854Y-26198561D01*
X5821854Y-26198561D02*
X5831378Y-26179513D01*
X5831378Y-26179513D02*
X5831378Y-26141418D01*
X5831378Y-26141418D02*
X5821854Y-26122371D01*
X5821854Y-26122371D02*
X5812330Y-26112847D01*
X5812330Y-26112847D02*
X5793283Y-26103323D01*
X5955187Y-26017609D02*
X5974235Y-26017609D01*
X5974235Y-26017609D02*
X5993283Y-26027133D01*
X5993283Y-26027133D02*
X6002807Y-26036656D01*
X6002807Y-26036656D02*
X6012330Y-26055704D01*
X6012330Y-26055704D02*
X6021854Y-26093799D01*
X6021854Y-26093799D02*
X6021854Y-26141418D01*
X6021854Y-26141418D02*
X6012330Y-26179513D01*
X6012330Y-26179513D02*
X6002807Y-26198561D01*
X6002807Y-26198561D02*
X5993283Y-26208085D01*
X5993283Y-26208085D02*
X5974235Y-26217609D01*
X5974235Y-26217609D02*
X5955187Y-26217609D01*
X5955187Y-26217609D02*
X5936140Y-26208085D01*
X5936140Y-26208085D02*
X5926616Y-26198561D01*
X5926616Y-26198561D02*
X5917092Y-26179513D01*
X5917092Y-26179513D02*
X5907568Y-26141418D01*
X5907568Y-26141418D02*
X5907568Y-26093799D01*
X5907568Y-26093799D02*
X5917092Y-26055704D01*
X5917092Y-26055704D02*
X5926616Y-26036656D01*
X5926616Y-26036656D02*
X5936140Y-26027133D01*
X5936140Y-26027133D02*
X5955187Y-26017609D01*
X6145664Y-26017609D02*
X6164711Y-26017609D01*
X6164711Y-26017609D02*
X6183759Y-26027133D01*
X6183759Y-26027133D02*
X6193283Y-26036656D01*
X6193283Y-26036656D02*
X6202807Y-26055704D01*
X6202807Y-26055704D02*
X6212330Y-26093799D01*
X6212330Y-26093799D02*
X6212330Y-26141418D01*
X6212330Y-26141418D02*
X6202807Y-26179513D01*
X6202807Y-26179513D02*
X6193283Y-26198561D01*
X6193283Y-26198561D02*
X6183759Y-26208085D01*
X6183759Y-26208085D02*
X6164711Y-26217609D01*
X6164711Y-26217609D02*
X6145664Y-26217609D01*
X6145664Y-26217609D02*
X6126616Y-26208085D01*
X6126616Y-26208085D02*
X6117092Y-26198561D01*
X6117092Y-26198561D02*
X6107568Y-26179513D01*
X6107568Y-26179513D02*
X6098045Y-26141418D01*
X6098045Y-26141418D02*
X6098045Y-26093799D01*
X6098045Y-26093799D02*
X6107568Y-26055704D01*
X6107568Y-26055704D02*
X6117092Y-26036656D01*
X6117092Y-26036656D02*
X6126616Y-26027133D01*
X6126616Y-26027133D02*
X6145664Y-26017609D01*
X6298045Y-26217609D02*
X6298045Y-26084275D01*
X6298045Y-26103323D02*
X6307568Y-26093799D01*
X6307568Y-26093799D02*
X6326616Y-26084275D01*
X6326616Y-26084275D02*
X6355188Y-26084275D01*
X6355188Y-26084275D02*
X6374235Y-26093799D01*
X6374235Y-26093799D02*
X6383759Y-26112847D01*
X6383759Y-26112847D02*
X6383759Y-26217609D01*
X6383759Y-26112847D02*
X6393283Y-26093799D01*
X6393283Y-26093799D02*
X6412330Y-26084275D01*
X6412330Y-26084275D02*
X6440902Y-26084275D01*
X6440902Y-26084275D02*
X6459949Y-26093799D01*
X6459949Y-26093799D02*
X6469473Y-26112847D01*
X6469473Y-26112847D02*
X6469473Y-26217609D01*
X6564711Y-26217609D02*
X6564711Y-26084275D01*
X6564711Y-26103323D02*
X6574235Y-26093799D01*
X6574235Y-26093799D02*
X6593283Y-26084275D01*
X6593283Y-26084275D02*
X6621854Y-26084275D01*
X6621854Y-26084275D02*
X6640902Y-26093799D01*
X6640902Y-26093799D02*
X6650426Y-26112847D01*
X6650426Y-26112847D02*
X6650426Y-26217609D01*
X6650426Y-26112847D02*
X6659949Y-26093799D01*
X6659949Y-26093799D02*
X6678997Y-26084275D01*
X6678997Y-26084275D02*
X6707568Y-26084275D01*
X6707568Y-26084275D02*
X6726616Y-26093799D01*
X6726616Y-26093799D02*
X6736140Y-26112847D01*
X6736140Y-26112847D02*
X6736140Y-26217609D01*
X7126616Y-26008085D02*
X6955188Y-26265228D01*
X7383759Y-26017609D02*
X7402807Y-26017609D01*
X7402807Y-26017609D02*
X7421854Y-26027133D01*
X7421854Y-26027133D02*
X7431378Y-26036656D01*
X7431378Y-26036656D02*
X7440902Y-26055704D01*
X7440902Y-26055704D02*
X7450426Y-26093799D01*
X7450426Y-26093799D02*
X7450426Y-26141418D01*
X7450426Y-26141418D02*
X7440902Y-26179513D01*
X7440902Y-26179513D02*
X7431378Y-26198561D01*
X7431378Y-26198561D02*
X7421854Y-26208085D01*
X7421854Y-26208085D02*
X7402807Y-26217609D01*
X7402807Y-26217609D02*
X7383759Y-26217609D01*
X7383759Y-26217609D02*
X7364711Y-26208085D01*
X7364711Y-26208085D02*
X7355188Y-26198561D01*
X7355188Y-26198561D02*
X7345664Y-26179513D01*
X7345664Y-26179513D02*
X7336140Y-26141418D01*
X7336140Y-26141418D02*
X7336140Y-26093799D01*
X7336140Y-26093799D02*
X7345664Y-26055704D01*
X7345664Y-26055704D02*
X7355188Y-26036656D01*
X7355188Y-26036656D02*
X7364711Y-26027133D01*
X7364711Y-26027133D02*
X7383759Y-26017609D01*
X7536140Y-26198561D02*
X7545664Y-26208085D01*
X7545664Y-26208085D02*
X7536140Y-26217609D01*
X7536140Y-26217609D02*
X7526616Y-26208085D01*
X7526616Y-26208085D02*
X7536140Y-26198561D01*
X7536140Y-26198561D02*
X7536140Y-26217609D01*
X7669473Y-26017609D02*
X7688521Y-26017609D01*
X7688521Y-26017609D02*
X7707569Y-26027133D01*
X7707569Y-26027133D02*
X7717092Y-26036656D01*
X7717092Y-26036656D02*
X7726616Y-26055704D01*
X7726616Y-26055704D02*
X7736140Y-26093799D01*
X7736140Y-26093799D02*
X7736140Y-26141418D01*
X7736140Y-26141418D02*
X7726616Y-26179513D01*
X7726616Y-26179513D02*
X7717092Y-26198561D01*
X7717092Y-26198561D02*
X7707569Y-26208085D01*
X7707569Y-26208085D02*
X7688521Y-26217609D01*
X7688521Y-26217609D02*
X7669473Y-26217609D01*
X7669473Y-26217609D02*
X7650426Y-26208085D01*
X7650426Y-26208085D02*
X7640902Y-26198561D01*
X7640902Y-26198561D02*
X7631378Y-26179513D01*
X7631378Y-26179513D02*
X7621854Y-26141418D01*
X7621854Y-26141418D02*
X7621854Y-26093799D01*
X7621854Y-26093799D02*
X7631378Y-26055704D01*
X7631378Y-26055704D02*
X7640902Y-26036656D01*
X7640902Y-26036656D02*
X7650426Y-26027133D01*
X7650426Y-26027133D02*
X7669473Y-26017609D01*
X7802807Y-26017609D02*
X7926616Y-26017609D01*
X7926616Y-26017609D02*
X7859950Y-26093799D01*
X7859950Y-26093799D02*
X7888521Y-26093799D01*
X7888521Y-26093799D02*
X7907569Y-26103323D01*
X7907569Y-26103323D02*
X7917092Y-26112847D01*
X7917092Y-26112847D02*
X7926616Y-26131894D01*
X7926616Y-26131894D02*
X7926616Y-26179513D01*
X7926616Y-26179513D02*
X7917092Y-26198561D01*
X7917092Y-26198561D02*
X7907569Y-26208085D01*
X7907569Y-26208085D02*
X7888521Y-26217609D01*
X7888521Y-26217609D02*
X7831378Y-26217609D01*
X7831378Y-26217609D02*
X7812331Y-26208085D01*
X7812331Y-26208085D02*
X7802807Y-26198561D01*
X8117092Y-26217609D02*
X8002807Y-26217609D01*
X8059950Y-26217609D02*
X8059950Y-26017609D01*
X8059950Y-26017609D02*
X8040902Y-26046180D01*
X8040902Y-26046180D02*
X8021854Y-26065228D01*
X8021854Y-26065228D02*
X8002807Y-26074752D01*
X8298045Y-26017609D02*
X8202807Y-26017609D01*
X8202807Y-26017609D02*
X8193283Y-26112847D01*
X8193283Y-26112847D02*
X8202807Y-26103323D01*
X8202807Y-26103323D02*
X8221854Y-26093799D01*
X8221854Y-26093799D02*
X8269473Y-26093799D01*
X8269473Y-26093799D02*
X8288521Y-26103323D01*
X8288521Y-26103323D02*
X8298045Y-26112847D01*
X8298045Y-26112847D02*
X8307569Y-26131894D01*
X8307569Y-26131894D02*
X8307569Y-26179513D01*
X8307569Y-26179513D02*
X8298045Y-26198561D01*
X8298045Y-26198561D02*
X8288521Y-26208085D01*
X8288521Y-26208085D02*
X8269473Y-26217609D01*
X8269473Y-26217609D02*
X8221854Y-26217609D01*
X8221854Y-26217609D02*
X8202807Y-26208085D01*
X8202807Y-26208085D02*
X8193283Y-26198561D01*
X8383759Y-26017609D02*
X8383759Y-26055704D01*
X8459950Y-26017609D02*
X8459950Y-26055704D01*
X8755188Y-26293799D02*
X8745664Y-26284275D01*
X8745664Y-26284275D02*
X8726616Y-26255704D01*
X8726616Y-26255704D02*
X8717093Y-26236656D01*
X8717093Y-26236656D02*
X8707569Y-26208085D01*
X8707569Y-26208085D02*
X8698045Y-26160466D01*
X8698045Y-26160466D02*
X8698045Y-26122371D01*
X8698045Y-26122371D02*
X8707569Y-26074752D01*
X8707569Y-26074752D02*
X8717093Y-26046180D01*
X8717093Y-26046180D02*
X8726616Y-26027133D01*
X8726616Y-26027133D02*
X8745664Y-25998561D01*
X8745664Y-25998561D02*
X8755188Y-25989037D01*
X8812331Y-26017609D02*
X8936140Y-26017609D01*
X8936140Y-26017609D02*
X8869474Y-26093799D01*
X8869474Y-26093799D02*
X8898045Y-26093799D01*
X8898045Y-26093799D02*
X8917093Y-26103323D01*
X8917093Y-26103323D02*
X8926616Y-26112847D01*
X8926616Y-26112847D02*
X8936140Y-26131894D01*
X8936140Y-26131894D02*
X8936140Y-26179513D01*
X8936140Y-26179513D02*
X8926616Y-26198561D01*
X8926616Y-26198561D02*
X8917093Y-26208085D01*
X8917093Y-26208085D02*
X8898045Y-26217609D01*
X8898045Y-26217609D02*
X8840902Y-26217609D01*
X8840902Y-26217609D02*
X8821855Y-26208085D01*
X8821855Y-26208085D02*
X8812331Y-26198561D01*
X9107569Y-26084275D02*
X9107569Y-26217609D01*
X9059950Y-26008085D02*
X9012331Y-26150942D01*
X9012331Y-26150942D02*
X9136140Y-26150942D01*
X9364712Y-26217609D02*
X9364712Y-26017609D01*
X9450426Y-26217609D02*
X9450426Y-26112847D01*
X9450426Y-26112847D02*
X9440902Y-26093799D01*
X9440902Y-26093799D02*
X9421855Y-26084275D01*
X9421855Y-26084275D02*
X9393283Y-26084275D01*
X9393283Y-26084275D02*
X9374236Y-26093799D01*
X9374236Y-26093799D02*
X9364712Y-26103323D01*
X9574236Y-26217609D02*
X9555188Y-26208085D01*
X9555188Y-26208085D02*
X9545664Y-26198561D01*
X9545664Y-26198561D02*
X9536140Y-26179513D01*
X9536140Y-26179513D02*
X9536140Y-26122371D01*
X9536140Y-26122371D02*
X9545664Y-26103323D01*
X9545664Y-26103323D02*
X9555188Y-26093799D01*
X9555188Y-26093799D02*
X9574236Y-26084275D01*
X9574236Y-26084275D02*
X9602807Y-26084275D01*
X9602807Y-26084275D02*
X9621855Y-26093799D01*
X9621855Y-26093799D02*
X9631378Y-26103323D01*
X9631378Y-26103323D02*
X9640902Y-26122371D01*
X9640902Y-26122371D02*
X9640902Y-26179513D01*
X9640902Y-26179513D02*
X9631378Y-26198561D01*
X9631378Y-26198561D02*
X9621855Y-26208085D01*
X9621855Y-26208085D02*
X9602807Y-26217609D01*
X9602807Y-26217609D02*
X9574236Y-26217609D01*
X9755188Y-26217609D02*
X9736140Y-26208085D01*
X9736140Y-26208085D02*
X9726617Y-26189037D01*
X9726617Y-26189037D02*
X9726617Y-26017609D01*
X9907569Y-26208085D02*
X9888521Y-26217609D01*
X9888521Y-26217609D02*
X9850426Y-26217609D01*
X9850426Y-26217609D02*
X9831378Y-26208085D01*
X9831378Y-26208085D02*
X9821855Y-26189037D01*
X9821855Y-26189037D02*
X9821855Y-26112847D01*
X9821855Y-26112847D02*
X9831378Y-26093799D01*
X9831378Y-26093799D02*
X9850426Y-26084275D01*
X9850426Y-26084275D02*
X9888521Y-26084275D01*
X9888521Y-26084275D02*
X9907569Y-26093799D01*
X9907569Y-26093799D02*
X9917093Y-26112847D01*
X9917093Y-26112847D02*
X9917093Y-26131894D01*
X9917093Y-26131894D02*
X9821855Y-26150942D01*
X9993283Y-26208085D02*
X10012331Y-26217609D01*
X10012331Y-26217609D02*
X10050426Y-26217609D01*
X10050426Y-26217609D02*
X10069474Y-26208085D01*
X10069474Y-26208085D02*
X10078998Y-26189037D01*
X10078998Y-26189037D02*
X10078998Y-26179513D01*
X10078998Y-26179513D02*
X10069474Y-26160466D01*
X10069474Y-26160466D02*
X10050426Y-26150942D01*
X10050426Y-26150942D02*
X10021855Y-26150942D01*
X10021855Y-26150942D02*
X10002807Y-26141418D01*
X10002807Y-26141418D02*
X9993283Y-26122371D01*
X9993283Y-26122371D02*
X9993283Y-26112847D01*
X9993283Y-26112847D02*
X10002807Y-26093799D01*
X10002807Y-26093799D02*
X10021855Y-26084275D01*
X10021855Y-26084275D02*
X10050426Y-26084275D01*
X10050426Y-26084275D02*
X10069474Y-26093799D01*
X10145664Y-26293799D02*
X10155188Y-26284275D01*
X10155188Y-26284275D02*
X10174236Y-26255704D01*
X10174236Y-26255704D02*
X10183759Y-26236656D01*
X10183759Y-26236656D02*
X10193283Y-26208085D01*
X10193283Y-26208085D02*
X10202807Y-26160466D01*
X10202807Y-26160466D02*
X10202807Y-26122371D01*
X10202807Y-26122371D02*
X10193283Y-26074752D01*
X10193283Y-26074752D02*
X10183759Y-26046180D01*
X10183759Y-26046180D02*
X10174236Y-26027133D01*
X10174236Y-26027133D02*
X10155188Y-25998561D01*
X10155188Y-25998561D02*
X10145664Y-25989037D01*
D15*
X5165188Y-26426188D02*
X5165188Y-26354062D01*
X5093062Y-26354062D01*
X5093062Y-26426188D01*
X5165188Y-26426188D01*
D13*
X5545664Y-26481609D02*
X5431378Y-26481609D01*
X5488521Y-26481609D02*
X5488521Y-26281609D01*
X5488521Y-26281609D02*
X5469473Y-26310180D01*
X5469473Y-26310180D02*
X5450426Y-26329228D01*
X5450426Y-26329228D02*
X5431378Y-26338752D01*
X5631378Y-26462561D02*
X5640902Y-26472085D01*
X5640902Y-26472085D02*
X5631378Y-26481609D01*
X5631378Y-26481609D02*
X5621854Y-26472085D01*
X5621854Y-26472085D02*
X5631378Y-26462561D01*
X5631378Y-26462561D02*
X5631378Y-26481609D01*
X5764711Y-26281609D02*
X5783759Y-26281609D01*
X5783759Y-26281609D02*
X5802807Y-26291133D01*
X5802807Y-26291133D02*
X5812330Y-26300656D01*
X5812330Y-26300656D02*
X5821854Y-26319704D01*
X5821854Y-26319704D02*
X5831378Y-26357799D01*
X5831378Y-26357799D02*
X5831378Y-26405418D01*
X5831378Y-26405418D02*
X5821854Y-26443513D01*
X5821854Y-26443513D02*
X5812330Y-26462561D01*
X5812330Y-26462561D02*
X5802807Y-26472085D01*
X5802807Y-26472085D02*
X5783759Y-26481609D01*
X5783759Y-26481609D02*
X5764711Y-26481609D01*
X5764711Y-26481609D02*
X5745664Y-26472085D01*
X5745664Y-26472085D02*
X5736140Y-26462561D01*
X5736140Y-26462561D02*
X5726616Y-26443513D01*
X5726616Y-26443513D02*
X5717092Y-26405418D01*
X5717092Y-26405418D02*
X5717092Y-26357799D01*
X5717092Y-26357799D02*
X5726616Y-26319704D01*
X5726616Y-26319704D02*
X5736140Y-26300656D01*
X5736140Y-26300656D02*
X5745664Y-26291133D01*
X5745664Y-26291133D02*
X5764711Y-26281609D01*
X5907568Y-26300656D02*
X5917092Y-26291133D01*
X5917092Y-26291133D02*
X5936140Y-26281609D01*
X5936140Y-26281609D02*
X5983759Y-26281609D01*
X5983759Y-26281609D02*
X6002807Y-26291133D01*
X6002807Y-26291133D02*
X6012330Y-26300656D01*
X6012330Y-26300656D02*
X6021854Y-26319704D01*
X6021854Y-26319704D02*
X6021854Y-26338752D01*
X6021854Y-26338752D02*
X6012330Y-26367323D01*
X6012330Y-26367323D02*
X5898045Y-26481609D01*
X5898045Y-26481609D02*
X6021854Y-26481609D01*
X6145664Y-26281609D02*
X6164711Y-26281609D01*
X6164711Y-26281609D02*
X6183759Y-26291133D01*
X6183759Y-26291133D02*
X6193283Y-26300656D01*
X6193283Y-26300656D02*
X6202807Y-26319704D01*
X6202807Y-26319704D02*
X6212330Y-26357799D01*
X6212330Y-26357799D02*
X6212330Y-26405418D01*
X6212330Y-26405418D02*
X6202807Y-26443513D01*
X6202807Y-26443513D02*
X6193283Y-26462561D01*
X6193283Y-26462561D02*
X6183759Y-26472085D01*
X6183759Y-26472085D02*
X6164711Y-26481609D01*
X6164711Y-26481609D02*
X6145664Y-26481609D01*
X6145664Y-26481609D02*
X6126616Y-26472085D01*
X6126616Y-26472085D02*
X6117092Y-26462561D01*
X6117092Y-26462561D02*
X6107568Y-26443513D01*
X6107568Y-26443513D02*
X6098045Y-26405418D01*
X6098045Y-26405418D02*
X6098045Y-26357799D01*
X6098045Y-26357799D02*
X6107568Y-26319704D01*
X6107568Y-26319704D02*
X6117092Y-26300656D01*
X6117092Y-26300656D02*
X6126616Y-26291133D01*
X6126616Y-26291133D02*
X6145664Y-26281609D01*
X6298045Y-26481609D02*
X6298045Y-26348275D01*
X6298045Y-26367323D02*
X6307568Y-26357799D01*
X6307568Y-26357799D02*
X6326616Y-26348275D01*
X6326616Y-26348275D02*
X6355188Y-26348275D01*
X6355188Y-26348275D02*
X6374235Y-26357799D01*
X6374235Y-26357799D02*
X6383759Y-26376847D01*
X6383759Y-26376847D02*
X6383759Y-26481609D01*
X6383759Y-26376847D02*
X6393283Y-26357799D01*
X6393283Y-26357799D02*
X6412330Y-26348275D01*
X6412330Y-26348275D02*
X6440902Y-26348275D01*
X6440902Y-26348275D02*
X6459949Y-26357799D01*
X6459949Y-26357799D02*
X6469473Y-26376847D01*
X6469473Y-26376847D02*
X6469473Y-26481609D01*
X6564711Y-26481609D02*
X6564711Y-26348275D01*
X6564711Y-26367323D02*
X6574235Y-26357799D01*
X6574235Y-26357799D02*
X6593283Y-26348275D01*
X6593283Y-26348275D02*
X6621854Y-26348275D01*
X6621854Y-26348275D02*
X6640902Y-26357799D01*
X6640902Y-26357799D02*
X6650426Y-26376847D01*
X6650426Y-26376847D02*
X6650426Y-26481609D01*
X6650426Y-26376847D02*
X6659949Y-26357799D01*
X6659949Y-26357799D02*
X6678997Y-26348275D01*
X6678997Y-26348275D02*
X6707568Y-26348275D01*
X6707568Y-26348275D02*
X6726616Y-26357799D01*
X6726616Y-26357799D02*
X6736140Y-26376847D01*
X6736140Y-26376847D02*
X6736140Y-26481609D01*
X7126616Y-26272085D02*
X6955188Y-26529228D01*
X7383759Y-26281609D02*
X7402807Y-26281609D01*
X7402807Y-26281609D02*
X7421854Y-26291133D01*
X7421854Y-26291133D02*
X7431378Y-26300656D01*
X7431378Y-26300656D02*
X7440902Y-26319704D01*
X7440902Y-26319704D02*
X7450426Y-26357799D01*
X7450426Y-26357799D02*
X7450426Y-26405418D01*
X7450426Y-26405418D02*
X7440902Y-26443513D01*
X7440902Y-26443513D02*
X7431378Y-26462561D01*
X7431378Y-26462561D02*
X7421854Y-26472085D01*
X7421854Y-26472085D02*
X7402807Y-26481609D01*
X7402807Y-26481609D02*
X7383759Y-26481609D01*
X7383759Y-26481609D02*
X7364711Y-26472085D01*
X7364711Y-26472085D02*
X7355188Y-26462561D01*
X7355188Y-26462561D02*
X7345664Y-26443513D01*
X7345664Y-26443513D02*
X7336140Y-26405418D01*
X7336140Y-26405418D02*
X7336140Y-26357799D01*
X7336140Y-26357799D02*
X7345664Y-26319704D01*
X7345664Y-26319704D02*
X7355188Y-26300656D01*
X7355188Y-26300656D02*
X7364711Y-26291133D01*
X7364711Y-26291133D02*
X7383759Y-26281609D01*
X7536140Y-26462561D02*
X7545664Y-26472085D01*
X7545664Y-26472085D02*
X7536140Y-26481609D01*
X7536140Y-26481609D02*
X7526616Y-26472085D01*
X7526616Y-26472085D02*
X7536140Y-26462561D01*
X7536140Y-26462561D02*
X7536140Y-26481609D01*
X7669473Y-26281609D02*
X7688521Y-26281609D01*
X7688521Y-26281609D02*
X7707569Y-26291133D01*
X7707569Y-26291133D02*
X7717092Y-26300656D01*
X7717092Y-26300656D02*
X7726616Y-26319704D01*
X7726616Y-26319704D02*
X7736140Y-26357799D01*
X7736140Y-26357799D02*
X7736140Y-26405418D01*
X7736140Y-26405418D02*
X7726616Y-26443513D01*
X7726616Y-26443513D02*
X7717092Y-26462561D01*
X7717092Y-26462561D02*
X7707569Y-26472085D01*
X7707569Y-26472085D02*
X7688521Y-26481609D01*
X7688521Y-26481609D02*
X7669473Y-26481609D01*
X7669473Y-26481609D02*
X7650426Y-26472085D01*
X7650426Y-26472085D02*
X7640902Y-26462561D01*
X7640902Y-26462561D02*
X7631378Y-26443513D01*
X7631378Y-26443513D02*
X7621854Y-26405418D01*
X7621854Y-26405418D02*
X7621854Y-26357799D01*
X7621854Y-26357799D02*
X7631378Y-26319704D01*
X7631378Y-26319704D02*
X7640902Y-26300656D01*
X7640902Y-26300656D02*
X7650426Y-26291133D01*
X7650426Y-26291133D02*
X7669473Y-26281609D01*
X7907569Y-26348275D02*
X7907569Y-26481609D01*
X7859950Y-26272085D02*
X7812331Y-26414942D01*
X7812331Y-26414942D02*
X7936140Y-26414942D01*
X8050426Y-26281609D02*
X8069473Y-26281609D01*
X8069473Y-26281609D02*
X8088521Y-26291133D01*
X8088521Y-26291133D02*
X8098045Y-26300656D01*
X8098045Y-26300656D02*
X8107569Y-26319704D01*
X8107569Y-26319704D02*
X8117092Y-26357799D01*
X8117092Y-26357799D02*
X8117092Y-26405418D01*
X8117092Y-26405418D02*
X8107569Y-26443513D01*
X8107569Y-26443513D02*
X8098045Y-26462561D01*
X8098045Y-26462561D02*
X8088521Y-26472085D01*
X8088521Y-26472085D02*
X8069473Y-26481609D01*
X8069473Y-26481609D02*
X8050426Y-26481609D01*
X8050426Y-26481609D02*
X8031378Y-26472085D01*
X8031378Y-26472085D02*
X8021854Y-26462561D01*
X8021854Y-26462561D02*
X8012331Y-26443513D01*
X8012331Y-26443513D02*
X8002807Y-26405418D01*
X8002807Y-26405418D02*
X8002807Y-26357799D01*
X8002807Y-26357799D02*
X8012331Y-26319704D01*
X8012331Y-26319704D02*
X8021854Y-26300656D01*
X8021854Y-26300656D02*
X8031378Y-26291133D01*
X8031378Y-26291133D02*
X8050426Y-26281609D01*
X8193283Y-26300656D02*
X8202807Y-26291133D01*
X8202807Y-26291133D02*
X8221854Y-26281609D01*
X8221854Y-26281609D02*
X8269473Y-26281609D01*
X8269473Y-26281609D02*
X8288521Y-26291133D01*
X8288521Y-26291133D02*
X8298045Y-26300656D01*
X8298045Y-26300656D02*
X8307569Y-26319704D01*
X8307569Y-26319704D02*
X8307569Y-26338752D01*
X8307569Y-26338752D02*
X8298045Y-26367323D01*
X8298045Y-26367323D02*
X8183759Y-26481609D01*
X8183759Y-26481609D02*
X8307569Y-26481609D01*
X8383759Y-26281609D02*
X8383759Y-26319704D01*
X8459950Y-26281609D02*
X8459950Y-26319704D01*
X8755188Y-26557799D02*
X8745664Y-26548275D01*
X8745664Y-26548275D02*
X8726616Y-26519704D01*
X8726616Y-26519704D02*
X8717093Y-26500656D01*
X8717093Y-26500656D02*
X8707569Y-26472085D01*
X8707569Y-26472085D02*
X8698045Y-26424466D01*
X8698045Y-26424466D02*
X8698045Y-26386371D01*
X8698045Y-26386371D02*
X8707569Y-26338752D01*
X8707569Y-26338752D02*
X8717093Y-26310180D01*
X8717093Y-26310180D02*
X8726616Y-26291133D01*
X8726616Y-26291133D02*
X8745664Y-26262561D01*
X8745664Y-26262561D02*
X8755188Y-26253037D01*
X8917093Y-26348275D02*
X8917093Y-26481609D01*
X8869474Y-26272085D02*
X8821855Y-26414942D01*
X8821855Y-26414942D02*
X8945664Y-26414942D01*
X9002807Y-26281609D02*
X9126616Y-26281609D01*
X9126616Y-26281609D02*
X9059950Y-26357799D01*
X9059950Y-26357799D02*
X9088521Y-26357799D01*
X9088521Y-26357799D02*
X9107569Y-26367323D01*
X9107569Y-26367323D02*
X9117093Y-26376847D01*
X9117093Y-26376847D02*
X9126616Y-26395894D01*
X9126616Y-26395894D02*
X9126616Y-26443513D01*
X9126616Y-26443513D02*
X9117093Y-26462561D01*
X9117093Y-26462561D02*
X9107569Y-26472085D01*
X9107569Y-26472085D02*
X9088521Y-26481609D01*
X9088521Y-26481609D02*
X9031378Y-26481609D01*
X9031378Y-26481609D02*
X9012331Y-26472085D01*
X9012331Y-26472085D02*
X9002807Y-26462561D01*
X9364712Y-26481609D02*
X9364712Y-26281609D01*
X9450426Y-26481609D02*
X9450426Y-26376847D01*
X9450426Y-26376847D02*
X9440902Y-26357799D01*
X9440902Y-26357799D02*
X9421855Y-26348275D01*
X9421855Y-26348275D02*
X9393283Y-26348275D01*
X9393283Y-26348275D02*
X9374236Y-26357799D01*
X9374236Y-26357799D02*
X9364712Y-26367323D01*
X9574236Y-26481609D02*
X9555188Y-26472085D01*
X9555188Y-26472085D02*
X9545664Y-26462561D01*
X9545664Y-26462561D02*
X9536140Y-26443513D01*
X9536140Y-26443513D02*
X9536140Y-26386371D01*
X9536140Y-26386371D02*
X9545664Y-26367323D01*
X9545664Y-26367323D02*
X9555188Y-26357799D01*
X9555188Y-26357799D02*
X9574236Y-26348275D01*
X9574236Y-26348275D02*
X9602807Y-26348275D01*
X9602807Y-26348275D02*
X9621855Y-26357799D01*
X9621855Y-26357799D02*
X9631378Y-26367323D01*
X9631378Y-26367323D02*
X9640902Y-26386371D01*
X9640902Y-26386371D02*
X9640902Y-26443513D01*
X9640902Y-26443513D02*
X9631378Y-26462561D01*
X9631378Y-26462561D02*
X9621855Y-26472085D01*
X9621855Y-26472085D02*
X9602807Y-26481609D01*
X9602807Y-26481609D02*
X9574236Y-26481609D01*
X9755188Y-26481609D02*
X9736140Y-26472085D01*
X9736140Y-26472085D02*
X9726617Y-26453037D01*
X9726617Y-26453037D02*
X9726617Y-26281609D01*
X9907569Y-26472085D02*
X9888521Y-26481609D01*
X9888521Y-26481609D02*
X9850426Y-26481609D01*
X9850426Y-26481609D02*
X9831378Y-26472085D01*
X9831378Y-26472085D02*
X9821855Y-26453037D01*
X9821855Y-26453037D02*
X9821855Y-26376847D01*
X9821855Y-26376847D02*
X9831378Y-26357799D01*
X9831378Y-26357799D02*
X9850426Y-26348275D01*
X9850426Y-26348275D02*
X9888521Y-26348275D01*
X9888521Y-26348275D02*
X9907569Y-26357799D01*
X9907569Y-26357799D02*
X9917093Y-26376847D01*
X9917093Y-26376847D02*
X9917093Y-26395894D01*
X9917093Y-26395894D02*
X9821855Y-26414942D01*
X9993283Y-26472085D02*
X10012331Y-26481609D01*
X10012331Y-26481609D02*
X10050426Y-26481609D01*
X10050426Y-26481609D02*
X10069474Y-26472085D01*
X10069474Y-26472085D02*
X10078998Y-26453037D01*
X10078998Y-26453037D02*
X10078998Y-26443513D01*
X10078998Y-26443513D02*
X10069474Y-26424466D01*
X10069474Y-26424466D02*
X10050426Y-26414942D01*
X10050426Y-26414942D02*
X10021855Y-26414942D01*
X10021855Y-26414942D02*
X10002807Y-26405418D01*
X10002807Y-26405418D02*
X9993283Y-26386371D01*
X9993283Y-26386371D02*
X9993283Y-26376847D01*
X9993283Y-26376847D02*
X10002807Y-26357799D01*
X10002807Y-26357799D02*
X10021855Y-26348275D01*
X10021855Y-26348275D02*
X10050426Y-26348275D01*
X10050426Y-26348275D02*
X10069474Y-26357799D01*
X10145664Y-26557799D02*
X10155188Y-26548275D01*
X10155188Y-26548275D02*
X10174236Y-26519704D01*
X10174236Y-26519704D02*
X10183759Y-26500656D01*
X10183759Y-26500656D02*
X10193283Y-26472085D01*
X10193283Y-26472085D02*
X10202807Y-26424466D01*
X10202807Y-26424466D02*
X10202807Y-26386371D01*
X10202807Y-26386371D02*
X10193283Y-26338752D01*
X10193283Y-26338752D02*
X10183759Y-26310180D01*
X10183759Y-26310180D02*
X10174236Y-26291133D01*
X10174236Y-26291133D02*
X10155188Y-26262561D01*
X10155188Y-26262561D02*
X10145664Y-26253037D01*
D16*
X5105125Y-26729125D02*
X5180125Y-26654125D01*
X5105125Y-26579125D01*
X5030125Y-26654125D01*
X5105125Y-26729125D01*
D13*
X5545664Y-26745609D02*
X5431378Y-26745609D01*
X5488521Y-26745609D02*
X5488521Y-26545609D01*
X5488521Y-26545609D02*
X5469473Y-26574180D01*
X5469473Y-26574180D02*
X5450426Y-26593228D01*
X5450426Y-26593228D02*
X5431378Y-26602752D01*
X5631378Y-26726561D02*
X5640902Y-26736085D01*
X5640902Y-26736085D02*
X5631378Y-26745609D01*
X5631378Y-26745609D02*
X5621854Y-26736085D01*
X5621854Y-26736085D02*
X5631378Y-26726561D01*
X5631378Y-26726561D02*
X5631378Y-26745609D01*
X5821854Y-26545609D02*
X5726616Y-26545609D01*
X5726616Y-26545609D02*
X5717092Y-26640847D01*
X5717092Y-26640847D02*
X5726616Y-26631323D01*
X5726616Y-26631323D02*
X5745664Y-26621799D01*
X5745664Y-26621799D02*
X5793283Y-26621799D01*
X5793283Y-26621799D02*
X5812330Y-26631323D01*
X5812330Y-26631323D02*
X5821854Y-26640847D01*
X5821854Y-26640847D02*
X5831378Y-26659894D01*
X5831378Y-26659894D02*
X5831378Y-26707513D01*
X5831378Y-26707513D02*
X5821854Y-26726561D01*
X5821854Y-26726561D02*
X5812330Y-26736085D01*
X5812330Y-26736085D02*
X5793283Y-26745609D01*
X5793283Y-26745609D02*
X5745664Y-26745609D01*
X5745664Y-26745609D02*
X5726616Y-26736085D01*
X5726616Y-26736085D02*
X5717092Y-26726561D01*
X5955187Y-26545609D02*
X5974235Y-26545609D01*
X5974235Y-26545609D02*
X5993283Y-26555133D01*
X5993283Y-26555133D02*
X6002807Y-26564656D01*
X6002807Y-26564656D02*
X6012330Y-26583704D01*
X6012330Y-26583704D02*
X6021854Y-26621799D01*
X6021854Y-26621799D02*
X6021854Y-26669418D01*
X6021854Y-26669418D02*
X6012330Y-26707513D01*
X6012330Y-26707513D02*
X6002807Y-26726561D01*
X6002807Y-26726561D02*
X5993283Y-26736085D01*
X5993283Y-26736085D02*
X5974235Y-26745609D01*
X5974235Y-26745609D02*
X5955187Y-26745609D01*
X5955187Y-26745609D02*
X5936140Y-26736085D01*
X5936140Y-26736085D02*
X5926616Y-26726561D01*
X5926616Y-26726561D02*
X5917092Y-26707513D01*
X5917092Y-26707513D02*
X5907568Y-26669418D01*
X5907568Y-26669418D02*
X5907568Y-26621799D01*
X5907568Y-26621799D02*
X5917092Y-26583704D01*
X5917092Y-26583704D02*
X5926616Y-26564656D01*
X5926616Y-26564656D02*
X5936140Y-26555133D01*
X5936140Y-26555133D02*
X5955187Y-26545609D01*
X6145664Y-26545609D02*
X6164711Y-26545609D01*
X6164711Y-26545609D02*
X6183759Y-26555133D01*
X6183759Y-26555133D02*
X6193283Y-26564656D01*
X6193283Y-26564656D02*
X6202807Y-26583704D01*
X6202807Y-26583704D02*
X6212330Y-26621799D01*
X6212330Y-26621799D02*
X6212330Y-26669418D01*
X6212330Y-26669418D02*
X6202807Y-26707513D01*
X6202807Y-26707513D02*
X6193283Y-26726561D01*
X6193283Y-26726561D02*
X6183759Y-26736085D01*
X6183759Y-26736085D02*
X6164711Y-26745609D01*
X6164711Y-26745609D02*
X6145664Y-26745609D01*
X6145664Y-26745609D02*
X6126616Y-26736085D01*
X6126616Y-26736085D02*
X6117092Y-26726561D01*
X6117092Y-26726561D02*
X6107568Y-26707513D01*
X6107568Y-26707513D02*
X6098045Y-26669418D01*
X6098045Y-26669418D02*
X6098045Y-26621799D01*
X6098045Y-26621799D02*
X6107568Y-26583704D01*
X6107568Y-26583704D02*
X6117092Y-26564656D01*
X6117092Y-26564656D02*
X6126616Y-26555133D01*
X6126616Y-26555133D02*
X6145664Y-26545609D01*
X6298045Y-26745609D02*
X6298045Y-26612275D01*
X6298045Y-26631323D02*
X6307568Y-26621799D01*
X6307568Y-26621799D02*
X6326616Y-26612275D01*
X6326616Y-26612275D02*
X6355188Y-26612275D01*
X6355188Y-26612275D02*
X6374235Y-26621799D01*
X6374235Y-26621799D02*
X6383759Y-26640847D01*
X6383759Y-26640847D02*
X6383759Y-26745609D01*
X6383759Y-26640847D02*
X6393283Y-26621799D01*
X6393283Y-26621799D02*
X6412330Y-26612275D01*
X6412330Y-26612275D02*
X6440902Y-26612275D01*
X6440902Y-26612275D02*
X6459949Y-26621799D01*
X6459949Y-26621799D02*
X6469473Y-26640847D01*
X6469473Y-26640847D02*
X6469473Y-26745609D01*
X6564711Y-26745609D02*
X6564711Y-26612275D01*
X6564711Y-26631323D02*
X6574235Y-26621799D01*
X6574235Y-26621799D02*
X6593283Y-26612275D01*
X6593283Y-26612275D02*
X6621854Y-26612275D01*
X6621854Y-26612275D02*
X6640902Y-26621799D01*
X6640902Y-26621799D02*
X6650426Y-26640847D01*
X6650426Y-26640847D02*
X6650426Y-26745609D01*
X6650426Y-26640847D02*
X6659949Y-26621799D01*
X6659949Y-26621799D02*
X6678997Y-26612275D01*
X6678997Y-26612275D02*
X6707568Y-26612275D01*
X6707568Y-26612275D02*
X6726616Y-26621799D01*
X6726616Y-26621799D02*
X6736140Y-26640847D01*
X6736140Y-26640847D02*
X6736140Y-26745609D01*
X7126616Y-26536085D02*
X6955188Y-26793228D01*
X7383759Y-26545609D02*
X7402807Y-26545609D01*
X7402807Y-26545609D02*
X7421854Y-26555133D01*
X7421854Y-26555133D02*
X7431378Y-26564656D01*
X7431378Y-26564656D02*
X7440902Y-26583704D01*
X7440902Y-26583704D02*
X7450426Y-26621799D01*
X7450426Y-26621799D02*
X7450426Y-26669418D01*
X7450426Y-26669418D02*
X7440902Y-26707513D01*
X7440902Y-26707513D02*
X7431378Y-26726561D01*
X7431378Y-26726561D02*
X7421854Y-26736085D01*
X7421854Y-26736085D02*
X7402807Y-26745609D01*
X7402807Y-26745609D02*
X7383759Y-26745609D01*
X7383759Y-26745609D02*
X7364711Y-26736085D01*
X7364711Y-26736085D02*
X7355188Y-26726561D01*
X7355188Y-26726561D02*
X7345664Y-26707513D01*
X7345664Y-26707513D02*
X7336140Y-26669418D01*
X7336140Y-26669418D02*
X7336140Y-26621799D01*
X7336140Y-26621799D02*
X7345664Y-26583704D01*
X7345664Y-26583704D02*
X7355188Y-26564656D01*
X7355188Y-26564656D02*
X7364711Y-26555133D01*
X7364711Y-26555133D02*
X7383759Y-26545609D01*
X7536140Y-26726561D02*
X7545664Y-26736085D01*
X7545664Y-26736085D02*
X7536140Y-26745609D01*
X7536140Y-26745609D02*
X7526616Y-26736085D01*
X7526616Y-26736085D02*
X7536140Y-26726561D01*
X7536140Y-26726561D02*
X7536140Y-26745609D01*
X7669473Y-26545609D02*
X7688521Y-26545609D01*
X7688521Y-26545609D02*
X7707569Y-26555133D01*
X7707569Y-26555133D02*
X7717092Y-26564656D01*
X7717092Y-26564656D02*
X7726616Y-26583704D01*
X7726616Y-26583704D02*
X7736140Y-26621799D01*
X7736140Y-26621799D02*
X7736140Y-26669418D01*
X7736140Y-26669418D02*
X7726616Y-26707513D01*
X7726616Y-26707513D02*
X7717092Y-26726561D01*
X7717092Y-26726561D02*
X7707569Y-26736085D01*
X7707569Y-26736085D02*
X7688521Y-26745609D01*
X7688521Y-26745609D02*
X7669473Y-26745609D01*
X7669473Y-26745609D02*
X7650426Y-26736085D01*
X7650426Y-26736085D02*
X7640902Y-26726561D01*
X7640902Y-26726561D02*
X7631378Y-26707513D01*
X7631378Y-26707513D02*
X7621854Y-26669418D01*
X7621854Y-26669418D02*
X7621854Y-26621799D01*
X7621854Y-26621799D02*
X7631378Y-26583704D01*
X7631378Y-26583704D02*
X7640902Y-26564656D01*
X7640902Y-26564656D02*
X7650426Y-26555133D01*
X7650426Y-26555133D02*
X7669473Y-26545609D01*
X7917092Y-26545609D02*
X7821854Y-26545609D01*
X7821854Y-26545609D02*
X7812331Y-26640847D01*
X7812331Y-26640847D02*
X7821854Y-26631323D01*
X7821854Y-26631323D02*
X7840902Y-26621799D01*
X7840902Y-26621799D02*
X7888521Y-26621799D01*
X7888521Y-26621799D02*
X7907569Y-26631323D01*
X7907569Y-26631323D02*
X7917092Y-26640847D01*
X7917092Y-26640847D02*
X7926616Y-26659894D01*
X7926616Y-26659894D02*
X7926616Y-26707513D01*
X7926616Y-26707513D02*
X7917092Y-26726561D01*
X7917092Y-26726561D02*
X7907569Y-26736085D01*
X7907569Y-26736085D02*
X7888521Y-26745609D01*
X7888521Y-26745609D02*
X7840902Y-26745609D01*
X7840902Y-26745609D02*
X7821854Y-26736085D01*
X7821854Y-26736085D02*
X7812331Y-26726561D01*
X8021854Y-26745609D02*
X8059950Y-26745609D01*
X8059950Y-26745609D02*
X8078997Y-26736085D01*
X8078997Y-26736085D02*
X8088521Y-26726561D01*
X8088521Y-26726561D02*
X8107569Y-26697990D01*
X8107569Y-26697990D02*
X8117092Y-26659894D01*
X8117092Y-26659894D02*
X8117092Y-26583704D01*
X8117092Y-26583704D02*
X8107569Y-26564656D01*
X8107569Y-26564656D02*
X8098045Y-26555133D01*
X8098045Y-26555133D02*
X8078997Y-26545609D01*
X8078997Y-26545609D02*
X8040902Y-26545609D01*
X8040902Y-26545609D02*
X8021854Y-26555133D01*
X8021854Y-26555133D02*
X8012331Y-26564656D01*
X8012331Y-26564656D02*
X8002807Y-26583704D01*
X8002807Y-26583704D02*
X8002807Y-26631323D01*
X8002807Y-26631323D02*
X8012331Y-26650371D01*
X8012331Y-26650371D02*
X8021854Y-26659894D01*
X8021854Y-26659894D02*
X8040902Y-26669418D01*
X8040902Y-26669418D02*
X8078997Y-26669418D01*
X8078997Y-26669418D02*
X8098045Y-26659894D01*
X8098045Y-26659894D02*
X8107569Y-26650371D01*
X8107569Y-26650371D02*
X8117092Y-26631323D01*
X8307569Y-26745609D02*
X8193283Y-26745609D01*
X8250426Y-26745609D02*
X8250426Y-26545609D01*
X8250426Y-26545609D02*
X8231378Y-26574180D01*
X8231378Y-26574180D02*
X8212331Y-26593228D01*
X8212331Y-26593228D02*
X8193283Y-26602752D01*
X8383759Y-26545609D02*
X8383759Y-26583704D01*
X8459950Y-26545609D02*
X8459950Y-26583704D01*
X8755188Y-26821799D02*
X8745664Y-26812275D01*
X8745664Y-26812275D02*
X8726616Y-26783704D01*
X8726616Y-26783704D02*
X8717093Y-26764656D01*
X8717093Y-26764656D02*
X8707569Y-26736085D01*
X8707569Y-26736085D02*
X8698045Y-26688466D01*
X8698045Y-26688466D02*
X8698045Y-26650371D01*
X8698045Y-26650371D02*
X8707569Y-26602752D01*
X8707569Y-26602752D02*
X8717093Y-26574180D01*
X8717093Y-26574180D02*
X8726616Y-26555133D01*
X8726616Y-26555133D02*
X8745664Y-26526561D01*
X8745664Y-26526561D02*
X8755188Y-26517037D01*
X8812331Y-26545609D02*
X8936140Y-26545609D01*
X8936140Y-26545609D02*
X8869474Y-26621799D01*
X8869474Y-26621799D02*
X8898045Y-26621799D01*
X8898045Y-26621799D02*
X8917093Y-26631323D01*
X8917093Y-26631323D02*
X8926616Y-26640847D01*
X8926616Y-26640847D02*
X8936140Y-26659894D01*
X8936140Y-26659894D02*
X8936140Y-26707513D01*
X8936140Y-26707513D02*
X8926616Y-26726561D01*
X8926616Y-26726561D02*
X8917093Y-26736085D01*
X8917093Y-26736085D02*
X8898045Y-26745609D01*
X8898045Y-26745609D02*
X8840902Y-26745609D01*
X8840902Y-26745609D02*
X8821855Y-26736085D01*
X8821855Y-26736085D02*
X8812331Y-26726561D01*
X9107569Y-26612275D02*
X9107569Y-26745609D01*
X9059950Y-26536085D02*
X9012331Y-26678942D01*
X9012331Y-26678942D02*
X9136140Y-26678942D01*
X9364712Y-26745609D02*
X9364712Y-26545609D01*
X9450426Y-26745609D02*
X9450426Y-26640847D01*
X9450426Y-26640847D02*
X9440902Y-26621799D01*
X9440902Y-26621799D02*
X9421855Y-26612275D01*
X9421855Y-26612275D02*
X9393283Y-26612275D01*
X9393283Y-26612275D02*
X9374236Y-26621799D01*
X9374236Y-26621799D02*
X9364712Y-26631323D01*
X9574236Y-26745609D02*
X9555188Y-26736085D01*
X9555188Y-26736085D02*
X9545664Y-26726561D01*
X9545664Y-26726561D02*
X9536140Y-26707513D01*
X9536140Y-26707513D02*
X9536140Y-26650371D01*
X9536140Y-26650371D02*
X9545664Y-26631323D01*
X9545664Y-26631323D02*
X9555188Y-26621799D01*
X9555188Y-26621799D02*
X9574236Y-26612275D01*
X9574236Y-26612275D02*
X9602807Y-26612275D01*
X9602807Y-26612275D02*
X9621855Y-26621799D01*
X9621855Y-26621799D02*
X9631378Y-26631323D01*
X9631378Y-26631323D02*
X9640902Y-26650371D01*
X9640902Y-26650371D02*
X9640902Y-26707513D01*
X9640902Y-26707513D02*
X9631378Y-26726561D01*
X9631378Y-26726561D02*
X9621855Y-26736085D01*
X9621855Y-26736085D02*
X9602807Y-26745609D01*
X9602807Y-26745609D02*
X9574236Y-26745609D01*
X9755188Y-26745609D02*
X9736140Y-26736085D01*
X9736140Y-26736085D02*
X9726617Y-26717037D01*
X9726617Y-26717037D02*
X9726617Y-26545609D01*
X9907569Y-26736085D02*
X9888521Y-26745609D01*
X9888521Y-26745609D02*
X9850426Y-26745609D01*
X9850426Y-26745609D02*
X9831378Y-26736085D01*
X9831378Y-26736085D02*
X9821855Y-26717037D01*
X9821855Y-26717037D02*
X9821855Y-26640847D01*
X9821855Y-26640847D02*
X9831378Y-26621799D01*
X9831378Y-26621799D02*
X9850426Y-26612275D01*
X9850426Y-26612275D02*
X9888521Y-26612275D01*
X9888521Y-26612275D02*
X9907569Y-26621799D01*
X9907569Y-26621799D02*
X9917093Y-26640847D01*
X9917093Y-26640847D02*
X9917093Y-26659894D01*
X9917093Y-26659894D02*
X9821855Y-26678942D01*
X9993283Y-26736085D02*
X10012331Y-26745609D01*
X10012331Y-26745609D02*
X10050426Y-26745609D01*
X10050426Y-26745609D02*
X10069474Y-26736085D01*
X10069474Y-26736085D02*
X10078998Y-26717037D01*
X10078998Y-26717037D02*
X10078998Y-26707513D01*
X10078998Y-26707513D02*
X10069474Y-26688466D01*
X10069474Y-26688466D02*
X10050426Y-26678942D01*
X10050426Y-26678942D02*
X10021855Y-26678942D01*
X10021855Y-26678942D02*
X10002807Y-26669418D01*
X10002807Y-26669418D02*
X9993283Y-26650371D01*
X9993283Y-26650371D02*
X9993283Y-26640847D01*
X9993283Y-26640847D02*
X10002807Y-26621799D01*
X10002807Y-26621799D02*
X10021855Y-26612275D01*
X10021855Y-26612275D02*
X10050426Y-26612275D01*
X10050426Y-26612275D02*
X10069474Y-26621799D01*
X10145664Y-26821799D02*
X10155188Y-26812275D01*
X10155188Y-26812275D02*
X10174236Y-26783704D01*
X10174236Y-26783704D02*
X10183759Y-26764656D01*
X10183759Y-26764656D02*
X10193283Y-26736085D01*
X10193283Y-26736085D02*
X10202807Y-26688466D01*
X10202807Y-26688466D02*
X10202807Y-26650371D01*
X10202807Y-26650371D02*
X10193283Y-26602752D01*
X10193283Y-26602752D02*
X10183759Y-26574180D01*
X10183759Y-26574180D02*
X10174236Y-26555133D01*
X10174236Y-26555133D02*
X10155188Y-26526561D01*
X10155188Y-26526561D02*
X10145664Y-26517037D01*
M02*
