M48
; DRILL file {KiCad 8.0.3} date 2024-07-07T23:06:26-0700
; FORMAT={-:-/ absolute / metric / decimal}
; #@! TF.CreationDate,2024-07-07T23:06:26-07:00
; #@! TF.GenerationSoftware,Kicad,Pcbnew,8.0.3
; #@! TF.FileFunction,NonPlated,1,2,NPTH
FMAT,2
METRIC
; #@! TA.AperFunction,NonPlated,NPTH,ComponentDrill
T1C1.750
; #@! TA.AperFunction,NonPlated,NPTH,ComponentDrill
T2C3.048
; #@! TA.AperFunction,NonPlated,NPTH,ComponentDrill
T3C3.988
; #@! TA.AperFunction,NonPlated,NPTH,ComponentDrill
T4C4.000
%
G90
G05
T1
X77.946Y-197.169
X77.946Y-216.219
X88.106Y-197.169
X88.106Y-216.219
X96.996Y-197.169
X96.996Y-216.219
X107.156Y-197.169
X107.156Y-216.219
X132.874Y-205.105
X143.034Y-205.105
X151.924Y-171.767
X162.084Y-171.767
X170.974Y-205.105
X181.134Y-205.105
X190.024Y-171.767
X200.184Y-171.767
X209.074Y-205.105
X219.234Y-205.105
X228.124Y-205.105
X238.284Y-205.105
X247.174Y-171.767
X257.334Y-171.767
X266.224Y-205.105
X276.384Y-205.105
X285.274Y-171.767
X295.434Y-171.767
X304.324Y-205.105
X314.484Y-205.105
X323.374Y-171.767
X333.534Y-171.767
X342.424Y-205.105
X352.584Y-205.105
X361.474Y-205.105
X371.634Y-205.105
T2
X130.349Y-182.68
X130.349Y-220.78
X149.399Y-149.343
X149.399Y-187.442
X168.449Y-182.68
X168.449Y-220.78
X187.499Y-149.343
X187.499Y-187.442
X206.549Y-182.68
X206.549Y-220.78
X225.599Y-182.68
X225.599Y-220.78
X244.649Y-149.343
X244.649Y-187.442
X263.699Y-182.68
X263.699Y-220.78
X282.749Y-149.343
X282.749Y-187.442
X301.799Y-182.68
X301.799Y-220.78
X320.849Y-149.343
X320.849Y-187.442
X339.899Y-182.68
X339.899Y-220.78
X358.949Y-182.68
X358.949Y-220.78
T3
X145.559Y-182.68
X145.559Y-220.78
X164.609Y-149.343
X164.609Y-187.442
X183.659Y-182.68
X183.659Y-220.78
X202.709Y-149.343
X202.709Y-187.442
X221.759Y-182.68
X221.759Y-220.78
X240.809Y-182.68
X240.809Y-220.78
X259.859Y-149.343
X259.859Y-187.442
X278.909Y-182.68
X278.909Y-220.78
X297.959Y-149.343
X297.959Y-187.442
X317.009Y-182.68
X317.009Y-220.78
X336.059Y-149.343
X336.059Y-187.442
X355.109Y-182.68
X355.109Y-220.78
X374.159Y-182.68
X374.159Y-220.78
T4
X83.026Y-197.169
X83.026Y-216.219
X102.076Y-197.169
X102.076Y-216.219
X137.954Y-205.105
X157.004Y-171.767
X176.054Y-205.105
X195.104Y-171.767
X214.154Y-205.105
X233.204Y-205.105
X252.254Y-171.767
X271.304Y-205.105
X290.354Y-171.767
X309.404Y-205.105
X328.454Y-171.767
X347.504Y-205.105
X366.554Y-205.105
M30
