G04 #@! TF.GenerationSoftware,KiCad,Pcbnew,8.0.3*
G04 #@! TF.CreationDate,2024-07-25T17:07:34-07:00*
G04 #@! TF.ProjectId,melokey,6d656c6f-6b65-4792-9e6b-696361645f70,rev?*
G04 #@! TF.SameCoordinates,Original*
G04 #@! TF.FileFunction,AssemblyDrawing,Bot*
%FSLAX46Y46*%
G04 Gerber Fmt 4.6, Leading zero omitted, Abs format (unit mm)*
G04 Created by KiCad (PCBNEW 8.0.3) date 2024-07-25 17:07:34*
%MOMM*%
%LPD*%
G01*
G04 APERTURE LIST*
%ADD10C,0.150000*%
%ADD11C,0.120000*%
%ADD12C,0.100000*%
%ADD13C,0.127000*%
%ADD14C,0.200000*%
G04 APERTURE END LIST*
D10*
X102951069Y-211534642D02*
X102951069Y-210963214D01*
X102951069Y-211248928D02*
X101951069Y-211248928D01*
X101951069Y-211248928D02*
X102093926Y-211153690D01*
X102093926Y-211153690D02*
X102189164Y-211058452D01*
X102189164Y-211058452D02*
X102236783Y-210963214D01*
X102951069Y-211963214D02*
X101951069Y-211963214D01*
X101951069Y-211963214D02*
X102951069Y-212534642D01*
X102951069Y-212534642D02*
X101951069Y-212534642D01*
X102284402Y-213439404D02*
X102951069Y-213439404D01*
X101903450Y-213201309D02*
X102617735Y-212963214D01*
X102617735Y-212963214D02*
X102617735Y-213582261D01*
X102951069Y-214487023D02*
X102951069Y-213915595D01*
X102951069Y-214201309D02*
X101951069Y-214201309D01*
X101951069Y-214201309D02*
X102093926Y-214106071D01*
X102093926Y-214106071D02*
X102189164Y-214010833D01*
X102189164Y-214010833D02*
X102236783Y-213915595D01*
X102284402Y-215344166D02*
X102951069Y-215344166D01*
X101903450Y-215106071D02*
X102617735Y-214867976D01*
X102617735Y-214867976D02*
X102617735Y-215487023D01*
X102379640Y-216010833D02*
X102332021Y-215915595D01*
X102332021Y-215915595D02*
X102284402Y-215867976D01*
X102284402Y-215867976D02*
X102189164Y-215820357D01*
X102189164Y-215820357D02*
X102141545Y-215820357D01*
X102141545Y-215820357D02*
X102046307Y-215867976D01*
X102046307Y-215867976D02*
X101998688Y-215915595D01*
X101998688Y-215915595D02*
X101951069Y-216010833D01*
X101951069Y-216010833D02*
X101951069Y-216201309D01*
X101951069Y-216201309D02*
X101998688Y-216296547D01*
X101998688Y-216296547D02*
X102046307Y-216344166D01*
X102046307Y-216344166D02*
X102141545Y-216391785D01*
X102141545Y-216391785D02*
X102189164Y-216391785D01*
X102189164Y-216391785D02*
X102284402Y-216344166D01*
X102284402Y-216344166D02*
X102332021Y-216296547D01*
X102332021Y-216296547D02*
X102379640Y-216201309D01*
X102379640Y-216201309D02*
X102379640Y-216010833D01*
X102379640Y-216010833D02*
X102427259Y-215915595D01*
X102427259Y-215915595D02*
X102474878Y-215867976D01*
X102474878Y-215867976D02*
X102570116Y-215820357D01*
X102570116Y-215820357D02*
X102760592Y-215820357D01*
X102760592Y-215820357D02*
X102855830Y-215867976D01*
X102855830Y-215867976D02*
X102903450Y-215915595D01*
X102903450Y-215915595D02*
X102951069Y-216010833D01*
X102951069Y-216010833D02*
X102951069Y-216201309D01*
X102951069Y-216201309D02*
X102903450Y-216296547D01*
X102903450Y-216296547D02*
X102855830Y-216344166D01*
X102855830Y-216344166D02*
X102760592Y-216391785D01*
X102760592Y-216391785D02*
X102570116Y-216391785D01*
X102570116Y-216391785D02*
X102474878Y-216344166D01*
X102474878Y-216344166D02*
X102427259Y-216296547D01*
X102427259Y-216296547D02*
X102379640Y-216201309D01*
X106871069Y-217225595D02*
X105871069Y-217225595D01*
X106871069Y-217797023D02*
X106299640Y-217368452D01*
X105871069Y-217797023D02*
X106442497Y-217225595D01*
D11*
X104980105Y-212406071D02*
X104180105Y-212406071D01*
X104180105Y-212406071D02*
X104180105Y-212596547D01*
X104180105Y-212596547D02*
X104218200Y-212710833D01*
X104218200Y-212710833D02*
X104294390Y-212787023D01*
X104294390Y-212787023D02*
X104370581Y-212825118D01*
X104370581Y-212825118D02*
X104522962Y-212863214D01*
X104522962Y-212863214D02*
X104637248Y-212863214D01*
X104637248Y-212863214D02*
X104789629Y-212825118D01*
X104789629Y-212825118D02*
X104865819Y-212787023D01*
X104865819Y-212787023D02*
X104942010Y-212710833D01*
X104942010Y-212710833D02*
X104980105Y-212596547D01*
X104980105Y-212596547D02*
X104980105Y-212406071D01*
X104980105Y-213625118D02*
X104980105Y-213167975D01*
X104980105Y-213396547D02*
X104180105Y-213396547D01*
X104180105Y-213396547D02*
X104294390Y-213320356D01*
X104294390Y-213320356D02*
X104370581Y-213244166D01*
X104370581Y-213244166D02*
X104408676Y-213167975D01*
X104180105Y-213891785D02*
X104180105Y-214425119D01*
X104180105Y-214425119D02*
X104980105Y-214082261D01*
D10*
X260113569Y-168672142D02*
X260113569Y-168100714D01*
X260113569Y-168386428D02*
X259113569Y-168386428D01*
X259113569Y-168386428D02*
X259256426Y-168291190D01*
X259256426Y-168291190D02*
X259351664Y-168195952D01*
X259351664Y-168195952D02*
X259399283Y-168100714D01*
X260113569Y-169100714D02*
X259113569Y-169100714D01*
X259113569Y-169100714D02*
X260113569Y-169672142D01*
X260113569Y-169672142D02*
X259113569Y-169672142D01*
X259446902Y-170576904D02*
X260113569Y-170576904D01*
X259065950Y-170338809D02*
X259780235Y-170100714D01*
X259780235Y-170100714D02*
X259780235Y-170719761D01*
X260113569Y-171624523D02*
X260113569Y-171053095D01*
X260113569Y-171338809D02*
X259113569Y-171338809D01*
X259113569Y-171338809D02*
X259256426Y-171243571D01*
X259256426Y-171243571D02*
X259351664Y-171148333D01*
X259351664Y-171148333D02*
X259399283Y-171053095D01*
X259446902Y-172481666D02*
X260113569Y-172481666D01*
X259065950Y-172243571D02*
X259780235Y-172005476D01*
X259780235Y-172005476D02*
X259780235Y-172624523D01*
X259542140Y-173148333D02*
X259494521Y-173053095D01*
X259494521Y-173053095D02*
X259446902Y-173005476D01*
X259446902Y-173005476D02*
X259351664Y-172957857D01*
X259351664Y-172957857D02*
X259304045Y-172957857D01*
X259304045Y-172957857D02*
X259208807Y-173005476D01*
X259208807Y-173005476D02*
X259161188Y-173053095D01*
X259161188Y-173053095D02*
X259113569Y-173148333D01*
X259113569Y-173148333D02*
X259113569Y-173338809D01*
X259113569Y-173338809D02*
X259161188Y-173434047D01*
X259161188Y-173434047D02*
X259208807Y-173481666D01*
X259208807Y-173481666D02*
X259304045Y-173529285D01*
X259304045Y-173529285D02*
X259351664Y-173529285D01*
X259351664Y-173529285D02*
X259446902Y-173481666D01*
X259446902Y-173481666D02*
X259494521Y-173434047D01*
X259494521Y-173434047D02*
X259542140Y-173338809D01*
X259542140Y-173338809D02*
X259542140Y-173148333D01*
X259542140Y-173148333D02*
X259589759Y-173053095D01*
X259589759Y-173053095D02*
X259637378Y-173005476D01*
X259637378Y-173005476D02*
X259732616Y-172957857D01*
X259732616Y-172957857D02*
X259923092Y-172957857D01*
X259923092Y-172957857D02*
X260018330Y-173005476D01*
X260018330Y-173005476D02*
X260065950Y-173053095D01*
X260065950Y-173053095D02*
X260113569Y-173148333D01*
X260113569Y-173148333D02*
X260113569Y-173338809D01*
X260113569Y-173338809D02*
X260065950Y-173434047D01*
X260065950Y-173434047D02*
X260018330Y-173481666D01*
X260018330Y-173481666D02*
X259923092Y-173529285D01*
X259923092Y-173529285D02*
X259732616Y-173529285D01*
X259732616Y-173529285D02*
X259637378Y-173481666D01*
X259637378Y-173481666D02*
X259589759Y-173434047D01*
X259589759Y-173434047D02*
X259542140Y-173338809D01*
D11*
X262142605Y-169543571D02*
X261342605Y-169543571D01*
X261342605Y-169543571D02*
X261342605Y-169734047D01*
X261342605Y-169734047D02*
X261380700Y-169848333D01*
X261380700Y-169848333D02*
X261456890Y-169924523D01*
X261456890Y-169924523D02*
X261533081Y-169962618D01*
X261533081Y-169962618D02*
X261685462Y-170000714D01*
X261685462Y-170000714D02*
X261799748Y-170000714D01*
X261799748Y-170000714D02*
X261952129Y-169962618D01*
X261952129Y-169962618D02*
X262028319Y-169924523D01*
X262028319Y-169924523D02*
X262104510Y-169848333D01*
X262104510Y-169848333D02*
X262142605Y-169734047D01*
X262142605Y-169734047D02*
X262142605Y-169543571D01*
X262142605Y-170762618D02*
X262142605Y-170305475D01*
X262142605Y-170534047D02*
X261342605Y-170534047D01*
X261342605Y-170534047D02*
X261456890Y-170457856D01*
X261456890Y-170457856D02*
X261533081Y-170381666D01*
X261533081Y-170381666D02*
X261571176Y-170305475D01*
X262142605Y-171524523D02*
X262142605Y-171067380D01*
X262142605Y-171295952D02*
X261342605Y-171295952D01*
X261342605Y-171295952D02*
X261456890Y-171219761D01*
X261456890Y-171219761D02*
X261533081Y-171143571D01*
X261533081Y-171143571D02*
X261571176Y-171067380D01*
D10*
X264033569Y-174363095D02*
X263033569Y-174363095D01*
X264033569Y-174934523D02*
X263462140Y-174505952D01*
X263033569Y-174934523D02*
X263604997Y-174363095D01*
X241063569Y-202009642D02*
X241063569Y-201438214D01*
X241063569Y-201723928D02*
X240063569Y-201723928D01*
X240063569Y-201723928D02*
X240206426Y-201628690D01*
X240206426Y-201628690D02*
X240301664Y-201533452D01*
X240301664Y-201533452D02*
X240349283Y-201438214D01*
X241063569Y-202438214D02*
X240063569Y-202438214D01*
X240063569Y-202438214D02*
X241063569Y-203009642D01*
X241063569Y-203009642D02*
X240063569Y-203009642D01*
X240396902Y-203914404D02*
X241063569Y-203914404D01*
X240015950Y-203676309D02*
X240730235Y-203438214D01*
X240730235Y-203438214D02*
X240730235Y-204057261D01*
X241063569Y-204962023D02*
X241063569Y-204390595D01*
X241063569Y-204676309D02*
X240063569Y-204676309D01*
X240063569Y-204676309D02*
X240206426Y-204581071D01*
X240206426Y-204581071D02*
X240301664Y-204485833D01*
X240301664Y-204485833D02*
X240349283Y-204390595D01*
X240396902Y-205819166D02*
X241063569Y-205819166D01*
X240015950Y-205581071D02*
X240730235Y-205342976D01*
X240730235Y-205342976D02*
X240730235Y-205962023D01*
X240492140Y-206485833D02*
X240444521Y-206390595D01*
X240444521Y-206390595D02*
X240396902Y-206342976D01*
X240396902Y-206342976D02*
X240301664Y-206295357D01*
X240301664Y-206295357D02*
X240254045Y-206295357D01*
X240254045Y-206295357D02*
X240158807Y-206342976D01*
X240158807Y-206342976D02*
X240111188Y-206390595D01*
X240111188Y-206390595D02*
X240063569Y-206485833D01*
X240063569Y-206485833D02*
X240063569Y-206676309D01*
X240063569Y-206676309D02*
X240111188Y-206771547D01*
X240111188Y-206771547D02*
X240158807Y-206819166D01*
X240158807Y-206819166D02*
X240254045Y-206866785D01*
X240254045Y-206866785D02*
X240301664Y-206866785D01*
X240301664Y-206866785D02*
X240396902Y-206819166D01*
X240396902Y-206819166D02*
X240444521Y-206771547D01*
X240444521Y-206771547D02*
X240492140Y-206676309D01*
X240492140Y-206676309D02*
X240492140Y-206485833D01*
X240492140Y-206485833D02*
X240539759Y-206390595D01*
X240539759Y-206390595D02*
X240587378Y-206342976D01*
X240587378Y-206342976D02*
X240682616Y-206295357D01*
X240682616Y-206295357D02*
X240873092Y-206295357D01*
X240873092Y-206295357D02*
X240968330Y-206342976D01*
X240968330Y-206342976D02*
X241015950Y-206390595D01*
X241015950Y-206390595D02*
X241063569Y-206485833D01*
X241063569Y-206485833D02*
X241063569Y-206676309D01*
X241063569Y-206676309D02*
X241015950Y-206771547D01*
X241015950Y-206771547D02*
X240968330Y-206819166D01*
X240968330Y-206819166D02*
X240873092Y-206866785D01*
X240873092Y-206866785D02*
X240682616Y-206866785D01*
X240682616Y-206866785D02*
X240587378Y-206819166D01*
X240587378Y-206819166D02*
X240539759Y-206771547D01*
X240539759Y-206771547D02*
X240492140Y-206676309D01*
X244983569Y-207700595D02*
X243983569Y-207700595D01*
X244983569Y-208272023D02*
X244412140Y-207843452D01*
X243983569Y-208272023D02*
X244554997Y-207700595D01*
D11*
X243092605Y-203262024D02*
X242292605Y-203262024D01*
X242292605Y-203262024D02*
X242292605Y-203452500D01*
X242292605Y-203452500D02*
X242330700Y-203566786D01*
X242330700Y-203566786D02*
X242406890Y-203642976D01*
X242406890Y-203642976D02*
X242483081Y-203681071D01*
X242483081Y-203681071D02*
X242635462Y-203719167D01*
X242635462Y-203719167D02*
X242749748Y-203719167D01*
X242749748Y-203719167D02*
X242902129Y-203681071D01*
X242902129Y-203681071D02*
X242978319Y-203642976D01*
X242978319Y-203642976D02*
X243054510Y-203566786D01*
X243054510Y-203566786D02*
X243092605Y-203452500D01*
X243092605Y-203452500D02*
X243092605Y-203262024D01*
X242559271Y-204404881D02*
X243092605Y-204404881D01*
X242254510Y-204214405D02*
X242825938Y-204023928D01*
X242825938Y-204023928D02*
X242825938Y-204519167D01*
D10*
X202963569Y-168672142D02*
X202963569Y-168100714D01*
X202963569Y-168386428D02*
X201963569Y-168386428D01*
X201963569Y-168386428D02*
X202106426Y-168291190D01*
X202106426Y-168291190D02*
X202201664Y-168195952D01*
X202201664Y-168195952D02*
X202249283Y-168100714D01*
X202963569Y-169100714D02*
X201963569Y-169100714D01*
X201963569Y-169100714D02*
X202963569Y-169672142D01*
X202963569Y-169672142D02*
X201963569Y-169672142D01*
X202296902Y-170576904D02*
X202963569Y-170576904D01*
X201915950Y-170338809D02*
X202630235Y-170100714D01*
X202630235Y-170100714D02*
X202630235Y-170719761D01*
X202963569Y-171624523D02*
X202963569Y-171053095D01*
X202963569Y-171338809D02*
X201963569Y-171338809D01*
X201963569Y-171338809D02*
X202106426Y-171243571D01*
X202106426Y-171243571D02*
X202201664Y-171148333D01*
X202201664Y-171148333D02*
X202249283Y-171053095D01*
X202296902Y-172481666D02*
X202963569Y-172481666D01*
X201915950Y-172243571D02*
X202630235Y-172005476D01*
X202630235Y-172005476D02*
X202630235Y-172624523D01*
X202392140Y-173148333D02*
X202344521Y-173053095D01*
X202344521Y-173053095D02*
X202296902Y-173005476D01*
X202296902Y-173005476D02*
X202201664Y-172957857D01*
X202201664Y-172957857D02*
X202154045Y-172957857D01*
X202154045Y-172957857D02*
X202058807Y-173005476D01*
X202058807Y-173005476D02*
X202011188Y-173053095D01*
X202011188Y-173053095D02*
X201963569Y-173148333D01*
X201963569Y-173148333D02*
X201963569Y-173338809D01*
X201963569Y-173338809D02*
X202011188Y-173434047D01*
X202011188Y-173434047D02*
X202058807Y-173481666D01*
X202058807Y-173481666D02*
X202154045Y-173529285D01*
X202154045Y-173529285D02*
X202201664Y-173529285D01*
X202201664Y-173529285D02*
X202296902Y-173481666D01*
X202296902Y-173481666D02*
X202344521Y-173434047D01*
X202344521Y-173434047D02*
X202392140Y-173338809D01*
X202392140Y-173338809D02*
X202392140Y-173148333D01*
X202392140Y-173148333D02*
X202439759Y-173053095D01*
X202439759Y-173053095D02*
X202487378Y-173005476D01*
X202487378Y-173005476D02*
X202582616Y-172957857D01*
X202582616Y-172957857D02*
X202773092Y-172957857D01*
X202773092Y-172957857D02*
X202868330Y-173005476D01*
X202868330Y-173005476D02*
X202915950Y-173053095D01*
X202915950Y-173053095D02*
X202963569Y-173148333D01*
X202963569Y-173148333D02*
X202963569Y-173338809D01*
X202963569Y-173338809D02*
X202915950Y-173434047D01*
X202915950Y-173434047D02*
X202868330Y-173481666D01*
X202868330Y-173481666D02*
X202773092Y-173529285D01*
X202773092Y-173529285D02*
X202582616Y-173529285D01*
X202582616Y-173529285D02*
X202487378Y-173481666D01*
X202487378Y-173481666D02*
X202439759Y-173434047D01*
X202439759Y-173434047D02*
X202392140Y-173338809D01*
X206883569Y-174363095D02*
X205883569Y-174363095D01*
X206883569Y-174934523D02*
X206312140Y-174505952D01*
X205883569Y-174934523D02*
X206454997Y-174363095D01*
D11*
X204992605Y-169543571D02*
X204192605Y-169543571D01*
X204192605Y-169543571D02*
X204192605Y-169734047D01*
X204192605Y-169734047D02*
X204230700Y-169848333D01*
X204230700Y-169848333D02*
X204306890Y-169924523D01*
X204306890Y-169924523D02*
X204383081Y-169962618D01*
X204383081Y-169962618D02*
X204535462Y-170000714D01*
X204535462Y-170000714D02*
X204649748Y-170000714D01*
X204649748Y-170000714D02*
X204802129Y-169962618D01*
X204802129Y-169962618D02*
X204878319Y-169924523D01*
X204878319Y-169924523D02*
X204954510Y-169848333D01*
X204954510Y-169848333D02*
X204992605Y-169734047D01*
X204992605Y-169734047D02*
X204992605Y-169543571D01*
X204992605Y-170762618D02*
X204992605Y-170305475D01*
X204992605Y-170534047D02*
X204192605Y-170534047D01*
X204192605Y-170534047D02*
X204306890Y-170457856D01*
X204306890Y-170457856D02*
X204383081Y-170381666D01*
X204383081Y-170381666D02*
X204421176Y-170305475D01*
X204192605Y-171257857D02*
X204192605Y-171334047D01*
X204192605Y-171334047D02*
X204230700Y-171410238D01*
X204230700Y-171410238D02*
X204268795Y-171448333D01*
X204268795Y-171448333D02*
X204344986Y-171486428D01*
X204344986Y-171486428D02*
X204497367Y-171524523D01*
X204497367Y-171524523D02*
X204687843Y-171524523D01*
X204687843Y-171524523D02*
X204840224Y-171486428D01*
X204840224Y-171486428D02*
X204916414Y-171448333D01*
X204916414Y-171448333D02*
X204954510Y-171410238D01*
X204954510Y-171410238D02*
X204992605Y-171334047D01*
X204992605Y-171334047D02*
X204992605Y-171257857D01*
X204992605Y-171257857D02*
X204954510Y-171181666D01*
X204954510Y-171181666D02*
X204916414Y-171143571D01*
X204916414Y-171143571D02*
X204840224Y-171105476D01*
X204840224Y-171105476D02*
X204687843Y-171067380D01*
X204687843Y-171067380D02*
X204497367Y-171067380D01*
X204497367Y-171067380D02*
X204344986Y-171105476D01*
X204344986Y-171105476D02*
X204268795Y-171143571D01*
X204268795Y-171143571D02*
X204230700Y-171181666D01*
X204230700Y-171181666D02*
X204192605Y-171257857D01*
D10*
X83901069Y-192484642D02*
X83901069Y-191913214D01*
X83901069Y-192198928D02*
X82901069Y-192198928D01*
X82901069Y-192198928D02*
X83043926Y-192103690D01*
X83043926Y-192103690D02*
X83139164Y-192008452D01*
X83139164Y-192008452D02*
X83186783Y-191913214D01*
X83901069Y-192913214D02*
X82901069Y-192913214D01*
X82901069Y-192913214D02*
X83901069Y-193484642D01*
X83901069Y-193484642D02*
X82901069Y-193484642D01*
X83234402Y-194389404D02*
X83901069Y-194389404D01*
X82853450Y-194151309D02*
X83567735Y-193913214D01*
X83567735Y-193913214D02*
X83567735Y-194532261D01*
X83901069Y-195437023D02*
X83901069Y-194865595D01*
X83901069Y-195151309D02*
X82901069Y-195151309D01*
X82901069Y-195151309D02*
X83043926Y-195056071D01*
X83043926Y-195056071D02*
X83139164Y-194960833D01*
X83139164Y-194960833D02*
X83186783Y-194865595D01*
X83234402Y-196294166D02*
X83901069Y-196294166D01*
X82853450Y-196056071D02*
X83567735Y-195817976D01*
X83567735Y-195817976D02*
X83567735Y-196437023D01*
X83329640Y-196960833D02*
X83282021Y-196865595D01*
X83282021Y-196865595D02*
X83234402Y-196817976D01*
X83234402Y-196817976D02*
X83139164Y-196770357D01*
X83139164Y-196770357D02*
X83091545Y-196770357D01*
X83091545Y-196770357D02*
X82996307Y-196817976D01*
X82996307Y-196817976D02*
X82948688Y-196865595D01*
X82948688Y-196865595D02*
X82901069Y-196960833D01*
X82901069Y-196960833D02*
X82901069Y-197151309D01*
X82901069Y-197151309D02*
X82948688Y-197246547D01*
X82948688Y-197246547D02*
X82996307Y-197294166D01*
X82996307Y-197294166D02*
X83091545Y-197341785D01*
X83091545Y-197341785D02*
X83139164Y-197341785D01*
X83139164Y-197341785D02*
X83234402Y-197294166D01*
X83234402Y-197294166D02*
X83282021Y-197246547D01*
X83282021Y-197246547D02*
X83329640Y-197151309D01*
X83329640Y-197151309D02*
X83329640Y-196960833D01*
X83329640Y-196960833D02*
X83377259Y-196865595D01*
X83377259Y-196865595D02*
X83424878Y-196817976D01*
X83424878Y-196817976D02*
X83520116Y-196770357D01*
X83520116Y-196770357D02*
X83710592Y-196770357D01*
X83710592Y-196770357D02*
X83805830Y-196817976D01*
X83805830Y-196817976D02*
X83853450Y-196865595D01*
X83853450Y-196865595D02*
X83901069Y-196960833D01*
X83901069Y-196960833D02*
X83901069Y-197151309D01*
X83901069Y-197151309D02*
X83853450Y-197246547D01*
X83853450Y-197246547D02*
X83805830Y-197294166D01*
X83805830Y-197294166D02*
X83710592Y-197341785D01*
X83710592Y-197341785D02*
X83520116Y-197341785D01*
X83520116Y-197341785D02*
X83424878Y-197294166D01*
X83424878Y-197294166D02*
X83377259Y-197246547D01*
X83377259Y-197246547D02*
X83329640Y-197151309D01*
D11*
X85930105Y-193356071D02*
X85130105Y-193356071D01*
X85130105Y-193356071D02*
X85130105Y-193546547D01*
X85130105Y-193546547D02*
X85168200Y-193660833D01*
X85168200Y-193660833D02*
X85244390Y-193737023D01*
X85244390Y-193737023D02*
X85320581Y-193775118D01*
X85320581Y-193775118D02*
X85472962Y-193813214D01*
X85472962Y-193813214D02*
X85587248Y-193813214D01*
X85587248Y-193813214D02*
X85739629Y-193775118D01*
X85739629Y-193775118D02*
X85815819Y-193737023D01*
X85815819Y-193737023D02*
X85892010Y-193660833D01*
X85892010Y-193660833D02*
X85930105Y-193546547D01*
X85930105Y-193546547D02*
X85930105Y-193356071D01*
X85930105Y-194575118D02*
X85930105Y-194117975D01*
X85930105Y-194346547D02*
X85130105Y-194346547D01*
X85130105Y-194346547D02*
X85244390Y-194270356D01*
X85244390Y-194270356D02*
X85320581Y-194194166D01*
X85320581Y-194194166D02*
X85358676Y-194117975D01*
X85396771Y-195260833D02*
X85930105Y-195260833D01*
X85092010Y-195070357D02*
X85663438Y-194879880D01*
X85663438Y-194879880D02*
X85663438Y-195375119D01*
D10*
X87821069Y-198175595D02*
X86821069Y-198175595D01*
X87821069Y-198747023D02*
X87249640Y-198318452D01*
X86821069Y-198747023D02*
X87392497Y-198175595D01*
X374413569Y-202009642D02*
X374413569Y-201438214D01*
X374413569Y-201723928D02*
X373413569Y-201723928D01*
X373413569Y-201723928D02*
X373556426Y-201628690D01*
X373556426Y-201628690D02*
X373651664Y-201533452D01*
X373651664Y-201533452D02*
X373699283Y-201438214D01*
X374413569Y-202438214D02*
X373413569Y-202438214D01*
X373413569Y-202438214D02*
X374413569Y-203009642D01*
X374413569Y-203009642D02*
X373413569Y-203009642D01*
X373746902Y-203914404D02*
X374413569Y-203914404D01*
X373365950Y-203676309D02*
X374080235Y-203438214D01*
X374080235Y-203438214D02*
X374080235Y-204057261D01*
X374413569Y-204962023D02*
X374413569Y-204390595D01*
X374413569Y-204676309D02*
X373413569Y-204676309D01*
X373413569Y-204676309D02*
X373556426Y-204581071D01*
X373556426Y-204581071D02*
X373651664Y-204485833D01*
X373651664Y-204485833D02*
X373699283Y-204390595D01*
X373746902Y-205819166D02*
X374413569Y-205819166D01*
X373365950Y-205581071D02*
X374080235Y-205342976D01*
X374080235Y-205342976D02*
X374080235Y-205962023D01*
X373842140Y-206485833D02*
X373794521Y-206390595D01*
X373794521Y-206390595D02*
X373746902Y-206342976D01*
X373746902Y-206342976D02*
X373651664Y-206295357D01*
X373651664Y-206295357D02*
X373604045Y-206295357D01*
X373604045Y-206295357D02*
X373508807Y-206342976D01*
X373508807Y-206342976D02*
X373461188Y-206390595D01*
X373461188Y-206390595D02*
X373413569Y-206485833D01*
X373413569Y-206485833D02*
X373413569Y-206676309D01*
X373413569Y-206676309D02*
X373461188Y-206771547D01*
X373461188Y-206771547D02*
X373508807Y-206819166D01*
X373508807Y-206819166D02*
X373604045Y-206866785D01*
X373604045Y-206866785D02*
X373651664Y-206866785D01*
X373651664Y-206866785D02*
X373746902Y-206819166D01*
X373746902Y-206819166D02*
X373794521Y-206771547D01*
X373794521Y-206771547D02*
X373842140Y-206676309D01*
X373842140Y-206676309D02*
X373842140Y-206485833D01*
X373842140Y-206485833D02*
X373889759Y-206390595D01*
X373889759Y-206390595D02*
X373937378Y-206342976D01*
X373937378Y-206342976D02*
X374032616Y-206295357D01*
X374032616Y-206295357D02*
X374223092Y-206295357D01*
X374223092Y-206295357D02*
X374318330Y-206342976D01*
X374318330Y-206342976D02*
X374365950Y-206390595D01*
X374365950Y-206390595D02*
X374413569Y-206485833D01*
X374413569Y-206485833D02*
X374413569Y-206676309D01*
X374413569Y-206676309D02*
X374365950Y-206771547D01*
X374365950Y-206771547D02*
X374318330Y-206819166D01*
X374318330Y-206819166D02*
X374223092Y-206866785D01*
X374223092Y-206866785D02*
X374032616Y-206866785D01*
X374032616Y-206866785D02*
X373937378Y-206819166D01*
X373937378Y-206819166D02*
X373889759Y-206771547D01*
X373889759Y-206771547D02*
X373842140Y-206676309D01*
X378333569Y-207700595D02*
X377333569Y-207700595D01*
X378333569Y-208272023D02*
X377762140Y-207843452D01*
X377333569Y-208272023D02*
X377904997Y-207700595D01*
D11*
X376442605Y-203262024D02*
X375642605Y-203262024D01*
X375642605Y-203262024D02*
X375642605Y-203452500D01*
X375642605Y-203452500D02*
X375680700Y-203566786D01*
X375680700Y-203566786D02*
X375756890Y-203642976D01*
X375756890Y-203642976D02*
X375833081Y-203681071D01*
X375833081Y-203681071D02*
X375985462Y-203719167D01*
X375985462Y-203719167D02*
X376099748Y-203719167D01*
X376099748Y-203719167D02*
X376252129Y-203681071D01*
X376252129Y-203681071D02*
X376328319Y-203642976D01*
X376328319Y-203642976D02*
X376404510Y-203566786D01*
X376404510Y-203566786D02*
X376442605Y-203452500D01*
X376442605Y-203452500D02*
X376442605Y-203262024D01*
X375985462Y-204176309D02*
X375947367Y-204100119D01*
X375947367Y-204100119D02*
X375909271Y-204062024D01*
X375909271Y-204062024D02*
X375833081Y-204023928D01*
X375833081Y-204023928D02*
X375794986Y-204023928D01*
X375794986Y-204023928D02*
X375718795Y-204062024D01*
X375718795Y-204062024D02*
X375680700Y-204100119D01*
X375680700Y-204100119D02*
X375642605Y-204176309D01*
X375642605Y-204176309D02*
X375642605Y-204328690D01*
X375642605Y-204328690D02*
X375680700Y-204404881D01*
X375680700Y-204404881D02*
X375718795Y-204442976D01*
X375718795Y-204442976D02*
X375794986Y-204481071D01*
X375794986Y-204481071D02*
X375833081Y-204481071D01*
X375833081Y-204481071D02*
X375909271Y-204442976D01*
X375909271Y-204442976D02*
X375947367Y-204404881D01*
X375947367Y-204404881D02*
X375985462Y-204328690D01*
X375985462Y-204328690D02*
X375985462Y-204176309D01*
X375985462Y-204176309D02*
X376023557Y-204100119D01*
X376023557Y-204100119D02*
X376061652Y-204062024D01*
X376061652Y-204062024D02*
X376137843Y-204023928D01*
X376137843Y-204023928D02*
X376290224Y-204023928D01*
X376290224Y-204023928D02*
X376366414Y-204062024D01*
X376366414Y-204062024D02*
X376404510Y-204100119D01*
X376404510Y-204100119D02*
X376442605Y-204176309D01*
X376442605Y-204176309D02*
X376442605Y-204328690D01*
X376442605Y-204328690D02*
X376404510Y-204404881D01*
X376404510Y-204404881D02*
X376366414Y-204442976D01*
X376366414Y-204442976D02*
X376290224Y-204481071D01*
X376290224Y-204481071D02*
X376137843Y-204481071D01*
X376137843Y-204481071D02*
X376061652Y-204442976D01*
X376061652Y-204442976D02*
X376023557Y-204404881D01*
X376023557Y-204404881D02*
X375985462Y-204328690D01*
D10*
X102951069Y-192484642D02*
X102951069Y-191913214D01*
X102951069Y-192198928D02*
X101951069Y-192198928D01*
X101951069Y-192198928D02*
X102093926Y-192103690D01*
X102093926Y-192103690D02*
X102189164Y-192008452D01*
X102189164Y-192008452D02*
X102236783Y-191913214D01*
X102951069Y-192913214D02*
X101951069Y-192913214D01*
X101951069Y-192913214D02*
X102951069Y-193484642D01*
X102951069Y-193484642D02*
X101951069Y-193484642D01*
X102284402Y-194389404D02*
X102951069Y-194389404D01*
X101903450Y-194151309D02*
X102617735Y-193913214D01*
X102617735Y-193913214D02*
X102617735Y-194532261D01*
X102951069Y-195437023D02*
X102951069Y-194865595D01*
X102951069Y-195151309D02*
X101951069Y-195151309D01*
X101951069Y-195151309D02*
X102093926Y-195056071D01*
X102093926Y-195056071D02*
X102189164Y-194960833D01*
X102189164Y-194960833D02*
X102236783Y-194865595D01*
X102284402Y-196294166D02*
X102951069Y-196294166D01*
X101903450Y-196056071D02*
X102617735Y-195817976D01*
X102617735Y-195817976D02*
X102617735Y-196437023D01*
X102379640Y-196960833D02*
X102332021Y-196865595D01*
X102332021Y-196865595D02*
X102284402Y-196817976D01*
X102284402Y-196817976D02*
X102189164Y-196770357D01*
X102189164Y-196770357D02*
X102141545Y-196770357D01*
X102141545Y-196770357D02*
X102046307Y-196817976D01*
X102046307Y-196817976D02*
X101998688Y-196865595D01*
X101998688Y-196865595D02*
X101951069Y-196960833D01*
X101951069Y-196960833D02*
X101951069Y-197151309D01*
X101951069Y-197151309D02*
X101998688Y-197246547D01*
X101998688Y-197246547D02*
X102046307Y-197294166D01*
X102046307Y-197294166D02*
X102141545Y-197341785D01*
X102141545Y-197341785D02*
X102189164Y-197341785D01*
X102189164Y-197341785D02*
X102284402Y-197294166D01*
X102284402Y-197294166D02*
X102332021Y-197246547D01*
X102332021Y-197246547D02*
X102379640Y-197151309D01*
X102379640Y-197151309D02*
X102379640Y-196960833D01*
X102379640Y-196960833D02*
X102427259Y-196865595D01*
X102427259Y-196865595D02*
X102474878Y-196817976D01*
X102474878Y-196817976D02*
X102570116Y-196770357D01*
X102570116Y-196770357D02*
X102760592Y-196770357D01*
X102760592Y-196770357D02*
X102855830Y-196817976D01*
X102855830Y-196817976D02*
X102903450Y-196865595D01*
X102903450Y-196865595D02*
X102951069Y-196960833D01*
X102951069Y-196960833D02*
X102951069Y-197151309D01*
X102951069Y-197151309D02*
X102903450Y-197246547D01*
X102903450Y-197246547D02*
X102855830Y-197294166D01*
X102855830Y-197294166D02*
X102760592Y-197341785D01*
X102760592Y-197341785D02*
X102570116Y-197341785D01*
X102570116Y-197341785D02*
X102474878Y-197294166D01*
X102474878Y-197294166D02*
X102427259Y-197246547D01*
X102427259Y-197246547D02*
X102379640Y-197151309D01*
D11*
X104980105Y-193356071D02*
X104180105Y-193356071D01*
X104180105Y-193356071D02*
X104180105Y-193546547D01*
X104180105Y-193546547D02*
X104218200Y-193660833D01*
X104218200Y-193660833D02*
X104294390Y-193737023D01*
X104294390Y-193737023D02*
X104370581Y-193775118D01*
X104370581Y-193775118D02*
X104522962Y-193813214D01*
X104522962Y-193813214D02*
X104637248Y-193813214D01*
X104637248Y-193813214D02*
X104789629Y-193775118D01*
X104789629Y-193775118D02*
X104865819Y-193737023D01*
X104865819Y-193737023D02*
X104942010Y-193660833D01*
X104942010Y-193660833D02*
X104980105Y-193546547D01*
X104980105Y-193546547D02*
X104980105Y-193356071D01*
X104980105Y-194575118D02*
X104980105Y-194117975D01*
X104980105Y-194346547D02*
X104180105Y-194346547D01*
X104180105Y-194346547D02*
X104294390Y-194270356D01*
X104294390Y-194270356D02*
X104370581Y-194194166D01*
X104370581Y-194194166D02*
X104408676Y-194117975D01*
X104180105Y-195298928D02*
X104180105Y-194917976D01*
X104180105Y-194917976D02*
X104561057Y-194879880D01*
X104561057Y-194879880D02*
X104522962Y-194917976D01*
X104522962Y-194917976D02*
X104484867Y-194994166D01*
X104484867Y-194994166D02*
X104484867Y-195184642D01*
X104484867Y-195184642D02*
X104522962Y-195260833D01*
X104522962Y-195260833D02*
X104561057Y-195298928D01*
X104561057Y-195298928D02*
X104637248Y-195337023D01*
X104637248Y-195337023D02*
X104827724Y-195337023D01*
X104827724Y-195337023D02*
X104903914Y-195298928D01*
X104903914Y-195298928D02*
X104942010Y-195260833D01*
X104942010Y-195260833D02*
X104980105Y-195184642D01*
X104980105Y-195184642D02*
X104980105Y-194994166D01*
X104980105Y-194994166D02*
X104942010Y-194917976D01*
X104942010Y-194917976D02*
X104903914Y-194879880D01*
D10*
X106871069Y-198175595D02*
X105871069Y-198175595D01*
X106871069Y-198747023D02*
X106299640Y-198318452D01*
X105871069Y-198747023D02*
X106442497Y-198175595D01*
X183913569Y-202009642D02*
X183913569Y-201438214D01*
X183913569Y-201723928D02*
X182913569Y-201723928D01*
X182913569Y-201723928D02*
X183056426Y-201628690D01*
X183056426Y-201628690D02*
X183151664Y-201533452D01*
X183151664Y-201533452D02*
X183199283Y-201438214D01*
X183913569Y-202438214D02*
X182913569Y-202438214D01*
X182913569Y-202438214D02*
X183913569Y-203009642D01*
X183913569Y-203009642D02*
X182913569Y-203009642D01*
X183246902Y-203914404D02*
X183913569Y-203914404D01*
X182865950Y-203676309D02*
X183580235Y-203438214D01*
X183580235Y-203438214D02*
X183580235Y-204057261D01*
X183913569Y-204962023D02*
X183913569Y-204390595D01*
X183913569Y-204676309D02*
X182913569Y-204676309D01*
X182913569Y-204676309D02*
X183056426Y-204581071D01*
X183056426Y-204581071D02*
X183151664Y-204485833D01*
X183151664Y-204485833D02*
X183199283Y-204390595D01*
X183246902Y-205819166D02*
X183913569Y-205819166D01*
X182865950Y-205581071D02*
X183580235Y-205342976D01*
X183580235Y-205342976D02*
X183580235Y-205962023D01*
X183342140Y-206485833D02*
X183294521Y-206390595D01*
X183294521Y-206390595D02*
X183246902Y-206342976D01*
X183246902Y-206342976D02*
X183151664Y-206295357D01*
X183151664Y-206295357D02*
X183104045Y-206295357D01*
X183104045Y-206295357D02*
X183008807Y-206342976D01*
X183008807Y-206342976D02*
X182961188Y-206390595D01*
X182961188Y-206390595D02*
X182913569Y-206485833D01*
X182913569Y-206485833D02*
X182913569Y-206676309D01*
X182913569Y-206676309D02*
X182961188Y-206771547D01*
X182961188Y-206771547D02*
X183008807Y-206819166D01*
X183008807Y-206819166D02*
X183104045Y-206866785D01*
X183104045Y-206866785D02*
X183151664Y-206866785D01*
X183151664Y-206866785D02*
X183246902Y-206819166D01*
X183246902Y-206819166D02*
X183294521Y-206771547D01*
X183294521Y-206771547D02*
X183342140Y-206676309D01*
X183342140Y-206676309D02*
X183342140Y-206485833D01*
X183342140Y-206485833D02*
X183389759Y-206390595D01*
X183389759Y-206390595D02*
X183437378Y-206342976D01*
X183437378Y-206342976D02*
X183532616Y-206295357D01*
X183532616Y-206295357D02*
X183723092Y-206295357D01*
X183723092Y-206295357D02*
X183818330Y-206342976D01*
X183818330Y-206342976D02*
X183865950Y-206390595D01*
X183865950Y-206390595D02*
X183913569Y-206485833D01*
X183913569Y-206485833D02*
X183913569Y-206676309D01*
X183913569Y-206676309D02*
X183865950Y-206771547D01*
X183865950Y-206771547D02*
X183818330Y-206819166D01*
X183818330Y-206819166D02*
X183723092Y-206866785D01*
X183723092Y-206866785D02*
X183532616Y-206866785D01*
X183532616Y-206866785D02*
X183437378Y-206819166D01*
X183437378Y-206819166D02*
X183389759Y-206771547D01*
X183389759Y-206771547D02*
X183342140Y-206676309D01*
D11*
X185942605Y-203262024D02*
X185142605Y-203262024D01*
X185142605Y-203262024D02*
X185142605Y-203452500D01*
X185142605Y-203452500D02*
X185180700Y-203566786D01*
X185180700Y-203566786D02*
X185256890Y-203642976D01*
X185256890Y-203642976D02*
X185333081Y-203681071D01*
X185333081Y-203681071D02*
X185485462Y-203719167D01*
X185485462Y-203719167D02*
X185599748Y-203719167D01*
X185599748Y-203719167D02*
X185752129Y-203681071D01*
X185752129Y-203681071D02*
X185828319Y-203642976D01*
X185828319Y-203642976D02*
X185904510Y-203566786D01*
X185904510Y-203566786D02*
X185942605Y-203452500D01*
X185942605Y-203452500D02*
X185942605Y-203262024D01*
X185218795Y-204023928D02*
X185180700Y-204062024D01*
X185180700Y-204062024D02*
X185142605Y-204138214D01*
X185142605Y-204138214D02*
X185142605Y-204328690D01*
X185142605Y-204328690D02*
X185180700Y-204404881D01*
X185180700Y-204404881D02*
X185218795Y-204442976D01*
X185218795Y-204442976D02*
X185294986Y-204481071D01*
X185294986Y-204481071D02*
X185371176Y-204481071D01*
X185371176Y-204481071D02*
X185485462Y-204442976D01*
X185485462Y-204442976D02*
X185942605Y-203985833D01*
X185942605Y-203985833D02*
X185942605Y-204481071D01*
D10*
X187833569Y-207700595D02*
X186833569Y-207700595D01*
X187833569Y-208272023D02*
X187262140Y-207843452D01*
X186833569Y-208272023D02*
X187404997Y-207700595D01*
X222013569Y-202009642D02*
X222013569Y-201438214D01*
X222013569Y-201723928D02*
X221013569Y-201723928D01*
X221013569Y-201723928D02*
X221156426Y-201628690D01*
X221156426Y-201628690D02*
X221251664Y-201533452D01*
X221251664Y-201533452D02*
X221299283Y-201438214D01*
X222013569Y-202438214D02*
X221013569Y-202438214D01*
X221013569Y-202438214D02*
X222013569Y-203009642D01*
X222013569Y-203009642D02*
X221013569Y-203009642D01*
X221346902Y-203914404D02*
X222013569Y-203914404D01*
X220965950Y-203676309D02*
X221680235Y-203438214D01*
X221680235Y-203438214D02*
X221680235Y-204057261D01*
X222013569Y-204962023D02*
X222013569Y-204390595D01*
X222013569Y-204676309D02*
X221013569Y-204676309D01*
X221013569Y-204676309D02*
X221156426Y-204581071D01*
X221156426Y-204581071D02*
X221251664Y-204485833D01*
X221251664Y-204485833D02*
X221299283Y-204390595D01*
X221346902Y-205819166D02*
X222013569Y-205819166D01*
X220965950Y-205581071D02*
X221680235Y-205342976D01*
X221680235Y-205342976D02*
X221680235Y-205962023D01*
X221442140Y-206485833D02*
X221394521Y-206390595D01*
X221394521Y-206390595D02*
X221346902Y-206342976D01*
X221346902Y-206342976D02*
X221251664Y-206295357D01*
X221251664Y-206295357D02*
X221204045Y-206295357D01*
X221204045Y-206295357D02*
X221108807Y-206342976D01*
X221108807Y-206342976D02*
X221061188Y-206390595D01*
X221061188Y-206390595D02*
X221013569Y-206485833D01*
X221013569Y-206485833D02*
X221013569Y-206676309D01*
X221013569Y-206676309D02*
X221061188Y-206771547D01*
X221061188Y-206771547D02*
X221108807Y-206819166D01*
X221108807Y-206819166D02*
X221204045Y-206866785D01*
X221204045Y-206866785D02*
X221251664Y-206866785D01*
X221251664Y-206866785D02*
X221346902Y-206819166D01*
X221346902Y-206819166D02*
X221394521Y-206771547D01*
X221394521Y-206771547D02*
X221442140Y-206676309D01*
X221442140Y-206676309D02*
X221442140Y-206485833D01*
X221442140Y-206485833D02*
X221489759Y-206390595D01*
X221489759Y-206390595D02*
X221537378Y-206342976D01*
X221537378Y-206342976D02*
X221632616Y-206295357D01*
X221632616Y-206295357D02*
X221823092Y-206295357D01*
X221823092Y-206295357D02*
X221918330Y-206342976D01*
X221918330Y-206342976D02*
X221965950Y-206390595D01*
X221965950Y-206390595D02*
X222013569Y-206485833D01*
X222013569Y-206485833D02*
X222013569Y-206676309D01*
X222013569Y-206676309D02*
X221965950Y-206771547D01*
X221965950Y-206771547D02*
X221918330Y-206819166D01*
X221918330Y-206819166D02*
X221823092Y-206866785D01*
X221823092Y-206866785D02*
X221632616Y-206866785D01*
X221632616Y-206866785D02*
X221537378Y-206819166D01*
X221537378Y-206819166D02*
X221489759Y-206771547D01*
X221489759Y-206771547D02*
X221442140Y-206676309D01*
D11*
X224042605Y-203262024D02*
X223242605Y-203262024D01*
X223242605Y-203262024D02*
X223242605Y-203452500D01*
X223242605Y-203452500D02*
X223280700Y-203566786D01*
X223280700Y-203566786D02*
X223356890Y-203642976D01*
X223356890Y-203642976D02*
X223433081Y-203681071D01*
X223433081Y-203681071D02*
X223585462Y-203719167D01*
X223585462Y-203719167D02*
X223699748Y-203719167D01*
X223699748Y-203719167D02*
X223852129Y-203681071D01*
X223852129Y-203681071D02*
X223928319Y-203642976D01*
X223928319Y-203642976D02*
X224004510Y-203566786D01*
X224004510Y-203566786D02*
X224042605Y-203452500D01*
X224042605Y-203452500D02*
X224042605Y-203262024D01*
X223242605Y-203985833D02*
X223242605Y-204481071D01*
X223242605Y-204481071D02*
X223547367Y-204214405D01*
X223547367Y-204214405D02*
X223547367Y-204328690D01*
X223547367Y-204328690D02*
X223585462Y-204404881D01*
X223585462Y-204404881D02*
X223623557Y-204442976D01*
X223623557Y-204442976D02*
X223699748Y-204481071D01*
X223699748Y-204481071D02*
X223890224Y-204481071D01*
X223890224Y-204481071D02*
X223966414Y-204442976D01*
X223966414Y-204442976D02*
X224004510Y-204404881D01*
X224004510Y-204404881D02*
X224042605Y-204328690D01*
X224042605Y-204328690D02*
X224042605Y-204100119D01*
X224042605Y-204100119D02*
X224004510Y-204023928D01*
X224004510Y-204023928D02*
X223966414Y-203985833D01*
D10*
X225933569Y-207700595D02*
X224933569Y-207700595D01*
X225933569Y-208272023D02*
X225362140Y-207843452D01*
X224933569Y-208272023D02*
X225504997Y-207700595D01*
X298213569Y-168672142D02*
X298213569Y-168100714D01*
X298213569Y-168386428D02*
X297213569Y-168386428D01*
X297213569Y-168386428D02*
X297356426Y-168291190D01*
X297356426Y-168291190D02*
X297451664Y-168195952D01*
X297451664Y-168195952D02*
X297499283Y-168100714D01*
X298213569Y-169100714D02*
X297213569Y-169100714D01*
X297213569Y-169100714D02*
X298213569Y-169672142D01*
X298213569Y-169672142D02*
X297213569Y-169672142D01*
X297546902Y-170576904D02*
X298213569Y-170576904D01*
X297165950Y-170338809D02*
X297880235Y-170100714D01*
X297880235Y-170100714D02*
X297880235Y-170719761D01*
X298213569Y-171624523D02*
X298213569Y-171053095D01*
X298213569Y-171338809D02*
X297213569Y-171338809D01*
X297213569Y-171338809D02*
X297356426Y-171243571D01*
X297356426Y-171243571D02*
X297451664Y-171148333D01*
X297451664Y-171148333D02*
X297499283Y-171053095D01*
X297546902Y-172481666D02*
X298213569Y-172481666D01*
X297165950Y-172243571D02*
X297880235Y-172005476D01*
X297880235Y-172005476D02*
X297880235Y-172624523D01*
X297642140Y-173148333D02*
X297594521Y-173053095D01*
X297594521Y-173053095D02*
X297546902Y-173005476D01*
X297546902Y-173005476D02*
X297451664Y-172957857D01*
X297451664Y-172957857D02*
X297404045Y-172957857D01*
X297404045Y-172957857D02*
X297308807Y-173005476D01*
X297308807Y-173005476D02*
X297261188Y-173053095D01*
X297261188Y-173053095D02*
X297213569Y-173148333D01*
X297213569Y-173148333D02*
X297213569Y-173338809D01*
X297213569Y-173338809D02*
X297261188Y-173434047D01*
X297261188Y-173434047D02*
X297308807Y-173481666D01*
X297308807Y-173481666D02*
X297404045Y-173529285D01*
X297404045Y-173529285D02*
X297451664Y-173529285D01*
X297451664Y-173529285D02*
X297546902Y-173481666D01*
X297546902Y-173481666D02*
X297594521Y-173434047D01*
X297594521Y-173434047D02*
X297642140Y-173338809D01*
X297642140Y-173338809D02*
X297642140Y-173148333D01*
X297642140Y-173148333D02*
X297689759Y-173053095D01*
X297689759Y-173053095D02*
X297737378Y-173005476D01*
X297737378Y-173005476D02*
X297832616Y-172957857D01*
X297832616Y-172957857D02*
X298023092Y-172957857D01*
X298023092Y-172957857D02*
X298118330Y-173005476D01*
X298118330Y-173005476D02*
X298165950Y-173053095D01*
X298165950Y-173053095D02*
X298213569Y-173148333D01*
X298213569Y-173148333D02*
X298213569Y-173338809D01*
X298213569Y-173338809D02*
X298165950Y-173434047D01*
X298165950Y-173434047D02*
X298118330Y-173481666D01*
X298118330Y-173481666D02*
X298023092Y-173529285D01*
X298023092Y-173529285D02*
X297832616Y-173529285D01*
X297832616Y-173529285D02*
X297737378Y-173481666D01*
X297737378Y-173481666D02*
X297689759Y-173434047D01*
X297689759Y-173434047D02*
X297642140Y-173338809D01*
X302133569Y-174363095D02*
X301133569Y-174363095D01*
X302133569Y-174934523D02*
X301562140Y-174505952D01*
X301133569Y-174934523D02*
X301704997Y-174363095D01*
D11*
X300242605Y-169543571D02*
X299442605Y-169543571D01*
X299442605Y-169543571D02*
X299442605Y-169734047D01*
X299442605Y-169734047D02*
X299480700Y-169848333D01*
X299480700Y-169848333D02*
X299556890Y-169924523D01*
X299556890Y-169924523D02*
X299633081Y-169962618D01*
X299633081Y-169962618D02*
X299785462Y-170000714D01*
X299785462Y-170000714D02*
X299899748Y-170000714D01*
X299899748Y-170000714D02*
X300052129Y-169962618D01*
X300052129Y-169962618D02*
X300128319Y-169924523D01*
X300128319Y-169924523D02*
X300204510Y-169848333D01*
X300204510Y-169848333D02*
X300242605Y-169734047D01*
X300242605Y-169734047D02*
X300242605Y-169543571D01*
X300242605Y-170762618D02*
X300242605Y-170305475D01*
X300242605Y-170534047D02*
X299442605Y-170534047D01*
X299442605Y-170534047D02*
X299556890Y-170457856D01*
X299556890Y-170457856D02*
X299633081Y-170381666D01*
X299633081Y-170381666D02*
X299671176Y-170305475D01*
X299518795Y-171067380D02*
X299480700Y-171105476D01*
X299480700Y-171105476D02*
X299442605Y-171181666D01*
X299442605Y-171181666D02*
X299442605Y-171372142D01*
X299442605Y-171372142D02*
X299480700Y-171448333D01*
X299480700Y-171448333D02*
X299518795Y-171486428D01*
X299518795Y-171486428D02*
X299594986Y-171524523D01*
X299594986Y-171524523D02*
X299671176Y-171524523D01*
X299671176Y-171524523D02*
X299785462Y-171486428D01*
X299785462Y-171486428D02*
X300242605Y-171029285D01*
X300242605Y-171029285D02*
X300242605Y-171524523D01*
D10*
X75108450Y-159907381D02*
X75156069Y-160050238D01*
X75156069Y-160050238D02*
X75156069Y-160288333D01*
X75156069Y-160288333D02*
X75108450Y-160383571D01*
X75108450Y-160383571D02*
X75060830Y-160431190D01*
X75060830Y-160431190D02*
X74965592Y-160478809D01*
X74965592Y-160478809D02*
X74870354Y-160478809D01*
X74870354Y-160478809D02*
X74775116Y-160431190D01*
X74775116Y-160431190D02*
X74727497Y-160383571D01*
X74727497Y-160383571D02*
X74679878Y-160288333D01*
X74679878Y-160288333D02*
X74632259Y-160097857D01*
X74632259Y-160097857D02*
X74584640Y-160002619D01*
X74584640Y-160002619D02*
X74537021Y-159955000D01*
X74537021Y-159955000D02*
X74441783Y-159907381D01*
X74441783Y-159907381D02*
X74346545Y-159907381D01*
X74346545Y-159907381D02*
X74251307Y-159955000D01*
X74251307Y-159955000D02*
X74203688Y-160002619D01*
X74203688Y-160002619D02*
X74156069Y-160097857D01*
X74156069Y-160097857D02*
X74156069Y-160335952D01*
X74156069Y-160335952D02*
X74203688Y-160478809D01*
X75156069Y-160907381D02*
X74156069Y-160907381D01*
X74156069Y-160907381D02*
X75156069Y-161478809D01*
X75156069Y-161478809D02*
X74156069Y-161478809D01*
X74156069Y-161859762D02*
X74156069Y-162526428D01*
X74156069Y-162526428D02*
X75156069Y-162097857D01*
X74489402Y-163335952D02*
X75156069Y-163335952D01*
X74108450Y-163097857D02*
X74822735Y-162859762D01*
X74822735Y-162859762D02*
X74822735Y-163478809D01*
X74870354Y-163812143D02*
X74870354Y-164288333D01*
X75156069Y-163716905D02*
X74156069Y-164050238D01*
X74156069Y-164050238D02*
X75156069Y-164383571D01*
X75156069Y-164716905D02*
X74156069Y-164716905D01*
X74632259Y-164716905D02*
X74632259Y-165288333D01*
X75156069Y-165288333D02*
X74156069Y-165288333D01*
X75060830Y-166335952D02*
X75108450Y-166288333D01*
X75108450Y-166288333D02*
X75156069Y-166145476D01*
X75156069Y-166145476D02*
X75156069Y-166050238D01*
X75156069Y-166050238D02*
X75108450Y-165907381D01*
X75108450Y-165907381D02*
X75013211Y-165812143D01*
X75013211Y-165812143D02*
X74917973Y-165764524D01*
X74917973Y-165764524D02*
X74727497Y-165716905D01*
X74727497Y-165716905D02*
X74584640Y-165716905D01*
X74584640Y-165716905D02*
X74394164Y-165764524D01*
X74394164Y-165764524D02*
X74298926Y-165812143D01*
X74298926Y-165812143D02*
X74203688Y-165907381D01*
X74203688Y-165907381D02*
X74156069Y-166050238D01*
X74156069Y-166050238D02*
X74156069Y-166145476D01*
X74156069Y-166145476D02*
X74203688Y-166288333D01*
X74203688Y-166288333D02*
X74251307Y-166335952D01*
X74156069Y-166621667D02*
X74156069Y-167193095D01*
X75156069Y-166907381D02*
X74156069Y-166907381D01*
X75156069Y-168050238D02*
X75156069Y-167478810D01*
X75156069Y-167764524D02*
X74156069Y-167764524D01*
X74156069Y-167764524D02*
X74298926Y-167669286D01*
X74298926Y-167669286D02*
X74394164Y-167574048D01*
X74394164Y-167574048D02*
X74441783Y-167478810D01*
X74251307Y-168431191D02*
X74203688Y-168478810D01*
X74203688Y-168478810D02*
X74156069Y-168574048D01*
X74156069Y-168574048D02*
X74156069Y-168812143D01*
X74156069Y-168812143D02*
X74203688Y-168907381D01*
X74203688Y-168907381D02*
X74251307Y-168955000D01*
X74251307Y-168955000D02*
X74346545Y-169002619D01*
X74346545Y-169002619D02*
X74441783Y-169002619D01*
X74441783Y-169002619D02*
X74584640Y-168955000D01*
X74584640Y-168955000D02*
X75156069Y-168383572D01*
X75156069Y-168383572D02*
X75156069Y-169002619D01*
X74156069Y-169907381D02*
X74156069Y-169431191D01*
X74156069Y-169431191D02*
X74632259Y-169383572D01*
X74632259Y-169383572D02*
X74584640Y-169431191D01*
X74584640Y-169431191D02*
X74537021Y-169526429D01*
X74537021Y-169526429D02*
X74537021Y-169764524D01*
X74537021Y-169764524D02*
X74584640Y-169859762D01*
X74584640Y-169859762D02*
X74632259Y-169907381D01*
X74632259Y-169907381D02*
X74727497Y-169955000D01*
X74727497Y-169955000D02*
X74965592Y-169955000D01*
X74965592Y-169955000D02*
X75060830Y-169907381D01*
X75060830Y-169907381D02*
X75108450Y-169859762D01*
X75108450Y-169859762D02*
X75156069Y-169764524D01*
X75156069Y-169764524D02*
X75156069Y-169526429D01*
X75156069Y-169526429D02*
X75108450Y-169431191D01*
X75108450Y-169431191D02*
X75060830Y-169383572D01*
X75156069Y-170383572D02*
X74156069Y-170383572D01*
X74156069Y-170383572D02*
X75156069Y-170955000D01*
X75156069Y-170955000D02*
X74156069Y-170955000D01*
X145813569Y-202009642D02*
X145813569Y-201438214D01*
X145813569Y-201723928D02*
X144813569Y-201723928D01*
X144813569Y-201723928D02*
X144956426Y-201628690D01*
X144956426Y-201628690D02*
X145051664Y-201533452D01*
X145051664Y-201533452D02*
X145099283Y-201438214D01*
X145813569Y-202438214D02*
X144813569Y-202438214D01*
X144813569Y-202438214D02*
X145813569Y-203009642D01*
X145813569Y-203009642D02*
X144813569Y-203009642D01*
X145146902Y-203914404D02*
X145813569Y-203914404D01*
X144765950Y-203676309D02*
X145480235Y-203438214D01*
X145480235Y-203438214D02*
X145480235Y-204057261D01*
X145813569Y-204962023D02*
X145813569Y-204390595D01*
X145813569Y-204676309D02*
X144813569Y-204676309D01*
X144813569Y-204676309D02*
X144956426Y-204581071D01*
X144956426Y-204581071D02*
X145051664Y-204485833D01*
X145051664Y-204485833D02*
X145099283Y-204390595D01*
X145146902Y-205819166D02*
X145813569Y-205819166D01*
X144765950Y-205581071D02*
X145480235Y-205342976D01*
X145480235Y-205342976D02*
X145480235Y-205962023D01*
X145242140Y-206485833D02*
X145194521Y-206390595D01*
X145194521Y-206390595D02*
X145146902Y-206342976D01*
X145146902Y-206342976D02*
X145051664Y-206295357D01*
X145051664Y-206295357D02*
X145004045Y-206295357D01*
X145004045Y-206295357D02*
X144908807Y-206342976D01*
X144908807Y-206342976D02*
X144861188Y-206390595D01*
X144861188Y-206390595D02*
X144813569Y-206485833D01*
X144813569Y-206485833D02*
X144813569Y-206676309D01*
X144813569Y-206676309D02*
X144861188Y-206771547D01*
X144861188Y-206771547D02*
X144908807Y-206819166D01*
X144908807Y-206819166D02*
X145004045Y-206866785D01*
X145004045Y-206866785D02*
X145051664Y-206866785D01*
X145051664Y-206866785D02*
X145146902Y-206819166D01*
X145146902Y-206819166D02*
X145194521Y-206771547D01*
X145194521Y-206771547D02*
X145242140Y-206676309D01*
X145242140Y-206676309D02*
X145242140Y-206485833D01*
X145242140Y-206485833D02*
X145289759Y-206390595D01*
X145289759Y-206390595D02*
X145337378Y-206342976D01*
X145337378Y-206342976D02*
X145432616Y-206295357D01*
X145432616Y-206295357D02*
X145623092Y-206295357D01*
X145623092Y-206295357D02*
X145718330Y-206342976D01*
X145718330Y-206342976D02*
X145765950Y-206390595D01*
X145765950Y-206390595D02*
X145813569Y-206485833D01*
X145813569Y-206485833D02*
X145813569Y-206676309D01*
X145813569Y-206676309D02*
X145765950Y-206771547D01*
X145765950Y-206771547D02*
X145718330Y-206819166D01*
X145718330Y-206819166D02*
X145623092Y-206866785D01*
X145623092Y-206866785D02*
X145432616Y-206866785D01*
X145432616Y-206866785D02*
X145337378Y-206819166D01*
X145337378Y-206819166D02*
X145289759Y-206771547D01*
X145289759Y-206771547D02*
X145242140Y-206676309D01*
D11*
X147842605Y-203262024D02*
X147042605Y-203262024D01*
X147042605Y-203262024D02*
X147042605Y-203452500D01*
X147042605Y-203452500D02*
X147080700Y-203566786D01*
X147080700Y-203566786D02*
X147156890Y-203642976D01*
X147156890Y-203642976D02*
X147233081Y-203681071D01*
X147233081Y-203681071D02*
X147385462Y-203719167D01*
X147385462Y-203719167D02*
X147499748Y-203719167D01*
X147499748Y-203719167D02*
X147652129Y-203681071D01*
X147652129Y-203681071D02*
X147728319Y-203642976D01*
X147728319Y-203642976D02*
X147804510Y-203566786D01*
X147804510Y-203566786D02*
X147842605Y-203452500D01*
X147842605Y-203452500D02*
X147842605Y-203262024D01*
X147842605Y-204481071D02*
X147842605Y-204023928D01*
X147842605Y-204252500D02*
X147042605Y-204252500D01*
X147042605Y-204252500D02*
X147156890Y-204176309D01*
X147156890Y-204176309D02*
X147233081Y-204100119D01*
X147233081Y-204100119D02*
X147271176Y-204023928D01*
D10*
X149733569Y-207700595D02*
X148733569Y-207700595D01*
X149733569Y-208272023D02*
X149162140Y-207843452D01*
X148733569Y-208272023D02*
X149304997Y-207700595D01*
X355363569Y-202009642D02*
X355363569Y-201438214D01*
X355363569Y-201723928D02*
X354363569Y-201723928D01*
X354363569Y-201723928D02*
X354506426Y-201628690D01*
X354506426Y-201628690D02*
X354601664Y-201533452D01*
X354601664Y-201533452D02*
X354649283Y-201438214D01*
X355363569Y-202438214D02*
X354363569Y-202438214D01*
X354363569Y-202438214D02*
X355363569Y-203009642D01*
X355363569Y-203009642D02*
X354363569Y-203009642D01*
X354696902Y-203914404D02*
X355363569Y-203914404D01*
X354315950Y-203676309D02*
X355030235Y-203438214D01*
X355030235Y-203438214D02*
X355030235Y-204057261D01*
X355363569Y-204962023D02*
X355363569Y-204390595D01*
X355363569Y-204676309D02*
X354363569Y-204676309D01*
X354363569Y-204676309D02*
X354506426Y-204581071D01*
X354506426Y-204581071D02*
X354601664Y-204485833D01*
X354601664Y-204485833D02*
X354649283Y-204390595D01*
X354696902Y-205819166D02*
X355363569Y-205819166D01*
X354315950Y-205581071D02*
X355030235Y-205342976D01*
X355030235Y-205342976D02*
X355030235Y-205962023D01*
X354792140Y-206485833D02*
X354744521Y-206390595D01*
X354744521Y-206390595D02*
X354696902Y-206342976D01*
X354696902Y-206342976D02*
X354601664Y-206295357D01*
X354601664Y-206295357D02*
X354554045Y-206295357D01*
X354554045Y-206295357D02*
X354458807Y-206342976D01*
X354458807Y-206342976D02*
X354411188Y-206390595D01*
X354411188Y-206390595D02*
X354363569Y-206485833D01*
X354363569Y-206485833D02*
X354363569Y-206676309D01*
X354363569Y-206676309D02*
X354411188Y-206771547D01*
X354411188Y-206771547D02*
X354458807Y-206819166D01*
X354458807Y-206819166D02*
X354554045Y-206866785D01*
X354554045Y-206866785D02*
X354601664Y-206866785D01*
X354601664Y-206866785D02*
X354696902Y-206819166D01*
X354696902Y-206819166D02*
X354744521Y-206771547D01*
X354744521Y-206771547D02*
X354792140Y-206676309D01*
X354792140Y-206676309D02*
X354792140Y-206485833D01*
X354792140Y-206485833D02*
X354839759Y-206390595D01*
X354839759Y-206390595D02*
X354887378Y-206342976D01*
X354887378Y-206342976D02*
X354982616Y-206295357D01*
X354982616Y-206295357D02*
X355173092Y-206295357D01*
X355173092Y-206295357D02*
X355268330Y-206342976D01*
X355268330Y-206342976D02*
X355315950Y-206390595D01*
X355315950Y-206390595D02*
X355363569Y-206485833D01*
X355363569Y-206485833D02*
X355363569Y-206676309D01*
X355363569Y-206676309D02*
X355315950Y-206771547D01*
X355315950Y-206771547D02*
X355268330Y-206819166D01*
X355268330Y-206819166D02*
X355173092Y-206866785D01*
X355173092Y-206866785D02*
X354982616Y-206866785D01*
X354982616Y-206866785D02*
X354887378Y-206819166D01*
X354887378Y-206819166D02*
X354839759Y-206771547D01*
X354839759Y-206771547D02*
X354792140Y-206676309D01*
X359283569Y-207700595D02*
X358283569Y-207700595D01*
X359283569Y-208272023D02*
X358712140Y-207843452D01*
X358283569Y-208272023D02*
X358854997Y-207700595D01*
D11*
X357392605Y-203262024D02*
X356592605Y-203262024D01*
X356592605Y-203262024D02*
X356592605Y-203452500D01*
X356592605Y-203452500D02*
X356630700Y-203566786D01*
X356630700Y-203566786D02*
X356706890Y-203642976D01*
X356706890Y-203642976D02*
X356783081Y-203681071D01*
X356783081Y-203681071D02*
X356935462Y-203719167D01*
X356935462Y-203719167D02*
X357049748Y-203719167D01*
X357049748Y-203719167D02*
X357202129Y-203681071D01*
X357202129Y-203681071D02*
X357278319Y-203642976D01*
X357278319Y-203642976D02*
X357354510Y-203566786D01*
X357354510Y-203566786D02*
X357392605Y-203452500D01*
X357392605Y-203452500D02*
X357392605Y-203262024D01*
X356592605Y-203985833D02*
X356592605Y-204519167D01*
X356592605Y-204519167D02*
X357392605Y-204176309D01*
D10*
X336313569Y-168672142D02*
X336313569Y-168100714D01*
X336313569Y-168386428D02*
X335313569Y-168386428D01*
X335313569Y-168386428D02*
X335456426Y-168291190D01*
X335456426Y-168291190D02*
X335551664Y-168195952D01*
X335551664Y-168195952D02*
X335599283Y-168100714D01*
X336313569Y-169100714D02*
X335313569Y-169100714D01*
X335313569Y-169100714D02*
X336313569Y-169672142D01*
X336313569Y-169672142D02*
X335313569Y-169672142D01*
X335646902Y-170576904D02*
X336313569Y-170576904D01*
X335265950Y-170338809D02*
X335980235Y-170100714D01*
X335980235Y-170100714D02*
X335980235Y-170719761D01*
X336313569Y-171624523D02*
X336313569Y-171053095D01*
X336313569Y-171338809D02*
X335313569Y-171338809D01*
X335313569Y-171338809D02*
X335456426Y-171243571D01*
X335456426Y-171243571D02*
X335551664Y-171148333D01*
X335551664Y-171148333D02*
X335599283Y-171053095D01*
X335646902Y-172481666D02*
X336313569Y-172481666D01*
X335265950Y-172243571D02*
X335980235Y-172005476D01*
X335980235Y-172005476D02*
X335980235Y-172624523D01*
X335742140Y-173148333D02*
X335694521Y-173053095D01*
X335694521Y-173053095D02*
X335646902Y-173005476D01*
X335646902Y-173005476D02*
X335551664Y-172957857D01*
X335551664Y-172957857D02*
X335504045Y-172957857D01*
X335504045Y-172957857D02*
X335408807Y-173005476D01*
X335408807Y-173005476D02*
X335361188Y-173053095D01*
X335361188Y-173053095D02*
X335313569Y-173148333D01*
X335313569Y-173148333D02*
X335313569Y-173338809D01*
X335313569Y-173338809D02*
X335361188Y-173434047D01*
X335361188Y-173434047D02*
X335408807Y-173481666D01*
X335408807Y-173481666D02*
X335504045Y-173529285D01*
X335504045Y-173529285D02*
X335551664Y-173529285D01*
X335551664Y-173529285D02*
X335646902Y-173481666D01*
X335646902Y-173481666D02*
X335694521Y-173434047D01*
X335694521Y-173434047D02*
X335742140Y-173338809D01*
X335742140Y-173338809D02*
X335742140Y-173148333D01*
X335742140Y-173148333D02*
X335789759Y-173053095D01*
X335789759Y-173053095D02*
X335837378Y-173005476D01*
X335837378Y-173005476D02*
X335932616Y-172957857D01*
X335932616Y-172957857D02*
X336123092Y-172957857D01*
X336123092Y-172957857D02*
X336218330Y-173005476D01*
X336218330Y-173005476D02*
X336265950Y-173053095D01*
X336265950Y-173053095D02*
X336313569Y-173148333D01*
X336313569Y-173148333D02*
X336313569Y-173338809D01*
X336313569Y-173338809D02*
X336265950Y-173434047D01*
X336265950Y-173434047D02*
X336218330Y-173481666D01*
X336218330Y-173481666D02*
X336123092Y-173529285D01*
X336123092Y-173529285D02*
X335932616Y-173529285D01*
X335932616Y-173529285D02*
X335837378Y-173481666D01*
X335837378Y-173481666D02*
X335789759Y-173434047D01*
X335789759Y-173434047D02*
X335742140Y-173338809D01*
D11*
X338342605Y-169543571D02*
X337542605Y-169543571D01*
X337542605Y-169543571D02*
X337542605Y-169734047D01*
X337542605Y-169734047D02*
X337580700Y-169848333D01*
X337580700Y-169848333D02*
X337656890Y-169924523D01*
X337656890Y-169924523D02*
X337733081Y-169962618D01*
X337733081Y-169962618D02*
X337885462Y-170000714D01*
X337885462Y-170000714D02*
X337999748Y-170000714D01*
X337999748Y-170000714D02*
X338152129Y-169962618D01*
X338152129Y-169962618D02*
X338228319Y-169924523D01*
X338228319Y-169924523D02*
X338304510Y-169848333D01*
X338304510Y-169848333D02*
X338342605Y-169734047D01*
X338342605Y-169734047D02*
X338342605Y-169543571D01*
X338342605Y-170762618D02*
X338342605Y-170305475D01*
X338342605Y-170534047D02*
X337542605Y-170534047D01*
X337542605Y-170534047D02*
X337656890Y-170457856D01*
X337656890Y-170457856D02*
X337733081Y-170381666D01*
X337733081Y-170381666D02*
X337771176Y-170305475D01*
X337542605Y-171029285D02*
X337542605Y-171524523D01*
X337542605Y-171524523D02*
X337847367Y-171257857D01*
X337847367Y-171257857D02*
X337847367Y-171372142D01*
X337847367Y-171372142D02*
X337885462Y-171448333D01*
X337885462Y-171448333D02*
X337923557Y-171486428D01*
X337923557Y-171486428D02*
X337999748Y-171524523D01*
X337999748Y-171524523D02*
X338190224Y-171524523D01*
X338190224Y-171524523D02*
X338266414Y-171486428D01*
X338266414Y-171486428D02*
X338304510Y-171448333D01*
X338304510Y-171448333D02*
X338342605Y-171372142D01*
X338342605Y-171372142D02*
X338342605Y-171143571D01*
X338342605Y-171143571D02*
X338304510Y-171067380D01*
X338304510Y-171067380D02*
X338266414Y-171029285D01*
D10*
X340233569Y-174363095D02*
X339233569Y-174363095D01*
X340233569Y-174934523D02*
X339662140Y-174505952D01*
X339233569Y-174934523D02*
X339804997Y-174363095D01*
X279163569Y-202009642D02*
X279163569Y-201438214D01*
X279163569Y-201723928D02*
X278163569Y-201723928D01*
X278163569Y-201723928D02*
X278306426Y-201628690D01*
X278306426Y-201628690D02*
X278401664Y-201533452D01*
X278401664Y-201533452D02*
X278449283Y-201438214D01*
X279163569Y-202438214D02*
X278163569Y-202438214D01*
X278163569Y-202438214D02*
X279163569Y-203009642D01*
X279163569Y-203009642D02*
X278163569Y-203009642D01*
X278496902Y-203914404D02*
X279163569Y-203914404D01*
X278115950Y-203676309D02*
X278830235Y-203438214D01*
X278830235Y-203438214D02*
X278830235Y-204057261D01*
X279163569Y-204962023D02*
X279163569Y-204390595D01*
X279163569Y-204676309D02*
X278163569Y-204676309D01*
X278163569Y-204676309D02*
X278306426Y-204581071D01*
X278306426Y-204581071D02*
X278401664Y-204485833D01*
X278401664Y-204485833D02*
X278449283Y-204390595D01*
X278496902Y-205819166D02*
X279163569Y-205819166D01*
X278115950Y-205581071D02*
X278830235Y-205342976D01*
X278830235Y-205342976D02*
X278830235Y-205962023D01*
X278592140Y-206485833D02*
X278544521Y-206390595D01*
X278544521Y-206390595D02*
X278496902Y-206342976D01*
X278496902Y-206342976D02*
X278401664Y-206295357D01*
X278401664Y-206295357D02*
X278354045Y-206295357D01*
X278354045Y-206295357D02*
X278258807Y-206342976D01*
X278258807Y-206342976D02*
X278211188Y-206390595D01*
X278211188Y-206390595D02*
X278163569Y-206485833D01*
X278163569Y-206485833D02*
X278163569Y-206676309D01*
X278163569Y-206676309D02*
X278211188Y-206771547D01*
X278211188Y-206771547D02*
X278258807Y-206819166D01*
X278258807Y-206819166D02*
X278354045Y-206866785D01*
X278354045Y-206866785D02*
X278401664Y-206866785D01*
X278401664Y-206866785D02*
X278496902Y-206819166D01*
X278496902Y-206819166D02*
X278544521Y-206771547D01*
X278544521Y-206771547D02*
X278592140Y-206676309D01*
X278592140Y-206676309D02*
X278592140Y-206485833D01*
X278592140Y-206485833D02*
X278639759Y-206390595D01*
X278639759Y-206390595D02*
X278687378Y-206342976D01*
X278687378Y-206342976D02*
X278782616Y-206295357D01*
X278782616Y-206295357D02*
X278973092Y-206295357D01*
X278973092Y-206295357D02*
X279068330Y-206342976D01*
X279068330Y-206342976D02*
X279115950Y-206390595D01*
X279115950Y-206390595D02*
X279163569Y-206485833D01*
X279163569Y-206485833D02*
X279163569Y-206676309D01*
X279163569Y-206676309D02*
X279115950Y-206771547D01*
X279115950Y-206771547D02*
X279068330Y-206819166D01*
X279068330Y-206819166D02*
X278973092Y-206866785D01*
X278973092Y-206866785D02*
X278782616Y-206866785D01*
X278782616Y-206866785D02*
X278687378Y-206819166D01*
X278687378Y-206819166D02*
X278639759Y-206771547D01*
X278639759Y-206771547D02*
X278592140Y-206676309D01*
D11*
X281192605Y-203262024D02*
X280392605Y-203262024D01*
X280392605Y-203262024D02*
X280392605Y-203452500D01*
X280392605Y-203452500D02*
X280430700Y-203566786D01*
X280430700Y-203566786D02*
X280506890Y-203642976D01*
X280506890Y-203642976D02*
X280583081Y-203681071D01*
X280583081Y-203681071D02*
X280735462Y-203719167D01*
X280735462Y-203719167D02*
X280849748Y-203719167D01*
X280849748Y-203719167D02*
X281002129Y-203681071D01*
X281002129Y-203681071D02*
X281078319Y-203642976D01*
X281078319Y-203642976D02*
X281154510Y-203566786D01*
X281154510Y-203566786D02*
X281192605Y-203452500D01*
X281192605Y-203452500D02*
X281192605Y-203262024D01*
X280392605Y-204442976D02*
X280392605Y-204062024D01*
X280392605Y-204062024D02*
X280773557Y-204023928D01*
X280773557Y-204023928D02*
X280735462Y-204062024D01*
X280735462Y-204062024D02*
X280697367Y-204138214D01*
X280697367Y-204138214D02*
X280697367Y-204328690D01*
X280697367Y-204328690D02*
X280735462Y-204404881D01*
X280735462Y-204404881D02*
X280773557Y-204442976D01*
X280773557Y-204442976D02*
X280849748Y-204481071D01*
X280849748Y-204481071D02*
X281040224Y-204481071D01*
X281040224Y-204481071D02*
X281116414Y-204442976D01*
X281116414Y-204442976D02*
X281154510Y-204404881D01*
X281154510Y-204404881D02*
X281192605Y-204328690D01*
X281192605Y-204328690D02*
X281192605Y-204138214D01*
X281192605Y-204138214D02*
X281154510Y-204062024D01*
X281154510Y-204062024D02*
X281116414Y-204023928D01*
D10*
X283083569Y-207700595D02*
X282083569Y-207700595D01*
X283083569Y-208272023D02*
X282512140Y-207843452D01*
X282083569Y-208272023D02*
X282654997Y-207700595D01*
X83901069Y-211534642D02*
X83901069Y-210963214D01*
X83901069Y-211248928D02*
X82901069Y-211248928D01*
X82901069Y-211248928D02*
X83043926Y-211153690D01*
X83043926Y-211153690D02*
X83139164Y-211058452D01*
X83139164Y-211058452D02*
X83186783Y-210963214D01*
X83901069Y-211963214D02*
X82901069Y-211963214D01*
X82901069Y-211963214D02*
X83901069Y-212534642D01*
X83901069Y-212534642D02*
X82901069Y-212534642D01*
X83234402Y-213439404D02*
X83901069Y-213439404D01*
X82853450Y-213201309D02*
X83567735Y-212963214D01*
X83567735Y-212963214D02*
X83567735Y-213582261D01*
X83901069Y-214487023D02*
X83901069Y-213915595D01*
X83901069Y-214201309D02*
X82901069Y-214201309D01*
X82901069Y-214201309D02*
X83043926Y-214106071D01*
X83043926Y-214106071D02*
X83139164Y-214010833D01*
X83139164Y-214010833D02*
X83186783Y-213915595D01*
X83234402Y-215344166D02*
X83901069Y-215344166D01*
X82853450Y-215106071D02*
X83567735Y-214867976D01*
X83567735Y-214867976D02*
X83567735Y-215487023D01*
X83329640Y-216010833D02*
X83282021Y-215915595D01*
X83282021Y-215915595D02*
X83234402Y-215867976D01*
X83234402Y-215867976D02*
X83139164Y-215820357D01*
X83139164Y-215820357D02*
X83091545Y-215820357D01*
X83091545Y-215820357D02*
X82996307Y-215867976D01*
X82996307Y-215867976D02*
X82948688Y-215915595D01*
X82948688Y-215915595D02*
X82901069Y-216010833D01*
X82901069Y-216010833D02*
X82901069Y-216201309D01*
X82901069Y-216201309D02*
X82948688Y-216296547D01*
X82948688Y-216296547D02*
X82996307Y-216344166D01*
X82996307Y-216344166D02*
X83091545Y-216391785D01*
X83091545Y-216391785D02*
X83139164Y-216391785D01*
X83139164Y-216391785D02*
X83234402Y-216344166D01*
X83234402Y-216344166D02*
X83282021Y-216296547D01*
X83282021Y-216296547D02*
X83329640Y-216201309D01*
X83329640Y-216201309D02*
X83329640Y-216010833D01*
X83329640Y-216010833D02*
X83377259Y-215915595D01*
X83377259Y-215915595D02*
X83424878Y-215867976D01*
X83424878Y-215867976D02*
X83520116Y-215820357D01*
X83520116Y-215820357D02*
X83710592Y-215820357D01*
X83710592Y-215820357D02*
X83805830Y-215867976D01*
X83805830Y-215867976D02*
X83853450Y-215915595D01*
X83853450Y-215915595D02*
X83901069Y-216010833D01*
X83901069Y-216010833D02*
X83901069Y-216201309D01*
X83901069Y-216201309D02*
X83853450Y-216296547D01*
X83853450Y-216296547D02*
X83805830Y-216344166D01*
X83805830Y-216344166D02*
X83710592Y-216391785D01*
X83710592Y-216391785D02*
X83520116Y-216391785D01*
X83520116Y-216391785D02*
X83424878Y-216344166D01*
X83424878Y-216344166D02*
X83377259Y-216296547D01*
X83377259Y-216296547D02*
X83329640Y-216201309D01*
D11*
X85930105Y-212406071D02*
X85130105Y-212406071D01*
X85130105Y-212406071D02*
X85130105Y-212596547D01*
X85130105Y-212596547D02*
X85168200Y-212710833D01*
X85168200Y-212710833D02*
X85244390Y-212787023D01*
X85244390Y-212787023D02*
X85320581Y-212825118D01*
X85320581Y-212825118D02*
X85472962Y-212863214D01*
X85472962Y-212863214D02*
X85587248Y-212863214D01*
X85587248Y-212863214D02*
X85739629Y-212825118D01*
X85739629Y-212825118D02*
X85815819Y-212787023D01*
X85815819Y-212787023D02*
X85892010Y-212710833D01*
X85892010Y-212710833D02*
X85930105Y-212596547D01*
X85930105Y-212596547D02*
X85930105Y-212406071D01*
X85930105Y-213625118D02*
X85930105Y-213167975D01*
X85930105Y-213396547D02*
X85130105Y-213396547D01*
X85130105Y-213396547D02*
X85244390Y-213320356D01*
X85244390Y-213320356D02*
X85320581Y-213244166D01*
X85320581Y-213244166D02*
X85358676Y-213167975D01*
X85130105Y-214310833D02*
X85130105Y-214158452D01*
X85130105Y-214158452D02*
X85168200Y-214082261D01*
X85168200Y-214082261D02*
X85206295Y-214044166D01*
X85206295Y-214044166D02*
X85320581Y-213967976D01*
X85320581Y-213967976D02*
X85472962Y-213929880D01*
X85472962Y-213929880D02*
X85777724Y-213929880D01*
X85777724Y-213929880D02*
X85853914Y-213967976D01*
X85853914Y-213967976D02*
X85892010Y-214006071D01*
X85892010Y-214006071D02*
X85930105Y-214082261D01*
X85930105Y-214082261D02*
X85930105Y-214234642D01*
X85930105Y-214234642D02*
X85892010Y-214310833D01*
X85892010Y-214310833D02*
X85853914Y-214348928D01*
X85853914Y-214348928D02*
X85777724Y-214387023D01*
X85777724Y-214387023D02*
X85587248Y-214387023D01*
X85587248Y-214387023D02*
X85511057Y-214348928D01*
X85511057Y-214348928D02*
X85472962Y-214310833D01*
X85472962Y-214310833D02*
X85434867Y-214234642D01*
X85434867Y-214234642D02*
X85434867Y-214082261D01*
X85434867Y-214082261D02*
X85472962Y-214006071D01*
X85472962Y-214006071D02*
X85511057Y-213967976D01*
X85511057Y-213967976D02*
X85587248Y-213929880D01*
D10*
X87821069Y-217225595D02*
X86821069Y-217225595D01*
X87821069Y-217797023D02*
X87249640Y-217368452D01*
X86821069Y-217797023D02*
X87392497Y-217225595D01*
X317263569Y-202009642D02*
X317263569Y-201438214D01*
X317263569Y-201723928D02*
X316263569Y-201723928D01*
X316263569Y-201723928D02*
X316406426Y-201628690D01*
X316406426Y-201628690D02*
X316501664Y-201533452D01*
X316501664Y-201533452D02*
X316549283Y-201438214D01*
X317263569Y-202438214D02*
X316263569Y-202438214D01*
X316263569Y-202438214D02*
X317263569Y-203009642D01*
X317263569Y-203009642D02*
X316263569Y-203009642D01*
X316596902Y-203914404D02*
X317263569Y-203914404D01*
X316215950Y-203676309D02*
X316930235Y-203438214D01*
X316930235Y-203438214D02*
X316930235Y-204057261D01*
X317263569Y-204962023D02*
X317263569Y-204390595D01*
X317263569Y-204676309D02*
X316263569Y-204676309D01*
X316263569Y-204676309D02*
X316406426Y-204581071D01*
X316406426Y-204581071D02*
X316501664Y-204485833D01*
X316501664Y-204485833D02*
X316549283Y-204390595D01*
X316596902Y-205819166D02*
X317263569Y-205819166D01*
X316215950Y-205581071D02*
X316930235Y-205342976D01*
X316930235Y-205342976D02*
X316930235Y-205962023D01*
X316692140Y-206485833D02*
X316644521Y-206390595D01*
X316644521Y-206390595D02*
X316596902Y-206342976D01*
X316596902Y-206342976D02*
X316501664Y-206295357D01*
X316501664Y-206295357D02*
X316454045Y-206295357D01*
X316454045Y-206295357D02*
X316358807Y-206342976D01*
X316358807Y-206342976D02*
X316311188Y-206390595D01*
X316311188Y-206390595D02*
X316263569Y-206485833D01*
X316263569Y-206485833D02*
X316263569Y-206676309D01*
X316263569Y-206676309D02*
X316311188Y-206771547D01*
X316311188Y-206771547D02*
X316358807Y-206819166D01*
X316358807Y-206819166D02*
X316454045Y-206866785D01*
X316454045Y-206866785D02*
X316501664Y-206866785D01*
X316501664Y-206866785D02*
X316596902Y-206819166D01*
X316596902Y-206819166D02*
X316644521Y-206771547D01*
X316644521Y-206771547D02*
X316692140Y-206676309D01*
X316692140Y-206676309D02*
X316692140Y-206485833D01*
X316692140Y-206485833D02*
X316739759Y-206390595D01*
X316739759Y-206390595D02*
X316787378Y-206342976D01*
X316787378Y-206342976D02*
X316882616Y-206295357D01*
X316882616Y-206295357D02*
X317073092Y-206295357D01*
X317073092Y-206295357D02*
X317168330Y-206342976D01*
X317168330Y-206342976D02*
X317215950Y-206390595D01*
X317215950Y-206390595D02*
X317263569Y-206485833D01*
X317263569Y-206485833D02*
X317263569Y-206676309D01*
X317263569Y-206676309D02*
X317215950Y-206771547D01*
X317215950Y-206771547D02*
X317168330Y-206819166D01*
X317168330Y-206819166D02*
X317073092Y-206866785D01*
X317073092Y-206866785D02*
X316882616Y-206866785D01*
X316882616Y-206866785D02*
X316787378Y-206819166D01*
X316787378Y-206819166D02*
X316739759Y-206771547D01*
X316739759Y-206771547D02*
X316692140Y-206676309D01*
X321183569Y-207700595D02*
X320183569Y-207700595D01*
X321183569Y-208272023D02*
X320612140Y-207843452D01*
X320183569Y-208272023D02*
X320754997Y-207700595D01*
D11*
X319292605Y-203262024D02*
X318492605Y-203262024D01*
X318492605Y-203262024D02*
X318492605Y-203452500D01*
X318492605Y-203452500D02*
X318530700Y-203566786D01*
X318530700Y-203566786D02*
X318606890Y-203642976D01*
X318606890Y-203642976D02*
X318683081Y-203681071D01*
X318683081Y-203681071D02*
X318835462Y-203719167D01*
X318835462Y-203719167D02*
X318949748Y-203719167D01*
X318949748Y-203719167D02*
X319102129Y-203681071D01*
X319102129Y-203681071D02*
X319178319Y-203642976D01*
X319178319Y-203642976D02*
X319254510Y-203566786D01*
X319254510Y-203566786D02*
X319292605Y-203452500D01*
X319292605Y-203452500D02*
X319292605Y-203262024D01*
X318492605Y-204404881D02*
X318492605Y-204252500D01*
X318492605Y-204252500D02*
X318530700Y-204176309D01*
X318530700Y-204176309D02*
X318568795Y-204138214D01*
X318568795Y-204138214D02*
X318683081Y-204062024D01*
X318683081Y-204062024D02*
X318835462Y-204023928D01*
X318835462Y-204023928D02*
X319140224Y-204023928D01*
X319140224Y-204023928D02*
X319216414Y-204062024D01*
X319216414Y-204062024D02*
X319254510Y-204100119D01*
X319254510Y-204100119D02*
X319292605Y-204176309D01*
X319292605Y-204176309D02*
X319292605Y-204328690D01*
X319292605Y-204328690D02*
X319254510Y-204404881D01*
X319254510Y-204404881D02*
X319216414Y-204442976D01*
X319216414Y-204442976D02*
X319140224Y-204481071D01*
X319140224Y-204481071D02*
X318949748Y-204481071D01*
X318949748Y-204481071D02*
X318873557Y-204442976D01*
X318873557Y-204442976D02*
X318835462Y-204404881D01*
X318835462Y-204404881D02*
X318797367Y-204328690D01*
X318797367Y-204328690D02*
X318797367Y-204176309D01*
X318797367Y-204176309D02*
X318835462Y-204100119D01*
X318835462Y-204100119D02*
X318873557Y-204062024D01*
X318873557Y-204062024D02*
X318949748Y-204023928D01*
D10*
X164863569Y-168672142D02*
X164863569Y-168100714D01*
X164863569Y-168386428D02*
X163863569Y-168386428D01*
X163863569Y-168386428D02*
X164006426Y-168291190D01*
X164006426Y-168291190D02*
X164101664Y-168195952D01*
X164101664Y-168195952D02*
X164149283Y-168100714D01*
X164863569Y-169100714D02*
X163863569Y-169100714D01*
X163863569Y-169100714D02*
X164863569Y-169672142D01*
X164863569Y-169672142D02*
X163863569Y-169672142D01*
X164196902Y-170576904D02*
X164863569Y-170576904D01*
X163815950Y-170338809D02*
X164530235Y-170100714D01*
X164530235Y-170100714D02*
X164530235Y-170719761D01*
X164863569Y-171624523D02*
X164863569Y-171053095D01*
X164863569Y-171338809D02*
X163863569Y-171338809D01*
X163863569Y-171338809D02*
X164006426Y-171243571D01*
X164006426Y-171243571D02*
X164101664Y-171148333D01*
X164101664Y-171148333D02*
X164149283Y-171053095D01*
X164196902Y-172481666D02*
X164863569Y-172481666D01*
X163815950Y-172243571D02*
X164530235Y-172005476D01*
X164530235Y-172005476D02*
X164530235Y-172624523D01*
X164292140Y-173148333D02*
X164244521Y-173053095D01*
X164244521Y-173053095D02*
X164196902Y-173005476D01*
X164196902Y-173005476D02*
X164101664Y-172957857D01*
X164101664Y-172957857D02*
X164054045Y-172957857D01*
X164054045Y-172957857D02*
X163958807Y-173005476D01*
X163958807Y-173005476D02*
X163911188Y-173053095D01*
X163911188Y-173053095D02*
X163863569Y-173148333D01*
X163863569Y-173148333D02*
X163863569Y-173338809D01*
X163863569Y-173338809D02*
X163911188Y-173434047D01*
X163911188Y-173434047D02*
X163958807Y-173481666D01*
X163958807Y-173481666D02*
X164054045Y-173529285D01*
X164054045Y-173529285D02*
X164101664Y-173529285D01*
X164101664Y-173529285D02*
X164196902Y-173481666D01*
X164196902Y-173481666D02*
X164244521Y-173434047D01*
X164244521Y-173434047D02*
X164292140Y-173338809D01*
X164292140Y-173338809D02*
X164292140Y-173148333D01*
X164292140Y-173148333D02*
X164339759Y-173053095D01*
X164339759Y-173053095D02*
X164387378Y-173005476D01*
X164387378Y-173005476D02*
X164482616Y-172957857D01*
X164482616Y-172957857D02*
X164673092Y-172957857D01*
X164673092Y-172957857D02*
X164768330Y-173005476D01*
X164768330Y-173005476D02*
X164815950Y-173053095D01*
X164815950Y-173053095D02*
X164863569Y-173148333D01*
X164863569Y-173148333D02*
X164863569Y-173338809D01*
X164863569Y-173338809D02*
X164815950Y-173434047D01*
X164815950Y-173434047D02*
X164768330Y-173481666D01*
X164768330Y-173481666D02*
X164673092Y-173529285D01*
X164673092Y-173529285D02*
X164482616Y-173529285D01*
X164482616Y-173529285D02*
X164387378Y-173481666D01*
X164387378Y-173481666D02*
X164339759Y-173434047D01*
X164339759Y-173434047D02*
X164292140Y-173338809D01*
D11*
X166892605Y-169924524D02*
X166092605Y-169924524D01*
X166092605Y-169924524D02*
X166092605Y-170115000D01*
X166092605Y-170115000D02*
X166130700Y-170229286D01*
X166130700Y-170229286D02*
X166206890Y-170305476D01*
X166206890Y-170305476D02*
X166283081Y-170343571D01*
X166283081Y-170343571D02*
X166435462Y-170381667D01*
X166435462Y-170381667D02*
X166549748Y-170381667D01*
X166549748Y-170381667D02*
X166702129Y-170343571D01*
X166702129Y-170343571D02*
X166778319Y-170305476D01*
X166778319Y-170305476D02*
X166854510Y-170229286D01*
X166854510Y-170229286D02*
X166892605Y-170115000D01*
X166892605Y-170115000D02*
X166892605Y-169924524D01*
X166892605Y-170762619D02*
X166892605Y-170915000D01*
X166892605Y-170915000D02*
X166854510Y-170991190D01*
X166854510Y-170991190D02*
X166816414Y-171029286D01*
X166816414Y-171029286D02*
X166702129Y-171105476D01*
X166702129Y-171105476D02*
X166549748Y-171143571D01*
X166549748Y-171143571D02*
X166244986Y-171143571D01*
X166244986Y-171143571D02*
X166168795Y-171105476D01*
X166168795Y-171105476D02*
X166130700Y-171067381D01*
X166130700Y-171067381D02*
X166092605Y-170991190D01*
X166092605Y-170991190D02*
X166092605Y-170838809D01*
X166092605Y-170838809D02*
X166130700Y-170762619D01*
X166130700Y-170762619D02*
X166168795Y-170724524D01*
X166168795Y-170724524D02*
X166244986Y-170686428D01*
X166244986Y-170686428D02*
X166435462Y-170686428D01*
X166435462Y-170686428D02*
X166511652Y-170724524D01*
X166511652Y-170724524D02*
X166549748Y-170762619D01*
X166549748Y-170762619D02*
X166587843Y-170838809D01*
X166587843Y-170838809D02*
X166587843Y-170991190D01*
X166587843Y-170991190D02*
X166549748Y-171067381D01*
X166549748Y-171067381D02*
X166511652Y-171105476D01*
X166511652Y-171105476D02*
X166435462Y-171143571D01*
D10*
X168783569Y-174363095D02*
X167783569Y-174363095D01*
X168783569Y-174934523D02*
X168212140Y-174505952D01*
X167783569Y-174934523D02*
X168354997Y-174363095D01*
D12*
G04 #@! TO.C,D17*
X103616250Y-211677500D02*
X103616250Y-215677500D01*
X103616250Y-214977500D02*
X105616250Y-214977500D01*
X103616250Y-215077500D02*
X105616250Y-215077500D01*
X103616250Y-215177500D02*
X105616250Y-215177500D01*
X103616250Y-215677500D02*
X105616250Y-215677500D01*
X104616250Y-211677500D02*
X104616250Y-209867500D01*
X104616250Y-215677500D02*
X104616250Y-217487500D01*
X105616250Y-211677500D02*
X103616250Y-211677500D01*
X105616250Y-215677500D02*
X105616250Y-211677500D01*
G04 #@! TO.C,D11*
X260778750Y-168815000D02*
X260778750Y-172815000D01*
X260778750Y-172115000D02*
X262778750Y-172115000D01*
X260778750Y-172215000D02*
X262778750Y-172215000D01*
X260778750Y-172315000D02*
X262778750Y-172315000D01*
X260778750Y-172815000D02*
X262778750Y-172815000D01*
X261778750Y-168815000D02*
X261778750Y-167005000D01*
X261778750Y-172815000D02*
X261778750Y-174625000D01*
X262778750Y-168815000D02*
X260778750Y-168815000D01*
X262778750Y-172815000D02*
X262778750Y-168815000D01*
G04 #@! TO.C,D4*
X241728750Y-202152500D02*
X241728750Y-206152500D01*
X241728750Y-205452500D02*
X243728750Y-205452500D01*
X241728750Y-205552500D02*
X243728750Y-205552500D01*
X241728750Y-205652500D02*
X243728750Y-205652500D01*
X241728750Y-206152500D02*
X243728750Y-206152500D01*
X242728750Y-202152500D02*
X242728750Y-200342500D01*
X242728750Y-206152500D02*
X242728750Y-207962500D01*
X243728750Y-202152500D02*
X241728750Y-202152500D01*
X243728750Y-206152500D02*
X243728750Y-202152500D01*
G04 #@! TO.C,D10*
X203628750Y-168815000D02*
X203628750Y-172815000D01*
X203628750Y-172115000D02*
X205628750Y-172115000D01*
X203628750Y-172215000D02*
X205628750Y-172215000D01*
X203628750Y-172315000D02*
X205628750Y-172315000D01*
X203628750Y-172815000D02*
X205628750Y-172815000D01*
X204628750Y-168815000D02*
X204628750Y-167005000D01*
X204628750Y-172815000D02*
X204628750Y-174625000D01*
X205628750Y-168815000D02*
X203628750Y-168815000D01*
X205628750Y-172815000D02*
X205628750Y-168815000D01*
G04 #@! TO.C,D14*
X84566250Y-192627500D02*
X84566250Y-196627500D01*
X84566250Y-195927500D02*
X86566250Y-195927500D01*
X84566250Y-196027500D02*
X86566250Y-196027500D01*
X84566250Y-196127500D02*
X86566250Y-196127500D01*
X84566250Y-196627500D02*
X86566250Y-196627500D01*
X85566250Y-192627500D02*
X85566250Y-190817500D01*
X85566250Y-196627500D02*
X85566250Y-198437500D01*
X86566250Y-192627500D02*
X84566250Y-192627500D01*
X86566250Y-196627500D02*
X86566250Y-192627500D01*
G04 #@! TO.C,D8*
X375078750Y-202152500D02*
X375078750Y-206152500D01*
X375078750Y-205452500D02*
X377078750Y-205452500D01*
X375078750Y-205552500D02*
X377078750Y-205552500D01*
X375078750Y-205652500D02*
X377078750Y-205652500D01*
X375078750Y-206152500D02*
X377078750Y-206152500D01*
X376078750Y-202152500D02*
X376078750Y-200342500D01*
X376078750Y-206152500D02*
X376078750Y-207962500D01*
X377078750Y-202152500D02*
X375078750Y-202152500D01*
X377078750Y-206152500D02*
X377078750Y-202152500D01*
G04 #@! TO.C,D15*
X103616250Y-192627500D02*
X103616250Y-196627500D01*
X103616250Y-195927500D02*
X105616250Y-195927500D01*
X103616250Y-196027500D02*
X105616250Y-196027500D01*
X103616250Y-196127500D02*
X105616250Y-196127500D01*
X103616250Y-196627500D02*
X105616250Y-196627500D01*
X104616250Y-192627500D02*
X104616250Y-190817500D01*
X104616250Y-196627500D02*
X104616250Y-198437500D01*
X105616250Y-192627500D02*
X103616250Y-192627500D01*
X105616250Y-196627500D02*
X105616250Y-192627500D01*
G04 #@! TO.C,D2*
X184578750Y-202152500D02*
X184578750Y-206152500D01*
X184578750Y-205452500D02*
X186578750Y-205452500D01*
X184578750Y-205552500D02*
X186578750Y-205552500D01*
X184578750Y-205652500D02*
X186578750Y-205652500D01*
X184578750Y-206152500D02*
X186578750Y-206152500D01*
X185578750Y-202152500D02*
X185578750Y-200342500D01*
X185578750Y-206152500D02*
X185578750Y-207962500D01*
X186578750Y-202152500D02*
X184578750Y-202152500D01*
X186578750Y-206152500D02*
X186578750Y-202152500D01*
G04 #@! TO.C,D3*
X222678750Y-202152500D02*
X222678750Y-206152500D01*
X222678750Y-205452500D02*
X224678750Y-205452500D01*
X222678750Y-205552500D02*
X224678750Y-205552500D01*
X222678750Y-205652500D02*
X224678750Y-205652500D01*
X222678750Y-206152500D02*
X224678750Y-206152500D01*
X223678750Y-202152500D02*
X223678750Y-200342500D01*
X223678750Y-206152500D02*
X223678750Y-207962500D01*
X224678750Y-202152500D02*
X222678750Y-202152500D01*
X224678750Y-206152500D02*
X224678750Y-202152500D01*
G04 #@! TO.C,D12*
X298878750Y-168815000D02*
X298878750Y-172815000D01*
X298878750Y-172115000D02*
X300878750Y-172115000D01*
X298878750Y-172215000D02*
X300878750Y-172215000D01*
X298878750Y-172315000D02*
X300878750Y-172315000D01*
X298878750Y-172815000D02*
X300878750Y-172815000D01*
X299878750Y-168815000D02*
X299878750Y-167005000D01*
X299878750Y-172815000D02*
X299878750Y-174625000D01*
X300878750Y-168815000D02*
X298878750Y-168815000D01*
X300878750Y-172815000D02*
X300878750Y-168815000D01*
D13*
G04 #@! TO.C,U2*
X75913750Y-173355000D02*
X75913750Y-179705000D01*
X75913750Y-179705000D02*
X95218750Y-179705000D01*
X95218750Y-173355000D02*
X75913750Y-173355000D01*
X95218750Y-179705000D02*
X95218750Y-173355000D01*
D14*
X93266250Y-181830000D02*
G75*
G02*
X93066250Y-181830000I-100000J0D01*
G01*
X93066250Y-181830000D02*
G75*
G02*
X93266250Y-181830000I100000J0D01*
G01*
D12*
G04 #@! TO.C,D1*
X146478750Y-202152500D02*
X146478750Y-206152500D01*
X146478750Y-205452500D02*
X148478750Y-205452500D01*
X146478750Y-205552500D02*
X148478750Y-205552500D01*
X146478750Y-205652500D02*
X148478750Y-205652500D01*
X146478750Y-206152500D02*
X148478750Y-206152500D01*
X147478750Y-202152500D02*
X147478750Y-200342500D01*
X147478750Y-206152500D02*
X147478750Y-207962500D01*
X148478750Y-202152500D02*
X146478750Y-202152500D01*
X148478750Y-206152500D02*
X148478750Y-202152500D01*
G04 #@! TO.C,D7*
X356028750Y-202152500D02*
X356028750Y-206152500D01*
X356028750Y-205452500D02*
X358028750Y-205452500D01*
X356028750Y-205552500D02*
X358028750Y-205552500D01*
X356028750Y-205652500D02*
X358028750Y-205652500D01*
X356028750Y-206152500D02*
X358028750Y-206152500D01*
X357028750Y-202152500D02*
X357028750Y-200342500D01*
X357028750Y-206152500D02*
X357028750Y-207962500D01*
X358028750Y-202152500D02*
X356028750Y-202152500D01*
X358028750Y-206152500D02*
X358028750Y-202152500D01*
D11*
G04 #@! TO.C,U1*
X53326250Y-146187500D02*
X104326250Y-146187500D01*
X53326250Y-147487500D02*
X54626250Y-146187500D01*
X53326250Y-167187500D02*
X53326250Y-146187500D01*
X104326250Y-146187500D02*
X104326250Y-167187500D01*
X104326250Y-167187500D02*
X53326250Y-167187500D01*
D12*
G04 #@! TO.C,D13*
X336978750Y-168815000D02*
X336978750Y-172815000D01*
X336978750Y-172115000D02*
X338978750Y-172115000D01*
X336978750Y-172215000D02*
X338978750Y-172215000D01*
X336978750Y-172315000D02*
X338978750Y-172315000D01*
X336978750Y-172815000D02*
X338978750Y-172815000D01*
X337978750Y-168815000D02*
X337978750Y-167005000D01*
X337978750Y-172815000D02*
X337978750Y-174625000D01*
X338978750Y-168815000D02*
X336978750Y-168815000D01*
X338978750Y-172815000D02*
X338978750Y-168815000D01*
G04 #@! TO.C,D5*
X279828750Y-202152500D02*
X279828750Y-206152500D01*
X279828750Y-205452500D02*
X281828750Y-205452500D01*
X279828750Y-205552500D02*
X281828750Y-205552500D01*
X279828750Y-205652500D02*
X281828750Y-205652500D01*
X279828750Y-206152500D02*
X281828750Y-206152500D01*
X280828750Y-202152500D02*
X280828750Y-200342500D01*
X280828750Y-206152500D02*
X280828750Y-207962500D01*
X281828750Y-202152500D02*
X279828750Y-202152500D01*
X281828750Y-206152500D02*
X281828750Y-202152500D01*
G04 #@! TO.C,D16*
X84566250Y-211677500D02*
X84566250Y-215677500D01*
X84566250Y-214977500D02*
X86566250Y-214977500D01*
X84566250Y-215077500D02*
X86566250Y-215077500D01*
X84566250Y-215177500D02*
X86566250Y-215177500D01*
X84566250Y-215677500D02*
X86566250Y-215677500D01*
X85566250Y-211677500D02*
X85566250Y-209867500D01*
X85566250Y-215677500D02*
X85566250Y-217487500D01*
X86566250Y-211677500D02*
X84566250Y-211677500D01*
X86566250Y-215677500D02*
X86566250Y-211677500D01*
G04 #@! TO.C,D6*
X317928750Y-202152500D02*
X317928750Y-206152500D01*
X317928750Y-205452500D02*
X319928750Y-205452500D01*
X317928750Y-205552500D02*
X319928750Y-205552500D01*
X317928750Y-205652500D02*
X319928750Y-205652500D01*
X317928750Y-206152500D02*
X319928750Y-206152500D01*
X318928750Y-202152500D02*
X318928750Y-200342500D01*
X318928750Y-206152500D02*
X318928750Y-207962500D01*
X319928750Y-202152500D02*
X317928750Y-202152500D01*
X319928750Y-206152500D02*
X319928750Y-202152500D01*
G04 #@! TO.C,D9*
X165528750Y-168815000D02*
X165528750Y-172815000D01*
X165528750Y-172115000D02*
X167528750Y-172115000D01*
X165528750Y-172215000D02*
X167528750Y-172215000D01*
X165528750Y-172315000D02*
X167528750Y-172315000D01*
X165528750Y-172815000D02*
X167528750Y-172815000D01*
X166528750Y-168815000D02*
X166528750Y-167005000D01*
X166528750Y-172815000D02*
X166528750Y-174625000D01*
X167528750Y-168815000D02*
X165528750Y-168815000D01*
X167528750Y-172815000D02*
X167528750Y-168815000D01*
G04 #@! TD*
M02*
